%TF.GenerationSoftware,KiCad,Pcbnew,8.0.3*%
%TF.CreationDate,2024-08-10T21:36:20-07:00*%
%TF.ProjectId,v2,76322e6b-6963-4616-945f-706362585858,rev?*%
%TF.SameCoordinates,Original*%
%TF.FileFunction,Paste,Bot*%
%TF.FilePolarity,Positive*%
%FSLAX46Y46*%
G04 Gerber Fmt 4.6, Leading zero omitted, Abs format (unit mm)*
G04 Created by KiCad (PCBNEW 8.0.3) date 2024-08-10 21:36:20*
%MOMM*%
%LPD*%
G01*
G04 APERTURE LIST*
G04 Aperture macros list*
%AMRoundRect*
0 Rectangle with rounded corners*
0 $1 Rounding radius*
0 $2 $3 $4 $5 $6 $7 $8 $9 X,Y pos of 4 corners*
0 Add a 4 corners polygon primitive as box body*
4,1,4,$2,$3,$4,$5,$6,$7,$8,$9,$2,$3,0*
0 Add four circle primitives for the rounded corners*
1,1,$1+$1,$2,$3*
1,1,$1+$1,$4,$5*
1,1,$1+$1,$6,$7*
1,1,$1+$1,$8,$9*
0 Add four rect primitives between the rounded corners*
20,1,$1+$1,$2,$3,$4,$5,0*
20,1,$1+$1,$4,$5,$6,$7,0*
20,1,$1+$1,$6,$7,$8,$9,0*
20,1,$1+$1,$8,$9,$2,$3,0*%
G04 Aperture macros list end*
%ADD10RoundRect,0.237500X0.237500X-0.250000X0.237500X0.250000X-0.237500X0.250000X-0.237500X-0.250000X0*%
%ADD11RoundRect,0.050000X-0.150000X0.545000X-0.150000X-0.545000X0.150000X-0.545000X0.150000X0.545000X0*%
%ADD12RoundRect,0.050000X0.150000X-0.545000X0.150000X0.545000X-0.150000X0.545000X-0.150000X-0.545000X0*%
%ADD13RoundRect,0.237500X-0.237500X0.300000X-0.237500X-0.300000X0.237500X-0.300000X0.237500X0.300000X0*%
%ADD14RoundRect,0.237500X0.237500X-0.300000X0.237500X0.300000X-0.237500X0.300000X-0.237500X-0.300000X0*%
%ADD15R,0.750000X0.800000*%
%ADD16R,0.580000X0.800000*%
G04 APERTURE END LIST*
D10*
%TO.C,R9*%
X134300000Y-82812500D03*
X134300000Y-80987500D03*
%TD*%
%TO.C,R7*%
X137300000Y-82812500D03*
X137300000Y-80987500D03*
%TD*%
%TO.C,R8*%
X135800000Y-82812500D03*
X135800000Y-80987500D03*
%TD*%
%TO.C,R3*%
X138800000Y-82812500D03*
X138800000Y-80987500D03*
%TD*%
D11*
%TO.C,U9*%
X126500000Y-103100000D03*
X127150000Y-103100000D03*
X127800000Y-103100000D03*
D12*
X127800000Y-105020000D03*
X127150000Y-105020000D03*
X126500000Y-105020000D03*
%TD*%
D11*
%TO.C,U4*%
X133300000Y-103100000D03*
X133950000Y-103100000D03*
X134600000Y-103100000D03*
D12*
X134600000Y-105020000D03*
X133950000Y-105020000D03*
X133300000Y-105020000D03*
%TD*%
D11*
%TO.C,U3*%
X142300000Y-103080000D03*
X142950000Y-103080000D03*
X143600000Y-103080000D03*
D12*
X143600000Y-105000000D03*
X142950000Y-105000000D03*
X142300000Y-105000000D03*
%TD*%
D13*
%TO.C,C11*%
X137100000Y-93562500D03*
X137100000Y-91837500D03*
%TD*%
%TO.C,C10*%
X135590000Y-93562500D03*
X135590000Y-91837500D03*
%TD*%
D14*
%TO.C,C6*%
X135590000Y-90262500D03*
X135590000Y-88537500D03*
%TD*%
%TO.C,C4*%
X137100000Y-88537500D03*
X137100000Y-90262500D03*
%TD*%
D15*
%TO.C,CN4*%
X133050000Y-100600000D03*
D16*
X132100000Y-100600000D03*
X131300000Y-100600000D03*
D15*
X130350000Y-100600000D03*
X130350000Y-99060000D03*
D16*
X131300000Y-99060000D03*
X132100000Y-99060000D03*
D15*
X133050000Y-99060000D03*
%TD*%
%TO.C,CN3*%
X137550000Y-100600000D03*
D16*
X136600000Y-100600000D03*
X135800000Y-100600000D03*
D15*
X134850000Y-100600000D03*
X134850000Y-99060000D03*
D16*
X135800000Y-99060000D03*
X136600000Y-99060000D03*
D15*
X137550000Y-99060000D03*
%TD*%
%TO.C,CN2*%
X142050000Y-100600000D03*
D16*
X141100000Y-100600000D03*
X140300000Y-100600000D03*
D15*
X139350000Y-100600000D03*
X139350000Y-99060000D03*
D16*
X140300000Y-99060000D03*
X141100000Y-99060000D03*
D15*
X142050000Y-99060000D03*
%TD*%
%TO.C,CN1*%
X146550000Y-100600000D03*
D16*
X145600000Y-100600000D03*
X144800000Y-100600000D03*
D15*
X143850000Y-100600000D03*
X143850000Y-99060000D03*
D16*
X144800000Y-99060000D03*
X145600000Y-99060000D03*
D15*
X146550000Y-99060000D03*
%TD*%
M02*
