%TF.GenerationSoftware,KiCad,Pcbnew,8.0.3*%
%TF.CreationDate,2024-08-10T21:36:20-07:00*%
%TF.ProjectId,v2,76322e6b-6963-4616-945f-706362585858,rev?*%
%TF.SameCoordinates,Original*%
%TF.FileFunction,Copper,L4,Bot*%
%TF.FilePolarity,Positive*%
%FSLAX46Y46*%
G04 Gerber Fmt 4.6, Leading zero omitted, Abs format (unit mm)*
G04 Created by KiCad (PCBNEW 8.0.3) date 2024-08-10 21:36:20*
%MOMM*%
%LPD*%
G01*
G04 APERTURE LIST*
G04 Aperture macros list*
%AMRoundRect*
0 Rectangle with rounded corners*
0 $1 Rounding radius*
0 $2 $3 $4 $5 $6 $7 $8 $9 X,Y pos of 4 corners*
0 Add a 4 corners polygon primitive as box body*
4,1,4,$2,$3,$4,$5,$6,$7,$8,$9,$2,$3,0*
0 Add four circle primitives for the rounded corners*
1,1,$1+$1,$2,$3*
1,1,$1+$1,$4,$5*
1,1,$1+$1,$6,$7*
1,1,$1+$1,$8,$9*
0 Add four rect primitives between the rounded corners*
20,1,$1+$1,$2,$3,$4,$5,0*
20,1,$1+$1,$4,$5,$6,$7,0*
20,1,$1+$1,$6,$7,$8,$9,0*
20,1,$1+$1,$8,$9,$2,$3,0*%
G04 Aperture macros list end*
%TA.AperFunction,ComponentPad*%
%ADD10R,1.700000X1.700000*%
%TD*%
%TA.AperFunction,SMDPad,CuDef*%
%ADD11RoundRect,0.237500X0.237500X-0.250000X0.237500X0.250000X-0.237500X0.250000X-0.237500X-0.250000X0*%
%TD*%
%TA.AperFunction,SMDPad,CuDef*%
%ADD12RoundRect,0.050000X-0.150000X0.545000X-0.150000X-0.545000X0.150000X-0.545000X0.150000X0.545000X0*%
%TD*%
%TA.AperFunction,SMDPad,CuDef*%
%ADD13RoundRect,0.050000X0.150000X-0.545000X0.150000X0.545000X-0.150000X0.545000X-0.150000X-0.545000X0*%
%TD*%
%TA.AperFunction,ComponentPad*%
%ADD14RoundRect,0.250000X0.350000X0.625000X-0.350000X0.625000X-0.350000X-0.625000X0.350000X-0.625000X0*%
%TD*%
%TA.AperFunction,ComponentPad*%
%ADD15O,1.200000X1.750000*%
%TD*%
%TA.AperFunction,SMDPad,CuDef*%
%ADD16RoundRect,0.237500X-0.237500X0.300000X-0.237500X-0.300000X0.237500X-0.300000X0.237500X0.300000X0*%
%TD*%
%TA.AperFunction,SMDPad,CuDef*%
%ADD17RoundRect,0.237500X0.237500X-0.300000X0.237500X0.300000X-0.237500X0.300000X-0.237500X-0.300000X0*%
%TD*%
%TA.AperFunction,SMDPad,CuDef*%
%ADD18R,0.750000X0.800000*%
%TD*%
%TA.AperFunction,SMDPad,CuDef*%
%ADD19R,0.580000X0.800000*%
%TD*%
%TA.AperFunction,ComponentPad*%
%ADD20O,1.700000X1.700000*%
%TD*%
%TA.AperFunction,ViaPad*%
%ADD21C,0.600000*%
%TD*%
%TA.AperFunction,Conductor*%
%ADD22C,0.300000*%
%TD*%
%TA.AperFunction,Conductor*%
%ADD23C,0.500000*%
%TD*%
%TA.AperFunction,Conductor*%
%ADD24C,0.200000*%
%TD*%
G04 APERTURE END LIST*
D10*
%TO.P,J8,1,Pin_1*%
%TO.N,+2V5*%
X127100000Y-95100000D03*
%TD*%
%TO.P,J7,1,Pin_1*%
%TO.N,+3V3*%
X127300000Y-83800000D03*
%TD*%
%TO.P,J6,1,Pin_1*%
%TO.N,-2V5*%
X127100000Y-98700000D03*
%TD*%
%TO.P,J5,1,Pin_1*%
%TO.N,+5V*%
X143900000Y-73300000D03*
%TD*%
D11*
%TO.P,R9,1*%
%TO.N,Net-(U1-GPIO4)*%
X134300000Y-82812500D03*
%TO.P,R9,2*%
%TO.N,GND*%
X134300000Y-80987500D03*
%TD*%
%TO.P,R7,1*%
%TO.N,Net-(U1-GPIO2)*%
X137300000Y-82812500D03*
%TO.P,R7,2*%
%TO.N,GND*%
X137300000Y-80987500D03*
%TD*%
%TO.P,R8,1*%
%TO.N,Net-(U1-GPIO3)*%
X135800000Y-82812500D03*
%TO.P,R8,2*%
%TO.N,GND*%
X135800000Y-80987500D03*
%TD*%
%TO.P,R3,1*%
%TO.N,Net-(U1-GPIO1)*%
X138800000Y-82812500D03*
%TO.P,R3,2*%
%TO.N,GND*%
X138800000Y-80987500D03*
%TD*%
D12*
%TO.P,U9,1,IO1*%
%TO.N,/ADS1299/BI*%
X126500000Y-103100000D03*
%TO.P,U9,2,IO2*%
%TO.N,GND*%
X127150000Y-103100000D03*
%TO.P,U9,3,GND*%
X127800000Y-103100000D03*
D13*
%TO.P,U9,4,IO3*%
X127800000Y-105020000D03*
%TO.P,U9,5,IO4*%
X127150000Y-105020000D03*
%TO.P,U9,6*%
%TO.N,N/C*%
X126500000Y-105020000D03*
%TD*%
D12*
%TO.P,U4,1,IO1*%
%TO.N,/ADS1299/I5*%
X133300000Y-103100000D03*
%TO.P,U4,2,IO2*%
%TO.N,/ADS1299/I6*%
X133950000Y-103100000D03*
%TO.P,U4,3,GND*%
%TO.N,GND*%
X134600000Y-103100000D03*
D13*
%TO.P,U4,4,IO3*%
%TO.N,/ADS1299/I7*%
X134600000Y-105020000D03*
%TO.P,U4,5,IO4*%
%TO.N,/ADS1299/I8*%
X133950000Y-105020000D03*
%TO.P,U4,6*%
%TO.N,N/C*%
X133300000Y-105020000D03*
%TD*%
D12*
%TO.P,U3,1,IO1*%
%TO.N,/ADS1299/I1*%
X142300000Y-103080000D03*
%TO.P,U3,2,IO2*%
%TO.N,/ADS1299/I2*%
X142950000Y-103080000D03*
%TO.P,U3,3,GND*%
%TO.N,GND*%
X143600000Y-103080000D03*
D13*
%TO.P,U3,4,IO3*%
%TO.N,/ADS1299/I3*%
X143600000Y-105000000D03*
%TO.P,U3,5,IO4*%
%TO.N,/ADS1299/I4*%
X142950000Y-105000000D03*
%TO.P,U3,6*%
%TO.N,N/C*%
X142300000Y-105000000D03*
%TD*%
D14*
%TO.P,J1,1,Pin_1*%
%TO.N,/Booster/VBATT*%
X129722400Y-75100000D03*
D15*
%TO.P,J1,2,Pin_2*%
%TO.N,GND*%
X127722400Y-75100000D03*
%TD*%
D16*
%TO.P,C11,2*%
%TO.N,-2V5*%
X137100000Y-93562500D03*
%TO.P,C11,1*%
%TO.N,+2V5*%
X137100000Y-91837500D03*
%TD*%
%TO.P,C10,2*%
%TO.N,-2V5*%
X135590000Y-93562500D03*
%TO.P,C10,1*%
%TO.N,+2V5*%
X135590000Y-91837500D03*
%TD*%
D17*
%TO.P,C6,1*%
%TO.N,+2V5*%
X135590000Y-90262500D03*
%TO.P,C6,2*%
%TO.N,GND*%
X135590000Y-88537500D03*
%TD*%
%TO.P,C4,2*%
%TO.N,GND*%
X137100000Y-88537500D03*
%TO.P,C4,1*%
%TO.N,+2V5*%
X137100000Y-90262500D03*
%TD*%
D18*
%TO.P,CN4,1*%
%TO.N,/ADS1299/IN7P*%
X133050000Y-100600000D03*
D19*
%TO.P,CN4,2*%
%TO.N,/ADS1299/IN7N*%
X132100000Y-100600000D03*
%TO.P,CN4,3*%
%TO.N,/ADS1299/IN8P*%
X131300000Y-100600000D03*
D18*
%TO.P,CN4,4*%
%TO.N,/ADS1299/IN8N*%
X130350000Y-100600000D03*
%TO.P,CN4,5*%
%TO.N,GND*%
X130350000Y-99060000D03*
D19*
%TO.P,CN4,6*%
X131300000Y-99060000D03*
%TO.P,CN4,7*%
X132100000Y-99060000D03*
D18*
%TO.P,CN4,8*%
X133050000Y-99060000D03*
%TD*%
%TO.P,CN3,1*%
%TO.N,/ADS1299/IN5P*%
X137550000Y-100600000D03*
D19*
%TO.P,CN3,2*%
%TO.N,/ADS1299/IN5N*%
X136600000Y-100600000D03*
%TO.P,CN3,3*%
%TO.N,/ADS1299/IN6P*%
X135800000Y-100600000D03*
D18*
%TO.P,CN3,4*%
%TO.N,/ADS1299/IN6N*%
X134850000Y-100600000D03*
%TO.P,CN3,5*%
%TO.N,GND*%
X134850000Y-99060000D03*
D19*
%TO.P,CN3,6*%
X135800000Y-99060000D03*
%TO.P,CN3,7*%
X136600000Y-99060000D03*
D18*
%TO.P,CN3,8*%
X137550000Y-99060000D03*
%TD*%
%TO.P,CN2,1*%
%TO.N,/ADS1299/IN3P*%
X142050000Y-100600000D03*
D19*
%TO.P,CN2,2*%
%TO.N,/ADS1299/IN3N*%
X141100000Y-100600000D03*
%TO.P,CN2,3*%
%TO.N,/ADS1299/IN4P*%
X140300000Y-100600000D03*
D18*
%TO.P,CN2,4*%
%TO.N,/ADS1299/IN4N*%
X139350000Y-100600000D03*
%TO.P,CN2,5*%
%TO.N,GND*%
X139350000Y-99060000D03*
D19*
%TO.P,CN2,6*%
X140300000Y-99060000D03*
%TO.P,CN2,7*%
X141100000Y-99060000D03*
D18*
%TO.P,CN2,8*%
X142050000Y-99060000D03*
%TD*%
%TO.P,CN1,1*%
%TO.N,/ADS1299/IN1P*%
X146550000Y-100600000D03*
D19*
%TO.P,CN1,2*%
%TO.N,/ADS1299/IN1N*%
X145600000Y-100600000D03*
%TO.P,CN1,3*%
%TO.N,/ADS1299/IN2P*%
X144800000Y-100600000D03*
D18*
%TO.P,CN1,4*%
%TO.N,/ADS1299/IN2N*%
X143850000Y-100600000D03*
%TO.P,CN1,5*%
%TO.N,GND*%
X143850000Y-99060000D03*
D19*
%TO.P,CN1,6*%
X144800000Y-99060000D03*
%TO.P,CN1,7*%
X145600000Y-99060000D03*
D18*
%TO.P,CN1,8*%
X146550000Y-99060000D03*
%TD*%
D10*
%TO.P,J3,1,Pin_1*%
%TO.N,/ADS1299/MOSI*%
X105720000Y-60320000D03*
D20*
%TO.P,J3,2,Pin_2*%
%TO.N,/ADS1299/CS*%
X105720000Y-62860000D03*
%TO.P,J3,3,Pin_3*%
%TO.N,unconnected-(J3-Pin_3-Pad3)*%
X105720000Y-65400000D03*
%TO.P,J3,4,Pin_4*%
%TO.N,/ADS1299/SCLK*%
X105720000Y-67940000D03*
%TO.P,J3,5,Pin_5*%
%TO.N,/ADS1299/MISO*%
X105720000Y-70480000D03*
%TO.P,J3,6,Pin_6*%
%TO.N,/ADS1299/DRDY*%
X105720000Y-73020000D03*
%TO.P,J3,7,Pin_7*%
%TO.N,/ADS1299/START*%
X105720000Y-75560000D03*
%TO.P,J3,8,Pin_8*%
%TO.N,unconnected-(J3-Pin_8-Pad8)*%
X105720000Y-78100000D03*
%TO.P,J3,9,Pin_9*%
%TO.N,/ADS1299/RESET*%
X105720000Y-80640000D03*
%TO.P,J3,10,Pin_10*%
%TO.N,unconnected-(J3-Pin_10-Pad10)*%
X105720000Y-83180000D03*
%TO.P,J3,11,Pin_11*%
%TO.N,/ADS1299/PDWN*%
X105720000Y-85720000D03*
%TO.P,J3,12,Pin_12*%
%TO.N,unconnected-(J3-Pin_12-Pad12)*%
X105720000Y-88260000D03*
%TO.P,J3,13,Pin_13*%
%TO.N,unconnected-(J3-Pin_13-Pad13)*%
X105720000Y-90800000D03*
%TO.P,J3,14,Pin_14*%
%TO.N,unconnected-(J3-Pin_14-Pad14)*%
X105720000Y-93340000D03*
%TO.P,J3,15,Pin_15*%
%TO.N,unconnected-(J3-Pin_15-Pad15)*%
X105720000Y-95880000D03*
%TO.P,J3,16,Pin_16*%
%TO.N,unconnected-(J3-Pin_16-Pad16)*%
X105720000Y-98420000D03*
%TO.P,J3,17,Pin_17*%
%TO.N,unconnected-(J3-Pin_17-Pad17)*%
X105720000Y-100960000D03*
%TO.P,J3,18,Pin_18*%
%TO.N,GND*%
X105720000Y-103500000D03*
%TO.P,J3,19,Pin_19*%
%TO.N,+5V*%
X105720000Y-106040000D03*
%TO.P,J3,20,Pin_20*%
%TO.N,unconnected-(J3-Pin_20-Pad20)*%
X105720000Y-108580000D03*
%TD*%
D10*
%TO.P,J2,1,Pin_1*%
%TO.N,/ADS1299/BI*%
X127100000Y-108500000D03*
D20*
%TO.P,J2,2,Pin_2*%
%TO.N,/ADS1299/I8*%
X129640000Y-108500000D03*
%TO.P,J2,3,Pin_3*%
%TO.N,/ADS1299/I7*%
X132180000Y-108500000D03*
%TO.P,J2,4,Pin_4*%
%TO.N,/ADS1299/I6*%
X134720000Y-108500000D03*
%TO.P,J2,5,Pin_5*%
%TO.N,/ADS1299/I5*%
X137260000Y-108500000D03*
%TO.P,J2,6,Pin_6*%
%TO.N,/ADS1299/I4*%
X139800000Y-108500000D03*
%TO.P,J2,7,Pin_7*%
%TO.N,/ADS1299/I3*%
X142340000Y-108500000D03*
%TO.P,J2,8,Pin_8*%
%TO.N,/ADS1299/I2*%
X144880000Y-108500000D03*
%TO.P,J2,9,Pin_9*%
%TO.N,/ADS1299/I1*%
X147420000Y-108500000D03*
%TD*%
D10*
%TO.P,J4,1,Pin_1*%
%TO.N,unconnected-(J4-Pin_1-Pad1)*%
X123500000Y-60320000D03*
D20*
%TO.P,J4,2,Pin_2*%
%TO.N,unconnected-(J4-Pin_2-Pad2)*%
X123500000Y-62860000D03*
%TO.P,J4,3,Pin_3*%
%TO.N,unconnected-(J4-Pin_3-Pad3)*%
X123500000Y-65400000D03*
%TO.P,J4,4,Pin_4*%
%TO.N,unconnected-(J4-Pin_4-Pad4)*%
X123500000Y-67940000D03*
%TO.P,J4,5,Pin_5*%
%TO.N,unconnected-(J4-Pin_5-Pad5)*%
X123500000Y-70480000D03*
%TO.P,J4,6,Pin_6*%
%TO.N,unconnected-(J4-Pin_6-Pad6)*%
X123500000Y-73020000D03*
%TO.P,J4,7,Pin_7*%
%TO.N,unconnected-(J4-Pin_7-Pad7)*%
X123500000Y-75560000D03*
%TO.P,J4,8,Pin_8*%
%TO.N,unconnected-(J4-Pin_8-Pad8)*%
X123500000Y-78100000D03*
%TO.P,J4,9,Pin_9*%
%TO.N,unconnected-(J4-Pin_9-Pad9)*%
X123500000Y-80640000D03*
%TO.P,J4,10,Pin_10*%
%TO.N,unconnected-(J4-Pin_10-Pad10)*%
X123500000Y-83180000D03*
%TO.P,J4,11,Pin_11*%
%TO.N,unconnected-(J4-Pin_11-Pad11)*%
X123500000Y-85720000D03*
%TO.P,J4,12,Pin_12*%
%TO.N,unconnected-(J4-Pin_12-Pad12)*%
X123500000Y-88260000D03*
%TO.P,J4,13,Pin_13*%
%TO.N,unconnected-(J4-Pin_13-Pad13)*%
X123500000Y-90800000D03*
%TO.P,J4,14,Pin_14*%
%TO.N,unconnected-(J4-Pin_14-Pad14)*%
X123500000Y-93340000D03*
%TO.P,J4,15,Pin_15*%
%TO.N,unconnected-(J4-Pin_15-Pad15)*%
X123500000Y-95880000D03*
%TO.P,J4,16,Pin_16*%
%TO.N,unconnected-(J4-Pin_16-Pad16)*%
X123500000Y-98420000D03*
%TO.P,J4,17,Pin_17*%
%TO.N,unconnected-(J4-Pin_17-Pad17)*%
X123500000Y-100960000D03*
%TO.P,J4,18,Pin_18*%
%TO.N,unconnected-(J4-Pin_18-Pad18)*%
X123500000Y-103500000D03*
%TO.P,J4,19,Pin_19*%
%TO.N,unconnected-(J4-Pin_19-Pad19)*%
X123500000Y-106040000D03*
%TO.P,J4,20,Pin_20*%
%TO.N,unconnected-(J4-Pin_20-Pad20)*%
X123500000Y-108580000D03*
%TD*%
D21*
%TO.N,GND*%
X142200000Y-84000000D03*
%TO.N,-2V5*%
X142600000Y-87300000D03*
X143600000Y-96700000D03*
%TO.N,GND*%
X129818750Y-86118750D03*
X131700000Y-84200000D03*
X128400000Y-87600000D03*
%TO.N,-2V5*%
X138300000Y-92380761D03*
X127900000Y-92400000D03*
%TO.N,GND*%
X122700000Y-104800000D03*
X124400000Y-104800000D03*
X122700000Y-102200000D03*
X124400000Y-102200000D03*
X122700000Y-99700000D03*
X124400000Y-99700000D03*
X122700000Y-97100000D03*
X124400000Y-97100000D03*
X122700000Y-92100000D03*
X124400000Y-92100000D03*
X122700000Y-94600000D03*
X124400000Y-94600000D03*
X143500000Y-86500000D03*
X142600000Y-89100000D03*
X138300000Y-89000003D03*
X139900000Y-77900000D03*
X139100000Y-77900000D03*
X140600000Y-77900000D03*
X138400000Y-77900000D03*
%TO.N,+5V*%
X125200000Y-107300000D03*
%TO.N,GND*%
X146900000Y-73300000D03*
%TO.N,Net-(U1-GPIO1)*%
X137700000Y-83900000D03*
%TO.N,GND*%
X138594452Y-83945000D03*
X137949297Y-80215254D03*
X135100000Y-80200000D03*
X137869460Y-81899759D03*
X132171631Y-86510109D03*
X142600000Y-88200000D03*
X142600000Y-86500000D03*
X134500000Y-88300000D03*
%TO.N,-2V5*%
X133900000Y-89000000D03*
%TO.N,GND*%
X132600000Y-95600000D03*
X148300000Y-77700000D03*
X145687372Y-77637809D03*
X141600000Y-79700000D03*
X143100000Y-80600000D03*
X145600000Y-84100000D03*
X147300000Y-96100000D03*
X131300000Y-99699998D03*
X135800000Y-99699998D03*
X145600000Y-99699998D03*
X141100000Y-99699998D03*
X134000000Y-101900000D03*
X143000000Y-101900000D03*
X128800000Y-103100000D03*
X126200000Y-100600000D03*
X126000000Y-77800000D03*
X128900000Y-77000000D03*
X131000000Y-81100000D03*
X132000000Y-76300000D03*
X132000000Y-73000000D03*
%TO.N,-2V5*%
X127900000Y-89600000D03*
%TO.N,+5V*%
X131100000Y-83600000D03*
X132300000Y-82400000D03*
%TO.N,-2V5*%
X147400000Y-84300000D03*
X143125692Y-90861916D03*
%TO.N,+2V5*%
X141500000Y-92200000D03*
%TO.N,+5V*%
X132300000Y-79200000D03*
%TO.N,+2V5*%
X141500000Y-82200000D03*
%TO.N,+5V*%
X141500000Y-76000000D03*
%TO.N,Net-(U1-GPIO4)*%
X135200000Y-83900000D03*
%TO.N,/ADS1299/MOSI*%
X140300000Y-88200000D03*
%TO.N,/ADS1299/PDWN*%
X140300000Y-87300000D03*
%TO.N,/ADS1299/RESET*%
X140325685Y-86444391D03*
%TO.N,/ADS1299/START*%
X138300000Y-88200000D03*
%TO.N,/ADS1299/CS*%
X138300000Y-87300003D03*
%TO.N,/ADS1299/SCLK*%
X138300000Y-86500000D03*
%TO.N,/ADS1299/MISO*%
X136800000Y-86500000D03*
%TO.N,/ADS1299/DRDY*%
X135500000Y-86500000D03*
%TO.N,+2V5*%
X134500000Y-90200000D03*
%TO.N,-2V5*%
X142900000Y-94800000D03*
X142900000Y-93300000D03*
X133900000Y-91600000D03*
X133900000Y-93200000D03*
%TO.N,/ADS1299/IN1P*%
X146400000Y-101900000D03*
%TO.N,/ADS1299/IN1N*%
X145600000Y-101900000D03*
%TO.N,/ADS1299/IN2P*%
X144800000Y-101900000D03*
%TO.N,/ADS1299/IN2N*%
X144000000Y-101900000D03*
%TO.N,/ADS1299/IN3P*%
X141900003Y-101900000D03*
%TO.N,/ADS1299/IN3N*%
X141100000Y-101900000D03*
%TO.N,/ADS1299/IN4P*%
X140300000Y-101900000D03*
%TO.N,/ADS1299/IN4N*%
X139500000Y-101900000D03*
%TO.N,/ADS1299/IN5P*%
X137400009Y-101900000D03*
%TO.N,/ADS1299/IN5N*%
X136600006Y-101900000D03*
%TO.N,/ADS1299/IN6P*%
X135800003Y-101900000D03*
%TO.N,/ADS1299/IN6N*%
X135000000Y-101900000D03*
%TO.N,/ADS1299/IN8N*%
X130499997Y-101900000D03*
%TO.N,/ADS1299/IN8P*%
X131300000Y-101900000D03*
%TO.N,/ADS1299/IN7N*%
X132100000Y-101900000D03*
%TO.N,/ADS1299/IN7P*%
X132900000Y-101900000D03*
%TO.N,/ADS1299/BI*%
X127100000Y-106300000D03*
%TO.N,/ADS1299/I1*%
X146400000Y-106300000D03*
%TO.N,/ADS1299/I2*%
X144880000Y-106300000D03*
%TO.N,/ADS1299/I3*%
X141900000Y-106300000D03*
%TO.N,/ADS1299/I4*%
X140300000Y-106300000D03*
%TO.N,/ADS1299/I5*%
X138400000Y-106300000D03*
%TO.N,/ADS1299/I6*%
X135800000Y-106300000D03*
%TO.N,/ADS1299/I7*%
X132900000Y-106300000D03*
%TO.N,/ADS1299/I8*%
X131300000Y-106300000D03*
%TO.N,Net-(U1-GPIO2)*%
X136899997Y-83900000D03*
%TO.N,Net-(U1-GPIO3)*%
X136100224Y-83880984D03*
%TD*%
D22*
%TO.N,/ADS1299/START*%
X127369239Y-86950000D02*
X128967057Y-86950000D01*
X124700000Y-84280761D02*
X127369239Y-86950000D01*
X124700000Y-82682943D02*
X124700000Y-84280761D01*
X128967057Y-86950000D02*
X129667057Y-87650000D01*
X123857057Y-81840000D02*
X124700000Y-82682943D01*
%TO.N,GND*%
X127800000Y-105020000D02*
X127800000Y-103100000D01*
%TO.N,+2V5*%
X137100000Y-91837500D02*
X137100000Y-90262500D01*
%TO.N,-2V5*%
X137118261Y-93562500D02*
X138300000Y-92380761D01*
X137100000Y-93562500D02*
X137118261Y-93562500D01*
%TO.N,+5V*%
X125200000Y-107300000D02*
X106980000Y-107300000D01*
X106980000Y-107300000D02*
X105720000Y-106040000D01*
%TO.N,GND*%
X137562503Y-89000003D02*
X138300000Y-89000003D01*
X137100000Y-88537500D02*
X137562503Y-89000003D01*
%TO.N,/ADS1299/SCLK*%
X112000000Y-74220000D02*
X105720000Y-67940000D01*
X125223897Y-74220000D02*
X112000000Y-74220000D01*
X127328897Y-76325000D02*
X125223897Y-74220000D01*
X130975000Y-76325000D02*
X127328897Y-76325000D01*
X131950000Y-75350000D02*
X130975000Y-76325000D01*
X141769239Y-75350000D02*
X131950000Y-75350000D01*
X142150000Y-75730761D02*
X141769239Y-75350000D01*
X142250000Y-80150000D02*
X142250000Y-77197666D01*
X142000000Y-80400000D02*
X142250000Y-80150000D01*
X140900000Y-80400000D02*
X142000000Y-80400000D01*
X139625000Y-81675000D02*
X140900000Y-80400000D01*
X139625000Y-85175000D02*
X139625000Y-81675000D01*
X142250000Y-77197666D02*
X142150000Y-77097666D01*
X138300000Y-86500000D02*
X139625000Y-85175000D01*
X142150000Y-77097666D02*
X142150000Y-75730761D01*
%TO.N,/ADS1299/CS*%
X123857057Y-71680000D02*
X114540000Y-71680000D01*
X125897057Y-73720000D02*
X123857057Y-71680000D01*
X141020000Y-73720000D02*
X125897057Y-73720000D01*
X114540000Y-71680000D02*
X105720000Y-62860000D01*
X142650000Y-75350000D02*
X141020000Y-73720000D01*
X142650000Y-76890559D02*
X142650000Y-75350000D01*
X143750000Y-81642894D02*
X143750000Y-77990559D01*
X143750000Y-77990559D02*
X142650000Y-76890559D01*
X143000000Y-81900000D02*
X143492894Y-81900000D01*
X143492894Y-81900000D02*
X143750000Y-81642894D01*
X141073654Y-81000000D02*
X142100000Y-81000000D01*
X142100000Y-81000000D02*
X143000000Y-81900000D01*
X140125000Y-81948654D02*
X141073654Y-81000000D01*
X140125000Y-85594239D02*
X140125000Y-81948654D01*
X138300000Y-87300003D02*
X138419236Y-87300003D01*
X138419236Y-87300003D02*
X140125000Y-85594239D01*
%TO.N,/ADS1299/MOSI*%
X114680000Y-69280000D02*
X105720000Y-60320000D01*
X123997057Y-69280000D02*
X114680000Y-69280000D01*
X124700000Y-69982943D02*
X123997057Y-69280000D01*
X124700000Y-71719239D02*
X124700000Y-69982943D01*
X125230761Y-72250000D02*
X124700000Y-71719239D01*
X143150000Y-76683452D02*
X143150000Y-75142893D01*
X143150000Y-75142893D02*
X140257107Y-72250000D01*
X144300000Y-77833452D02*
X143150000Y-76683452D01*
X144300000Y-81800000D02*
X144300000Y-77833452D01*
X143700000Y-82400000D02*
X144300000Y-81800000D01*
X142700000Y-82400000D02*
X143700000Y-82400000D01*
X141800000Y-81500000D02*
X142700000Y-82400000D01*
X140625000Y-82155761D02*
X141280761Y-81500000D01*
X140625000Y-85801346D02*
X140625000Y-82155761D01*
X141280761Y-81500000D02*
X141800000Y-81500000D01*
X140975685Y-86152031D02*
X140625000Y-85801346D01*
X140257107Y-72250000D02*
X125230761Y-72250000D01*
X140975685Y-87543554D02*
X140975685Y-86152031D01*
X140319239Y-88200000D02*
X140975685Y-87543554D01*
X140300000Y-88200000D02*
X140319239Y-88200000D01*
D23*
%TO.N,+5V*%
X141500000Y-78060661D02*
X141500000Y-76000000D01*
X140360661Y-79200000D02*
X141500000Y-78060661D01*
X132300000Y-79200000D02*
X140360661Y-79200000D01*
D22*
%TO.N,Net-(U1-GPIO1)*%
X137712500Y-83900000D02*
X138800000Y-82812500D01*
X137700000Y-83900000D02*
X137712500Y-83900000D01*
%TO.N,GND*%
X138721543Y-80987500D02*
X137949297Y-80215254D01*
X138800000Y-80987500D02*
X138721543Y-80987500D01*
X137300000Y-80864551D02*
X137949297Y-80215254D01*
X137300000Y-80987500D02*
X137300000Y-80864551D01*
X135800000Y-80900000D02*
X135100000Y-80200000D01*
X135800000Y-80987500D02*
X135800000Y-80900000D01*
X134312500Y-80987500D02*
X135100000Y-80200000D01*
X134300000Y-80987500D02*
X134312500Y-80987500D01*
X137100000Y-88537500D02*
X135590000Y-88537500D01*
X134737500Y-88537500D02*
X134500000Y-88300000D01*
X135590000Y-88537500D02*
X134737500Y-88537500D01*
X131300000Y-99060000D02*
X131300000Y-99699998D01*
X135800000Y-99060000D02*
X135800000Y-99699998D01*
X145600000Y-99060000D02*
X145600000Y-99699998D01*
X141100000Y-99060000D02*
X141100000Y-99699998D01*
X134012072Y-101900000D02*
X134000000Y-101900000D01*
X134600000Y-102487928D02*
X134012072Y-101900000D01*
X134600000Y-103100000D02*
X134600000Y-102487928D01*
X143032072Y-101900000D02*
X143000000Y-101900000D01*
X143600000Y-102467928D02*
X143032072Y-101900000D01*
X143600000Y-103080000D02*
X143600000Y-102467928D01*
X143850000Y-99060000D02*
X146550000Y-99060000D01*
X139350000Y-99060000D02*
X142050000Y-99060000D01*
X135800000Y-99060000D02*
X137550000Y-99060000D01*
X134850000Y-99060000D02*
X135800000Y-99060000D01*
X132100000Y-99060000D02*
X133050000Y-99060000D01*
X131300000Y-99060000D02*
X132100000Y-99060000D01*
X130350000Y-99060000D02*
X131300000Y-99060000D01*
X127800000Y-103100000D02*
X128800000Y-103100000D01*
X127150000Y-103100000D02*
X127800000Y-103100000D01*
X127150000Y-105020000D02*
X127800000Y-105020000D01*
%TO.N,/ADS1299/DRDY*%
X126020761Y-79440000D02*
X124200000Y-79440000D01*
X133080761Y-86500000D02*
X126020761Y-79440000D01*
X135500000Y-86500000D02*
X133080761Y-86500000D01*
X124200000Y-79440000D02*
X112140000Y-79440000D01*
%TO.N,/ADS1299/MISO*%
X135750000Y-85850000D02*
X132950000Y-83050000D01*
X136150000Y-85850000D02*
X135750000Y-85850000D01*
X132950000Y-83050000D02*
X132950000Y-82075000D01*
X132950000Y-82075000D02*
X127700000Y-76825000D01*
X126987568Y-76825000D02*
X126962568Y-76800000D01*
X136800000Y-86500000D02*
X136150000Y-85850000D01*
X127700000Y-76825000D02*
X126987568Y-76825000D01*
D23*
%TO.N,+5V*%
X132300000Y-82400000D02*
X131100000Y-83600000D01*
D22*
%TO.N,/ADS1299/MISO*%
X112040000Y-76800000D02*
X105720000Y-70480000D01*
X136800000Y-86500000D02*
X136662568Y-86500000D01*
X126962568Y-76800000D02*
X112040000Y-76800000D01*
%TO.N,/ADS1299/DRDY*%
X112140000Y-79440000D02*
X105720000Y-73020000D01*
%TO.N,/ADS1299/START*%
X112000000Y-81840000D02*
X105720000Y-75560000D01*
X123857057Y-81840000D02*
X112000000Y-81840000D01*
X137587432Y-87650000D02*
X129667057Y-87650000D01*
X138137432Y-88200000D02*
X137587432Y-87650000D01*
X138300000Y-88200000D02*
X138137432Y-88200000D01*
%TO.N,/ADS1299/RESET*%
X137587432Y-94450000D02*
X134067057Y-94450000D01*
X138950000Y-93087432D02*
X137587432Y-94450000D01*
X134067057Y-94450000D02*
X124137057Y-84520000D01*
X109600000Y-84520000D02*
X105720000Y-80640000D01*
X138950000Y-87730761D02*
X138950000Y-93087432D01*
X124137057Y-84520000D02*
X109600000Y-84520000D01*
X140325685Y-86444391D02*
X140236370Y-86444391D01*
X140236370Y-86444391D02*
X138950000Y-87730761D01*
%TO.N,+2V5*%
X141500000Y-82200000D02*
X141500000Y-92200000D01*
%TO.N,/ADS1299/PDWN*%
X106920000Y-86920000D02*
X105720000Y-85720000D01*
X123920000Y-86920000D02*
X106920000Y-86920000D01*
X137794539Y-94950000D02*
X131950000Y-94950000D01*
X139450000Y-88130761D02*
X139450000Y-93294539D01*
X140280761Y-87300000D02*
X139450000Y-88130761D01*
X139450000Y-93294539D02*
X137794539Y-94950000D01*
X140300000Y-87300000D02*
X140280761Y-87300000D01*
X131950000Y-94950000D02*
X123920000Y-86920000D01*
%TO.N,Net-(U1-GPIO4)*%
X134300000Y-83000000D02*
X135200000Y-83900000D01*
X134300000Y-82812500D02*
X134300000Y-83000000D01*
%TO.N,-2V5*%
X134262500Y-93562500D02*
X133900000Y-93200000D01*
X135590000Y-93562500D02*
X134262500Y-93562500D01*
X137100000Y-93562500D02*
X135590000Y-93562500D01*
%TO.N,+2V5*%
X135590000Y-91837500D02*
X137100000Y-91837500D01*
X135590000Y-90262500D02*
X135590000Y-91837500D01*
X135590000Y-90262500D02*
X137100000Y-90262500D01*
X134500000Y-90200000D02*
X135527500Y-90200000D01*
X135527500Y-90200000D02*
X135590000Y-90262500D01*
%TO.N,/ADS1299/IN1P*%
X146400000Y-101900000D02*
X146400000Y-100750000D01*
X146400000Y-100750000D02*
X146550000Y-100600000D01*
%TO.N,/ADS1299/IN1N*%
X145600000Y-101900000D02*
X145600000Y-100600000D01*
%TO.N,/ADS1299/IN2P*%
X144800000Y-101900000D02*
X144800000Y-100600000D01*
%TO.N,/ADS1299/IN2N*%
X144000000Y-100750000D02*
X143850000Y-100600000D01*
X144000000Y-101900000D02*
X144000000Y-100750000D01*
%TO.N,/ADS1299/IN3P*%
X141900003Y-101900000D02*
X141900003Y-100749997D01*
X141900003Y-100749997D02*
X142050000Y-100600000D01*
%TO.N,/ADS1299/IN3N*%
X141100000Y-101900000D02*
X141100000Y-100600000D01*
%TO.N,/ADS1299/IN4P*%
X140300000Y-101900000D02*
X140300000Y-100600000D01*
%TO.N,/ADS1299/IN4N*%
X139500000Y-100750000D02*
X139350000Y-100600000D01*
X139500000Y-101900000D02*
X139500000Y-100750000D01*
%TO.N,/ADS1299/IN5P*%
X137400009Y-100749991D02*
X137550000Y-100600000D01*
X137400009Y-101900000D02*
X137400009Y-100749991D01*
%TO.N,/ADS1299/IN5N*%
X136600006Y-100600006D02*
X136600000Y-100600000D01*
X136600006Y-101900000D02*
X136600006Y-100600006D01*
%TO.N,/ADS1299/IN6P*%
X135800003Y-101900000D02*
X135800003Y-100600003D01*
X135800003Y-100600003D02*
X135800000Y-100600000D01*
%TO.N,/ADS1299/IN6N*%
X135000000Y-101900000D02*
X135000000Y-100750000D01*
X135000000Y-100750000D02*
X134850000Y-100600000D01*
%TO.N,/ADS1299/IN8N*%
X130499997Y-101900000D02*
X130499997Y-100749997D01*
X130499997Y-100749997D02*
X130350000Y-100600000D01*
%TO.N,/ADS1299/IN8P*%
X131300000Y-101900000D02*
X131300000Y-100600000D01*
%TO.N,/ADS1299/IN7N*%
X132100000Y-101900000D02*
X132100000Y-100600000D01*
%TO.N,/ADS1299/IN7P*%
X132900000Y-100750000D02*
X133050000Y-100600000D01*
X132900000Y-101900000D02*
X132900000Y-100750000D01*
D24*
%TO.N,/ADS1299/BI*%
X126000000Y-105711360D02*
X126000000Y-103600000D01*
X126000000Y-103600000D02*
X126500000Y-103100000D01*
X126588640Y-106300000D02*
X126000000Y-105711360D01*
X127100000Y-106300000D02*
X126588640Y-106300000D01*
%TO.N,/ADS1299/I5*%
X130700000Y-105700000D02*
X133300000Y-103100000D01*
X130700000Y-106548529D02*
X130700000Y-105700000D01*
X131501471Y-107350000D02*
X130700000Y-106548529D01*
X137350000Y-107350000D02*
X131501471Y-107350000D01*
X138400000Y-106300000D02*
X137350000Y-107350000D01*
%TO.N,/ADS1299/I6*%
X133950000Y-103641360D02*
X133950000Y-103100000D01*
X135800000Y-105028640D02*
X134766360Y-103995000D01*
X134766360Y-103995000D02*
X134303640Y-103995000D01*
X134303640Y-103995000D02*
X133950000Y-103641360D01*
%TO.N,/ADS1299/I8*%
X133725000Y-104125000D02*
X133950000Y-104350000D01*
X133950000Y-104350000D02*
X133950000Y-105020000D01*
X132875000Y-104125000D02*
X133725000Y-104125000D01*
X131300000Y-105700000D02*
X132875000Y-104125000D01*
X131300000Y-106300000D02*
X131300000Y-105700000D01*
%TO.N,/ADS1299/I7*%
X134600000Y-105615000D02*
X134600000Y-105020000D01*
X132900000Y-106300000D02*
X133915000Y-106300000D01*
X133915000Y-106300000D02*
X134600000Y-105615000D01*
%TO.N,/ADS1299/I6*%
X135800000Y-106300000D02*
X135800000Y-105028640D01*
%TO.N,/ADS1299/I3*%
X143600000Y-105595000D02*
X143600000Y-105000000D01*
X142895000Y-106300000D02*
X143600000Y-105595000D01*
X141900000Y-106300000D02*
X142895000Y-106300000D01*
%TO.N,/ADS1299/I1*%
X139700000Y-106548529D02*
X139700000Y-105680000D01*
X140501471Y-107350000D02*
X139700000Y-106548529D01*
X139700000Y-105680000D02*
X142300000Y-103080000D01*
X145350000Y-107350000D02*
X140501471Y-107350000D01*
X146400000Y-106300000D02*
X145350000Y-107350000D01*
%TO.N,/ADS1299/I4*%
X142950000Y-104257758D02*
X142950000Y-105000000D01*
X142133640Y-103975000D02*
X142667242Y-103975000D01*
X142667242Y-103975000D02*
X142950000Y-104257758D01*
X140300000Y-105808640D02*
X142133640Y-103975000D01*
X140300000Y-106300000D02*
X140300000Y-105808640D01*
%TO.N,/ADS1299/I2*%
X142950000Y-103692072D02*
X142950000Y-103080000D01*
X144880000Y-105088640D02*
X143791360Y-104000000D01*
X144880000Y-106300000D02*
X144880000Y-105088640D01*
X143791360Y-104000000D02*
X143257928Y-104000000D01*
X143257928Y-104000000D02*
X142950000Y-103692072D01*
D22*
%TO.N,Net-(U1-GPIO3)*%
X135800000Y-83580760D02*
X136100224Y-83880984D01*
X135800000Y-82812500D02*
X135800000Y-83580760D01*
%TO.N,Net-(U1-GPIO2)*%
X136899997Y-83900000D02*
X136899997Y-83212503D01*
X136899997Y-83212503D02*
X137300000Y-82812500D01*
%TD*%
%TA.AperFunction,NonConductor*%
G36*
X104505703Y-61521241D02*
G01*
X104512181Y-61527273D01*
X104512455Y-61527547D01*
X104627664Y-61613793D01*
X104627671Y-61613797D01*
X104759081Y-61662810D01*
X104815015Y-61704681D01*
X104839432Y-61770145D01*
X104824580Y-61838418D01*
X104803430Y-61866673D01*
X104681503Y-61988600D01*
X104545965Y-62182169D01*
X104545964Y-62182171D01*
X104536882Y-62201649D01*
X104490709Y-62254088D01*
X104423516Y-62273240D01*
X104356635Y-62253024D01*
X104311300Y-62199859D01*
X104300500Y-62149244D01*
X104300500Y-61614954D01*
X104320185Y-61547915D01*
X104372989Y-61502160D01*
X104442147Y-61492216D01*
X104505703Y-61521241D01*
G37*
%TD.AperFunction*%
%TA.AperFunction,NonConductor*%
G36*
X124963182Y-61422421D02*
G01*
X124996666Y-61483745D01*
X124999500Y-61510102D01*
X124999500Y-62320803D01*
X124979815Y-62387842D01*
X124927011Y-62433597D01*
X124857853Y-62443541D01*
X124794297Y-62414516D01*
X124763118Y-62373208D01*
X124674035Y-62182171D01*
X124674034Y-62182169D01*
X124538496Y-61988600D01*
X124538495Y-61988599D01*
X124416567Y-61866671D01*
X124383084Y-61805351D01*
X124388068Y-61735659D01*
X124429939Y-61679725D01*
X124460915Y-61662810D01*
X124592331Y-61613796D01*
X124707546Y-61527546D01*
X124776234Y-61435789D01*
X124832167Y-61393920D01*
X124901859Y-61388936D01*
X124963182Y-61422421D01*
G37*
%TD.AperFunction*%
%TA.AperFunction,NonConductor*%
G36*
X104505703Y-63477042D02*
G01*
X104536880Y-63518349D01*
X104545965Y-63537830D01*
X104545966Y-63537831D01*
X104545967Y-63537834D01*
X104681501Y-63731395D01*
X104681506Y-63731402D01*
X104848597Y-63898493D01*
X104848603Y-63898498D01*
X105034158Y-64028425D01*
X105077783Y-64083002D01*
X105084977Y-64152500D01*
X105053454Y-64214855D01*
X105034158Y-64231575D01*
X104848597Y-64361505D01*
X104681505Y-64528597D01*
X104545965Y-64722169D01*
X104545964Y-64722171D01*
X104536882Y-64741649D01*
X104490709Y-64794088D01*
X104423516Y-64813240D01*
X104356635Y-64793024D01*
X104311300Y-64739859D01*
X104300500Y-64689244D01*
X104300500Y-63570755D01*
X104320185Y-63503716D01*
X104372989Y-63457961D01*
X104442147Y-63448017D01*
X104505703Y-63477042D01*
G37*
%TD.AperFunction*%
%TA.AperFunction,NonConductor*%
G36*
X124943365Y-63295416D02*
G01*
X124988700Y-63348581D01*
X124999500Y-63399196D01*
X124999500Y-64860803D01*
X124979815Y-64927842D01*
X124927011Y-64973597D01*
X124857853Y-64983541D01*
X124794297Y-64954516D01*
X124763118Y-64913208D01*
X124674035Y-64722171D01*
X124674034Y-64722169D01*
X124538494Y-64528597D01*
X124371402Y-64361506D01*
X124371396Y-64361501D01*
X124185842Y-64231575D01*
X124142217Y-64176998D01*
X124135023Y-64107500D01*
X124166546Y-64045145D01*
X124185842Y-64028425D01*
X124208026Y-64012891D01*
X124371401Y-63898495D01*
X124538495Y-63731401D01*
X124674035Y-63537830D01*
X124763118Y-63346790D01*
X124809290Y-63294352D01*
X124876484Y-63275200D01*
X124943365Y-63295416D01*
G37*
%TD.AperFunction*%
%TA.AperFunction,NonConductor*%
G36*
X104505703Y-66017042D02*
G01*
X104536880Y-66058349D01*
X104545965Y-66077830D01*
X104545966Y-66077831D01*
X104545967Y-66077834D01*
X104681501Y-66271395D01*
X104681506Y-66271402D01*
X104848597Y-66438493D01*
X104848603Y-66438498D01*
X105034158Y-66568425D01*
X105077783Y-66623002D01*
X105084977Y-66692500D01*
X105053454Y-66754855D01*
X105034158Y-66771575D01*
X104848597Y-66901505D01*
X104681505Y-67068597D01*
X104545965Y-67262169D01*
X104545964Y-67262171D01*
X104536882Y-67281649D01*
X104490709Y-67334088D01*
X104423516Y-67353240D01*
X104356635Y-67333024D01*
X104311300Y-67279859D01*
X104300500Y-67229244D01*
X104300500Y-66110755D01*
X104320185Y-66043716D01*
X104372989Y-65997961D01*
X104442147Y-65988017D01*
X104505703Y-66017042D01*
G37*
%TD.AperFunction*%
%TA.AperFunction,NonConductor*%
G36*
X124943365Y-65835416D02*
G01*
X124988700Y-65888581D01*
X124999500Y-65939196D01*
X124999500Y-67400803D01*
X124979815Y-67467842D01*
X124927011Y-67513597D01*
X124857853Y-67523541D01*
X124794297Y-67494516D01*
X124763118Y-67453208D01*
X124674035Y-67262171D01*
X124674034Y-67262169D01*
X124538494Y-67068597D01*
X124371402Y-66901506D01*
X124371396Y-66901501D01*
X124185842Y-66771575D01*
X124142217Y-66716998D01*
X124135023Y-66647500D01*
X124166546Y-66585145D01*
X124185842Y-66568425D01*
X124208026Y-66552891D01*
X124371401Y-66438495D01*
X124538495Y-66271401D01*
X124674035Y-66077830D01*
X124763118Y-65886790D01*
X124809290Y-65834352D01*
X124876484Y-65815200D01*
X124943365Y-65835416D01*
G37*
%TD.AperFunction*%
%TA.AperFunction,NonConductor*%
G36*
X122272085Y-58920185D02*
G01*
X122317840Y-58972989D01*
X122327784Y-59042147D01*
X122298759Y-59105703D01*
X122292727Y-59112181D01*
X122292452Y-59112455D01*
X122206206Y-59227664D01*
X122206202Y-59227671D01*
X122155908Y-59362517D01*
X122149501Y-59422116D01*
X122149501Y-59422123D01*
X122149500Y-59422135D01*
X122149500Y-61217870D01*
X122149501Y-61217876D01*
X122155908Y-61277483D01*
X122206202Y-61412328D01*
X122206206Y-61412335D01*
X122292452Y-61527544D01*
X122292455Y-61527547D01*
X122407664Y-61613793D01*
X122407671Y-61613797D01*
X122539081Y-61662810D01*
X122595015Y-61704681D01*
X122619432Y-61770145D01*
X122604580Y-61838418D01*
X122583430Y-61866673D01*
X122461503Y-61988600D01*
X122325965Y-62182169D01*
X122325964Y-62182171D01*
X122226098Y-62396335D01*
X122226094Y-62396344D01*
X122164938Y-62624586D01*
X122164936Y-62624596D01*
X122144341Y-62859999D01*
X122144341Y-62860000D01*
X122164936Y-63095403D01*
X122164938Y-63095413D01*
X122226094Y-63323655D01*
X122226096Y-63323659D01*
X122226097Y-63323663D01*
X122297619Y-63477042D01*
X122325965Y-63537830D01*
X122325967Y-63537834D01*
X122461501Y-63731395D01*
X122461506Y-63731402D01*
X122628597Y-63898493D01*
X122628603Y-63898498D01*
X122814158Y-64028425D01*
X122857783Y-64083002D01*
X122864977Y-64152500D01*
X122833454Y-64214855D01*
X122814158Y-64231575D01*
X122628597Y-64361505D01*
X122461505Y-64528597D01*
X122325965Y-64722169D01*
X122325964Y-64722171D01*
X122226098Y-64936335D01*
X122226094Y-64936344D01*
X122164938Y-65164586D01*
X122164936Y-65164596D01*
X122144341Y-65399999D01*
X122144341Y-65400000D01*
X122164936Y-65635403D01*
X122164938Y-65635413D01*
X122226094Y-65863655D01*
X122226096Y-65863659D01*
X122226097Y-65863663D01*
X122297619Y-66017042D01*
X122325965Y-66077830D01*
X122325967Y-66077834D01*
X122461501Y-66271395D01*
X122461506Y-66271402D01*
X122628597Y-66438493D01*
X122628603Y-66438498D01*
X122814158Y-66568425D01*
X122857783Y-66623002D01*
X122864977Y-66692500D01*
X122833454Y-66754855D01*
X122814158Y-66771575D01*
X122628597Y-66901505D01*
X122461505Y-67068597D01*
X122325965Y-67262169D01*
X122325964Y-67262171D01*
X122226098Y-67476335D01*
X122226094Y-67476344D01*
X122164938Y-67704586D01*
X122164936Y-67704596D01*
X122144341Y-67939999D01*
X122144341Y-67940000D01*
X122164936Y-68175403D01*
X122164938Y-68175413D01*
X122226094Y-68403655D01*
X122226097Y-68403664D01*
X122249148Y-68453095D01*
X122259640Y-68522172D01*
X122231121Y-68585956D01*
X122172644Y-68624196D01*
X122136766Y-68629500D01*
X115000808Y-68629500D01*
X114933769Y-68609815D01*
X114913127Y-68593181D01*
X107106818Y-60786872D01*
X107073333Y-60725549D01*
X107070499Y-60699191D01*
X107070499Y-59422129D01*
X107070498Y-59422123D01*
X107070497Y-59422116D01*
X107064091Y-59362517D01*
X107013796Y-59227669D01*
X107013795Y-59227668D01*
X107013793Y-59227664D01*
X106927547Y-59112455D01*
X106927273Y-59112181D01*
X106927087Y-59111840D01*
X106922232Y-59105355D01*
X106923164Y-59104656D01*
X106893788Y-59050858D01*
X106898772Y-58981166D01*
X106940644Y-58925233D01*
X107006108Y-58900816D01*
X107014954Y-58900500D01*
X122205046Y-58900500D01*
X122272085Y-58920185D01*
G37*
%TD.AperFunction*%
%TA.AperFunction,NonConductor*%
G36*
X124943365Y-68375416D02*
G01*
X124988700Y-68428581D01*
X124999500Y-68479196D01*
X124999500Y-69063135D01*
X124979815Y-69130174D01*
X124927011Y-69175929D01*
X124857853Y-69185873D01*
X124794297Y-69156848D01*
X124787819Y-69150816D01*
X124574965Y-68937962D01*
X124541480Y-68876639D01*
X124546464Y-68806947D01*
X124561066Y-68779165D01*
X124674035Y-68617830D01*
X124763118Y-68426790D01*
X124809290Y-68374352D01*
X124876484Y-68355200D01*
X124943365Y-68375416D01*
G37*
%TD.AperFunction*%
%TA.AperFunction,NonConductor*%
G36*
X104505703Y-68557042D02*
G01*
X104536880Y-68598349D01*
X104545965Y-68617830D01*
X104545966Y-68617831D01*
X104545967Y-68617834D01*
X104554136Y-68629500D01*
X104658927Y-68779157D01*
X104681501Y-68811395D01*
X104681506Y-68811402D01*
X104848597Y-68978493D01*
X104848603Y-68978498D01*
X105034158Y-69108425D01*
X105077783Y-69163002D01*
X105084977Y-69232500D01*
X105053454Y-69294855D01*
X105034158Y-69311575D01*
X104848597Y-69441505D01*
X104681505Y-69608597D01*
X104545965Y-69802169D01*
X104545964Y-69802171D01*
X104536882Y-69821649D01*
X104490709Y-69874088D01*
X104423516Y-69893240D01*
X104356635Y-69873024D01*
X104311300Y-69819859D01*
X104300500Y-69769244D01*
X104300500Y-68650755D01*
X104320185Y-68583716D01*
X104372989Y-68537961D01*
X104442147Y-68528017D01*
X104505703Y-68557042D01*
G37*
%TD.AperFunction*%
%TA.AperFunction,NonConductor*%
G36*
X107284962Y-62804908D02*
G01*
X114265325Y-69785272D01*
X114265331Y-69785277D01*
X114371874Y-69856466D01*
X114441221Y-69885189D01*
X114490256Y-69905501D01*
X114490259Y-69905501D01*
X114490260Y-69905502D01*
X114615928Y-69930500D01*
X114615931Y-69930500D01*
X114615932Y-69930500D01*
X114744069Y-69930500D01*
X122087497Y-69930500D01*
X122154536Y-69950185D01*
X122200291Y-70002989D01*
X122210235Y-70072147D01*
X122207272Y-70086593D01*
X122164938Y-70244586D01*
X122164936Y-70244596D01*
X122144341Y-70479999D01*
X122144341Y-70480000D01*
X122164936Y-70715403D01*
X122164938Y-70715413D01*
X122207272Y-70873407D01*
X122205609Y-70943257D01*
X122166446Y-71001119D01*
X122102218Y-71028623D01*
X122087497Y-71029500D01*
X114860808Y-71029500D01*
X114793769Y-71009815D01*
X114773127Y-70993181D01*
X107067709Y-63287763D01*
X107034224Y-63226440D01*
X107035615Y-63167989D01*
X107036545Y-63164517D01*
X107055063Y-63095408D01*
X107073753Y-62881781D01*
X107099205Y-62816713D01*
X107155796Y-62775734D01*
X107225558Y-62771856D01*
X107284962Y-62804908D01*
G37*
%TD.AperFunction*%
%TA.AperFunction,NonConductor*%
G36*
X104505703Y-71097042D02*
G01*
X104536880Y-71138349D01*
X104545965Y-71157830D01*
X104545966Y-71157831D01*
X104545967Y-71157834D01*
X104681501Y-71351395D01*
X104681506Y-71351402D01*
X104848597Y-71518493D01*
X104848603Y-71518498D01*
X105034158Y-71648425D01*
X105077783Y-71703002D01*
X105084977Y-71772500D01*
X105053454Y-71834855D01*
X105034158Y-71851575D01*
X104848597Y-71981505D01*
X104681505Y-72148597D01*
X104545965Y-72342169D01*
X104545964Y-72342171D01*
X104536882Y-72361649D01*
X104490709Y-72414088D01*
X104423516Y-72433240D01*
X104356635Y-72413024D01*
X104311300Y-72359859D01*
X104300500Y-72309244D01*
X104300500Y-71190755D01*
X104320185Y-71123716D01*
X104372989Y-71077961D01*
X104442147Y-71068017D01*
X104505703Y-71097042D01*
G37*
%TD.AperFunction*%
%TA.AperFunction,NonConductor*%
G36*
X142534621Y-72120185D02*
G01*
X142580376Y-72172989D01*
X142590320Y-72242147D01*
X142583764Y-72267833D01*
X142555908Y-72342517D01*
X142549501Y-72402116D01*
X142549501Y-72402123D01*
X142549500Y-72402135D01*
X142549500Y-73323085D01*
X142529815Y-73390124D01*
X142477011Y-73435879D01*
X142407853Y-73445823D01*
X142344297Y-73416798D01*
X142337819Y-73410766D01*
X141239234Y-72312181D01*
X141205749Y-72250858D01*
X141210733Y-72181166D01*
X141252605Y-72125233D01*
X141318069Y-72100816D01*
X141326915Y-72100500D01*
X142467582Y-72100500D01*
X142534621Y-72120185D01*
G37*
%TD.AperFunction*%
%TA.AperFunction,NonConductor*%
G36*
X107284962Y-65344908D02*
G01*
X114125325Y-72185272D01*
X114125332Y-72185278D01*
X114231863Y-72256459D01*
X114231867Y-72256461D01*
X114231874Y-72256466D01*
X114274715Y-72274211D01*
X114350256Y-72305501D01*
X114350260Y-72305501D01*
X114350261Y-72305502D01*
X114475928Y-72330500D01*
X114475931Y-72330500D01*
X114604069Y-72330500D01*
X122136766Y-72330500D01*
X122203805Y-72350185D01*
X122249560Y-72402989D01*
X122259504Y-72472147D01*
X122249148Y-72506903D01*
X122245545Y-72514631D01*
X122226097Y-72556335D01*
X122226094Y-72556344D01*
X122164938Y-72784586D01*
X122164936Y-72784596D01*
X122144341Y-73019999D01*
X122144341Y-73020000D01*
X122164936Y-73255403D01*
X122164938Y-73255413D01*
X122207272Y-73413407D01*
X122205609Y-73483257D01*
X122166446Y-73541119D01*
X122102218Y-73568623D01*
X122087497Y-73569500D01*
X112320807Y-73569500D01*
X112253768Y-73549815D01*
X112233126Y-73533181D01*
X107067709Y-68367763D01*
X107034224Y-68306440D01*
X107035615Y-68247989D01*
X107036545Y-68244517D01*
X107055063Y-68175408D01*
X107075659Y-67940000D01*
X107055063Y-67704592D01*
X106993903Y-67476337D01*
X106894035Y-67262171D01*
X106870980Y-67229244D01*
X106758494Y-67068597D01*
X106591402Y-66901506D01*
X106591396Y-66901501D01*
X106405842Y-66771575D01*
X106362217Y-66716998D01*
X106355023Y-66647500D01*
X106386546Y-66585145D01*
X106405842Y-66568425D01*
X106428026Y-66552891D01*
X106591401Y-66438495D01*
X106758495Y-66271401D01*
X106894035Y-66077830D01*
X106993903Y-65863663D01*
X107055063Y-65635408D01*
X107073753Y-65421781D01*
X107099205Y-65356713D01*
X107155796Y-65315734D01*
X107225558Y-65311856D01*
X107284962Y-65344908D01*
G37*
%TD.AperFunction*%
%TA.AperFunction,NonConductor*%
G36*
X104505703Y-73637042D02*
G01*
X104536880Y-73678349D01*
X104545965Y-73697830D01*
X104545966Y-73697831D01*
X104545967Y-73697834D01*
X104681501Y-73891395D01*
X104681506Y-73891402D01*
X104848597Y-74058493D01*
X104848603Y-74058498D01*
X105034158Y-74188425D01*
X105077783Y-74243002D01*
X105084977Y-74312500D01*
X105053454Y-74374855D01*
X105034158Y-74391575D01*
X104848597Y-74521505D01*
X104681505Y-74688597D01*
X104545965Y-74882169D01*
X104545964Y-74882171D01*
X104536882Y-74901649D01*
X104490709Y-74954088D01*
X104423516Y-74973240D01*
X104356635Y-74953024D01*
X104311300Y-74899859D01*
X104300500Y-74849244D01*
X104300500Y-73730755D01*
X104320185Y-73663716D01*
X104372989Y-73617961D01*
X104442147Y-73608017D01*
X104505703Y-73637042D01*
G37*
%TD.AperFunction*%
%TA.AperFunction,NonConductor*%
G36*
X140766231Y-74390185D02*
G01*
X140786873Y-74406819D01*
X140867873Y-74487819D01*
X140901358Y-74549142D01*
X140896374Y-74618834D01*
X140854502Y-74674767D01*
X140789038Y-74699184D01*
X140780192Y-74699500D01*
X131885929Y-74699500D01*
X131760261Y-74724497D01*
X131760255Y-74724499D01*
X131641875Y-74773533D01*
X131641866Y-74773538D01*
X131535333Y-74844722D01*
X131535327Y-74844726D01*
X131034580Y-75345473D01*
X130973257Y-75378958D01*
X130903565Y-75373974D01*
X130847632Y-75332102D01*
X130823215Y-75266638D01*
X130822899Y-75257792D01*
X130822899Y-74494500D01*
X130842584Y-74427461D01*
X130895388Y-74381706D01*
X130946899Y-74370500D01*
X140699192Y-74370500D01*
X140766231Y-74390185D01*
G37*
%TD.AperFunction*%
%TA.AperFunction,NonConductor*%
G36*
X124970128Y-74890185D02*
G01*
X124990770Y-74906819D01*
X126021770Y-75937819D01*
X126055255Y-75999142D01*
X126050271Y-76068834D01*
X126008399Y-76124767D01*
X125942935Y-76149184D01*
X125934089Y-76149500D01*
X124901785Y-76149500D01*
X124834746Y-76129815D01*
X124788991Y-76077011D01*
X124779047Y-76007853D01*
X124782010Y-75993407D01*
X124784146Y-75985432D01*
X124835063Y-75795408D01*
X124855659Y-75560000D01*
X124835063Y-75324592D01*
X124773903Y-75096337D01*
X124750851Y-75046904D01*
X124740360Y-74977828D01*
X124768879Y-74914044D01*
X124827356Y-74875804D01*
X124863234Y-74870500D01*
X124903089Y-74870500D01*
X124970128Y-74890185D01*
G37*
%TD.AperFunction*%
%TA.AperFunction,NonConductor*%
G36*
X107284962Y-70424908D02*
G01*
X109416390Y-72556335D01*
X111494724Y-74634669D01*
X111548652Y-74688597D01*
X111585332Y-74725277D01*
X111691866Y-74796461D01*
X111691872Y-74796464D01*
X111691873Y-74796465D01*
X111810256Y-74845501D01*
X111810260Y-74845501D01*
X111810261Y-74845502D01*
X111935928Y-74870500D01*
X111935931Y-74870500D01*
X122136766Y-74870500D01*
X122203805Y-74890185D01*
X122249560Y-74942989D01*
X122259504Y-75012147D01*
X122249148Y-75046905D01*
X122226097Y-75096335D01*
X122226094Y-75096344D01*
X122164938Y-75324586D01*
X122164936Y-75324596D01*
X122144341Y-75559999D01*
X122144341Y-75560000D01*
X122164936Y-75795403D01*
X122164938Y-75795413D01*
X122217990Y-75993407D01*
X122216327Y-76063257D01*
X122177164Y-76121119D01*
X122112936Y-76148623D01*
X122098215Y-76149500D01*
X112360808Y-76149500D01*
X112293769Y-76129815D01*
X112273127Y-76113181D01*
X107067709Y-70907763D01*
X107034224Y-70846440D01*
X107035615Y-70787989D01*
X107036545Y-70784517D01*
X107055063Y-70715408D01*
X107073753Y-70501781D01*
X107099205Y-70436713D01*
X107155796Y-70395734D01*
X107225558Y-70391856D01*
X107284962Y-70424908D01*
G37*
%TD.AperFunction*%
%TA.AperFunction,NonConductor*%
G36*
X104505703Y-76177042D02*
G01*
X104536880Y-76218349D01*
X104545965Y-76237830D01*
X104545966Y-76237831D01*
X104545967Y-76237834D01*
X104681501Y-76431395D01*
X104681506Y-76431402D01*
X104848597Y-76598493D01*
X104848603Y-76598498D01*
X105034158Y-76728425D01*
X105077783Y-76783002D01*
X105084977Y-76852500D01*
X105053454Y-76914855D01*
X105034158Y-76931575D01*
X104848597Y-77061505D01*
X104681505Y-77228597D01*
X104545965Y-77422169D01*
X104545964Y-77422171D01*
X104536882Y-77441649D01*
X104490709Y-77494088D01*
X104423516Y-77513240D01*
X104356635Y-77493024D01*
X104311300Y-77439859D01*
X104300500Y-77389244D01*
X104300500Y-76270755D01*
X104320185Y-76203716D01*
X104372989Y-76157961D01*
X104442147Y-76148017D01*
X104505703Y-76177042D01*
G37*
%TD.AperFunction*%
%TA.AperFunction,NonConductor*%
G36*
X125166480Y-77470185D02*
G01*
X125212235Y-77522989D01*
X125222179Y-77592147D01*
X125216483Y-77615454D01*
X125214632Y-77620742D01*
X125214630Y-77620750D01*
X125194435Y-77799996D01*
X125194435Y-77800003D01*
X125214630Y-77979249D01*
X125214631Y-77979254D01*
X125274211Y-78149523D01*
X125334013Y-78244696D01*
X125370184Y-78302262D01*
X125497738Y-78429816D01*
X125650478Y-78525789D01*
X125650480Y-78525790D01*
X125715262Y-78548459D01*
X125772038Y-78589180D01*
X125797785Y-78654133D01*
X125784329Y-78722695D01*
X125735941Y-78773097D01*
X125674307Y-78789500D01*
X124863234Y-78789500D01*
X124796195Y-78769815D01*
X124750440Y-78717011D01*
X124740496Y-78647853D01*
X124750852Y-78613095D01*
X124773903Y-78563663D01*
X124835063Y-78335408D01*
X124855659Y-78100000D01*
X124853843Y-78079249D01*
X124850839Y-78044908D01*
X124835063Y-77864592D01*
X124774298Y-77637812D01*
X124773905Y-77636344D01*
X124773900Y-77636329D01*
X124769504Y-77626902D01*
X124759013Y-77557825D01*
X124787535Y-77494041D01*
X124846012Y-77455803D01*
X124881887Y-77450500D01*
X125099441Y-77450500D01*
X125166480Y-77470185D01*
G37*
%TD.AperFunction*%
%TA.AperFunction,NonConductor*%
G36*
X107284962Y-72964908D02*
G01*
X111625325Y-77305272D01*
X111625328Y-77305275D01*
X111708305Y-77360718D01*
X111708304Y-77360718D01*
X111731871Y-77376464D01*
X111731872Y-77376464D01*
X111731873Y-77376465D01*
X111850256Y-77425501D01*
X111850260Y-77425501D01*
X111850261Y-77425502D01*
X111975928Y-77450500D01*
X111975931Y-77450500D01*
X122118113Y-77450500D01*
X122185152Y-77470185D01*
X122230907Y-77522989D01*
X122240851Y-77592147D01*
X122230496Y-77626902D01*
X122226099Y-77636329D01*
X122226094Y-77636344D01*
X122164938Y-77864586D01*
X122164936Y-77864596D01*
X122144341Y-78099999D01*
X122144341Y-78100000D01*
X122164936Y-78335403D01*
X122164938Y-78335413D01*
X122226094Y-78563655D01*
X122226097Y-78563664D01*
X122232585Y-78577576D01*
X122245636Y-78605565D01*
X122249148Y-78613095D01*
X122259640Y-78682172D01*
X122231121Y-78745956D01*
X122172644Y-78784196D01*
X122136766Y-78789500D01*
X112460808Y-78789500D01*
X112393769Y-78769815D01*
X112373127Y-78753181D01*
X107067709Y-73447763D01*
X107034224Y-73386440D01*
X107035615Y-73327989D01*
X107043114Y-73300003D01*
X107055063Y-73255408D01*
X107073753Y-73041781D01*
X107099205Y-72976713D01*
X107155796Y-72935734D01*
X107225558Y-72931856D01*
X107284962Y-72964908D01*
G37*
%TD.AperFunction*%
%TA.AperFunction,NonConductor*%
G36*
X140650717Y-76020185D02*
G01*
X140696472Y-76072989D01*
X140706898Y-76110617D01*
X140714630Y-76179249D01*
X140742542Y-76259017D01*
X140749500Y-76299971D01*
X140749500Y-76972523D01*
X140729815Y-77039562D01*
X140677011Y-77085317D01*
X140611620Y-77095744D01*
X140604024Y-77094888D01*
X140600000Y-77094435D01*
X140599999Y-77094435D01*
X140599996Y-77094435D01*
X140420750Y-77114630D01*
X140420742Y-77114632D01*
X140290954Y-77160047D01*
X140221175Y-77163608D01*
X140209046Y-77160047D01*
X140079257Y-77114632D01*
X140079249Y-77114630D01*
X139900004Y-77094435D01*
X139899996Y-77094435D01*
X139720750Y-77114630D01*
X139720737Y-77114633D01*
X139543906Y-77176510D01*
X139543155Y-77174364D01*
X139484856Y-77183962D01*
X139456409Y-77175609D01*
X139456094Y-77176510D01*
X139279262Y-77114633D01*
X139279249Y-77114630D01*
X139100004Y-77094435D01*
X139099996Y-77094435D01*
X138920750Y-77114630D01*
X138920742Y-77114632D01*
X138790954Y-77160047D01*
X138721175Y-77163608D01*
X138709046Y-77160047D01*
X138579257Y-77114632D01*
X138579249Y-77114630D01*
X138400004Y-77094435D01*
X138399996Y-77094435D01*
X138220750Y-77114630D01*
X138220745Y-77114631D01*
X138050476Y-77174211D01*
X137897737Y-77270184D01*
X137770184Y-77397737D01*
X137674211Y-77550476D01*
X137614631Y-77720745D01*
X137614630Y-77720750D01*
X137594435Y-77899996D01*
X137594435Y-77900003D01*
X137614630Y-78079249D01*
X137614631Y-78079254D01*
X137674211Y-78249524D01*
X137680497Y-78259527D01*
X137699498Y-78326764D01*
X137679131Y-78393599D01*
X137625863Y-78438814D01*
X137575504Y-78449500D01*
X132599972Y-78449500D01*
X132559017Y-78442542D01*
X132479254Y-78414631D01*
X132479249Y-78414630D01*
X132300004Y-78394435D01*
X132299996Y-78394435D01*
X132120750Y-78414630D01*
X132120745Y-78414631D01*
X131950476Y-78474211D01*
X131797737Y-78570184D01*
X131670184Y-78697737D01*
X131574211Y-78850476D01*
X131514631Y-79020745D01*
X131514630Y-79020750D01*
X131494435Y-79199996D01*
X131494435Y-79200003D01*
X131514630Y-79379249D01*
X131514632Y-79379257D01*
X131518439Y-79390136D01*
X131522000Y-79459915D01*
X131487271Y-79520542D01*
X131425278Y-79552769D01*
X131355702Y-79546363D01*
X131313716Y-79518771D01*
X129501192Y-77706247D01*
X129467707Y-77644924D01*
X129472691Y-77575232D01*
X129501189Y-77530887D01*
X129529816Y-77502262D01*
X129625789Y-77349522D01*
X129685368Y-77179255D01*
X129685369Y-77179249D01*
X129695919Y-77085617D01*
X129722985Y-77021203D01*
X129780580Y-76981647D01*
X129819139Y-76975500D01*
X131039071Y-76975500D01*
X131123615Y-76958682D01*
X131164744Y-76950501D01*
X131283127Y-76901465D01*
X131310169Y-76883395D01*
X131376846Y-76862519D01*
X131444226Y-76881004D01*
X131466740Y-76898818D01*
X131497738Y-76929816D01*
X131650478Y-77025789D01*
X131777352Y-77070184D01*
X131820745Y-77085368D01*
X131820750Y-77085369D01*
X131999996Y-77105565D01*
X132000000Y-77105565D01*
X132000004Y-77105565D01*
X132179249Y-77085369D01*
X132179252Y-77085368D01*
X132179255Y-77085368D01*
X132349522Y-77025789D01*
X132502262Y-76929816D01*
X132629816Y-76802262D01*
X132725789Y-76649522D01*
X132785368Y-76479255D01*
X132790760Y-76431401D01*
X132805565Y-76300003D01*
X132805565Y-76299996D01*
X132787356Y-76138383D01*
X132799411Y-76069561D01*
X132846760Y-76018182D01*
X132910576Y-76000500D01*
X140583678Y-76000500D01*
X140650717Y-76020185D01*
G37*
%TD.AperFunction*%
%TA.AperFunction,NonConductor*%
G36*
X104505703Y-78717042D02*
G01*
X104536880Y-78758349D01*
X104545965Y-78777830D01*
X104545966Y-78777831D01*
X104545967Y-78777834D01*
X104681501Y-78971395D01*
X104681506Y-78971402D01*
X104848597Y-79138493D01*
X104848603Y-79138498D01*
X105034158Y-79268425D01*
X105077783Y-79323002D01*
X105084977Y-79392500D01*
X105053454Y-79454855D01*
X105034158Y-79471575D01*
X104848597Y-79601505D01*
X104681505Y-79768597D01*
X104545965Y-79962169D01*
X104545964Y-79962171D01*
X104536882Y-79981649D01*
X104490709Y-80034088D01*
X104423516Y-80053240D01*
X104356635Y-80033024D01*
X104311300Y-79979859D01*
X104300500Y-79929244D01*
X104300500Y-78810755D01*
X104320185Y-78743716D01*
X104372989Y-78697961D01*
X104442147Y-78688017D01*
X104505703Y-78717042D01*
G37*
%TD.AperFunction*%
%TA.AperFunction,NonConductor*%
G36*
X140197231Y-79970185D02*
G01*
X140242986Y-80022989D01*
X140252930Y-80092147D01*
X140223905Y-80155703D01*
X140217890Y-80162162D01*
X140133461Y-80246593D01*
X139914203Y-80465850D01*
X139852880Y-80499334D01*
X139783188Y-80494350D01*
X139727255Y-80452478D01*
X139715220Y-80429438D01*
X139713958Y-80430027D01*
X139710909Y-80423488D01*
X139710908Y-80423484D01*
X139620340Y-80276650D01*
X139505871Y-80162181D01*
X139472386Y-80100858D01*
X139477370Y-80031166D01*
X139519242Y-79975233D01*
X139584706Y-79950816D01*
X139593552Y-79950500D01*
X140130192Y-79950500D01*
X140197231Y-79970185D01*
G37*
%TD.AperFunction*%
%TA.AperFunction,NonConductor*%
G36*
X107284962Y-75504908D02*
G01*
X111725325Y-79945272D01*
X111725332Y-79945278D01*
X111822580Y-80010256D01*
X111822582Y-80010257D01*
X111831873Y-80016465D01*
X111950256Y-80065501D01*
X111950260Y-80065501D01*
X111950261Y-80065502D01*
X112075928Y-80090500D01*
X112075931Y-80090500D01*
X122087497Y-80090500D01*
X122154536Y-80110185D01*
X122200291Y-80162989D01*
X122210235Y-80232147D01*
X122207272Y-80246593D01*
X122164938Y-80404586D01*
X122164936Y-80404596D01*
X122144341Y-80639999D01*
X122144341Y-80640000D01*
X122164936Y-80875403D01*
X122164938Y-80875413D01*
X122207272Y-81033407D01*
X122205609Y-81103257D01*
X122166446Y-81161119D01*
X122102218Y-81188623D01*
X122087497Y-81189500D01*
X112320807Y-81189500D01*
X112253768Y-81169815D01*
X112233126Y-81153181D01*
X107067709Y-75987763D01*
X107034224Y-75926440D01*
X107035615Y-75867989D01*
X107036545Y-75864517D01*
X107055063Y-75795408D01*
X107073753Y-75581781D01*
X107099205Y-75516713D01*
X107155796Y-75475734D01*
X107225558Y-75471856D01*
X107284962Y-75504908D01*
G37*
%TD.AperFunction*%
%TA.AperFunction,NonConductor*%
G36*
X133573487Y-79970185D02*
G01*
X133619242Y-80022989D01*
X133629186Y-80092147D01*
X133600161Y-80155703D01*
X133594129Y-80162181D01*
X133479661Y-80276648D01*
X133389093Y-80423481D01*
X133389092Y-80423484D01*
X133334826Y-80587247D01*
X133334826Y-80587248D01*
X133334825Y-80587248D01*
X133324500Y-80688315D01*
X133324500Y-81230193D01*
X133304815Y-81297232D01*
X133252011Y-81342987D01*
X133182853Y-81352931D01*
X133119297Y-81323906D01*
X133112819Y-81317874D01*
X131981228Y-80186283D01*
X131947743Y-80124960D01*
X131952727Y-80055268D01*
X131994599Y-79999335D01*
X132060063Y-79974918D01*
X132109867Y-79981562D01*
X132120739Y-79985366D01*
X132120745Y-79985368D01*
X132120747Y-79985368D01*
X132120750Y-79985369D01*
X132299996Y-80005565D01*
X132300000Y-80005565D01*
X132300004Y-80005565D01*
X132479249Y-79985369D01*
X132479252Y-79985368D01*
X132479255Y-79985368D01*
X132559017Y-79957457D01*
X132599972Y-79950500D01*
X133506448Y-79950500D01*
X133573487Y-79970185D01*
G37*
%TD.AperFunction*%
%TA.AperFunction,NonConductor*%
G36*
X104505703Y-81257042D02*
G01*
X104536880Y-81298349D01*
X104545965Y-81317830D01*
X104545966Y-81317831D01*
X104545967Y-81317834D01*
X104654281Y-81472521D01*
X104658927Y-81479157D01*
X104681501Y-81511395D01*
X104681506Y-81511402D01*
X104848597Y-81678493D01*
X104848603Y-81678498D01*
X105034158Y-81808425D01*
X105077783Y-81863002D01*
X105084977Y-81932500D01*
X105053454Y-81994855D01*
X105034158Y-82011575D01*
X104848597Y-82141505D01*
X104681505Y-82308597D01*
X104545965Y-82502169D01*
X104545964Y-82502171D01*
X104536882Y-82521649D01*
X104490709Y-82574088D01*
X104423516Y-82593240D01*
X104356635Y-82573024D01*
X104311300Y-82519859D01*
X104300500Y-82469244D01*
X104300500Y-81350755D01*
X104320185Y-81283716D01*
X104372989Y-81237961D01*
X104442147Y-81228017D01*
X104505703Y-81257042D01*
G37*
%TD.AperFunction*%
%TA.AperFunction,NonConductor*%
G36*
X126919649Y-77475120D02*
G01*
X126923494Y-77475499D01*
X126923499Y-77475500D01*
X127379192Y-77475500D01*
X127446231Y-77495185D01*
X127466873Y-77511819D01*
X128926456Y-78971402D01*
X130373806Y-80418751D01*
X130407291Y-80480074D01*
X130402307Y-80549766D01*
X130373816Y-80594103D01*
X130370191Y-80597728D01*
X130370186Y-80597734D01*
X130274211Y-80750476D01*
X130214631Y-80920745D01*
X130214630Y-80920750D01*
X130194435Y-81099996D01*
X130194435Y-81100003D01*
X130214630Y-81279249D01*
X130214631Y-81279254D01*
X130274211Y-81449523D01*
X130338298Y-81551516D01*
X130370184Y-81602262D01*
X130497738Y-81729816D01*
X130505928Y-81734962D01*
X130631771Y-81814035D01*
X130650478Y-81825789D01*
X130744967Y-81858852D01*
X130820745Y-81885368D01*
X130820750Y-81885369D01*
X130999996Y-81905565D01*
X131000000Y-81905565D01*
X131000004Y-81905565D01*
X131179249Y-81885369D01*
X131179252Y-81885368D01*
X131179255Y-81885368D01*
X131349522Y-81825789D01*
X131368229Y-81814035D01*
X131443286Y-81766873D01*
X131494073Y-81734961D01*
X131561308Y-81715961D01*
X131628143Y-81736328D01*
X131673358Y-81789596D01*
X131682596Y-81858852D01*
X131665038Y-81905926D01*
X131574210Y-82050479D01*
X131571186Y-82056758D01*
X131569361Y-82055878D01*
X131546692Y-82091939D01*
X130791937Y-82846693D01*
X130755873Y-82869370D01*
X130756750Y-82871191D01*
X130750475Y-82874212D01*
X130603568Y-82966521D01*
X130536331Y-82985521D01*
X130469496Y-82965153D01*
X130449915Y-82949208D01*
X126435435Y-78934727D01*
X126435434Y-78934726D01*
X126435430Y-78934723D01*
X126328888Y-78863535D01*
X126210505Y-78814499D01*
X126210503Y-78814498D01*
X126206480Y-78813278D01*
X126148042Y-78774980D01*
X126119586Y-78711167D01*
X126130147Y-78642101D01*
X126176372Y-78589708D01*
X126201523Y-78577576D01*
X126241307Y-78563655D01*
X126349522Y-78525789D01*
X126502262Y-78429816D01*
X126629816Y-78302262D01*
X126725789Y-78149522D01*
X126785368Y-77979255D01*
X126788027Y-77955657D01*
X126805565Y-77800003D01*
X126805565Y-77799996D01*
X126784589Y-77613825D01*
X126787364Y-77613512D01*
X126790870Y-77556367D01*
X126832173Y-77500013D01*
X126897387Y-77474934D01*
X126919649Y-77475120D01*
G37*
%TD.AperFunction*%
%TA.AperFunction,NonConductor*%
G36*
X107284962Y-78044908D02*
G01*
X109394715Y-80154660D01*
X111494724Y-82254669D01*
X111548652Y-82308597D01*
X111585332Y-82345277D01*
X111691866Y-82416461D01*
X111691872Y-82416464D01*
X111691873Y-82416465D01*
X111810256Y-82465501D01*
X111810260Y-82465501D01*
X111810261Y-82465502D01*
X111935928Y-82490500D01*
X111935931Y-82490500D01*
X122136766Y-82490500D01*
X122203805Y-82510185D01*
X122249560Y-82562989D01*
X122259504Y-82632147D01*
X122249148Y-82666905D01*
X122226097Y-82716335D01*
X122226094Y-82716344D01*
X122164938Y-82944586D01*
X122164936Y-82944596D01*
X122144341Y-83179999D01*
X122144341Y-83180000D01*
X122164936Y-83415403D01*
X122164938Y-83415413D01*
X122226094Y-83643655D01*
X122226097Y-83643664D01*
X122249148Y-83693095D01*
X122259640Y-83762172D01*
X122231121Y-83825956D01*
X122172644Y-83864196D01*
X122136766Y-83869500D01*
X109920808Y-83869500D01*
X109853769Y-83849815D01*
X109833127Y-83833181D01*
X107067709Y-81067763D01*
X107034224Y-81006440D01*
X107035615Y-80947989D01*
X107036545Y-80944517D01*
X107055063Y-80875408D01*
X107075659Y-80640000D01*
X107055063Y-80404592D01*
X106993903Y-80176337D01*
X106894035Y-79962171D01*
X106886085Y-79950816D01*
X106758494Y-79768597D01*
X106591402Y-79601506D01*
X106591396Y-79601501D01*
X106405842Y-79471575D01*
X106362217Y-79416998D01*
X106355023Y-79347500D01*
X106386546Y-79285145D01*
X106405842Y-79268425D01*
X106428026Y-79252891D01*
X106591401Y-79138495D01*
X106758495Y-78971401D01*
X106894035Y-78777830D01*
X106993903Y-78563663D01*
X107055063Y-78335408D01*
X107073753Y-78121781D01*
X107099205Y-78056713D01*
X107155796Y-78015734D01*
X107225558Y-78011856D01*
X107284962Y-78044908D01*
G37*
%TD.AperFunction*%
%TA.AperFunction,NonConductor*%
G36*
X125766992Y-80110185D02*
G01*
X125787634Y-80126819D01*
X127898634Y-82237819D01*
X127932119Y-82299142D01*
X127927135Y-82368834D01*
X127885263Y-82424767D01*
X127819799Y-82449184D01*
X127810953Y-82449500D01*
X126402129Y-82449500D01*
X126402123Y-82449501D01*
X126342516Y-82455908D01*
X126207671Y-82506202D01*
X126207664Y-82506206D01*
X126092455Y-82592452D01*
X126092452Y-82592455D01*
X126006206Y-82707664D01*
X126006202Y-82707671D01*
X125955908Y-82842517D01*
X125949501Y-82902116D01*
X125949500Y-82902135D01*
X125949500Y-84310953D01*
X125929815Y-84377992D01*
X125877011Y-84423747D01*
X125807853Y-84433691D01*
X125744297Y-84404666D01*
X125737819Y-84398634D01*
X125386819Y-84047634D01*
X125353334Y-83986311D01*
X125350500Y-83959953D01*
X125350500Y-82618871D01*
X125325502Y-82493204D01*
X125325501Y-82493203D01*
X125325501Y-82493199D01*
X125276465Y-82374816D01*
X125243903Y-82326083D01*
X125243903Y-82326082D01*
X125205274Y-82268270D01*
X125205271Y-82268267D01*
X124574965Y-81637962D01*
X124541480Y-81576639D01*
X124546464Y-81506948D01*
X124561066Y-81479165D01*
X124674035Y-81317830D01*
X124773903Y-81103663D01*
X124835063Y-80875408D01*
X124855659Y-80640000D01*
X124835063Y-80404592D01*
X124806550Y-80298180D01*
X124792728Y-80246593D01*
X124794391Y-80176743D01*
X124833554Y-80118881D01*
X124897782Y-80091377D01*
X124912503Y-80090500D01*
X125699953Y-80090500D01*
X125766992Y-80110185D01*
G37*
%TD.AperFunction*%
%TA.AperFunction,NonConductor*%
G36*
X104505703Y-83797042D02*
G01*
X104536880Y-83838349D01*
X104545965Y-83857830D01*
X104545966Y-83857831D01*
X104545967Y-83857834D01*
X104681501Y-84051395D01*
X104681506Y-84051402D01*
X104848597Y-84218493D01*
X104848603Y-84218498D01*
X105034158Y-84348425D01*
X105077783Y-84403002D01*
X105084977Y-84472500D01*
X105053454Y-84534855D01*
X105034158Y-84551575D01*
X104848597Y-84681505D01*
X104681505Y-84848597D01*
X104545965Y-85042169D01*
X104545964Y-85042171D01*
X104536882Y-85061649D01*
X104490709Y-85114088D01*
X104423516Y-85133240D01*
X104356635Y-85113024D01*
X104311300Y-85059859D01*
X104300500Y-85009244D01*
X104300500Y-83890755D01*
X104320185Y-83823716D01*
X104372989Y-83777961D01*
X104442147Y-83768017D01*
X104505703Y-83797042D01*
G37*
%TD.AperFunction*%
%TA.AperFunction,NonConductor*%
G36*
X132514178Y-83534453D02*
G01*
X132519705Y-83539652D01*
X134617873Y-85637819D01*
X134651358Y-85699142D01*
X134646374Y-85768834D01*
X134604502Y-85824767D01*
X134539038Y-85849184D01*
X134530192Y-85849500D01*
X133401569Y-85849500D01*
X133334530Y-85829815D01*
X133313888Y-85813181D01*
X132350792Y-84850085D01*
X132317307Y-84788762D01*
X132322291Y-84719070D01*
X132333479Y-84696432D01*
X132340331Y-84685527D01*
X132425789Y-84549522D01*
X132485368Y-84379255D01*
X132485369Y-84379249D01*
X132505565Y-84200003D01*
X132505565Y-84199996D01*
X132485369Y-84020750D01*
X132485368Y-84020745D01*
X132460781Y-83950480D01*
X132425789Y-83850478D01*
X132329816Y-83697738D01*
X132329814Y-83697736D01*
X132327030Y-83693305D01*
X132308030Y-83626069D01*
X132328397Y-83559233D01*
X132381665Y-83514019D01*
X132450922Y-83504781D01*
X132514178Y-83534453D01*
G37*
%TD.AperFunction*%
%TA.AperFunction,NonConductor*%
G36*
X135765124Y-84611820D02*
G01*
X135920961Y-84666350D01*
X135920967Y-84666351D01*
X135920969Y-84666352D01*
X135920970Y-84666352D01*
X135920974Y-84666353D01*
X136100220Y-84686549D01*
X136100224Y-84686549D01*
X136100228Y-84686549D01*
X136279473Y-84666353D01*
X136279476Y-84666352D01*
X136279479Y-84666352D01*
X136279480Y-84666351D01*
X136279483Y-84666351D01*
X136321615Y-84651608D01*
X136438643Y-84610657D01*
X136508419Y-84607095D01*
X136545564Y-84622703D01*
X136550475Y-84625789D01*
X136679075Y-84670788D01*
X136720742Y-84685368D01*
X136720747Y-84685369D01*
X136899993Y-84705565D01*
X136899997Y-84705565D01*
X136900001Y-84705565D01*
X137079246Y-84685369D01*
X137079248Y-84685368D01*
X137079252Y-84685368D01*
X137079255Y-84685366D01*
X137079259Y-84685366D01*
X137256092Y-84623489D01*
X137256843Y-84625637D01*
X137315125Y-84616035D01*
X137343589Y-84624391D01*
X137343905Y-84623489D01*
X137350477Y-84625788D01*
X137350478Y-84625789D01*
X137466395Y-84666350D01*
X137520745Y-84685368D01*
X137520750Y-84685369D01*
X137699996Y-84705565D01*
X137700000Y-84705565D01*
X137700004Y-84705565D01*
X137879249Y-84685369D01*
X137879251Y-84685368D01*
X137879255Y-84685368D01*
X137879258Y-84685366D01*
X137879262Y-84685366D01*
X138038016Y-84629815D01*
X138049522Y-84625789D01*
X138049525Y-84625786D01*
X138055795Y-84622768D01*
X138056924Y-84625112D01*
X138112648Y-84609350D01*
X138177388Y-84628350D01*
X138237870Y-84666353D01*
X138244930Y-84670789D01*
X138379360Y-84717828D01*
X138415197Y-84730368D01*
X138415202Y-84730369D01*
X138594448Y-84750565D01*
X138594452Y-84750565D01*
X138594456Y-84750565D01*
X138773701Y-84730369D01*
X138773703Y-84730368D01*
X138773707Y-84730368D01*
X138775288Y-84729815D01*
X138809544Y-84717828D01*
X138879322Y-84714265D01*
X138939950Y-84748993D01*
X138972178Y-84810986D01*
X138974500Y-84834869D01*
X138974500Y-84854191D01*
X138954815Y-84921230D01*
X138938181Y-84941872D01*
X138201775Y-85678277D01*
X138140452Y-85711762D01*
X138127988Y-85713815D01*
X138120752Y-85714630D01*
X138120744Y-85714632D01*
X137950478Y-85774210D01*
X137797737Y-85870184D01*
X137670184Y-85997737D01*
X137654994Y-86021913D01*
X137602659Y-86068204D01*
X137533605Y-86078852D01*
X137469757Y-86050477D01*
X137445006Y-86021913D01*
X137429815Y-85997737D01*
X137302262Y-85870184D01*
X137149521Y-85774210D01*
X136979255Y-85714632D01*
X136979246Y-85714630D01*
X136972012Y-85713815D01*
X136907600Y-85686744D01*
X136898223Y-85678277D01*
X136564674Y-85344727D01*
X136564673Y-85344726D01*
X136564669Y-85344723D01*
X136458127Y-85273535D01*
X136416624Y-85256344D01*
X136339744Y-85224499D01*
X136339738Y-85224497D01*
X136214071Y-85199500D01*
X136214069Y-85199500D01*
X136070808Y-85199500D01*
X136003769Y-85179815D01*
X135983127Y-85163181D01*
X135636488Y-84816542D01*
X135603003Y-84755219D01*
X135607987Y-84685527D01*
X135649859Y-84629594D01*
X135715323Y-84605177D01*
X135765124Y-84611820D01*
G37*
%TD.AperFunction*%
%TA.AperFunction,NonConductor*%
G36*
X107284962Y-83124908D02*
G01*
X109185325Y-85025272D01*
X109185332Y-85025278D01*
X109291868Y-85096462D01*
X109291874Y-85096466D01*
X109361221Y-85125189D01*
X109410256Y-85145501D01*
X109410259Y-85145501D01*
X109410260Y-85145502D01*
X109535928Y-85170500D01*
X109535931Y-85170500D01*
X122087497Y-85170500D01*
X122154536Y-85190185D01*
X122200291Y-85242989D01*
X122210235Y-85312147D01*
X122207272Y-85326593D01*
X122164938Y-85484586D01*
X122164936Y-85484596D01*
X122144341Y-85719999D01*
X122144341Y-85720000D01*
X122164936Y-85955403D01*
X122164938Y-85955413D01*
X122207272Y-86113407D01*
X122205609Y-86183257D01*
X122166446Y-86241119D01*
X122102218Y-86268623D01*
X122087497Y-86269500D01*
X107240808Y-86269500D01*
X107173769Y-86249815D01*
X107153127Y-86233181D01*
X107067709Y-86147763D01*
X107034224Y-86086440D01*
X107035615Y-86027989D01*
X107041012Y-86007847D01*
X107055063Y-85955408D01*
X107075659Y-85720000D01*
X107075189Y-85714633D01*
X107066603Y-85616488D01*
X107055063Y-85484592D01*
X106993903Y-85256337D01*
X106894035Y-85042171D01*
X106882565Y-85025789D01*
X106758494Y-84848597D01*
X106591402Y-84681506D01*
X106591396Y-84681501D01*
X106405842Y-84551575D01*
X106362217Y-84496998D01*
X106355023Y-84427500D01*
X106386546Y-84365145D01*
X106405842Y-84348425D01*
X106459357Y-84310953D01*
X106591401Y-84218495D01*
X106758495Y-84051401D01*
X106894035Y-83857830D01*
X106993903Y-83643663D01*
X107055063Y-83415408D01*
X107073753Y-83201781D01*
X107099205Y-83136713D01*
X107155796Y-83095734D01*
X107225558Y-83091856D01*
X107284962Y-83124908D01*
G37*
%TD.AperFunction*%
%TA.AperFunction,NonConductor*%
G36*
X128855702Y-83195333D02*
G01*
X128862180Y-83201365D01*
X131520839Y-85860024D01*
X131554324Y-85921347D01*
X131549340Y-85991039D01*
X131538152Y-86013677D01*
X131445842Y-86160585D01*
X131386262Y-86330854D01*
X131386261Y-86330859D01*
X131366066Y-86510105D01*
X131366066Y-86510112D01*
X131386261Y-86689358D01*
X131386262Y-86689363D01*
X131437064Y-86834545D01*
X131440625Y-86904324D01*
X131405896Y-86964952D01*
X131343903Y-86997179D01*
X131320022Y-86999500D01*
X130352066Y-86999500D01*
X130285027Y-86979815D01*
X130239272Y-86927011D01*
X130229328Y-86857853D01*
X130258353Y-86794297D01*
X130286092Y-86770507D01*
X130321012Y-86748566D01*
X130448566Y-86621012D01*
X130544539Y-86468272D01*
X130604118Y-86298005D01*
X130609548Y-86249815D01*
X130624315Y-86118753D01*
X130624315Y-86118746D01*
X130604119Y-85939500D01*
X130604118Y-85939495D01*
X130563973Y-85824767D01*
X130544539Y-85769228D01*
X130544291Y-85768834D01*
X130448565Y-85616487D01*
X130321012Y-85488934D01*
X130168273Y-85392961D01*
X129998004Y-85333381D01*
X129997999Y-85333380D01*
X129818754Y-85313185D01*
X129818746Y-85313185D01*
X129639500Y-85333380D01*
X129639495Y-85333381D01*
X129469226Y-85392961D01*
X129316487Y-85488934D01*
X129188934Y-85616487D01*
X129092961Y-85769226D01*
X129033381Y-85939495D01*
X129033380Y-85939500D01*
X129013185Y-86118746D01*
X129013185Y-86118755D01*
X129018014Y-86161618D01*
X129005959Y-86230439D01*
X128958609Y-86281818D01*
X128894794Y-86299500D01*
X127690047Y-86299500D01*
X127623008Y-86279815D01*
X127602366Y-86263181D01*
X126701365Y-85362180D01*
X126667880Y-85300857D01*
X126672864Y-85231165D01*
X126714736Y-85175232D01*
X126780200Y-85150815D01*
X126789046Y-85150499D01*
X128197871Y-85150499D01*
X128197872Y-85150499D01*
X128257483Y-85144091D01*
X128392331Y-85093796D01*
X128507546Y-85007546D01*
X128593796Y-84892331D01*
X128644091Y-84757483D01*
X128650500Y-84697873D01*
X128650499Y-83289045D01*
X128670184Y-83222007D01*
X128722987Y-83176252D01*
X128792146Y-83166308D01*
X128855702Y-83195333D01*
G37*
%TD.AperFunction*%
%TA.AperFunction,NonConductor*%
G36*
X104505703Y-86337042D02*
G01*
X104536880Y-86378349D01*
X104545965Y-86397830D01*
X104545966Y-86397831D01*
X104545967Y-86397834D01*
X104681501Y-86591395D01*
X104681506Y-86591402D01*
X104848597Y-86758493D01*
X104848603Y-86758498D01*
X105034158Y-86888425D01*
X105077783Y-86943002D01*
X105084977Y-87012500D01*
X105053454Y-87074855D01*
X105034158Y-87091575D01*
X104848597Y-87221505D01*
X104681505Y-87388597D01*
X104545965Y-87582169D01*
X104545964Y-87582171D01*
X104536882Y-87601649D01*
X104490709Y-87654088D01*
X104423516Y-87673240D01*
X104356635Y-87653024D01*
X104311300Y-87599859D01*
X104300500Y-87549244D01*
X104300500Y-86430755D01*
X104320185Y-86363716D01*
X104372989Y-86317961D01*
X104442147Y-86308017D01*
X104505703Y-86337042D01*
G37*
%TD.AperFunction*%
%TA.AperFunction,NonConductor*%
G36*
X124913295Y-86219901D02*
G01*
X124933111Y-86236000D01*
X127453330Y-88756219D01*
X127486815Y-88817542D01*
X127481831Y-88887234D01*
X127439959Y-88943167D01*
X127431621Y-88948894D01*
X127397737Y-88970184D01*
X127270184Y-89097737D01*
X127255476Y-89121146D01*
X127203141Y-89167437D01*
X127134088Y-89178085D01*
X127070239Y-89149710D01*
X127062801Y-89142855D01*
X124600887Y-86680941D01*
X124567402Y-86619618D01*
X124572386Y-86549926D01*
X124586991Y-86522141D01*
X124674035Y-86397830D01*
X124733048Y-86271275D01*
X124779220Y-86218837D01*
X124846414Y-86199685D01*
X124913295Y-86219901D01*
G37*
%TD.AperFunction*%
%TA.AperFunction,NonConductor*%
G36*
X104505703Y-88877042D02*
G01*
X104536880Y-88918349D01*
X104545965Y-88937830D01*
X104545966Y-88937831D01*
X104545967Y-88937834D01*
X104595832Y-89009048D01*
X104674324Y-89121146D01*
X104681501Y-89131395D01*
X104681506Y-89131402D01*
X104848597Y-89298493D01*
X104848603Y-89298498D01*
X105034158Y-89428425D01*
X105077783Y-89483002D01*
X105084977Y-89552500D01*
X105053454Y-89614855D01*
X105034158Y-89631575D01*
X104848597Y-89761505D01*
X104681505Y-89928597D01*
X104545965Y-90122169D01*
X104545964Y-90122171D01*
X104536882Y-90141649D01*
X104490709Y-90194088D01*
X104423516Y-90213240D01*
X104356635Y-90193024D01*
X104311300Y-90139859D01*
X104300500Y-90089244D01*
X104300500Y-88970755D01*
X104320185Y-88903716D01*
X104372989Y-88857961D01*
X104442147Y-88848017D01*
X104505703Y-88877042D01*
G37*
%TD.AperFunction*%
%TA.AperFunction,NonConductor*%
G36*
X138230858Y-90663070D02*
G01*
X138282058Y-90710613D01*
X138299500Y-90774027D01*
X138299500Y-91325971D01*
X138279815Y-91393010D01*
X138227011Y-91438765D01*
X138157853Y-91448709D01*
X138094297Y-91419684D01*
X138057794Y-91364976D01*
X138039718Y-91310427D01*
X138010908Y-91223484D01*
X138010904Y-91223478D01*
X138010903Y-91223475D01*
X137956198Y-91134785D01*
X137944053Y-91115096D01*
X137925613Y-91047705D01*
X137944054Y-90984903D01*
X137955658Y-90966091D01*
X138010908Y-90876516D01*
X138057794Y-90735021D01*
X138097567Y-90677578D01*
X138162083Y-90650755D01*
X138230858Y-90663070D01*
G37*
%TD.AperFunction*%
%TA.AperFunction,NonConductor*%
G36*
X129157928Y-88076663D02*
G01*
X129202276Y-88105165D01*
X129252381Y-88155271D01*
X129252384Y-88155274D01*
X129341226Y-88214636D01*
X129341225Y-88214636D01*
X129358928Y-88226464D01*
X129358929Y-88226464D01*
X129358930Y-88226465D01*
X129477313Y-88275501D01*
X129477317Y-88275501D01*
X129477318Y-88275502D01*
X129602985Y-88300500D01*
X129602988Y-88300500D01*
X133169988Y-88300500D01*
X133237027Y-88320185D01*
X133282782Y-88372989D01*
X133292726Y-88442147D01*
X133271805Y-88490532D01*
X133273889Y-88491842D01*
X133174211Y-88650476D01*
X133114631Y-88820745D01*
X133114630Y-88820750D01*
X133094435Y-88999996D01*
X133094435Y-89000003D01*
X133114630Y-89179249D01*
X133114631Y-89179254D01*
X133174211Y-89349523D01*
X133234295Y-89445145D01*
X133270184Y-89502262D01*
X133397738Y-89629816D01*
X133550478Y-89725789D01*
X133671633Y-89768183D01*
X133728409Y-89808905D01*
X133754157Y-89873858D01*
X133747721Y-89926179D01*
X133714632Y-90020742D01*
X133714630Y-90020750D01*
X133694435Y-90199996D01*
X133694435Y-90200003D01*
X133714630Y-90379249D01*
X133714631Y-90379254D01*
X133774211Y-90549523D01*
X133821248Y-90624381D01*
X133840248Y-90691617D01*
X133819880Y-90758453D01*
X133766613Y-90803667D01*
X133730138Y-90813573D01*
X133720749Y-90814630D01*
X133720745Y-90814631D01*
X133550476Y-90874211D01*
X133397737Y-90970184D01*
X133270184Y-91097737D01*
X133174211Y-91250476D01*
X133114631Y-91420745D01*
X133114630Y-91420750D01*
X133094435Y-91599996D01*
X133094435Y-91600003D01*
X133114630Y-91779249D01*
X133114631Y-91779254D01*
X133174211Y-91949523D01*
X133237646Y-92050478D01*
X133270184Y-92102262D01*
X133397738Y-92229816D01*
X133476410Y-92279249D01*
X133501487Y-92295006D01*
X133547778Y-92347341D01*
X133558426Y-92416395D01*
X133530051Y-92480243D01*
X133501487Y-92504994D01*
X133397739Y-92570183D01*
X133340143Y-92627779D01*
X133278819Y-92661263D01*
X133209128Y-92656278D01*
X133164781Y-92627778D01*
X128922221Y-88385218D01*
X128888736Y-88323895D01*
X128893720Y-88254203D01*
X128922219Y-88209858D01*
X129026915Y-88105162D01*
X129088236Y-88071679D01*
X129157928Y-88076663D01*
G37*
%TD.AperFunction*%
%TA.AperFunction,NonConductor*%
G36*
X104505703Y-91417042D02*
G01*
X104536880Y-91458349D01*
X104545965Y-91477830D01*
X104545966Y-91477831D01*
X104545967Y-91477834D01*
X104681501Y-91671395D01*
X104681506Y-91671402D01*
X104848597Y-91838493D01*
X104848603Y-91838498D01*
X105034158Y-91968425D01*
X105077783Y-92023002D01*
X105084977Y-92092500D01*
X105053454Y-92154855D01*
X105034158Y-92171575D01*
X104848597Y-92301505D01*
X104681505Y-92468597D01*
X104545965Y-92662169D01*
X104545964Y-92662171D01*
X104536882Y-92681649D01*
X104490709Y-92734088D01*
X104423516Y-92753240D01*
X104356635Y-92733024D01*
X104311300Y-92679859D01*
X104300500Y-92629244D01*
X104300500Y-91510755D01*
X104320185Y-91443716D01*
X104372989Y-91397961D01*
X104442147Y-91388017D01*
X104505703Y-91417042D01*
G37*
%TD.AperFunction*%
%TA.AperFunction,NonConductor*%
G36*
X134545318Y-92189268D02*
G01*
X134601253Y-92231138D01*
X134620987Y-92281655D01*
X134623410Y-92281137D01*
X134624825Y-92287752D01*
X134655147Y-92379255D01*
X134678431Y-92449522D01*
X134679092Y-92451515D01*
X134679093Y-92451518D01*
X134689629Y-92468599D01*
X134757881Y-92579254D01*
X134769661Y-92598351D01*
X134783629Y-92612319D01*
X134817114Y-92673642D01*
X134812130Y-92743334D01*
X134783625Y-92787685D01*
X134772408Y-92798901D01*
X134711084Y-92832383D01*
X134641392Y-92827396D01*
X134585461Y-92785522D01*
X134579746Y-92777201D01*
X134529816Y-92697738D01*
X134402262Y-92570184D01*
X134298510Y-92504992D01*
X134252221Y-92452659D01*
X134241573Y-92383606D01*
X134269948Y-92319757D01*
X134298509Y-92295007D01*
X134402262Y-92229816D01*
X134414308Y-92217769D01*
X134475626Y-92184286D01*
X134545318Y-92189268D01*
G37*
%TD.AperFunction*%
%TA.AperFunction,NonConductor*%
G36*
X128736339Y-90039812D02*
G01*
X128743780Y-90046669D01*
X132784930Y-94087819D01*
X132818415Y-94149142D01*
X132813431Y-94218834D01*
X132771559Y-94274767D01*
X132706095Y-94299184D01*
X132697249Y-94299500D01*
X132270808Y-94299500D01*
X132203769Y-94279815D01*
X132183127Y-94263181D01*
X128357144Y-90437198D01*
X128323659Y-90375875D01*
X128328643Y-90306183D01*
X128370515Y-90250250D01*
X128378833Y-90244536D01*
X128402262Y-90229816D01*
X128529816Y-90102262D01*
X128551107Y-90068377D01*
X128603437Y-90022088D01*
X128672490Y-90011438D01*
X128736339Y-90039812D01*
G37*
%TD.AperFunction*%
%TA.AperFunction,NonConductor*%
G36*
X104505703Y-93957042D02*
G01*
X104536880Y-93998349D01*
X104545965Y-94017830D01*
X104545966Y-94017831D01*
X104545967Y-94017834D01*
X104633271Y-94142516D01*
X104675008Y-94202123D01*
X104681501Y-94211395D01*
X104681506Y-94211402D01*
X104848597Y-94378493D01*
X104848603Y-94378498D01*
X105034158Y-94508425D01*
X105077783Y-94563002D01*
X105084977Y-94632500D01*
X105053454Y-94694855D01*
X105034158Y-94711575D01*
X104848597Y-94841505D01*
X104681505Y-95008597D01*
X104545965Y-95202169D01*
X104545964Y-95202171D01*
X104536882Y-95221649D01*
X104490709Y-95274088D01*
X104423516Y-95293240D01*
X104356635Y-95273024D01*
X104311300Y-95219859D01*
X104300500Y-95169244D01*
X104300500Y-94050755D01*
X104320185Y-93983716D01*
X104372989Y-93937961D01*
X104442147Y-93928017D01*
X104505703Y-93957042D01*
G37*
%TD.AperFunction*%
%TA.AperFunction,NonConductor*%
G36*
X104505703Y-96497042D02*
G01*
X104536880Y-96538349D01*
X104545965Y-96557830D01*
X104545966Y-96557831D01*
X104545967Y-96557834D01*
X104645511Y-96699996D01*
X104680857Y-96750476D01*
X104681501Y-96751395D01*
X104681506Y-96751402D01*
X104848597Y-96918493D01*
X104848603Y-96918498D01*
X105034158Y-97048425D01*
X105077783Y-97103002D01*
X105084977Y-97172500D01*
X105053454Y-97234855D01*
X105034158Y-97251575D01*
X104848597Y-97381505D01*
X104681505Y-97548597D01*
X104545965Y-97742169D01*
X104545964Y-97742171D01*
X104536882Y-97761649D01*
X104490709Y-97814088D01*
X104423516Y-97833240D01*
X104356635Y-97813024D01*
X104311300Y-97759859D01*
X104300500Y-97709244D01*
X104300500Y-96590755D01*
X104320185Y-96523716D01*
X104372989Y-96477961D01*
X104442147Y-96468017D01*
X104505703Y-96497042D01*
G37*
%TD.AperFunction*%
%TA.AperFunction,NonConductor*%
G36*
X104505703Y-99037042D02*
G01*
X104536880Y-99078349D01*
X104545965Y-99097830D01*
X104545966Y-99097831D01*
X104545967Y-99097834D01*
X104681501Y-99291395D01*
X104681506Y-99291402D01*
X104848597Y-99458493D01*
X104848603Y-99458498D01*
X105034158Y-99588425D01*
X105077783Y-99643002D01*
X105084977Y-99712500D01*
X105053454Y-99774855D01*
X105034158Y-99791575D01*
X104848597Y-99921505D01*
X104681505Y-100088597D01*
X104545965Y-100282169D01*
X104545964Y-100282171D01*
X104536882Y-100301649D01*
X104490709Y-100354088D01*
X104423516Y-100373240D01*
X104356635Y-100353024D01*
X104311300Y-100299859D01*
X104300500Y-100249244D01*
X104300500Y-99130755D01*
X104320185Y-99063716D01*
X104372989Y-99017961D01*
X104442147Y-99008017D01*
X104505703Y-99037042D01*
G37*
%TD.AperFunction*%
%TA.AperFunction,NonConductor*%
G36*
X104505703Y-101577042D02*
G01*
X104536880Y-101618349D01*
X104545965Y-101637830D01*
X104545966Y-101637831D01*
X104545967Y-101637834D01*
X104681501Y-101831395D01*
X104681506Y-101831402D01*
X104848597Y-101998493D01*
X104848603Y-101998498D01*
X105034158Y-102128425D01*
X105077783Y-102183002D01*
X105084977Y-102252500D01*
X105053454Y-102314855D01*
X105034158Y-102331575D01*
X104848597Y-102461505D01*
X104681505Y-102628597D01*
X104545965Y-102822169D01*
X104545964Y-102822171D01*
X104536882Y-102841649D01*
X104490709Y-102894088D01*
X104423516Y-102913240D01*
X104356635Y-102893024D01*
X104311300Y-102839859D01*
X104300500Y-102789244D01*
X104300500Y-101670755D01*
X104320185Y-101603716D01*
X104372989Y-101557961D01*
X104442147Y-101548017D01*
X104505703Y-101577042D01*
G37*
%TD.AperFunction*%
%TA.AperFunction,NonConductor*%
G36*
X104505703Y-104117042D02*
G01*
X104536880Y-104158349D01*
X104545965Y-104177830D01*
X104545966Y-104177831D01*
X104545967Y-104177834D01*
X104681501Y-104371395D01*
X104681506Y-104371402D01*
X104848597Y-104538493D01*
X104848603Y-104538498D01*
X105034158Y-104668425D01*
X105077783Y-104723002D01*
X105084977Y-104792500D01*
X105053454Y-104854855D01*
X105034158Y-104871575D01*
X104848597Y-105001505D01*
X104681505Y-105168597D01*
X104545965Y-105362169D01*
X104545964Y-105362171D01*
X104536882Y-105381649D01*
X104490709Y-105434088D01*
X104423516Y-105453240D01*
X104356635Y-105433024D01*
X104311300Y-105379859D01*
X104300500Y-105329244D01*
X104300500Y-104210755D01*
X104320185Y-104143716D01*
X104372989Y-104097961D01*
X104442147Y-104088017D01*
X104505703Y-104117042D01*
G37*
%TD.AperFunction*%
%TA.AperFunction,NonConductor*%
G36*
X122203805Y-87590185D02*
G01*
X122249560Y-87642989D01*
X122259504Y-87712147D01*
X122249148Y-87746903D01*
X122243456Y-87759110D01*
X122226097Y-87796335D01*
X122226094Y-87796344D01*
X122164938Y-88024586D01*
X122164936Y-88024596D01*
X122144341Y-88259999D01*
X122144341Y-88260000D01*
X122164936Y-88495403D01*
X122164938Y-88495413D01*
X122226094Y-88723655D01*
X122226096Y-88723659D01*
X122226097Y-88723663D01*
X122291457Y-88863828D01*
X122325965Y-88937830D01*
X122325967Y-88937834D01*
X122375832Y-89009048D01*
X122454324Y-89121146D01*
X122461501Y-89131395D01*
X122461506Y-89131402D01*
X122628597Y-89298493D01*
X122628603Y-89298498D01*
X122814158Y-89428425D01*
X122857783Y-89483002D01*
X122864977Y-89552500D01*
X122833454Y-89614855D01*
X122814158Y-89631575D01*
X122628597Y-89761505D01*
X122461505Y-89928597D01*
X122325965Y-90122169D01*
X122325964Y-90122171D01*
X122226098Y-90336335D01*
X122226094Y-90336344D01*
X122164938Y-90564586D01*
X122164936Y-90564596D01*
X122144341Y-90799999D01*
X122144341Y-90800000D01*
X122164936Y-91035403D01*
X122164938Y-91035413D01*
X122226094Y-91263655D01*
X122226099Y-91263669D01*
X122247903Y-91310427D01*
X122258395Y-91379504D01*
X122229875Y-91443288D01*
X122201498Y-91467821D01*
X122198712Y-91469571D01*
X122197736Y-91470185D01*
X122070184Y-91597737D01*
X121974211Y-91750476D01*
X121914631Y-91920745D01*
X121914630Y-91920750D01*
X121894435Y-92099996D01*
X121894435Y-92100003D01*
X121914630Y-92279249D01*
X121914631Y-92279254D01*
X121974211Y-92449523D01*
X122070184Y-92602262D01*
X122202279Y-92734357D01*
X122235764Y-92795680D01*
X122230780Y-92865372D01*
X122226982Y-92874438D01*
X122226100Y-92876329D01*
X122226094Y-92876344D01*
X122164938Y-93104586D01*
X122164936Y-93104596D01*
X122144341Y-93339999D01*
X122144341Y-93340000D01*
X122164936Y-93575403D01*
X122164938Y-93575413D01*
X122226095Y-93803660D01*
X122233752Y-93820079D01*
X122244244Y-93889156D01*
X122215724Y-93952940D01*
X122198691Y-93969423D01*
X122197742Y-93970179D01*
X122070184Y-94097737D01*
X121974211Y-94250476D01*
X121914631Y-94420745D01*
X121914630Y-94420750D01*
X121894435Y-94599996D01*
X121894435Y-94600003D01*
X121914630Y-94779249D01*
X121914631Y-94779254D01*
X121974211Y-94949523D01*
X122070184Y-95102262D01*
X122197739Y-95229817D01*
X122203188Y-95234163D01*
X122201698Y-95236030D01*
X122240572Y-95279981D01*
X122251218Y-95349035D01*
X122240691Y-95385038D01*
X122226098Y-95416334D01*
X122226094Y-95416344D01*
X122164938Y-95644586D01*
X122164936Y-95644596D01*
X122144341Y-95879999D01*
X122144341Y-95880000D01*
X122164936Y-96115403D01*
X122164938Y-96115413D01*
X122227498Y-96348893D01*
X122225781Y-96349353D01*
X122229699Y-96411146D01*
X122196432Y-96471490D01*
X122070183Y-96597739D01*
X121974211Y-96750476D01*
X121914631Y-96920745D01*
X121914630Y-96920750D01*
X121894435Y-97099996D01*
X121894435Y-97100003D01*
X121914630Y-97279249D01*
X121914631Y-97279254D01*
X121974211Y-97449523D01*
X122070184Y-97602262D01*
X122197737Y-97729815D01*
X122197740Y-97729817D01*
X122208706Y-97736708D01*
X122254997Y-97789043D01*
X122265644Y-97858097D01*
X122255116Y-97894104D01*
X122226098Y-97956335D01*
X122226094Y-97956344D01*
X122164938Y-98184586D01*
X122164936Y-98184596D01*
X122144341Y-98419999D01*
X122144341Y-98420000D01*
X122164936Y-98655403D01*
X122164938Y-98655413D01*
X122226094Y-98883655D01*
X122226096Y-98883661D01*
X122226097Y-98883663D01*
X122226098Y-98883665D01*
X122240690Y-98914959D01*
X122251181Y-98984037D01*
X122222660Y-99047820D01*
X122202631Y-99065139D01*
X122203188Y-99065837D01*
X122197739Y-99070182D01*
X122070184Y-99197737D01*
X121974211Y-99350476D01*
X121914631Y-99520745D01*
X121914630Y-99520750D01*
X121894435Y-99699996D01*
X121894435Y-99700003D01*
X121914630Y-99879249D01*
X121914631Y-99879254D01*
X121974211Y-100049523D01*
X122038683Y-100152129D01*
X122070184Y-100202262D01*
X122197738Y-100329816D01*
X122197741Y-100329818D01*
X122198689Y-100330574D01*
X122199143Y-100331221D01*
X122202662Y-100334740D01*
X122202045Y-100335356D01*
X122238825Y-100387766D01*
X122241670Y-100457577D01*
X122233753Y-100479916D01*
X122226100Y-100496329D01*
X122226094Y-100496344D01*
X122164938Y-100724586D01*
X122164936Y-100724596D01*
X122144341Y-100959999D01*
X122144341Y-100960000D01*
X122164936Y-101195403D01*
X122164938Y-101195413D01*
X122226094Y-101423655D01*
X122226099Y-101423669D01*
X122226979Y-101425555D01*
X122227117Y-101426464D01*
X122227947Y-101428744D01*
X122227488Y-101428910D01*
X122237472Y-101494632D01*
X122208953Y-101558416D01*
X122202280Y-101565642D01*
X122070183Y-101697739D01*
X121974211Y-101850476D01*
X121914631Y-102020745D01*
X121914630Y-102020750D01*
X121894435Y-102199996D01*
X121894435Y-102200003D01*
X121914630Y-102379249D01*
X121914631Y-102379254D01*
X121974211Y-102549523D01*
X122070184Y-102702262D01*
X122197737Y-102829815D01*
X122197742Y-102829819D01*
X122201496Y-102832178D01*
X122247785Y-102884514D01*
X122258431Y-102953568D01*
X122247903Y-102989572D01*
X122226098Y-103036334D01*
X122226094Y-103036344D01*
X122164938Y-103264586D01*
X122164936Y-103264596D01*
X122144341Y-103499999D01*
X122144341Y-103500000D01*
X122164936Y-103735403D01*
X122164938Y-103735413D01*
X122226094Y-103963655D01*
X122226099Y-103963669D01*
X122247903Y-104010427D01*
X122258395Y-104079504D01*
X122229875Y-104143288D01*
X122201498Y-104167821D01*
X122198712Y-104169571D01*
X122197736Y-104170185D01*
X122070184Y-104297737D01*
X121974211Y-104450476D01*
X121914631Y-104620745D01*
X121914630Y-104620750D01*
X121894435Y-104799996D01*
X121894435Y-104800003D01*
X121914630Y-104979249D01*
X121914631Y-104979254D01*
X121974211Y-105149523D01*
X122070184Y-105302262D01*
X122202279Y-105434357D01*
X122235764Y-105495680D01*
X122230780Y-105565372D01*
X122226982Y-105574438D01*
X122226100Y-105576329D01*
X122226094Y-105576344D01*
X122164938Y-105804586D01*
X122164936Y-105804596D01*
X122144341Y-106039999D01*
X122144341Y-106040000D01*
X122164936Y-106275403D01*
X122164938Y-106275413D01*
X122223349Y-106493407D01*
X122221686Y-106563257D01*
X122182523Y-106621119D01*
X122118295Y-106648623D01*
X122103574Y-106649500D01*
X107300808Y-106649500D01*
X107233769Y-106629815D01*
X107213127Y-106613181D01*
X107067709Y-106467763D01*
X107034224Y-106406440D01*
X107035615Y-106347989D01*
X107036545Y-106344517D01*
X107055063Y-106275408D01*
X107075659Y-106040000D01*
X107075153Y-106034222D01*
X107057928Y-105837342D01*
X107055063Y-105804592D01*
X106993903Y-105576337D01*
X106894035Y-105362171D01*
X106872407Y-105331282D01*
X106758494Y-105168597D01*
X106591402Y-105001506D01*
X106591396Y-105001501D01*
X106405842Y-104871575D01*
X106362217Y-104816998D01*
X106355023Y-104747500D01*
X106386546Y-104685145D01*
X106405842Y-104668425D01*
X106491969Y-104608118D01*
X106591401Y-104538495D01*
X106758495Y-104371401D01*
X106894035Y-104177830D01*
X106993903Y-103963663D01*
X107055063Y-103735408D01*
X107075659Y-103500000D01*
X107055063Y-103264592D01*
X106993903Y-103036337D01*
X106894035Y-102822171D01*
X106870980Y-102789244D01*
X106758494Y-102628597D01*
X106591402Y-102461506D01*
X106591396Y-102461501D01*
X106405842Y-102331575D01*
X106362217Y-102276998D01*
X106355023Y-102207500D01*
X106386546Y-102145145D01*
X106405842Y-102128425D01*
X106543191Y-102032252D01*
X106591401Y-101998495D01*
X106758495Y-101831401D01*
X106894035Y-101637830D01*
X106993903Y-101423663D01*
X107055063Y-101195408D01*
X107075659Y-100960000D01*
X107055063Y-100724592D01*
X106993903Y-100496337D01*
X106894035Y-100282171D01*
X106871844Y-100250478D01*
X106758494Y-100088597D01*
X106591402Y-99921506D01*
X106591396Y-99921501D01*
X106405842Y-99791575D01*
X106362217Y-99736998D01*
X106355023Y-99667500D01*
X106386546Y-99605145D01*
X106405842Y-99588425D01*
X106435752Y-99567482D01*
X106591401Y-99458495D01*
X106758495Y-99291401D01*
X106894035Y-99097830D01*
X106993903Y-98883663D01*
X107055063Y-98655408D01*
X107075659Y-98420000D01*
X107055063Y-98184592D01*
X106993903Y-97956337D01*
X106894035Y-97742171D01*
X106885384Y-97729815D01*
X106758494Y-97548597D01*
X106591402Y-97381506D01*
X106591396Y-97381501D01*
X106405842Y-97251575D01*
X106362217Y-97196998D01*
X106355023Y-97127500D01*
X106386546Y-97065145D01*
X106405842Y-97048425D01*
X106428026Y-97032891D01*
X106591401Y-96918495D01*
X106758495Y-96751401D01*
X106894035Y-96557830D01*
X106993903Y-96343663D01*
X107055063Y-96115408D01*
X107075659Y-95880000D01*
X107055063Y-95644592D01*
X106993903Y-95416337D01*
X106894035Y-95202171D01*
X106870980Y-95169244D01*
X106758494Y-95008597D01*
X106591402Y-94841506D01*
X106591396Y-94841501D01*
X106405842Y-94711575D01*
X106362217Y-94656998D01*
X106355023Y-94587500D01*
X106386546Y-94525145D01*
X106405842Y-94508425D01*
X106428026Y-94492891D01*
X106591401Y-94378495D01*
X106758495Y-94211401D01*
X106894035Y-94017830D01*
X106993903Y-93803663D01*
X107055063Y-93575408D01*
X107075659Y-93340000D01*
X107055063Y-93104592D01*
X107002483Y-92908357D01*
X106993905Y-92876344D01*
X106993904Y-92876343D01*
X106993903Y-92876337D01*
X106894035Y-92662171D01*
X106893400Y-92661263D01*
X106758494Y-92468597D01*
X106591402Y-92301506D01*
X106591396Y-92301501D01*
X106405842Y-92171575D01*
X106362217Y-92116998D01*
X106355023Y-92047500D01*
X106386546Y-91985145D01*
X106405842Y-91968425D01*
X106506793Y-91897738D01*
X106591401Y-91838495D01*
X106758495Y-91671401D01*
X106894035Y-91477830D01*
X106993903Y-91263663D01*
X107055063Y-91035408D01*
X107075659Y-90800000D01*
X107055063Y-90564592D01*
X106993903Y-90336337D01*
X106894035Y-90122171D01*
X106880096Y-90102263D01*
X106758494Y-89928597D01*
X106591402Y-89761506D01*
X106591396Y-89761501D01*
X106405842Y-89631575D01*
X106362217Y-89576998D01*
X106355023Y-89507500D01*
X106386546Y-89445145D01*
X106405842Y-89428425D01*
X106498293Y-89363690D01*
X106591401Y-89298495D01*
X106758495Y-89131401D01*
X106894035Y-88937830D01*
X106993903Y-88723663D01*
X107055063Y-88495408D01*
X107075659Y-88260000D01*
X107055063Y-88024592D01*
X106993903Y-87796337D01*
X106970851Y-87746904D01*
X106960360Y-87677828D01*
X106988879Y-87614044D01*
X107047356Y-87575804D01*
X107083234Y-87570500D01*
X122136766Y-87570500D01*
X122203805Y-87590185D01*
G37*
%TD.AperFunction*%
%TA.AperFunction,NonConductor*%
G36*
X143996799Y-106149947D02*
G01*
X144052733Y-106191818D01*
X144077150Y-106257283D01*
X144076687Y-106280009D01*
X144074435Y-106300000D01*
X144074435Y-106300003D01*
X144094630Y-106479249D01*
X144094633Y-106479262D01*
X144131474Y-106584545D01*
X144135036Y-106654324D01*
X144100308Y-106714951D01*
X144038314Y-106747179D01*
X144014433Y-106749500D01*
X143594096Y-106749500D01*
X143527057Y-106729815D01*
X143481302Y-106677011D01*
X143471358Y-106607853D01*
X143500383Y-106544297D01*
X143506415Y-106537819D01*
X143659783Y-106384451D01*
X143865787Y-106178446D01*
X143927108Y-106144963D01*
X143996799Y-106149947D01*
G37*
%TD.AperFunction*%
%TA.AperFunction,NonConductor*%
G36*
X138537682Y-101253089D02*
G01*
X138549261Y-101266452D01*
X138617454Y-101357546D01*
X138722428Y-101436129D01*
X138764298Y-101492062D01*
X138769282Y-101561754D01*
X138765158Y-101576350D01*
X138714631Y-101720745D01*
X138714630Y-101720750D01*
X138694435Y-101899996D01*
X138694435Y-101900003D01*
X138714630Y-102079249D01*
X138714631Y-102079254D01*
X138774211Y-102249523D01*
X138852558Y-102374211D01*
X138870184Y-102402262D01*
X138997738Y-102529816D01*
X139088080Y-102586582D01*
X139149750Y-102625332D01*
X139150478Y-102625789D01*
X139308351Y-102681031D01*
X139320745Y-102685368D01*
X139320750Y-102685369D01*
X139499996Y-102705565D01*
X139500000Y-102705565D01*
X139500004Y-102705565D01*
X139679249Y-102685369D01*
X139679251Y-102685368D01*
X139679255Y-102685368D01*
X139679258Y-102685366D01*
X139679262Y-102685366D01*
X139856095Y-102623489D01*
X139856846Y-102625637D01*
X139915128Y-102616035D01*
X139943588Y-102624392D01*
X139943905Y-102623489D01*
X140120737Y-102685366D01*
X140120743Y-102685367D01*
X140120745Y-102685368D01*
X140120746Y-102685368D01*
X140120750Y-102685369D01*
X140299996Y-102705565D01*
X140300000Y-102705565D01*
X140300004Y-102705565D01*
X140479249Y-102685369D01*
X140479251Y-102685368D01*
X140479255Y-102685368D01*
X140479258Y-102685366D01*
X140479262Y-102685366D01*
X140656095Y-102623489D01*
X140656846Y-102625637D01*
X140715128Y-102616035D01*
X140743588Y-102624392D01*
X140743905Y-102623489D01*
X140920737Y-102685366D01*
X140920743Y-102685367D01*
X140920745Y-102685368D01*
X140920746Y-102685368D01*
X140920750Y-102685369D01*
X141099996Y-102705565D01*
X141100000Y-102705565D01*
X141100004Y-102705565D01*
X141279249Y-102685369D01*
X141279252Y-102685368D01*
X141279255Y-102685368D01*
X141279256Y-102685367D01*
X141279259Y-102685367D01*
X141322703Y-102670164D01*
X141434547Y-102631028D01*
X141504323Y-102627466D01*
X141564951Y-102662195D01*
X141597178Y-102724188D01*
X141599500Y-102748070D01*
X141599500Y-102879902D01*
X141579815Y-102946941D01*
X141563181Y-102967583D01*
X139219481Y-105311282D01*
X139219480Y-105311284D01*
X139174775Y-105388716D01*
X139163324Y-105408549D01*
X139140423Y-105448213D01*
X139098504Y-105604657D01*
X139062138Y-105664317D01*
X138999291Y-105694846D01*
X138929916Y-105686551D01*
X138908317Y-105673635D01*
X138908158Y-105673889D01*
X138892924Y-105664317D01*
X138841975Y-105632303D01*
X138749523Y-105574211D01*
X138579254Y-105514631D01*
X138579249Y-105514630D01*
X138400004Y-105494435D01*
X138399996Y-105494435D01*
X138220750Y-105514630D01*
X138220745Y-105514631D01*
X138050476Y-105574211D01*
X137897737Y-105670184D01*
X137770184Y-105797737D01*
X137674210Y-105950478D01*
X137614630Y-106120750D01*
X137604837Y-106207668D01*
X137577770Y-106272082D01*
X137569298Y-106281465D01*
X137137584Y-106713181D01*
X137076261Y-106746666D01*
X137049903Y-106749500D01*
X136665567Y-106749500D01*
X136598528Y-106729815D01*
X136552773Y-106677011D01*
X136542829Y-106607853D01*
X136548526Y-106584545D01*
X136585366Y-106479262D01*
X136585369Y-106479249D01*
X136605565Y-106300003D01*
X136605565Y-106299996D01*
X136585369Y-106120750D01*
X136585368Y-106120745D01*
X136571136Y-106080072D01*
X136525789Y-105950478D01*
X136521181Y-105943145D01*
X136484093Y-105884119D01*
X136429816Y-105797738D01*
X136429814Y-105797736D01*
X136429813Y-105797734D01*
X136427550Y-105794896D01*
X136426659Y-105792715D01*
X136426111Y-105791842D01*
X136426264Y-105791745D01*
X136401144Y-105730209D01*
X136400500Y-105717587D01*
X136400500Y-105117700D01*
X136400501Y-105117687D01*
X136400501Y-104949584D01*
X136359576Y-104796854D01*
X136359573Y-104796849D01*
X136280524Y-104659930D01*
X136280518Y-104659922D01*
X135336819Y-103716223D01*
X135303334Y-103654900D01*
X135300500Y-103628542D01*
X135300500Y-102748070D01*
X135320185Y-102681031D01*
X135372989Y-102635276D01*
X135442147Y-102625332D01*
X135465455Y-102631029D01*
X135620740Y-102685366D01*
X135620746Y-102685367D01*
X135620748Y-102685368D01*
X135620749Y-102685368D01*
X135620753Y-102685369D01*
X135799999Y-102705565D01*
X135800003Y-102705565D01*
X135800007Y-102705565D01*
X135979252Y-102685369D01*
X135979254Y-102685368D01*
X135979258Y-102685368D01*
X135979261Y-102685366D01*
X135979265Y-102685366D01*
X136156098Y-102623489D01*
X136156849Y-102625637D01*
X136215131Y-102616035D01*
X136243595Y-102624391D01*
X136243911Y-102623489D01*
X136420751Y-102685368D01*
X136420756Y-102685369D01*
X136600002Y-102705565D01*
X136600006Y-102705565D01*
X136600010Y-102705565D01*
X136779255Y-102685369D01*
X136779257Y-102685368D01*
X136779261Y-102685368D01*
X136779264Y-102685366D01*
X136779268Y-102685366D01*
X136956101Y-102623489D01*
X136956852Y-102625637D01*
X137015134Y-102616035D01*
X137043598Y-102624391D01*
X137043914Y-102623489D01*
X137220754Y-102685368D01*
X137220759Y-102685369D01*
X137400005Y-102705565D01*
X137400009Y-102705565D01*
X137400013Y-102705565D01*
X137579258Y-102685369D01*
X137579261Y-102685368D01*
X137579264Y-102685368D01*
X137749531Y-102625789D01*
X137902271Y-102529816D01*
X138029825Y-102402262D01*
X138125798Y-102249522D01*
X138185377Y-102079255D01*
X138191969Y-102020750D01*
X138205574Y-101900003D01*
X138205574Y-101899996D01*
X138185378Y-101720750D01*
X138185375Y-101720737D01*
X138134850Y-101576345D01*
X138131288Y-101506566D01*
X138166016Y-101445939D01*
X138177574Y-101436128D01*
X138282546Y-101357546D01*
X138350734Y-101266457D01*
X138406667Y-101224588D01*
X138476359Y-101219604D01*
X138537682Y-101253089D01*
G37*
%TD.AperFunction*%
%TA.AperFunction,NonConductor*%
G36*
X134920066Y-106246680D02*
G01*
X134976000Y-106288551D01*
X134999953Y-106348979D01*
X135014630Y-106479249D01*
X135014633Y-106479262D01*
X135051474Y-106584545D01*
X135055036Y-106654324D01*
X135020308Y-106714951D01*
X134958314Y-106747179D01*
X134934433Y-106749500D01*
X134614096Y-106749500D01*
X134547057Y-106729815D01*
X134501302Y-106677011D01*
X134491358Y-106607853D01*
X134520383Y-106544297D01*
X134526415Y-106537819D01*
X134647094Y-106417140D01*
X134789054Y-106275179D01*
X134850375Y-106241696D01*
X134920066Y-106246680D01*
G37*
%TD.AperFunction*%
%TA.AperFunction,NonConductor*%
G36*
X125332694Y-104987092D02*
G01*
X125383097Y-105035479D01*
X125399500Y-105097114D01*
X125399500Y-105624690D01*
X125399499Y-105624708D01*
X125399499Y-105790414D01*
X125399498Y-105790414D01*
X125412073Y-105837342D01*
X125440423Y-105943145D01*
X125444652Y-105950469D01*
X125444654Y-105950479D01*
X125444657Y-105950478D01*
X125519477Y-106080072D01*
X125519479Y-106080075D01*
X125519480Y-106080076D01*
X125631284Y-106191880D01*
X125631285Y-106191881D01*
X126219924Y-106780520D01*
X126219926Y-106780521D01*
X126219930Y-106780524D01*
X126270765Y-106809873D01*
X126356856Y-106859577D01*
X126509583Y-106900501D01*
X126517589Y-106900501D01*
X126584628Y-106920186D01*
X126594891Y-106927545D01*
X126596144Y-106928544D01*
X126636291Y-106985728D01*
X126639148Y-107055539D01*
X126603810Y-107115813D01*
X126541495Y-107147413D01*
X126518842Y-107149500D01*
X126202130Y-107149500D01*
X126202123Y-107149501D01*
X126142513Y-107155909D01*
X126132966Y-107159470D01*
X126063275Y-107164452D01*
X126001953Y-107130965D01*
X125972595Y-107084242D01*
X125955754Y-107036114D01*
X125925789Y-106950478D01*
X125901231Y-106911395D01*
X125868671Y-106859576D01*
X125829816Y-106797738D01*
X125702262Y-106670184D01*
X125667948Y-106648623D01*
X125549523Y-106574211D01*
X125379254Y-106514631D01*
X125379249Y-106514630D01*
X125200004Y-106494435D01*
X125199996Y-106494435D01*
X125020750Y-106514630D01*
X125020738Y-106514633D01*
X124966573Y-106533586D01*
X124896794Y-106537147D01*
X124836167Y-106502417D01*
X124803941Y-106440423D01*
X124805845Y-106384451D01*
X124835063Y-106275408D01*
X124855659Y-106040000D01*
X124855153Y-106034222D01*
X124837928Y-105837342D01*
X124835063Y-105804592D01*
X124782483Y-105608357D01*
X124784146Y-105538507D01*
X124823309Y-105480645D01*
X124836270Y-105471281D01*
X124902262Y-105429816D01*
X125029816Y-105302262D01*
X125125789Y-105149522D01*
X125158458Y-105056160D01*
X125199180Y-104999383D01*
X125264133Y-104973636D01*
X125332694Y-104987092D01*
G37*
%TD.AperFunction*%
%TA.AperFunction,NonConductor*%
G36*
X148742539Y-72120185D02*
G01*
X148788294Y-72172989D01*
X148799500Y-72224500D01*
X148799500Y-76851928D01*
X148779815Y-76918967D01*
X148727011Y-76964722D01*
X148657853Y-76974666D01*
X148634546Y-76968970D01*
X148479257Y-76914632D01*
X148479249Y-76914630D01*
X148300004Y-76894435D01*
X148299996Y-76894435D01*
X148120750Y-76914630D01*
X148120745Y-76914631D01*
X147950476Y-76974211D01*
X147797737Y-77070184D01*
X147670184Y-77197737D01*
X147574211Y-77350476D01*
X147514631Y-77520745D01*
X147514630Y-77520750D01*
X147494435Y-77699996D01*
X147494435Y-77700003D01*
X147514630Y-77879249D01*
X147514631Y-77879254D01*
X147574211Y-78049523D01*
X147605928Y-78100000D01*
X147670184Y-78202262D01*
X147797738Y-78329816D01*
X147806630Y-78335403D01*
X147946322Y-78423178D01*
X147950478Y-78425789D01*
X148088860Y-78474211D01*
X148120745Y-78485368D01*
X148120750Y-78485369D01*
X148299996Y-78505565D01*
X148300000Y-78505565D01*
X148300004Y-78505565D01*
X148479249Y-78485369D01*
X148479251Y-78485368D01*
X148479255Y-78485368D01*
X148479258Y-78485366D01*
X148479262Y-78485366D01*
X148634545Y-78431030D01*
X148704324Y-78427468D01*
X148764951Y-78462196D01*
X148797179Y-78524190D01*
X148799500Y-78548071D01*
X148799500Y-107722327D01*
X148779815Y-107789366D01*
X148727011Y-107835121D01*
X148657853Y-107845065D01*
X148594297Y-107816040D01*
X148573925Y-107793450D01*
X148458494Y-107628597D01*
X148291402Y-107461506D01*
X148291395Y-107461501D01*
X148097834Y-107325967D01*
X148097830Y-107325965D01*
X148097828Y-107325964D01*
X147883663Y-107226097D01*
X147883659Y-107226096D01*
X147883655Y-107226094D01*
X147655413Y-107164938D01*
X147655403Y-107164936D01*
X147420001Y-107144341D01*
X147419999Y-107144341D01*
X147184596Y-107164936D01*
X147184586Y-107164938D01*
X146956344Y-107226094D01*
X146956337Y-107226096D01*
X146956337Y-107226097D01*
X146946039Y-107230899D01*
X146742171Y-107325964D01*
X146742169Y-107325965D01*
X146548597Y-107461505D01*
X146381508Y-107628594D01*
X146251574Y-107814159D01*
X146196997Y-107857784D01*
X146127498Y-107864976D01*
X146065144Y-107833454D01*
X146048424Y-107814158D01*
X145979055Y-107715088D01*
X145956728Y-107648882D01*
X145973738Y-107581115D01*
X145992945Y-107556288D01*
X146418535Y-107130698D01*
X146479856Y-107097215D01*
X146492311Y-107095163D01*
X146579255Y-107085368D01*
X146749522Y-107025789D01*
X146902262Y-106929816D01*
X147029816Y-106802262D01*
X147125789Y-106649522D01*
X147185368Y-106479255D01*
X147185369Y-106479249D01*
X147205565Y-106300003D01*
X147205565Y-106299996D01*
X147185369Y-106120750D01*
X147185368Y-106120745D01*
X147171136Y-106080072D01*
X147125789Y-105950478D01*
X147121181Y-105943145D01*
X147084093Y-105884119D01*
X147029816Y-105797738D01*
X146902262Y-105670184D01*
X146841975Y-105632303D01*
X146749523Y-105574211D01*
X146579254Y-105514631D01*
X146579249Y-105514630D01*
X146400004Y-105494435D01*
X146399996Y-105494435D01*
X146220750Y-105514630D01*
X146220745Y-105514631D01*
X146050476Y-105574211D01*
X145897737Y-105670184D01*
X145770184Y-105797737D01*
X145770182Y-105797740D01*
X145744993Y-105837828D01*
X145692658Y-105884119D01*
X145623604Y-105894766D01*
X145559756Y-105866390D01*
X145535007Y-105837828D01*
X145514125Y-105804596D01*
X145509816Y-105797738D01*
X145509815Y-105797737D01*
X145507550Y-105794896D01*
X145506659Y-105792713D01*
X145506112Y-105791843D01*
X145506264Y-105791747D01*
X145481144Y-105730209D01*
X145480500Y-105717587D01*
X145480500Y-105009585D01*
X145480500Y-105009583D01*
X145439577Y-104856856D01*
X145406753Y-104800003D01*
X145360524Y-104719930D01*
X145360521Y-104719926D01*
X145360520Y-104719924D01*
X145248716Y-104608120D01*
X145248715Y-104608119D01*
X145244385Y-104603789D01*
X145244374Y-104603779D01*
X144336819Y-103696224D01*
X144303334Y-103634901D01*
X144300500Y-103608543D01*
X144300500Y-102748070D01*
X144320185Y-102681031D01*
X144372989Y-102635276D01*
X144442147Y-102625332D01*
X144465446Y-102631026D01*
X144554520Y-102662195D01*
X144620740Y-102685367D01*
X144620750Y-102685369D01*
X144799996Y-102705565D01*
X144800000Y-102705565D01*
X144800004Y-102705565D01*
X144979249Y-102685369D01*
X144979251Y-102685368D01*
X144979255Y-102685368D01*
X144979258Y-102685366D01*
X144979262Y-102685366D01*
X145156095Y-102623489D01*
X145156846Y-102625637D01*
X145215128Y-102616035D01*
X145243588Y-102624392D01*
X145243905Y-102623489D01*
X145420737Y-102685366D01*
X145420743Y-102685367D01*
X145420745Y-102685368D01*
X145420746Y-102685368D01*
X145420750Y-102685369D01*
X145599996Y-102705565D01*
X145600000Y-102705565D01*
X145600004Y-102705565D01*
X145779249Y-102685369D01*
X145779251Y-102685368D01*
X145779255Y-102685368D01*
X145779258Y-102685366D01*
X145779262Y-102685366D01*
X145956095Y-102623489D01*
X145956846Y-102625637D01*
X146015128Y-102616035D01*
X146043588Y-102624392D01*
X146043905Y-102623489D01*
X146220737Y-102685366D01*
X146220743Y-102685367D01*
X146220745Y-102685368D01*
X146220746Y-102685368D01*
X146220750Y-102685369D01*
X146399996Y-102705565D01*
X146400000Y-102705565D01*
X146400004Y-102705565D01*
X146579249Y-102685369D01*
X146579252Y-102685368D01*
X146579255Y-102685368D01*
X146749522Y-102625789D01*
X146902262Y-102529816D01*
X147029816Y-102402262D01*
X147125789Y-102249522D01*
X147185368Y-102079255D01*
X147191960Y-102020750D01*
X147205565Y-101900003D01*
X147205565Y-101899996D01*
X147185369Y-101720750D01*
X147185368Y-101720745D01*
X147134842Y-101576350D01*
X147131281Y-101506571D01*
X147166010Y-101445943D01*
X147177564Y-101436135D01*
X147282546Y-101357546D01*
X147368796Y-101242331D01*
X147419091Y-101107483D01*
X147425500Y-101047873D01*
X147425499Y-100152128D01*
X147419091Y-100092517D01*
X147407405Y-100061186D01*
X147368797Y-99957671D01*
X147368796Y-99957669D01*
X147341724Y-99921506D01*
X147328851Y-99904310D01*
X147304435Y-99838847D01*
X147319286Y-99770574D01*
X147328852Y-99755689D01*
X147361183Y-99712500D01*
X147368796Y-99702331D01*
X147419091Y-99567483D01*
X147425500Y-99507873D01*
X147425499Y-98612128D01*
X147419091Y-98552517D01*
X147377272Y-98440395D01*
X147368797Y-98417671D01*
X147368793Y-98417664D01*
X147282547Y-98302455D01*
X147282544Y-98302452D01*
X147167335Y-98216206D01*
X147167328Y-98216202D01*
X147032482Y-98165908D01*
X147032483Y-98165908D01*
X146972883Y-98159501D01*
X146972881Y-98159500D01*
X146972873Y-98159500D01*
X146972864Y-98159500D01*
X146127129Y-98159500D01*
X146127123Y-98159501D01*
X146067516Y-98165908D01*
X146061011Y-98167446D01*
X146003989Y-98167446D01*
X145997481Y-98165908D01*
X145937882Y-98159501D01*
X145937873Y-98159500D01*
X145937863Y-98159500D01*
X145262129Y-98159500D01*
X145262118Y-98159501D01*
X145213248Y-98164754D01*
X145186744Y-98164754D01*
X145170036Y-98162958D01*
X145137873Y-98159500D01*
X145137866Y-98159500D01*
X144462129Y-98159500D01*
X144462123Y-98159501D01*
X144402516Y-98165908D01*
X144396011Y-98167446D01*
X144338989Y-98167446D01*
X144332481Y-98165908D01*
X144272883Y-98159501D01*
X144272881Y-98159500D01*
X144272873Y-98159500D01*
X144272864Y-98159500D01*
X143427129Y-98159500D01*
X143427123Y-98159501D01*
X143367516Y-98165908D01*
X143232671Y-98216202D01*
X143232664Y-98216206D01*
X143117455Y-98302452D01*
X143117452Y-98302455D01*
X143049266Y-98393540D01*
X142993332Y-98435411D01*
X142923641Y-98440395D01*
X142862318Y-98406909D01*
X142850734Y-98393540D01*
X142782547Y-98302455D01*
X142782544Y-98302452D01*
X142667335Y-98216206D01*
X142667328Y-98216202D01*
X142532482Y-98165908D01*
X142532483Y-98165908D01*
X142472883Y-98159501D01*
X142472881Y-98159500D01*
X142472873Y-98159500D01*
X142472864Y-98159500D01*
X141627129Y-98159500D01*
X141627123Y-98159501D01*
X141567516Y-98165908D01*
X141561011Y-98167446D01*
X141503989Y-98167446D01*
X141497481Y-98165908D01*
X141437882Y-98159501D01*
X141437873Y-98159500D01*
X141437863Y-98159500D01*
X140762129Y-98159500D01*
X140762118Y-98159501D01*
X140713248Y-98164754D01*
X140686744Y-98164754D01*
X140670036Y-98162958D01*
X140637873Y-98159500D01*
X140637866Y-98159500D01*
X139962129Y-98159500D01*
X139962123Y-98159501D01*
X139902516Y-98165908D01*
X139896011Y-98167446D01*
X139838989Y-98167446D01*
X139832481Y-98165908D01*
X139772883Y-98159501D01*
X139772881Y-98159500D01*
X139772873Y-98159500D01*
X139772864Y-98159500D01*
X138927129Y-98159500D01*
X138927123Y-98159501D01*
X138867516Y-98165908D01*
X138732671Y-98216202D01*
X138732664Y-98216206D01*
X138617455Y-98302452D01*
X138617452Y-98302455D01*
X138549266Y-98393540D01*
X138493332Y-98435411D01*
X138423641Y-98440395D01*
X138362318Y-98406909D01*
X138350734Y-98393540D01*
X138282547Y-98302455D01*
X138282544Y-98302452D01*
X138167335Y-98216206D01*
X138167328Y-98216202D01*
X138032482Y-98165908D01*
X138032483Y-98165908D01*
X137972883Y-98159501D01*
X137972881Y-98159500D01*
X137972873Y-98159500D01*
X137972864Y-98159500D01*
X137127129Y-98159500D01*
X137127123Y-98159501D01*
X137067516Y-98165908D01*
X137061011Y-98167446D01*
X137003989Y-98167446D01*
X136997481Y-98165908D01*
X136937882Y-98159501D01*
X136937873Y-98159500D01*
X136937863Y-98159500D01*
X136262129Y-98159500D01*
X136262118Y-98159501D01*
X136213248Y-98164754D01*
X136186744Y-98164754D01*
X136170036Y-98162958D01*
X136137873Y-98159500D01*
X136137866Y-98159500D01*
X135462129Y-98159500D01*
X135462123Y-98159501D01*
X135402516Y-98165908D01*
X135396011Y-98167446D01*
X135338989Y-98167446D01*
X135332481Y-98165908D01*
X135272883Y-98159501D01*
X135272881Y-98159500D01*
X135272873Y-98159500D01*
X135272864Y-98159500D01*
X134427129Y-98159500D01*
X134427123Y-98159501D01*
X134367516Y-98165908D01*
X134232671Y-98216202D01*
X134232664Y-98216206D01*
X134117455Y-98302452D01*
X134117452Y-98302455D01*
X134049266Y-98393540D01*
X133993332Y-98435411D01*
X133923641Y-98440395D01*
X133862318Y-98406909D01*
X133850734Y-98393540D01*
X133782547Y-98302455D01*
X133782544Y-98302452D01*
X133667335Y-98216206D01*
X133667328Y-98216202D01*
X133532482Y-98165908D01*
X133532483Y-98165908D01*
X133472883Y-98159501D01*
X133472881Y-98159500D01*
X133472873Y-98159500D01*
X133472864Y-98159500D01*
X132627129Y-98159500D01*
X132627123Y-98159501D01*
X132567516Y-98165908D01*
X132561011Y-98167446D01*
X132503989Y-98167446D01*
X132497481Y-98165908D01*
X132437882Y-98159501D01*
X132437873Y-98159500D01*
X132437863Y-98159500D01*
X131762129Y-98159500D01*
X131762118Y-98159501D01*
X131713248Y-98164754D01*
X131686744Y-98164754D01*
X131670036Y-98162958D01*
X131637873Y-98159500D01*
X131637866Y-98159500D01*
X130962129Y-98159500D01*
X130962123Y-98159501D01*
X130902516Y-98165908D01*
X130896011Y-98167446D01*
X130838989Y-98167446D01*
X130832481Y-98165908D01*
X130772883Y-98159501D01*
X130772881Y-98159500D01*
X130772873Y-98159500D01*
X130772864Y-98159500D01*
X129927129Y-98159500D01*
X129927123Y-98159501D01*
X129867516Y-98165908D01*
X129732671Y-98216202D01*
X129732664Y-98216206D01*
X129617455Y-98302452D01*
X129617452Y-98302455D01*
X129531206Y-98417664D01*
X129531202Y-98417671D01*
X129480908Y-98552517D01*
X129474501Y-98612116D01*
X129474501Y-98612123D01*
X129474500Y-98612135D01*
X129474500Y-99507870D01*
X129474501Y-99507876D01*
X129480908Y-99567483D01*
X129531202Y-99702328D01*
X129531203Y-99702330D01*
X129571148Y-99755689D01*
X129595565Y-99821153D01*
X129580714Y-99889426D01*
X129571148Y-99904311D01*
X129531203Y-99957669D01*
X129531202Y-99957671D01*
X129480908Y-100092517D01*
X129474501Y-100152116D01*
X129474501Y-100152123D01*
X129474500Y-100152135D01*
X129474500Y-101047870D01*
X129474501Y-101047876D01*
X129480908Y-101107483D01*
X129531202Y-101242328D01*
X129531206Y-101242335D01*
X129593680Y-101325788D01*
X129617454Y-101357546D01*
X129722425Y-101436127D01*
X129764295Y-101492060D01*
X129769279Y-101561752D01*
X129765155Y-101576347D01*
X129714629Y-101720742D01*
X129714627Y-101720750D01*
X129694432Y-101899996D01*
X129694432Y-101900003D01*
X129714627Y-102079249D01*
X129714628Y-102079254D01*
X129774208Y-102249523D01*
X129852555Y-102374211D01*
X129870181Y-102402262D01*
X129997735Y-102529816D01*
X130088077Y-102586582D01*
X130149747Y-102625332D01*
X130150475Y-102625789D01*
X130308348Y-102681031D01*
X130320742Y-102685368D01*
X130320747Y-102685369D01*
X130499993Y-102705565D01*
X130499997Y-102705565D01*
X130500001Y-102705565D01*
X130679246Y-102685369D01*
X130679248Y-102685368D01*
X130679252Y-102685368D01*
X130679255Y-102685366D01*
X130679259Y-102685366D01*
X130856092Y-102623489D01*
X130856843Y-102625637D01*
X130915125Y-102616035D01*
X130943589Y-102624391D01*
X130943905Y-102623489D01*
X131120745Y-102685368D01*
X131120750Y-102685369D01*
X131299996Y-102705565D01*
X131300000Y-102705565D01*
X131300004Y-102705565D01*
X131479249Y-102685369D01*
X131479251Y-102685368D01*
X131479255Y-102685368D01*
X131479258Y-102685366D01*
X131479262Y-102685366D01*
X131656095Y-102623489D01*
X131656846Y-102625637D01*
X131715128Y-102616035D01*
X131743588Y-102624392D01*
X131743905Y-102623489D01*
X131920737Y-102685366D01*
X131920743Y-102685367D01*
X131920745Y-102685368D01*
X131920746Y-102685368D01*
X131920750Y-102685369D01*
X132099996Y-102705565D01*
X132100000Y-102705565D01*
X132100004Y-102705565D01*
X132279249Y-102685369D01*
X132279252Y-102685368D01*
X132279255Y-102685368D01*
X132279256Y-102685367D01*
X132279259Y-102685367D01*
X132322703Y-102670164D01*
X132434547Y-102631028D01*
X132504323Y-102627466D01*
X132564951Y-102662195D01*
X132597178Y-102724188D01*
X132599500Y-102748070D01*
X132599500Y-102899902D01*
X132579815Y-102966941D01*
X132563181Y-102987583D01*
X130219481Y-105331282D01*
X130219479Y-105331284D01*
X130196173Y-105371652D01*
X130186322Y-105388716D01*
X130140423Y-105468215D01*
X130099499Y-105620943D01*
X130099499Y-105620945D01*
X130099499Y-105789046D01*
X130099500Y-105789059D01*
X130099500Y-106461859D01*
X130099499Y-106461877D01*
X130099499Y-106627583D01*
X130099498Y-106627583D01*
X130140423Y-106780314D01*
X130148743Y-106794724D01*
X130148744Y-106794726D01*
X130219477Y-106917241D01*
X130219481Y-106917246D01*
X130338349Y-107036114D01*
X130338355Y-107036119D01*
X130402120Y-107099884D01*
X130435605Y-107161207D01*
X130430621Y-107230899D01*
X130388749Y-107286832D01*
X130323285Y-107311249D01*
X130262034Y-107299947D01*
X130103663Y-107226097D01*
X130103659Y-107226096D01*
X130103655Y-107226094D01*
X129875413Y-107164938D01*
X129875403Y-107164936D01*
X129640001Y-107144341D01*
X129639999Y-107144341D01*
X129404596Y-107164936D01*
X129404586Y-107164938D01*
X129176344Y-107226094D01*
X129176337Y-107226096D01*
X129176337Y-107226097D01*
X129166039Y-107230899D01*
X128962171Y-107325964D01*
X128962169Y-107325965D01*
X128768600Y-107461503D01*
X128646673Y-107583430D01*
X128585350Y-107616914D01*
X128515658Y-107611930D01*
X128459725Y-107570058D01*
X128442810Y-107539081D01*
X128393797Y-107407671D01*
X128393793Y-107407664D01*
X128307547Y-107292455D01*
X128307544Y-107292452D01*
X128192335Y-107206206D01*
X128192328Y-107206202D01*
X128057482Y-107155908D01*
X128057483Y-107155908D01*
X127997883Y-107149501D01*
X127997881Y-107149500D01*
X127997873Y-107149500D01*
X127997865Y-107149500D01*
X127681157Y-107149500D01*
X127614118Y-107129815D01*
X127568363Y-107077011D01*
X127558419Y-107007853D01*
X127587444Y-106944297D01*
X127597368Y-106934770D01*
X127597338Y-106934740D01*
X127631577Y-106900501D01*
X127729816Y-106802262D01*
X127825789Y-106649522D01*
X127885368Y-106479255D01*
X127885369Y-106479249D01*
X127905565Y-106300003D01*
X127905565Y-106299999D01*
X127904275Y-106288551D01*
X127900005Y-106250656D01*
X127912059Y-106181836D01*
X127959407Y-106130456D01*
X128008438Y-106113658D01*
X128081564Y-106104877D01*
X128222342Y-106049361D01*
X128342922Y-105957922D01*
X128434361Y-105837342D01*
X128489877Y-105696564D01*
X128500500Y-105608102D01*
X128500500Y-104431898D01*
X128489877Y-104343436D01*
X128459146Y-104265507D01*
X128450500Y-104220017D01*
X128450500Y-104000557D01*
X128470185Y-103933518D01*
X128522989Y-103887763D01*
X128592147Y-103877819D01*
X128615446Y-103883513D01*
X128620745Y-103885368D01*
X128620752Y-103885368D01*
X128620753Y-103885369D01*
X128799996Y-103905565D01*
X128800000Y-103905565D01*
X128800004Y-103905565D01*
X128979249Y-103885369D01*
X128979252Y-103885368D01*
X128979255Y-103885368D01*
X129149522Y-103825789D01*
X129302262Y-103729816D01*
X129429816Y-103602262D01*
X129525789Y-103449522D01*
X129585368Y-103279255D01*
X129603370Y-103119480D01*
X129605565Y-103100003D01*
X129605565Y-103099996D01*
X129585369Y-102920750D01*
X129585368Y-102920745D01*
X129554377Y-102832178D01*
X129525789Y-102750478D01*
X129429816Y-102597738D01*
X129302262Y-102470184D01*
X129288451Y-102461506D01*
X129149523Y-102374211D01*
X128979254Y-102314631D01*
X128979249Y-102314630D01*
X128800004Y-102294435D01*
X128799996Y-102294435D01*
X128620746Y-102314631D01*
X128620745Y-102314631D01*
X128577817Y-102329652D01*
X128508038Y-102333213D01*
X128447411Y-102298483D01*
X128438060Y-102287536D01*
X128394429Y-102230000D01*
X128342922Y-102162078D01*
X128342920Y-102162077D01*
X128342920Y-102162076D01*
X128222343Y-102070639D01*
X128081561Y-102015122D01*
X128035926Y-102009642D01*
X127993102Y-102004500D01*
X127606898Y-102004500D01*
X127557752Y-102010401D01*
X127518432Y-102015123D01*
X127510732Y-102017070D01*
X127510268Y-102015237D01*
X127450891Y-102020592D01*
X127436602Y-102016396D01*
X127431567Y-102015123D01*
X127398390Y-102011139D01*
X127343102Y-102004500D01*
X126956898Y-102004500D01*
X126907752Y-102010401D01*
X126868432Y-102015123D01*
X126860732Y-102017070D01*
X126860268Y-102015237D01*
X126800891Y-102020592D01*
X126786602Y-102016396D01*
X126781567Y-102015123D01*
X126748390Y-102011139D01*
X126693102Y-102004500D01*
X126306898Y-102004500D01*
X126267853Y-102009188D01*
X126218438Y-102015122D01*
X126077656Y-102070639D01*
X125957077Y-102162077D01*
X125865639Y-102282656D01*
X125810122Y-102423438D01*
X125805552Y-102461501D01*
X125799500Y-102511898D01*
X125799500Y-102511903D01*
X125799500Y-102899901D01*
X125779815Y-102966940D01*
X125763181Y-102987582D01*
X125624214Y-103126548D01*
X125624215Y-103126549D01*
X125519478Y-103231286D01*
X125491785Y-103279254D01*
X125473003Y-103311785D01*
X125440423Y-103368215D01*
X125399499Y-103520943D01*
X125399499Y-103520945D01*
X125399499Y-103689046D01*
X125399500Y-103689059D01*
X125399500Y-104502885D01*
X125379815Y-104569924D01*
X125327011Y-104615679D01*
X125257853Y-104625623D01*
X125194297Y-104596598D01*
X125158459Y-104543840D01*
X125125790Y-104450480D01*
X125125789Y-104450478D01*
X125029816Y-104297738D01*
X124902262Y-104170184D01*
X124821166Y-104119228D01*
X124774876Y-104066894D01*
X124764228Y-103997841D01*
X124772671Y-103968974D01*
X124772052Y-103968749D01*
X124773901Y-103963666D01*
X124773903Y-103963663D01*
X124835063Y-103735408D01*
X124855659Y-103500000D01*
X124835063Y-103264592D01*
X124773903Y-103036337D01*
X124773900Y-103036331D01*
X124772053Y-103031256D01*
X124773620Y-103030685D01*
X124764265Y-102969095D01*
X124792783Y-102905310D01*
X124821164Y-102880772D01*
X124902262Y-102829816D01*
X125029816Y-102702262D01*
X125125789Y-102549522D01*
X125185368Y-102379255D01*
X125185369Y-102379249D01*
X125205565Y-102200003D01*
X125205565Y-102199996D01*
X125185369Y-102020750D01*
X125185368Y-102020745D01*
X125177582Y-101998493D01*
X125125789Y-101850478D01*
X125113798Y-101831395D01*
X125044267Y-101720737D01*
X125029816Y-101697738D01*
X124902262Y-101570184D01*
X124902260Y-101570182D01*
X124836285Y-101528727D01*
X124789994Y-101476392D01*
X124779347Y-101407339D01*
X124782483Y-101391641D01*
X124791619Y-101357545D01*
X124835063Y-101195408D01*
X124855659Y-100960000D01*
X124835063Y-100724592D01*
X124801678Y-100599996D01*
X125394435Y-100599996D01*
X125394435Y-100600003D01*
X125414630Y-100779249D01*
X125414631Y-100779254D01*
X125474211Y-100949523D01*
X125536003Y-101047864D01*
X125570184Y-101102262D01*
X125697738Y-101229816D01*
X125850478Y-101325789D01*
X126020745Y-101385368D01*
X126020750Y-101385369D01*
X126199996Y-101405565D01*
X126200000Y-101405565D01*
X126200004Y-101405565D01*
X126379249Y-101385369D01*
X126379252Y-101385368D01*
X126379255Y-101385368D01*
X126549522Y-101325789D01*
X126702262Y-101229816D01*
X126829816Y-101102262D01*
X126925789Y-100949522D01*
X126985368Y-100779255D01*
X127005565Y-100600000D01*
X126995564Y-100511240D01*
X126985369Y-100420750D01*
X126985368Y-100420745D01*
X126968745Y-100373240D01*
X126925789Y-100250478D01*
X126925787Y-100250475D01*
X126925787Y-100250474D01*
X126919503Y-100240473D01*
X126900501Y-100173237D01*
X126920867Y-100106401D01*
X126974134Y-100061186D01*
X127024495Y-100050499D01*
X127997871Y-100050499D01*
X127997872Y-100050499D01*
X128057483Y-100044091D01*
X128192331Y-99993796D01*
X128307546Y-99907546D01*
X128393796Y-99792331D01*
X128444091Y-99657483D01*
X128450500Y-99597873D01*
X128450499Y-97802128D01*
X128444091Y-97742517D01*
X128443961Y-97742169D01*
X128393797Y-97607671D01*
X128393793Y-97607664D01*
X128307547Y-97492455D01*
X128307544Y-97492452D01*
X128192335Y-97406206D01*
X128192328Y-97406202D01*
X128057482Y-97355908D01*
X128057483Y-97355908D01*
X127997883Y-97349501D01*
X127997881Y-97349500D01*
X127997873Y-97349500D01*
X127997864Y-97349500D01*
X126202129Y-97349500D01*
X126202123Y-97349501D01*
X126142516Y-97355908D01*
X126007671Y-97406202D01*
X126007664Y-97406206D01*
X125892455Y-97492452D01*
X125892452Y-97492455D01*
X125806206Y-97607664D01*
X125806202Y-97607671D01*
X125755908Y-97742517D01*
X125750274Y-97794928D01*
X125749501Y-97802123D01*
X125749500Y-97802135D01*
X125749500Y-99597870D01*
X125749501Y-99597876D01*
X125755909Y-99657484D01*
X125804064Y-99786597D01*
X125809048Y-99856288D01*
X125775562Y-99917611D01*
X125753856Y-99934922D01*
X125697736Y-99970185D01*
X125570184Y-100097737D01*
X125474211Y-100250476D01*
X125414631Y-100420745D01*
X125414630Y-100420750D01*
X125394435Y-100599996D01*
X124801678Y-100599996D01*
X124777896Y-100511239D01*
X124779559Y-100441390D01*
X124818722Y-100383528D01*
X124831691Y-100374158D01*
X124902262Y-100329816D01*
X125029816Y-100202262D01*
X125125789Y-100049522D01*
X125185368Y-99879255D01*
X125185369Y-99879249D01*
X125205565Y-99700003D01*
X125205565Y-99699996D01*
X125185369Y-99520750D01*
X125185368Y-99520745D01*
X125125788Y-99350476D01*
X125029815Y-99197737D01*
X124902259Y-99070181D01*
X124827113Y-99022965D01*
X124780821Y-98970631D01*
X124770172Y-98901577D01*
X124773309Y-98885878D01*
X124773901Y-98883665D01*
X124773903Y-98883663D01*
X124835063Y-98655408D01*
X124855659Y-98420000D01*
X124835063Y-98184592D01*
X124773903Y-97956337D01*
X124767543Y-97942699D01*
X124757052Y-97873625D01*
X124785571Y-97809840D01*
X124813950Y-97785305D01*
X124902262Y-97729816D01*
X125029816Y-97602262D01*
X125125789Y-97449522D01*
X125185368Y-97279255D01*
X125194636Y-97196998D01*
X125205565Y-97100003D01*
X125205565Y-97099996D01*
X125185369Y-96920750D01*
X125185368Y-96920745D01*
X125125788Y-96750476D01*
X125094069Y-96699996D01*
X142794435Y-96699996D01*
X142794435Y-96700003D01*
X142814630Y-96879249D01*
X142814631Y-96879254D01*
X142874211Y-97049523D01*
X142951483Y-97172500D01*
X142970184Y-97202262D01*
X143097738Y-97329816D01*
X143180002Y-97381506D01*
X143219308Y-97406204D01*
X143250478Y-97425789D01*
X143318306Y-97449523D01*
X143420745Y-97485368D01*
X143420750Y-97485369D01*
X143599996Y-97505565D01*
X143600000Y-97505565D01*
X143600004Y-97505565D01*
X143779249Y-97485369D01*
X143779252Y-97485368D01*
X143779255Y-97485368D01*
X143949522Y-97425789D01*
X144102262Y-97329816D01*
X144229816Y-97202262D01*
X144325789Y-97049522D01*
X144385368Y-96879255D01*
X144391392Y-96825789D01*
X144405565Y-96700003D01*
X144405565Y-96699996D01*
X144385369Y-96520750D01*
X144385368Y-96520745D01*
X144360788Y-96450499D01*
X144325789Y-96350478D01*
X144321507Y-96343664D01*
X144229815Y-96197737D01*
X144132074Y-96099996D01*
X146494435Y-96099996D01*
X146494435Y-96100003D01*
X146514630Y-96279249D01*
X146514631Y-96279254D01*
X146574211Y-96449523D01*
X146642265Y-96557830D01*
X146670184Y-96602262D01*
X146797738Y-96729816D01*
X146950478Y-96825789D01*
X147103258Y-96879249D01*
X147120745Y-96885368D01*
X147120750Y-96885369D01*
X147299996Y-96905565D01*
X147300000Y-96905565D01*
X147300004Y-96905565D01*
X147479249Y-96885369D01*
X147479252Y-96885368D01*
X147479255Y-96885368D01*
X147649522Y-96825789D01*
X147802262Y-96729816D01*
X147929816Y-96602262D01*
X148025789Y-96449522D01*
X148085368Y-96279255D01*
X148085369Y-96279249D01*
X148105565Y-96100003D01*
X148105565Y-96099996D01*
X148085369Y-95920750D01*
X148085368Y-95920745D01*
X148071110Y-95879999D01*
X148025789Y-95750478D01*
X147929816Y-95597738D01*
X147802262Y-95470184D01*
X147738017Y-95429816D01*
X147649523Y-95374211D01*
X147479254Y-95314631D01*
X147479249Y-95314630D01*
X147300004Y-95294435D01*
X147299996Y-95294435D01*
X147120750Y-95314630D01*
X147120745Y-95314631D01*
X146950476Y-95374211D01*
X146797737Y-95470184D01*
X146670184Y-95597737D01*
X146574211Y-95750476D01*
X146514631Y-95920745D01*
X146514630Y-95920750D01*
X146494435Y-96099996D01*
X144132074Y-96099996D01*
X144102262Y-96070184D01*
X143949523Y-95974211D01*
X143779254Y-95914631D01*
X143779249Y-95914630D01*
X143600004Y-95894435D01*
X143599996Y-95894435D01*
X143420750Y-95914630D01*
X143420745Y-95914631D01*
X143250476Y-95974211D01*
X143097737Y-96070184D01*
X142970184Y-96197737D01*
X142874211Y-96350476D01*
X142814631Y-96520745D01*
X142814630Y-96520750D01*
X142794435Y-96699996D01*
X125094069Y-96699996D01*
X125086582Y-96688080D01*
X125029816Y-96597738D01*
X124902262Y-96470184D01*
X124902261Y-96470183D01*
X124840873Y-96431610D01*
X124794582Y-96379275D01*
X124783934Y-96310221D01*
X124787070Y-96294523D01*
X124813003Y-96197737D01*
X124835063Y-96115408D01*
X124855659Y-95880000D01*
X124835063Y-95644592D01*
X124773903Y-95416337D01*
X124773901Y-95416334D01*
X124773309Y-95414122D01*
X124774972Y-95344273D01*
X124814135Y-95286410D01*
X124827113Y-95277035D01*
X124831804Y-95274088D01*
X124881137Y-95243089D01*
X124902259Y-95229818D01*
X124902259Y-95229817D01*
X124902262Y-95229816D01*
X125029816Y-95102262D01*
X125125789Y-94949522D01*
X125185368Y-94779255D01*
X125203228Y-94620745D01*
X125205565Y-94600003D01*
X125205565Y-94599996D01*
X125185369Y-94420750D01*
X125185368Y-94420745D01*
X125170583Y-94378493D01*
X125125789Y-94250478D01*
X125101231Y-94211395D01*
X125095413Y-94202135D01*
X125749500Y-94202135D01*
X125749500Y-95997870D01*
X125749501Y-95997876D01*
X125755908Y-96057483D01*
X125806202Y-96192328D01*
X125806206Y-96192335D01*
X125892452Y-96307544D01*
X125892455Y-96307547D01*
X126007664Y-96393793D01*
X126007671Y-96393797D01*
X126142517Y-96444091D01*
X126142516Y-96444091D01*
X126149444Y-96444835D01*
X126202127Y-96450500D01*
X127997872Y-96450499D01*
X128057483Y-96444091D01*
X128192331Y-96393796D01*
X128307546Y-96307546D01*
X128393796Y-96192331D01*
X128444091Y-96057483D01*
X128450500Y-95997873D01*
X128450499Y-94202128D01*
X128444091Y-94142517D01*
X128415699Y-94066395D01*
X128393797Y-94007671D01*
X128393793Y-94007664D01*
X128307547Y-93892455D01*
X128307544Y-93892452D01*
X128192335Y-93806206D01*
X128192328Y-93806202D01*
X128057482Y-93755908D01*
X128057483Y-93755908D01*
X127997883Y-93749501D01*
X127997881Y-93749500D01*
X127997873Y-93749500D01*
X127997864Y-93749500D01*
X126202129Y-93749500D01*
X126202123Y-93749501D01*
X126142516Y-93755908D01*
X126007671Y-93806202D01*
X126007664Y-93806206D01*
X125892455Y-93892452D01*
X125892452Y-93892455D01*
X125806206Y-94007664D01*
X125806202Y-94007671D01*
X125755908Y-94142517D01*
X125754567Y-94154995D01*
X125749501Y-94202123D01*
X125749500Y-94202135D01*
X125095413Y-94202135D01*
X125062115Y-94149142D01*
X125029816Y-94097738D01*
X124902262Y-93970184D01*
X124902260Y-93970182D01*
X124831698Y-93925845D01*
X124785408Y-93873511D01*
X124774760Y-93804457D01*
X124777896Y-93788759D01*
X124786698Y-93755909D01*
X124835063Y-93575408D01*
X124855659Y-93340000D01*
X124835063Y-93104592D01*
X124793768Y-92950476D01*
X124782483Y-92908357D01*
X124784146Y-92838507D01*
X124823309Y-92780645D01*
X124836270Y-92771281D01*
X124902262Y-92729816D01*
X125029816Y-92602262D01*
X125125789Y-92449522D01*
X125185368Y-92279255D01*
X125185369Y-92279249D01*
X125205565Y-92100003D01*
X125205565Y-92099996D01*
X125185369Y-91920750D01*
X125185368Y-91920745D01*
X125125789Y-91750478D01*
X125029816Y-91597738D01*
X124902262Y-91470184D01*
X124821166Y-91419228D01*
X124774876Y-91366894D01*
X124764228Y-91297841D01*
X124772671Y-91268974D01*
X124772052Y-91268749D01*
X124773901Y-91263666D01*
X124773903Y-91263663D01*
X124835063Y-91035408D01*
X124855659Y-90800000D01*
X124835063Y-90564592D01*
X124773903Y-90336337D01*
X124674035Y-90122171D01*
X124660096Y-90102263D01*
X124538494Y-89928597D01*
X124371402Y-89761506D01*
X124371396Y-89761501D01*
X124185842Y-89631575D01*
X124142217Y-89576998D01*
X124135023Y-89507500D01*
X124166546Y-89445145D01*
X124185842Y-89428425D01*
X124278293Y-89363690D01*
X124371401Y-89298495D01*
X124538495Y-89131401D01*
X124674035Y-88937830D01*
X124708544Y-88863823D01*
X124754713Y-88811389D01*
X124821907Y-88792236D01*
X124888788Y-88812451D01*
X124908605Y-88828551D01*
X127565679Y-91485625D01*
X127599164Y-91546948D01*
X127594180Y-91616640D01*
X127552308Y-91672573D01*
X127543970Y-91678300D01*
X127397737Y-91770184D01*
X127270184Y-91897737D01*
X127174211Y-92050476D01*
X127114631Y-92220745D01*
X127114630Y-92220750D01*
X127094435Y-92399996D01*
X127094435Y-92400003D01*
X127114630Y-92579249D01*
X127114631Y-92579254D01*
X127174211Y-92749523D01*
X127224662Y-92829815D01*
X127270184Y-92902262D01*
X127397738Y-93029816D01*
X127488080Y-93086582D01*
X127542450Y-93120745D01*
X127550478Y-93125789D01*
X127720745Y-93185368D01*
X127720750Y-93185369D01*
X127899996Y-93205565D01*
X127900000Y-93205565D01*
X127900004Y-93205565D01*
X128079249Y-93185369D01*
X128079252Y-93185368D01*
X128079255Y-93185368D01*
X128249522Y-93125789D01*
X128402262Y-93029816D01*
X128529816Y-92902262D01*
X128621700Y-92756028D01*
X128674033Y-92709738D01*
X128743087Y-92699089D01*
X128806935Y-92727464D01*
X128814374Y-92734320D01*
X131535331Y-95455277D01*
X131535336Y-95455281D01*
X131583260Y-95487302D01*
X131583262Y-95487303D01*
X131583264Y-95487304D01*
X131640860Y-95525788D01*
X131641873Y-95526465D01*
X131725634Y-95561160D01*
X131780037Y-95605001D01*
X131801401Y-95661837D01*
X131814630Y-95779250D01*
X131814631Y-95779254D01*
X131874211Y-95949523D01*
X131904598Y-95997883D01*
X131970184Y-96102262D01*
X132097738Y-96229816D01*
X132176410Y-96279249D01*
X132225701Y-96310221D01*
X132250478Y-96325789D01*
X132402935Y-96379136D01*
X132420745Y-96385368D01*
X132420750Y-96385369D01*
X132599996Y-96405565D01*
X132600000Y-96405565D01*
X132600004Y-96405565D01*
X132779249Y-96385369D01*
X132779252Y-96385368D01*
X132779255Y-96385368D01*
X132949522Y-96325789D01*
X133102262Y-96229816D01*
X133229816Y-96102262D01*
X133325789Y-95949522D01*
X133385368Y-95779255D01*
X133388611Y-95750478D01*
X133393102Y-95710617D01*
X133420168Y-95646203D01*
X133477763Y-95606648D01*
X133516322Y-95600500D01*
X137858610Y-95600500D01*
X137943154Y-95583682D01*
X137984283Y-95575501D01*
X138102666Y-95526465D01*
X138161275Y-95487304D01*
X138209208Y-95455277D01*
X139955276Y-93709209D01*
X139990870Y-93655937D01*
X140026464Y-93602668D01*
X140026465Y-93602666D01*
X140075501Y-93484283D01*
X140075501Y-93484279D01*
X140075503Y-93484276D01*
X140084600Y-93438542D01*
X140084600Y-93438541D01*
X140100500Y-93358610D01*
X140100500Y-89121842D01*
X140120185Y-89054803D01*
X140172989Y-89009048D01*
X140238382Y-88998622D01*
X140291675Y-89004627D01*
X140299999Y-89005565D01*
X140300000Y-89005565D01*
X140300004Y-89005565D01*
X140479249Y-88985369D01*
X140479252Y-88985368D01*
X140479255Y-88985368D01*
X140649522Y-88925789D01*
X140649524Y-88925788D01*
X140659527Y-88919503D01*
X140726764Y-88900502D01*
X140793599Y-88920869D01*
X140838814Y-88974137D01*
X140849500Y-89024496D01*
X140849500Y-91694931D01*
X140830494Y-91760903D01*
X140774211Y-91850477D01*
X140774209Y-91850481D01*
X140714633Y-92020737D01*
X140714630Y-92020750D01*
X140694435Y-92199996D01*
X140694435Y-92200003D01*
X140714630Y-92379249D01*
X140714631Y-92379254D01*
X140774211Y-92549523D01*
X140852201Y-92673642D01*
X140870184Y-92702262D01*
X140997738Y-92829816D01*
X141150478Y-92925789D01*
X141276097Y-92969745D01*
X141320745Y-92985368D01*
X141320750Y-92985369D01*
X141499996Y-93005565D01*
X141500000Y-93005565D01*
X141500004Y-93005565D01*
X141679249Y-92985369D01*
X141679252Y-92985368D01*
X141679255Y-92985368D01*
X141849522Y-92925789D01*
X141976737Y-92845854D01*
X142043972Y-92826854D01*
X142110807Y-92847221D01*
X142156022Y-92900489D01*
X142165260Y-92969745D01*
X142159750Y-92991802D01*
X142114632Y-93120742D01*
X142114630Y-93120750D01*
X142094435Y-93299996D01*
X142094435Y-93300003D01*
X142114630Y-93479249D01*
X142114631Y-93479254D01*
X142174211Y-93649523D01*
X142211718Y-93709214D01*
X142270184Y-93802262D01*
X142397738Y-93929816D01*
X142410701Y-93937961D01*
X142421913Y-93945006D01*
X142468204Y-93997341D01*
X142478852Y-94066395D01*
X142450477Y-94130243D01*
X142421913Y-94154994D01*
X142397737Y-94170184D01*
X142270184Y-94297737D01*
X142174211Y-94450476D01*
X142114631Y-94620745D01*
X142114630Y-94620750D01*
X142094435Y-94799996D01*
X142094435Y-94800003D01*
X142114630Y-94979249D01*
X142114631Y-94979254D01*
X142174211Y-95149523D01*
X142264515Y-95293240D01*
X142270184Y-95302262D01*
X142397738Y-95429816D01*
X142550478Y-95525789D01*
X142651563Y-95561160D01*
X142720745Y-95585368D01*
X142720750Y-95585369D01*
X142899996Y-95605565D01*
X142900000Y-95605565D01*
X142900004Y-95605565D01*
X143079249Y-95585369D01*
X143079252Y-95585368D01*
X143079255Y-95585368D01*
X143249522Y-95525789D01*
X143402262Y-95429816D01*
X143529816Y-95302262D01*
X143625789Y-95149522D01*
X143685368Y-94979255D01*
X143688718Y-94949522D01*
X143705565Y-94800003D01*
X143705565Y-94799996D01*
X143685369Y-94620750D01*
X143685368Y-94620745D01*
X143651916Y-94525145D01*
X143625789Y-94450478D01*
X143607106Y-94420745D01*
X143530923Y-94299500D01*
X143529816Y-94297738D01*
X143402262Y-94170184D01*
X143378084Y-94154992D01*
X143331796Y-94102661D01*
X143321146Y-94033607D01*
X143349521Y-93969758D01*
X143378082Y-93945009D01*
X143402262Y-93929816D01*
X143529816Y-93802262D01*
X143625789Y-93649522D01*
X143685368Y-93479255D01*
X143685369Y-93479249D01*
X143705565Y-93300003D01*
X143705565Y-93299996D01*
X143685369Y-93120750D01*
X143685368Y-93120745D01*
X143679714Y-93104586D01*
X143625789Y-92950478D01*
X143529816Y-92797738D01*
X143402262Y-92670184D01*
X143374559Y-92652777D01*
X143249523Y-92574211D01*
X143079254Y-92514631D01*
X143079249Y-92514630D01*
X142900004Y-92494435D01*
X142899996Y-92494435D01*
X142720750Y-92514630D01*
X142720745Y-92514631D01*
X142550476Y-92574211D01*
X142423263Y-92654145D01*
X142356026Y-92673145D01*
X142289191Y-92652777D01*
X142243977Y-92599509D01*
X142234740Y-92530253D01*
X142240250Y-92508196D01*
X142285366Y-92379262D01*
X142285369Y-92379249D01*
X142305565Y-92200003D01*
X142305565Y-92199996D01*
X142285369Y-92020750D01*
X142285366Y-92020737D01*
X142225790Y-91850481D01*
X142225789Y-91850478D01*
X142181033Y-91779249D01*
X142169506Y-91760903D01*
X142150500Y-91694931D01*
X142150500Y-91228498D01*
X142170185Y-91161459D01*
X142222989Y-91115704D01*
X142292147Y-91105760D01*
X142355703Y-91134785D01*
X142391542Y-91187544D01*
X142399902Y-91211437D01*
X142462102Y-91310427D01*
X142495876Y-91364178D01*
X142623430Y-91491732D01*
X142776170Y-91587705D01*
X142872425Y-91621386D01*
X142946437Y-91647284D01*
X142946442Y-91647285D01*
X143125688Y-91667481D01*
X143125692Y-91667481D01*
X143125696Y-91667481D01*
X143304941Y-91647285D01*
X143304944Y-91647284D01*
X143304947Y-91647284D01*
X143475214Y-91587705D01*
X143627954Y-91491732D01*
X143755508Y-91364178D01*
X143851481Y-91211438D01*
X143911060Y-91041171D01*
X143911709Y-91035413D01*
X143931257Y-90861919D01*
X143931257Y-90861912D01*
X143911061Y-90682666D01*
X143911060Y-90682661D01*
X143888718Y-90618811D01*
X143851481Y-90512394D01*
X143755508Y-90359654D01*
X143627954Y-90232100D01*
X143576872Y-90200003D01*
X143475215Y-90136127D01*
X143304946Y-90076547D01*
X143304941Y-90076546D01*
X143125696Y-90056351D01*
X143125688Y-90056351D01*
X142987625Y-90071906D01*
X142918803Y-90059851D01*
X142875066Y-90019544D01*
X142854165Y-90083429D01*
X142799985Y-90127547D01*
X142792906Y-90130270D01*
X142776170Y-90136126D01*
X142623429Y-90232100D01*
X142495876Y-90359653D01*
X142399901Y-90512396D01*
X142391541Y-90536288D01*
X142350819Y-90593064D01*
X142285867Y-90618811D01*
X142217305Y-90605355D01*
X142166902Y-90556967D01*
X142150500Y-90495333D01*
X142150500Y-89965567D01*
X142170185Y-89898528D01*
X142222989Y-89852773D01*
X142292147Y-89842829D01*
X142315455Y-89848526D01*
X142420737Y-89885366D01*
X142420743Y-89885367D01*
X142420745Y-89885368D01*
X142420746Y-89885368D01*
X142420750Y-89885369D01*
X142599996Y-89905565D01*
X142600000Y-89905565D01*
X142600003Y-89905565D01*
X142738065Y-89890009D01*
X142806887Y-89902063D01*
X142850624Y-89942369D01*
X142871527Y-89878486D01*
X142925706Y-89834368D01*
X142932778Y-89831647D01*
X142949522Y-89825789D01*
X143102262Y-89729816D01*
X143229816Y-89602262D01*
X143325789Y-89449522D01*
X143385368Y-89279255D01*
X143385369Y-89279249D01*
X143405565Y-89100003D01*
X143405565Y-89099996D01*
X143385369Y-88920750D01*
X143385368Y-88920745D01*
X143325788Y-88750475D01*
X143304108Y-88715973D01*
X143285107Y-88648737D01*
X143304108Y-88584027D01*
X143325788Y-88549524D01*
X143343909Y-88497738D01*
X143385368Y-88379255D01*
X143392024Y-88320185D01*
X143405565Y-88200003D01*
X143405565Y-88199996D01*
X143385369Y-88020750D01*
X143385368Y-88020745D01*
X143325788Y-87850475D01*
X143304108Y-87815973D01*
X143285107Y-87748737D01*
X143304108Y-87684027D01*
X143325788Y-87649524D01*
X143353440Y-87570500D01*
X143385368Y-87479255D01*
X143392644Y-87414680D01*
X143419710Y-87350265D01*
X143477304Y-87310710D01*
X143501981Y-87305342D01*
X143679249Y-87285369D01*
X143679252Y-87285368D01*
X143679255Y-87285368D01*
X143849522Y-87225789D01*
X144002262Y-87129816D01*
X144129816Y-87002262D01*
X144225789Y-86849522D01*
X144285368Y-86679255D01*
X144285369Y-86679249D01*
X144305565Y-86500003D01*
X144305565Y-86499996D01*
X144285369Y-86320750D01*
X144285368Y-86320745D01*
X144265225Y-86263181D01*
X144225789Y-86150478D01*
X144205850Y-86118746D01*
X144129815Y-85997737D01*
X144002262Y-85870184D01*
X143849523Y-85774211D01*
X143679254Y-85714631D01*
X143679249Y-85714630D01*
X143500004Y-85694435D01*
X143499996Y-85694435D01*
X143320750Y-85714630D01*
X143320737Y-85714633D01*
X143150480Y-85774209D01*
X143115970Y-85795893D01*
X143048733Y-85814892D01*
X142984030Y-85795893D01*
X142949519Y-85774209D01*
X142779262Y-85714633D01*
X142779249Y-85714630D01*
X142600004Y-85694435D01*
X142599996Y-85694435D01*
X142420750Y-85714630D01*
X142420742Y-85714632D01*
X142315454Y-85751474D01*
X142245675Y-85755035D01*
X142185048Y-85720306D01*
X142152821Y-85658312D01*
X142150500Y-85634432D01*
X142150500Y-84921955D01*
X142170185Y-84854916D01*
X142222989Y-84809161D01*
X142260615Y-84798735D01*
X142293568Y-84795022D01*
X142379250Y-84785369D01*
X142379253Y-84785368D01*
X142379255Y-84785368D01*
X142549522Y-84725789D01*
X142702262Y-84629816D01*
X142829816Y-84502262D01*
X142925789Y-84349522D01*
X142985368Y-84179255D01*
X142990087Y-84137371D01*
X142994298Y-84099996D01*
X144794435Y-84099996D01*
X144794435Y-84100003D01*
X144814630Y-84279249D01*
X144814631Y-84279254D01*
X144874211Y-84449523D01*
X144965037Y-84594070D01*
X144970184Y-84602262D01*
X145097738Y-84729816D01*
X145128258Y-84748993D01*
X145224014Y-84809161D01*
X145250478Y-84825789D01*
X145420745Y-84885368D01*
X145420750Y-84885369D01*
X145599996Y-84905565D01*
X145600000Y-84905565D01*
X145600004Y-84905565D01*
X145779249Y-84885369D01*
X145779252Y-84885368D01*
X145779255Y-84885368D01*
X145949522Y-84825789D01*
X146102262Y-84729816D01*
X146229816Y-84602262D01*
X146325789Y-84449522D01*
X146362310Y-84345150D01*
X146403030Y-84288376D01*
X146467983Y-84262628D01*
X146536545Y-84276084D01*
X146586948Y-84324471D01*
X146602571Y-84372222D01*
X146614630Y-84479250D01*
X146614631Y-84479254D01*
X146674211Y-84649523D01*
X146740625Y-84755219D01*
X146770184Y-84802262D01*
X146897738Y-84929816D01*
X146916925Y-84941872D01*
X147049664Y-85025278D01*
X147050478Y-85025789D01*
X147152960Y-85061649D01*
X147220745Y-85085368D01*
X147220750Y-85085369D01*
X147399996Y-85105565D01*
X147400000Y-85105565D01*
X147400004Y-85105565D01*
X147579249Y-85085369D01*
X147579252Y-85085368D01*
X147579255Y-85085368D01*
X147749522Y-85025789D01*
X147902262Y-84929816D01*
X148029816Y-84802262D01*
X148125789Y-84649522D01*
X148185368Y-84479255D01*
X148186129Y-84472500D01*
X148205565Y-84300003D01*
X148205565Y-84299996D01*
X148185369Y-84120750D01*
X148185368Y-84120745D01*
X148178108Y-84099996D01*
X148125789Y-83950478D01*
X148107106Y-83920745D01*
X148052086Y-83833181D01*
X148029816Y-83797738D01*
X147902262Y-83670184D01*
X147860054Y-83643663D01*
X147749523Y-83574211D01*
X147579254Y-83514631D01*
X147579249Y-83514630D01*
X147400004Y-83494435D01*
X147399996Y-83494435D01*
X147220750Y-83514630D01*
X147220745Y-83514631D01*
X147050476Y-83574211D01*
X146897737Y-83670184D01*
X146770184Y-83797737D01*
X146674209Y-83950480D01*
X146637689Y-84054848D01*
X146596968Y-84111624D01*
X146532015Y-84137371D01*
X146463453Y-84123915D01*
X146413050Y-84075527D01*
X146397428Y-84027776D01*
X146385369Y-83920750D01*
X146385368Y-83920745D01*
X146363353Y-83857830D01*
X146325789Y-83750478D01*
X146229816Y-83597738D01*
X146102262Y-83470184D01*
X146015079Y-83415403D01*
X145949523Y-83374211D01*
X145779254Y-83314631D01*
X145779249Y-83314630D01*
X145600004Y-83294435D01*
X145599996Y-83294435D01*
X145420750Y-83314630D01*
X145420745Y-83314631D01*
X145250476Y-83374211D01*
X145097737Y-83470184D01*
X144970184Y-83597737D01*
X144874211Y-83750476D01*
X144814631Y-83920745D01*
X144814630Y-83920750D01*
X144794435Y-84099996D01*
X142994298Y-84099996D01*
X143005565Y-84000003D01*
X143005565Y-83999996D01*
X142985369Y-83820750D01*
X142985368Y-83820745D01*
X142925789Y-83650478D01*
X142921507Y-83643664D01*
X142856152Y-83539652D01*
X142829816Y-83497738D01*
X142702262Y-83370184D01*
X142613850Y-83314631D01*
X142556826Y-83278800D01*
X142510535Y-83226465D01*
X142499887Y-83157411D01*
X142528262Y-83093563D01*
X142586652Y-83055191D01*
X142629839Y-83050911D01*
X142629839Y-83050500D01*
X142633992Y-83050500D01*
X142634961Y-83050404D01*
X142635927Y-83050499D01*
X142635931Y-83050500D01*
X142635935Y-83050500D01*
X143764071Y-83050500D01*
X143848615Y-83033682D01*
X143889744Y-83025501D01*
X144008127Y-82976465D01*
X144017527Y-82970184D01*
X144114669Y-82905277D01*
X144805276Y-82214669D01*
X144876465Y-82108127D01*
X144925501Y-81989744D01*
X144928334Y-81975500D01*
X144950500Y-81864069D01*
X144950500Y-78332377D01*
X144970185Y-78265338D01*
X145022989Y-78219583D01*
X145092147Y-78209639D01*
X145155703Y-78238664D01*
X145162181Y-78244696D01*
X145185110Y-78267625D01*
X145275452Y-78324391D01*
X145286847Y-78331551D01*
X145337850Y-78363598D01*
X145483691Y-78414630D01*
X145508117Y-78423177D01*
X145508122Y-78423178D01*
X145687368Y-78443374D01*
X145687372Y-78443374D01*
X145687376Y-78443374D01*
X145866621Y-78423178D01*
X145866624Y-78423177D01*
X145866627Y-78423177D01*
X146036894Y-78363598D01*
X146189634Y-78267625D01*
X146317188Y-78140071D01*
X146413161Y-77987331D01*
X146472740Y-77817064D01*
X146472741Y-77817058D01*
X146492937Y-77637812D01*
X146492937Y-77637805D01*
X146472741Y-77458559D01*
X146472740Y-77458554D01*
X146460008Y-77422169D01*
X146413161Y-77288287D01*
X146317188Y-77135547D01*
X146189634Y-77007993D01*
X146137922Y-76975500D01*
X146036895Y-76912020D01*
X145866626Y-76852440D01*
X145866621Y-76852439D01*
X145687376Y-76832244D01*
X145687368Y-76832244D01*
X145508122Y-76852439D01*
X145508117Y-76852440D01*
X145337848Y-76912020D01*
X145185109Y-77007993D01*
X145057556Y-77135546D01*
X144961581Y-77288288D01*
X144952418Y-77314476D01*
X144911696Y-77371252D01*
X144846743Y-77396998D01*
X144778181Y-77383541D01*
X144747696Y-77361201D01*
X143836819Y-76450324D01*
X143803334Y-76389001D01*
X143800500Y-76362643D01*
X143800500Y-75078821D01*
X143775502Y-74953154D01*
X143775501Y-74953153D01*
X143775501Y-74953149D01*
X143741267Y-74870500D01*
X143730590Y-74844723D01*
X143730589Y-74844722D01*
X143726466Y-74834767D01*
X143726461Y-74834759D01*
X143725495Y-74832951D01*
X143725274Y-74831890D01*
X143724135Y-74829140D01*
X143724656Y-74828923D01*
X143711254Y-74764548D01*
X143736255Y-74699304D01*
X143792561Y-74657934D01*
X143834854Y-74650499D01*
X144797871Y-74650499D01*
X144797872Y-74650499D01*
X144857483Y-74644091D01*
X144992331Y-74593796D01*
X145107546Y-74507546D01*
X145193796Y-74392331D01*
X145244091Y-74257483D01*
X145250500Y-74197873D01*
X145250499Y-73299996D01*
X146094435Y-73299996D01*
X146094435Y-73300003D01*
X146114630Y-73479249D01*
X146114631Y-73479254D01*
X146174211Y-73649523D01*
X146204567Y-73697834D01*
X146270184Y-73802262D01*
X146397738Y-73929816D01*
X146550478Y-74025789D01*
X146643955Y-74058498D01*
X146720745Y-74085368D01*
X146720750Y-74085369D01*
X146899996Y-74105565D01*
X146900000Y-74105565D01*
X146900004Y-74105565D01*
X147079249Y-74085369D01*
X147079252Y-74085368D01*
X147079255Y-74085368D01*
X147249522Y-74025789D01*
X147402262Y-73929816D01*
X147529816Y-73802262D01*
X147625789Y-73649522D01*
X147685368Y-73479255D01*
X147685369Y-73479249D01*
X147705565Y-73300003D01*
X147705565Y-73299996D01*
X147685369Y-73120750D01*
X147685368Y-73120745D01*
X147625788Y-72950476D01*
X147529815Y-72797737D01*
X147402262Y-72670184D01*
X147249523Y-72574211D01*
X147079254Y-72514631D01*
X147079249Y-72514630D01*
X146900004Y-72494435D01*
X146899996Y-72494435D01*
X146720750Y-72514630D01*
X146720745Y-72514631D01*
X146550476Y-72574211D01*
X146397737Y-72670184D01*
X146270184Y-72797737D01*
X146174211Y-72950476D01*
X146114631Y-73120745D01*
X146114630Y-73120750D01*
X146094435Y-73299996D01*
X145250499Y-73299996D01*
X145250499Y-72402128D01*
X145244091Y-72342517D01*
X145243961Y-72342169D01*
X145216236Y-72267833D01*
X145211252Y-72198141D01*
X145244737Y-72136818D01*
X145306061Y-72103334D01*
X145332418Y-72100500D01*
X148675500Y-72100500D01*
X148742539Y-72120185D01*
G37*
%TD.AperFunction*%
%TA.AperFunction,NonConductor*%
G36*
X139124717Y-106809873D02*
G01*
X139180651Y-106851744D01*
X139188772Y-106864056D01*
X139219479Y-106917243D01*
X139219481Y-106917246D01*
X139338349Y-107036114D01*
X139338355Y-107036119D01*
X139342053Y-107039817D01*
X139375538Y-107101140D01*
X139370554Y-107170832D01*
X139328682Y-107226765D01*
X139306777Y-107239880D01*
X139122171Y-107325964D01*
X139122169Y-107325965D01*
X138928597Y-107461505D01*
X138761505Y-107628597D01*
X138631575Y-107814158D01*
X138576998Y-107857783D01*
X138507500Y-107864977D01*
X138445145Y-107833454D01*
X138428425Y-107814158D01*
X138298494Y-107628597D01*
X138197246Y-107527349D01*
X138163761Y-107466026D01*
X138168745Y-107396334D01*
X138197244Y-107351989D01*
X138418535Y-107130698D01*
X138479856Y-107097215D01*
X138492311Y-107095163D01*
X138579255Y-107085368D01*
X138749522Y-107025789D01*
X138902262Y-106929816D01*
X138993706Y-106838371D01*
X139055025Y-106804889D01*
X139124717Y-106809873D01*
G37*
%TD.AperFunction*%
%TA.AperFunction,NonConductor*%
G36*
X104505703Y-106657042D02*
G01*
X104536880Y-106698349D01*
X104545965Y-106717830D01*
X104545966Y-106717831D01*
X104545967Y-106717834D01*
X104681501Y-106911395D01*
X104681506Y-106911402D01*
X104848597Y-107078493D01*
X104848603Y-107078498D01*
X105034158Y-107208425D01*
X105077783Y-107263002D01*
X105084977Y-107332500D01*
X105053454Y-107394855D01*
X105034158Y-107411575D01*
X104848597Y-107541505D01*
X104681505Y-107708597D01*
X104545965Y-107902169D01*
X104545964Y-107902171D01*
X104536882Y-107921649D01*
X104490709Y-107974088D01*
X104423516Y-107993240D01*
X104356635Y-107973024D01*
X104311300Y-107919859D01*
X104300500Y-107869244D01*
X104300500Y-106750755D01*
X104320185Y-106683716D01*
X104372989Y-106637961D01*
X104442147Y-106628017D01*
X104505703Y-106657042D01*
G37*
%TD.AperFunction*%
%TA.AperFunction,NonConductor*%
G36*
X148760355Y-109187254D02*
G01*
X148795769Y-109247484D01*
X148799500Y-109277673D01*
X148799500Y-109775500D01*
X148779815Y-109842539D01*
X148727011Y-109888294D01*
X148675500Y-109899500D01*
X148169110Y-109899500D01*
X148102071Y-109879815D01*
X148056316Y-109827011D01*
X148046372Y-109757853D01*
X148075397Y-109694297D01*
X148097987Y-109673925D01*
X148177152Y-109618493D01*
X148291401Y-109538495D01*
X148458495Y-109371401D01*
X148573925Y-109206549D01*
X148628502Y-109162925D01*
X148698000Y-109155731D01*
X148760355Y-109187254D01*
G37*
%TD.AperFunction*%
%TA.AperFunction,NonConductor*%
G36*
X146234855Y-109166546D02*
G01*
X146251575Y-109185842D01*
X146381501Y-109371396D01*
X146381506Y-109371402D01*
X146548597Y-109538493D01*
X146548603Y-109538498D01*
X146742013Y-109673925D01*
X146785638Y-109728502D01*
X146792832Y-109798000D01*
X146761309Y-109860355D01*
X146701079Y-109895769D01*
X146670890Y-109899500D01*
X145629110Y-109899500D01*
X145562071Y-109879815D01*
X145516316Y-109827011D01*
X145506372Y-109757853D01*
X145535397Y-109694297D01*
X145557987Y-109673925D01*
X145637152Y-109618493D01*
X145751401Y-109538495D01*
X145918495Y-109371401D01*
X146048425Y-109185842D01*
X146103002Y-109142217D01*
X146172500Y-109135023D01*
X146234855Y-109166546D01*
G37*
%TD.AperFunction*%
%TA.AperFunction,NonConductor*%
G36*
X143694855Y-109166546D02*
G01*
X143711575Y-109185842D01*
X143841501Y-109371396D01*
X143841506Y-109371402D01*
X144008597Y-109538493D01*
X144008603Y-109538498D01*
X144202013Y-109673925D01*
X144245638Y-109728502D01*
X144252832Y-109798000D01*
X144221309Y-109860355D01*
X144161079Y-109895769D01*
X144130890Y-109899500D01*
X143089110Y-109899500D01*
X143022071Y-109879815D01*
X142976316Y-109827011D01*
X142966372Y-109757853D01*
X142995397Y-109694297D01*
X143017987Y-109673925D01*
X143097152Y-109618493D01*
X143211401Y-109538495D01*
X143378495Y-109371401D01*
X143508425Y-109185842D01*
X143563002Y-109142217D01*
X143632500Y-109135023D01*
X143694855Y-109166546D01*
G37*
%TD.AperFunction*%
%TA.AperFunction,NonConductor*%
G36*
X141154855Y-109166546D02*
G01*
X141171575Y-109185842D01*
X141301501Y-109371396D01*
X141301506Y-109371402D01*
X141468597Y-109538493D01*
X141468603Y-109538498D01*
X141662013Y-109673925D01*
X141705638Y-109728502D01*
X141712832Y-109798000D01*
X141681309Y-109860355D01*
X141621079Y-109895769D01*
X141590890Y-109899500D01*
X140549110Y-109899500D01*
X140482071Y-109879815D01*
X140436316Y-109827011D01*
X140426372Y-109757853D01*
X140455397Y-109694297D01*
X140477987Y-109673925D01*
X140557152Y-109618493D01*
X140671401Y-109538495D01*
X140838495Y-109371401D01*
X140968425Y-109185842D01*
X141023002Y-109142217D01*
X141092500Y-109135023D01*
X141154855Y-109166546D01*
G37*
%TD.AperFunction*%
%TA.AperFunction,NonConductor*%
G36*
X138614855Y-109166546D02*
G01*
X138631575Y-109185842D01*
X138761501Y-109371396D01*
X138761506Y-109371402D01*
X138928597Y-109538493D01*
X138928603Y-109538498D01*
X139122013Y-109673925D01*
X139165638Y-109728502D01*
X139172832Y-109798000D01*
X139141309Y-109860355D01*
X139081079Y-109895769D01*
X139050890Y-109899500D01*
X138009110Y-109899500D01*
X137942071Y-109879815D01*
X137896316Y-109827011D01*
X137886372Y-109757853D01*
X137915397Y-109694297D01*
X137937987Y-109673925D01*
X138017152Y-109618493D01*
X138131401Y-109538495D01*
X138298495Y-109371401D01*
X138428425Y-109185842D01*
X138483002Y-109142217D01*
X138552500Y-109135023D01*
X138614855Y-109166546D01*
G37*
%TD.AperFunction*%
%TA.AperFunction,NonConductor*%
G36*
X136074855Y-109166546D02*
G01*
X136091575Y-109185842D01*
X136221501Y-109371396D01*
X136221506Y-109371402D01*
X136388597Y-109538493D01*
X136388603Y-109538498D01*
X136582013Y-109673925D01*
X136625638Y-109728502D01*
X136632832Y-109798000D01*
X136601309Y-109860355D01*
X136541079Y-109895769D01*
X136510890Y-109899500D01*
X135469110Y-109899500D01*
X135402071Y-109879815D01*
X135356316Y-109827011D01*
X135346372Y-109757853D01*
X135375397Y-109694297D01*
X135397987Y-109673925D01*
X135477152Y-109618493D01*
X135591401Y-109538495D01*
X135758495Y-109371401D01*
X135888425Y-109185842D01*
X135943002Y-109142217D01*
X136012500Y-109135023D01*
X136074855Y-109166546D01*
G37*
%TD.AperFunction*%
%TA.AperFunction,NonConductor*%
G36*
X133534855Y-109166546D02*
G01*
X133551575Y-109185842D01*
X133681501Y-109371396D01*
X133681506Y-109371402D01*
X133848597Y-109538493D01*
X133848603Y-109538498D01*
X134042013Y-109673925D01*
X134085638Y-109728502D01*
X134092832Y-109798000D01*
X134061309Y-109860355D01*
X134001079Y-109895769D01*
X133970890Y-109899500D01*
X132929110Y-109899500D01*
X132862071Y-109879815D01*
X132816316Y-109827011D01*
X132806372Y-109757853D01*
X132835397Y-109694297D01*
X132857987Y-109673925D01*
X132937152Y-109618493D01*
X133051401Y-109538495D01*
X133218495Y-109371401D01*
X133348425Y-109185842D01*
X133403002Y-109142217D01*
X133472500Y-109135023D01*
X133534855Y-109166546D01*
G37*
%TD.AperFunction*%
%TA.AperFunction,NonConductor*%
G36*
X130994855Y-109166546D02*
G01*
X131011575Y-109185842D01*
X131141501Y-109371396D01*
X131141506Y-109371402D01*
X131308597Y-109538493D01*
X131308603Y-109538498D01*
X131502013Y-109673925D01*
X131545638Y-109728502D01*
X131552832Y-109798000D01*
X131521309Y-109860355D01*
X131461079Y-109895769D01*
X131430890Y-109899500D01*
X130389110Y-109899500D01*
X130322071Y-109879815D01*
X130276316Y-109827011D01*
X130266372Y-109757853D01*
X130295397Y-109694297D01*
X130317987Y-109673925D01*
X130397152Y-109618493D01*
X130511401Y-109538495D01*
X130678495Y-109371401D01*
X130808425Y-109185842D01*
X130863002Y-109142217D01*
X130932500Y-109135023D01*
X130994855Y-109166546D01*
G37*
%TD.AperFunction*%
%TA.AperFunction,NonConductor*%
G36*
X128618418Y-109395417D02*
G01*
X128646673Y-109416569D01*
X128768597Y-109538493D01*
X128768603Y-109538498D01*
X128962013Y-109673925D01*
X129005638Y-109728502D01*
X129012832Y-109798000D01*
X128981309Y-109860355D01*
X128921079Y-109895769D01*
X128890890Y-109899500D01*
X128411571Y-109899500D01*
X128344532Y-109879815D01*
X128298777Y-109827011D01*
X128288833Y-109757853D01*
X128312305Y-109701189D01*
X128393793Y-109592335D01*
X128393792Y-109592335D01*
X128393796Y-109592331D01*
X128442810Y-109460916D01*
X128484681Y-109404984D01*
X128550145Y-109380566D01*
X128618418Y-109395417D01*
G37*
%TD.AperFunction*%
%TA.AperFunction,NonConductor*%
G36*
X125693599Y-108020869D02*
G01*
X125738814Y-108074137D01*
X125749500Y-108124496D01*
X125749500Y-109397870D01*
X125749501Y-109397876D01*
X125755908Y-109457483D01*
X125806202Y-109592328D01*
X125806206Y-109592335D01*
X125887695Y-109701189D01*
X125912113Y-109766653D01*
X125897262Y-109834926D01*
X125847857Y-109884332D01*
X125788429Y-109899500D01*
X124363362Y-109899500D01*
X124296323Y-109879815D01*
X124250568Y-109827011D01*
X124240624Y-109757853D01*
X124269649Y-109694297D01*
X124292239Y-109673925D01*
X124307439Y-109663281D01*
X124371401Y-109618495D01*
X124538495Y-109451401D01*
X124674035Y-109257830D01*
X124773903Y-109043663D01*
X124835063Y-108815408D01*
X124855659Y-108580000D01*
X124835063Y-108344592D01*
X124799931Y-108213476D01*
X124801594Y-108143629D01*
X124840756Y-108085766D01*
X124904985Y-108058262D01*
X124960662Y-108064344D01*
X125020740Y-108085367D01*
X125020750Y-108085369D01*
X125199996Y-108105565D01*
X125200000Y-108105565D01*
X125200004Y-108105565D01*
X125379249Y-108085369D01*
X125379252Y-108085368D01*
X125379255Y-108085368D01*
X125549522Y-108025789D01*
X125549524Y-108025788D01*
X125559527Y-108019503D01*
X125626764Y-108000502D01*
X125693599Y-108020869D01*
G37*
%TD.AperFunction*%
%TA.AperFunction,NonConductor*%
G36*
X122176405Y-107970185D02*
G01*
X122222160Y-108022989D01*
X122232104Y-108092147D01*
X122227354Y-108111068D01*
X122227498Y-108111107D01*
X122164938Y-108344586D01*
X122164936Y-108344596D01*
X122144341Y-108579999D01*
X122144341Y-108580000D01*
X122164936Y-108815403D01*
X122164938Y-108815413D01*
X122226094Y-109043655D01*
X122226096Y-109043659D01*
X122226097Y-109043663D01*
X122293055Y-109187254D01*
X122325965Y-109257830D01*
X122325967Y-109257834D01*
X122461501Y-109451395D01*
X122461506Y-109451402D01*
X122628597Y-109618493D01*
X122628603Y-109618498D01*
X122707761Y-109673925D01*
X122751386Y-109728502D01*
X122758580Y-109798000D01*
X122727057Y-109860355D01*
X122666827Y-109895769D01*
X122636638Y-109899500D01*
X106583362Y-109899500D01*
X106516323Y-109879815D01*
X106470568Y-109827011D01*
X106460624Y-109757853D01*
X106489649Y-109694297D01*
X106512239Y-109673925D01*
X106527439Y-109663281D01*
X106591401Y-109618495D01*
X106758495Y-109451401D01*
X106894035Y-109257830D01*
X106993903Y-109043663D01*
X107055063Y-108815408D01*
X107075659Y-108580000D01*
X107055063Y-108344592D01*
X106993903Y-108116337D01*
X106992502Y-108111107D01*
X106993722Y-108110780D01*
X106989681Y-108047182D01*
X107023650Y-107986127D01*
X107085237Y-107953129D01*
X107110634Y-107950500D01*
X122109366Y-107950500D01*
X122176405Y-107970185D01*
G37*
%TD.AperFunction*%
%TA.AperFunction,NonConductor*%
G36*
X104505703Y-109197042D02*
G01*
X104536880Y-109238349D01*
X104545965Y-109257830D01*
X104545966Y-109257831D01*
X104545967Y-109257834D01*
X104681501Y-109451395D01*
X104681506Y-109451402D01*
X104848597Y-109618493D01*
X104848603Y-109618498D01*
X104927761Y-109673925D01*
X104971386Y-109728502D01*
X104978580Y-109798000D01*
X104947057Y-109860355D01*
X104886827Y-109895769D01*
X104856638Y-109899500D01*
X104424500Y-109899500D01*
X104357461Y-109879815D01*
X104311706Y-109827011D01*
X104300500Y-109775500D01*
X104300500Y-109290755D01*
X104320185Y-109223716D01*
X104372989Y-109177961D01*
X104442147Y-109168017D01*
X104505703Y-109197042D01*
G37*
%TD.AperFunction*%
M02*
