%TF.GenerationSoftware,KiCad,Pcbnew,8.0.3*%
%TF.CreationDate,2024-08-10T21:36:20-07:00*%
%TF.ProjectId,v2,76322e6b-6963-4616-945f-706362585858,rev?*%
%TF.SameCoordinates,Original*%
%TF.FileFunction,Paste,Top*%
%TF.FilePolarity,Positive*%
%FSLAX46Y46*%
G04 Gerber Fmt 4.6, Leading zero omitted, Abs format (unit mm)*
G04 Created by KiCad (PCBNEW 8.0.3) date 2024-08-10 21:36:20*
%MOMM*%
%LPD*%
G01*
G04 APERTURE LIST*
G04 Aperture macros list*
%AMRoundRect*
0 Rectangle with rounded corners*
0 $1 Rounding radius*
0 $2 $3 $4 $5 $6 $7 $8 $9 X,Y pos of 4 corners*
0 Add a 4 corners polygon primitive as box body*
4,1,4,$2,$3,$4,$5,$6,$7,$8,$9,$2,$3,0*
0 Add four circle primitives for the rounded corners*
1,1,$1+$1,$2,$3*
1,1,$1+$1,$4,$5*
1,1,$1+$1,$6,$7*
1,1,$1+$1,$8,$9*
0 Add four rect primitives between the rounded corners*
20,1,$1+$1,$2,$3,$4,$5,0*
20,1,$1+$1,$4,$5,$6,$7,0*
20,1,$1+$1,$6,$7,$8,$9,0*
20,1,$1+$1,$8,$9,$2,$3,0*%
G04 Aperture macros list end*
%ADD10RoundRect,0.237500X-0.237500X0.300000X-0.237500X-0.300000X0.237500X-0.300000X0.237500X0.300000X0*%
%ADD11RoundRect,0.147500X-0.457500X-0.147500X0.457500X-0.147500X0.457500X0.147500X-0.457500X0.147500X0*%
%ADD12R,0.558800X1.270000*%
%ADD13RoundRect,0.147500X-0.147500X0.457500X-0.147500X-0.457500X0.147500X-0.457500X0.147500X0.457500X0*%
%ADD14R,0.475000X0.300000*%
%ADD15R,1.270000X0.558800*%
%ADD16R,0.650000X0.800000*%
%ADD17R,0.500000X0.800000*%
%ADD18RoundRect,0.237500X-0.237500X0.250000X-0.237500X-0.250000X0.237500X-0.250000X0.237500X0.250000X0*%
%ADD19RoundRect,0.237500X-0.250000X-0.237500X0.250000X-0.237500X0.250000X0.237500X-0.250000X0.237500X0*%
%ADD20RoundRect,0.237500X0.237500X-0.250000X0.237500X0.250000X-0.237500X0.250000X-0.237500X-0.250000X0*%
%ADD21R,1.447800X4.292600*%
%ADD22RoundRect,0.237500X0.300000X0.237500X-0.300000X0.237500X-0.300000X-0.237500X0.300000X-0.237500X0*%
%ADD23RoundRect,0.237500X0.237500X-0.300000X0.237500X0.300000X-0.237500X0.300000X-0.237500X-0.300000X0*%
%ADD24RoundRect,0.237500X-0.300000X-0.237500X0.300000X-0.237500X0.300000X0.237500X-0.300000X0.237500X0*%
%ADD25R,1.346200X0.279400*%
%ADD26R,0.279400X1.346200*%
%ADD27RoundRect,0.250000X0.650000X-0.412500X0.650000X0.412500X-0.650000X0.412500X-0.650000X-0.412500X0*%
G04 APERTURE END LIST*
D10*
%TO.C,C22*%
X146900000Y-74337500D03*
X146900000Y-76062500D03*
%TD*%
D11*
%TO.C,U11*%
X138982500Y-81250000D03*
X138982500Y-82200000D03*
X138982500Y-83150000D03*
X141492500Y-83150000D03*
X141492500Y-81250000D03*
%TD*%
D12*
%TO.C,U8*%
X148339800Y-78904600D03*
X147400000Y-78904600D03*
X146460200Y-78904600D03*
X146460200Y-81495400D03*
X148339800Y-81495400D03*
%TD*%
D13*
%TO.C,U7*%
X129450000Y-80755000D03*
X127550000Y-80755000D03*
X127550000Y-78245000D03*
X128500000Y-78245000D03*
X129450000Y-78245000D03*
%TD*%
D14*
%TO.C,U6*%
X137571450Y-75200000D03*
X137571450Y-75700000D03*
X137571450Y-76200000D03*
X135895450Y-76200000D03*
X135895450Y-75700000D03*
X135895450Y-75200000D03*
%TD*%
D15*
%TO.C,U5*%
X145238400Y-76939800D03*
X145238400Y-76000000D03*
X145238400Y-75060200D03*
X142800000Y-75060200D03*
X142800000Y-76000000D03*
X142800000Y-76939800D03*
%TD*%
D16*
%TO.C,RN8*%
X144000000Y-105000000D03*
D17*
X144800000Y-105000000D03*
X145600000Y-105000000D03*
D16*
X146400000Y-105000000D03*
X146400000Y-103200000D03*
D17*
X145600000Y-103200000D03*
X144800000Y-103200000D03*
D16*
X144000000Y-103200000D03*
%TD*%
%TO.C,RN7*%
X139500000Y-105000000D03*
D17*
X140300000Y-105000000D03*
X141100000Y-105000000D03*
D16*
X141900000Y-105000000D03*
X141900000Y-103200000D03*
D17*
X141100000Y-103200000D03*
X140300000Y-103200000D03*
D16*
X139500000Y-103200000D03*
%TD*%
%TO.C,RN6*%
X135000000Y-103200000D03*
D17*
X135800000Y-103200000D03*
X136600000Y-103200000D03*
D16*
X137400000Y-103200000D03*
X137400000Y-105000000D03*
D17*
X136600000Y-105000000D03*
X135800000Y-105000000D03*
D16*
X135000000Y-105000000D03*
%TD*%
%TO.C,RN5*%
X130500000Y-105000000D03*
D17*
X131300000Y-105000000D03*
X132100000Y-105000000D03*
D16*
X132900000Y-105000000D03*
X132900000Y-103200000D03*
D17*
X132100000Y-103200000D03*
X131300000Y-103200000D03*
D16*
X130500000Y-103200000D03*
%TD*%
D18*
%TO.C,R10*%
X127800000Y-103075000D03*
X127800000Y-104900000D03*
%TD*%
D19*
%TO.C,R6*%
X129087500Y-88700000D03*
X130912500Y-88700000D03*
%TD*%
D20*
%TO.C,R5*%
X133193450Y-72637500D03*
X133193450Y-74462500D03*
%TD*%
D18*
%TO.C,R4*%
X134733450Y-74462500D03*
X134733450Y-72637500D03*
%TD*%
%TO.C,R2*%
X126300000Y-103075000D03*
X126300000Y-104900000D03*
%TD*%
%TO.C,R1*%
X129900000Y-97812500D03*
X129900000Y-95987500D03*
%TD*%
D21*
%TO.C,L1*%
X133800000Y-79200000D03*
X136644800Y-79200000D03*
%TD*%
D22*
%TO.C,C30*%
X144862500Y-83200000D03*
X143137500Y-83200000D03*
%TD*%
%TO.C,C29*%
X140662500Y-79700000D03*
X138937500Y-79700000D03*
%TD*%
D10*
%TO.C,C28*%
X126000000Y-80762500D03*
X126000000Y-79037500D03*
%TD*%
D23*
%TO.C,C27*%
X131000000Y-78237500D03*
X131000000Y-79962500D03*
%TD*%
D24*
%TO.C,C24*%
X146437500Y-83200000D03*
X148162500Y-83200000D03*
%TD*%
%TO.C,C23*%
X143137500Y-81500000D03*
X144862500Y-81500000D03*
%TD*%
D23*
%TO.C,C21*%
X140253450Y-75037500D03*
X140253450Y-76762500D03*
%TD*%
%TO.C,C20*%
X138733450Y-75037500D03*
X138733450Y-76762500D03*
%TD*%
D22*
%TO.C,C19*%
X132970950Y-76000000D03*
X134695950Y-76000000D03*
%TD*%
D24*
%TO.C,C18*%
X143137500Y-78400000D03*
X144862500Y-78400000D03*
%TD*%
D22*
%TO.C,C17*%
X132262500Y-85400000D03*
X130537500Y-85400000D03*
%TD*%
%TO.C,C16*%
X130862500Y-86900000D03*
X129137500Y-86900000D03*
%TD*%
D24*
%TO.C,C15*%
X145937500Y-95200000D03*
X147662500Y-95200000D03*
%TD*%
%TO.C,C14*%
X144637500Y-96700000D03*
X146362500Y-96700000D03*
%TD*%
D22*
%TO.C,C7*%
X127900000Y-101600000D03*
X126175000Y-101600000D03*
%TD*%
D10*
%TO.C,C1*%
X131400000Y-97762500D03*
X131400000Y-96037500D03*
%TD*%
D25*
%TO.C,U1*%
X132643000Y-94800000D03*
X132643000Y-94300001D03*
X132643000Y-93800000D03*
X132643000Y-93300001D03*
X132643000Y-92799999D03*
X132643000Y-92300000D03*
X132643000Y-91800001D03*
X132643000Y-91300000D03*
X132643000Y-90800000D03*
X132643000Y-90299999D03*
X132643000Y-89800000D03*
X132643000Y-89300001D03*
X132643000Y-88799999D03*
X132643000Y-88300000D03*
X132643000Y-87799999D03*
X132643000Y-87300000D03*
D26*
X134671500Y-85271500D03*
X135171499Y-85271500D03*
X135671500Y-85271500D03*
X136171499Y-85271500D03*
X136671501Y-85271500D03*
X137171500Y-85271500D03*
X137671499Y-85271500D03*
X138171500Y-85271500D03*
X138671500Y-85271500D03*
X139171501Y-85271500D03*
X139671500Y-85271500D03*
X140171499Y-85271500D03*
X140671501Y-85271500D03*
X141171500Y-85271500D03*
X141671501Y-85271500D03*
X142171500Y-85271500D03*
D25*
X144200000Y-87300000D03*
X144200000Y-87799999D03*
X144200000Y-88300000D03*
X144200000Y-88799999D03*
X144200000Y-89300001D03*
X144200000Y-89800000D03*
X144200000Y-90299999D03*
X144200000Y-90800000D03*
X144200000Y-91300000D03*
X144200000Y-91800001D03*
X144200000Y-92300000D03*
X144200000Y-92799999D03*
X144200000Y-93300001D03*
X144200000Y-93800000D03*
X144200000Y-94300001D03*
X144200000Y-94800000D03*
D26*
X142171500Y-96828500D03*
X141671501Y-96828500D03*
X141171500Y-96828500D03*
X140671501Y-96828500D03*
X140171499Y-96828500D03*
X139671500Y-96828500D03*
X139171501Y-96828500D03*
X138671500Y-96828500D03*
X138171500Y-96828500D03*
X137671499Y-96828500D03*
X137171500Y-96828500D03*
X136671501Y-96828500D03*
X136171499Y-96828500D03*
X135671500Y-96828500D03*
X135171499Y-96828500D03*
X134671500Y-96828500D03*
%TD*%
D23*
%TO.C,C12*%
X145921500Y-88541294D03*
X145921500Y-86816294D03*
%TD*%
D24*
%TO.C,C3*%
X145921500Y-93441294D03*
X147646500Y-93441294D03*
%TD*%
%TO.C,C5*%
X145921500Y-90441294D03*
X147646500Y-90441294D03*
%TD*%
D22*
%TO.C,C2*%
X147646500Y-91941294D03*
X145921500Y-91941294D03*
%TD*%
D24*
%TO.C,C8*%
X129196500Y-90241294D03*
X130921500Y-90241294D03*
%TD*%
%TO.C,C9*%
X129196500Y-91741294D03*
X130921500Y-91741294D03*
%TD*%
D27*
%TO.C,C13*%
X147821500Y-88741294D03*
X147821500Y-85616294D03*
%TD*%
M02*
