%TF.GenerationSoftware,KiCad,Pcbnew,8.0.3*%
%TF.CreationDate,2024-08-10T21:36:20-07:00*%
%TF.ProjectId,v2,76322e6b-6963-4616-945f-706362585858,rev?*%
%TF.SameCoordinates,Original*%
%TF.FileFunction,Copper,L1,Top*%
%TF.FilePolarity,Positive*%
%FSLAX46Y46*%
G04 Gerber Fmt 4.6, Leading zero omitted, Abs format (unit mm)*
G04 Created by KiCad (PCBNEW 8.0.3) date 2024-08-10 21:36:20*
%MOMM*%
%LPD*%
G01*
G04 APERTURE LIST*
G04 Aperture macros list*
%AMRoundRect*
0 Rectangle with rounded corners*
0 $1 Rounding radius*
0 $2 $3 $4 $5 $6 $7 $8 $9 X,Y pos of 4 corners*
0 Add a 4 corners polygon primitive as box body*
4,1,4,$2,$3,$4,$5,$6,$7,$8,$9,$2,$3,0*
0 Add four circle primitives for the rounded corners*
1,1,$1+$1,$2,$3*
1,1,$1+$1,$4,$5*
1,1,$1+$1,$6,$7*
1,1,$1+$1,$8,$9*
0 Add four rect primitives between the rounded corners*
20,1,$1+$1,$2,$3,$4,$5,0*
20,1,$1+$1,$4,$5,$6,$7,0*
20,1,$1+$1,$6,$7,$8,$9,0*
20,1,$1+$1,$8,$9,$2,$3,0*%
G04 Aperture macros list end*
%TA.AperFunction,ComponentPad*%
%ADD10R,1.700000X1.700000*%
%TD*%
%TA.AperFunction,SMDPad,CuDef*%
%ADD11RoundRect,0.237500X-0.237500X0.300000X-0.237500X-0.300000X0.237500X-0.300000X0.237500X0.300000X0*%
%TD*%
%TA.AperFunction,SMDPad,CuDef*%
%ADD12RoundRect,0.147500X-0.457500X-0.147500X0.457500X-0.147500X0.457500X0.147500X-0.457500X0.147500X0*%
%TD*%
%TA.AperFunction,SMDPad,CuDef*%
%ADD13R,0.558800X1.270000*%
%TD*%
%TA.AperFunction,SMDPad,CuDef*%
%ADD14RoundRect,0.147500X-0.147500X0.457500X-0.147500X-0.457500X0.147500X-0.457500X0.147500X0.457500X0*%
%TD*%
%TA.AperFunction,SMDPad,CuDef*%
%ADD15R,0.475000X0.300000*%
%TD*%
%TA.AperFunction,SMDPad,CuDef*%
%ADD16R,1.270000X0.558800*%
%TD*%
%TA.AperFunction,SMDPad,CuDef*%
%ADD17R,0.650000X0.800000*%
%TD*%
%TA.AperFunction,SMDPad,CuDef*%
%ADD18R,0.500000X0.800000*%
%TD*%
%TA.AperFunction,SMDPad,CuDef*%
%ADD19RoundRect,0.237500X-0.237500X0.250000X-0.237500X-0.250000X0.237500X-0.250000X0.237500X0.250000X0*%
%TD*%
%TA.AperFunction,SMDPad,CuDef*%
%ADD20RoundRect,0.237500X-0.250000X-0.237500X0.250000X-0.237500X0.250000X0.237500X-0.250000X0.237500X0*%
%TD*%
%TA.AperFunction,SMDPad,CuDef*%
%ADD21RoundRect,0.237500X0.237500X-0.250000X0.237500X0.250000X-0.237500X0.250000X-0.237500X-0.250000X0*%
%TD*%
%TA.AperFunction,SMDPad,CuDef*%
%ADD22R,1.447800X4.292600*%
%TD*%
%TA.AperFunction,ComponentPad*%
%ADD23RoundRect,0.250000X0.350000X0.625000X-0.350000X0.625000X-0.350000X-0.625000X0.350000X-0.625000X0*%
%TD*%
%TA.AperFunction,ComponentPad*%
%ADD24O,1.200000X1.750000*%
%TD*%
%TA.AperFunction,SMDPad,CuDef*%
%ADD25RoundRect,0.237500X0.300000X0.237500X-0.300000X0.237500X-0.300000X-0.237500X0.300000X-0.237500X0*%
%TD*%
%TA.AperFunction,SMDPad,CuDef*%
%ADD26RoundRect,0.237500X0.237500X-0.300000X0.237500X0.300000X-0.237500X0.300000X-0.237500X-0.300000X0*%
%TD*%
%TA.AperFunction,SMDPad,CuDef*%
%ADD27RoundRect,0.237500X-0.300000X-0.237500X0.300000X-0.237500X0.300000X0.237500X-0.300000X0.237500X0*%
%TD*%
%TA.AperFunction,ComponentPad*%
%ADD28O,1.700000X1.700000*%
%TD*%
%TA.AperFunction,SMDPad,CuDef*%
%ADD29R,1.346200X0.279400*%
%TD*%
%TA.AperFunction,SMDPad,CuDef*%
%ADD30R,0.279400X1.346200*%
%TD*%
%TA.AperFunction,SMDPad,CuDef*%
%ADD31RoundRect,0.250000X0.650000X-0.412500X0.650000X0.412500X-0.650000X0.412500X-0.650000X-0.412500X0*%
%TD*%
%TA.AperFunction,ViaPad*%
%ADD32C,0.600000*%
%TD*%
%TA.AperFunction,Conductor*%
%ADD33C,0.300000*%
%TD*%
%TA.AperFunction,Conductor*%
%ADD34C,0.500000*%
%TD*%
%TA.AperFunction,Conductor*%
%ADD35C,0.200000*%
%TD*%
G04 APERTURE END LIST*
D10*
%TO.P,J8,1,Pin_1*%
%TO.N,+2V5*%
X127100000Y-95100000D03*
%TD*%
%TO.P,J7,1,Pin_1*%
%TO.N,+3V3*%
X127300000Y-83800000D03*
%TD*%
%TO.P,J6,1,Pin_1*%
%TO.N,-2V5*%
X127100000Y-98700000D03*
%TD*%
%TO.P,J5,1,Pin_1*%
%TO.N,+5V*%
X143900000Y-73300000D03*
%TD*%
D11*
%TO.P,C22,1*%
%TO.N,GND*%
X146900000Y-74337500D03*
%TO.P,C22,2*%
%TO.N,-5V*%
X146900000Y-76062500D03*
%TD*%
D12*
%TO.P,U11,1,IN*%
%TO.N,+5V*%
X138982500Y-81250000D03*
%TO.P,U11,2,GND*%
%TO.N,GND*%
X138982500Y-82200000D03*
%TO.P,U11,3,EN*%
%TO.N,+5V*%
X138982500Y-83150000D03*
%TO.P,U11,4,NR/FB*%
%TO.N,Net-(U11-NR{slash}FB)*%
X141492500Y-83150000D03*
%TO.P,U11,5,OUT*%
%TO.N,+2V5*%
X141492500Y-81250000D03*
%TD*%
D13*
%TO.P,U8,1,GND*%
%TO.N,GND*%
X148339800Y-78904600D03*
%TO.P,U8,2,IN*%
%TO.N,-5V*%
X147400000Y-78904600D03*
%TO.P,U8,3,EN*%
X146460200Y-78904600D03*
%TO.P,U8,4,NR*%
%TO.N,Net-(U8-NR)*%
X146460200Y-81495400D03*
%TO.P,U8,5,OUT*%
%TO.N,-2V5*%
X148339800Y-81495400D03*
%TD*%
D14*
%TO.P,U7,5,OUT*%
%TO.N,+3V3*%
X129450000Y-80755000D03*
%TO.P,U7,4,NR/FB*%
%TO.N,Net-(U7-NR{slash}FB)*%
X127550000Y-80755000D03*
%TO.P,U7,3,EN*%
%TO.N,+5V*%
X127550000Y-78245000D03*
%TO.P,U7,2,GND*%
%TO.N,GND*%
X128500000Y-78245000D03*
%TO.P,U7,1,IN*%
%TO.N,+5V*%
X129450000Y-78245000D03*
%TD*%
D15*
%TO.P,U6,6,VOUT*%
%TO.N,+5V*%
X137571450Y-75200000D03*
%TO.P,U6,5,SW*%
%TO.N,Net-(U6-SW)*%
X137571450Y-75700000D03*
%TO.P,U6,4,GND*%
%TO.N,GND*%
X137571450Y-76200000D03*
%TO.P,U6,3,VIN*%
%TO.N,/Booster/VBATT*%
X135895450Y-76200000D03*
%TO.P,U6,2,EN*%
X135895450Y-75700000D03*
%TO.P,U6,1,FB*%
%TO.N,Net-(U6-FB)*%
X135895450Y-75200000D03*
%TD*%
D16*
%TO.P,U5,1,GND*%
%TO.N,GND*%
X145238400Y-76939800D03*
%TO.P,U5,2,OUT*%
%TO.N,-5V*%
X145238400Y-76000000D03*
%TO.P,U5,3,CAP-*%
%TO.N,Net-(U5-CAP-)*%
X145238400Y-75060200D03*
%TO.P,U5,4,~SD*%
%TO.N,+5V*%
X142800000Y-75060200D03*
%TO.P,U5,5,V+*%
X142800000Y-76000000D03*
%TO.P,U5,6,CAP+*%
%TO.N,Net-(U5-CAP+)*%
X142800000Y-76939800D03*
%TD*%
D17*
%TO.P,RN8,1*%
%TO.N,/ADS1299/I3*%
X144000000Y-105000000D03*
D18*
%TO.P,RN8,2*%
%TO.N,/ADS1299/I2*%
X144800000Y-105000000D03*
%TO.P,RN8,3*%
X145600000Y-105000000D03*
D17*
%TO.P,RN8,4*%
%TO.N,/ADS1299/I1*%
X146400000Y-105000000D03*
%TO.P,RN8,5*%
%TO.N,/ADS1299/IN1P*%
X146400000Y-103200000D03*
D18*
%TO.P,RN8,6*%
%TO.N,/ADS1299/IN1N*%
X145600000Y-103200000D03*
%TO.P,RN8,7*%
%TO.N,/ADS1299/IN2P*%
X144800000Y-103200000D03*
D17*
%TO.P,RN8,8*%
%TO.N,/ADS1299/IN2N*%
X144000000Y-103200000D03*
%TD*%
%TO.P,RN7,1*%
%TO.N,/ADS1299/I5*%
X139500000Y-105000000D03*
D18*
%TO.P,RN7,2*%
%TO.N,/ADS1299/I4*%
X140300000Y-105000000D03*
%TO.P,RN7,3*%
X141100000Y-105000000D03*
D17*
%TO.P,RN7,4*%
%TO.N,/ADS1299/I3*%
X141900000Y-105000000D03*
%TO.P,RN7,5*%
%TO.N,/ADS1299/IN3P*%
X141900000Y-103200000D03*
D18*
%TO.P,RN7,6*%
%TO.N,/ADS1299/IN3N*%
X141100000Y-103200000D03*
%TO.P,RN7,7*%
%TO.N,/ADS1299/IN4P*%
X140300000Y-103200000D03*
D17*
%TO.P,RN7,8*%
%TO.N,/ADS1299/IN4N*%
X139500000Y-103200000D03*
%TD*%
%TO.P,RN6,8*%
%TO.N,/ADS1299/IN6N*%
X135000000Y-103200000D03*
D18*
%TO.P,RN6,7*%
%TO.N,/ADS1299/IN6P*%
X135800000Y-103200000D03*
%TO.P,RN6,6*%
%TO.N,/ADS1299/IN5N*%
X136600000Y-103200000D03*
D17*
%TO.P,RN6,5*%
%TO.N,/ADS1299/IN5P*%
X137400000Y-103200000D03*
%TO.P,RN6,4*%
%TO.N,/ADS1299/I5*%
X137400000Y-105000000D03*
D18*
%TO.P,RN6,3*%
%TO.N,/ADS1299/I6*%
X136600000Y-105000000D03*
%TO.P,RN6,2*%
X135800000Y-105000000D03*
D17*
%TO.P,RN6,1*%
%TO.N,/ADS1299/I7*%
X135000000Y-105000000D03*
%TD*%
%TO.P,RN5,1*%
%TO.N,/ADS1299/I1*%
X130500000Y-105000000D03*
D18*
%TO.P,RN5,2*%
%TO.N,/ADS1299/I8*%
X131300000Y-105000000D03*
%TO.P,RN5,3*%
X132100000Y-105000000D03*
D17*
%TO.P,RN5,4*%
%TO.N,/ADS1299/I7*%
X132900000Y-105000000D03*
%TO.P,RN5,5*%
%TO.N,/ADS1299/IN7P*%
X132900000Y-103200000D03*
D18*
%TO.P,RN5,6*%
%TO.N,/ADS1299/IN7N*%
X132100000Y-103200000D03*
%TO.P,RN5,7*%
%TO.N,/ADS1299/IN8P*%
X131300000Y-103200000D03*
D17*
%TO.P,RN5,8*%
%TO.N,/ADS1299/IN8N*%
X130500000Y-103200000D03*
%TD*%
D19*
%TO.P,R10,1*%
%TO.N,/ADS1299/Bias*%
X127800000Y-103075000D03*
%TO.P,R10,2*%
%TO.N,Net-(R10-Pad2)*%
X127800000Y-104900000D03*
%TD*%
D20*
%TO.P,R6,1*%
%TO.N,+3V3*%
X129087500Y-88700000D03*
%TO.P,R6,2*%
%TO.N,Net-(U1-CLKSEL)*%
X130912500Y-88700000D03*
%TD*%
D21*
%TO.P,R5,2*%
%TO.N,GND*%
X133193450Y-72637500D03*
%TO.P,R5,1*%
%TO.N,Net-(U6-FB)*%
X133193450Y-74462500D03*
%TD*%
D19*
%TO.P,R4,2*%
%TO.N,Net-(U6-FB)*%
X134733450Y-74462500D03*
%TO.P,R4,1*%
%TO.N,+5V*%
X134733450Y-72637500D03*
%TD*%
%TO.P,R2,1*%
%TO.N,Net-(R10-Pad2)*%
X126300000Y-103075000D03*
%TO.P,R2,2*%
%TO.N,/ADS1299/BI*%
X126300000Y-104900000D03*
%TD*%
%TO.P,R1,2*%
%TO.N,/ADS1299/Bias*%
X129900000Y-97812500D03*
%TO.P,R1,1*%
%TO.N,Net-(U1-BIASIN)*%
X129900000Y-95987500D03*
%TD*%
D22*
%TO.P,L1,1,1*%
%TO.N,/Booster/VBATT*%
X133800000Y-79200000D03*
%TO.P,L1,2,2*%
%TO.N,Net-(U6-SW)*%
X136644800Y-79200000D03*
%TD*%
D23*
%TO.P,J1,1,Pin_1*%
%TO.N,/Booster/VBATT*%
X129722400Y-75100000D03*
D24*
%TO.P,J1,2,Pin_2*%
%TO.N,GND*%
X127722400Y-75100000D03*
%TD*%
D25*
%TO.P,C30,1*%
%TO.N,GND*%
X144862500Y-83200000D03*
%TO.P,C30,2*%
%TO.N,Net-(U11-NR{slash}FB)*%
X143137500Y-83200000D03*
%TD*%
%TO.P,C29,1*%
%TO.N,GND*%
X140662500Y-79700000D03*
%TO.P,C29,2*%
%TO.N,+5V*%
X138937500Y-79700000D03*
%TD*%
D11*
%TO.P,C28,2*%
%TO.N,Net-(U7-NR{slash}FB)*%
X126000000Y-80762500D03*
%TO.P,C28,1*%
%TO.N,GND*%
X126000000Y-79037500D03*
%TD*%
D26*
%TO.P,C27,2*%
%TO.N,+5V*%
X131000000Y-78237500D03*
%TO.P,C27,1*%
%TO.N,GND*%
X131000000Y-79962500D03*
%TD*%
D27*
%TO.P,C24,1*%
%TO.N,GND*%
X146437500Y-83200000D03*
%TO.P,C24,2*%
%TO.N,-2V5*%
X148162500Y-83200000D03*
%TD*%
%TO.P,C23,1*%
%TO.N,GND*%
X143137500Y-81500000D03*
%TO.P,C23,2*%
%TO.N,Net-(U8-NR)*%
X144862500Y-81500000D03*
%TD*%
D26*
%TO.P,C21,2*%
%TO.N,+5V*%
X140253450Y-75037500D03*
%TO.P,C21,1*%
%TO.N,GND*%
X140253450Y-76762500D03*
%TD*%
%TO.P,C20,2*%
%TO.N,+5V*%
X138733450Y-75037500D03*
%TO.P,C20,1*%
%TO.N,GND*%
X138733450Y-76762500D03*
%TD*%
D25*
%TO.P,C19,2*%
%TO.N,GND*%
X132970950Y-76000000D03*
%TO.P,C19,1*%
%TO.N,/Booster/VBATT*%
X134695950Y-76000000D03*
%TD*%
D27*
%TO.P,C18,1*%
%TO.N,Net-(U5-CAP+)*%
X143137500Y-78400000D03*
%TO.P,C18,2*%
%TO.N,Net-(U5-CAP-)*%
X144862500Y-78400000D03*
%TD*%
D25*
%TO.P,C17,1*%
%TO.N,+3V3*%
X132262500Y-85400000D03*
%TO.P,C17,2*%
%TO.N,GND*%
X130537500Y-85400000D03*
%TD*%
%TO.P,C16,1*%
%TO.N,+3V3*%
X130862500Y-86900000D03*
%TO.P,C16,2*%
%TO.N,GND*%
X129137500Y-86900000D03*
%TD*%
D27*
%TO.P,C15,1*%
%TO.N,-2V5*%
X145937500Y-95200000D03*
%TO.P,C15,2*%
%TO.N,GND*%
X147662500Y-95200000D03*
%TD*%
%TO.P,C14,1*%
%TO.N,-2V5*%
X144637500Y-96700000D03*
%TO.P,C14,2*%
%TO.N,GND*%
X146362500Y-96700000D03*
%TD*%
D25*
%TO.P,C7,1*%
%TO.N,/ADS1299/Bias*%
X127900000Y-101600000D03*
%TO.P,C7,2*%
%TO.N,GND*%
X126175000Y-101600000D03*
%TD*%
D11*
%TO.P,C1,2*%
%TO.N,/ADS1299/Bias*%
X131400000Y-97762500D03*
%TO.P,C1,1*%
%TO.N,Net-(U1-BIASIN)*%
X131400000Y-96037500D03*
%TD*%
D10*
%TO.P,J3,1,Pin_1*%
%TO.N,/ADS1299/MOSI*%
X105720000Y-60320000D03*
D28*
%TO.P,J3,2,Pin_2*%
%TO.N,/ADS1299/CS*%
X105720000Y-62860000D03*
%TO.P,J3,3,Pin_3*%
%TO.N,unconnected-(J3-Pin_3-Pad3)*%
X105720000Y-65400000D03*
%TO.P,J3,4,Pin_4*%
%TO.N,/ADS1299/SCLK*%
X105720000Y-67940000D03*
%TO.P,J3,5,Pin_5*%
%TO.N,/ADS1299/MISO*%
X105720000Y-70480000D03*
%TO.P,J3,6,Pin_6*%
%TO.N,/ADS1299/DRDY*%
X105720000Y-73020000D03*
%TO.P,J3,7,Pin_7*%
%TO.N,/ADS1299/START*%
X105720000Y-75560000D03*
%TO.P,J3,8,Pin_8*%
%TO.N,unconnected-(J3-Pin_8-Pad8)*%
X105720000Y-78100000D03*
%TO.P,J3,9,Pin_9*%
%TO.N,/ADS1299/RESET*%
X105720000Y-80640000D03*
%TO.P,J3,10,Pin_10*%
%TO.N,unconnected-(J3-Pin_10-Pad10)*%
X105720000Y-83180000D03*
%TO.P,J3,11,Pin_11*%
%TO.N,/ADS1299/PDWN*%
X105720000Y-85720000D03*
%TO.P,J3,12,Pin_12*%
%TO.N,unconnected-(J3-Pin_12-Pad12)*%
X105720000Y-88260000D03*
%TO.P,J3,13,Pin_13*%
%TO.N,unconnected-(J3-Pin_13-Pad13)*%
X105720000Y-90800000D03*
%TO.P,J3,14,Pin_14*%
%TO.N,unconnected-(J3-Pin_14-Pad14)*%
X105720000Y-93340000D03*
%TO.P,J3,15,Pin_15*%
%TO.N,unconnected-(J3-Pin_15-Pad15)*%
X105720000Y-95880000D03*
%TO.P,J3,16,Pin_16*%
%TO.N,unconnected-(J3-Pin_16-Pad16)*%
X105720000Y-98420000D03*
%TO.P,J3,17,Pin_17*%
%TO.N,unconnected-(J3-Pin_17-Pad17)*%
X105720000Y-100960000D03*
%TO.P,J3,18,Pin_18*%
%TO.N,GND*%
X105720000Y-103500000D03*
%TO.P,J3,19,Pin_19*%
%TO.N,+5V*%
X105720000Y-106040000D03*
%TO.P,J3,20,Pin_20*%
%TO.N,unconnected-(J3-Pin_20-Pad20)*%
X105720000Y-108580000D03*
%TD*%
D10*
%TO.P,J2,1,Pin_1*%
%TO.N,/ADS1299/BI*%
X127100000Y-108500000D03*
D28*
%TO.P,J2,2,Pin_2*%
%TO.N,/ADS1299/I8*%
X129640000Y-108500000D03*
%TO.P,J2,3,Pin_3*%
%TO.N,/ADS1299/I7*%
X132180000Y-108500000D03*
%TO.P,J2,4,Pin_4*%
%TO.N,/ADS1299/I6*%
X134720000Y-108500000D03*
%TO.P,J2,5,Pin_5*%
%TO.N,/ADS1299/I5*%
X137260000Y-108500000D03*
%TO.P,J2,6,Pin_6*%
%TO.N,/ADS1299/I4*%
X139800000Y-108500000D03*
%TO.P,J2,7,Pin_7*%
%TO.N,/ADS1299/I3*%
X142340000Y-108500000D03*
%TO.P,J2,8,Pin_8*%
%TO.N,/ADS1299/I2*%
X144880000Y-108500000D03*
%TO.P,J2,9,Pin_9*%
%TO.N,/ADS1299/I1*%
X147420000Y-108500000D03*
%TD*%
D10*
%TO.P,J4,1,Pin_1*%
%TO.N,unconnected-(J4-Pin_1-Pad1)*%
X123500000Y-60320000D03*
D28*
%TO.P,J4,2,Pin_2*%
%TO.N,unconnected-(J4-Pin_2-Pad2)*%
X123500000Y-62860000D03*
%TO.P,J4,3,Pin_3*%
%TO.N,unconnected-(J4-Pin_3-Pad3)*%
X123500000Y-65400000D03*
%TO.P,J4,4,Pin_4*%
%TO.N,unconnected-(J4-Pin_4-Pad4)*%
X123500000Y-67940000D03*
%TO.P,J4,5,Pin_5*%
%TO.N,unconnected-(J4-Pin_5-Pad5)*%
X123500000Y-70480000D03*
%TO.P,J4,6,Pin_6*%
%TO.N,unconnected-(J4-Pin_6-Pad6)*%
X123500000Y-73020000D03*
%TO.P,J4,7,Pin_7*%
%TO.N,unconnected-(J4-Pin_7-Pad7)*%
X123500000Y-75560000D03*
%TO.P,J4,8,Pin_8*%
%TO.N,unconnected-(J4-Pin_8-Pad8)*%
X123500000Y-78100000D03*
%TO.P,J4,9,Pin_9*%
%TO.N,unconnected-(J4-Pin_9-Pad9)*%
X123500000Y-80640000D03*
%TO.P,J4,10,Pin_10*%
%TO.N,unconnected-(J4-Pin_10-Pad10)*%
X123500000Y-83180000D03*
%TO.P,J4,11,Pin_11*%
%TO.N,unconnected-(J4-Pin_11-Pad11)*%
X123500000Y-85720000D03*
%TO.P,J4,12,Pin_12*%
%TO.N,unconnected-(J4-Pin_12-Pad12)*%
X123500000Y-88260000D03*
%TO.P,J4,13,Pin_13*%
%TO.N,unconnected-(J4-Pin_13-Pad13)*%
X123500000Y-90800000D03*
%TO.P,J4,14,Pin_14*%
%TO.N,unconnected-(J4-Pin_14-Pad14)*%
X123500000Y-93340000D03*
%TO.P,J4,15,Pin_15*%
%TO.N,unconnected-(J4-Pin_15-Pad15)*%
X123500000Y-95880000D03*
%TO.P,J4,16,Pin_16*%
%TO.N,unconnected-(J4-Pin_16-Pad16)*%
X123500000Y-98420000D03*
%TO.P,J4,17,Pin_17*%
%TO.N,unconnected-(J4-Pin_17-Pad17)*%
X123500000Y-100960000D03*
%TO.P,J4,18,Pin_18*%
%TO.N,unconnected-(J4-Pin_18-Pad18)*%
X123500000Y-103500000D03*
%TO.P,J4,19,Pin_19*%
%TO.N,unconnected-(J4-Pin_19-Pad19)*%
X123500000Y-106040000D03*
%TO.P,J4,20,Pin_20*%
%TO.N,unconnected-(J4-Pin_20-Pad20)*%
X123500000Y-108580000D03*
%TD*%
D29*
%TO.P,U1,64,RESERVED*%
%TO.N,GND*%
X132643000Y-94800000D03*
%TO.P,U1,63,BIASOUT*%
%TO.N,Net-(U1-BIASIN)*%
X132643000Y-94300001D03*
%TO.P,U1,62,BIASIN*%
X132643000Y-93800000D03*
%TO.P,U1,61,BIASINV*%
%TO.N,unconnected-(U1-BIASINV-Pad61)*%
X132643000Y-93300001D03*
%TO.P,U1,60,BIASREF*%
%TO.N,-2V5*%
X132643000Y-92799999D03*
%TO.P,U1,59,AVDD*%
%TO.N,+2V5*%
X132643000Y-92300000D03*
%TO.P,U1,58,AVSS*%
%TO.N,-2V5*%
X132643000Y-91800001D03*
%TO.P,U1,57,AVSS*%
X132643000Y-91300000D03*
%TO.P,U1,56,AVDD*%
%TO.N,+2V5*%
X132643000Y-90800000D03*
%TO.P,U1,55,VCAP3*%
%TO.N,Net-(U1-VCAP3)*%
X132643000Y-90299999D03*
%TO.P,U1,54,AVDD1*%
%TO.N,+2V5*%
X132643000Y-89800000D03*
%TO.P,U1,53,AVSS1*%
%TO.N,-2V5*%
X132643000Y-89300001D03*
%TO.P,U1,52,CLKSEL*%
%TO.N,Net-(U1-CLKSEL)*%
X132643000Y-88799999D03*
%TO.P,U1,51,DGND*%
%TO.N,GND*%
X132643000Y-88300000D03*
%TO.P,U1,50,DVDD*%
%TO.N,+3V3*%
X132643000Y-87799999D03*
%TO.P,U1,49,DGND*%
%TO.N,GND*%
X132643000Y-87300000D03*
D30*
%TO.P,U1,48,DVDD*%
%TO.N,+3V3*%
X134671500Y-85271500D03*
%TO.P,U1,47,\u002ADRDY*%
%TO.N,/ADS1299/DRDY*%
X135171499Y-85271500D03*
%TO.P,U1,46,GPIO4*%
%TO.N,Net-(U1-GPIO4)*%
X135671500Y-85271500D03*
%TO.P,U1,45,GPIO3*%
%TO.N,Net-(U1-GPIO3)*%
X136171499Y-85271500D03*
%TO.P,U1,44,GPIO2*%
%TO.N,Net-(U1-GPIO2)*%
X136671501Y-85271500D03*
%TO.P,U1,43,DOUT*%
%TO.N,/ADS1299/MISO*%
X137171500Y-85271500D03*
%TO.P,U1,42,GPIO1*%
%TO.N,Net-(U1-GPIO1)*%
X137671499Y-85271500D03*
%TO.P,U1,41,DAISY_IN*%
%TO.N,GND*%
X138171500Y-85271500D03*
%TO.P,U1,40,SCLK*%
%TO.N,/ADS1299/SCLK*%
X138671500Y-85271500D03*
%TO.P,U1,39,\u002ACS*%
%TO.N,/ADS1299/CS*%
X139171501Y-85271500D03*
%TO.P,U1,38,START*%
%TO.N,/ADS1299/START*%
X139671500Y-85271500D03*
%TO.P,U1,37*%
%TO.N,N/C*%
X140171499Y-85271500D03*
%TO.P,U1,36,\u002ARESET*%
%TO.N,/ADS1299/RESET*%
X140671501Y-85271500D03*
%TO.P,U1,35,\u002APWDN*%
%TO.N,/ADS1299/PDWN*%
X141171500Y-85271500D03*
%TO.P,U1,34,DIN*%
%TO.N,/ADS1299/MOSI*%
X141671501Y-85271500D03*
%TO.P,U1,33,DGND*%
%TO.N,GND*%
X142171500Y-85271500D03*
D29*
%TO.P,U1,32,AVSS*%
%TO.N,-2V5*%
X144200000Y-87300000D03*
%TO.P,U1,31,RESV1*%
%TO.N,GND*%
X144200000Y-87799999D03*
%TO.P,U1,30,VCAP2*%
%TO.N,Net-(U1-VCAP2)*%
X144200000Y-88300000D03*
%TO.P,U1,29*%
%TO.N,N/C*%
X144200000Y-88799999D03*
%TO.P,U1,28,VCAP1*%
%TO.N,Net-(U1-VCAP1)*%
X144200000Y-89300001D03*
%TO.P,U1,27*%
%TO.N,N/C*%
X144200000Y-89800000D03*
%TO.P,U1,26,VCAP4*%
%TO.N,Net-(U1-VCAP4)*%
X144200000Y-90299999D03*
%TO.P,U1,25,VREFN*%
%TO.N,-2V5*%
X144200000Y-90800000D03*
%TO.P,U1,24,VREFP*%
%TO.N,Net-(U1-VREFP)*%
X144200000Y-91300000D03*
%TO.P,U1,23,AVSS*%
%TO.N,-2V5*%
X144200000Y-91800001D03*
%TO.P,U1,22,AVDD*%
%TO.N,+2V5*%
X144200000Y-92300000D03*
%TO.P,U1,21,AVDD*%
X144200000Y-92799999D03*
%TO.P,U1,20,AVSS*%
%TO.N,-2V5*%
X144200000Y-93300001D03*
%TO.P,U1,19,AVDD*%
%TO.N,+2V5*%
X144200000Y-93800000D03*
%TO.P,U1,18,SRB2*%
%TO.N,-2V5*%
X144200000Y-94300001D03*
%TO.P,U1,17,SRB1*%
X144200000Y-94800000D03*
D30*
%TO.P,U1,16,IN1P*%
%TO.N,/ADS1299/IN1P*%
X142171500Y-96828500D03*
%TO.P,U1,15,IN1N*%
%TO.N,/ADS1299/IN1N*%
X141671501Y-96828500D03*
%TO.P,U1,14,IN2P*%
%TO.N,/ADS1299/IN2P*%
X141171500Y-96828500D03*
%TO.P,U1,13,IN2N*%
%TO.N,/ADS1299/IN2N*%
X140671501Y-96828500D03*
%TO.P,U1,12,IN3P*%
%TO.N,/ADS1299/IN3P*%
X140171499Y-96828500D03*
%TO.P,U1,11,IN3N*%
%TO.N,/ADS1299/IN3N*%
X139671500Y-96828500D03*
%TO.P,U1,10,IN4P*%
%TO.N,/ADS1299/IN4P*%
X139171501Y-96828500D03*
%TO.P,U1,9,IN4N*%
%TO.N,/ADS1299/IN4N*%
X138671500Y-96828500D03*
%TO.P,U1,8,IN5P*%
%TO.N,/ADS1299/IN5P*%
X138171500Y-96828500D03*
%TO.P,U1,7,IN5N*%
%TO.N,/ADS1299/IN5N*%
X137671499Y-96828500D03*
%TO.P,U1,6,IN6P*%
%TO.N,/ADS1299/IN6P*%
X137171500Y-96828500D03*
%TO.P,U1,5,IN6N*%
%TO.N,/ADS1299/IN6N*%
X136671501Y-96828500D03*
%TO.P,U1,4,IN7P*%
%TO.N,/ADS1299/IN7P*%
X136171499Y-96828500D03*
%TO.P,U1,3,IN7N*%
%TO.N,/ADS1299/IN7N*%
X135671500Y-96828500D03*
%TO.P,U1,2,IN8P*%
%TO.N,/ADS1299/IN8P*%
X135171499Y-96828500D03*
%TO.P,U1,1,IN8N*%
%TO.N,/ADS1299/IN8N*%
X134671500Y-96828500D03*
%TD*%
D26*
%TO.P,C12,1*%
%TO.N,Net-(U1-VCAP2)*%
X145921500Y-88541294D03*
%TO.P,C12,2*%
%TO.N,-2V5*%
X145921500Y-86816294D03*
%TD*%
D27*
%TO.P,C3,1*%
%TO.N,Net-(U1-VREFP)*%
X145921500Y-93441294D03*
%TO.P,C3,2*%
%TO.N,-2V5*%
X147646500Y-93441294D03*
%TD*%
%TO.P,C5,1*%
%TO.N,Net-(U1-VCAP4)*%
X145921500Y-90441294D03*
%TO.P,C5,2*%
%TO.N,-2V5*%
X147646500Y-90441294D03*
%TD*%
D25*
%TO.P,C2,1*%
%TO.N,-2V5*%
X147646500Y-91941294D03*
%TO.P,C2,2*%
%TO.N,Net-(U1-VREFP)*%
X145921500Y-91941294D03*
%TD*%
D27*
%TO.P,C8,1*%
%TO.N,-2V5*%
X129196500Y-90241294D03*
%TO.P,C8,2*%
%TO.N,Net-(U1-VCAP3)*%
X130921500Y-90241294D03*
%TD*%
%TO.P,C9,1*%
%TO.N,-2V5*%
X129196500Y-91741294D03*
%TO.P,C9,2*%
%TO.N,Net-(U1-VCAP3)*%
X130921500Y-91741294D03*
%TD*%
D31*
%TO.P,C13,1*%
%TO.N,Net-(U1-VCAP1)*%
X147821500Y-88741294D03*
%TO.P,C13,2*%
%TO.N,-2V5*%
X147821500Y-85616294D03*
%TD*%
D32*
%TO.N,GND*%
X142200000Y-84000000D03*
%TO.N,-2V5*%
X142600000Y-87300000D03*
X143600000Y-96700000D03*
%TO.N,GND*%
X129818750Y-86118750D03*
X131700000Y-84200000D03*
X128400000Y-87600000D03*
%TO.N,-2V5*%
X138300000Y-92380761D03*
X127900000Y-92400000D03*
%TO.N,GND*%
X122700000Y-104800000D03*
X124400000Y-104800000D03*
X122700000Y-102200000D03*
X124400000Y-102200000D03*
X122700000Y-99700000D03*
X124400000Y-99700000D03*
X122700000Y-97100000D03*
X124400000Y-97100000D03*
X122700000Y-92100000D03*
X124400000Y-92100000D03*
X122700000Y-94600000D03*
X124400000Y-94600000D03*
X143500000Y-86500000D03*
X142600000Y-89100000D03*
X138300000Y-89000003D03*
X139900000Y-77900000D03*
X139100000Y-77900000D03*
X140600000Y-77900000D03*
X138400000Y-77900000D03*
%TO.N,+5V*%
X125200000Y-107300000D03*
%TO.N,GND*%
X146900000Y-73300000D03*
%TO.N,Net-(U1-GPIO1)*%
X137700000Y-83900000D03*
%TO.N,GND*%
X138594452Y-83945000D03*
X137949297Y-80215254D03*
X135100000Y-80200000D03*
X137869460Y-81899759D03*
X132171631Y-86510109D03*
X142600000Y-88200000D03*
X142600000Y-86500000D03*
X134500000Y-88300000D03*
%TO.N,-2V5*%
X133900000Y-89000000D03*
%TO.N,GND*%
X132600000Y-95600000D03*
X148300000Y-77700000D03*
X145687372Y-77637809D03*
X141600000Y-79700000D03*
X143100000Y-80600000D03*
X145600000Y-84100000D03*
X147300000Y-96100000D03*
X131300000Y-99699998D03*
X135800000Y-99699998D03*
X145600000Y-99699998D03*
X141100000Y-99699998D03*
X134000000Y-101900000D03*
X143000000Y-101900000D03*
X128800000Y-103100000D03*
X126200000Y-100600000D03*
X126000000Y-77800000D03*
X128900000Y-77000000D03*
X131000000Y-81100000D03*
X132000000Y-76300000D03*
X132000000Y-73000000D03*
%TO.N,-2V5*%
X127900000Y-89600000D03*
%TO.N,+5V*%
X131100000Y-83600000D03*
X132300000Y-82400000D03*
%TO.N,-2V5*%
X147400000Y-84300000D03*
X143125692Y-90861916D03*
%TO.N,+2V5*%
X141500000Y-92200000D03*
%TO.N,+5V*%
X132300000Y-79200000D03*
%TO.N,+2V5*%
X141500000Y-82200000D03*
%TO.N,+5V*%
X141500000Y-76000000D03*
%TO.N,Net-(U1-GPIO4)*%
X135200000Y-83900000D03*
%TO.N,/ADS1299/MOSI*%
X140300000Y-88200000D03*
%TO.N,/ADS1299/PDWN*%
X140300000Y-87300000D03*
%TO.N,/ADS1299/RESET*%
X140325685Y-86444391D03*
%TO.N,/ADS1299/START*%
X138300000Y-88200000D03*
%TO.N,/ADS1299/CS*%
X138300000Y-87300003D03*
%TO.N,/ADS1299/SCLK*%
X138300000Y-86500000D03*
%TO.N,/ADS1299/MISO*%
X136800000Y-86500000D03*
%TO.N,/ADS1299/DRDY*%
X135500000Y-86500000D03*
%TO.N,+2V5*%
X134500000Y-90200000D03*
%TO.N,-2V5*%
X142900000Y-94800000D03*
X142900000Y-93300000D03*
X133900000Y-91600000D03*
X133900000Y-93200000D03*
%TO.N,/ADS1299/IN1P*%
X146400000Y-101900000D03*
%TO.N,/ADS1299/IN1N*%
X145600000Y-101900000D03*
%TO.N,/ADS1299/IN2P*%
X144800000Y-101900000D03*
%TO.N,/ADS1299/IN2N*%
X144000000Y-101900000D03*
%TO.N,/ADS1299/IN3P*%
X141900003Y-101900000D03*
%TO.N,/ADS1299/IN3N*%
X141100000Y-101900000D03*
%TO.N,/ADS1299/IN4P*%
X140300000Y-101900000D03*
%TO.N,/ADS1299/IN4N*%
X139500000Y-101900000D03*
%TO.N,/ADS1299/IN5P*%
X137400009Y-101900000D03*
%TO.N,/ADS1299/IN5N*%
X136600006Y-101900000D03*
%TO.N,/ADS1299/IN6P*%
X135800003Y-101900000D03*
%TO.N,/ADS1299/IN6N*%
X135000000Y-101900000D03*
%TO.N,/ADS1299/IN8N*%
X130499997Y-101900000D03*
%TO.N,/ADS1299/IN8P*%
X131300000Y-101900000D03*
%TO.N,/ADS1299/IN7N*%
X132100000Y-101900000D03*
%TO.N,/ADS1299/IN7P*%
X132900000Y-101900000D03*
%TO.N,/ADS1299/BI*%
X127100000Y-106300000D03*
%TO.N,/ADS1299/I1*%
X146400000Y-106300000D03*
%TO.N,/ADS1299/I2*%
X144880000Y-106300000D03*
%TO.N,/ADS1299/I3*%
X141900000Y-106300000D03*
%TO.N,/ADS1299/I4*%
X140300000Y-106300000D03*
%TO.N,/ADS1299/I5*%
X138400000Y-106300000D03*
%TO.N,/ADS1299/I6*%
X135800000Y-106300000D03*
%TO.N,/ADS1299/I7*%
X132900000Y-106300000D03*
%TO.N,/ADS1299/I8*%
X131300000Y-106300000D03*
%TO.N,Net-(U1-GPIO2)*%
X136899997Y-83900000D03*
%TO.N,Net-(U1-GPIO3)*%
X136100224Y-83880984D03*
%TD*%
D33*
%TO.N,GND*%
X142171500Y-84028500D02*
X142200000Y-84000000D01*
X142171500Y-85271500D02*
X142171500Y-84028500D01*
X138649452Y-84000000D02*
X142200000Y-84000000D01*
X138594452Y-83945000D02*
X138649452Y-84000000D01*
%TO.N,-2V5*%
X141950000Y-89686224D02*
X141950000Y-87930761D01*
X143125692Y-90861916D02*
X143187608Y-90800000D01*
X143125692Y-90861916D02*
X141950000Y-89686224D01*
X141950000Y-87930761D02*
X142580761Y-87300000D01*
X142580761Y-87300000D02*
X142600000Y-87300000D01*
X143187608Y-90800000D02*
X143276900Y-90800000D01*
X142600000Y-87300000D02*
X144200000Y-87300000D01*
%TO.N,+2V5*%
X128937726Y-95100000D02*
X127100000Y-95100000D01*
X131737726Y-92300000D02*
X128937726Y-95100000D01*
X132643000Y-92300000D02*
X131737726Y-92300000D01*
%TO.N,/ADS1299/Bias*%
X129900000Y-99600000D02*
X127900000Y-101600000D01*
X129900000Y-97812500D02*
X129900000Y-99600000D01*
X129950000Y-97762500D02*
X129900000Y-97812500D01*
X131400000Y-97762500D02*
X129950000Y-97762500D01*
%TO.N,Net-(U1-BIASIN)*%
X129950000Y-96037500D02*
X129900000Y-95987500D01*
X131400000Y-96037500D02*
X129950000Y-96037500D01*
X131630199Y-94300001D02*
X131400000Y-94530200D01*
X132643000Y-94300001D02*
X131630199Y-94300001D01*
X131400000Y-94530200D02*
X131400000Y-96037500D01*
D34*
%TO.N,+5V*%
X142800000Y-74400000D02*
X143900000Y-73300000D01*
X142800000Y-75060200D02*
X142800000Y-74400000D01*
%TO.N,+2V5*%
X134650000Y-91869239D02*
X134650000Y-91819239D01*
X135811522Y-93030761D02*
X134650000Y-91869239D01*
X142150000Y-93130761D02*
X142150000Y-93030761D01*
X135911522Y-93130761D02*
X142150000Y-93130761D01*
X135811522Y-93030761D02*
X135911522Y-93130761D01*
D33*
%TO.N,-2V5*%
X144637500Y-96700000D02*
X143600000Y-96700000D01*
D34*
%TO.N,+3V3*%
X129450000Y-81650000D02*
X127300000Y-83800000D01*
X129450000Y-80755000D02*
X129450000Y-81650000D01*
D33*
%TO.N,GND*%
X130537500Y-85362500D02*
X131700000Y-84200000D01*
X130537500Y-85400000D02*
X130537500Y-85362500D01*
X129100000Y-86900000D02*
X128400000Y-87600000D01*
X129137500Y-86900000D02*
X129100000Y-86900000D01*
%TO.N,-2V5*%
X128558706Y-91741294D02*
X127900000Y-92400000D01*
X129196500Y-91741294D02*
X128558706Y-91741294D01*
%TO.N,GND*%
X124400000Y-104800000D02*
X122700000Y-104800000D01*
X124400000Y-102200000D02*
X122700000Y-102200000D01*
X124400000Y-99700000D02*
X122700000Y-99700000D01*
X124400000Y-97100000D02*
X122700000Y-97100000D01*
X124400000Y-92100000D02*
X122700000Y-92100000D01*
X124400000Y-94600000D02*
X122700000Y-94600000D01*
%TO.N,+5V*%
X125200000Y-89200001D02*
X130800001Y-83600000D01*
X125200000Y-107300000D02*
X125200000Y-89200001D01*
X130800001Y-83600000D02*
X131100000Y-83600000D01*
%TO.N,GND*%
X142600000Y-86500000D02*
X143500000Y-86500000D01*
X142600000Y-88200000D02*
X142600000Y-89100000D01*
D34*
X139500000Y-77500000D02*
X139500000Y-76762500D01*
X139900000Y-77900000D02*
X139500000Y-77500000D01*
X139500000Y-76762500D02*
X139300000Y-76762500D01*
X139800000Y-76762500D02*
X139500000Y-76762500D01*
X139100000Y-77900000D02*
X139800000Y-77200000D01*
X139800000Y-76762500D02*
X139800000Y-77200000D01*
X139800000Y-77200000D02*
X139800000Y-77800000D01*
X139900000Y-77115950D02*
X140253450Y-76762500D01*
X139900000Y-77900000D02*
X139900000Y-77115950D01*
X139100000Y-77129050D02*
X138733450Y-76762500D01*
X139100000Y-77900000D02*
X139100000Y-77129050D01*
X138400000Y-77900000D02*
X140600000Y-77900000D01*
X139800000Y-77800000D02*
X139900000Y-77900000D01*
X140253450Y-76762500D02*
X139800000Y-76762500D01*
X139300000Y-77700000D02*
X139100000Y-77900000D01*
X139300000Y-76762500D02*
X139300000Y-77700000D01*
X139300000Y-76762500D02*
X138733450Y-76762500D01*
X140253450Y-77553450D02*
X140600000Y-77900000D01*
X140253450Y-76762500D02*
X140253450Y-77553450D01*
X138733450Y-77566550D02*
X138400000Y-77900000D01*
X138733450Y-76762500D02*
X138733450Y-77566550D01*
D33*
X146900000Y-74337500D02*
X146900000Y-73300000D01*
D34*
%TO.N,-5V*%
X146460200Y-76502300D02*
X146900000Y-76062500D01*
X146460200Y-78904600D02*
X146460200Y-76502300D01*
X146837500Y-76000000D02*
X146900000Y-76062500D01*
X145238400Y-76000000D02*
X146837500Y-76000000D01*
D33*
%TO.N,Net-(U1-GPIO1)*%
X137671499Y-83928501D02*
X137700000Y-83900000D01*
X137671499Y-84428501D02*
X137671499Y-83928501D01*
%TO.N,GND*%
X138169701Y-82200000D02*
X137869460Y-81899759D01*
X138982500Y-82200000D02*
X138169701Y-82200000D01*
X132643000Y-86981478D02*
X132171631Y-86510109D01*
X132643000Y-87300000D02*
X132643000Y-86981478D01*
X142619239Y-88200000D02*
X142600000Y-88200000D01*
X143384007Y-87810299D02*
X143008940Y-87810299D01*
X143008940Y-87810299D02*
X142619239Y-88200000D01*
X143394307Y-87799999D02*
X143384007Y-87810299D01*
X144200000Y-87799999D02*
X143394307Y-87799999D01*
X142171500Y-86071500D02*
X142600000Y-86500000D01*
X142171500Y-85271500D02*
X142171500Y-86071500D01*
X132643000Y-88300000D02*
X134500000Y-88300000D01*
%TO.N,-2V5*%
X133800000Y-89000000D02*
X133900000Y-89000000D01*
X133499999Y-89300001D02*
X133800000Y-89000000D01*
%TO.N,GND*%
X132643000Y-95557000D02*
X132600000Y-95600000D01*
X132643000Y-94800000D02*
X132643000Y-95557000D01*
X148339800Y-77739800D02*
X148300000Y-77700000D01*
X148339800Y-78904600D02*
X148339800Y-77739800D01*
X145238400Y-77188837D02*
X145687372Y-77637809D01*
X145238400Y-76939800D02*
X145238400Y-77188837D01*
X140662500Y-79700000D02*
X141600000Y-79700000D01*
X143137500Y-80637500D02*
X143100000Y-80600000D01*
X143137500Y-81500000D02*
X143137500Y-80637500D01*
X146437500Y-83262500D02*
X145600000Y-84100000D01*
X146437500Y-83200000D02*
X146437500Y-83262500D01*
X144862500Y-83362500D02*
X145600000Y-84100000D01*
X144862500Y-83200000D02*
X144862500Y-83362500D01*
X147031250Y-95831250D02*
X147300000Y-96100000D01*
X146362500Y-96500000D02*
X147031250Y-95831250D01*
X147031250Y-95831250D02*
X147662500Y-95200000D01*
X146362500Y-96700000D02*
X146362500Y-96500000D01*
X126175000Y-100625000D02*
X126200000Y-100600000D01*
X126175000Y-101600000D02*
X126175000Y-100625000D01*
X129818750Y-86118750D02*
X130537500Y-85400000D01*
X129137500Y-86800000D02*
X129818750Y-86118750D01*
X129137500Y-86900000D02*
X129137500Y-86800000D01*
X126000000Y-79037500D02*
X126000000Y-77800000D01*
X128500000Y-77400000D02*
X128900000Y-77000000D01*
X128500000Y-78245000D02*
X128500000Y-77400000D01*
X131000000Y-79962500D02*
X131000000Y-81100000D01*
X132362500Y-72637500D02*
X132000000Y-73000000D01*
X133193450Y-72637500D02*
X132362500Y-72637500D01*
%TO.N,-2V5*%
X128541294Y-90241294D02*
X127900000Y-89600000D01*
X129196500Y-90241294D02*
X128541294Y-90241294D01*
X129196500Y-91741294D02*
X129196500Y-90241294D01*
D34*
%TO.N,+5V*%
X132300000Y-79200000D02*
X132300000Y-82400000D01*
%TO.N,-2V5*%
X148162500Y-84300000D02*
X148162500Y-85275294D01*
X148162500Y-84300000D02*
X147400000Y-84300000D01*
X148162500Y-83200000D02*
X148162500Y-84300000D01*
D33*
X143176900Y-91100000D02*
X143176900Y-90900000D01*
X143176900Y-91789700D02*
X143176900Y-91100000D01*
%TO.N,+2V5*%
X142250000Y-92950000D02*
X142250000Y-93030761D01*
X141500000Y-92200000D02*
X142250000Y-92950000D01*
D34*
%TO.N,+3V3*%
X132500000Y-85400000D02*
X132262500Y-85400000D01*
X133297500Y-84602500D02*
X132500000Y-85400000D01*
X133297500Y-84602500D02*
X133966500Y-85271500D01*
X129450000Y-80755000D02*
X133297500Y-84602500D01*
X133966500Y-85271500D02*
X134571499Y-85271500D01*
%TO.N,-2V5*%
X148162500Y-85275294D02*
X147821500Y-85616294D01*
%TO.N,+5V*%
X129450000Y-78749080D02*
X129450000Y-78245000D01*
X127550000Y-78850000D02*
X127550000Y-78245000D01*
D33*
%TO.N,Net-(U7-NR{slash}FB)*%
X126007500Y-80755000D02*
X126000000Y-80762500D01*
X127550000Y-80755000D02*
X126007500Y-80755000D01*
D34*
%TO.N,+5V*%
X128000000Y-79300000D02*
X127550000Y-78850000D01*
X128899080Y-79300000D02*
X128000000Y-79300000D01*
X129450000Y-78749080D02*
X128899080Y-79300000D01*
X129457500Y-78237500D02*
X129450000Y-78245000D01*
X131000000Y-78237500D02*
X129457500Y-78237500D01*
X131000000Y-78237500D02*
X131337500Y-78237500D01*
X131337500Y-78237500D02*
X132300000Y-79200000D01*
D33*
%TO.N,+2V5*%
X141492500Y-82192500D02*
X141500000Y-82200000D01*
X141492500Y-81250000D02*
X141492500Y-82192500D01*
%TO.N,Net-(U11-NR{slash}FB)*%
X141492500Y-83150000D02*
X143087500Y-83150000D01*
X143087500Y-83150000D02*
X143137500Y-83200000D01*
D34*
%TO.N,+5V*%
X139587499Y-83150000D02*
X138982500Y-83150000D01*
X140037500Y-82699999D02*
X139587499Y-83150000D01*
X140037500Y-81800920D02*
X140037500Y-82699999D01*
X138982500Y-81250000D02*
X139486580Y-81250000D01*
X139486580Y-81250000D02*
X140037500Y-81800920D01*
X138937500Y-81205000D02*
X138982500Y-81250000D01*
X138937500Y-79700000D02*
X138937500Y-81205000D01*
X139862500Y-78775000D02*
X138937500Y-79700000D01*
X141253854Y-78775000D02*
X139862500Y-78775000D01*
X141500000Y-76000000D02*
X141500000Y-78528854D01*
X141500000Y-78528854D02*
X141253854Y-78775000D01*
X141500000Y-75037500D02*
X141500000Y-76000000D01*
X141500000Y-75037500D02*
X142777300Y-75037500D01*
X140253450Y-75037500D02*
X141500000Y-75037500D01*
%TO.N,-2V5*%
X148339800Y-83022700D02*
X148162500Y-83200000D01*
X148339800Y-81495400D02*
X148339800Y-83022700D01*
D33*
%TO.N,Net-(U8-NR)*%
X146455600Y-81500000D02*
X146460200Y-81495400D01*
X144862500Y-81500000D02*
X146455600Y-81500000D01*
%TO.N,Net-(U5-CAP-)*%
X144563800Y-75060200D02*
X145238400Y-75060200D01*
X144253400Y-75370600D02*
X144563800Y-75060200D01*
X144253400Y-77790900D02*
X144253400Y-75370600D01*
X144862500Y-78400000D02*
X144253400Y-77790900D01*
%TO.N,Net-(U5-CAP+)*%
X142800000Y-78062500D02*
X143137500Y-78400000D01*
X142800000Y-76939800D02*
X142800000Y-78062500D01*
D34*
%TO.N,+5V*%
X142777300Y-75037500D02*
X142800000Y-75060200D01*
D33*
X138570950Y-75200000D02*
X138733450Y-75037500D01*
X137571450Y-75200000D02*
X138570950Y-75200000D01*
D34*
X140253450Y-75037500D02*
X138733450Y-75037500D01*
X142800000Y-76000000D02*
X142800000Y-75060200D01*
D33*
%TO.N,Net-(U1-GPIO1)*%
X137671499Y-85271500D02*
X137671499Y-84428501D01*
%TO.N,Net-(U1-GPIO2)*%
X136671501Y-85271500D02*
X136671501Y-84428499D01*
%TO.N,Net-(U1-GPIO4)*%
X135671500Y-84371500D02*
X135200000Y-83900000D01*
X135671500Y-85271500D02*
X135671500Y-84371500D01*
%TO.N,+3V3*%
X132262500Y-85500000D02*
X130862500Y-86900000D01*
X132262500Y-85400000D02*
X132262500Y-85500000D01*
X131762499Y-87799999D02*
X132643000Y-87799999D01*
X130862500Y-86900000D02*
X131762499Y-87799999D01*
%TO.N,Net-(U6-SW)*%
X136644800Y-76039150D02*
X136644800Y-79200000D01*
X136983950Y-75700000D02*
X136644800Y-76039150D01*
X137571450Y-75700000D02*
X136983950Y-75700000D01*
%TO.N,/Booster/VBATT*%
X133800000Y-76972400D02*
X133800000Y-79200000D01*
X134695950Y-76000000D02*
X134695950Y-76076450D01*
X134695950Y-76076450D02*
X133800000Y-76972400D01*
D34*
X133800000Y-79177600D02*
X133800000Y-79200000D01*
X129722400Y-75100000D02*
X133800000Y-79177600D01*
D33*
%TO.N,GND*%
X137571450Y-76200000D02*
X138170950Y-76200000D01*
X138170950Y-76200000D02*
X138733450Y-76762500D01*
%TO.N,/Booster/VBATT*%
X134695950Y-76000000D02*
X134633450Y-76000000D01*
X134895950Y-76200000D02*
X134695950Y-76000000D01*
X135895450Y-76200000D02*
X134895950Y-76200000D01*
X135895450Y-76200000D02*
X135895450Y-75700000D01*
%TO.N,/ADS1299/MOSI*%
X141671501Y-86847738D02*
X140319239Y-88200000D01*
X140319239Y-88200000D02*
X140300000Y-88200000D01*
X141671501Y-85271500D02*
X141671501Y-86847738D01*
%TO.N,/ADS1299/PDWN*%
X140389315Y-87300000D02*
X140300000Y-87300000D01*
X141171500Y-86517815D02*
X140389315Y-87300000D01*
X141171500Y-85271500D02*
X141171500Y-86517815D01*
%TO.N,/ADS1299/RESET*%
X140671501Y-86098575D02*
X140325685Y-86444391D01*
X140671501Y-85271500D02*
X140671501Y-86098575D01*
%TO.N,/ADS1299/START*%
X138319242Y-88200000D02*
X138300000Y-88200000D01*
X139671500Y-86847742D02*
X138319242Y-88200000D01*
X139671500Y-85271500D02*
X139671500Y-86847742D01*
%TO.N,/ADS1299/CS*%
X138419236Y-87300003D02*
X138300000Y-87300003D01*
X139171501Y-86547738D02*
X138419236Y-87300003D01*
X139171501Y-85271500D02*
X139171501Y-86547738D01*
%TO.N,/ADS1299/MISO*%
X137171500Y-86128500D02*
X136800000Y-86500000D01*
X137171500Y-85271500D02*
X137171500Y-86128500D01*
%TO.N,/ADS1299/DRDY*%
X135171499Y-86171499D02*
X135500000Y-86500000D01*
X135171499Y-85271500D02*
X135171499Y-86171499D01*
%TO.N,+2V5*%
X134463438Y-90163438D02*
X134500000Y-90200000D01*
X134019239Y-90163438D02*
X134463438Y-90163438D01*
%TO.N,-2V5*%
X144637500Y-96700000D02*
X144637500Y-96500000D01*
X144637500Y-96500000D02*
X145937500Y-95200000D01*
X145537500Y-94800000D02*
X145937500Y-95200000D01*
X144200000Y-94800000D02*
X145537500Y-94800000D01*
X147646500Y-91941294D02*
X147646500Y-93441294D01*
X147646500Y-90441294D02*
X147646500Y-91941294D01*
X146621500Y-86816294D02*
X147821500Y-85616294D01*
X145921500Y-86816294D02*
X146621500Y-86816294D01*
X145437794Y-87300000D02*
X145921500Y-86816294D01*
X144200000Y-87300000D02*
X145437794Y-87300000D01*
X143176900Y-90900000D02*
X143276900Y-90800000D01*
X143276900Y-90800000D02*
X144200000Y-90800000D01*
X144200000Y-91800001D02*
X143187201Y-91800001D01*
X143187201Y-91800001D02*
X143176900Y-91789700D01*
%TO.N,+3V3*%
X129987501Y-87799999D02*
X129087500Y-88700000D01*
X132643000Y-87799999D02*
X129987501Y-87799999D01*
%TO.N,Net-(U1-CLKSEL)*%
X131012499Y-88799999D02*
X130912500Y-88700000D01*
X132643000Y-88799999D02*
X131012499Y-88799999D01*
%TO.N,+3V3*%
X134671500Y-86784300D02*
X134671500Y-85271500D01*
X133655801Y-87799999D02*
X134671500Y-86784300D01*
X132643000Y-87799999D02*
X133655801Y-87799999D01*
%TO.N,-2V5*%
X132643000Y-89300001D02*
X133499999Y-89300001D01*
X144200000Y-94800000D02*
X142900000Y-94800000D01*
X144200000Y-94300001D02*
X144200000Y-94800000D01*
%TO.N,+2V5*%
X142980761Y-92300000D02*
X144200000Y-92300000D01*
X142250000Y-93569239D02*
X142250000Y-93030761D01*
X142630761Y-93950000D02*
X142250000Y-93569239D01*
X143169239Y-93950000D02*
X142630761Y-93950000D01*
X142250000Y-93030761D02*
X142980761Y-92300000D01*
X144200000Y-93800000D02*
X143319239Y-93800000D01*
X143319239Y-93800000D02*
X143169239Y-93950000D01*
%TO.N,-2V5*%
X142900001Y-93300001D02*
X142900000Y-93300000D01*
X144200000Y-93300001D02*
X142900001Y-93300001D01*
%TO.N,+2V5*%
X144200000Y-92799999D02*
X144200000Y-92300000D01*
X133655801Y-89800000D02*
X134019239Y-90163438D01*
X134019239Y-90163438D02*
X134019239Y-90800000D01*
X132643000Y-89800000D02*
X133655801Y-89800000D01*
X134600000Y-91819239D02*
X134600000Y-91380761D01*
X134119239Y-92300000D02*
X134600000Y-91819239D01*
X134600000Y-91380761D02*
X134019239Y-90800000D01*
X134019239Y-90800000D02*
X132643000Y-90800000D01*
X132643000Y-92300000D02*
X134119239Y-92300000D01*
%TO.N,-2V5*%
X133600000Y-91300000D02*
X133900000Y-91600000D01*
X132643000Y-91300000D02*
X133600000Y-91300000D01*
X133699999Y-91800001D02*
X133900000Y-91600000D01*
X132643000Y-91800001D02*
X133699999Y-91800001D01*
X133499999Y-92799999D02*
X133900000Y-93200000D01*
X132643000Y-92799999D02*
X133499999Y-92799999D01*
%TO.N,Net-(U1-BIASIN)*%
X132643000Y-94300001D02*
X132643000Y-93800000D01*
%TO.N,/ADS1299/Bias*%
X127800000Y-103075000D02*
X127800000Y-101700000D01*
X127800000Y-101700000D02*
X127900000Y-101600000D01*
%TO.N,Net-(R10-Pad2)*%
X126300000Y-103400000D02*
X127800000Y-104900000D01*
X126300000Y-103075000D02*
X126300000Y-103400000D01*
D35*
%TO.N,/ADS1299/BI*%
X127100000Y-105700000D02*
X126300000Y-104900000D01*
X127100000Y-106300000D02*
X127100000Y-105700000D01*
D33*
X127100000Y-108500000D02*
X127100000Y-106300000D01*
D35*
%TO.N,/ADS1299/IN4N*%
X138696501Y-97863152D02*
X138696501Y-100932898D01*
X138671500Y-97838151D02*
X138696501Y-97863152D01*
X138696501Y-100932898D02*
X139500000Y-101736397D01*
X138671500Y-96828500D02*
X138671500Y-97838151D01*
%TO.N,/ADS1299/IN4P*%
X140100000Y-101700000D02*
X140300000Y-101900000D01*
X139748529Y-101300000D02*
X140100000Y-101651471D01*
%TO.N,/ADS1299/IN4N*%
X139500000Y-101736397D02*
X139500000Y-101900000D01*
%TO.N,/ADS1299/IN4P*%
X139146500Y-100746500D02*
X139700000Y-101300000D01*
X140100000Y-101651471D02*
X140100000Y-101700000D01*
X139700000Y-101300000D02*
X139748529Y-101300000D01*
X139146500Y-97863152D02*
X139146500Y-100746500D01*
X139171501Y-97838151D02*
X139146500Y-97863152D01*
X139171501Y-96828500D02*
X139171501Y-97838151D01*
%TO.N,/ADS1299/IN3N*%
X139696500Y-97863151D02*
X139696500Y-100332894D01*
X139671500Y-97838151D02*
X139696500Y-97863151D01*
X139671500Y-96828500D02*
X139671500Y-97838151D01*
%TO.N,/ADS1299/IN3P*%
X141700000Y-101699997D02*
X141900003Y-101900000D01*
X141348529Y-101300000D02*
X141700000Y-101651471D01*
X141300003Y-101300000D02*
X141348529Y-101300000D01*
X141700000Y-101651471D02*
X141700000Y-101699997D01*
X140146499Y-100146496D02*
X141300003Y-101300000D01*
X140171499Y-97838151D02*
X140146499Y-97863151D01*
X140146499Y-97863151D02*
X140146499Y-100146496D01*
X140171499Y-96828500D02*
X140171499Y-97838151D01*
%TO.N,/ADS1299/IN3N*%
X139696500Y-100332894D02*
X141100000Y-101736394D01*
X141100000Y-101736394D02*
X141100000Y-101900000D01*
%TO.N,/ADS1299/IN5N*%
X136800009Y-101699997D02*
X136600006Y-101900000D01*
X136800009Y-101651471D02*
X136800009Y-101699997D01*
X137151480Y-101300000D02*
X136800009Y-101651471D01*
X137200006Y-101300000D02*
X137151480Y-101300000D01*
X137696500Y-100803506D02*
X137200006Y-101300000D01*
X137671499Y-97838151D02*
X137696500Y-97863152D01*
%TO.N,/ADS1299/IN5P*%
X137400009Y-101736394D02*
X137400009Y-101900000D01*
X138146499Y-100989904D02*
X137400009Y-101736394D01*
X138146499Y-97863152D02*
X138146499Y-100989904D01*
%TO.N,/ADS1299/IN5N*%
X137671499Y-96828500D02*
X137671499Y-97838151D01*
%TO.N,/ADS1299/IN5P*%
X138171500Y-97838151D02*
X138146499Y-97863152D01*
%TO.N,/ADS1299/IN5N*%
X137696500Y-97863152D02*
X137696500Y-100803506D01*
%TO.N,/ADS1299/IN5P*%
X138171500Y-96828500D02*
X138171500Y-97838151D01*
%TO.N,/ADS1299/IN6N*%
X135200003Y-101699997D02*
X135000000Y-101900000D01*
X135200003Y-101651471D02*
X135200003Y-101699997D01*
X135551474Y-101300000D02*
X135200003Y-101651471D01*
X136696501Y-100203499D02*
X135600000Y-101300000D01*
X135600000Y-101300000D02*
X135551474Y-101300000D01*
X136671501Y-96828500D02*
X136671501Y-97838151D01*
%TO.N,/ADS1299/IN6P*%
X135800003Y-101736394D02*
X135800003Y-101900000D01*
X137146500Y-97863151D02*
X137146500Y-100389897D01*
%TO.N,/ADS1299/IN6N*%
X136671501Y-97838151D02*
X136696501Y-97863151D01*
%TO.N,/ADS1299/IN6P*%
X137171500Y-97838151D02*
X137146500Y-97863151D01*
%TO.N,/ADS1299/IN6N*%
X136696501Y-97863151D02*
X136696501Y-100203499D01*
%TO.N,/ADS1299/IN6P*%
X137171500Y-96828500D02*
X137171500Y-97838151D01*
X137146500Y-100389897D02*
X135800003Y-101736394D01*
%TO.N,/ADS1299/IN7N*%
X132300000Y-101700000D02*
X132100000Y-101900000D01*
X132651471Y-101300000D02*
X132300000Y-101651471D01*
X132700000Y-101300000D02*
X132651471Y-101300000D01*
X132300000Y-101651471D02*
X132300000Y-101700000D01*
X135696500Y-98303500D02*
X132700000Y-101300000D01*
X135696500Y-97863151D02*
X135696500Y-98303500D01*
%TO.N,/ADS1299/IN7P*%
X132900000Y-101736397D02*
X132900000Y-101900000D01*
X136146499Y-97863151D02*
X136146499Y-98489898D01*
X136171499Y-97838151D02*
X136146499Y-97863151D01*
%TO.N,/ADS1299/IN7N*%
X135671500Y-97838151D02*
X135696500Y-97863151D01*
%TO.N,/ADS1299/IN7P*%
X136146499Y-98489898D02*
X132900000Y-101736397D01*
X136171499Y-96828500D02*
X136171499Y-97838151D01*
%TO.N,/ADS1299/IN7N*%
X135671500Y-96828500D02*
X135671500Y-97838151D01*
%TO.N,/ADS1299/IN8N*%
X130700000Y-101699997D02*
X130499997Y-101900000D01*
X131099997Y-101300000D02*
X131051471Y-101300000D01*
X130700000Y-101651471D02*
X130700000Y-101699997D01*
X134696500Y-97703497D02*
X131099997Y-101300000D01*
X131051471Y-101300000D02*
X130700000Y-101651471D01*
%TO.N,/ADS1299/IN8P*%
X131300000Y-101736394D02*
X131300000Y-101900000D01*
%TO.N,/ADS1299/IN8N*%
X134671500Y-96828500D02*
X134671500Y-97361900D01*
%TO.N,/ADS1299/IN8P*%
X135146499Y-97889895D02*
X131300000Y-101736394D01*
X135146499Y-97386900D02*
X135146499Y-97889895D01*
X135171499Y-97361900D02*
X135146499Y-97386900D01*
%TO.N,/ADS1299/IN8N*%
X134696500Y-97386900D02*
X134696500Y-97703497D01*
%TO.N,/ADS1299/IN8P*%
X135171499Y-96828500D02*
X135171499Y-97361900D01*
%TO.N,/ADS1299/IN8N*%
X134671500Y-97361900D02*
X134696500Y-97386900D01*
%TO.N,/ADS1299/IN2N*%
X140696501Y-97863151D02*
X140696501Y-98432898D01*
X140671501Y-97838151D02*
X140696501Y-97863151D01*
X140671501Y-96828500D02*
X140671501Y-97838151D01*
%TO.N,/ADS1299/IN2P*%
X144600000Y-101700000D02*
X144800000Y-101900000D01*
X144600000Y-101651471D02*
X144600000Y-101700000D01*
%TO.N,/ADS1299/IN2N*%
X144000000Y-101736397D02*
X144000000Y-101900000D01*
%TO.N,/ADS1299/IN2P*%
X144200000Y-101300000D02*
X144248529Y-101300000D01*
X141146500Y-98246500D02*
X144200000Y-101300000D01*
X144248529Y-101300000D02*
X144600000Y-101651471D01*
X141146500Y-97863151D02*
X141146500Y-98246500D01*
X141171500Y-97838151D02*
X141146500Y-97863151D01*
X141171500Y-96828500D02*
X141171500Y-97838151D01*
%TO.N,/ADS1299/IN2N*%
X140696501Y-98432898D02*
X144000000Y-101736397D01*
%TO.N,/ADS1299/IN1N*%
X145600000Y-101736397D02*
X145600000Y-101900000D01*
X141696501Y-97832898D02*
X145600000Y-101736397D01*
X141696501Y-97386900D02*
X141696501Y-97832898D01*
X141671501Y-96828500D02*
X141671501Y-97361900D01*
X141671501Y-97361900D02*
X141696501Y-97386900D01*
%TO.N,/ADS1299/IN1P*%
X146200000Y-101651471D02*
X146200000Y-101700000D01*
X145848529Y-101300000D02*
X146200000Y-101651471D01*
X146200000Y-101700000D02*
X146400000Y-101900000D01*
X145800000Y-101300000D02*
X145848529Y-101300000D01*
X142146500Y-97646500D02*
X145800000Y-101300000D01*
X142146500Y-97386900D02*
X142146500Y-97646500D01*
X142171500Y-96828500D02*
X142171500Y-97361900D01*
X142171500Y-97361900D02*
X142146500Y-97386900D01*
D33*
X146400000Y-103200000D02*
X146400000Y-101900000D01*
%TO.N,/ADS1299/IN1N*%
X145600000Y-103200000D02*
X145600000Y-101900000D01*
%TO.N,/ADS1299/IN2P*%
X144800000Y-103200000D02*
X144800000Y-101900000D01*
%TO.N,/ADS1299/IN2N*%
X144000000Y-103200000D02*
X144000000Y-101900000D01*
%TO.N,/ADS1299/IN3P*%
X141900000Y-101900003D02*
X141900003Y-101900000D01*
X141900000Y-103200000D02*
X141900000Y-101900003D01*
%TO.N,/ADS1299/IN3N*%
X141100000Y-103200000D02*
X141100000Y-101900000D01*
%TO.N,/ADS1299/IN4P*%
X140300000Y-103200000D02*
X140300000Y-101900000D01*
%TO.N,/ADS1299/IN4N*%
X139500000Y-103200000D02*
X139500000Y-101900000D01*
%TO.N,/ADS1299/IN5P*%
X137400000Y-101900009D02*
X137400009Y-101900000D01*
X137400000Y-103200000D02*
X137400000Y-101900009D01*
%TO.N,/ADS1299/IN5N*%
X136600000Y-101900006D02*
X136600006Y-101900000D01*
X136600000Y-103200000D02*
X136600000Y-101900006D01*
%TO.N,/ADS1299/IN6P*%
X135800000Y-101900003D02*
X135800003Y-101900000D01*
X135800000Y-103200000D02*
X135800000Y-101900003D01*
%TO.N,/ADS1299/IN6N*%
X135000000Y-103200000D02*
X135000000Y-101900000D01*
%TO.N,/ADS1299/IN8N*%
X130500000Y-101900003D02*
X130499997Y-101900000D01*
X130500000Y-103200000D02*
X130500000Y-101900003D01*
%TO.N,/ADS1299/IN8P*%
X131300000Y-103200000D02*
X131300000Y-101900000D01*
%TO.N,/ADS1299/IN7N*%
X132100000Y-103200000D02*
X132100000Y-101900000D01*
%TO.N,/ADS1299/IN7P*%
X132900000Y-103200000D02*
X132900000Y-101900000D01*
%TO.N,/ADS1299/I1*%
X146400000Y-107480000D02*
X147420000Y-108500000D01*
X146400000Y-105000000D02*
X146400000Y-107480000D01*
%TO.N,/ADS1299/I2*%
X144880000Y-105080000D02*
X144800000Y-105000000D01*
X144880000Y-108500000D02*
X144880000Y-105080000D01*
%TO.N,/ADS1299/I3*%
X141900000Y-108060000D02*
X142340000Y-108500000D01*
X141900000Y-105000000D02*
X141900000Y-108060000D01*
%TO.N,/ADS1299/I4*%
X140300000Y-108000000D02*
X140300000Y-105000000D01*
X139800000Y-108500000D02*
X140300000Y-108000000D01*
%TO.N,/ADS1299/I5*%
X138400000Y-107360000D02*
X137260000Y-108500000D01*
X138400000Y-105000000D02*
X138400000Y-107360000D01*
%TO.N,/ADS1299/I6*%
X135800000Y-107420000D02*
X135800000Y-105000000D01*
X134720000Y-108500000D02*
X135800000Y-107420000D01*
%TO.N,/ADS1299/I7*%
X132900000Y-107780000D02*
X132900000Y-105000000D01*
X132180000Y-108500000D02*
X132900000Y-107780000D01*
%TO.N,/ADS1299/I8*%
X131300000Y-106840000D02*
X131300000Y-105000000D01*
X129640000Y-108500000D02*
X131300000Y-106840000D01*
%TO.N,/ADS1299/I1*%
X130800000Y-104100000D02*
X130500000Y-104400000D01*
X146200000Y-104100000D02*
X130800000Y-104100000D01*
X130500000Y-104400000D02*
X130500000Y-105000000D01*
X146400000Y-104300000D02*
X146200000Y-104100000D01*
X146400000Y-105000000D02*
X146400000Y-104300000D01*
%TO.N,/ADS1299/I5*%
X138400000Y-105000000D02*
X139500000Y-105000000D01*
X137400000Y-105000000D02*
X138400000Y-105000000D01*
%TO.N,/ADS1299/I2*%
X144800000Y-105000000D02*
X145600000Y-105000000D01*
%TO.N,/ADS1299/I3*%
X141900000Y-105000000D02*
X144000000Y-105000000D01*
%TO.N,/ADS1299/I4*%
X140300000Y-105000000D02*
X141100000Y-105000000D01*
%TO.N,/ADS1299/I6*%
X135800000Y-105000000D02*
X136600000Y-105000000D01*
%TO.N,/ADS1299/I7*%
X132900000Y-105000000D02*
X135000000Y-105000000D01*
%TO.N,/ADS1299/I8*%
X131300000Y-105000000D02*
X132100000Y-105000000D01*
%TO.N,Net-(U1-VCAP2)*%
X145680206Y-88300000D02*
X144200000Y-88300000D01*
X145921500Y-88541294D02*
X145680206Y-88300000D01*
%TO.N,Net-(U1-VCAP3)*%
X130921500Y-90241294D02*
X130921500Y-91741294D01*
X130980205Y-90299999D02*
X130921500Y-90241294D01*
X132643000Y-90299999D02*
X130980205Y-90299999D01*
%TO.N,Net-(U1-VCAP1)*%
X146596500Y-89616294D02*
X146621500Y-89641294D01*
X146621500Y-89641294D02*
X147521500Y-88741294D01*
X145621568Y-89616294D02*
X146596500Y-89616294D01*
X145305275Y-89300001D02*
X145621568Y-89616294D01*
X147521500Y-88741294D02*
X147821500Y-88741294D01*
X144200000Y-89300001D02*
X145305275Y-89300001D01*
%TO.N,Net-(U1-VCAP4)*%
X145780205Y-90299999D02*
X144200000Y-90299999D01*
X145921500Y-90441294D02*
X145780205Y-90299999D01*
%TO.N,Net-(U1-VREFP)*%
X145921500Y-91941294D02*
X145921500Y-93441294D01*
X145280206Y-91300000D02*
X145921500Y-91941294D01*
X144200000Y-91300000D02*
X145280206Y-91300000D01*
%TO.N,-2V5*%
X147721500Y-85525000D02*
X147546500Y-85525000D01*
X147646500Y-93441294D02*
X146787793Y-94300001D01*
X146787793Y-94300001D02*
X144200000Y-94300001D01*
%TO.N,+5V*%
X134733450Y-72637500D02*
X135008950Y-72637500D01*
%TO.N,Net-(U6-FB)*%
X135470950Y-75200000D02*
X135445950Y-75175000D01*
X135895450Y-75200000D02*
X135470950Y-75200000D01*
X135445950Y-75175000D02*
X133608450Y-75175000D01*
X133608450Y-75175000D02*
X133193450Y-74760000D01*
X133193450Y-74760000D02*
X133193450Y-74462500D01*
X135470950Y-75200000D02*
X134733450Y-74462500D01*
%TO.N,+5V*%
X135008950Y-72637500D02*
X137571450Y-75200000D01*
D34*
%TO.N,-5V*%
X146460200Y-78904600D02*
X147400000Y-78904600D01*
D33*
%TO.N,/ADS1299/SCLK*%
X138671500Y-85271500D02*
X138671500Y-86128500D01*
X138671500Y-86128500D02*
X138300000Y-86500000D01*
%TO.N,Net-(U1-GPIO2)*%
X136671501Y-84428499D02*
X136899997Y-84200003D01*
X136899997Y-84200003D02*
X136899997Y-83900000D01*
%TO.N,Net-(U1-GPIO3)*%
X136171499Y-85271500D02*
X136171499Y-83952259D01*
X136171499Y-83952259D02*
X136100224Y-83880984D01*
%TO.N,GND*%
X132300000Y-76000000D02*
X132970950Y-76000000D01*
X132000000Y-76300000D02*
X132300000Y-76000000D01*
X138171500Y-84367952D02*
X138594452Y-83945000D01*
X138171500Y-85271500D02*
X138171500Y-84367952D01*
%TD*%
%TA.AperFunction,NonConductor*%
G36*
X104505703Y-61521241D02*
G01*
X104512181Y-61527273D01*
X104512455Y-61527547D01*
X104627664Y-61613793D01*
X104627671Y-61613797D01*
X104759081Y-61662810D01*
X104815015Y-61704681D01*
X104839432Y-61770145D01*
X104824580Y-61838418D01*
X104803430Y-61866673D01*
X104681503Y-61988600D01*
X104545965Y-62182169D01*
X104545964Y-62182171D01*
X104536882Y-62201649D01*
X104490709Y-62254088D01*
X104423516Y-62273240D01*
X104356635Y-62253024D01*
X104311300Y-62199859D01*
X104300500Y-62149244D01*
X104300500Y-61614954D01*
X104320185Y-61547915D01*
X104372989Y-61502160D01*
X104442147Y-61492216D01*
X104505703Y-61521241D01*
G37*
%TD.AperFunction*%
%TA.AperFunction,NonConductor*%
G36*
X124963182Y-61422421D02*
G01*
X124996666Y-61483745D01*
X124999500Y-61510102D01*
X124999500Y-62320803D01*
X124979815Y-62387842D01*
X124927011Y-62433597D01*
X124857853Y-62443541D01*
X124794297Y-62414516D01*
X124763118Y-62373208D01*
X124674035Y-62182171D01*
X124674034Y-62182169D01*
X124538496Y-61988600D01*
X124538495Y-61988599D01*
X124416567Y-61866671D01*
X124383084Y-61805351D01*
X124388068Y-61735659D01*
X124429939Y-61679725D01*
X124460915Y-61662810D01*
X124592331Y-61613796D01*
X124707546Y-61527546D01*
X124776234Y-61435789D01*
X124832167Y-61393920D01*
X124901859Y-61388936D01*
X124963182Y-61422421D01*
G37*
%TD.AperFunction*%
%TA.AperFunction,NonConductor*%
G36*
X104505703Y-63477042D02*
G01*
X104536880Y-63518349D01*
X104545965Y-63537830D01*
X104545966Y-63537831D01*
X104545967Y-63537834D01*
X104681501Y-63731395D01*
X104681506Y-63731402D01*
X104848597Y-63898493D01*
X104848603Y-63898498D01*
X105034158Y-64028425D01*
X105077783Y-64083002D01*
X105084977Y-64152500D01*
X105053454Y-64214855D01*
X105034158Y-64231575D01*
X104848597Y-64361505D01*
X104681505Y-64528597D01*
X104545965Y-64722169D01*
X104545964Y-64722171D01*
X104536882Y-64741649D01*
X104490709Y-64794088D01*
X104423516Y-64813240D01*
X104356635Y-64793024D01*
X104311300Y-64739859D01*
X104300500Y-64689244D01*
X104300500Y-63570755D01*
X104320185Y-63503716D01*
X104372989Y-63457961D01*
X104442147Y-63448017D01*
X104505703Y-63477042D01*
G37*
%TD.AperFunction*%
%TA.AperFunction,NonConductor*%
G36*
X124943365Y-63295416D02*
G01*
X124988700Y-63348581D01*
X124999500Y-63399196D01*
X124999500Y-64860803D01*
X124979815Y-64927842D01*
X124927011Y-64973597D01*
X124857853Y-64983541D01*
X124794297Y-64954516D01*
X124763118Y-64913208D01*
X124674035Y-64722171D01*
X124674034Y-64722169D01*
X124538494Y-64528597D01*
X124371402Y-64361506D01*
X124371396Y-64361501D01*
X124185842Y-64231575D01*
X124142217Y-64176998D01*
X124135023Y-64107500D01*
X124166546Y-64045145D01*
X124185842Y-64028425D01*
X124208026Y-64012891D01*
X124371401Y-63898495D01*
X124538495Y-63731401D01*
X124674035Y-63537830D01*
X124763118Y-63346790D01*
X124809290Y-63294352D01*
X124876484Y-63275200D01*
X124943365Y-63295416D01*
G37*
%TD.AperFunction*%
%TA.AperFunction,NonConductor*%
G36*
X104505703Y-66017042D02*
G01*
X104536880Y-66058349D01*
X104545965Y-66077830D01*
X104545966Y-66077831D01*
X104545967Y-66077834D01*
X104681501Y-66271395D01*
X104681506Y-66271402D01*
X104848597Y-66438493D01*
X104848603Y-66438498D01*
X105034158Y-66568425D01*
X105077783Y-66623002D01*
X105084977Y-66692500D01*
X105053454Y-66754855D01*
X105034158Y-66771575D01*
X104848597Y-66901505D01*
X104681505Y-67068597D01*
X104545965Y-67262169D01*
X104545964Y-67262171D01*
X104536882Y-67281649D01*
X104490709Y-67334088D01*
X104423516Y-67353240D01*
X104356635Y-67333024D01*
X104311300Y-67279859D01*
X104300500Y-67229244D01*
X104300500Y-66110755D01*
X104320185Y-66043716D01*
X104372989Y-65997961D01*
X104442147Y-65988017D01*
X104505703Y-66017042D01*
G37*
%TD.AperFunction*%
%TA.AperFunction,NonConductor*%
G36*
X124943365Y-65835416D02*
G01*
X124988700Y-65888581D01*
X124999500Y-65939196D01*
X124999500Y-67400803D01*
X124979815Y-67467842D01*
X124927011Y-67513597D01*
X124857853Y-67523541D01*
X124794297Y-67494516D01*
X124763118Y-67453208D01*
X124674035Y-67262171D01*
X124674034Y-67262169D01*
X124538494Y-67068597D01*
X124371402Y-66901506D01*
X124371396Y-66901501D01*
X124185842Y-66771575D01*
X124142217Y-66716998D01*
X124135023Y-66647500D01*
X124166546Y-66585145D01*
X124185842Y-66568425D01*
X124208026Y-66552891D01*
X124371401Y-66438495D01*
X124538495Y-66271401D01*
X124674035Y-66077830D01*
X124763118Y-65886790D01*
X124809290Y-65834352D01*
X124876484Y-65815200D01*
X124943365Y-65835416D01*
G37*
%TD.AperFunction*%
%TA.AperFunction,NonConductor*%
G36*
X104505703Y-68557042D02*
G01*
X104536880Y-68598349D01*
X104545965Y-68617830D01*
X104545966Y-68617831D01*
X104545967Y-68617834D01*
X104681501Y-68811395D01*
X104681506Y-68811402D01*
X104848597Y-68978493D01*
X104848603Y-68978498D01*
X105034158Y-69108425D01*
X105077783Y-69163002D01*
X105084977Y-69232500D01*
X105053454Y-69294855D01*
X105034158Y-69311575D01*
X104848597Y-69441505D01*
X104681505Y-69608597D01*
X104545965Y-69802169D01*
X104545964Y-69802171D01*
X104536882Y-69821649D01*
X104490709Y-69874088D01*
X104423516Y-69893240D01*
X104356635Y-69873024D01*
X104311300Y-69819859D01*
X104300500Y-69769244D01*
X104300500Y-68650755D01*
X104320185Y-68583716D01*
X104372989Y-68537961D01*
X104442147Y-68528017D01*
X104505703Y-68557042D01*
G37*
%TD.AperFunction*%
%TA.AperFunction,NonConductor*%
G36*
X124943365Y-68375416D02*
G01*
X124988700Y-68428581D01*
X124999500Y-68479196D01*
X124999500Y-69940803D01*
X124979815Y-70007842D01*
X124927011Y-70053597D01*
X124857853Y-70063541D01*
X124794297Y-70034516D01*
X124763118Y-69993208D01*
X124674035Y-69802171D01*
X124674034Y-69802169D01*
X124538494Y-69608597D01*
X124371402Y-69441506D01*
X124371396Y-69441501D01*
X124185842Y-69311575D01*
X124142217Y-69256998D01*
X124135023Y-69187500D01*
X124166546Y-69125145D01*
X124185842Y-69108425D01*
X124208026Y-69092891D01*
X124371401Y-68978495D01*
X124538495Y-68811401D01*
X124674035Y-68617830D01*
X124763118Y-68426790D01*
X124809290Y-68374352D01*
X124876484Y-68355200D01*
X124943365Y-68375416D01*
G37*
%TD.AperFunction*%
%TA.AperFunction,NonConductor*%
G36*
X104505703Y-71097042D02*
G01*
X104536880Y-71138349D01*
X104545965Y-71157830D01*
X104545966Y-71157831D01*
X104545967Y-71157834D01*
X104681501Y-71351395D01*
X104681506Y-71351402D01*
X104848597Y-71518493D01*
X104848603Y-71518498D01*
X105034158Y-71648425D01*
X105077783Y-71703002D01*
X105084977Y-71772500D01*
X105053454Y-71834855D01*
X105034158Y-71851575D01*
X104848597Y-71981505D01*
X104681505Y-72148597D01*
X104545965Y-72342169D01*
X104545964Y-72342171D01*
X104536882Y-72361649D01*
X104490709Y-72414088D01*
X104423516Y-72433240D01*
X104356635Y-72413024D01*
X104311300Y-72359859D01*
X104300500Y-72309244D01*
X104300500Y-71190755D01*
X104320185Y-71123716D01*
X104372989Y-71077961D01*
X104442147Y-71068017D01*
X104505703Y-71097042D01*
G37*
%TD.AperFunction*%
%TA.AperFunction,NonConductor*%
G36*
X142534621Y-72120185D02*
G01*
X142580376Y-72172989D01*
X142590320Y-72242147D01*
X142583764Y-72267833D01*
X142555908Y-72342517D01*
X142549501Y-72402116D01*
X142549501Y-72402123D01*
X142549500Y-72402135D01*
X142549500Y-73537769D01*
X142529815Y-73604808D01*
X142513181Y-73625450D01*
X142217047Y-73921584D01*
X142217043Y-73921589D01*
X142174284Y-73985586D01*
X142172455Y-73988324D01*
X142158088Y-74009826D01*
X142134916Y-74044504D01*
X142134912Y-74044511D01*
X142078343Y-74181082D01*
X142078341Y-74181090D01*
X142077127Y-74187194D01*
X142044740Y-74249105D01*
X141984023Y-74283677D01*
X141955510Y-74287000D01*
X141135502Y-74287000D01*
X141068463Y-74267315D01*
X141047821Y-74250681D01*
X140951801Y-74154661D01*
X140951800Y-74154660D01*
X140852039Y-74093127D01*
X140804968Y-74064093D01*
X140804963Y-74064091D01*
X140799389Y-74062244D01*
X140641203Y-74009826D01*
X140641201Y-74009825D01*
X140540128Y-73999500D01*
X139966780Y-73999500D01*
X139966762Y-73999501D01*
X139865697Y-74009825D01*
X139701934Y-74064092D01*
X139701931Y-74064093D01*
X139558547Y-74152534D01*
X139491154Y-74170974D01*
X139428353Y-74152534D01*
X139284968Y-74064093D01*
X139284963Y-74064091D01*
X139279389Y-74062244D01*
X139121203Y-74009826D01*
X139121201Y-74009825D01*
X139020128Y-73999500D01*
X138446780Y-73999500D01*
X138446762Y-73999501D01*
X138345697Y-74009825D01*
X138181934Y-74064092D01*
X138181931Y-74064093D01*
X138035098Y-74154661D01*
X137913111Y-74276648D01*
X137863798Y-74356598D01*
X137811850Y-74403322D01*
X137742887Y-74414545D01*
X137678805Y-74386701D01*
X137670578Y-74379182D01*
X135745268Y-72453872D01*
X135711783Y-72392549D01*
X135708949Y-72366191D01*
X135708949Y-72338330D01*
X135708948Y-72338313D01*
X135701748Y-72267833D01*
X135698624Y-72237247D01*
X135698623Y-72237246D01*
X135698609Y-72237101D01*
X135711379Y-72168409D01*
X135759260Y-72117524D01*
X135821967Y-72100500D01*
X142467582Y-72100500D01*
X142534621Y-72120185D01*
G37*
%TD.AperFunction*%
%TA.AperFunction,NonConductor*%
G36*
X104505703Y-73637042D02*
G01*
X104536880Y-73678349D01*
X104545965Y-73697830D01*
X104545966Y-73697831D01*
X104545967Y-73697834D01*
X104619353Y-73802639D01*
X104678596Y-73887247D01*
X104681501Y-73891395D01*
X104681506Y-73891402D01*
X104848597Y-74058493D01*
X104848603Y-74058498D01*
X105034158Y-74188425D01*
X105077783Y-74243002D01*
X105084977Y-74312500D01*
X105053454Y-74374855D01*
X105034158Y-74391575D01*
X104848597Y-74521505D01*
X104681505Y-74688597D01*
X104545965Y-74882169D01*
X104545964Y-74882171D01*
X104536882Y-74901649D01*
X104490709Y-74954088D01*
X104423516Y-74973240D01*
X104356635Y-74953024D01*
X104311300Y-74899859D01*
X104300500Y-74849244D01*
X104300500Y-73730755D01*
X104320185Y-73663716D01*
X104372989Y-73617961D01*
X104442147Y-73608017D01*
X104505703Y-73637042D01*
G37*
%TD.AperFunction*%
%TA.AperFunction,NonConductor*%
G36*
X148742539Y-72120185D02*
G01*
X148788294Y-72172989D01*
X148799500Y-72224500D01*
X148799500Y-76851928D01*
X148779815Y-76918967D01*
X148727011Y-76964722D01*
X148657853Y-76974666D01*
X148634546Y-76968970D01*
X148479257Y-76914632D01*
X148479249Y-76914630D01*
X148300004Y-76894435D01*
X148299996Y-76894435D01*
X148120750Y-76914630D01*
X148120745Y-76914631D01*
X147950476Y-76974211D01*
X147857190Y-77032827D01*
X147789953Y-77051827D01*
X147723118Y-77031459D01*
X147677904Y-76978191D01*
X147668667Y-76908935D01*
X147698338Y-76845678D01*
X147703523Y-76840166D01*
X147720340Y-76823350D01*
X147810908Y-76676516D01*
X147865174Y-76512753D01*
X147875500Y-76411677D01*
X147875499Y-75713324D01*
X147865174Y-75612247D01*
X147810908Y-75448484D01*
X147720340Y-75301650D01*
X147706371Y-75287681D01*
X147672886Y-75226358D01*
X147677870Y-75156666D01*
X147706371Y-75112319D01*
X147720340Y-75098350D01*
X147810908Y-74951516D01*
X147865174Y-74787753D01*
X147875500Y-74686677D01*
X147875499Y-73988324D01*
X147875219Y-73985586D01*
X147865174Y-73887247D01*
X147863531Y-73882288D01*
X147810908Y-73723484D01*
X147720340Y-73576650D01*
X147720339Y-73576649D01*
X147720338Y-73576647D01*
X147715862Y-73570987D01*
X147717125Y-73569988D01*
X147687787Y-73516259D01*
X147685733Y-73476017D01*
X147705565Y-73300002D01*
X147705565Y-73299996D01*
X147685369Y-73120750D01*
X147685368Y-73120745D01*
X147650115Y-73019999D01*
X147625789Y-72950478D01*
X147529816Y-72797738D01*
X147402262Y-72670184D01*
X147370897Y-72650476D01*
X147249523Y-72574211D01*
X147079254Y-72514631D01*
X147079249Y-72514630D01*
X146900004Y-72494435D01*
X146899996Y-72494435D01*
X146720750Y-72514630D01*
X146720745Y-72514631D01*
X146550476Y-72574211D01*
X146397737Y-72670184D01*
X146270184Y-72797737D01*
X146174211Y-72950476D01*
X146114631Y-73120745D01*
X146114630Y-73120750D01*
X146094435Y-73299996D01*
X146094435Y-73300004D01*
X146114266Y-73476017D01*
X146102211Y-73544839D01*
X146083708Y-73570639D01*
X146084141Y-73570982D01*
X146079663Y-73576644D01*
X145989093Y-73723481D01*
X145989091Y-73723486D01*
X145968585Y-73785369D01*
X145934826Y-73887247D01*
X145934826Y-73887248D01*
X145934825Y-73887248D01*
X145924500Y-73988315D01*
X145924500Y-74156300D01*
X145904815Y-74223339D01*
X145852011Y-74269094D01*
X145800500Y-74280300D01*
X145374500Y-74280300D01*
X145307461Y-74260615D01*
X145261706Y-74207811D01*
X145250500Y-74156300D01*
X145250499Y-72402129D01*
X145250498Y-72402123D01*
X145250497Y-72402116D01*
X145244091Y-72342517D01*
X145243961Y-72342169D01*
X145216236Y-72267833D01*
X145211252Y-72198141D01*
X145244737Y-72136818D01*
X145306061Y-72103334D01*
X145332418Y-72100500D01*
X148675500Y-72100500D01*
X148742539Y-72120185D01*
G37*
%TD.AperFunction*%
%TA.AperFunction,NonConductor*%
G36*
X130052208Y-76495184D02*
G01*
X130072850Y-76511818D01*
X130391032Y-76830000D01*
X130589229Y-77028196D01*
X130622714Y-77089519D01*
X130617730Y-77159210D01*
X130575859Y-77215144D01*
X130540553Y-77233583D01*
X130448484Y-77264092D01*
X130448481Y-77264093D01*
X130301650Y-77354659D01*
X130279040Y-77377270D01*
X130217716Y-77410754D01*
X130148024Y-77405768D01*
X130103679Y-77377268D01*
X129997825Y-77271414D01*
X129997817Y-77271408D01*
X129885945Y-77205248D01*
X129856897Y-77188069D01*
X129856896Y-77188068D01*
X129856895Y-77188068D01*
X129856893Y-77188067D01*
X129790164Y-77168680D01*
X129731278Y-77131073D01*
X129702073Y-77067600D01*
X129701540Y-77035719D01*
X129703024Y-77022555D01*
X129705565Y-77000000D01*
X129703913Y-76985336D01*
X129685369Y-76820750D01*
X129685368Y-76820745D01*
X129623489Y-76643905D01*
X129625487Y-76643205D01*
X129615796Y-76584362D01*
X129643518Y-76520227D01*
X129701512Y-76481260D01*
X129738869Y-76475499D01*
X129985169Y-76475499D01*
X130052208Y-76495184D01*
G37*
%TD.AperFunction*%
%TA.AperFunction,NonConductor*%
G36*
X104505703Y-76177042D02*
G01*
X104536880Y-76218349D01*
X104545965Y-76237830D01*
X104545966Y-76237831D01*
X104545967Y-76237834D01*
X104681501Y-76431395D01*
X104681506Y-76431402D01*
X104848597Y-76598493D01*
X104848603Y-76598498D01*
X105034158Y-76728425D01*
X105077783Y-76783002D01*
X105084977Y-76852500D01*
X105053454Y-76914855D01*
X105034158Y-76931575D01*
X104848597Y-77061505D01*
X104681505Y-77228597D01*
X104545965Y-77422169D01*
X104545964Y-77422171D01*
X104536882Y-77441649D01*
X104490709Y-77494088D01*
X104423516Y-77513240D01*
X104356635Y-77493024D01*
X104311300Y-77439859D01*
X104300500Y-77389244D01*
X104300500Y-76270755D01*
X104320185Y-76203716D01*
X104372989Y-76157961D01*
X104442147Y-76148017D01*
X104505703Y-76177042D01*
G37*
%TD.AperFunction*%
%TA.AperFunction,NonConductor*%
G36*
X147675605Y-76982856D02*
G01*
X147720374Y-77036498D01*
X147729036Y-77105829D01*
X147698840Y-77168836D01*
X147694329Y-77173593D01*
X147670183Y-77197739D01*
X147574211Y-77350476D01*
X147514631Y-77520745D01*
X147514630Y-77520750D01*
X147499056Y-77658983D01*
X147471990Y-77723397D01*
X147414395Y-77762952D01*
X147375836Y-77769100D01*
X147334700Y-77769100D01*
X147267661Y-77749415D01*
X147221906Y-77696611D01*
X147210700Y-77645100D01*
X147210700Y-77205248D01*
X147230385Y-77138209D01*
X147283189Y-77092454D01*
X147295696Y-77087542D01*
X147305239Y-77084379D01*
X147451516Y-77035908D01*
X147541549Y-76980374D01*
X147608941Y-76961934D01*
X147675605Y-76982856D01*
G37*
%TD.AperFunction*%
%TA.AperFunction,NonConductor*%
G36*
X135387265Y-76961656D02*
G01*
X135418458Y-77024176D01*
X135420400Y-77046033D01*
X135420400Y-79291778D01*
X135400715Y-79358817D01*
X135347911Y-79404572D01*
X135282517Y-79414998D01*
X135134516Y-79398323D01*
X135070102Y-79371257D01*
X135030547Y-79313662D01*
X135024399Y-79275103D01*
X135024399Y-77089594D01*
X135044084Y-77022555D01*
X135096888Y-76976800D01*
X135135796Y-76966237D01*
X135146203Y-76965174D01*
X135146209Y-76965172D01*
X135146210Y-76965172D01*
X135203411Y-76946217D01*
X135257396Y-76928327D01*
X135327223Y-76925925D01*
X135387265Y-76961656D01*
G37*
%TD.AperFunction*%
%TA.AperFunction,NonConductor*%
G36*
X104505703Y-78717042D02*
G01*
X104536880Y-78758349D01*
X104545965Y-78777830D01*
X104545966Y-78777831D01*
X104545967Y-78777834D01*
X104681501Y-78971395D01*
X104681506Y-78971402D01*
X104848597Y-79138493D01*
X104848603Y-79138498D01*
X105034158Y-79268425D01*
X105077783Y-79323002D01*
X105084977Y-79392500D01*
X105053454Y-79454855D01*
X105034158Y-79471575D01*
X104848597Y-79601505D01*
X104681505Y-79768597D01*
X104545965Y-79962169D01*
X104545964Y-79962171D01*
X104536882Y-79981649D01*
X104490709Y-80034088D01*
X104423516Y-80053240D01*
X104356635Y-80033024D01*
X104311300Y-79979859D01*
X104300500Y-79929244D01*
X104300500Y-78810755D01*
X104320185Y-78743716D01*
X104372989Y-78697961D01*
X104442147Y-78688017D01*
X104505703Y-78717042D01*
G37*
%TD.AperFunction*%
%TA.AperFunction,NonConductor*%
G36*
X124943365Y-70915416D02*
G01*
X124988700Y-70968581D01*
X124999500Y-71019196D01*
X124999500Y-71665892D01*
X125016008Y-71727500D01*
X125033608Y-71793187D01*
X125057666Y-71834855D01*
X125099500Y-71907314D01*
X125192686Y-72000500D01*
X125306814Y-72066392D01*
X125434108Y-72100500D01*
X125565892Y-72100500D01*
X131496524Y-72100500D01*
X131563563Y-72120185D01*
X131609318Y-72172989D01*
X131619262Y-72242147D01*
X131590237Y-72305703D01*
X131562496Y-72329494D01*
X131497737Y-72370184D01*
X131370184Y-72497737D01*
X131274211Y-72650476D01*
X131214631Y-72820745D01*
X131214630Y-72820750D01*
X131194435Y-72999996D01*
X131194435Y-73000003D01*
X131214630Y-73179249D01*
X131214631Y-73179254D01*
X131274211Y-73349523D01*
X131305105Y-73398690D01*
X131370184Y-73502262D01*
X131497738Y-73629816D01*
X131574983Y-73678352D01*
X131648426Y-73724500D01*
X131650478Y-73725789D01*
X131820745Y-73785368D01*
X131820750Y-73785369D01*
X131999996Y-73805565D01*
X132000000Y-73805565D01*
X132000002Y-73805565D01*
X132060244Y-73798777D01*
X132132950Y-73790585D01*
X132201772Y-73802639D01*
X132253151Y-73849988D01*
X132270776Y-73917598D01*
X132264540Y-73952808D01*
X132228276Y-74062244D01*
X132228275Y-74062248D01*
X132217950Y-74163315D01*
X132217950Y-74761669D01*
X132217951Y-74761687D01*
X132228275Y-74862752D01*
X132228276Y-74862755D01*
X132281542Y-75023500D01*
X132283944Y-75093328D01*
X132248212Y-75153370D01*
X132228936Y-75168040D01*
X132210105Y-75179655D01*
X132210099Y-75179660D01*
X132088107Y-75301652D01*
X132040854Y-75378260D01*
X131996689Y-75419779D01*
X131996937Y-75420151D01*
X131994715Y-75421635D01*
X131993783Y-75422512D01*
X131991883Y-75423527D01*
X131887649Y-75493174D01*
X131832647Y-75513290D01*
X131820745Y-75514632D01*
X131820744Y-75514632D01*
X131650477Y-75574210D01*
X131493164Y-75673057D01*
X131425927Y-75692057D01*
X131359092Y-75671689D01*
X131339511Y-75655744D01*
X131107302Y-75423535D01*
X130859218Y-75175450D01*
X130825733Y-75114127D01*
X130822899Y-75087769D01*
X130822899Y-74424998D01*
X130822898Y-74424981D01*
X130812399Y-74322203D01*
X130812398Y-74322200D01*
X130797304Y-74276650D01*
X130757214Y-74155666D01*
X130665112Y-74006344D01*
X130541056Y-73882288D01*
X130448288Y-73825069D01*
X130391736Y-73790187D01*
X130391731Y-73790185D01*
X130377194Y-73785368D01*
X130225197Y-73735001D01*
X130225195Y-73735000D01*
X130122410Y-73724500D01*
X129322398Y-73724500D01*
X129322380Y-73724501D01*
X129219603Y-73735000D01*
X129219600Y-73735001D01*
X129053068Y-73790185D01*
X129053063Y-73790187D01*
X128903742Y-73882289D01*
X128779687Y-74006344D01*
X128740088Y-74070544D01*
X128688139Y-74117268D01*
X128619177Y-74128489D01*
X128555095Y-74100645D01*
X128546869Y-74093127D01*
X128439330Y-73985588D01*
X128439328Y-73985586D01*
X128299188Y-73883768D01*
X128144845Y-73805127D01*
X127980101Y-73751598D01*
X127980099Y-73751597D01*
X127980098Y-73751597D01*
X127817149Y-73725789D01*
X127809011Y-73724500D01*
X127635789Y-73724500D01*
X127627651Y-73725789D01*
X127464702Y-73751597D01*
X127299952Y-73805128D01*
X127145611Y-73883768D01*
X127099049Y-73917598D01*
X127005472Y-73985586D01*
X127005470Y-73985588D01*
X127005469Y-73985588D01*
X126882988Y-74108069D01*
X126882988Y-74108070D01*
X126882986Y-74108072D01*
X126842844Y-74163323D01*
X126781168Y-74248211D01*
X126702528Y-74402552D01*
X126648997Y-74567302D01*
X126635820Y-74650499D01*
X126621900Y-74738389D01*
X126621900Y-75461611D01*
X126648998Y-75632701D01*
X126702527Y-75797445D01*
X126781168Y-75951788D01*
X126882986Y-76091928D01*
X127005472Y-76214414D01*
X127145612Y-76316232D01*
X127299955Y-76394873D01*
X127464699Y-76448402D01*
X127635789Y-76475500D01*
X127635790Y-76475500D01*
X127809010Y-76475500D01*
X127809011Y-76475500D01*
X127980101Y-76448402D01*
X128058280Y-76422999D01*
X128128117Y-76421003D01*
X128187951Y-76457083D01*
X128218780Y-76519783D01*
X128210816Y-76589198D01*
X128201591Y-76606900D01*
X128174211Y-76650476D01*
X128114632Y-76820744D01*
X128114630Y-76820752D01*
X128113815Y-76827988D01*
X128086742Y-76892400D01*
X128078279Y-76901773D01*
X127994718Y-76985336D01*
X127954164Y-77046033D01*
X127948084Y-77055133D01*
X127935337Y-77074211D01*
X127925233Y-77089332D01*
X127871621Y-77134137D01*
X127806032Y-77142374D01*
X127805992Y-77142888D01*
X127803504Y-77142692D01*
X127802296Y-77142844D01*
X127799850Y-77142423D01*
X127799673Y-77142390D01*
X127762947Y-77139500D01*
X127762940Y-77139500D01*
X127337060Y-77139500D01*
X127337052Y-77139500D01*
X127300326Y-77142390D01*
X127300320Y-77142391D01*
X127143107Y-77188066D01*
X127143104Y-77188068D01*
X127002182Y-77271408D01*
X127002174Y-77271414D01*
X126886408Y-77387180D01*
X126884351Y-77389833D01*
X126882209Y-77391379D01*
X126880893Y-77392696D01*
X126880680Y-77392483D01*
X126827707Y-77430738D01*
X126757940Y-77434526D01*
X126697201Y-77399994D01*
X126681380Y-77379802D01*
X126665582Y-77354659D01*
X126629816Y-77297738D01*
X126502262Y-77170184D01*
X126444894Y-77134137D01*
X126349523Y-77074211D01*
X126179254Y-77014631D01*
X126179249Y-77014630D01*
X126000004Y-76994435D01*
X125999996Y-76994435D01*
X125820750Y-77014630D01*
X125820745Y-77014631D01*
X125650476Y-77074211D01*
X125497737Y-77170184D01*
X125370184Y-77297737D01*
X125274211Y-77450476D01*
X125214631Y-77620745D01*
X125214630Y-77620750D01*
X125194435Y-77799996D01*
X125194435Y-77800003D01*
X125214630Y-77979249D01*
X125214632Y-77979257D01*
X125256921Y-78100113D01*
X125260482Y-78169892D01*
X125227562Y-78228747D01*
X125179659Y-78276650D01*
X125089093Y-78423481D01*
X125089092Y-78423484D01*
X125034826Y-78587247D01*
X125034826Y-78587248D01*
X125034825Y-78587248D01*
X125024500Y-78688315D01*
X125024500Y-79386669D01*
X125024501Y-79386687D01*
X125034825Y-79487752D01*
X125089092Y-79651515D01*
X125089093Y-79651518D01*
X125117806Y-79698069D01*
X125177245Y-79794435D01*
X125179661Y-79798351D01*
X125193629Y-79812319D01*
X125227114Y-79873642D01*
X125222130Y-79943334D01*
X125193629Y-79987681D01*
X125179661Y-80001648D01*
X125089093Y-80148481D01*
X125089091Y-80148486D01*
X125040976Y-80293688D01*
X125001203Y-80351133D01*
X124936687Y-80377956D01*
X124867911Y-80365641D01*
X124816712Y-80318098D01*
X124803495Y-80286777D01*
X124773905Y-80176344D01*
X124773904Y-80176343D01*
X124773903Y-80176337D01*
X124674035Y-79962171D01*
X124660846Y-79943334D01*
X124538494Y-79768597D01*
X124371402Y-79601506D01*
X124371396Y-79601501D01*
X124185842Y-79471575D01*
X124142217Y-79416998D01*
X124135023Y-79347500D01*
X124166546Y-79285145D01*
X124185842Y-79268425D01*
X124286793Y-79197738D01*
X124371401Y-79138495D01*
X124538495Y-78971401D01*
X124674035Y-78777830D01*
X124773903Y-78563663D01*
X124835063Y-78335408D01*
X124855659Y-78100000D01*
X124835063Y-77864592D01*
X124773903Y-77636337D01*
X124674035Y-77422171D01*
X124653397Y-77392696D01*
X124538494Y-77228597D01*
X124371402Y-77061506D01*
X124371396Y-77061501D01*
X124185842Y-76931575D01*
X124142217Y-76876998D01*
X124135023Y-76807500D01*
X124166546Y-76745145D01*
X124185842Y-76728425D01*
X124208026Y-76712891D01*
X124371401Y-76598495D01*
X124538495Y-76431401D01*
X124674035Y-76237830D01*
X124773903Y-76023663D01*
X124835063Y-75795408D01*
X124855659Y-75560000D01*
X124835063Y-75324592D01*
X124788626Y-75151285D01*
X124773905Y-75096344D01*
X124773904Y-75096343D01*
X124773903Y-75096337D01*
X124674035Y-74882171D01*
X124660439Y-74862753D01*
X124538494Y-74688597D01*
X124371402Y-74521506D01*
X124371396Y-74521501D01*
X124185842Y-74391575D01*
X124142217Y-74336998D01*
X124135023Y-74267500D01*
X124166546Y-74205145D01*
X124185842Y-74188425D01*
X124232624Y-74155668D01*
X124371401Y-74058495D01*
X124538495Y-73891401D01*
X124674035Y-73697830D01*
X124773903Y-73483663D01*
X124835063Y-73255408D01*
X124855659Y-73020000D01*
X124835063Y-72784592D01*
X124773903Y-72556337D01*
X124674035Y-72342171D01*
X124671342Y-72338324D01*
X124538494Y-72148597D01*
X124371402Y-71981506D01*
X124371396Y-71981501D01*
X124185842Y-71851575D01*
X124142217Y-71796998D01*
X124135023Y-71727500D01*
X124166546Y-71665145D01*
X124185842Y-71648425D01*
X124349103Y-71534108D01*
X124371401Y-71518495D01*
X124538495Y-71351401D01*
X124674035Y-71157830D01*
X124763118Y-70966790D01*
X124809290Y-70914352D01*
X124876484Y-70895200D01*
X124943365Y-70915416D01*
G37*
%TD.AperFunction*%
%TA.AperFunction,NonConductor*%
G36*
X128602182Y-80070185D02*
G01*
X128647937Y-80122989D01*
X128657424Y-80188971D01*
X128657888Y-80189008D01*
X128657725Y-80191068D01*
X128657881Y-80192147D01*
X128657417Y-80194985D01*
X128654500Y-80232052D01*
X128654500Y-81277950D01*
X128657762Y-81319397D01*
X128643397Y-81387774D01*
X128621825Y-81416805D01*
X128527943Y-81510687D01*
X128466620Y-81544172D01*
X128396928Y-81539188D01*
X128340995Y-81497316D01*
X128316578Y-81431852D01*
X128321185Y-81388413D01*
X128342609Y-81314675D01*
X128345500Y-81277940D01*
X128345500Y-80232060D01*
X128342609Y-80195325D01*
X128342112Y-80189008D01*
X128343706Y-80188882D01*
X128350194Y-80127293D01*
X128393919Y-80072796D01*
X128460165Y-80050589D01*
X128464857Y-80050500D01*
X128535143Y-80050500D01*
X128602182Y-80070185D01*
G37*
%TD.AperFunction*%
%TA.AperFunction,NonConductor*%
G36*
X144043334Y-79177870D02*
G01*
X144087681Y-79206371D01*
X144101650Y-79220340D01*
X144248484Y-79310908D01*
X144412247Y-79365174D01*
X144513323Y-79375500D01*
X145211676Y-79375499D01*
X145211684Y-79375498D01*
X145211687Y-79375498D01*
X145267030Y-79369844D01*
X145312753Y-79365174D01*
X145476516Y-79310908D01*
X145491204Y-79301848D01*
X145558594Y-79283408D01*
X145625257Y-79304329D01*
X145670028Y-79357971D01*
X145680300Y-79407386D01*
X145680300Y-79587469D01*
X145680301Y-79587476D01*
X145686708Y-79647083D01*
X145737002Y-79781928D01*
X145737006Y-79781935D01*
X145823252Y-79897144D01*
X145823255Y-79897147D01*
X145938464Y-79983393D01*
X145938471Y-79983397D01*
X145980265Y-79998985D01*
X146073317Y-80033691D01*
X146132927Y-80040100D01*
X146787472Y-80040099D01*
X146847083Y-80033691D01*
X146886765Y-80018889D01*
X146956456Y-80013904D01*
X146973422Y-80018885D01*
X147013117Y-80033691D01*
X147072727Y-80040100D01*
X147727272Y-80040099D01*
X147786883Y-80033691D01*
X147826565Y-80018889D01*
X147896256Y-80013904D01*
X147913222Y-80018885D01*
X147952917Y-80033691D01*
X148012527Y-80040100D01*
X148667072Y-80040099D01*
X148667076Y-80040098D01*
X148668857Y-80040003D01*
X148669263Y-80040099D01*
X148670393Y-80040099D01*
X148670393Y-80040365D01*
X148736855Y-80056068D01*
X148785373Y-80106345D01*
X148799500Y-80163825D01*
X148799500Y-80236174D01*
X148779815Y-80303213D01*
X148727011Y-80348968D01*
X148670394Y-80359704D01*
X148670394Y-80359900D01*
X148669361Y-80359900D01*
X148668855Y-80359996D01*
X148667079Y-80359900D01*
X148667073Y-80359900D01*
X148667066Y-80359900D01*
X148012529Y-80359900D01*
X148012523Y-80359901D01*
X147952916Y-80366308D01*
X147818071Y-80416602D01*
X147818064Y-80416606D01*
X147702855Y-80502852D01*
X147702852Y-80502855D01*
X147616606Y-80618064D01*
X147616602Y-80618071D01*
X147566308Y-80752917D01*
X147563256Y-80781310D01*
X147559901Y-80812523D01*
X147559900Y-80812535D01*
X147559900Y-82178270D01*
X147559901Y-82178286D01*
X147562005Y-82197857D01*
X147549596Y-82266616D01*
X147503812Y-82316644D01*
X147420367Y-82368114D01*
X147352975Y-82386555D01*
X147286311Y-82365633D01*
X147241542Y-82311991D01*
X147233252Y-82245637D01*
X147232862Y-82245596D01*
X147233039Y-82243940D01*
X147232880Y-82242660D01*
X147233526Y-82239418D01*
X147235533Y-82220747D01*
X147240100Y-82178273D01*
X147240099Y-80812528D01*
X147233691Y-80752917D01*
X147214767Y-80702180D01*
X147183397Y-80618071D01*
X147183393Y-80618064D01*
X147097147Y-80502855D01*
X147097144Y-80502852D01*
X146981935Y-80416606D01*
X146981928Y-80416602D01*
X146847086Y-80366310D01*
X146847085Y-80366309D01*
X146847083Y-80366309D01*
X146787473Y-80359900D01*
X146787463Y-80359900D01*
X146132929Y-80359900D01*
X146132923Y-80359901D01*
X146073316Y-80366308D01*
X145938471Y-80416602D01*
X145938464Y-80416606D01*
X145823255Y-80502852D01*
X145737471Y-80617444D01*
X145681537Y-80659314D01*
X145611845Y-80664298D01*
X145573110Y-80648672D01*
X145494201Y-80600000D01*
X145476518Y-80589093D01*
X145476513Y-80589091D01*
X145446048Y-80578996D01*
X145312753Y-80534826D01*
X145312751Y-80534825D01*
X145211678Y-80524500D01*
X144513330Y-80524500D01*
X144513312Y-80524501D01*
X144412247Y-80534825D01*
X144248484Y-80589092D01*
X144248481Y-80589093D01*
X144165949Y-80640000D01*
X144101650Y-80679660D01*
X144101648Y-80679661D01*
X144095503Y-80683452D01*
X144094220Y-80681372D01*
X144040154Y-80703170D01*
X143971516Y-80690113D01*
X143920832Y-80642019D01*
X143904849Y-80593643D01*
X143885369Y-80420750D01*
X143885368Y-80420745D01*
X143860252Y-80348968D01*
X143825789Y-80250478D01*
X143729816Y-80097738D01*
X143602262Y-79970184D01*
X143559531Y-79943334D01*
X143449523Y-79874211D01*
X143279254Y-79814631D01*
X143279249Y-79814630D01*
X143100004Y-79794435D01*
X143099996Y-79794435D01*
X142920750Y-79814630D01*
X142920745Y-79814631D01*
X142750476Y-79874211D01*
X142597737Y-79970184D01*
X142597425Y-79970497D01*
X142597173Y-79970634D01*
X142592295Y-79974525D01*
X142591613Y-79973669D01*
X142536099Y-80003976D01*
X142466407Y-79998985D01*
X142410478Y-79957108D01*
X142386067Y-79891641D01*
X142386532Y-79868923D01*
X142405565Y-79700002D01*
X142405565Y-79699996D01*
X142385369Y-79520750D01*
X142385367Y-79520740D01*
X142367464Y-79469578D01*
X142363901Y-79399799D01*
X142398630Y-79339171D01*
X142460623Y-79306944D01*
X142523507Y-79310915D01*
X142687247Y-79365174D01*
X142788323Y-79375500D01*
X143486676Y-79375499D01*
X143486684Y-79375498D01*
X143486687Y-79375498D01*
X143542030Y-79369844D01*
X143587753Y-79365174D01*
X143751516Y-79310908D01*
X143898350Y-79220340D01*
X143912319Y-79206371D01*
X143973642Y-79172886D01*
X144043334Y-79177870D01*
G37*
%TD.AperFunction*%
%TA.AperFunction,NonConductor*%
G36*
X104505703Y-81257042D02*
G01*
X104536880Y-81298349D01*
X104545965Y-81317830D01*
X104545966Y-81317831D01*
X104545967Y-81317834D01*
X104681501Y-81511395D01*
X104681506Y-81511402D01*
X104848597Y-81678493D01*
X104848603Y-81678498D01*
X105034158Y-81808425D01*
X105077783Y-81863002D01*
X105084977Y-81932500D01*
X105053454Y-81994855D01*
X105034158Y-82011575D01*
X104848597Y-82141505D01*
X104681505Y-82308597D01*
X104545965Y-82502169D01*
X104545964Y-82502171D01*
X104536882Y-82521649D01*
X104490709Y-82574088D01*
X104423516Y-82593240D01*
X104356635Y-82573024D01*
X104311300Y-82519859D01*
X104300500Y-82469244D01*
X104300500Y-81350755D01*
X104320185Y-81283716D01*
X104372989Y-81237961D01*
X104442147Y-81228017D01*
X104505703Y-81257042D01*
G37*
%TD.AperFunction*%
%TA.AperFunction,NonConductor*%
G36*
X135351339Y-80997056D02*
G01*
X135402718Y-81044405D01*
X135420400Y-81108221D01*
X135420400Y-81394169D01*
X135420401Y-81394176D01*
X135426808Y-81453783D01*
X135477102Y-81588628D01*
X135477106Y-81588635D01*
X135563352Y-81703844D01*
X135563355Y-81703847D01*
X135678564Y-81790093D01*
X135678571Y-81790097D01*
X135813417Y-81840391D01*
X135813416Y-81840391D01*
X135820344Y-81841135D01*
X135873027Y-81846800D01*
X136947114Y-81846799D01*
X137014153Y-81866483D01*
X137059908Y-81919287D01*
X137070334Y-81956915D01*
X137084090Y-82079009D01*
X137084091Y-82079013D01*
X137143671Y-82249282D01*
X137216780Y-82365633D01*
X137239644Y-82402021D01*
X137367198Y-82529575D01*
X137519938Y-82625548D01*
X137690205Y-82685127D01*
X137701955Y-82686450D01*
X137756964Y-82706567D01*
X137809129Y-82741422D01*
X137830170Y-82755482D01*
X137830172Y-82755483D01*
X137831500Y-82756370D01*
X137876315Y-82809974D01*
X137885035Y-82879297D01*
X137881708Y-82894068D01*
X137879891Y-82900322D01*
X137879890Y-82900326D01*
X137877000Y-82937052D01*
X137877000Y-82975621D01*
X137857315Y-83042660D01*
X137804511Y-83088415D01*
X137739119Y-83098842D01*
X137717738Y-83096433D01*
X137700000Y-83094435D01*
X137699998Y-83094435D01*
X137699997Y-83094435D01*
X137699996Y-83094435D01*
X137520750Y-83114630D01*
X137520737Y-83114633D01*
X137343906Y-83176510D01*
X137343157Y-83174369D01*
X137284821Y-83183958D01*
X137256405Y-83175611D01*
X137256091Y-83176510D01*
X137079259Y-83114633D01*
X137079246Y-83114630D01*
X136900001Y-83094435D01*
X136899993Y-83094435D01*
X136720747Y-83114630D01*
X136720739Y-83114632D01*
X136561578Y-83170325D01*
X136491799Y-83173886D01*
X136454654Y-83158278D01*
X136449748Y-83155195D01*
X136279478Y-83095615D01*
X136279473Y-83095614D01*
X136100228Y-83075419D01*
X136100220Y-83075419D01*
X135920974Y-83095614D01*
X135920961Y-83095617D01*
X135750706Y-83155192D01*
X135745795Y-83158278D01*
X135704926Y-83183958D01*
X135700950Y-83186456D01*
X135633713Y-83205455D01*
X135569007Y-83186454D01*
X135551750Y-83175611D01*
X135549519Y-83174209D01*
X135379262Y-83114633D01*
X135379249Y-83114630D01*
X135200004Y-83094435D01*
X135199996Y-83094435D01*
X135020750Y-83114630D01*
X135020745Y-83114631D01*
X134850476Y-83174211D01*
X134697737Y-83270184D01*
X134570184Y-83397737D01*
X134474211Y-83550476D01*
X134414631Y-83720745D01*
X134414630Y-83720750D01*
X134394435Y-83899996D01*
X134394435Y-83900003D01*
X134406889Y-84010539D01*
X134394834Y-84079361D01*
X134347485Y-84130740D01*
X134327005Y-84140603D01*
X134289469Y-84154603D01*
X134289463Y-84154607D01*
X134174252Y-84240854D01*
X134173406Y-84241701D01*
X134172357Y-84242273D01*
X134167155Y-84246168D01*
X134166594Y-84245419D01*
X134112078Y-84275177D01*
X134042387Y-84270183D01*
X133998056Y-84241688D01*
X133771597Y-84015228D01*
X133771574Y-84015207D01*
X132881903Y-83125536D01*
X132848418Y-83064213D01*
X132853402Y-82994521D01*
X132881902Y-82950175D01*
X132929816Y-82902262D01*
X133025789Y-82749522D01*
X133085368Y-82579255D01*
X133085369Y-82579249D01*
X133105565Y-82400003D01*
X133105565Y-82399996D01*
X133088583Y-82249281D01*
X133085368Y-82220745D01*
X133057458Y-82140982D01*
X133050500Y-82100028D01*
X133050500Y-81970799D01*
X133070185Y-81903760D01*
X133122989Y-81858005D01*
X133174500Y-81846799D01*
X134571771Y-81846799D01*
X134571772Y-81846799D01*
X134631383Y-81840391D01*
X134766231Y-81790096D01*
X134881446Y-81703846D01*
X134967696Y-81588631D01*
X135017991Y-81453783D01*
X135024400Y-81394173D01*
X135024399Y-81124894D01*
X135044083Y-81057857D01*
X135096887Y-81012102D01*
X135134516Y-81001676D01*
X135282517Y-80985001D01*
X135351339Y-80997056D01*
G37*
%TD.AperFunction*%
%TA.AperFunction,NonConductor*%
G36*
X129940833Y-82323047D02*
G01*
X129985180Y-82351548D01*
X130484120Y-82850488D01*
X130517605Y-82911811D01*
X130512621Y-82981503D01*
X130470749Y-83037436D01*
X130465329Y-83041271D01*
X130385332Y-83094722D01*
X130385325Y-83094728D01*
X128862180Y-84617873D01*
X128800857Y-84651358D01*
X128731165Y-84646374D01*
X128675232Y-84604502D01*
X128650815Y-84539038D01*
X128650499Y-84530216D01*
X128650499Y-83562228D01*
X128670184Y-83495190D01*
X128686813Y-83474553D01*
X129809818Y-82351547D01*
X129871141Y-82318063D01*
X129940833Y-82323047D01*
G37*
%TD.AperFunction*%
%TA.AperFunction,NonConductor*%
G36*
X104505703Y-83797042D02*
G01*
X104536880Y-83838349D01*
X104545965Y-83857830D01*
X104545966Y-83857831D01*
X104545967Y-83857834D01*
X104681501Y-84051395D01*
X104681506Y-84051402D01*
X104848597Y-84218493D01*
X104848603Y-84218498D01*
X105034158Y-84348425D01*
X105077783Y-84403002D01*
X105084977Y-84472500D01*
X105053454Y-84534855D01*
X105034158Y-84551575D01*
X104848597Y-84681505D01*
X104681505Y-84848597D01*
X104545965Y-85042169D01*
X104545964Y-85042171D01*
X104536882Y-85061649D01*
X104490709Y-85114088D01*
X104423516Y-85133240D01*
X104356635Y-85113024D01*
X104311300Y-85059859D01*
X104300500Y-85009244D01*
X104300500Y-83890755D01*
X104320185Y-83823716D01*
X104372989Y-83777961D01*
X104442147Y-83768017D01*
X104505703Y-83797042D01*
G37*
%TD.AperFunction*%
%TA.AperFunction,NonConductor*%
G36*
X144043334Y-83977870D02*
G01*
X144087681Y-84006371D01*
X144101650Y-84020340D01*
X144248484Y-84110908D01*
X144412247Y-84165174D01*
X144513323Y-84175500D01*
X144692127Y-84175499D01*
X144759167Y-84195183D01*
X144804922Y-84247987D01*
X144811804Y-84272757D01*
X144813083Y-84272466D01*
X144814632Y-84279255D01*
X144874210Y-84449521D01*
X144896158Y-84484451D01*
X144970184Y-84602262D01*
X145097738Y-84729816D01*
X145250478Y-84825789D01*
X145412969Y-84882647D01*
X145420745Y-84885368D01*
X145420750Y-84885369D01*
X145599996Y-84905565D01*
X145600000Y-84905565D01*
X145600004Y-84905565D01*
X145779249Y-84885369D01*
X145779252Y-84885368D01*
X145779255Y-84885368D01*
X145949522Y-84825789D01*
X146102262Y-84729816D01*
X146229816Y-84602262D01*
X146325789Y-84449522D01*
X146362310Y-84345150D01*
X146403030Y-84288376D01*
X146467983Y-84262628D01*
X146536545Y-84276084D01*
X146586948Y-84324471D01*
X146602571Y-84372222D01*
X146614631Y-84479252D01*
X146614631Y-84479254D01*
X146614632Y-84479255D01*
X146639937Y-84551575D01*
X146645935Y-84568715D01*
X146649496Y-84638494D01*
X146616575Y-84697349D01*
X146578792Y-84735132D01*
X146486687Y-84884457D01*
X146486685Y-84884462D01*
X146484076Y-84892335D01*
X146431501Y-85050997D01*
X146431501Y-85050998D01*
X146431500Y-85050998D01*
X146421000Y-85153777D01*
X146421000Y-85662722D01*
X146401315Y-85729761D01*
X146348511Y-85775516D01*
X146284399Y-85786080D01*
X146208180Y-85778294D01*
X145634830Y-85778294D01*
X145634812Y-85778295D01*
X145533747Y-85788619D01*
X145369984Y-85842886D01*
X145369981Y-85842887D01*
X145223148Y-85933455D01*
X145101161Y-86055442D01*
X145010593Y-86202275D01*
X145010592Y-86202278D01*
X144956326Y-86366041D01*
X144956326Y-86366042D01*
X144956325Y-86366042D01*
X144946000Y-86467109D01*
X144946000Y-86525500D01*
X144926315Y-86592539D01*
X144873511Y-86638294D01*
X144822000Y-86649500D01*
X144427476Y-86649500D01*
X144360437Y-86629815D01*
X144314682Y-86577011D01*
X144304256Y-86511614D01*
X144305565Y-86499998D01*
X144305565Y-86499996D01*
X144285369Y-86320750D01*
X144285368Y-86320745D01*
X144272767Y-86284734D01*
X144225789Y-86150478D01*
X144222975Y-86146000D01*
X144129815Y-85997737D01*
X144002262Y-85870184D01*
X143849523Y-85774211D01*
X143679254Y-85714631D01*
X143679249Y-85714630D01*
X143500004Y-85694435D01*
X143499996Y-85694435D01*
X143320750Y-85714630D01*
X143320737Y-85714633D01*
X143150480Y-85774209D01*
X143115970Y-85795893D01*
X143048733Y-85814892D01*
X142984030Y-85795893D01*
X142949519Y-85774209D01*
X142905045Y-85758647D01*
X142848269Y-85717926D01*
X142822522Y-85652973D01*
X142822000Y-85641606D01*
X142822000Y-84550424D01*
X142841007Y-84484451D01*
X142848517Y-84472500D01*
X142925789Y-84349522D01*
X142957623Y-84258544D01*
X142998345Y-84201769D01*
X143063297Y-84176021D01*
X143074665Y-84175499D01*
X143486670Y-84175499D01*
X143486676Y-84175499D01*
X143587753Y-84165174D01*
X143751516Y-84110908D01*
X143898350Y-84020340D01*
X143912319Y-84006371D01*
X143973642Y-83972886D01*
X144043334Y-83977870D01*
G37*
%TD.AperFunction*%
%TA.AperFunction,NonConductor*%
G36*
X133432660Y-85808075D02*
G01*
X133464983Y-85831351D01*
X133488086Y-85854454D01*
X133511629Y-85870184D01*
X133533217Y-85884608D01*
X133611005Y-85936584D01*
X133747587Y-85993158D01*
X133747591Y-85993158D01*
X133747592Y-85993159D01*
X133892579Y-86022000D01*
X133892582Y-86022000D01*
X133892583Y-86022000D01*
X133897000Y-86022000D01*
X133964039Y-86041685D01*
X134009794Y-86094489D01*
X134021000Y-86146000D01*
X134021000Y-86463491D01*
X134001315Y-86530530D01*
X133984681Y-86551172D01*
X133783623Y-86752230D01*
X133722300Y-86785715D01*
X133652608Y-86780731D01*
X133621631Y-86763815D01*
X133558435Y-86716506D01*
X133558428Y-86716502D01*
X133423582Y-86666208D01*
X133423583Y-86666208D01*
X133363983Y-86659801D01*
X133363981Y-86659800D01*
X133363973Y-86659800D01*
X133363965Y-86659800D01*
X133276690Y-86659800D01*
X133209651Y-86640115D01*
X133173589Y-86604691D01*
X133148276Y-86566808D01*
X132997214Y-86415746D01*
X132963731Y-86354425D01*
X132968715Y-86284734D01*
X133010586Y-86228800D01*
X133019792Y-86222533D01*
X133023350Y-86220340D01*
X133145340Y-86098350D01*
X133235908Y-85951516D01*
X133259597Y-85880027D01*
X133299368Y-85822583D01*
X133363884Y-85795760D01*
X133432660Y-85808075D01*
G37*
%TD.AperFunction*%
%TA.AperFunction,NonConductor*%
G36*
X148766362Y-86798076D02*
G01*
X148797558Y-86860595D01*
X148799500Y-86882456D01*
X148799500Y-87475131D01*
X148779815Y-87542170D01*
X148727011Y-87587925D01*
X148657853Y-87597869D01*
X148636500Y-87592838D01*
X148624300Y-87588796D01*
X148624295Y-87588794D01*
X148521510Y-87578294D01*
X147121498Y-87578294D01*
X147121478Y-87578296D01*
X147063500Y-87584218D01*
X146994807Y-87571448D01*
X146943924Y-87523566D01*
X146927004Y-87455776D01*
X146949421Y-87389600D01*
X146982009Y-87357758D01*
X147036169Y-87321571D01*
X147542127Y-86815611D01*
X147603450Y-86782127D01*
X147629808Y-86779293D01*
X148521502Y-86779293D01*
X148521508Y-86779293D01*
X148624297Y-86768793D01*
X148636492Y-86764751D01*
X148706319Y-86762347D01*
X148766362Y-86798076D01*
G37*
%TD.AperFunction*%
%TA.AperFunction,NonConductor*%
G36*
X104505703Y-86337042D02*
G01*
X104536880Y-86378349D01*
X104545965Y-86397830D01*
X104545966Y-86397831D01*
X104545967Y-86397834D01*
X104681501Y-86591395D01*
X104681506Y-86591402D01*
X104848597Y-86758493D01*
X104848603Y-86758498D01*
X105034158Y-86888425D01*
X105077783Y-86943002D01*
X105084977Y-87012500D01*
X105053454Y-87074855D01*
X105034158Y-87091575D01*
X104848597Y-87221505D01*
X104681505Y-87388597D01*
X104545965Y-87582169D01*
X104545964Y-87582171D01*
X104536882Y-87601649D01*
X104490709Y-87654088D01*
X104423516Y-87673240D01*
X104356635Y-87653024D01*
X104311300Y-87599859D01*
X104300500Y-87549244D01*
X104300500Y-86430755D01*
X104320185Y-86363716D01*
X104372989Y-86317961D01*
X104442147Y-86308017D01*
X104505703Y-86337042D01*
G37*
%TD.AperFunction*%
%TA.AperFunction,NonConductor*%
G36*
X124949309Y-80996303D02*
G01*
X125003188Y-81040786D01*
X125024465Y-81107338D01*
X125024500Y-81110266D01*
X125024500Y-81111655D01*
X125024501Y-81111687D01*
X125034825Y-81212752D01*
X125043179Y-81237961D01*
X125089092Y-81376516D01*
X125179660Y-81523350D01*
X125301650Y-81645340D01*
X125448484Y-81735908D01*
X125612247Y-81790174D01*
X125713323Y-81800500D01*
X126286676Y-81800499D01*
X126286684Y-81800498D01*
X126286687Y-81800498D01*
X126342030Y-81794844D01*
X126387753Y-81790174D01*
X126551516Y-81735908D01*
X126698350Y-81645340D01*
X126720960Y-81622729D01*
X126782279Y-81589246D01*
X126851970Y-81594229D01*
X126896320Y-81622731D01*
X127002174Y-81728585D01*
X127002178Y-81728588D01*
X127002180Y-81728590D01*
X127143103Y-81811931D01*
X127143104Y-81811931D01*
X127143107Y-81811933D01*
X127300320Y-81857608D01*
X127300323Y-81857608D01*
X127300325Y-81857609D01*
X127337060Y-81860500D01*
X127337068Y-81860500D01*
X127762932Y-81860500D01*
X127762940Y-81860500D01*
X127799675Y-81857609D01*
X127873412Y-81836186D01*
X127943280Y-81836385D01*
X128001951Y-81874326D01*
X128030795Y-81937964D01*
X128020654Y-82007094D01*
X127995688Y-82042943D01*
X127625450Y-82413181D01*
X127564127Y-82446666D01*
X127537769Y-82449500D01*
X126402129Y-82449500D01*
X126402123Y-82449501D01*
X126342516Y-82455908D01*
X126207671Y-82506202D01*
X126207664Y-82506206D01*
X126092455Y-82592452D01*
X126092452Y-82592455D01*
X126006206Y-82707664D01*
X126006202Y-82707671D01*
X125955908Y-82842517D01*
X125949501Y-82902116D01*
X125949500Y-82902135D01*
X125949500Y-84697870D01*
X125949501Y-84697876D01*
X125955908Y-84757483D01*
X126006202Y-84892328D01*
X126006206Y-84892335D01*
X126092452Y-85007544D01*
X126092455Y-85007547D01*
X126207664Y-85093793D01*
X126207671Y-85093797D01*
X126342517Y-85144091D01*
X126342516Y-85144091D01*
X126349444Y-85144835D01*
X126402127Y-85150500D01*
X128030192Y-85150499D01*
X128097231Y-85170184D01*
X128142986Y-85222987D01*
X128152930Y-85292146D01*
X128123905Y-85355702D01*
X128117873Y-85362180D01*
X125061623Y-88418430D01*
X125000300Y-88451915D01*
X124930608Y-88446931D01*
X124874675Y-88405059D01*
X124850258Y-88339595D01*
X124850413Y-88319950D01*
X124855659Y-88260000D01*
X124835063Y-88024592D01*
X124779164Y-87815971D01*
X124773905Y-87796344D01*
X124773904Y-87796343D01*
X124773903Y-87796337D01*
X124674035Y-87582171D01*
X124671321Y-87578294D01*
X124538494Y-87388597D01*
X124371402Y-87221506D01*
X124371396Y-87221501D01*
X124185842Y-87091575D01*
X124142217Y-87036998D01*
X124135023Y-86967500D01*
X124166546Y-86905145D01*
X124185842Y-86888425D01*
X124241401Y-86849522D01*
X124371401Y-86758495D01*
X124538495Y-86591401D01*
X124674035Y-86397830D01*
X124773903Y-86183663D01*
X124835063Y-85955408D01*
X124855659Y-85720000D01*
X124855189Y-85714633D01*
X124835063Y-85484596D01*
X124835063Y-85484592D01*
X124773903Y-85256337D01*
X124674035Y-85042171D01*
X124650980Y-85009244D01*
X124538494Y-84848597D01*
X124371402Y-84681506D01*
X124371396Y-84681501D01*
X124185842Y-84551575D01*
X124142217Y-84496998D01*
X124135023Y-84427500D01*
X124166546Y-84365145D01*
X124185842Y-84348425D01*
X124255000Y-84300000D01*
X124371401Y-84218495D01*
X124538495Y-84051401D01*
X124674035Y-83857830D01*
X124773903Y-83643663D01*
X124835063Y-83415408D01*
X124855659Y-83180000D01*
X124835063Y-82944592D01*
X124773903Y-82716337D01*
X124674035Y-82502171D01*
X124650980Y-82469244D01*
X124538494Y-82308597D01*
X124371402Y-82141506D01*
X124371396Y-82141501D01*
X124185842Y-82011575D01*
X124142217Y-81956998D01*
X124135023Y-81887500D01*
X124166546Y-81825145D01*
X124185842Y-81808425D01*
X124289247Y-81736020D01*
X124371401Y-81678495D01*
X124538495Y-81511401D01*
X124674035Y-81317830D01*
X124773903Y-81103663D01*
X124780725Y-81078202D01*
X124817087Y-81018542D01*
X124879933Y-80988011D01*
X124949309Y-80996303D01*
G37*
%TD.AperFunction*%
%TA.AperFunction,NonConductor*%
G36*
X104505703Y-88877042D02*
G01*
X104536880Y-88918349D01*
X104545965Y-88937830D01*
X104545966Y-88937831D01*
X104545967Y-88937834D01*
X104681501Y-89131395D01*
X104681506Y-89131402D01*
X104848597Y-89298493D01*
X104848603Y-89298498D01*
X105034158Y-89428425D01*
X105077783Y-89483002D01*
X105084977Y-89552500D01*
X105053454Y-89614855D01*
X105034158Y-89631575D01*
X104848597Y-89761505D01*
X104681505Y-89928597D01*
X104545965Y-90122169D01*
X104545964Y-90122171D01*
X104536882Y-90141649D01*
X104490709Y-90194088D01*
X104423516Y-90213240D01*
X104356635Y-90193024D01*
X104311300Y-90139859D01*
X104300500Y-90089244D01*
X104300500Y-88970755D01*
X104320185Y-88903716D01*
X104372989Y-88857961D01*
X104442147Y-88848017D01*
X104505703Y-88877042D01*
G37*
%TD.AperFunction*%
%TA.AperFunction,NonConductor*%
G36*
X136193334Y-87041258D02*
G01*
X136237681Y-87069759D01*
X136297738Y-87129816D01*
X136354513Y-87165490D01*
X136450156Y-87225587D01*
X136450478Y-87225789D01*
X136523633Y-87251387D01*
X136620745Y-87285368D01*
X136620750Y-87285369D01*
X136799996Y-87305565D01*
X136800000Y-87305565D01*
X136800004Y-87305565D01*
X136979249Y-87285369D01*
X136979252Y-87285368D01*
X136979255Y-87285368D01*
X137149522Y-87225789D01*
X137302262Y-87129816D01*
X137302262Y-87129815D01*
X137308158Y-87126111D01*
X137309165Y-87127714D01*
X137365100Y-87104874D01*
X137433797Y-87117624D01*
X137484695Y-87165490D01*
X137501634Y-87233275D01*
X137500957Y-87242111D01*
X137494435Y-87299998D01*
X137494435Y-87300006D01*
X137514630Y-87479252D01*
X137514633Y-87479265D01*
X137574209Y-87649521D01*
X137574211Y-87649525D01*
X137595891Y-87684029D01*
X137614891Y-87751266D01*
X137595892Y-87815971D01*
X137574209Y-87850479D01*
X137514633Y-88020737D01*
X137514630Y-88020750D01*
X137494435Y-88199996D01*
X137494435Y-88200003D01*
X137514630Y-88379249D01*
X137514633Y-88379262D01*
X137576510Y-88556094D01*
X137574366Y-88556843D01*
X137583960Y-88615161D01*
X137575612Y-88643595D01*
X137576510Y-88643909D01*
X137514633Y-88820740D01*
X137514630Y-88820753D01*
X137494435Y-88999999D01*
X137494435Y-89000006D01*
X137514630Y-89179252D01*
X137514631Y-89179257D01*
X137574211Y-89349526D01*
X137627312Y-89434035D01*
X137670184Y-89502265D01*
X137797738Y-89629819D01*
X137950478Y-89725792D01*
X138120745Y-89785371D01*
X138120750Y-89785372D01*
X138299996Y-89805568D01*
X138300000Y-89805568D01*
X138300004Y-89805568D01*
X138479249Y-89785372D01*
X138479252Y-89785371D01*
X138479255Y-89785371D01*
X138649522Y-89725792D01*
X138802262Y-89629819D01*
X138929816Y-89502265D01*
X139025789Y-89349525D01*
X139085368Y-89179258D01*
X139090761Y-89131395D01*
X139105565Y-89000006D01*
X139105565Y-88999999D01*
X139085369Y-88820753D01*
X139085368Y-88820748D01*
X139023489Y-88643908D01*
X139025635Y-88643156D01*
X139016037Y-88584857D01*
X139024391Y-88556410D01*
X139023489Y-88556095D01*
X139087669Y-88372681D01*
X139089298Y-88373251D01*
X139118149Y-88321037D01*
X139286517Y-88152669D01*
X139347838Y-88119186D01*
X139417530Y-88124170D01*
X139473463Y-88166042D01*
X139497416Y-88226468D01*
X139514630Y-88379250D01*
X139514631Y-88379254D01*
X139574211Y-88549523D01*
X139633518Y-88643909D01*
X139670184Y-88702262D01*
X139797738Y-88829816D01*
X139950478Y-88925789D01*
X140120745Y-88985368D01*
X140120750Y-88985369D01*
X140299996Y-89005565D01*
X140300000Y-89005565D01*
X140300004Y-89005565D01*
X140479249Y-88985369D01*
X140479252Y-88985368D01*
X140479255Y-88985368D01*
X140649522Y-88925789D01*
X140802262Y-88829816D01*
X140929816Y-88702262D01*
X141025789Y-88549522D01*
X141058458Y-88456158D01*
X141099180Y-88399383D01*
X141164132Y-88373635D01*
X141232694Y-88387091D01*
X141283097Y-88435478D01*
X141299500Y-88497113D01*
X141299500Y-89750295D01*
X141319428Y-89850475D01*
X141319428Y-89850476D01*
X141324497Y-89875961D01*
X141324498Y-89875965D01*
X141324499Y-89875968D01*
X141346299Y-89928597D01*
X141373534Y-89994349D01*
X141444726Y-90100897D01*
X141444727Y-90100898D01*
X142303969Y-90960139D01*
X142337454Y-91021462D01*
X142339507Y-91033928D01*
X142340322Y-91041162D01*
X142340324Y-91041171D01*
X142399902Y-91211437D01*
X142495874Y-91364175D01*
X142499343Y-91368524D01*
X142525755Y-91433209D01*
X142526400Y-91445842D01*
X142526400Y-91783052D01*
X142506715Y-91850091D01*
X142490081Y-91870733D01*
X142439091Y-91921723D01*
X142377768Y-91955208D01*
X142308076Y-91950224D01*
X142252143Y-91908352D01*
X142234368Y-91874995D01*
X142225789Y-91850479D01*
X142225789Y-91850478D01*
X142129816Y-91697738D01*
X142002262Y-91570184D01*
X141975775Y-91553541D01*
X141849523Y-91474211D01*
X141679254Y-91414631D01*
X141679249Y-91414630D01*
X141500004Y-91394435D01*
X141499996Y-91394435D01*
X141320750Y-91414630D01*
X141320745Y-91414631D01*
X141150476Y-91474211D01*
X140997737Y-91570184D01*
X140870184Y-91697737D01*
X140774211Y-91850476D01*
X140714631Y-92020745D01*
X140714630Y-92020750D01*
X140694435Y-92199996D01*
X140694435Y-92200004D01*
X140699209Y-92242378D01*
X140687154Y-92311200D01*
X140639805Y-92362579D01*
X140575989Y-92380261D01*
X139216322Y-92380261D01*
X139149283Y-92360576D01*
X139103528Y-92307772D01*
X139093102Y-92270144D01*
X139085369Y-92201511D01*
X139085368Y-92201509D01*
X139085368Y-92201506D01*
X139025789Y-92031239D01*
X138929816Y-91878499D01*
X138802262Y-91750945D01*
X138717584Y-91697738D01*
X138649523Y-91654972D01*
X138479254Y-91595392D01*
X138479249Y-91595391D01*
X138300004Y-91575196D01*
X138299996Y-91575196D01*
X138120750Y-91595391D01*
X138120745Y-91595392D01*
X137950476Y-91654972D01*
X137797737Y-91750945D01*
X137670184Y-91878498D01*
X137574210Y-92031239D01*
X137514630Y-92201511D01*
X137506898Y-92270144D01*
X137479832Y-92334558D01*
X137422237Y-92374113D01*
X137383678Y-92380261D01*
X136273751Y-92380261D01*
X136206712Y-92360576D01*
X136186070Y-92343942D01*
X135763851Y-91921723D01*
X135338667Y-91496538D01*
X135316987Y-91467306D01*
X135315086Y-91463751D01*
X135315084Y-91463744D01*
X135271396Y-91398360D01*
X135250520Y-91331683D01*
X135250500Y-91329471D01*
X135250500Y-91316689D01*
X135225502Y-91191022D01*
X135225501Y-91191021D01*
X135225501Y-91191017D01*
X135176465Y-91072634D01*
X135151941Y-91035931D01*
X135151588Y-91035403D01*
X135105278Y-90966093D01*
X135105273Y-90966087D01*
X135073313Y-90934128D01*
X135039827Y-90872806D01*
X135044811Y-90803114D01*
X135073308Y-90758769D01*
X135129816Y-90702262D01*
X135225789Y-90549522D01*
X135285368Y-90379255D01*
X135291392Y-90325789D01*
X135305565Y-90200003D01*
X135305565Y-90199996D01*
X135285369Y-90020750D01*
X135285368Y-90020745D01*
X135241051Y-89894095D01*
X135225789Y-89850478D01*
X135214971Y-89833262D01*
X135169884Y-89761506D01*
X135129816Y-89697738D01*
X135002262Y-89570184D01*
X134923681Y-89520808D01*
X134849523Y-89474211D01*
X134728364Y-89431816D01*
X134671588Y-89391094D01*
X134645841Y-89326141D01*
X134652277Y-89273822D01*
X134685368Y-89179255D01*
X134687907Y-89156712D01*
X134714973Y-89092300D01*
X134770174Y-89053553D01*
X134849522Y-89025789D01*
X135002262Y-88929816D01*
X135129816Y-88802262D01*
X135225789Y-88649522D01*
X135285368Y-88479255D01*
X135285369Y-88479249D01*
X135305565Y-88300003D01*
X135305565Y-88299996D01*
X135285369Y-88120750D01*
X135285368Y-88120745D01*
X135284822Y-88119186D01*
X135225789Y-87950478D01*
X135225188Y-87949522D01*
X135150426Y-87830539D01*
X135129816Y-87797738D01*
X135002262Y-87670184D01*
X135002259Y-87670182D01*
X134951708Y-87638418D01*
X134905417Y-87586083D01*
X134894770Y-87517030D01*
X134923145Y-87453181D01*
X134929988Y-87445756D01*
X135094999Y-87280745D01*
X135156320Y-87247262D01*
X135223632Y-87251386D01*
X135256950Y-87263045D01*
X135320740Y-87285367D01*
X135320750Y-87285369D01*
X135499996Y-87305565D01*
X135500000Y-87305565D01*
X135500004Y-87305565D01*
X135679249Y-87285369D01*
X135679252Y-87285368D01*
X135679255Y-87285368D01*
X135849522Y-87225789D01*
X136002262Y-87129816D01*
X136062319Y-87069759D01*
X136123642Y-87036274D01*
X136193334Y-87041258D01*
G37*
%TD.AperFunction*%
%TA.AperFunction,NonConductor*%
G36*
X104505703Y-91417042D02*
G01*
X104536880Y-91458349D01*
X104545965Y-91477830D01*
X104545966Y-91477831D01*
X104545967Y-91477834D01*
X104637782Y-91608958D01*
X104669753Y-91654618D01*
X104681501Y-91671395D01*
X104681506Y-91671402D01*
X104848597Y-91838493D01*
X104848603Y-91838498D01*
X105034158Y-91968425D01*
X105077783Y-92023002D01*
X105084977Y-92092500D01*
X105053454Y-92154855D01*
X105034158Y-92171575D01*
X104848597Y-92301505D01*
X104681505Y-92468597D01*
X104545965Y-92662169D01*
X104545964Y-92662171D01*
X104536882Y-92681649D01*
X104490709Y-92734088D01*
X104423516Y-92753240D01*
X104356635Y-92733024D01*
X104311300Y-92679859D01*
X104300500Y-92629244D01*
X104300500Y-91510755D01*
X104320185Y-91443716D01*
X104372989Y-91397961D01*
X104442147Y-91388017D01*
X104505703Y-91417042D01*
G37*
%TD.AperFunction*%
%TA.AperFunction,NonConductor*%
G36*
X127586936Y-87835523D02*
G01*
X127642869Y-87877395D01*
X127660643Y-87910750D01*
X127674209Y-87949519D01*
X127674211Y-87949522D01*
X127770184Y-88102262D01*
X127897738Y-88229816D01*
X128041472Y-88320130D01*
X128087763Y-88372465D01*
X128099500Y-88425124D01*
X128099500Y-88678156D01*
X128079815Y-88745195D01*
X128027011Y-88790950D01*
X127961618Y-88801377D01*
X127921815Y-88796892D01*
X127900000Y-88794435D01*
X127899998Y-88794435D01*
X127899997Y-88794435D01*
X127899996Y-88794435D01*
X127720750Y-88814630D01*
X127720745Y-88814631D01*
X127550476Y-88874211D01*
X127397737Y-88970184D01*
X127270184Y-89097737D01*
X127174211Y-89250476D01*
X127114631Y-89420745D01*
X127114630Y-89420750D01*
X127094435Y-89599996D01*
X127094435Y-89600003D01*
X127114630Y-89779249D01*
X127114631Y-89779254D01*
X127174211Y-89949523D01*
X127262004Y-90089244D01*
X127270184Y-90102262D01*
X127397738Y-90229816D01*
X127550478Y-90325789D01*
X127720745Y-90385368D01*
X127727974Y-90386182D01*
X127792388Y-90413246D01*
X127801776Y-90421722D01*
X128126625Y-90746571D01*
X128171363Y-90776463D01*
X128171365Y-90776465D01*
X128171366Y-90776465D01*
X128219741Y-90808788D01*
X128256389Y-90846793D01*
X128305366Y-90926197D01*
X128323806Y-90993589D01*
X128305365Y-91056391D01*
X128244182Y-91155583D01*
X128207535Y-91193588D01*
X128144037Y-91236016D01*
X128144033Y-91236019D01*
X127801775Y-91578277D01*
X127740452Y-91611762D01*
X127727988Y-91613815D01*
X127720752Y-91614630D01*
X127720744Y-91614632D01*
X127550478Y-91674210D01*
X127397737Y-91770184D01*
X127270184Y-91897737D01*
X127174211Y-92050476D01*
X127114631Y-92220745D01*
X127114630Y-92220750D01*
X127094435Y-92399996D01*
X127094435Y-92400003D01*
X127114630Y-92579249D01*
X127114631Y-92579254D01*
X127174211Y-92749523D01*
X127247004Y-92865372D01*
X127270184Y-92902262D01*
X127397738Y-93029816D01*
X127435496Y-93053541D01*
X127516749Y-93104596D01*
X127550478Y-93125789D01*
X127632867Y-93154618D01*
X127720745Y-93185368D01*
X127720750Y-93185369D01*
X127899996Y-93205565D01*
X127900000Y-93205565D01*
X127900004Y-93205565D01*
X128079249Y-93185369D01*
X128079252Y-93185368D01*
X128079255Y-93185368D01*
X128249522Y-93125789D01*
X128402262Y-93029816D01*
X128529816Y-92902262D01*
X128617774Y-92762276D01*
X128670106Y-92715988D01*
X128739160Y-92705339D01*
X128744836Y-92706324D01*
X128762942Y-92708173D01*
X128847323Y-92716794D01*
X129545676Y-92716793D01*
X129545684Y-92716792D01*
X129545687Y-92716792D01*
X129601030Y-92711138D01*
X129646753Y-92706468D01*
X129810516Y-92652202D01*
X129957350Y-92561634D01*
X129971319Y-92547665D01*
X130032642Y-92514180D01*
X130102334Y-92519164D01*
X130146681Y-92547665D01*
X130160650Y-92561634D01*
X130270263Y-92629244D01*
X130271789Y-92630185D01*
X130318514Y-92682133D01*
X130329735Y-92751096D01*
X130301892Y-92815178D01*
X130294373Y-92823405D01*
X128704599Y-94413181D01*
X128643276Y-94446666D01*
X128616918Y-94449500D01*
X128574499Y-94449500D01*
X128507460Y-94429815D01*
X128461705Y-94377011D01*
X128450499Y-94325500D01*
X128450499Y-94202129D01*
X128450498Y-94202123D01*
X128448338Y-94182031D01*
X128444091Y-94142517D01*
X128443019Y-94139644D01*
X128393797Y-94007671D01*
X128393793Y-94007664D01*
X128307547Y-93892455D01*
X128307544Y-93892452D01*
X128192335Y-93806206D01*
X128192328Y-93806202D01*
X128057482Y-93755908D01*
X128057483Y-93755908D01*
X127997883Y-93749501D01*
X127997881Y-93749500D01*
X127997873Y-93749500D01*
X127997864Y-93749500D01*
X126202129Y-93749500D01*
X126202123Y-93749501D01*
X126142515Y-93755909D01*
X126017832Y-93802412D01*
X125948141Y-93807396D01*
X125886818Y-93773910D01*
X125853334Y-93712587D01*
X125850500Y-93686230D01*
X125850500Y-89520808D01*
X125870185Y-89453769D01*
X125886814Y-89433132D01*
X127455923Y-87864022D01*
X127517244Y-87830539D01*
X127586936Y-87835523D01*
G37*
%TD.AperFunction*%
%TA.AperFunction,NonConductor*%
G36*
X148754954Y-94043683D02*
G01*
X148793810Y-94101751D01*
X148799500Y-94138883D01*
X148799500Y-94476470D01*
X148779815Y-94543509D01*
X148727011Y-94589264D01*
X148657853Y-94599208D01*
X148594297Y-94570183D01*
X148569962Y-94541568D01*
X148545340Y-94501650D01*
X148444018Y-94400328D01*
X148410533Y-94339005D01*
X148415517Y-94269313D01*
X148444018Y-94224966D01*
X148466861Y-94202123D01*
X148529340Y-94139644D01*
X148569962Y-94073784D01*
X148621909Y-94027062D01*
X148690872Y-94015839D01*
X148754954Y-94043683D01*
G37*
%TD.AperFunction*%
%TA.AperFunction,NonConductor*%
G36*
X130668834Y-94391351D02*
G01*
X130724767Y-94433223D01*
X130749184Y-94498687D01*
X130749500Y-94507533D01*
X130749500Y-95025715D01*
X130729815Y-95092754D01*
X130677011Y-95138509D01*
X130607853Y-95148453D01*
X130560404Y-95131254D01*
X130451522Y-95064095D01*
X130451517Y-95064093D01*
X130451516Y-95064092D01*
X130287753Y-95009826D01*
X130287750Y-95009825D01*
X130238948Y-95004840D01*
X130174256Y-94978444D01*
X130134104Y-94921263D01*
X130131241Y-94851452D01*
X130163867Y-94793803D01*
X130537819Y-94419852D01*
X130599142Y-94386367D01*
X130668834Y-94391351D01*
G37*
%TD.AperFunction*%
%TA.AperFunction,NonConductor*%
G36*
X104505703Y-93957042D02*
G01*
X104536880Y-93998349D01*
X104545965Y-94017830D01*
X104545966Y-94017831D01*
X104545967Y-94017834D01*
X104601917Y-94097738D01*
X104675008Y-94202123D01*
X104681501Y-94211395D01*
X104681506Y-94211402D01*
X104848597Y-94378493D01*
X104848603Y-94378498D01*
X105034158Y-94508425D01*
X105077783Y-94563002D01*
X105084977Y-94632500D01*
X105053454Y-94694855D01*
X105034158Y-94711575D01*
X104848597Y-94841505D01*
X104681505Y-95008597D01*
X104545965Y-95202169D01*
X104545964Y-95202171D01*
X104536882Y-95221649D01*
X104490709Y-95274088D01*
X104423516Y-95293240D01*
X104356635Y-95273024D01*
X104311300Y-95219859D01*
X104300500Y-95169244D01*
X104300500Y-94050755D01*
X104320185Y-93983716D01*
X104372989Y-93937961D01*
X104442147Y-93928017D01*
X104505703Y-93957042D01*
G37*
%TD.AperFunction*%
%TA.AperFunction,NonConductor*%
G36*
X144534730Y-95470185D02*
G01*
X144580485Y-95522989D01*
X144590429Y-95592147D01*
X144561404Y-95655703D01*
X144555381Y-95662171D01*
X144533177Y-95684375D01*
X144529370Y-95688183D01*
X144468046Y-95721667D01*
X144441691Y-95724500D01*
X144288331Y-95724500D01*
X144288312Y-95724501D01*
X144187247Y-95734825D01*
X144023484Y-95789092D01*
X144023481Y-95789093D01*
X143876644Y-95879663D01*
X143870982Y-95884141D01*
X143869984Y-95882879D01*
X143816244Y-95912215D01*
X143776017Y-95914266D01*
X143600004Y-95894435D01*
X143599996Y-95894435D01*
X143420750Y-95914630D01*
X143420745Y-95914631D01*
X143250476Y-95974211D01*
X143097739Y-96070183D01*
X143019107Y-96148815D01*
X142957783Y-96182299D01*
X142888092Y-96177315D01*
X142832158Y-96135443D01*
X142808136Y-96074385D01*
X142807684Y-96070184D01*
X142805291Y-96047917D01*
X142795005Y-96020340D01*
X142754997Y-95913071D01*
X142754993Y-95913064D01*
X142663432Y-95790755D01*
X142665905Y-95788903D01*
X142639769Y-95741039D01*
X142644753Y-95671347D01*
X142686625Y-95615414D01*
X142752089Y-95590997D01*
X142774818Y-95591461D01*
X142899996Y-95605565D01*
X142900000Y-95605565D01*
X142900004Y-95605565D01*
X143079249Y-95585369D01*
X143079251Y-95585368D01*
X143079255Y-95585368D01*
X143079258Y-95585366D01*
X143079262Y-95585366D01*
X143199850Y-95543170D01*
X143249522Y-95525789D01*
X143339096Y-95469505D01*
X143405068Y-95450500D01*
X144135931Y-95450500D01*
X144264069Y-95450500D01*
X144467691Y-95450500D01*
X144534730Y-95470185D01*
G37*
%TD.AperFunction*%
%TA.AperFunction,NonConductor*%
G36*
X104505703Y-96497042D02*
G01*
X104536880Y-96538349D01*
X104545965Y-96557830D01*
X104545966Y-96557831D01*
X104545967Y-96557834D01*
X104611566Y-96651518D01*
X104680857Y-96750476D01*
X104681501Y-96751395D01*
X104681506Y-96751402D01*
X104848597Y-96918493D01*
X104848603Y-96918498D01*
X105034158Y-97048425D01*
X105077783Y-97103002D01*
X105084977Y-97172500D01*
X105053454Y-97234855D01*
X105034158Y-97251575D01*
X104848597Y-97381505D01*
X104681505Y-97548597D01*
X104545965Y-97742169D01*
X104545964Y-97742171D01*
X104536882Y-97761649D01*
X104490709Y-97814088D01*
X104423516Y-97833240D01*
X104356635Y-97813024D01*
X104311300Y-97759859D01*
X104300500Y-97709244D01*
X104300500Y-96590755D01*
X104320185Y-96523716D01*
X104372989Y-96477961D01*
X104442147Y-96468017D01*
X104505703Y-96497042D01*
G37*
%TD.AperFunction*%
%TA.AperFunction,NonConductor*%
G36*
X134909289Y-93189895D02*
G01*
X135224229Y-93504835D01*
X135224250Y-93504858D01*
X135433102Y-93713709D01*
X135433106Y-93713712D01*
X135556020Y-93795841D01*
X135556033Y-93795848D01*
X135638040Y-93829816D01*
X135692609Y-93852419D01*
X135692613Y-93852419D01*
X135692614Y-93852420D01*
X135837601Y-93881261D01*
X135837604Y-93881261D01*
X135985439Y-93881261D01*
X141609858Y-93881261D01*
X141676897Y-93900946D01*
X141712959Y-93936369D01*
X141735045Y-93969423D01*
X141744726Y-93983912D01*
X142128728Y-94367914D01*
X142162213Y-94429237D01*
X142158089Y-94496549D01*
X142114632Y-94620742D01*
X142114630Y-94620750D01*
X142094435Y-94799996D01*
X142094435Y-94800003D01*
X142114630Y-94979249D01*
X142114631Y-94979254D01*
X142174211Y-95149523D01*
X142252481Y-95274088D01*
X142270184Y-95302262D01*
X142397738Y-95429816D01*
X142397740Y-95429817D01*
X142402927Y-95433954D01*
X142443067Y-95491143D01*
X142445916Y-95560955D01*
X142410569Y-95621224D01*
X142348250Y-95652816D01*
X142325613Y-95654900D01*
X141983930Y-95654900D01*
X141983925Y-95654901D01*
X141951097Y-95658430D01*
X141934755Y-95660187D01*
X141908249Y-95660187D01*
X141903760Y-95659704D01*
X141859074Y-95654900D01*
X141859067Y-95654900D01*
X141483931Y-95654900D01*
X141483924Y-95654901D01*
X141434752Y-95660187D01*
X141408247Y-95660187D01*
X141359073Y-95654900D01*
X141359065Y-95654900D01*
X140983930Y-95654900D01*
X140983925Y-95654901D01*
X140951097Y-95658430D01*
X140934755Y-95660187D01*
X140908249Y-95660187D01*
X140903760Y-95659704D01*
X140859074Y-95654900D01*
X140859067Y-95654900D01*
X140483931Y-95654900D01*
X140483921Y-95654901D01*
X140434749Y-95660187D01*
X140408246Y-95660187D01*
X140359072Y-95654900D01*
X140359063Y-95654900D01*
X139983929Y-95654900D01*
X139983924Y-95654901D01*
X139951096Y-95658430D01*
X139934754Y-95660187D01*
X139908248Y-95660187D01*
X139903759Y-95659704D01*
X139859073Y-95654900D01*
X139859066Y-95654900D01*
X139483930Y-95654900D01*
X139483925Y-95654901D01*
X139451097Y-95658430D01*
X139434755Y-95660187D01*
X139408249Y-95660187D01*
X139403760Y-95659704D01*
X139359074Y-95654900D01*
X139359067Y-95654900D01*
X138983931Y-95654900D01*
X138983924Y-95654901D01*
X138934752Y-95660187D01*
X138908247Y-95660187D01*
X138859073Y-95654900D01*
X138859065Y-95654900D01*
X138483930Y-95654900D01*
X138483923Y-95654901D01*
X138434753Y-95660187D01*
X138408247Y-95660187D01*
X138359073Y-95654900D01*
X138359065Y-95654900D01*
X137983930Y-95654900D01*
X137983923Y-95654901D01*
X137934751Y-95660187D01*
X137908246Y-95660187D01*
X137859072Y-95654900D01*
X137859064Y-95654900D01*
X137483929Y-95654900D01*
X137483924Y-95654901D01*
X137451096Y-95658430D01*
X137434754Y-95660187D01*
X137408248Y-95660187D01*
X137403759Y-95659704D01*
X137359073Y-95654900D01*
X137359066Y-95654900D01*
X136983930Y-95654900D01*
X136983925Y-95654901D01*
X136951097Y-95658430D01*
X136934755Y-95660187D01*
X136908249Y-95660187D01*
X136903760Y-95659704D01*
X136859074Y-95654900D01*
X136859067Y-95654900D01*
X136483931Y-95654900D01*
X136483921Y-95654901D01*
X136434749Y-95660187D01*
X136408246Y-95660187D01*
X136359072Y-95654900D01*
X136359063Y-95654900D01*
X135983929Y-95654900D01*
X135983924Y-95654901D01*
X135951096Y-95658430D01*
X135934754Y-95660187D01*
X135908248Y-95660187D01*
X135903759Y-95659704D01*
X135859073Y-95654900D01*
X135859066Y-95654900D01*
X135483930Y-95654900D01*
X135483923Y-95654901D01*
X135434751Y-95660187D01*
X135408246Y-95660187D01*
X135359072Y-95654900D01*
X135359064Y-95654900D01*
X134983929Y-95654900D01*
X134983924Y-95654901D01*
X134951096Y-95658430D01*
X134934754Y-95660187D01*
X134908248Y-95660187D01*
X134903759Y-95659704D01*
X134859073Y-95654900D01*
X134859066Y-95654900D01*
X134483930Y-95654900D01*
X134483923Y-95654901D01*
X134424316Y-95661308D01*
X134289471Y-95711602D01*
X134289464Y-95711606D01*
X134174255Y-95797852D01*
X134174252Y-95797855D01*
X134088006Y-95913064D01*
X134088002Y-95913071D01*
X134037708Y-96047917D01*
X134031301Y-96107516D01*
X134031300Y-96107535D01*
X134031300Y-97468099D01*
X134011615Y-97535138D01*
X133994981Y-97555780D01*
X132203072Y-99347688D01*
X132141749Y-99381173D01*
X132072057Y-99376189D01*
X132016124Y-99334317D01*
X132010398Y-99325979D01*
X131929820Y-99197741D01*
X131929815Y-99197735D01*
X131802262Y-99070182D01*
X131749520Y-99037042D01*
X131722054Y-99019783D01*
X131675764Y-98967450D01*
X131665116Y-98898397D01*
X131693491Y-98834548D01*
X131751880Y-98796176D01*
X131775426Y-98791433D01*
X131787753Y-98790174D01*
X131951516Y-98735908D01*
X132098350Y-98645340D01*
X132220340Y-98523350D01*
X132310908Y-98376516D01*
X132365174Y-98212753D01*
X132375500Y-98111677D01*
X132375499Y-97413324D01*
X132374893Y-97407396D01*
X132365174Y-97312247D01*
X132345050Y-97251518D01*
X132310908Y-97148484D01*
X132220340Y-97001650D01*
X132206371Y-96987681D01*
X132172886Y-96926358D01*
X132177870Y-96856666D01*
X132206371Y-96812319D01*
X132220340Y-96798350D01*
X132310908Y-96651516D01*
X132365174Y-96487753D01*
X132365174Y-96487751D01*
X132367303Y-96481327D01*
X132369492Y-96482052D01*
X132397647Y-96430077D01*
X132458857Y-96396385D01*
X132499505Y-96394242D01*
X132553679Y-96400346D01*
X132599998Y-96405565D01*
X132600000Y-96405565D01*
X132600004Y-96405565D01*
X132779249Y-96385369D01*
X132779252Y-96385368D01*
X132779255Y-96385368D01*
X132949522Y-96325789D01*
X133102262Y-96229816D01*
X133229816Y-96102262D01*
X133325789Y-95949522D01*
X133385368Y-95779255D01*
X133386390Y-95770185D01*
X133405565Y-95600003D01*
X133405565Y-95599999D01*
X133403916Y-95585366D01*
X133399161Y-95543167D01*
X133411215Y-95474348D01*
X133458563Y-95422968D01*
X133479039Y-95413107D01*
X133558431Y-95383496D01*
X133673646Y-95297246D01*
X133759896Y-95182031D01*
X133810191Y-95047183D01*
X133816600Y-94987573D01*
X133816599Y-94612428D01*
X133816598Y-94612425D01*
X133816598Y-94612412D01*
X133811313Y-94563258D01*
X133811313Y-94536746D01*
X133816600Y-94487574D01*
X133816599Y-94125774D01*
X133836283Y-94058736D01*
X133889087Y-94012981D01*
X133926716Y-94002555D01*
X134079249Y-93985369D01*
X134079252Y-93985368D01*
X134079255Y-93985368D01*
X134249522Y-93925789D01*
X134402262Y-93829816D01*
X134529816Y-93702262D01*
X134625789Y-93549522D01*
X134685368Y-93379255D01*
X134698388Y-93263692D01*
X134725454Y-93199280D01*
X134783048Y-93159724D01*
X134852885Y-93157585D01*
X134909289Y-93189895D01*
G37*
%TD.AperFunction*%
%TA.AperFunction,NonConductor*%
G36*
X104505703Y-99037042D02*
G01*
X104536880Y-99078349D01*
X104545965Y-99097830D01*
X104545966Y-99097831D01*
X104545967Y-99097834D01*
X104654281Y-99252521D01*
X104672955Y-99279191D01*
X104681501Y-99291395D01*
X104681506Y-99291402D01*
X104848597Y-99458493D01*
X104848603Y-99458498D01*
X105034158Y-99588425D01*
X105077783Y-99643002D01*
X105084977Y-99712500D01*
X105053454Y-99774855D01*
X105034158Y-99791575D01*
X104848597Y-99921505D01*
X104681505Y-100088597D01*
X104545965Y-100282169D01*
X104545964Y-100282171D01*
X104536882Y-100301649D01*
X104490709Y-100354088D01*
X104423516Y-100373240D01*
X104356635Y-100353024D01*
X104311300Y-100299859D01*
X104300500Y-100249244D01*
X104300500Y-99130755D01*
X104320185Y-99063716D01*
X104372989Y-99017961D01*
X104442147Y-99008017D01*
X104505703Y-99037042D01*
G37*
%TD.AperFunction*%
%TA.AperFunction,NonConductor*%
G36*
X128867539Y-95770185D02*
G01*
X128913294Y-95822989D01*
X128924500Y-95874500D01*
X128924500Y-96286669D01*
X128924501Y-96286687D01*
X128934825Y-96387752D01*
X128966074Y-96482052D01*
X128987520Y-96546773D01*
X128989092Y-96551515D01*
X128989093Y-96551518D01*
X129079661Y-96698351D01*
X129193629Y-96812319D01*
X129227114Y-96873642D01*
X129222130Y-96943334D01*
X129193629Y-96987681D01*
X129079661Y-97101648D01*
X128989093Y-97248481D01*
X128989091Y-97248486D01*
X128986781Y-97255458D01*
X128934826Y-97412247D01*
X128934826Y-97412248D01*
X128934825Y-97412248D01*
X128924500Y-97513315D01*
X128924500Y-98111669D01*
X128924501Y-98111687D01*
X128934825Y-98212752D01*
X128989092Y-98376515D01*
X128989093Y-98376518D01*
X129015913Y-98420000D01*
X129079660Y-98523350D01*
X129201650Y-98645340D01*
X129201656Y-98645343D01*
X129202405Y-98645936D01*
X129202790Y-98646480D01*
X129206757Y-98650447D01*
X129206079Y-98651124D01*
X129242785Y-98702956D01*
X129249500Y-98743207D01*
X129249500Y-99279191D01*
X129229815Y-99346230D01*
X129213181Y-99366872D01*
X127991871Y-100588181D01*
X127930548Y-100621666D01*
X127904190Y-100624500D01*
X127550830Y-100624500D01*
X127550812Y-100624501D01*
X127449747Y-100634825D01*
X127285984Y-100689092D01*
X127285977Y-100689095D01*
X127190675Y-100747878D01*
X127123283Y-100766318D01*
X127056619Y-100745395D01*
X127011850Y-100691753D01*
X127002359Y-100628455D01*
X127005565Y-100600002D01*
X127005565Y-100599996D01*
X126985369Y-100420750D01*
X126985368Y-100420745D01*
X126968745Y-100373240D01*
X126925789Y-100250478D01*
X126925787Y-100250475D01*
X126925787Y-100250474D01*
X126919503Y-100240473D01*
X126900501Y-100173237D01*
X126920867Y-100106401D01*
X126974134Y-100061186D01*
X127024495Y-100050499D01*
X127997871Y-100050499D01*
X127997872Y-100050499D01*
X128057483Y-100044091D01*
X128192331Y-99993796D01*
X128307546Y-99907546D01*
X128393796Y-99792331D01*
X128444091Y-99657483D01*
X128450500Y-99597873D01*
X128450499Y-97802128D01*
X128444091Y-97742517D01*
X128443961Y-97742169D01*
X128393797Y-97607671D01*
X128393793Y-97607664D01*
X128307547Y-97492455D01*
X128307544Y-97492452D01*
X128192335Y-97406206D01*
X128192328Y-97406202D01*
X128057482Y-97355908D01*
X128057483Y-97355908D01*
X127997883Y-97349501D01*
X127997881Y-97349500D01*
X127997873Y-97349500D01*
X127997864Y-97349500D01*
X126202129Y-97349500D01*
X126202123Y-97349501D01*
X126142515Y-97355909D01*
X126017832Y-97402412D01*
X125948141Y-97407396D01*
X125886818Y-97373910D01*
X125853334Y-97312587D01*
X125850500Y-97286230D01*
X125850500Y-96513769D01*
X125870185Y-96446730D01*
X125922989Y-96400975D01*
X125992147Y-96391031D01*
X126017833Y-96397587D01*
X126142517Y-96444091D01*
X126142516Y-96444091D01*
X126149444Y-96444835D01*
X126202127Y-96450500D01*
X127997872Y-96450499D01*
X128057483Y-96444091D01*
X128192331Y-96393796D01*
X128307546Y-96307546D01*
X128393796Y-96192331D01*
X128444091Y-96057483D01*
X128450500Y-95997873D01*
X128450500Y-95874500D01*
X128470185Y-95807461D01*
X128522989Y-95761706D01*
X128574500Y-95750500D01*
X128800500Y-95750500D01*
X128867539Y-95770185D01*
G37*
%TD.AperFunction*%
%TA.AperFunction,NonConductor*%
G36*
X135271673Y-100316472D02*
G01*
X135294312Y-100327661D01*
X135297737Y-100329813D01*
X135297738Y-100329814D01*
X135334676Y-100353024D01*
X135425984Y-100410397D01*
X135472274Y-100462731D01*
X135482922Y-100531785D01*
X135454547Y-100595633D01*
X135447692Y-100603071D01*
X135309116Y-100741647D01*
X135283463Y-100761337D01*
X135280477Y-100763062D01*
X135280449Y-100763078D01*
X135182761Y-100819477D01*
X135182756Y-100819481D01*
X135120928Y-100881310D01*
X135070954Y-100931284D01*
X135070952Y-100931286D01*
X134973972Y-101028266D01*
X134926777Y-101075461D01*
X134865454Y-101108945D01*
X134852983Y-101110999D01*
X134835175Y-101113005D01*
X134820745Y-101114632D01*
X134643905Y-101176511D01*
X134643134Y-101174308D01*
X134585030Y-101183863D01*
X134520902Y-101156126D01*
X134481950Y-101098122D01*
X134480540Y-101028266D01*
X134512515Y-100973115D01*
X135140659Y-100344971D01*
X135201981Y-100311488D01*
X135271673Y-100316472D01*
G37*
%TD.AperFunction*%
%TA.AperFunction,NonConductor*%
G36*
X141739760Y-100329028D02*
G01*
X141759341Y-100344973D01*
X142387477Y-100973109D01*
X142420962Y-101034432D01*
X142415978Y-101104124D01*
X142374106Y-101160057D01*
X142308642Y-101184474D01*
X142256778Y-101174568D01*
X142256099Y-101176511D01*
X142168678Y-101145921D01*
X142079258Y-101114632D01*
X142062254Y-101112715D01*
X142047018Y-101110999D01*
X141982605Y-101083930D01*
X141973224Y-101075460D01*
X141836119Y-100938355D01*
X141836117Y-100938352D01*
X141717246Y-100819481D01*
X141717241Y-100819477D01*
X141619550Y-100763076D01*
X141619540Y-100763066D01*
X141619539Y-100763069D01*
X141616552Y-100761344D01*
X141590883Y-100741645D01*
X141452308Y-100603070D01*
X141418823Y-100541747D01*
X141423807Y-100472055D01*
X141465679Y-100416122D01*
X141474004Y-100410403D01*
X141602262Y-100329814D01*
X141602265Y-100329810D01*
X141605688Y-100327660D01*
X141672924Y-100308660D01*
X141739760Y-100329028D01*
G37*
%TD.AperFunction*%
%TA.AperFunction,NonConductor*%
G36*
X130516640Y-100005819D02*
G01*
X130572573Y-100047691D01*
X130578299Y-100056028D01*
X130670182Y-100202258D01*
X130797737Y-100329813D01*
X130797743Y-100329818D01*
X130925981Y-100410396D01*
X130972272Y-100462730D01*
X130982920Y-100531784D01*
X130954545Y-100595632D01*
X130947690Y-100603070D01*
X130809113Y-100741647D01*
X130783460Y-100761337D01*
X130780474Y-100763062D01*
X130780446Y-100763078D01*
X130682758Y-100819477D01*
X130682753Y-100819481D01*
X130620925Y-100881310D01*
X130570951Y-100931284D01*
X130570949Y-100931286D01*
X130473969Y-101028266D01*
X130426774Y-101075461D01*
X130365451Y-101108945D01*
X130352980Y-101110999D01*
X130335172Y-101113005D01*
X130320742Y-101114632D01*
X130320741Y-101114632D01*
X130150475Y-101174210D01*
X129997734Y-101270184D01*
X129870181Y-101397737D01*
X129774208Y-101550476D01*
X129714628Y-101720745D01*
X129714627Y-101720750D01*
X129694432Y-101899996D01*
X129694432Y-101900003D01*
X129714627Y-102079249D01*
X129714628Y-102079254D01*
X129774208Y-102249523D01*
X129814541Y-102313712D01*
X129833541Y-102380949D01*
X129813173Y-102447784D01*
X129808814Y-102453995D01*
X129731204Y-102557668D01*
X129731203Y-102557669D01*
X129697246Y-102648713D01*
X129655374Y-102704646D01*
X129589910Y-102729063D01*
X129521637Y-102714211D01*
X129476070Y-102671351D01*
X129429815Y-102597737D01*
X129302262Y-102470184D01*
X129149523Y-102374211D01*
X128979253Y-102314631D01*
X128977014Y-102314379D01*
X128975667Y-102313813D01*
X128972468Y-102313083D01*
X128972595Y-102312522D01*
X128912601Y-102287310D01*
X128873047Y-102229714D01*
X128870912Y-102159877D01*
X128873195Y-102152154D01*
X128873404Y-102151521D01*
X128873408Y-102151516D01*
X128927674Y-101987753D01*
X128938000Y-101886677D01*
X128937999Y-101533306D01*
X128957683Y-101466268D01*
X128974313Y-101445631D01*
X130385625Y-100034320D01*
X130446948Y-100000835D01*
X130516640Y-100005819D01*
G37*
%TD.AperFunction*%
%TA.AperFunction,NonConductor*%
G36*
X104505703Y-101577042D02*
G01*
X104536880Y-101618349D01*
X104545965Y-101637830D01*
X104545966Y-101637831D01*
X104545967Y-101637834D01*
X104647424Y-101782728D01*
X104667436Y-101811309D01*
X104681501Y-101831395D01*
X104681506Y-101831402D01*
X104848597Y-101998493D01*
X104848603Y-101998498D01*
X105034158Y-102128425D01*
X105077783Y-102183002D01*
X105084977Y-102252500D01*
X105053454Y-102314855D01*
X105034158Y-102331575D01*
X104848597Y-102461505D01*
X104681505Y-102628597D01*
X104545965Y-102822169D01*
X104545964Y-102822171D01*
X104536882Y-102841649D01*
X104490709Y-102894088D01*
X104423516Y-102913240D01*
X104356635Y-102893024D01*
X104311300Y-102839859D01*
X104300500Y-102789244D01*
X104300500Y-101670755D01*
X104320185Y-101603716D01*
X104372989Y-101557961D01*
X104442147Y-101548017D01*
X104505703Y-101577042D01*
G37*
%TD.AperFunction*%
%TA.AperFunction,NonConductor*%
G36*
X142884186Y-102692516D02*
G01*
X142999997Y-102705565D01*
X143000000Y-102705565D01*
X143000001Y-102705565D01*
X143008156Y-102704646D01*
X143036616Y-102701439D01*
X143105437Y-102713493D01*
X143156817Y-102760841D01*
X143174500Y-102824659D01*
X143174500Y-103100000D01*
X143174501Y-103325500D01*
X143154817Y-103392539D01*
X143102013Y-103438294D01*
X143050501Y-103449500D01*
X142849500Y-103449500D01*
X142782461Y-103429815D01*
X142736706Y-103377011D01*
X142725500Y-103325500D01*
X142725499Y-102813392D01*
X142745183Y-102746353D01*
X142797987Y-102700598D01*
X142863382Y-102690172D01*
X142884186Y-102692516D01*
G37*
%TD.AperFunction*%
%TA.AperFunction,NonConductor*%
G36*
X138493336Y-101594814D02*
G01*
X138537683Y-101623315D01*
X138664354Y-101749986D01*
X138697839Y-101811309D01*
X138699893Y-101851549D01*
X138694435Y-101899995D01*
X138694435Y-101900003D01*
X138714630Y-102079249D01*
X138714631Y-102079254D01*
X138774211Y-102249523D01*
X138814543Y-102313710D01*
X138833543Y-102380946D01*
X138813175Y-102447782D01*
X138808817Y-102453990D01*
X138803195Y-102461501D01*
X138731203Y-102557669D01*
X138731202Y-102557671D01*
X138680910Y-102692513D01*
X138680909Y-102692517D01*
X138674500Y-102752127D01*
X138674500Y-103100000D01*
X138674501Y-103325500D01*
X138654817Y-103392539D01*
X138602013Y-103438294D01*
X138550501Y-103449500D01*
X138349500Y-103449500D01*
X138282461Y-103429815D01*
X138236706Y-103377011D01*
X138225500Y-103325500D01*
X138225499Y-102752129D01*
X138225498Y-102752123D01*
X138225321Y-102750478D01*
X138219091Y-102692517D01*
X138218216Y-102690172D01*
X138168797Y-102557671D01*
X138168793Y-102557664D01*
X138091189Y-102453999D01*
X138066771Y-102388535D01*
X138081622Y-102320262D01*
X138085446Y-102313740D01*
X138125798Y-102249522D01*
X138185377Y-102079255D01*
X138191970Y-102020745D01*
X138205574Y-101900002D01*
X138205574Y-101900000D01*
X138204073Y-101886677D01*
X138200114Y-101851547D01*
X138212167Y-101782728D01*
X138235651Y-101749986D01*
X138362324Y-101623313D01*
X138423644Y-101589830D01*
X138493336Y-101594814D01*
G37*
%TD.AperFunction*%
%TA.AperFunction,NonConductor*%
G36*
X133884186Y-102692516D02*
G01*
X133999997Y-102705565D01*
X134000000Y-102705565D01*
X134000001Y-102705565D01*
X134008156Y-102704646D01*
X134036616Y-102701439D01*
X134105437Y-102713493D01*
X134156817Y-102760841D01*
X134174500Y-102824659D01*
X134174500Y-103100000D01*
X134174501Y-103325500D01*
X134154817Y-103392539D01*
X134102013Y-103438294D01*
X134050501Y-103449500D01*
X133849500Y-103449500D01*
X133782461Y-103429815D01*
X133736706Y-103377011D01*
X133725500Y-103325500D01*
X133725499Y-102813392D01*
X133745183Y-102746353D01*
X133797987Y-102700598D01*
X133863382Y-102690172D01*
X133884186Y-102692516D01*
G37*
%TD.AperFunction*%
%TA.AperFunction,NonConductor*%
G36*
X104505703Y-104117042D02*
G01*
X104536880Y-104158349D01*
X104545965Y-104177830D01*
X104545966Y-104177831D01*
X104545967Y-104177834D01*
X104681501Y-104371395D01*
X104681506Y-104371402D01*
X104848597Y-104538493D01*
X104848603Y-104538498D01*
X105034158Y-104668425D01*
X105077783Y-104723002D01*
X105084977Y-104792500D01*
X105053454Y-104854855D01*
X105034158Y-104871575D01*
X104848597Y-105001505D01*
X104681505Y-105168597D01*
X104545965Y-105362169D01*
X104545964Y-105362171D01*
X104536882Y-105381649D01*
X104490709Y-105434088D01*
X104423516Y-105453240D01*
X104356635Y-105433024D01*
X104311300Y-105379859D01*
X104300500Y-105329244D01*
X104300500Y-104210755D01*
X104320185Y-104143716D01*
X104372989Y-104097961D01*
X104442147Y-104088017D01*
X104505703Y-104117042D01*
G37*
%TD.AperFunction*%
%TA.AperFunction,NonConductor*%
G36*
X132180243Y-106669948D02*
G01*
X132204992Y-106698510D01*
X132217132Y-106717830D01*
X132230494Y-106739095D01*
X132249500Y-106805067D01*
X132249500Y-107024635D01*
X132229815Y-107091674D01*
X132177011Y-107137429D01*
X132136307Y-107148163D01*
X132062468Y-107154623D01*
X131993968Y-107140856D01*
X131943785Y-107092241D01*
X131927852Y-107024212D01*
X131930042Y-107006911D01*
X131950500Y-106904069D01*
X131950500Y-106805067D01*
X131969506Y-106739095D01*
X131982868Y-106717830D01*
X131995006Y-106698511D01*
X132047341Y-106652221D01*
X132116394Y-106641573D01*
X132180243Y-106669948D01*
G37*
%TD.AperFunction*%
%TA.AperFunction,NonConductor*%
G36*
X126013323Y-105888000D02*
G01*
X126221311Y-105887999D01*
X126288350Y-105907683D01*
X126334105Y-105960487D01*
X126344049Y-106029645D01*
X126338353Y-106052953D01*
X126314632Y-106120742D01*
X126314630Y-106120750D01*
X126294435Y-106299996D01*
X126294435Y-106300003D01*
X126314630Y-106479249D01*
X126314631Y-106479254D01*
X126374211Y-106649524D01*
X126430493Y-106739094D01*
X126449500Y-106805067D01*
X126449500Y-107025500D01*
X126429815Y-107092539D01*
X126377011Y-107138294D01*
X126325501Y-107149500D01*
X126202130Y-107149500D01*
X126202123Y-107149501D01*
X126142513Y-107155909D01*
X126132966Y-107159470D01*
X126063275Y-107164452D01*
X126001953Y-107130965D01*
X125972596Y-107084242D01*
X125925790Y-106950481D01*
X125925789Y-106950478D01*
X125896628Y-106904069D01*
X125869506Y-106860903D01*
X125850500Y-106794931D01*
X125850500Y-106008679D01*
X125870185Y-105941640D01*
X125922989Y-105895885D01*
X125987102Y-105885321D01*
X126013323Y-105888000D01*
G37*
%TD.AperFunction*%
%TA.AperFunction,NonConductor*%
G36*
X139483976Y-105920184D02*
G01*
X139529731Y-105972988D01*
X139539675Y-106042146D01*
X139533979Y-106065453D01*
X139514632Y-106120742D01*
X139514630Y-106120750D01*
X139494435Y-106299996D01*
X139494435Y-106300003D01*
X139514630Y-106479249D01*
X139514631Y-106479254D01*
X139574211Y-106649524D01*
X139630493Y-106739094D01*
X139649500Y-106805067D01*
X139649500Y-107047037D01*
X139629815Y-107114076D01*
X139577011Y-107159831D01*
X139557593Y-107166812D01*
X139336344Y-107226094D01*
X139336335Y-107226098D01*
X139226905Y-107277126D01*
X139157827Y-107287618D01*
X139094043Y-107259098D01*
X139055804Y-107200621D01*
X139050500Y-107164744D01*
X139050500Y-106805067D01*
X139069507Y-106739094D01*
X139125788Y-106649524D01*
X139185368Y-106479254D01*
X139185369Y-106479249D01*
X139205565Y-106300003D01*
X139205565Y-106299996D01*
X139185369Y-106120750D01*
X139185367Y-106120742D01*
X139166021Y-106065453D01*
X139162460Y-105995675D01*
X139197189Y-105935047D01*
X139259182Y-105902820D01*
X139283056Y-105900499D01*
X139416938Y-105900499D01*
X139483976Y-105920184D01*
G37*
%TD.AperFunction*%
%TA.AperFunction,NonConductor*%
G36*
X137027127Y-105900500D02*
G01*
X137516937Y-105900499D01*
X137583976Y-105920183D01*
X137629731Y-105972987D01*
X137639675Y-106042146D01*
X137633979Y-106065453D01*
X137614632Y-106120742D01*
X137614630Y-106120750D01*
X137594435Y-106299996D01*
X137594435Y-106300003D01*
X137614630Y-106479249D01*
X137614631Y-106479254D01*
X137674211Y-106649524D01*
X137730493Y-106739094D01*
X137749500Y-106805067D01*
X137749500Y-107039190D01*
X137729815Y-107106229D01*
X137713181Y-107126871D01*
X137687762Y-107152290D01*
X137626439Y-107185775D01*
X137567989Y-107184384D01*
X137495416Y-107164939D01*
X137495412Y-107164938D01*
X137495408Y-107164937D01*
X137495406Y-107164936D01*
X137495403Y-107164936D01*
X137260001Y-107144341D01*
X137259999Y-107144341D01*
X137024596Y-107164936D01*
X137024586Y-107164938D01*
X136796344Y-107226094D01*
X136796335Y-107226098D01*
X136626905Y-107305105D01*
X136557827Y-107315597D01*
X136494043Y-107287077D01*
X136455804Y-107228601D01*
X136450500Y-107192723D01*
X136450500Y-106805067D01*
X136469507Y-106739094D01*
X136525788Y-106649524D01*
X136585368Y-106479254D01*
X136585369Y-106479249D01*
X136605565Y-106300003D01*
X136605565Y-106299996D01*
X136585369Y-106120750D01*
X136585367Y-106120742D01*
X136566021Y-106065453D01*
X136562460Y-105995675D01*
X136597189Y-105935047D01*
X136659182Y-105902820D01*
X136683063Y-105900499D01*
X136897871Y-105900499D01*
X136897872Y-105900499D01*
X136949250Y-105894976D01*
X136975748Y-105894976D01*
X137027127Y-105900500D01*
G37*
%TD.AperFunction*%
%TA.AperFunction,NonConductor*%
G36*
X134242288Y-105670185D02*
G01*
X134274515Y-105700188D01*
X134308814Y-105746005D01*
X134317454Y-105757546D01*
X134317457Y-105757548D01*
X134432664Y-105843793D01*
X134432671Y-105843797D01*
X134468639Y-105857212D01*
X134567517Y-105894091D01*
X134627127Y-105900500D01*
X134916938Y-105900499D01*
X134983976Y-105920183D01*
X135029731Y-105972987D01*
X135039675Y-106042146D01*
X135033979Y-106065453D01*
X135014632Y-106120742D01*
X135014630Y-106120750D01*
X134994435Y-106299996D01*
X134994435Y-106300003D01*
X135014630Y-106479249D01*
X135014631Y-106479254D01*
X135074211Y-106649524D01*
X135130493Y-106739094D01*
X135149500Y-106805067D01*
X135149500Y-107055343D01*
X135129815Y-107122382D01*
X135077011Y-107168137D01*
X135007853Y-107178081D01*
X134993409Y-107175118D01*
X134955419Y-107164939D01*
X134955403Y-107164936D01*
X134720001Y-107144341D01*
X134719999Y-107144341D01*
X134484596Y-107164936D01*
X134484586Y-107164938D01*
X134256344Y-107226094D01*
X134256335Y-107226098D01*
X134042171Y-107325964D01*
X134042169Y-107325965D01*
X133848597Y-107461505D01*
X133762181Y-107547922D01*
X133700858Y-107581407D01*
X133631166Y-107576423D01*
X133575233Y-107534551D01*
X133550816Y-107469087D01*
X133550500Y-107460241D01*
X133550500Y-106805067D01*
X133569507Y-106739094D01*
X133625788Y-106649524D01*
X133685368Y-106479254D01*
X133685369Y-106479249D01*
X133705565Y-106300003D01*
X133705565Y-106299996D01*
X133685369Y-106120750D01*
X133685366Y-106120737D01*
X133625790Y-105950481D01*
X133625789Y-105950478D01*
X133594386Y-105900500D01*
X133585457Y-105886289D01*
X133566457Y-105819052D01*
X133586825Y-105752217D01*
X133591180Y-105746012D01*
X133601729Y-105731920D01*
X133625486Y-105700187D01*
X133681420Y-105658317D01*
X133724751Y-105650500D01*
X134175249Y-105650500D01*
X134242288Y-105670185D01*
G37*
%TD.AperFunction*%
%TA.AperFunction,NonConductor*%
G36*
X129630740Y-103548722D02*
G01*
X129669114Y-103607111D01*
X129674500Y-103643245D01*
X129674500Y-103647862D01*
X129674501Y-103647876D01*
X129680908Y-103707483D01*
X129731202Y-103842328D01*
X129731206Y-103842335D01*
X129800358Y-103934709D01*
X129817454Y-103957546D01*
X129863785Y-103992229D01*
X129905655Y-104048162D01*
X129910639Y-104117854D01*
X129904034Y-104138947D01*
X129893823Y-104163599D01*
X129853575Y-104215412D01*
X129817459Y-104242449D01*
X129817451Y-104242457D01*
X129731206Y-104357664D01*
X129731202Y-104357671D01*
X129680908Y-104492517D01*
X129675965Y-104538498D01*
X129674501Y-104552123D01*
X129674500Y-104552135D01*
X129674500Y-105447870D01*
X129674501Y-105447876D01*
X129680908Y-105507483D01*
X129731202Y-105642328D01*
X129731206Y-105642335D01*
X129817452Y-105757544D01*
X129817455Y-105757547D01*
X129932664Y-105843793D01*
X129932671Y-105843797D01*
X129968639Y-105857212D01*
X130067517Y-105894091D01*
X130127127Y-105900500D01*
X130416938Y-105900499D01*
X130483976Y-105920183D01*
X130529731Y-105972987D01*
X130539675Y-106042146D01*
X130533979Y-106065453D01*
X130514632Y-106120742D01*
X130514630Y-106120750D01*
X130494435Y-106299996D01*
X130494435Y-106300003D01*
X130514630Y-106479249D01*
X130514632Y-106479257D01*
X130547523Y-106573255D01*
X130551084Y-106643034D01*
X130518162Y-106701890D01*
X130067762Y-107152290D01*
X130006439Y-107185775D01*
X129947989Y-107184384D01*
X129875416Y-107164939D01*
X129875412Y-107164938D01*
X129875408Y-107164937D01*
X129875406Y-107164936D01*
X129875403Y-107164936D01*
X129640001Y-107144341D01*
X129639999Y-107144341D01*
X129404596Y-107164936D01*
X129404586Y-107164938D01*
X129176344Y-107226094D01*
X129176335Y-107226098D01*
X128962171Y-107325964D01*
X128962169Y-107325965D01*
X128768600Y-107461503D01*
X128646673Y-107583430D01*
X128585350Y-107616914D01*
X128515658Y-107611930D01*
X128459725Y-107570058D01*
X128442810Y-107539081D01*
X128393797Y-107407671D01*
X128393793Y-107407664D01*
X128307547Y-107292455D01*
X128307544Y-107292452D01*
X128192335Y-107206206D01*
X128192328Y-107206202D01*
X128057482Y-107155908D01*
X128057483Y-107155908D01*
X127997883Y-107149501D01*
X127997881Y-107149500D01*
X127997873Y-107149500D01*
X127997865Y-107149500D01*
X127874500Y-107149500D01*
X127807461Y-107129815D01*
X127761706Y-107077011D01*
X127750500Y-107025500D01*
X127750500Y-106805067D01*
X127769507Y-106739094D01*
X127825788Y-106649524D01*
X127885368Y-106479254D01*
X127885369Y-106479249D01*
X127905565Y-106300003D01*
X127905565Y-106299996D01*
X127885369Y-106120750D01*
X127885367Y-106120742D01*
X127861647Y-106052953D01*
X127858086Y-105983175D01*
X127892815Y-105922547D01*
X127954808Y-105890320D01*
X127978689Y-105887999D01*
X128086670Y-105887999D01*
X128086676Y-105887999D01*
X128187753Y-105877674D01*
X128351516Y-105823408D01*
X128498350Y-105732840D01*
X128620340Y-105610850D01*
X128710908Y-105464016D01*
X128765174Y-105300253D01*
X128775500Y-105199177D01*
X128775499Y-104600824D01*
X128770525Y-104552135D01*
X128765174Y-104499747D01*
X128762778Y-104492516D01*
X128710908Y-104335984D01*
X128620340Y-104189150D01*
X128528510Y-104097320D01*
X128495025Y-104035997D01*
X128500009Y-103966305D01*
X128541881Y-103910372D01*
X128607345Y-103885955D01*
X128630072Y-103886418D01*
X128698656Y-103894146D01*
X128799997Y-103905565D01*
X128800000Y-103905565D01*
X128800004Y-103905565D01*
X128979249Y-103885369D01*
X128979252Y-103885368D01*
X128979255Y-103885368D01*
X129149522Y-103825789D01*
X129302262Y-103729816D01*
X129429816Y-103602262D01*
X129445507Y-103577288D01*
X129497837Y-103530999D01*
X129566891Y-103520349D01*
X129630740Y-103548722D01*
G37*
%TD.AperFunction*%
%TA.AperFunction,NonConductor*%
G36*
X148754954Y-95828329D02*
G01*
X148793810Y-95886397D01*
X148799500Y-95923529D01*
X148799500Y-107722327D01*
X148779815Y-107789366D01*
X148727011Y-107835121D01*
X148657853Y-107845065D01*
X148594297Y-107816040D01*
X148573925Y-107793450D01*
X148458494Y-107628597D01*
X148291402Y-107461506D01*
X148291395Y-107461501D01*
X148289498Y-107460173D01*
X148252521Y-107434281D01*
X148097834Y-107325967D01*
X148097830Y-107325965D01*
X148062128Y-107309317D01*
X147883663Y-107226097D01*
X147883659Y-107226096D01*
X147883655Y-107226094D01*
X147655413Y-107164938D01*
X147655403Y-107164936D01*
X147420001Y-107144341D01*
X147419998Y-107144341D01*
X147185307Y-107164874D01*
X147116807Y-107151107D01*
X147066624Y-107102492D01*
X147050500Y-107041346D01*
X147050500Y-106805067D01*
X147069507Y-106739094D01*
X147125788Y-106649524D01*
X147185368Y-106479254D01*
X147185369Y-106479249D01*
X147205565Y-106300003D01*
X147205565Y-106299996D01*
X147185369Y-106120750D01*
X147185366Y-106120737D01*
X147125790Y-105950481D01*
X147125789Y-105950478D01*
X147094386Y-105900500D01*
X147085457Y-105886289D01*
X147066457Y-105819052D01*
X147086825Y-105752217D01*
X147091176Y-105746017D01*
X147168796Y-105642331D01*
X147219091Y-105507483D01*
X147225500Y-105447873D01*
X147225499Y-104552128D01*
X147219091Y-104492517D01*
X147203411Y-104450478D01*
X147168797Y-104357671D01*
X147168796Y-104357670D01*
X147168796Y-104357669D01*
X147082546Y-104242454D01*
X147082542Y-104242451D01*
X147076278Y-104236187D01*
X147077658Y-104234806D01*
X147042581Y-104187944D01*
X147037149Y-104168817D01*
X147025501Y-104110256D01*
X147025499Y-104110252D01*
X147023732Y-104104425D01*
X147026337Y-104103634D01*
X147020106Y-104045850D01*
X147051361Y-103983361D01*
X147067833Y-103968560D01*
X147070845Y-103966305D01*
X147082546Y-103957546D01*
X147168796Y-103842331D01*
X147219091Y-103707483D01*
X147225500Y-103647873D01*
X147225499Y-102752128D01*
X147219091Y-102692517D01*
X147218216Y-102690172D01*
X147168797Y-102557671D01*
X147168795Y-102557668D01*
X147162697Y-102549522D01*
X147091183Y-102453991D01*
X147066766Y-102388530D01*
X147081617Y-102320256D01*
X147085455Y-102313712D01*
X147125789Y-102249522D01*
X147185368Y-102079255D01*
X147191960Y-102020750D01*
X147205565Y-101900003D01*
X147205565Y-101899996D01*
X147185369Y-101720750D01*
X147185368Y-101720745D01*
X147177318Y-101697739D01*
X147125789Y-101550478D01*
X147029816Y-101397738D01*
X146902262Y-101270184D01*
X146783249Y-101195403D01*
X146749521Y-101174210D01*
X146579249Y-101114630D01*
X146547020Y-101110999D01*
X146482606Y-101083932D01*
X146473224Y-101075460D01*
X146336119Y-100938355D01*
X146336117Y-100938352D01*
X146217246Y-100819481D01*
X146217241Y-100819477D01*
X146119550Y-100763076D01*
X146119541Y-100763067D01*
X146119540Y-100763070D01*
X146116546Y-100761341D01*
X146090876Y-100741641D01*
X145952306Y-100603071D01*
X145918821Y-100541748D01*
X145923805Y-100472056D01*
X145965677Y-100416123D01*
X145973997Y-100410407D01*
X146102262Y-100329814D01*
X146229816Y-100202260D01*
X146325789Y-100049520D01*
X146385368Y-99879253D01*
X146385368Y-99879250D01*
X146385369Y-99879247D01*
X146405565Y-99700001D01*
X146405565Y-99699994D01*
X146385369Y-99520748D01*
X146385368Y-99520743D01*
X146371021Y-99479741D01*
X146325789Y-99350476D01*
X146310396Y-99325979D01*
X146229817Y-99197738D01*
X146229816Y-99197736D01*
X146102262Y-99070182D01*
X146019153Y-99017961D01*
X145949523Y-98974209D01*
X145779254Y-98914629D01*
X145779249Y-98914628D01*
X145600004Y-98894433D01*
X145599996Y-98894433D01*
X145420750Y-98914628D01*
X145420745Y-98914629D01*
X145250476Y-98974209D01*
X145097737Y-99070182D01*
X144970182Y-99197737D01*
X144889600Y-99325983D01*
X144837266Y-99372273D01*
X144768212Y-99382921D01*
X144704364Y-99354546D01*
X144696926Y-99347691D01*
X142848018Y-97498783D01*
X142814533Y-97437460D01*
X142811699Y-97411102D01*
X142811699Y-97343139D01*
X142831384Y-97276100D01*
X142884188Y-97230345D01*
X142953346Y-97220401D01*
X143016902Y-97249426D01*
X143023380Y-97255458D01*
X143097738Y-97329816D01*
X143180002Y-97381506D01*
X143230649Y-97413330D01*
X143250478Y-97425789D01*
X143399317Y-97477870D01*
X143420745Y-97485368D01*
X143420750Y-97485369D01*
X143599996Y-97505565D01*
X143600000Y-97505565D01*
X143600003Y-97505565D01*
X143776017Y-97485733D01*
X143844839Y-97497787D01*
X143870644Y-97516295D01*
X143870987Y-97515862D01*
X143876647Y-97520338D01*
X143876649Y-97520339D01*
X143876650Y-97520340D01*
X144023484Y-97610908D01*
X144187247Y-97665174D01*
X144288323Y-97675500D01*
X144986676Y-97675499D01*
X144986684Y-97675498D01*
X144986687Y-97675498D01*
X145042030Y-97669844D01*
X145087753Y-97665174D01*
X145251516Y-97610908D01*
X145398350Y-97520340D01*
X145412319Y-97506371D01*
X145473642Y-97472886D01*
X145543334Y-97477870D01*
X145587681Y-97506371D01*
X145601650Y-97520340D01*
X145748484Y-97610908D01*
X145912247Y-97665174D01*
X146013323Y-97675500D01*
X146711676Y-97675499D01*
X146711684Y-97675498D01*
X146711687Y-97675498D01*
X146767030Y-97669844D01*
X146812753Y-97665174D01*
X146976516Y-97610908D01*
X147123350Y-97520340D01*
X147245340Y-97398350D01*
X147335908Y-97251516D01*
X147390174Y-97087753D01*
X147400303Y-96988596D01*
X147426699Y-96923908D01*
X147482703Y-96884161D01*
X147649522Y-96825789D01*
X147802262Y-96729816D01*
X147929816Y-96602262D01*
X148025789Y-96449522D01*
X148085368Y-96279255D01*
X148088772Y-96249035D01*
X148115838Y-96184623D01*
X148172987Y-96145214D01*
X148276516Y-96110908D01*
X148423350Y-96020340D01*
X148545340Y-95898350D01*
X148569962Y-95858430D01*
X148621909Y-95811708D01*
X148690872Y-95800485D01*
X148754954Y-95828329D01*
G37*
%TD.AperFunction*%
%TA.AperFunction,NonConductor*%
G36*
X141180243Y-106669948D02*
G01*
X141204992Y-106698510D01*
X141217132Y-106717830D01*
X141230494Y-106739095D01*
X141249500Y-106805067D01*
X141249500Y-107663773D01*
X141229815Y-107730812D01*
X141227075Y-107734896D01*
X141176075Y-107807732D01*
X141121498Y-107851357D01*
X141052000Y-107858551D01*
X140989645Y-107827028D01*
X140954231Y-107766799D01*
X140950500Y-107736609D01*
X140950500Y-106805067D01*
X140969506Y-106739095D01*
X140982868Y-106717830D01*
X140995006Y-106698511D01*
X141047341Y-106652221D01*
X141116394Y-106641573D01*
X141180243Y-106669948D01*
G37*
%TD.AperFunction*%
%TA.AperFunction,NonConductor*%
G36*
X143242288Y-105670185D02*
G01*
X143274515Y-105700188D01*
X143308814Y-105746005D01*
X143317454Y-105757546D01*
X143317457Y-105757548D01*
X143432664Y-105843793D01*
X143432671Y-105843797D01*
X143468639Y-105857212D01*
X143567517Y-105894091D01*
X143627127Y-105900500D01*
X143996938Y-105900499D01*
X144063976Y-105920183D01*
X144109731Y-105972987D01*
X144119675Y-106042146D01*
X144113979Y-106065453D01*
X144094632Y-106120742D01*
X144094630Y-106120750D01*
X144074435Y-106299996D01*
X144074435Y-106300003D01*
X144094630Y-106479249D01*
X144094631Y-106479254D01*
X144154211Y-106649524D01*
X144210493Y-106739094D01*
X144229500Y-106805067D01*
X144229500Y-107242278D01*
X144209815Y-107309317D01*
X144176623Y-107343853D01*
X144008597Y-107461505D01*
X143841505Y-107628597D01*
X143711575Y-107814158D01*
X143656998Y-107857783D01*
X143587500Y-107864977D01*
X143525145Y-107833454D01*
X143508425Y-107814158D01*
X143378494Y-107628597D01*
X143211402Y-107461506D01*
X143211395Y-107461501D01*
X143209498Y-107460173D01*
X143172521Y-107434281D01*
X143017834Y-107325967D01*
X143017830Y-107325965D01*
X142982128Y-107309317D01*
X142803663Y-107226097D01*
X142803660Y-107226096D01*
X142803658Y-107226095D01*
X142642406Y-107182888D01*
X142582746Y-107146523D01*
X142552217Y-107083676D01*
X142550500Y-107063113D01*
X142550500Y-106805067D01*
X142569507Y-106739094D01*
X142625788Y-106649524D01*
X142685368Y-106479254D01*
X142685369Y-106479249D01*
X142705565Y-106300003D01*
X142705565Y-106299996D01*
X142685369Y-106120750D01*
X142685366Y-106120737D01*
X142625790Y-105950481D01*
X142625789Y-105950478D01*
X142594386Y-105900500D01*
X142585457Y-105886289D01*
X142566457Y-105819052D01*
X142586825Y-105752217D01*
X142591180Y-105746012D01*
X142601729Y-105731920D01*
X142625486Y-105700187D01*
X142681420Y-105658317D01*
X142724751Y-105650500D01*
X143175249Y-105650500D01*
X143242288Y-105670185D01*
G37*
%TD.AperFunction*%
%TA.AperFunction,NonConductor*%
G36*
X104505703Y-106657042D02*
G01*
X104536880Y-106698349D01*
X104545965Y-106717830D01*
X104545966Y-106717831D01*
X104545967Y-106717834D01*
X104681501Y-106911395D01*
X104681506Y-106911402D01*
X104848597Y-107078493D01*
X104848603Y-107078498D01*
X105034158Y-107208425D01*
X105077783Y-107263002D01*
X105084977Y-107332500D01*
X105053454Y-107394855D01*
X105034158Y-107411575D01*
X104848597Y-107541505D01*
X104681505Y-107708597D01*
X104545965Y-107902169D01*
X104545964Y-107902171D01*
X104536882Y-107921649D01*
X104490709Y-107974088D01*
X104423516Y-107993240D01*
X104356635Y-107973024D01*
X104311300Y-107919859D01*
X104300500Y-107869244D01*
X104300500Y-106750755D01*
X104320185Y-106683716D01*
X104372989Y-106637961D01*
X104442147Y-106628017D01*
X104505703Y-106657042D01*
G37*
%TD.AperFunction*%
%TA.AperFunction,NonConductor*%
G36*
X148760355Y-109187254D02*
G01*
X148795769Y-109247484D01*
X148799500Y-109277673D01*
X148799500Y-109775500D01*
X148779815Y-109842539D01*
X148727011Y-109888294D01*
X148675500Y-109899500D01*
X148169110Y-109899500D01*
X148102071Y-109879815D01*
X148056316Y-109827011D01*
X148046372Y-109757853D01*
X148075397Y-109694297D01*
X148097987Y-109673925D01*
X148177152Y-109618493D01*
X148291401Y-109538495D01*
X148458495Y-109371401D01*
X148573925Y-109206549D01*
X148628502Y-109162925D01*
X148698000Y-109155731D01*
X148760355Y-109187254D01*
G37*
%TD.AperFunction*%
%TA.AperFunction,NonConductor*%
G36*
X146234855Y-109166546D02*
G01*
X146251575Y-109185842D01*
X146381501Y-109371396D01*
X146381506Y-109371402D01*
X146548597Y-109538493D01*
X146548603Y-109538498D01*
X146742013Y-109673925D01*
X146785638Y-109728502D01*
X146792832Y-109798000D01*
X146761309Y-109860355D01*
X146701079Y-109895769D01*
X146670890Y-109899500D01*
X145629110Y-109899500D01*
X145562071Y-109879815D01*
X145516316Y-109827011D01*
X145506372Y-109757853D01*
X145535397Y-109694297D01*
X145557987Y-109673925D01*
X145637152Y-109618493D01*
X145751401Y-109538495D01*
X145918495Y-109371401D01*
X146048425Y-109185842D01*
X146103002Y-109142217D01*
X146172500Y-109135023D01*
X146234855Y-109166546D01*
G37*
%TD.AperFunction*%
%TA.AperFunction,NonConductor*%
G36*
X143694855Y-109166546D02*
G01*
X143711575Y-109185842D01*
X143841501Y-109371396D01*
X143841506Y-109371402D01*
X144008597Y-109538493D01*
X144008603Y-109538498D01*
X144202013Y-109673925D01*
X144245638Y-109728502D01*
X144252832Y-109798000D01*
X144221309Y-109860355D01*
X144161079Y-109895769D01*
X144130890Y-109899500D01*
X143089110Y-109899500D01*
X143022071Y-109879815D01*
X142976316Y-109827011D01*
X142966372Y-109757853D01*
X142995397Y-109694297D01*
X143017987Y-109673925D01*
X143097152Y-109618493D01*
X143211401Y-109538495D01*
X143378495Y-109371401D01*
X143508425Y-109185842D01*
X143563002Y-109142217D01*
X143632500Y-109135023D01*
X143694855Y-109166546D01*
G37*
%TD.AperFunction*%
%TA.AperFunction,NonConductor*%
G36*
X141154855Y-109166546D02*
G01*
X141171575Y-109185842D01*
X141301501Y-109371396D01*
X141301506Y-109371402D01*
X141468597Y-109538493D01*
X141468603Y-109538498D01*
X141662013Y-109673925D01*
X141705638Y-109728502D01*
X141712832Y-109798000D01*
X141681309Y-109860355D01*
X141621079Y-109895769D01*
X141590890Y-109899500D01*
X140549110Y-109899500D01*
X140482071Y-109879815D01*
X140436316Y-109827011D01*
X140426372Y-109757853D01*
X140455397Y-109694297D01*
X140477987Y-109673925D01*
X140557152Y-109618493D01*
X140671401Y-109538495D01*
X140838495Y-109371401D01*
X140968425Y-109185842D01*
X141023002Y-109142217D01*
X141092500Y-109135023D01*
X141154855Y-109166546D01*
G37*
%TD.AperFunction*%
%TA.AperFunction,NonConductor*%
G36*
X138614855Y-109166546D02*
G01*
X138631575Y-109185842D01*
X138761501Y-109371396D01*
X138761506Y-109371402D01*
X138928597Y-109538493D01*
X138928603Y-109538498D01*
X139122013Y-109673925D01*
X139165638Y-109728502D01*
X139172832Y-109798000D01*
X139141309Y-109860355D01*
X139081079Y-109895769D01*
X139050890Y-109899500D01*
X138009110Y-109899500D01*
X137942071Y-109879815D01*
X137896316Y-109827011D01*
X137886372Y-109757853D01*
X137915397Y-109694297D01*
X137937987Y-109673925D01*
X138017152Y-109618493D01*
X138131401Y-109538495D01*
X138298495Y-109371401D01*
X138428425Y-109185842D01*
X138483002Y-109142217D01*
X138552500Y-109135023D01*
X138614855Y-109166546D01*
G37*
%TD.AperFunction*%
%TA.AperFunction,NonConductor*%
G36*
X136074855Y-109166546D02*
G01*
X136091575Y-109185842D01*
X136221501Y-109371396D01*
X136221506Y-109371402D01*
X136388597Y-109538493D01*
X136388603Y-109538498D01*
X136582013Y-109673925D01*
X136625638Y-109728502D01*
X136632832Y-109798000D01*
X136601309Y-109860355D01*
X136541079Y-109895769D01*
X136510890Y-109899500D01*
X135469110Y-109899500D01*
X135402071Y-109879815D01*
X135356316Y-109827011D01*
X135346372Y-109757853D01*
X135375397Y-109694297D01*
X135397987Y-109673925D01*
X135477152Y-109618493D01*
X135591401Y-109538495D01*
X135758495Y-109371401D01*
X135888425Y-109185842D01*
X135943002Y-109142217D01*
X136012500Y-109135023D01*
X136074855Y-109166546D01*
G37*
%TD.AperFunction*%
%TA.AperFunction,NonConductor*%
G36*
X133534855Y-109166546D02*
G01*
X133551575Y-109185842D01*
X133681501Y-109371396D01*
X133681506Y-109371402D01*
X133848597Y-109538493D01*
X133848603Y-109538498D01*
X134042013Y-109673925D01*
X134085638Y-109728502D01*
X134092832Y-109798000D01*
X134061309Y-109860355D01*
X134001079Y-109895769D01*
X133970890Y-109899500D01*
X132929110Y-109899500D01*
X132862071Y-109879815D01*
X132816316Y-109827011D01*
X132806372Y-109757853D01*
X132835397Y-109694297D01*
X132857987Y-109673925D01*
X132937152Y-109618493D01*
X133051401Y-109538495D01*
X133218495Y-109371401D01*
X133348425Y-109185842D01*
X133403002Y-109142217D01*
X133472500Y-109135023D01*
X133534855Y-109166546D01*
G37*
%TD.AperFunction*%
%TA.AperFunction,NonConductor*%
G36*
X130994855Y-109166546D02*
G01*
X131011575Y-109185842D01*
X131141501Y-109371396D01*
X131141506Y-109371402D01*
X131308597Y-109538493D01*
X131308603Y-109538498D01*
X131502013Y-109673925D01*
X131545638Y-109728502D01*
X131552832Y-109798000D01*
X131521309Y-109860355D01*
X131461079Y-109895769D01*
X131430890Y-109899500D01*
X130389110Y-109899500D01*
X130322071Y-109879815D01*
X130276316Y-109827011D01*
X130266372Y-109757853D01*
X130295397Y-109694297D01*
X130317987Y-109673925D01*
X130397152Y-109618493D01*
X130511401Y-109538495D01*
X130678495Y-109371401D01*
X130808425Y-109185842D01*
X130863002Y-109142217D01*
X130932500Y-109135023D01*
X130994855Y-109166546D01*
G37*
%TD.AperFunction*%
%TA.AperFunction,NonConductor*%
G36*
X128618418Y-109395417D02*
G01*
X128646673Y-109416569D01*
X128768597Y-109538493D01*
X128768603Y-109538498D01*
X128962013Y-109673925D01*
X129005638Y-109728502D01*
X129012832Y-109798000D01*
X128981309Y-109860355D01*
X128921079Y-109895769D01*
X128890890Y-109899500D01*
X128411571Y-109899500D01*
X128344532Y-109879815D01*
X128298777Y-109827011D01*
X128288833Y-109757853D01*
X128312305Y-109701189D01*
X128393793Y-109592335D01*
X128393792Y-109592335D01*
X128393796Y-109592331D01*
X128442810Y-109460916D01*
X128484681Y-109404984D01*
X128550145Y-109380566D01*
X128618418Y-109395417D01*
G37*
%TD.AperFunction*%
%TA.AperFunction,NonConductor*%
G36*
X125693599Y-108020869D02*
G01*
X125738814Y-108074137D01*
X125749500Y-108124496D01*
X125749500Y-109397870D01*
X125749501Y-109397876D01*
X125755908Y-109457483D01*
X125806202Y-109592328D01*
X125806206Y-109592335D01*
X125887695Y-109701189D01*
X125912113Y-109766653D01*
X125897262Y-109834926D01*
X125847857Y-109884332D01*
X125788429Y-109899500D01*
X124363362Y-109899500D01*
X124296323Y-109879815D01*
X124250568Y-109827011D01*
X124240624Y-109757853D01*
X124269649Y-109694297D01*
X124292239Y-109673925D01*
X124307439Y-109663281D01*
X124371401Y-109618495D01*
X124538495Y-109451401D01*
X124674035Y-109257830D01*
X124773903Y-109043663D01*
X124835063Y-108815408D01*
X124855659Y-108580000D01*
X124835063Y-108344592D01*
X124799931Y-108213476D01*
X124801594Y-108143630D01*
X124840756Y-108085767D01*
X124904985Y-108058263D01*
X124960660Y-108064344D01*
X125020742Y-108085367D01*
X125020745Y-108085368D01*
X125020746Y-108085368D01*
X125020750Y-108085369D01*
X125199996Y-108105565D01*
X125200000Y-108105565D01*
X125200004Y-108105565D01*
X125379249Y-108085369D01*
X125379252Y-108085368D01*
X125379255Y-108085368D01*
X125549522Y-108025789D01*
X125549524Y-108025788D01*
X125559527Y-108019503D01*
X125626764Y-108000502D01*
X125693599Y-108020869D01*
G37*
%TD.AperFunction*%
%TA.AperFunction,NonConductor*%
G36*
X122272085Y-58920185D02*
G01*
X122317840Y-58972989D01*
X122327784Y-59042147D01*
X122298759Y-59105703D01*
X122292727Y-59112181D01*
X122292452Y-59112455D01*
X122206206Y-59227664D01*
X122206202Y-59227671D01*
X122155908Y-59362517D01*
X122149501Y-59422116D01*
X122149501Y-59422123D01*
X122149500Y-59422135D01*
X122149500Y-61217870D01*
X122149501Y-61217876D01*
X122155908Y-61277483D01*
X122206202Y-61412328D01*
X122206206Y-61412335D01*
X122292452Y-61527544D01*
X122292455Y-61527547D01*
X122407664Y-61613793D01*
X122407671Y-61613797D01*
X122539081Y-61662810D01*
X122595015Y-61704681D01*
X122619432Y-61770145D01*
X122604580Y-61838418D01*
X122583430Y-61866673D01*
X122461503Y-61988600D01*
X122325965Y-62182169D01*
X122325964Y-62182171D01*
X122226098Y-62396335D01*
X122226094Y-62396344D01*
X122164938Y-62624586D01*
X122164936Y-62624596D01*
X122144341Y-62859999D01*
X122144341Y-62860000D01*
X122164936Y-63095403D01*
X122164938Y-63095413D01*
X122226094Y-63323655D01*
X122226096Y-63323659D01*
X122226097Y-63323663D01*
X122297619Y-63477042D01*
X122325965Y-63537830D01*
X122325967Y-63537834D01*
X122461501Y-63731395D01*
X122461506Y-63731402D01*
X122628597Y-63898493D01*
X122628603Y-63898498D01*
X122814158Y-64028425D01*
X122857783Y-64083002D01*
X122864977Y-64152500D01*
X122833454Y-64214855D01*
X122814158Y-64231575D01*
X122628597Y-64361505D01*
X122461505Y-64528597D01*
X122325965Y-64722169D01*
X122325964Y-64722171D01*
X122226098Y-64936335D01*
X122226094Y-64936344D01*
X122164938Y-65164586D01*
X122164936Y-65164596D01*
X122144341Y-65399999D01*
X122144341Y-65400000D01*
X122164936Y-65635403D01*
X122164938Y-65635413D01*
X122226094Y-65863655D01*
X122226096Y-65863659D01*
X122226097Y-65863663D01*
X122297619Y-66017042D01*
X122325965Y-66077830D01*
X122325967Y-66077834D01*
X122461501Y-66271395D01*
X122461506Y-66271402D01*
X122628597Y-66438493D01*
X122628603Y-66438498D01*
X122814158Y-66568425D01*
X122857783Y-66623002D01*
X122864977Y-66692500D01*
X122833454Y-66754855D01*
X122814158Y-66771575D01*
X122628597Y-66901505D01*
X122461505Y-67068597D01*
X122325965Y-67262169D01*
X122325964Y-67262171D01*
X122226098Y-67476335D01*
X122226094Y-67476344D01*
X122164938Y-67704586D01*
X122164936Y-67704596D01*
X122144341Y-67939999D01*
X122144341Y-67940000D01*
X122164936Y-68175403D01*
X122164938Y-68175413D01*
X122226094Y-68403655D01*
X122226096Y-68403659D01*
X122226097Y-68403663D01*
X122297619Y-68557042D01*
X122325965Y-68617830D01*
X122325967Y-68617834D01*
X122461501Y-68811395D01*
X122461506Y-68811402D01*
X122628597Y-68978493D01*
X122628603Y-68978498D01*
X122814158Y-69108425D01*
X122857783Y-69163002D01*
X122864977Y-69232500D01*
X122833454Y-69294855D01*
X122814158Y-69311575D01*
X122628597Y-69441505D01*
X122461505Y-69608597D01*
X122325965Y-69802169D01*
X122325964Y-69802171D01*
X122226098Y-70016335D01*
X122226094Y-70016344D01*
X122164938Y-70244586D01*
X122164936Y-70244596D01*
X122144341Y-70479999D01*
X122144341Y-70480000D01*
X122164936Y-70715403D01*
X122164938Y-70715413D01*
X122226094Y-70943655D01*
X122226096Y-70943659D01*
X122226097Y-70943663D01*
X122297619Y-71097042D01*
X122325965Y-71157830D01*
X122325967Y-71157834D01*
X122461501Y-71351395D01*
X122461506Y-71351402D01*
X122628597Y-71518493D01*
X122628603Y-71518498D01*
X122814158Y-71648425D01*
X122857783Y-71703002D01*
X122864977Y-71772500D01*
X122833454Y-71834855D01*
X122814158Y-71851575D01*
X122628597Y-71981505D01*
X122461505Y-72148597D01*
X122325965Y-72342169D01*
X122325964Y-72342171D01*
X122226098Y-72556335D01*
X122226094Y-72556344D01*
X122164938Y-72784586D01*
X122164936Y-72784596D01*
X122144341Y-73019999D01*
X122144341Y-73020000D01*
X122164936Y-73255403D01*
X122164938Y-73255413D01*
X122226094Y-73483655D01*
X122226096Y-73483659D01*
X122226097Y-73483663D01*
X122297619Y-73637042D01*
X122325965Y-73697830D01*
X122325967Y-73697834D01*
X122399353Y-73802639D01*
X122458596Y-73887247D01*
X122461501Y-73891395D01*
X122461506Y-73891402D01*
X122628597Y-74058493D01*
X122628603Y-74058498D01*
X122814158Y-74188425D01*
X122857783Y-74243002D01*
X122864977Y-74312500D01*
X122833454Y-74374855D01*
X122814158Y-74391575D01*
X122628597Y-74521505D01*
X122461505Y-74688597D01*
X122325965Y-74882169D01*
X122325964Y-74882171D01*
X122226098Y-75096335D01*
X122226094Y-75096344D01*
X122164938Y-75324586D01*
X122164936Y-75324596D01*
X122144341Y-75559999D01*
X122144341Y-75560000D01*
X122164936Y-75795403D01*
X122164938Y-75795413D01*
X122226094Y-76023655D01*
X122226096Y-76023659D01*
X122226097Y-76023663D01*
X122297619Y-76177042D01*
X122325965Y-76237830D01*
X122325967Y-76237834D01*
X122461501Y-76431395D01*
X122461506Y-76431402D01*
X122628597Y-76598493D01*
X122628603Y-76598498D01*
X122814158Y-76728425D01*
X122857783Y-76783002D01*
X122864977Y-76852500D01*
X122833454Y-76914855D01*
X122814158Y-76931575D01*
X122628597Y-77061505D01*
X122461505Y-77228597D01*
X122325965Y-77422169D01*
X122325964Y-77422171D01*
X122226098Y-77636335D01*
X122226094Y-77636344D01*
X122164938Y-77864586D01*
X122164936Y-77864596D01*
X122144341Y-78099999D01*
X122144341Y-78100000D01*
X122164936Y-78335403D01*
X122164938Y-78335413D01*
X122226094Y-78563655D01*
X122226096Y-78563659D01*
X122226097Y-78563663D01*
X122292267Y-78705565D01*
X122325965Y-78777830D01*
X122325967Y-78777834D01*
X122461501Y-78971395D01*
X122461506Y-78971402D01*
X122628597Y-79138493D01*
X122628603Y-79138498D01*
X122814158Y-79268425D01*
X122857783Y-79323002D01*
X122864977Y-79392500D01*
X122833454Y-79454855D01*
X122814158Y-79471575D01*
X122628597Y-79601505D01*
X122461505Y-79768597D01*
X122325965Y-79962169D01*
X122325964Y-79962171D01*
X122226098Y-80176335D01*
X122226094Y-80176344D01*
X122164938Y-80404586D01*
X122164936Y-80404596D01*
X122144341Y-80639999D01*
X122144341Y-80640000D01*
X122164936Y-80875403D01*
X122164938Y-80875413D01*
X122226094Y-81103655D01*
X122226096Y-81103659D01*
X122226097Y-81103663D01*
X122297619Y-81257042D01*
X122325965Y-81317830D01*
X122325967Y-81317834D01*
X122461501Y-81511395D01*
X122461506Y-81511402D01*
X122628597Y-81678493D01*
X122628603Y-81678498D01*
X122814158Y-81808425D01*
X122857783Y-81863002D01*
X122864977Y-81932500D01*
X122833454Y-81994855D01*
X122814158Y-82011575D01*
X122628597Y-82141505D01*
X122461505Y-82308597D01*
X122325965Y-82502169D01*
X122325964Y-82502171D01*
X122226098Y-82716335D01*
X122226094Y-82716344D01*
X122164938Y-82944586D01*
X122164936Y-82944596D01*
X122144341Y-83179999D01*
X122144341Y-83180000D01*
X122164936Y-83415403D01*
X122164938Y-83415413D01*
X122226094Y-83643655D01*
X122226096Y-83643659D01*
X122226097Y-83643663D01*
X122297619Y-83797042D01*
X122325965Y-83857830D01*
X122325967Y-83857834D01*
X122461501Y-84051395D01*
X122461506Y-84051402D01*
X122628597Y-84218493D01*
X122628603Y-84218498D01*
X122814158Y-84348425D01*
X122857783Y-84403002D01*
X122864977Y-84472500D01*
X122833454Y-84534855D01*
X122814158Y-84551575D01*
X122628597Y-84681505D01*
X122461505Y-84848597D01*
X122325965Y-85042169D01*
X122325964Y-85042171D01*
X122226098Y-85256335D01*
X122226094Y-85256344D01*
X122164938Y-85484586D01*
X122164936Y-85484596D01*
X122144341Y-85719999D01*
X122144341Y-85720000D01*
X122164936Y-85955403D01*
X122164938Y-85955413D01*
X122226094Y-86183655D01*
X122226096Y-86183659D01*
X122226097Y-86183663D01*
X122297619Y-86337042D01*
X122325965Y-86397830D01*
X122325967Y-86397834D01*
X122461501Y-86591395D01*
X122461506Y-86591402D01*
X122628597Y-86758493D01*
X122628603Y-86758498D01*
X122814158Y-86888425D01*
X122857783Y-86943002D01*
X122864977Y-87012500D01*
X122833454Y-87074855D01*
X122814158Y-87091575D01*
X122628597Y-87221505D01*
X122461505Y-87388597D01*
X122325965Y-87582169D01*
X122325964Y-87582171D01*
X122226098Y-87796335D01*
X122226094Y-87796344D01*
X122164938Y-88024586D01*
X122164936Y-88024596D01*
X122144341Y-88259999D01*
X122144341Y-88260000D01*
X122164936Y-88495403D01*
X122164938Y-88495413D01*
X122226094Y-88723655D01*
X122226096Y-88723659D01*
X122226097Y-88723663D01*
X122296299Y-88874211D01*
X122325965Y-88937830D01*
X122325967Y-88937834D01*
X122461501Y-89131395D01*
X122461506Y-89131402D01*
X122628597Y-89298493D01*
X122628603Y-89298498D01*
X122814158Y-89428425D01*
X122857783Y-89483002D01*
X122864977Y-89552500D01*
X122833454Y-89614855D01*
X122814158Y-89631575D01*
X122628597Y-89761505D01*
X122461505Y-89928597D01*
X122325965Y-90122169D01*
X122325964Y-90122171D01*
X122226098Y-90336335D01*
X122226094Y-90336344D01*
X122164938Y-90564586D01*
X122164936Y-90564596D01*
X122144341Y-90799999D01*
X122144341Y-90800000D01*
X122164936Y-91035403D01*
X122164938Y-91035413D01*
X122226094Y-91263655D01*
X122226099Y-91263669D01*
X122247903Y-91310427D01*
X122258395Y-91379504D01*
X122229875Y-91443288D01*
X122201498Y-91467821D01*
X122198712Y-91469571D01*
X122197736Y-91470185D01*
X122070184Y-91597737D01*
X121974211Y-91750476D01*
X121914631Y-91920745D01*
X121914630Y-91920750D01*
X121894435Y-92099996D01*
X121894435Y-92100003D01*
X121914630Y-92279249D01*
X121914631Y-92279254D01*
X121974211Y-92449523D01*
X122070184Y-92602262D01*
X122202279Y-92734357D01*
X122235764Y-92795680D01*
X122230780Y-92865372D01*
X122226982Y-92874438D01*
X122226100Y-92876329D01*
X122226094Y-92876344D01*
X122164938Y-93104586D01*
X122164936Y-93104596D01*
X122144341Y-93339999D01*
X122144341Y-93340000D01*
X122164936Y-93575403D01*
X122164938Y-93575413D01*
X122226095Y-93803660D01*
X122233752Y-93820079D01*
X122244244Y-93889156D01*
X122215724Y-93952940D01*
X122198691Y-93969423D01*
X122197742Y-93970179D01*
X122070184Y-94097737D01*
X121974211Y-94250476D01*
X121914631Y-94420745D01*
X121914630Y-94420750D01*
X121894435Y-94599996D01*
X121894435Y-94600003D01*
X121914630Y-94779249D01*
X121914631Y-94779254D01*
X121974211Y-94949523D01*
X122070184Y-95102262D01*
X122197739Y-95229817D01*
X122203188Y-95234163D01*
X122201698Y-95236030D01*
X122240572Y-95279981D01*
X122251218Y-95349035D01*
X122240691Y-95385038D01*
X122226098Y-95416334D01*
X122226094Y-95416344D01*
X122164938Y-95644586D01*
X122164936Y-95644596D01*
X122144341Y-95879999D01*
X122144341Y-95880000D01*
X122164936Y-96115403D01*
X122164938Y-96115413D01*
X122227498Y-96348893D01*
X122225781Y-96349353D01*
X122229699Y-96411146D01*
X122196432Y-96471490D01*
X122070183Y-96597739D01*
X121974211Y-96750476D01*
X121914631Y-96920745D01*
X121914630Y-96920750D01*
X121894435Y-97099996D01*
X121894435Y-97100003D01*
X121914630Y-97279249D01*
X121914631Y-97279254D01*
X121974211Y-97449523D01*
X122070184Y-97602262D01*
X122197737Y-97729815D01*
X122197740Y-97729817D01*
X122208706Y-97736708D01*
X122254997Y-97789043D01*
X122265644Y-97858097D01*
X122255116Y-97894104D01*
X122226098Y-97956335D01*
X122226094Y-97956344D01*
X122164938Y-98184586D01*
X122164936Y-98184596D01*
X122144341Y-98419999D01*
X122144341Y-98420000D01*
X122164936Y-98655403D01*
X122164938Y-98655413D01*
X122226094Y-98883655D01*
X122226096Y-98883661D01*
X122226097Y-98883663D01*
X122226098Y-98883665D01*
X122240690Y-98914959D01*
X122251181Y-98984037D01*
X122222660Y-99047820D01*
X122202631Y-99065139D01*
X122203188Y-99065837D01*
X122197739Y-99070182D01*
X122070184Y-99197737D01*
X121974211Y-99350476D01*
X121914631Y-99520745D01*
X121914630Y-99520750D01*
X121894435Y-99699996D01*
X121894435Y-99700003D01*
X121914630Y-99879249D01*
X121914631Y-99879254D01*
X121974211Y-100049523D01*
X122004507Y-100097738D01*
X122070184Y-100202262D01*
X122197738Y-100329816D01*
X122197741Y-100329818D01*
X122198689Y-100330574D01*
X122199143Y-100331221D01*
X122202662Y-100334740D01*
X122202045Y-100335356D01*
X122238825Y-100387766D01*
X122241670Y-100457577D01*
X122233753Y-100479916D01*
X122226100Y-100496329D01*
X122226094Y-100496344D01*
X122164938Y-100724586D01*
X122164936Y-100724596D01*
X122144341Y-100959999D01*
X122144341Y-100960000D01*
X122164936Y-101195403D01*
X122164938Y-101195413D01*
X122226094Y-101423655D01*
X122226099Y-101423669D01*
X122226979Y-101425555D01*
X122227117Y-101426464D01*
X122227947Y-101428744D01*
X122227488Y-101428910D01*
X122237472Y-101494632D01*
X122208953Y-101558416D01*
X122202280Y-101565642D01*
X122070183Y-101697739D01*
X121974211Y-101850476D01*
X121914631Y-102020745D01*
X121914630Y-102020750D01*
X121894435Y-102199996D01*
X121894435Y-102200003D01*
X121914630Y-102379249D01*
X121914631Y-102379254D01*
X121974211Y-102549523D01*
X122070184Y-102702262D01*
X122197737Y-102829815D01*
X122197742Y-102829819D01*
X122201496Y-102832178D01*
X122247785Y-102884514D01*
X122258431Y-102953568D01*
X122247903Y-102989572D01*
X122226098Y-103036334D01*
X122226094Y-103036344D01*
X122164938Y-103264586D01*
X122164936Y-103264596D01*
X122144341Y-103499999D01*
X122144341Y-103500000D01*
X122164936Y-103735403D01*
X122164938Y-103735413D01*
X122226094Y-103963655D01*
X122226099Y-103963669D01*
X122247903Y-104010427D01*
X122258395Y-104079504D01*
X122229875Y-104143288D01*
X122201498Y-104167821D01*
X122199933Y-104168805D01*
X122197736Y-104170185D01*
X122070184Y-104297737D01*
X121974211Y-104450476D01*
X121914631Y-104620745D01*
X121914630Y-104620750D01*
X121894435Y-104799996D01*
X121894435Y-104800003D01*
X121914630Y-104979249D01*
X121914631Y-104979254D01*
X121974211Y-105149523D01*
X122070184Y-105302262D01*
X122202279Y-105434357D01*
X122235764Y-105495680D01*
X122230780Y-105565372D01*
X122226982Y-105574438D01*
X122226100Y-105576329D01*
X122226094Y-105576344D01*
X122164938Y-105804586D01*
X122164936Y-105804596D01*
X122144341Y-106039999D01*
X122144341Y-106040000D01*
X122164936Y-106275403D01*
X122164938Y-106275413D01*
X122226094Y-106503655D01*
X122226096Y-106503659D01*
X122226097Y-106503663D01*
X122294113Y-106649524D01*
X122325965Y-106717830D01*
X122325967Y-106717834D01*
X122461501Y-106911395D01*
X122461506Y-106911402D01*
X122628597Y-107078493D01*
X122628603Y-107078498D01*
X122814158Y-107208425D01*
X122857783Y-107263002D01*
X122864977Y-107332500D01*
X122833454Y-107394855D01*
X122814158Y-107411575D01*
X122628597Y-107541505D01*
X122461505Y-107708597D01*
X122325965Y-107902169D01*
X122325964Y-107902171D01*
X122226098Y-108116335D01*
X122226094Y-108116344D01*
X122164938Y-108344586D01*
X122164936Y-108344596D01*
X122144341Y-108579999D01*
X122144341Y-108580000D01*
X122164936Y-108815403D01*
X122164938Y-108815413D01*
X122226094Y-109043655D01*
X122226096Y-109043659D01*
X122226097Y-109043663D01*
X122293055Y-109187254D01*
X122325965Y-109257830D01*
X122325967Y-109257834D01*
X122461501Y-109451395D01*
X122461506Y-109451402D01*
X122628597Y-109618493D01*
X122628603Y-109618498D01*
X122707761Y-109673925D01*
X122751386Y-109728502D01*
X122758580Y-109798000D01*
X122727057Y-109860355D01*
X122666827Y-109895769D01*
X122636638Y-109899500D01*
X106583362Y-109899500D01*
X106516323Y-109879815D01*
X106470568Y-109827011D01*
X106460624Y-109757853D01*
X106489649Y-109694297D01*
X106512239Y-109673925D01*
X106527439Y-109663281D01*
X106591401Y-109618495D01*
X106758495Y-109451401D01*
X106894035Y-109257830D01*
X106993903Y-109043663D01*
X107055063Y-108815408D01*
X107075659Y-108580000D01*
X107055063Y-108344592D01*
X106993903Y-108116337D01*
X106894035Y-107902171D01*
X106880316Y-107882577D01*
X106758494Y-107708597D01*
X106591402Y-107541506D01*
X106591396Y-107541501D01*
X106405842Y-107411575D01*
X106362217Y-107356998D01*
X106355023Y-107287500D01*
X106386546Y-107225145D01*
X106405842Y-107208425D01*
X106442312Y-107182888D01*
X106591401Y-107078495D01*
X106758495Y-106911401D01*
X106894035Y-106717830D01*
X106993903Y-106503663D01*
X107055063Y-106275408D01*
X107075659Y-106040000D01*
X107055063Y-105804592D01*
X106993903Y-105576337D01*
X106894035Y-105362171D01*
X106870980Y-105329244D01*
X106758494Y-105168597D01*
X106591402Y-105001506D01*
X106591396Y-105001501D01*
X106405842Y-104871575D01*
X106362217Y-104816998D01*
X106355023Y-104747500D01*
X106386546Y-104685145D01*
X106405842Y-104668425D01*
X106502403Y-104600812D01*
X106591401Y-104538495D01*
X106758495Y-104371401D01*
X106894035Y-104177830D01*
X106993903Y-103963663D01*
X107055063Y-103735408D01*
X107075659Y-103500000D01*
X107055063Y-103264592D01*
X106993903Y-103036337D01*
X106894035Y-102822171D01*
X106870980Y-102789244D01*
X106758494Y-102628597D01*
X106591402Y-102461506D01*
X106591396Y-102461501D01*
X106405842Y-102331575D01*
X106362217Y-102276998D01*
X106355023Y-102207500D01*
X106386546Y-102145145D01*
X106405842Y-102128425D01*
X106476072Y-102079249D01*
X106591401Y-101998495D01*
X106758495Y-101831401D01*
X106894035Y-101637830D01*
X106993903Y-101423663D01*
X107055063Y-101195408D01*
X107075659Y-100960000D01*
X107055063Y-100724592D01*
X106993903Y-100496337D01*
X106894035Y-100282171D01*
X106877709Y-100258854D01*
X106758494Y-100088597D01*
X106591402Y-99921506D01*
X106591396Y-99921501D01*
X106405842Y-99791575D01*
X106362217Y-99736998D01*
X106355023Y-99667500D01*
X106386546Y-99605145D01*
X106405842Y-99588425D01*
X106428026Y-99572891D01*
X106591401Y-99458495D01*
X106758495Y-99291401D01*
X106894035Y-99097830D01*
X106993903Y-98883663D01*
X107055063Y-98655408D01*
X107075659Y-98420000D01*
X107055063Y-98184592D01*
X106993903Y-97956337D01*
X106894035Y-97742171D01*
X106885384Y-97729815D01*
X106758494Y-97548597D01*
X106591402Y-97381506D01*
X106591396Y-97381501D01*
X106405842Y-97251575D01*
X106362217Y-97196998D01*
X106355023Y-97127500D01*
X106386546Y-97065145D01*
X106405842Y-97048425D01*
X106583670Y-96923908D01*
X106591401Y-96918495D01*
X106758495Y-96751401D01*
X106894035Y-96557830D01*
X106993903Y-96343663D01*
X107055063Y-96115408D01*
X107075659Y-95880000D01*
X107055063Y-95644592D01*
X106993903Y-95416337D01*
X106894035Y-95202171D01*
X106870980Y-95169244D01*
X106758494Y-95008597D01*
X106591402Y-94841506D01*
X106591396Y-94841501D01*
X106405842Y-94711575D01*
X106362217Y-94656998D01*
X106355023Y-94587500D01*
X106386546Y-94525145D01*
X106405842Y-94508425D01*
X106466244Y-94466131D01*
X106591401Y-94378495D01*
X106758495Y-94211401D01*
X106894035Y-94017830D01*
X106993903Y-93803663D01*
X107055063Y-93575408D01*
X107075659Y-93340000D01*
X107055063Y-93104592D01*
X107008626Y-92931285D01*
X106993905Y-92876344D01*
X106993904Y-92876343D01*
X106993903Y-92876337D01*
X106894035Y-92662171D01*
X106887054Y-92652200D01*
X106758494Y-92468597D01*
X106591402Y-92301506D01*
X106591396Y-92301501D01*
X106405842Y-92171575D01*
X106362217Y-92116998D01*
X106355023Y-92047500D01*
X106386546Y-91985145D01*
X106405842Y-91968425D01*
X106506793Y-91897738D01*
X106591401Y-91838495D01*
X106758495Y-91671401D01*
X106894035Y-91477830D01*
X106993903Y-91263663D01*
X107055063Y-91035408D01*
X107075659Y-90800000D01*
X107055063Y-90564592D01*
X106993903Y-90336337D01*
X106894035Y-90122171D01*
X106870980Y-90089244D01*
X106758494Y-89928597D01*
X106591402Y-89761506D01*
X106591396Y-89761501D01*
X106405842Y-89631575D01*
X106362217Y-89576998D01*
X106355023Y-89507500D01*
X106386546Y-89445145D01*
X106405842Y-89428425D01*
X106518521Y-89349526D01*
X106591401Y-89298495D01*
X106758495Y-89131401D01*
X106894035Y-88937830D01*
X106993903Y-88723663D01*
X107055063Y-88495408D01*
X107075659Y-88260000D01*
X107055063Y-88024592D01*
X106999164Y-87815971D01*
X106993905Y-87796344D01*
X106993904Y-87796343D01*
X106993903Y-87796337D01*
X106894035Y-87582171D01*
X106891321Y-87578294D01*
X106758494Y-87388597D01*
X106591402Y-87221506D01*
X106591396Y-87221501D01*
X106405842Y-87091575D01*
X106362217Y-87036998D01*
X106355023Y-86967500D01*
X106386546Y-86905145D01*
X106405842Y-86888425D01*
X106461401Y-86849522D01*
X106591401Y-86758495D01*
X106758495Y-86591401D01*
X106894035Y-86397830D01*
X106993903Y-86183663D01*
X107055063Y-85955408D01*
X107075659Y-85720000D01*
X107075189Y-85714633D01*
X107055063Y-85484596D01*
X107055063Y-85484592D01*
X106993903Y-85256337D01*
X106894035Y-85042171D01*
X106870980Y-85009244D01*
X106758494Y-84848597D01*
X106591402Y-84681506D01*
X106591396Y-84681501D01*
X106405842Y-84551575D01*
X106362217Y-84496998D01*
X106355023Y-84427500D01*
X106386546Y-84365145D01*
X106405842Y-84348425D01*
X106475000Y-84300000D01*
X106591401Y-84218495D01*
X106758495Y-84051401D01*
X106894035Y-83857830D01*
X106993903Y-83643663D01*
X107055063Y-83415408D01*
X107075659Y-83180000D01*
X107055063Y-82944592D01*
X106993903Y-82716337D01*
X106894035Y-82502171D01*
X106870980Y-82469244D01*
X106758494Y-82308597D01*
X106591402Y-82141506D01*
X106591396Y-82141501D01*
X106405842Y-82011575D01*
X106362217Y-81956998D01*
X106355023Y-81887500D01*
X106386546Y-81825145D01*
X106405842Y-81808425D01*
X106509247Y-81736020D01*
X106591401Y-81678495D01*
X106758495Y-81511401D01*
X106894035Y-81317830D01*
X106993903Y-81103663D01*
X107055063Y-80875408D01*
X107075659Y-80640000D01*
X107055063Y-80404592D01*
X107008626Y-80231285D01*
X106993905Y-80176344D01*
X106993904Y-80176343D01*
X106993903Y-80176337D01*
X106894035Y-79962171D01*
X106880846Y-79943334D01*
X106758494Y-79768597D01*
X106591402Y-79601506D01*
X106591396Y-79601501D01*
X106405842Y-79471575D01*
X106362217Y-79416998D01*
X106355023Y-79347500D01*
X106386546Y-79285145D01*
X106405842Y-79268425D01*
X106506793Y-79197738D01*
X106591401Y-79138495D01*
X106758495Y-78971401D01*
X106894035Y-78777830D01*
X106993903Y-78563663D01*
X107055063Y-78335408D01*
X107075659Y-78100000D01*
X107055063Y-77864592D01*
X106993903Y-77636337D01*
X106894035Y-77422171D01*
X106873397Y-77392696D01*
X106758494Y-77228597D01*
X106591402Y-77061506D01*
X106591396Y-77061501D01*
X106405842Y-76931575D01*
X106362217Y-76876998D01*
X106355023Y-76807500D01*
X106386546Y-76745145D01*
X106405842Y-76728425D01*
X106428026Y-76712891D01*
X106591401Y-76598495D01*
X106758495Y-76431401D01*
X106894035Y-76237830D01*
X106993903Y-76023663D01*
X107055063Y-75795408D01*
X107075659Y-75560000D01*
X107055063Y-75324592D01*
X107008626Y-75151285D01*
X106993905Y-75096344D01*
X106993904Y-75096343D01*
X106993903Y-75096337D01*
X106894035Y-74882171D01*
X106880439Y-74862753D01*
X106758494Y-74688597D01*
X106591402Y-74521506D01*
X106591396Y-74521501D01*
X106405842Y-74391575D01*
X106362217Y-74336998D01*
X106355023Y-74267500D01*
X106386546Y-74205145D01*
X106405842Y-74188425D01*
X106452624Y-74155668D01*
X106591401Y-74058495D01*
X106758495Y-73891401D01*
X106894035Y-73697830D01*
X106993903Y-73483663D01*
X107055063Y-73255408D01*
X107075659Y-73020000D01*
X107055063Y-72784592D01*
X106993903Y-72556337D01*
X106894035Y-72342171D01*
X106891342Y-72338324D01*
X106758494Y-72148597D01*
X106591402Y-71981506D01*
X106591396Y-71981501D01*
X106405842Y-71851575D01*
X106362217Y-71796998D01*
X106355023Y-71727500D01*
X106386546Y-71665145D01*
X106405842Y-71648425D01*
X106569103Y-71534108D01*
X106591401Y-71518495D01*
X106758495Y-71351401D01*
X106894035Y-71157830D01*
X106993903Y-70943663D01*
X107055063Y-70715408D01*
X107075659Y-70480000D01*
X107055063Y-70244592D01*
X106993903Y-70016337D01*
X106894035Y-69802171D01*
X106870980Y-69769244D01*
X106758494Y-69608597D01*
X106591402Y-69441506D01*
X106591396Y-69441501D01*
X106405842Y-69311575D01*
X106362217Y-69256998D01*
X106355023Y-69187500D01*
X106386546Y-69125145D01*
X106405842Y-69108425D01*
X106428026Y-69092891D01*
X106591401Y-68978495D01*
X106758495Y-68811401D01*
X106894035Y-68617830D01*
X106993903Y-68403663D01*
X107055063Y-68175408D01*
X107075659Y-67940000D01*
X107055063Y-67704592D01*
X106993903Y-67476337D01*
X106894035Y-67262171D01*
X106870980Y-67229244D01*
X106758494Y-67068597D01*
X106591402Y-66901506D01*
X106591396Y-66901501D01*
X106405842Y-66771575D01*
X106362217Y-66716998D01*
X106355023Y-66647500D01*
X106386546Y-66585145D01*
X106405842Y-66568425D01*
X106428026Y-66552891D01*
X106591401Y-66438495D01*
X106758495Y-66271401D01*
X106894035Y-66077830D01*
X106993903Y-65863663D01*
X107055063Y-65635408D01*
X107075659Y-65400000D01*
X107055063Y-65164592D01*
X106993903Y-64936337D01*
X106894035Y-64722171D01*
X106870980Y-64689244D01*
X106758494Y-64528597D01*
X106591402Y-64361506D01*
X106591396Y-64361501D01*
X106405842Y-64231575D01*
X106362217Y-64176998D01*
X106355023Y-64107500D01*
X106386546Y-64045145D01*
X106405842Y-64028425D01*
X106428026Y-64012891D01*
X106591401Y-63898495D01*
X106758495Y-63731401D01*
X106894035Y-63537830D01*
X106993903Y-63323663D01*
X107055063Y-63095408D01*
X107075659Y-62860000D01*
X107055063Y-62624592D01*
X106993903Y-62396337D01*
X106894035Y-62182171D01*
X106870979Y-62149244D01*
X106758496Y-61988600D01*
X106758495Y-61988599D01*
X106636567Y-61866671D01*
X106603084Y-61805351D01*
X106608068Y-61735659D01*
X106649939Y-61679725D01*
X106680915Y-61662810D01*
X106812331Y-61613796D01*
X106927546Y-61527546D01*
X107013796Y-61412331D01*
X107064091Y-61277483D01*
X107070500Y-61217873D01*
X107070499Y-59422128D01*
X107064091Y-59362517D01*
X107013796Y-59227669D01*
X107013795Y-59227668D01*
X107013793Y-59227664D01*
X106927547Y-59112455D01*
X106927273Y-59112181D01*
X106927087Y-59111840D01*
X106922232Y-59105355D01*
X106923164Y-59104656D01*
X106893788Y-59050858D01*
X106898772Y-58981166D01*
X106940644Y-58925233D01*
X107006108Y-58900816D01*
X107014954Y-58900500D01*
X122205046Y-58900500D01*
X122272085Y-58920185D01*
G37*
%TD.AperFunction*%
%TA.AperFunction,NonConductor*%
G36*
X104505703Y-109197042D02*
G01*
X104536880Y-109238349D01*
X104545965Y-109257830D01*
X104545966Y-109257831D01*
X104545967Y-109257834D01*
X104681501Y-109451395D01*
X104681506Y-109451402D01*
X104848597Y-109618493D01*
X104848603Y-109618498D01*
X104927761Y-109673925D01*
X104971386Y-109728502D01*
X104978580Y-109798000D01*
X104947057Y-109860355D01*
X104886827Y-109895769D01*
X104856638Y-109899500D01*
X104424500Y-109899500D01*
X104357461Y-109879815D01*
X104311706Y-109827011D01*
X104300500Y-109775500D01*
X104300500Y-109290755D01*
X104320185Y-109223716D01*
X104372989Y-109177961D01*
X104442147Y-109168017D01*
X104505703Y-109197042D01*
G37*
%TD.AperFunction*%
M02*
