%TF.GenerationSoftware,KiCad,Pcbnew,8.0.3*%
%TF.CreationDate,2024-08-10T21:36:20-07:00*%
%TF.ProjectId,v2,76322e6b-6963-4616-945f-706362585858,rev?*%
%TF.SameCoordinates,Original*%
%TF.FileFunction,Legend,Top*%
%TF.FilePolarity,Positive*%
%FSLAX46Y46*%
G04 Gerber Fmt 4.6, Leading zero omitted, Abs format (unit mm)*
G04 Created by KiCad (PCBNEW 8.0.3) date 2024-08-10 21:36:20*
%MOMM*%
%LPD*%
G01*
G04 APERTURE LIST*
%ADD10C,0.150000*%
%ADD11C,0.212500*%
%ADD12C,0.250000*%
%ADD13C,0.350000*%
%ADD14C,0.120000*%
%ADD15C,0.127000*%
%ADD16C,0.200000*%
%ADD17C,0.152400*%
%ADD18C,0.100000*%
%ADD19C,0.000000*%
G04 APERTURE END LIST*
D10*
X128289160Y-94789533D02*
X128898684Y-94789533D01*
X128593922Y-95094295D02*
X128593922Y-94484771D01*
X129241540Y-94370485D02*
X129279636Y-94332390D01*
X129279636Y-94332390D02*
X129355826Y-94294295D01*
X129355826Y-94294295D02*
X129546302Y-94294295D01*
X129546302Y-94294295D02*
X129622493Y-94332390D01*
X129622493Y-94332390D02*
X129660588Y-94370485D01*
X129660588Y-94370485D02*
X129698683Y-94446676D01*
X129698683Y-94446676D02*
X129698683Y-94522866D01*
X129698683Y-94522866D02*
X129660588Y-94637152D01*
X129660588Y-94637152D02*
X129203445Y-95094295D01*
X129203445Y-95094295D02*
X129698683Y-95094295D01*
X129927255Y-94294295D02*
X130193922Y-95094295D01*
X130193922Y-95094295D02*
X130460588Y-94294295D01*
X131108207Y-94294295D02*
X130727255Y-94294295D01*
X130727255Y-94294295D02*
X130689159Y-94675247D01*
X130689159Y-94675247D02*
X130727255Y-94637152D01*
X130727255Y-94637152D02*
X130803445Y-94599057D01*
X130803445Y-94599057D02*
X130993921Y-94599057D01*
X130993921Y-94599057D02*
X131070112Y-94637152D01*
X131070112Y-94637152D02*
X131108207Y-94675247D01*
X131108207Y-94675247D02*
X131146302Y-94751438D01*
X131146302Y-94751438D02*
X131146302Y-94941914D01*
X131146302Y-94941914D02*
X131108207Y-95018104D01*
X131108207Y-95018104D02*
X131070112Y-95056200D01*
X131070112Y-95056200D02*
X130993921Y-95094295D01*
X130993921Y-95094295D02*
X130803445Y-95094295D01*
X130803445Y-95094295D02*
X130727255Y-95056200D01*
X130727255Y-95056200D02*
X130689159Y-95018104D01*
X128289160Y-99189533D02*
X128898684Y-99189533D01*
X129241540Y-98770485D02*
X129279636Y-98732390D01*
X129279636Y-98732390D02*
X129355826Y-98694295D01*
X129355826Y-98694295D02*
X129546302Y-98694295D01*
X129546302Y-98694295D02*
X129622493Y-98732390D01*
X129622493Y-98732390D02*
X129660588Y-98770485D01*
X129660588Y-98770485D02*
X129698683Y-98846676D01*
X129698683Y-98846676D02*
X129698683Y-98922866D01*
X129698683Y-98922866D02*
X129660588Y-99037152D01*
X129660588Y-99037152D02*
X129203445Y-99494295D01*
X129203445Y-99494295D02*
X129698683Y-99494295D01*
X129927255Y-98694295D02*
X130193922Y-99494295D01*
X130193922Y-99494295D02*
X130460588Y-98694295D01*
X131108207Y-98694295D02*
X130727255Y-98694295D01*
X130727255Y-98694295D02*
X130689159Y-99075247D01*
X130689159Y-99075247D02*
X130727255Y-99037152D01*
X130727255Y-99037152D02*
X130803445Y-98999057D01*
X130803445Y-98999057D02*
X130993921Y-98999057D01*
X130993921Y-98999057D02*
X131070112Y-99037152D01*
X131070112Y-99037152D02*
X131108207Y-99075247D01*
X131108207Y-99075247D02*
X131146302Y-99151438D01*
X131146302Y-99151438D02*
X131146302Y-99341914D01*
X131146302Y-99341914D02*
X131108207Y-99418104D01*
X131108207Y-99418104D02*
X131070112Y-99456200D01*
X131070112Y-99456200D02*
X130993921Y-99494295D01*
X130993921Y-99494295D02*
X130803445Y-99494295D01*
X130803445Y-99494295D02*
X130727255Y-99456200D01*
X130727255Y-99456200D02*
X130689159Y-99418104D01*
X128489160Y-83789533D02*
X129098684Y-83789533D01*
X128793922Y-84094295D02*
X128793922Y-83484771D01*
X129403445Y-83294295D02*
X129898683Y-83294295D01*
X129898683Y-83294295D02*
X129632017Y-83599057D01*
X129632017Y-83599057D02*
X129746302Y-83599057D01*
X129746302Y-83599057D02*
X129822493Y-83637152D01*
X129822493Y-83637152D02*
X129860588Y-83675247D01*
X129860588Y-83675247D02*
X129898683Y-83751438D01*
X129898683Y-83751438D02*
X129898683Y-83941914D01*
X129898683Y-83941914D02*
X129860588Y-84018104D01*
X129860588Y-84018104D02*
X129822493Y-84056200D01*
X129822493Y-84056200D02*
X129746302Y-84094295D01*
X129746302Y-84094295D02*
X129517731Y-84094295D01*
X129517731Y-84094295D02*
X129441540Y-84056200D01*
X129441540Y-84056200D02*
X129403445Y-84018104D01*
X130127255Y-83294295D02*
X130393922Y-84094295D01*
X130393922Y-84094295D02*
X130660588Y-83294295D01*
X130851064Y-83294295D02*
X131346302Y-83294295D01*
X131346302Y-83294295D02*
X131079636Y-83599057D01*
X131079636Y-83599057D02*
X131193921Y-83599057D01*
X131193921Y-83599057D02*
X131270112Y-83637152D01*
X131270112Y-83637152D02*
X131308207Y-83675247D01*
X131308207Y-83675247D02*
X131346302Y-83751438D01*
X131346302Y-83751438D02*
X131346302Y-83941914D01*
X131346302Y-83941914D02*
X131308207Y-84018104D01*
X131308207Y-84018104D02*
X131270112Y-84056200D01*
X131270112Y-84056200D02*
X131193921Y-84094295D01*
X131193921Y-84094295D02*
X130965350Y-84094295D01*
X130965350Y-84094295D02*
X130889159Y-84056200D01*
X130889159Y-84056200D02*
X130851064Y-84018104D01*
X139989160Y-73389533D02*
X140598684Y-73389533D01*
X140293922Y-73694295D02*
X140293922Y-73084771D01*
X141360588Y-72894295D02*
X140979636Y-72894295D01*
X140979636Y-72894295D02*
X140941540Y-73275247D01*
X140941540Y-73275247D02*
X140979636Y-73237152D01*
X140979636Y-73237152D02*
X141055826Y-73199057D01*
X141055826Y-73199057D02*
X141246302Y-73199057D01*
X141246302Y-73199057D02*
X141322493Y-73237152D01*
X141322493Y-73237152D02*
X141360588Y-73275247D01*
X141360588Y-73275247D02*
X141398683Y-73351438D01*
X141398683Y-73351438D02*
X141398683Y-73541914D01*
X141398683Y-73541914D02*
X141360588Y-73618104D01*
X141360588Y-73618104D02*
X141322493Y-73656200D01*
X141322493Y-73656200D02*
X141246302Y-73694295D01*
X141246302Y-73694295D02*
X141055826Y-73694295D01*
X141055826Y-73694295D02*
X140979636Y-73656200D01*
X140979636Y-73656200D02*
X140941540Y-73618104D01*
X141627255Y-72894295D02*
X141893922Y-73694295D01*
X141893922Y-73694295D02*
X142160588Y-72894295D01*
X108846303Y-107794295D02*
X108579636Y-107413342D01*
X108389160Y-107794295D02*
X108389160Y-106994295D01*
X108389160Y-106994295D02*
X108693922Y-106994295D01*
X108693922Y-106994295D02*
X108770112Y-107032390D01*
X108770112Y-107032390D02*
X108808207Y-107070485D01*
X108808207Y-107070485D02*
X108846303Y-107146676D01*
X108846303Y-107146676D02*
X108846303Y-107260961D01*
X108846303Y-107260961D02*
X108808207Y-107337152D01*
X108808207Y-107337152D02*
X108770112Y-107375247D01*
X108770112Y-107375247D02*
X108693922Y-107413342D01*
X108693922Y-107413342D02*
X108389160Y-107413342D01*
X109189160Y-107794295D02*
X109189160Y-106994295D01*
X109532016Y-107756200D02*
X109646302Y-107794295D01*
X109646302Y-107794295D02*
X109836778Y-107794295D01*
X109836778Y-107794295D02*
X109912969Y-107756200D01*
X109912969Y-107756200D02*
X109951064Y-107718104D01*
X109951064Y-107718104D02*
X109989159Y-107641914D01*
X109989159Y-107641914D02*
X109989159Y-107565723D01*
X109989159Y-107565723D02*
X109951064Y-107489533D01*
X109951064Y-107489533D02*
X109912969Y-107451438D01*
X109912969Y-107451438D02*
X109836778Y-107413342D01*
X109836778Y-107413342D02*
X109684397Y-107375247D01*
X109684397Y-107375247D02*
X109608207Y-107337152D01*
X109608207Y-107337152D02*
X109570112Y-107299057D01*
X109570112Y-107299057D02*
X109532016Y-107222866D01*
X109532016Y-107222866D02*
X109532016Y-107146676D01*
X109532016Y-107146676D02*
X109570112Y-107070485D01*
X109570112Y-107070485D02*
X109608207Y-107032390D01*
X109608207Y-107032390D02*
X109684397Y-106994295D01*
X109684397Y-106994295D02*
X109874874Y-106994295D01*
X109874874Y-106994295D02*
X109989159Y-107032390D01*
X110332017Y-107794295D02*
X110332017Y-106994295D01*
X110789160Y-107794295D02*
X110446302Y-107337152D01*
X110789160Y-106994295D02*
X110332017Y-107451438D01*
X111741541Y-107375247D02*
X112008207Y-107375247D01*
X112122493Y-107794295D02*
X111741541Y-107794295D01*
X111741541Y-107794295D02*
X111741541Y-106994295D01*
X111741541Y-106994295D02*
X112122493Y-106994295D01*
X112846303Y-107794295D02*
X112465351Y-107794295D01*
X112465351Y-107794295D02*
X112465351Y-106994295D01*
X113112970Y-107375247D02*
X113379636Y-107375247D01*
X113493922Y-107794295D02*
X113112970Y-107794295D01*
X113112970Y-107794295D02*
X113112970Y-106994295D01*
X113112970Y-106994295D02*
X113493922Y-106994295D01*
X114293923Y-107718104D02*
X114255827Y-107756200D01*
X114255827Y-107756200D02*
X114141542Y-107794295D01*
X114141542Y-107794295D02*
X114065351Y-107794295D01*
X114065351Y-107794295D02*
X113951065Y-107756200D01*
X113951065Y-107756200D02*
X113874875Y-107680009D01*
X113874875Y-107680009D02*
X113836780Y-107603819D01*
X113836780Y-107603819D02*
X113798684Y-107451438D01*
X113798684Y-107451438D02*
X113798684Y-107337152D01*
X113798684Y-107337152D02*
X113836780Y-107184771D01*
X113836780Y-107184771D02*
X113874875Y-107108580D01*
X113874875Y-107108580D02*
X113951065Y-107032390D01*
X113951065Y-107032390D02*
X114065351Y-106994295D01*
X114065351Y-106994295D02*
X114141542Y-106994295D01*
X114141542Y-106994295D02*
X114255827Y-107032390D01*
X114255827Y-107032390D02*
X114293923Y-107070485D01*
X114522494Y-106994295D02*
X114979637Y-106994295D01*
X114751065Y-107794295D02*
X114751065Y-106994295D01*
X115703447Y-107794295D02*
X115436780Y-107413342D01*
X115246304Y-107794295D02*
X115246304Y-106994295D01*
X115246304Y-106994295D02*
X115551066Y-106994295D01*
X115551066Y-106994295D02*
X115627256Y-107032390D01*
X115627256Y-107032390D02*
X115665351Y-107070485D01*
X115665351Y-107070485D02*
X115703447Y-107146676D01*
X115703447Y-107146676D02*
X115703447Y-107260961D01*
X115703447Y-107260961D02*
X115665351Y-107337152D01*
X115665351Y-107337152D02*
X115627256Y-107375247D01*
X115627256Y-107375247D02*
X115551066Y-107413342D01*
X115551066Y-107413342D02*
X115246304Y-107413342D01*
X116198685Y-106994295D02*
X116351066Y-106994295D01*
X116351066Y-106994295D02*
X116427256Y-107032390D01*
X116427256Y-107032390D02*
X116503447Y-107108580D01*
X116503447Y-107108580D02*
X116541542Y-107260961D01*
X116541542Y-107260961D02*
X116541542Y-107527628D01*
X116541542Y-107527628D02*
X116503447Y-107680009D01*
X116503447Y-107680009D02*
X116427256Y-107756200D01*
X116427256Y-107756200D02*
X116351066Y-107794295D01*
X116351066Y-107794295D02*
X116198685Y-107794295D01*
X116198685Y-107794295D02*
X116122494Y-107756200D01*
X116122494Y-107756200D02*
X116046304Y-107680009D01*
X116046304Y-107680009D02*
X116008208Y-107527628D01*
X116008208Y-107527628D02*
X116008208Y-107260961D01*
X116008208Y-107260961D02*
X116046304Y-107108580D01*
X116046304Y-107108580D02*
X116122494Y-107032390D01*
X116122494Y-107032390D02*
X116198685Y-106994295D01*
X117341542Y-107718104D02*
X117303446Y-107756200D01*
X117303446Y-107756200D02*
X117189161Y-107794295D01*
X117189161Y-107794295D02*
X117112970Y-107794295D01*
X117112970Y-107794295D02*
X116998684Y-107756200D01*
X116998684Y-107756200D02*
X116922494Y-107680009D01*
X116922494Y-107680009D02*
X116884399Y-107603819D01*
X116884399Y-107603819D02*
X116846303Y-107451438D01*
X116846303Y-107451438D02*
X116846303Y-107337152D01*
X116846303Y-107337152D02*
X116884399Y-107184771D01*
X116884399Y-107184771D02*
X116922494Y-107108580D01*
X116922494Y-107108580D02*
X116998684Y-107032390D01*
X116998684Y-107032390D02*
X117112970Y-106994295D01*
X117112970Y-106994295D02*
X117189161Y-106994295D01*
X117189161Y-106994295D02*
X117303446Y-107032390D01*
X117303446Y-107032390D02*
X117341542Y-107070485D01*
X117684399Y-106994295D02*
X117684399Y-107641914D01*
X117684399Y-107641914D02*
X117722494Y-107718104D01*
X117722494Y-107718104D02*
X117760589Y-107756200D01*
X117760589Y-107756200D02*
X117836780Y-107794295D01*
X117836780Y-107794295D02*
X117989161Y-107794295D01*
X117989161Y-107794295D02*
X118065351Y-107756200D01*
X118065351Y-107756200D02*
X118103446Y-107718104D01*
X118103446Y-107718104D02*
X118141542Y-107641914D01*
X118141542Y-107641914D02*
X118141542Y-106994295D01*
X118408208Y-106994295D02*
X118865351Y-106994295D01*
X118636779Y-107794295D02*
X118636779Y-106994295D01*
X119132018Y-107794295D02*
X119132018Y-106994295D01*
X119665351Y-106994295D02*
X119817732Y-106994295D01*
X119817732Y-106994295D02*
X119893922Y-107032390D01*
X119893922Y-107032390D02*
X119970113Y-107108580D01*
X119970113Y-107108580D02*
X120008208Y-107260961D01*
X120008208Y-107260961D02*
X120008208Y-107527628D01*
X120008208Y-107527628D02*
X119970113Y-107680009D01*
X119970113Y-107680009D02*
X119893922Y-107756200D01*
X119893922Y-107756200D02*
X119817732Y-107794295D01*
X119817732Y-107794295D02*
X119665351Y-107794295D01*
X119665351Y-107794295D02*
X119589160Y-107756200D01*
X119589160Y-107756200D02*
X119512970Y-107680009D01*
X119512970Y-107680009D02*
X119474874Y-107527628D01*
X119474874Y-107527628D02*
X119474874Y-107260961D01*
X119474874Y-107260961D02*
X119512970Y-107108580D01*
X119512970Y-107108580D02*
X119589160Y-107032390D01*
X119589160Y-107032390D02*
X119665351Y-106994295D01*
X120351065Y-107794295D02*
X120351065Y-106994295D01*
X120351065Y-106994295D02*
X120808208Y-107794295D01*
X120808208Y-107794295D02*
X120808208Y-106994295D01*
X108155826Y-106175247D02*
X108270112Y-106213342D01*
X108270112Y-106213342D02*
X108308207Y-106251438D01*
X108308207Y-106251438D02*
X108346303Y-106327628D01*
X108346303Y-106327628D02*
X108346303Y-106441914D01*
X108346303Y-106441914D02*
X108308207Y-106518104D01*
X108308207Y-106518104D02*
X108270112Y-106556200D01*
X108270112Y-106556200D02*
X108193922Y-106594295D01*
X108193922Y-106594295D02*
X107889160Y-106594295D01*
X107889160Y-106594295D02*
X107889160Y-105794295D01*
X107889160Y-105794295D02*
X108155826Y-105794295D01*
X108155826Y-105794295D02*
X108232017Y-105832390D01*
X108232017Y-105832390D02*
X108270112Y-105870485D01*
X108270112Y-105870485D02*
X108308207Y-105946676D01*
X108308207Y-105946676D02*
X108308207Y-106022866D01*
X108308207Y-106022866D02*
X108270112Y-106099057D01*
X108270112Y-106099057D02*
X108232017Y-106137152D01*
X108232017Y-106137152D02*
X108155826Y-106175247D01*
X108155826Y-106175247D02*
X107889160Y-106175247D01*
X108651064Y-106365723D02*
X109032017Y-106365723D01*
X108574874Y-106594295D02*
X108841541Y-105794295D01*
X108841541Y-105794295D02*
X109108207Y-106594295D01*
X109260588Y-105794295D02*
X109717731Y-105794295D01*
X109489159Y-106594295D02*
X109489159Y-105794295D01*
X109870112Y-105794295D02*
X110327255Y-105794295D01*
X110098683Y-106594295D02*
X110098683Y-105794295D01*
X110593922Y-106175247D02*
X110860588Y-106175247D01*
X110974874Y-106594295D02*
X110593922Y-106594295D01*
X110593922Y-106594295D02*
X110593922Y-105794295D01*
X110593922Y-105794295D02*
X110974874Y-105794295D01*
X111774875Y-106594295D02*
X111508208Y-106213342D01*
X111317732Y-106594295D02*
X111317732Y-105794295D01*
X111317732Y-105794295D02*
X111622494Y-105794295D01*
X111622494Y-105794295D02*
X111698684Y-105832390D01*
X111698684Y-105832390D02*
X111736779Y-105870485D01*
X111736779Y-105870485D02*
X111774875Y-105946676D01*
X111774875Y-105946676D02*
X111774875Y-106060961D01*
X111774875Y-106060961D02*
X111736779Y-106137152D01*
X111736779Y-106137152D02*
X111698684Y-106175247D01*
X111698684Y-106175247D02*
X111622494Y-106213342D01*
X111622494Y-106213342D02*
X111317732Y-106213342D01*
X112270113Y-106213342D02*
X112270113Y-106594295D01*
X112003446Y-105794295D02*
X112270113Y-106213342D01*
X112270113Y-106213342D02*
X112536779Y-105794295D01*
X113412970Y-105794295D02*
X113412970Y-106441914D01*
X113412970Y-106441914D02*
X113451065Y-106518104D01*
X113451065Y-106518104D02*
X113489160Y-106556200D01*
X113489160Y-106556200D02*
X113565351Y-106594295D01*
X113565351Y-106594295D02*
X113717732Y-106594295D01*
X113717732Y-106594295D02*
X113793922Y-106556200D01*
X113793922Y-106556200D02*
X113832017Y-106518104D01*
X113832017Y-106518104D02*
X113870113Y-106441914D01*
X113870113Y-106441914D02*
X113870113Y-105794295D01*
X114212969Y-106556200D02*
X114327255Y-106594295D01*
X114327255Y-106594295D02*
X114517731Y-106594295D01*
X114517731Y-106594295D02*
X114593922Y-106556200D01*
X114593922Y-106556200D02*
X114632017Y-106518104D01*
X114632017Y-106518104D02*
X114670112Y-106441914D01*
X114670112Y-106441914D02*
X114670112Y-106365723D01*
X114670112Y-106365723D02*
X114632017Y-106289533D01*
X114632017Y-106289533D02*
X114593922Y-106251438D01*
X114593922Y-106251438D02*
X114517731Y-106213342D01*
X114517731Y-106213342D02*
X114365350Y-106175247D01*
X114365350Y-106175247D02*
X114289160Y-106137152D01*
X114289160Y-106137152D02*
X114251065Y-106099057D01*
X114251065Y-106099057D02*
X114212969Y-106022866D01*
X114212969Y-106022866D02*
X114212969Y-105946676D01*
X114212969Y-105946676D02*
X114251065Y-105870485D01*
X114251065Y-105870485D02*
X114289160Y-105832390D01*
X114289160Y-105832390D02*
X114365350Y-105794295D01*
X114365350Y-105794295D02*
X114555827Y-105794295D01*
X114555827Y-105794295D02*
X114670112Y-105832390D01*
X115012970Y-106175247D02*
X115279636Y-106175247D01*
X115393922Y-106594295D02*
X115012970Y-106594295D01*
X115012970Y-106594295D02*
X115012970Y-105794295D01*
X115012970Y-105794295D02*
X115393922Y-105794295D01*
X116498685Y-105794295D02*
X116651066Y-105794295D01*
X116651066Y-105794295D02*
X116727256Y-105832390D01*
X116727256Y-105832390D02*
X116803447Y-105908580D01*
X116803447Y-105908580D02*
X116841542Y-106060961D01*
X116841542Y-106060961D02*
X116841542Y-106327628D01*
X116841542Y-106327628D02*
X116803447Y-106480009D01*
X116803447Y-106480009D02*
X116727256Y-106556200D01*
X116727256Y-106556200D02*
X116651066Y-106594295D01*
X116651066Y-106594295D02*
X116498685Y-106594295D01*
X116498685Y-106594295D02*
X116422494Y-106556200D01*
X116422494Y-106556200D02*
X116346304Y-106480009D01*
X116346304Y-106480009D02*
X116308208Y-106327628D01*
X116308208Y-106327628D02*
X116308208Y-106060961D01*
X116308208Y-106060961D02*
X116346304Y-105908580D01*
X116346304Y-105908580D02*
X116422494Y-105832390D01*
X116422494Y-105832390D02*
X116498685Y-105794295D01*
X117184399Y-106594295D02*
X117184399Y-105794295D01*
X117184399Y-105794295D02*
X117641542Y-106594295D01*
X117641542Y-106594295D02*
X117641542Y-105794295D01*
X118403446Y-106594295D02*
X118022494Y-106594295D01*
X118022494Y-106594295D02*
X118022494Y-105794295D01*
X118822494Y-106213342D02*
X118822494Y-106594295D01*
X118555827Y-105794295D02*
X118822494Y-106213342D01*
X118822494Y-106213342D02*
X119089160Y-105794295D01*
X120117732Y-105794295D02*
X120270113Y-105794295D01*
X120270113Y-105794295D02*
X120346303Y-105832390D01*
X120346303Y-105832390D02*
X120422494Y-105908580D01*
X120422494Y-105908580D02*
X120460589Y-106060961D01*
X120460589Y-106060961D02*
X120460589Y-106327628D01*
X120460589Y-106327628D02*
X120422494Y-106480009D01*
X120422494Y-106480009D02*
X120346303Y-106556200D01*
X120346303Y-106556200D02*
X120270113Y-106594295D01*
X120270113Y-106594295D02*
X120117732Y-106594295D01*
X120117732Y-106594295D02*
X120041541Y-106556200D01*
X120041541Y-106556200D02*
X119965351Y-106480009D01*
X119965351Y-106480009D02*
X119927255Y-106327628D01*
X119927255Y-106327628D02*
X119927255Y-106060961D01*
X119927255Y-106060961D02*
X119965351Y-105908580D01*
X119965351Y-105908580D02*
X120041541Y-105832390D01*
X120041541Y-105832390D02*
X120117732Y-105794295D01*
X121260589Y-106594295D02*
X120993922Y-106213342D01*
X120803446Y-106594295D02*
X120803446Y-105794295D01*
X120803446Y-105794295D02*
X121108208Y-105794295D01*
X121108208Y-105794295D02*
X121184398Y-105832390D01*
X121184398Y-105832390D02*
X121222493Y-105870485D01*
X121222493Y-105870485D02*
X121260589Y-105946676D01*
X121260589Y-105946676D02*
X121260589Y-106060961D01*
X121260589Y-106060961D02*
X121222493Y-106137152D01*
X121222493Y-106137152D02*
X121184398Y-106175247D01*
X121184398Y-106175247D02*
X121108208Y-106213342D01*
X121108208Y-106213342D02*
X120803446Y-106213342D01*
D11*
X107442182Y-104784927D02*
X107442182Y-103934927D01*
X107442182Y-103934927D02*
X107927897Y-104784927D01*
X107927897Y-104784927D02*
X107927897Y-103934927D01*
X108494563Y-103934927D02*
X108656468Y-103934927D01*
X108656468Y-103934927D02*
X108737420Y-103975403D01*
X108737420Y-103975403D02*
X108818373Y-104056355D01*
X108818373Y-104056355D02*
X108858849Y-104218260D01*
X108858849Y-104218260D02*
X108858849Y-104501593D01*
X108858849Y-104501593D02*
X108818373Y-104663498D01*
X108818373Y-104663498D02*
X108737420Y-104744451D01*
X108737420Y-104744451D02*
X108656468Y-104784927D01*
X108656468Y-104784927D02*
X108494563Y-104784927D01*
X108494563Y-104784927D02*
X108413611Y-104744451D01*
X108413611Y-104744451D02*
X108332658Y-104663498D01*
X108332658Y-104663498D02*
X108292182Y-104501593D01*
X108292182Y-104501593D02*
X108292182Y-104218260D01*
X108292182Y-104218260D02*
X108332658Y-104056355D01*
X108332658Y-104056355D02*
X108413611Y-103975403D01*
X108413611Y-103975403D02*
X108494563Y-103934927D01*
X109101706Y-103934927D02*
X109587420Y-103934927D01*
X109344563Y-104784927D02*
X109344563Y-103934927D01*
X110477896Y-104542070D02*
X110882658Y-104542070D01*
X110396944Y-104784927D02*
X110680277Y-103934927D01*
X110680277Y-103934927D02*
X110963611Y-104784927D01*
X111894562Y-104784927D02*
X111894562Y-103934927D01*
X111894562Y-103934927D02*
X112177896Y-104542070D01*
X112177896Y-104542070D02*
X112461229Y-103934927D01*
X112461229Y-103934927D02*
X112461229Y-104784927D01*
X112865991Y-104339689D02*
X113149325Y-104339689D01*
X113270753Y-104784927D02*
X112865991Y-104784927D01*
X112865991Y-104784927D02*
X112865991Y-103934927D01*
X112865991Y-103934927D02*
X113270753Y-103934927D01*
X113635039Y-104784927D02*
X113635039Y-103934927D01*
X113635039Y-103934927D02*
X113837420Y-103934927D01*
X113837420Y-103934927D02*
X113958849Y-103975403D01*
X113958849Y-103975403D02*
X114039801Y-104056355D01*
X114039801Y-104056355D02*
X114080278Y-104137308D01*
X114080278Y-104137308D02*
X114120754Y-104299212D01*
X114120754Y-104299212D02*
X114120754Y-104420641D01*
X114120754Y-104420641D02*
X114080278Y-104582546D01*
X114080278Y-104582546D02*
X114039801Y-104663498D01*
X114039801Y-104663498D02*
X113958849Y-104744451D01*
X113958849Y-104744451D02*
X113837420Y-104784927D01*
X113837420Y-104784927D02*
X113635039Y-104784927D01*
X114485039Y-104784927D02*
X114485039Y-103934927D01*
X115375516Y-104703974D02*
X115335040Y-104744451D01*
X115335040Y-104744451D02*
X115213611Y-104784927D01*
X115213611Y-104784927D02*
X115132659Y-104784927D01*
X115132659Y-104784927D02*
X115011230Y-104744451D01*
X115011230Y-104744451D02*
X114930278Y-104663498D01*
X114930278Y-104663498D02*
X114889801Y-104582546D01*
X114889801Y-104582546D02*
X114849325Y-104420641D01*
X114849325Y-104420641D02*
X114849325Y-104299212D01*
X114849325Y-104299212D02*
X114889801Y-104137308D01*
X114889801Y-104137308D02*
X114930278Y-104056355D01*
X114930278Y-104056355D02*
X115011230Y-103975403D01*
X115011230Y-103975403D02*
X115132659Y-103934927D01*
X115132659Y-103934927D02*
X115213611Y-103934927D01*
X115213611Y-103934927D02*
X115335040Y-103975403D01*
X115335040Y-103975403D02*
X115375516Y-104015879D01*
X115699325Y-104542070D02*
X116104087Y-104542070D01*
X115618373Y-104784927D02*
X115901706Y-103934927D01*
X115901706Y-103934927D02*
X116185040Y-104784927D01*
X116873134Y-104784927D02*
X116468372Y-104784927D01*
X116468372Y-104784927D02*
X116468372Y-103934927D01*
X117804086Y-104784927D02*
X117804086Y-103934927D01*
X117804086Y-103934927D02*
X118006467Y-103934927D01*
X118006467Y-103934927D02*
X118127896Y-103975403D01*
X118127896Y-103975403D02*
X118208848Y-104056355D01*
X118208848Y-104056355D02*
X118249325Y-104137308D01*
X118249325Y-104137308D02*
X118289801Y-104299212D01*
X118289801Y-104299212D02*
X118289801Y-104420641D01*
X118289801Y-104420641D02*
X118249325Y-104582546D01*
X118249325Y-104582546D02*
X118208848Y-104663498D01*
X118208848Y-104663498D02*
X118127896Y-104744451D01*
X118127896Y-104744451D02*
X118006467Y-104784927D01*
X118006467Y-104784927D02*
X117804086Y-104784927D01*
X118654086Y-104339689D02*
X118937420Y-104339689D01*
X119058848Y-104784927D02*
X118654086Y-104784927D01*
X118654086Y-104784927D02*
X118654086Y-103934927D01*
X118654086Y-103934927D02*
X119058848Y-103934927D01*
X119301706Y-103934927D02*
X119585039Y-104784927D01*
X119585039Y-104784927D02*
X119868373Y-103934927D01*
X120151705Y-104784927D02*
X120151705Y-103934927D01*
X121042182Y-104703974D02*
X121001706Y-104744451D01*
X121001706Y-104744451D02*
X120880277Y-104784927D01*
X120880277Y-104784927D02*
X120799325Y-104784927D01*
X120799325Y-104784927D02*
X120677896Y-104744451D01*
X120677896Y-104744451D02*
X120596944Y-104663498D01*
X120596944Y-104663498D02*
X120556467Y-104582546D01*
X120556467Y-104582546D02*
X120515991Y-104420641D01*
X120515991Y-104420641D02*
X120515991Y-104299212D01*
X120515991Y-104299212D02*
X120556467Y-104137308D01*
X120556467Y-104137308D02*
X120596944Y-104056355D01*
X120596944Y-104056355D02*
X120677896Y-103975403D01*
X120677896Y-103975403D02*
X120799325Y-103934927D01*
X120799325Y-103934927D02*
X120880277Y-103934927D01*
X120880277Y-103934927D02*
X121001706Y-103975403D01*
X121001706Y-103975403D02*
X121042182Y-104015879D01*
X121406467Y-104339689D02*
X121689801Y-104339689D01*
X121811229Y-104784927D02*
X121406467Y-104784927D01*
X121406467Y-104784927D02*
X121406467Y-103934927D01*
X121406467Y-103934927D02*
X121811229Y-103934927D01*
D12*
X117735901Y-62440142D02*
X118021615Y-63240142D01*
X118021615Y-63240142D02*
X118307330Y-62440142D01*
X118993044Y-62040142D02*
X119107330Y-62040142D01*
X119107330Y-62040142D02*
X119221616Y-62097285D01*
X119221616Y-62097285D02*
X119278759Y-62154428D01*
X119278759Y-62154428D02*
X119335901Y-62268714D01*
X119335901Y-62268714D02*
X119393044Y-62497285D01*
X119393044Y-62497285D02*
X119393044Y-62783000D01*
X119393044Y-62783000D02*
X119335901Y-63011571D01*
X119335901Y-63011571D02*
X119278759Y-63125857D01*
X119278759Y-63125857D02*
X119221616Y-63183000D01*
X119221616Y-63183000D02*
X119107330Y-63240142D01*
X119107330Y-63240142D02*
X118993044Y-63240142D01*
X118993044Y-63240142D02*
X118878759Y-63183000D01*
X118878759Y-63183000D02*
X118821616Y-63125857D01*
X118821616Y-63125857D02*
X118764473Y-63011571D01*
X118764473Y-63011571D02*
X118707330Y-62783000D01*
X118707330Y-62783000D02*
X118707330Y-62497285D01*
X118707330Y-62497285D02*
X118764473Y-62268714D01*
X118764473Y-62268714D02*
X118821616Y-62154428D01*
X118821616Y-62154428D02*
X118878759Y-62097285D01*
X118878759Y-62097285D02*
X118993044Y-62040142D01*
X119907330Y-63125857D02*
X119964473Y-63183000D01*
X119964473Y-63183000D02*
X119907330Y-63240142D01*
X119907330Y-63240142D02*
X119850187Y-63183000D01*
X119850187Y-63183000D02*
X119907330Y-63125857D01*
X119907330Y-63125857D02*
X119907330Y-63240142D01*
X120421616Y-62154428D02*
X120478759Y-62097285D01*
X120478759Y-62097285D02*
X120593045Y-62040142D01*
X120593045Y-62040142D02*
X120878759Y-62040142D01*
X120878759Y-62040142D02*
X120993045Y-62097285D01*
X120993045Y-62097285D02*
X121050187Y-62154428D01*
X121050187Y-62154428D02*
X121107330Y-62268714D01*
X121107330Y-62268714D02*
X121107330Y-62383000D01*
X121107330Y-62383000D02*
X121050187Y-62554428D01*
X121050187Y-62554428D02*
X120364473Y-63240142D01*
X120364473Y-63240142D02*
X121107330Y-63240142D01*
D10*
X136784398Y-90613342D02*
X136746303Y-90575247D01*
X136746303Y-90575247D02*
X136670112Y-90537152D01*
X136670112Y-90537152D02*
X136593922Y-90537152D01*
X136593922Y-90537152D02*
X136517731Y-90575247D01*
X136517731Y-90575247D02*
X136479636Y-90613342D01*
X136479636Y-90613342D02*
X136441541Y-90689533D01*
X136441541Y-90689533D02*
X136441541Y-90765723D01*
X136441541Y-90765723D02*
X136479636Y-90841914D01*
X136479636Y-90841914D02*
X136517731Y-90880009D01*
X136517731Y-90880009D02*
X136593922Y-90918104D01*
X136593922Y-90918104D02*
X136670112Y-90918104D01*
X136670112Y-90918104D02*
X136746303Y-90880009D01*
X136746303Y-90880009D02*
X136784398Y-90841914D01*
X136784398Y-90537152D02*
X136784398Y-90841914D01*
X136784398Y-90841914D02*
X136822493Y-90880009D01*
X136822493Y-90880009D02*
X136860588Y-90880009D01*
X136860588Y-90880009D02*
X136936779Y-90841914D01*
X136936779Y-90841914D02*
X136974874Y-90765723D01*
X136974874Y-90765723D02*
X136974874Y-90575247D01*
X136974874Y-90575247D02*
X136898684Y-90460961D01*
X136898684Y-90460961D02*
X136784398Y-90384771D01*
X136784398Y-90384771D02*
X136632017Y-90346676D01*
X136632017Y-90346676D02*
X136479636Y-90384771D01*
X136479636Y-90384771D02*
X136365350Y-90460961D01*
X136365350Y-90460961D02*
X136289160Y-90575247D01*
X136289160Y-90575247D02*
X136251064Y-90727628D01*
X136251064Y-90727628D02*
X136289160Y-90880009D01*
X136289160Y-90880009D02*
X136365350Y-90994295D01*
X136365350Y-90994295D02*
X136479636Y-91070485D01*
X136479636Y-91070485D02*
X136632017Y-91108580D01*
X136632017Y-91108580D02*
X136784398Y-91070485D01*
X136784398Y-91070485D02*
X136898684Y-90994295D01*
X137317731Y-90460961D02*
X137317731Y-91146676D01*
X137317731Y-91146676D02*
X137279635Y-91222866D01*
X137279635Y-91222866D02*
X137203445Y-91260961D01*
X137203445Y-91260961D02*
X137165350Y-91260961D01*
X137317731Y-90194295D02*
X137279635Y-90232390D01*
X137279635Y-90232390D02*
X137317731Y-90270485D01*
X137317731Y-90270485D02*
X137355826Y-90232390D01*
X137355826Y-90232390D02*
X137317731Y-90194295D01*
X137317731Y-90194295D02*
X137317731Y-90270485D01*
X137622492Y-90460961D02*
X137774873Y-90994295D01*
X137774873Y-90994295D02*
X137927254Y-90613342D01*
X137927254Y-90613342D02*
X138079635Y-90994295D01*
X138079635Y-90994295D02*
X138232016Y-90460961D01*
X138536778Y-90994295D02*
X138536778Y-90460961D01*
X138536778Y-90537152D02*
X138574873Y-90499057D01*
X138574873Y-90499057D02*
X138651063Y-90460961D01*
X138651063Y-90460961D02*
X138765349Y-90460961D01*
X138765349Y-90460961D02*
X138841540Y-90499057D01*
X138841540Y-90499057D02*
X138879635Y-90575247D01*
X138879635Y-90575247D02*
X138879635Y-90994295D01*
X138879635Y-90575247D02*
X138917730Y-90499057D01*
X138917730Y-90499057D02*
X138993921Y-90460961D01*
X138993921Y-90460961D02*
X139108206Y-90460961D01*
X139108206Y-90460961D02*
X139184397Y-90499057D01*
X139184397Y-90499057D02*
X139222492Y-90575247D01*
X139222492Y-90575247D02*
X139222492Y-90994295D01*
X139603445Y-90994295D02*
X139603445Y-90194295D01*
X139679635Y-90689533D02*
X139908207Y-90994295D01*
X139908207Y-90460961D02*
X139603445Y-90765723D01*
X140555826Y-90956200D02*
X140479635Y-90994295D01*
X140479635Y-90994295D02*
X140327254Y-90994295D01*
X140327254Y-90994295D02*
X140251064Y-90956200D01*
X140251064Y-90956200D02*
X140212968Y-90880009D01*
X140212968Y-90880009D02*
X140212968Y-90575247D01*
X140212968Y-90575247D02*
X140251064Y-90499057D01*
X140251064Y-90499057D02*
X140327254Y-90460961D01*
X140327254Y-90460961D02*
X140479635Y-90460961D01*
X140479635Y-90460961D02*
X140555826Y-90499057D01*
X140555826Y-90499057D02*
X140593921Y-90575247D01*
X140593921Y-90575247D02*
X140593921Y-90651438D01*
X140593921Y-90651438D02*
X140212968Y-90727628D01*
D13*
X108187405Y-61098228D02*
X108187405Y-59598228D01*
X108187405Y-59598228D02*
X108758834Y-59598228D01*
X108758834Y-59598228D02*
X108901691Y-59669657D01*
X108901691Y-59669657D02*
X108973120Y-59741085D01*
X108973120Y-59741085D02*
X109044548Y-59883942D01*
X109044548Y-59883942D02*
X109044548Y-60098228D01*
X109044548Y-60098228D02*
X108973120Y-60241085D01*
X108973120Y-60241085D02*
X108901691Y-60312514D01*
X108901691Y-60312514D02*
X108758834Y-60383942D01*
X108758834Y-60383942D02*
X108187405Y-60383942D01*
X109687405Y-61098228D02*
X109687405Y-60098228D01*
X109687405Y-59598228D02*
X109615977Y-59669657D01*
X109615977Y-59669657D02*
X109687405Y-59741085D01*
X109687405Y-59741085D02*
X109758834Y-59669657D01*
X109758834Y-59669657D02*
X109687405Y-59598228D01*
X109687405Y-59598228D02*
X109687405Y-59741085D01*
X111544548Y-61098228D02*
X111544548Y-59598228D01*
X111544548Y-59598228D02*
X112115977Y-59598228D01*
X112115977Y-59598228D02*
X112258834Y-59669657D01*
X112258834Y-59669657D02*
X112330263Y-59741085D01*
X112330263Y-59741085D02*
X112401691Y-59883942D01*
X112401691Y-59883942D02*
X112401691Y-60098228D01*
X112401691Y-60098228D02*
X112330263Y-60241085D01*
X112330263Y-60241085D02*
X112258834Y-60312514D01*
X112258834Y-60312514D02*
X112115977Y-60383942D01*
X112115977Y-60383942D02*
X111544548Y-60383942D01*
X113044548Y-61098228D02*
X113044548Y-60098228D01*
X113044548Y-59598228D02*
X112973120Y-59669657D01*
X112973120Y-59669657D02*
X113044548Y-59741085D01*
X113044548Y-59741085D02*
X113115977Y-59669657D01*
X113115977Y-59669657D02*
X113044548Y-59598228D01*
X113044548Y-59598228D02*
X113044548Y-59741085D01*
X114401692Y-61026800D02*
X114258834Y-61098228D01*
X114258834Y-61098228D02*
X113973120Y-61098228D01*
X113973120Y-61098228D02*
X113830263Y-61026800D01*
X113830263Y-61026800D02*
X113758834Y-60955371D01*
X113758834Y-60955371D02*
X113687406Y-60812514D01*
X113687406Y-60812514D02*
X113687406Y-60383942D01*
X113687406Y-60383942D02*
X113758834Y-60241085D01*
X113758834Y-60241085D02*
X113830263Y-60169657D01*
X113830263Y-60169657D02*
X113973120Y-60098228D01*
X113973120Y-60098228D02*
X114258834Y-60098228D01*
X114258834Y-60098228D02*
X114401692Y-60169657D01*
X115258834Y-61098228D02*
X115115977Y-61026800D01*
X115115977Y-61026800D02*
X115044548Y-60955371D01*
X115044548Y-60955371D02*
X114973120Y-60812514D01*
X114973120Y-60812514D02*
X114973120Y-60383942D01*
X114973120Y-60383942D02*
X115044548Y-60241085D01*
X115044548Y-60241085D02*
X115115977Y-60169657D01*
X115115977Y-60169657D02*
X115258834Y-60098228D01*
X115258834Y-60098228D02*
X115473120Y-60098228D01*
X115473120Y-60098228D02*
X115615977Y-60169657D01*
X115615977Y-60169657D02*
X115687406Y-60241085D01*
X115687406Y-60241085D02*
X115758834Y-60383942D01*
X115758834Y-60383942D02*
X115758834Y-60812514D01*
X115758834Y-60812514D02*
X115687406Y-60955371D01*
X115687406Y-60955371D02*
X115615977Y-61026800D01*
X115615977Y-61026800D02*
X115473120Y-61098228D01*
X115473120Y-61098228D02*
X115258834Y-61098228D01*
X117544548Y-60312514D02*
X118044548Y-60312514D01*
X118258834Y-61098228D02*
X117544548Y-61098228D01*
X117544548Y-61098228D02*
X117544548Y-59598228D01*
X117544548Y-59598228D02*
X118258834Y-59598228D01*
X118901691Y-60312514D02*
X119401691Y-60312514D01*
X119615977Y-61098228D02*
X118901691Y-61098228D01*
X118901691Y-61098228D02*
X118901691Y-59598228D01*
X118901691Y-59598228D02*
X119615977Y-59598228D01*
X121044549Y-59669657D02*
X120901692Y-59598228D01*
X120901692Y-59598228D02*
X120687406Y-59598228D01*
X120687406Y-59598228D02*
X120473120Y-59669657D01*
X120473120Y-59669657D02*
X120330263Y-59812514D01*
X120330263Y-59812514D02*
X120258834Y-59955371D01*
X120258834Y-59955371D02*
X120187406Y-60241085D01*
X120187406Y-60241085D02*
X120187406Y-60455371D01*
X120187406Y-60455371D02*
X120258834Y-60741085D01*
X120258834Y-60741085D02*
X120330263Y-60883942D01*
X120330263Y-60883942D02*
X120473120Y-61026800D01*
X120473120Y-61026800D02*
X120687406Y-61098228D01*
X120687406Y-61098228D02*
X120830263Y-61098228D01*
X120830263Y-61098228D02*
X121044549Y-61026800D01*
X121044549Y-61026800D02*
X121115977Y-60955371D01*
X121115977Y-60955371D02*
X121115977Y-60455371D01*
X121115977Y-60455371D02*
X120830263Y-60455371D01*
D10*
X110589160Y-109594295D02*
X110589160Y-108794295D01*
X110589160Y-108794295D02*
X110855826Y-109365723D01*
X110855826Y-109365723D02*
X111122493Y-108794295D01*
X111122493Y-108794295D02*
X111122493Y-109594295D01*
X111846303Y-109594295D02*
X111846303Y-109175247D01*
X111846303Y-109175247D02*
X111808208Y-109099057D01*
X111808208Y-109099057D02*
X111732017Y-109060961D01*
X111732017Y-109060961D02*
X111579636Y-109060961D01*
X111579636Y-109060961D02*
X111503446Y-109099057D01*
X111846303Y-109556200D02*
X111770112Y-109594295D01*
X111770112Y-109594295D02*
X111579636Y-109594295D01*
X111579636Y-109594295D02*
X111503446Y-109556200D01*
X111503446Y-109556200D02*
X111465350Y-109480009D01*
X111465350Y-109480009D02*
X111465350Y-109403819D01*
X111465350Y-109403819D02*
X111503446Y-109327628D01*
X111503446Y-109327628D02*
X111579636Y-109289533D01*
X111579636Y-109289533D02*
X111770112Y-109289533D01*
X111770112Y-109289533D02*
X111846303Y-109251438D01*
X112570113Y-109594295D02*
X112570113Y-108794295D01*
X112570113Y-109556200D02*
X112493922Y-109594295D01*
X112493922Y-109594295D02*
X112341541Y-109594295D01*
X112341541Y-109594295D02*
X112265351Y-109556200D01*
X112265351Y-109556200D02*
X112227256Y-109518104D01*
X112227256Y-109518104D02*
X112189160Y-109441914D01*
X112189160Y-109441914D02*
X112189160Y-109213342D01*
X112189160Y-109213342D02*
X112227256Y-109137152D01*
X112227256Y-109137152D02*
X112265351Y-109099057D01*
X112265351Y-109099057D02*
X112341541Y-109060961D01*
X112341541Y-109060961D02*
X112493922Y-109060961D01*
X112493922Y-109060961D02*
X112570113Y-109099057D01*
X113255828Y-109556200D02*
X113179637Y-109594295D01*
X113179637Y-109594295D02*
X113027256Y-109594295D01*
X113027256Y-109594295D02*
X112951066Y-109556200D01*
X112951066Y-109556200D02*
X112912970Y-109480009D01*
X112912970Y-109480009D02*
X112912970Y-109175247D01*
X112912970Y-109175247D02*
X112951066Y-109099057D01*
X112951066Y-109099057D02*
X113027256Y-109060961D01*
X113027256Y-109060961D02*
X113179637Y-109060961D01*
X113179637Y-109060961D02*
X113255828Y-109099057D01*
X113255828Y-109099057D02*
X113293923Y-109175247D01*
X113293923Y-109175247D02*
X113293923Y-109251438D01*
X113293923Y-109251438D02*
X112912970Y-109327628D01*
X114246304Y-109594295D02*
X114246304Y-109060961D01*
X114246304Y-108794295D02*
X114208208Y-108832390D01*
X114208208Y-108832390D02*
X114246304Y-108870485D01*
X114246304Y-108870485D02*
X114284399Y-108832390D01*
X114284399Y-108832390D02*
X114246304Y-108794295D01*
X114246304Y-108794295D02*
X114246304Y-108870485D01*
X114627256Y-109060961D02*
X114627256Y-109594295D01*
X114627256Y-109137152D02*
X114665351Y-109099057D01*
X114665351Y-109099057D02*
X114741541Y-109060961D01*
X114741541Y-109060961D02*
X114855827Y-109060961D01*
X114855827Y-109060961D02*
X114932018Y-109099057D01*
X114932018Y-109099057D02*
X114970113Y-109175247D01*
X114970113Y-109175247D02*
X114970113Y-109594295D01*
X115960590Y-108794295D02*
X115960590Y-109441914D01*
X115960590Y-109441914D02*
X115998685Y-109518104D01*
X115998685Y-109518104D02*
X116036780Y-109556200D01*
X116036780Y-109556200D02*
X116112971Y-109594295D01*
X116112971Y-109594295D02*
X116265352Y-109594295D01*
X116265352Y-109594295D02*
X116341542Y-109556200D01*
X116341542Y-109556200D02*
X116379637Y-109518104D01*
X116379637Y-109518104D02*
X116417733Y-109441914D01*
X116417733Y-109441914D02*
X116417733Y-108794295D01*
X116760589Y-109556200D02*
X116874875Y-109594295D01*
X116874875Y-109594295D02*
X117065351Y-109594295D01*
X117065351Y-109594295D02*
X117141542Y-109556200D01*
X117141542Y-109556200D02*
X117179637Y-109518104D01*
X117179637Y-109518104D02*
X117217732Y-109441914D01*
X117217732Y-109441914D02*
X117217732Y-109365723D01*
X117217732Y-109365723D02*
X117179637Y-109289533D01*
X117179637Y-109289533D02*
X117141542Y-109251438D01*
X117141542Y-109251438D02*
X117065351Y-109213342D01*
X117065351Y-109213342D02*
X116912970Y-109175247D01*
X116912970Y-109175247D02*
X116836780Y-109137152D01*
X116836780Y-109137152D02*
X116798685Y-109099057D01*
X116798685Y-109099057D02*
X116760589Y-109022866D01*
X116760589Y-109022866D02*
X116760589Y-108946676D01*
X116760589Y-108946676D02*
X116798685Y-108870485D01*
X116798685Y-108870485D02*
X116836780Y-108832390D01*
X116836780Y-108832390D02*
X116912970Y-108794295D01*
X116912970Y-108794295D02*
X117103447Y-108794295D01*
X117103447Y-108794295D02*
X117217732Y-108832390D01*
X117522494Y-109365723D02*
X117903447Y-109365723D01*
X117446304Y-109594295D02*
X117712971Y-108794295D01*
X117712971Y-108794295D02*
X117979637Y-109594295D01*
D14*
%TO.C,J8*%
X125770000Y-93770000D02*
X127100000Y-93770000D01*
X125770000Y-95100000D02*
X125770000Y-93770000D01*
X125770000Y-96370000D02*
X125770000Y-96430000D01*
X125770000Y-96370000D02*
X128430000Y-96370000D01*
X125770000Y-96430000D02*
X128430000Y-96430000D01*
X128430000Y-96370000D02*
X128430000Y-96430000D01*
%TO.C,J7*%
X125970000Y-82470000D02*
X127300000Y-82470000D01*
X125970000Y-83800000D02*
X125970000Y-82470000D01*
X125970000Y-85070000D02*
X125970000Y-85130000D01*
X125970000Y-85070000D02*
X128630000Y-85070000D01*
X125970000Y-85130000D02*
X128630000Y-85130000D01*
X128630000Y-85070000D02*
X128630000Y-85130000D01*
%TO.C,J6*%
X125770000Y-97370000D02*
X127100000Y-97370000D01*
X125770000Y-98700000D02*
X125770000Y-97370000D01*
X125770000Y-99970000D02*
X125770000Y-100030000D01*
X125770000Y-99970000D02*
X128430000Y-99970000D01*
X125770000Y-100030000D02*
X128430000Y-100030000D01*
X128430000Y-99970000D02*
X128430000Y-100030000D01*
%TO.C,J5*%
X142570000Y-71970000D02*
X143900000Y-71970000D01*
X142570000Y-73300000D02*
X142570000Y-71970000D01*
X142570000Y-74570000D02*
X142570000Y-74630000D01*
X142570000Y-74570000D02*
X145230000Y-74570000D01*
X142570000Y-74630000D02*
X145230000Y-74630000D01*
X145230000Y-74570000D02*
X145230000Y-74630000D01*
%TO.C,C22*%
X147410000Y-75053733D02*
X147410000Y-75346267D01*
X146390000Y-75053733D02*
X146390000Y-75346267D01*
D15*
%TO.C,U11*%
X139907500Y-80750000D02*
X140567500Y-80750000D01*
X140567500Y-83650000D02*
X139907500Y-83650000D01*
X141037500Y-81865000D02*
X141037500Y-82535000D01*
D16*
X137927500Y-81150000D02*
G75*
G02*
X137727500Y-81150000I-100000J0D01*
G01*
X137727500Y-81150000D02*
G75*
G02*
X137927500Y-81150000I100000J0D01*
G01*
D17*
%TO.C,U8*%
X148924000Y-79895200D02*
X148924000Y-79666600D01*
X148924000Y-80504800D02*
X148924000Y-79895200D01*
X148924000Y-80733400D02*
X148924000Y-80504800D01*
X148924000Y-80504800D02*
G75*
G02*
X148924000Y-79895200I0J304800D01*
G01*
D16*
%TO.C,U7*%
X129650000Y-77090000D02*
G75*
G02*
X129450000Y-77090000I-100000J0D01*
G01*
X129450000Y-77090000D02*
G75*
G02*
X129650000Y-77090000I100000J0D01*
G01*
D15*
X128835000Y-80300000D02*
X128165000Y-80300000D01*
X127050000Y-79830000D02*
X127050000Y-79170000D01*
X129950000Y-79170000D02*
X129950000Y-79830000D01*
D16*
%TO.C,U6*%
X136983450Y-76500000D02*
X136483450Y-76500000D01*
X136983450Y-74900000D02*
X136983450Y-76500000D01*
X136483450Y-76500000D02*
X136483450Y-74900000D01*
X136483450Y-74900000D02*
X136983450Y-74900000D01*
X135658450Y-74800000D02*
X136133450Y-74800000D01*
D17*
%TO.C,U5*%
X144324000Y-77498600D02*
X144425600Y-77498600D01*
X143714400Y-77498600D02*
X144324000Y-77498600D01*
X143612800Y-77498600D02*
X143714400Y-77498600D01*
D18*
X143714400Y-77498600D02*
G75*
G02*
X144324000Y-77498600I304800J0D01*
G01*
D16*
%TO.C,RN8*%
X143329500Y-105550000D02*
X143329500Y-104510000D01*
X143330000Y-102630000D02*
X147070000Y-102630000D01*
X143330000Y-103650000D02*
X143330000Y-102630000D01*
X147069500Y-104550000D02*
X147069500Y-105550000D01*
X147069500Y-105550000D02*
X143329500Y-105550000D01*
X147070000Y-102630000D02*
X147070000Y-103670500D01*
%TO.C,RN7*%
X138829500Y-105550000D02*
X138829500Y-104510000D01*
X138830000Y-102630000D02*
X142570000Y-102630000D01*
X138830000Y-103650000D02*
X138830000Y-102630000D01*
X142569500Y-104550000D02*
X142569500Y-105550000D01*
X142569500Y-105550000D02*
X138829500Y-105550000D01*
X142570000Y-102630000D02*
X142570000Y-103670500D01*
%TO.C,RN6*%
X138070000Y-102630000D02*
X138070000Y-103670500D01*
X138069500Y-105550000D02*
X134329500Y-105550000D01*
X138069500Y-104550000D02*
X138069500Y-105550000D01*
X134330000Y-103650000D02*
X134330000Y-102630000D01*
X134330000Y-102630000D02*
X138070000Y-102630000D01*
X134329500Y-105550000D02*
X134329500Y-104510000D01*
%TO.C,RN5*%
X129829500Y-105550000D02*
X129829500Y-104510000D01*
X129830000Y-102630000D02*
X133570000Y-102630000D01*
X129830000Y-103650000D02*
X129830000Y-102630000D01*
X133569500Y-104550000D02*
X133569500Y-105550000D01*
X133569500Y-105550000D02*
X129829500Y-105550000D01*
X133570000Y-102630000D02*
X133570000Y-103670500D01*
D14*
%TO.C,R10*%
X128322500Y-103732776D02*
X128322500Y-104242224D01*
X127277500Y-103732776D02*
X127277500Y-104242224D01*
%TO.C,R6*%
X129745276Y-88177500D02*
X130254724Y-88177500D01*
X129745276Y-89222500D02*
X130254724Y-89222500D01*
%TO.C,R5*%
X133715950Y-73804724D02*
X133715950Y-73295276D01*
X132670950Y-73804724D02*
X132670950Y-73295276D01*
%TO.C,R4*%
X134210950Y-73295276D02*
X134210950Y-73804724D01*
X135255950Y-73295276D02*
X135255950Y-73804724D01*
%TO.C,R2*%
X126822500Y-103732776D02*
X126822500Y-104242224D01*
X125777500Y-103732776D02*
X125777500Y-104242224D01*
%TO.C,R1*%
X129377500Y-96645276D02*
X129377500Y-97154724D01*
X130422500Y-96645276D02*
X130422500Y-97154724D01*
D17*
%TO.C,L1*%
X134831450Y-81473300D02*
X135613350Y-81473300D01*
X135613350Y-76926700D02*
X134831450Y-76926700D01*
X131996600Y-79200000D02*
G75*
G02*
X131844200Y-79200000I-76200J0D01*
G01*
X131844200Y-79200000D02*
G75*
G02*
X131996600Y-79200000I76200J0D01*
G01*
D14*
%TO.C,J1*%
X132082400Y-77210000D02*
X132082400Y-75960000D01*
X131782400Y-76910000D02*
X131782400Y-72190000D01*
X131782400Y-75600000D02*
X131172400Y-75600000D01*
X131782400Y-74300000D02*
X131172400Y-74300000D01*
X131782400Y-72190000D02*
X125662400Y-72190000D01*
X131172400Y-76300000D02*
X131172400Y-72800000D01*
X131172400Y-72800000D02*
X126272400Y-72800000D01*
X130832400Y-77210000D02*
X132082400Y-77210000D01*
X130322400Y-77110000D02*
X130322400Y-76910000D01*
X130022400Y-77110000D02*
X130322400Y-77110000D01*
X130022400Y-77010000D02*
X130322400Y-77010000D01*
X130022400Y-76910000D02*
X130022400Y-77110000D01*
X129222400Y-76910000D02*
X129222400Y-76300000D01*
X129222400Y-76300000D02*
X131172400Y-76300000D01*
X128822400Y-73300000D02*
X128622400Y-73300000D01*
X128822400Y-72800000D02*
X128822400Y-73300000D01*
X128722400Y-72800000D02*
X128722400Y-73300000D01*
X128622400Y-73300000D02*
X128622400Y-72800000D01*
X128222400Y-76300000D02*
X128222400Y-76910000D01*
X126272400Y-76300000D02*
X128222400Y-76300000D01*
X126272400Y-72800000D02*
X126272400Y-76300000D01*
X125662400Y-76910000D02*
X131782400Y-76910000D01*
X125662400Y-75600000D02*
X126272400Y-75600000D01*
X125662400Y-74300000D02*
X126272400Y-74300000D01*
X125662400Y-72190000D02*
X125662400Y-76910000D01*
%TO.C,C30*%
X144146267Y-83710000D02*
X143853733Y-83710000D01*
X144146267Y-82690000D02*
X143853733Y-82690000D01*
%TO.C,C29*%
X139946267Y-80210000D02*
X139653733Y-80210000D01*
X139946267Y-79190000D02*
X139653733Y-79190000D01*
%TO.C,C28*%
X125490000Y-79753733D02*
X125490000Y-80046267D01*
X126510000Y-79753733D02*
X126510000Y-80046267D01*
%TO.C,C27*%
X131510000Y-79246267D02*
X131510000Y-78953733D01*
X130490000Y-79246267D02*
X130490000Y-78953733D01*
%TO.C,C24*%
X147153733Y-82690000D02*
X147446267Y-82690000D01*
X147153733Y-83710000D02*
X147446267Y-83710000D01*
%TO.C,C23*%
X143853733Y-80990000D02*
X144146267Y-80990000D01*
X143853733Y-82010000D02*
X144146267Y-82010000D01*
%TO.C,C21*%
X140763450Y-76046267D02*
X140763450Y-75753733D01*
X139743450Y-76046267D02*
X139743450Y-75753733D01*
%TO.C,C20*%
X139243450Y-76046267D02*
X139243450Y-75753733D01*
X138223450Y-76046267D02*
X138223450Y-75753733D01*
%TO.C,C19*%
X133979717Y-75490000D02*
X133687183Y-75490000D01*
X133979717Y-76510000D02*
X133687183Y-76510000D01*
%TO.C,C18*%
X143853733Y-77890000D02*
X144146267Y-77890000D01*
X143853733Y-78910000D02*
X144146267Y-78910000D01*
%TO.C,C17*%
X131546267Y-85910000D02*
X131253733Y-85910000D01*
X131546267Y-84890000D02*
X131253733Y-84890000D01*
%TO.C,C16*%
X130146267Y-87410000D02*
X129853733Y-87410000D01*
X130146267Y-86390000D02*
X129853733Y-86390000D01*
%TO.C,C15*%
X146653733Y-94690000D02*
X146946267Y-94690000D01*
X146653733Y-95710000D02*
X146946267Y-95710000D01*
%TO.C,C14*%
X145353733Y-96190000D02*
X145646267Y-96190000D01*
X145353733Y-97210000D02*
X145646267Y-97210000D01*
%TO.C,C7*%
X127183767Y-102110000D02*
X126891233Y-102110000D01*
X127183767Y-101090000D02*
X126891233Y-101090000D01*
%TO.C,C1*%
X130890000Y-96753733D02*
X130890000Y-97046267D01*
X131910000Y-96753733D02*
X131910000Y-97046267D01*
%TO.C,J3*%
X104390000Y-61590000D02*
X104390000Y-109910000D01*
X104390000Y-61590000D02*
X107050000Y-61590000D01*
X104390000Y-109910000D02*
X107050000Y-109910000D01*
X105720000Y-58990000D02*
X107050000Y-58990000D01*
X107050000Y-58990000D02*
X107050000Y-60320000D01*
X107050000Y-61590000D02*
X107050000Y-109910000D01*
%TO.C,J2*%
X125770000Y-109830000D02*
X125770000Y-108500000D01*
X127100000Y-109830000D02*
X125770000Y-109830000D01*
X128370000Y-107170000D02*
X148750000Y-107170000D01*
X128370000Y-109830000D02*
X128370000Y-107170000D01*
X128370000Y-109830000D02*
X148750000Y-109830000D01*
X148750000Y-109830000D02*
X148750000Y-107170000D01*
%TO.C,J4*%
X122170000Y-61590000D02*
X122170000Y-109910000D01*
X122170000Y-61590000D02*
X124830000Y-61590000D01*
X122170000Y-109910000D02*
X124830000Y-109910000D01*
X123500000Y-58990000D02*
X124830000Y-58990000D01*
X124830000Y-58990000D02*
X124830000Y-60320000D01*
X124830000Y-61590000D02*
X124830000Y-109910000D01*
D19*
%TO.C,U1*%
G36*
X145381100Y-93490501D02*
G01*
X145127100Y-93490501D01*
X145127100Y-93109501D01*
X145381100Y-93109501D01*
X145381100Y-93490501D01*
G37*
G36*
X145381100Y-88490500D02*
G01*
X145127100Y-88490500D01*
X145127100Y-88109500D01*
X145381100Y-88109500D01*
X145381100Y-88490500D01*
G37*
G36*
X139362001Y-98009600D02*
G01*
X138981001Y-98009600D01*
X138981001Y-97755600D01*
X139362001Y-97755600D01*
X139362001Y-98009600D01*
G37*
G36*
X138862000Y-84344400D02*
G01*
X138480999Y-84344400D01*
X138480999Y-84090400D01*
X138862000Y-84090400D01*
X138862000Y-84344400D01*
G37*
G36*
X131715900Y-92990499D02*
G01*
X131461900Y-92990499D01*
X131461900Y-92609499D01*
X131715900Y-92609499D01*
X131715900Y-92990499D01*
G37*
G36*
X131715900Y-87990499D02*
G01*
X131461900Y-87990499D01*
X131461900Y-87609499D01*
X131715900Y-87609499D01*
X131715900Y-87990499D01*
G37*
D17*
X143653900Y-96282400D02*
X143653900Y-95272440D01*
X143653900Y-86827560D02*
X143653900Y-85817600D01*
X143653900Y-85817600D02*
X142643940Y-85817600D01*
X142643940Y-96282400D02*
X143653900Y-96282400D01*
X134199060Y-85817600D02*
X133189100Y-85817600D01*
X133189100Y-96282400D02*
X134199060Y-96282400D01*
X133189100Y-95272440D02*
X133189100Y-96282400D01*
X133189100Y-85817600D02*
X133189100Y-86827560D01*
D14*
%TO.C,C12*%
X145411500Y-87825061D02*
X145411500Y-87532527D01*
X146431500Y-87825061D02*
X146431500Y-87532527D01*
%TO.C,C3*%
X146637733Y-92931294D02*
X146930267Y-92931294D01*
X146637733Y-93951294D02*
X146930267Y-93951294D01*
%TO.C,C5*%
X146637733Y-89931294D02*
X146930267Y-89931294D01*
X146637733Y-90951294D02*
X146930267Y-90951294D01*
%TO.C,C2*%
X146930267Y-91431294D02*
X146637733Y-91431294D01*
X146930267Y-92451294D02*
X146637733Y-92451294D01*
%TO.C,C8*%
X129912733Y-89731294D02*
X130205267Y-89731294D01*
X129912733Y-90751294D02*
X130205267Y-90751294D01*
%TO.C,C9*%
X129912733Y-91231294D02*
X130205267Y-91231294D01*
X129912733Y-92251294D02*
X130205267Y-92251294D01*
%TO.C,C13*%
X146911500Y-87890046D02*
X146911500Y-86467542D01*
X148731500Y-87890046D02*
X148731500Y-86467542D01*
%TD*%
M02*
