%TF.GenerationSoftware,KiCad,Pcbnew,8.0.3*%
%TF.CreationDate,2024-08-10T21:36:20-07:00*%
%TF.ProjectId,v2,76322e6b-6963-4616-945f-706362585858,rev?*%
%TF.SameCoordinates,Original*%
%TF.FileFunction,Copper,L3,Inr*%
%TF.FilePolarity,Positive*%
%FSLAX46Y46*%
G04 Gerber Fmt 4.6, Leading zero omitted, Abs format (unit mm)*
G04 Created by KiCad (PCBNEW 8.0.3) date 2024-08-10 21:36:20*
%MOMM*%
%LPD*%
G01*
G04 APERTURE LIST*
G04 Aperture macros list*
%AMRoundRect*
0 Rectangle with rounded corners*
0 $1 Rounding radius*
0 $2 $3 $4 $5 $6 $7 $8 $9 X,Y pos of 4 corners*
0 Add a 4 corners polygon primitive as box body*
4,1,4,$2,$3,$4,$5,$6,$7,$8,$9,$2,$3,0*
0 Add four circle primitives for the rounded corners*
1,1,$1+$1,$2,$3*
1,1,$1+$1,$4,$5*
1,1,$1+$1,$6,$7*
1,1,$1+$1,$8,$9*
0 Add four rect primitives between the rounded corners*
20,1,$1+$1,$2,$3,$4,$5,0*
20,1,$1+$1,$4,$5,$6,$7,0*
20,1,$1+$1,$6,$7,$8,$9,0*
20,1,$1+$1,$8,$9,$2,$3,0*%
G04 Aperture macros list end*
%TA.AperFunction,ComponentPad*%
%ADD10R,1.700000X1.700000*%
%TD*%
%TA.AperFunction,ComponentPad*%
%ADD11RoundRect,0.250000X0.350000X0.625000X-0.350000X0.625000X-0.350000X-0.625000X0.350000X-0.625000X0*%
%TD*%
%TA.AperFunction,ComponentPad*%
%ADD12O,1.200000X1.750000*%
%TD*%
%TA.AperFunction,ComponentPad*%
%ADD13O,1.700000X1.700000*%
%TD*%
%TA.AperFunction,ViaPad*%
%ADD14C,0.600000*%
%TD*%
G04 APERTURE END LIST*
D10*
%TO.N,+2V5*%
%TO.C,J8*%
X127100000Y-95100000D03*
%TD*%
%TO.N,+3V3*%
%TO.C,J7*%
X127300000Y-83800000D03*
%TD*%
%TO.N,-2V5*%
%TO.C,J6*%
X127100000Y-98700000D03*
%TD*%
%TO.N,+5V*%
%TO.C,J5*%
X143900000Y-73300000D03*
%TD*%
D11*
%TO.N,/Booster/VBATT*%
%TO.C,J1*%
X129722400Y-75100000D03*
D12*
%TO.N,GND*%
X127722400Y-75100000D03*
%TD*%
D10*
%TO.N,/ADS1299/MOSI*%
%TO.C,J3*%
X105720000Y-60320000D03*
D13*
%TO.N,/ADS1299/CS*%
X105720000Y-62860000D03*
%TO.N,unconnected-(J3-Pin_3-Pad3)*%
X105720000Y-65400000D03*
%TO.N,/ADS1299/SCLK*%
X105720000Y-67940000D03*
%TO.N,/ADS1299/MISO*%
X105720000Y-70480000D03*
%TO.N,/ADS1299/DRDY*%
X105720000Y-73020000D03*
%TO.N,/ADS1299/START*%
X105720000Y-75560000D03*
%TO.N,unconnected-(J3-Pin_8-Pad8)*%
X105720000Y-78100000D03*
%TO.N,/ADS1299/RESET*%
X105720000Y-80640000D03*
%TO.N,unconnected-(J3-Pin_10-Pad10)*%
X105720000Y-83180000D03*
%TO.N,/ADS1299/PDWN*%
X105720000Y-85720000D03*
%TO.N,unconnected-(J3-Pin_12-Pad12)*%
X105720000Y-88260000D03*
%TO.N,unconnected-(J3-Pin_13-Pad13)*%
X105720000Y-90800000D03*
%TO.N,unconnected-(J3-Pin_14-Pad14)*%
X105720000Y-93340000D03*
%TO.N,unconnected-(J3-Pin_15-Pad15)*%
X105720000Y-95880000D03*
%TO.N,unconnected-(J3-Pin_16-Pad16)*%
X105720000Y-98420000D03*
%TO.N,unconnected-(J3-Pin_17-Pad17)*%
X105720000Y-100960000D03*
%TO.N,GND*%
X105720000Y-103500000D03*
%TO.N,+5V*%
X105720000Y-106040000D03*
%TO.N,unconnected-(J3-Pin_20-Pad20)*%
X105720000Y-108580000D03*
%TD*%
D10*
%TO.N,/ADS1299/BI*%
%TO.C,J2*%
X127100000Y-108500000D03*
D13*
%TO.N,/ADS1299/I8*%
X129640000Y-108500000D03*
%TO.N,/ADS1299/I7*%
X132180000Y-108500000D03*
%TO.N,/ADS1299/I6*%
X134720000Y-108500000D03*
%TO.N,/ADS1299/I5*%
X137260000Y-108500000D03*
%TO.N,/ADS1299/I4*%
X139800000Y-108500000D03*
%TO.N,/ADS1299/I3*%
X142340000Y-108500000D03*
%TO.N,/ADS1299/I2*%
X144880000Y-108500000D03*
%TO.N,/ADS1299/I1*%
X147420000Y-108500000D03*
%TD*%
D10*
%TO.N,unconnected-(J4-Pin_1-Pad1)*%
%TO.C,J4*%
X123500000Y-60320000D03*
D13*
%TO.N,unconnected-(J4-Pin_2-Pad2)*%
X123500000Y-62860000D03*
%TO.N,unconnected-(J4-Pin_3-Pad3)*%
X123500000Y-65400000D03*
%TO.N,unconnected-(J4-Pin_4-Pad4)*%
X123500000Y-67940000D03*
%TO.N,unconnected-(J4-Pin_5-Pad5)*%
X123500000Y-70480000D03*
%TO.N,unconnected-(J4-Pin_6-Pad6)*%
X123500000Y-73020000D03*
%TO.N,unconnected-(J4-Pin_7-Pad7)*%
X123500000Y-75560000D03*
%TO.N,unconnected-(J4-Pin_8-Pad8)*%
X123500000Y-78100000D03*
%TO.N,unconnected-(J4-Pin_9-Pad9)*%
X123500000Y-80640000D03*
%TO.N,unconnected-(J4-Pin_10-Pad10)*%
X123500000Y-83180000D03*
%TO.N,unconnected-(J4-Pin_11-Pad11)*%
X123500000Y-85720000D03*
%TO.N,unconnected-(J4-Pin_12-Pad12)*%
X123500000Y-88260000D03*
%TO.N,unconnected-(J4-Pin_13-Pad13)*%
X123500000Y-90800000D03*
%TO.N,unconnected-(J4-Pin_14-Pad14)*%
X123500000Y-93340000D03*
%TO.N,unconnected-(J4-Pin_15-Pad15)*%
X123500000Y-95880000D03*
%TO.N,unconnected-(J4-Pin_16-Pad16)*%
X123500000Y-98420000D03*
%TO.N,unconnected-(J4-Pin_17-Pad17)*%
X123500000Y-100960000D03*
%TO.N,unconnected-(J4-Pin_18-Pad18)*%
X123500000Y-103500000D03*
%TO.N,unconnected-(J4-Pin_19-Pad19)*%
X123500000Y-106040000D03*
%TO.N,unconnected-(J4-Pin_20-Pad20)*%
X123500000Y-108580000D03*
%TD*%
D14*
%TO.N,GND*%
X142200000Y-84000000D03*
%TO.N,-2V5*%
X142600000Y-87300000D03*
X143600000Y-96700000D03*
%TO.N,GND*%
X129818750Y-86118750D03*
X131700000Y-84200000D03*
X128400000Y-87600000D03*
%TO.N,-2V5*%
X138300000Y-92380761D03*
X127900000Y-92400000D03*
%TO.N,GND*%
X122700000Y-104800000D03*
X124400000Y-104800000D03*
X122700000Y-102200000D03*
X124400000Y-102200000D03*
X122700000Y-99700000D03*
X124400000Y-99700000D03*
X122700000Y-97100000D03*
X124400000Y-97100000D03*
X122700000Y-92100000D03*
X124400000Y-92100000D03*
X122700000Y-94600000D03*
X124400000Y-94600000D03*
X143500000Y-86500000D03*
X142600000Y-89100000D03*
X138300000Y-89000003D03*
X139900000Y-77900000D03*
X139100000Y-77900000D03*
X140600000Y-77900000D03*
X138400000Y-77900000D03*
%TO.N,+5V*%
X125200000Y-107300000D03*
%TO.N,GND*%
X146900000Y-73300000D03*
%TO.N,Net-(U1-GPIO1)*%
X137700000Y-83900000D03*
%TO.N,GND*%
X138594452Y-83945000D03*
X137949297Y-80215254D03*
X135100000Y-80200000D03*
X137869460Y-81899759D03*
X132171631Y-86510109D03*
X142600000Y-88200000D03*
X142600000Y-86500000D03*
X134500000Y-88300000D03*
%TO.N,-2V5*%
X133900000Y-89000000D03*
%TO.N,GND*%
X132600000Y-95600000D03*
X148300000Y-77700000D03*
X145687372Y-77637809D03*
X141600000Y-79700000D03*
X143100000Y-80600000D03*
X145600000Y-84100000D03*
X147300000Y-96100000D03*
X131300000Y-99699998D03*
X135800000Y-99699998D03*
X145600000Y-99699998D03*
X141100000Y-99699998D03*
X134000000Y-101900000D03*
X143000000Y-101900000D03*
X128800000Y-103100000D03*
X126200000Y-100600000D03*
X126000000Y-77800000D03*
X128900000Y-77000000D03*
X131000000Y-81100000D03*
X132000000Y-76300000D03*
X132000000Y-73000000D03*
%TO.N,-2V5*%
X127900000Y-89600000D03*
%TO.N,+5V*%
X131100000Y-83600000D03*
X132300000Y-82400000D03*
%TO.N,-2V5*%
X147400000Y-84300000D03*
X143125692Y-90861916D03*
%TO.N,+2V5*%
X141500000Y-92200000D03*
%TO.N,+5V*%
X132300000Y-79200000D03*
%TO.N,+2V5*%
X141500000Y-82200000D03*
%TO.N,+5V*%
X141500000Y-76000000D03*
%TO.N,Net-(U1-GPIO4)*%
X135200000Y-83900000D03*
%TO.N,/ADS1299/MOSI*%
X140300000Y-88200000D03*
%TO.N,/ADS1299/PDWN*%
X140300000Y-87300000D03*
%TO.N,/ADS1299/RESET*%
X140325685Y-86444391D03*
%TO.N,/ADS1299/START*%
X138300000Y-88200000D03*
%TO.N,/ADS1299/CS*%
X138300000Y-87300003D03*
%TO.N,/ADS1299/SCLK*%
X138300000Y-86500000D03*
%TO.N,/ADS1299/MISO*%
X136800000Y-86500000D03*
%TO.N,/ADS1299/DRDY*%
X135500000Y-86500000D03*
%TO.N,+2V5*%
X134500000Y-90200000D03*
%TO.N,-2V5*%
X142900000Y-94800000D03*
X142900000Y-93300000D03*
X133900000Y-91600000D03*
X133900000Y-93200000D03*
%TO.N,/ADS1299/IN1P*%
X146400000Y-101900000D03*
%TO.N,/ADS1299/IN1N*%
X145600000Y-101900000D03*
%TO.N,/ADS1299/IN2P*%
X144800000Y-101900000D03*
%TO.N,/ADS1299/IN2N*%
X144000000Y-101900000D03*
%TO.N,/ADS1299/IN3P*%
X141900003Y-101900000D03*
%TO.N,/ADS1299/IN3N*%
X141100000Y-101900000D03*
%TO.N,/ADS1299/IN4P*%
X140300000Y-101900000D03*
%TO.N,/ADS1299/IN4N*%
X139500000Y-101900000D03*
%TO.N,/ADS1299/IN5P*%
X137400009Y-101900000D03*
%TO.N,/ADS1299/IN5N*%
X136600006Y-101900000D03*
%TO.N,/ADS1299/IN6P*%
X135800003Y-101900000D03*
%TO.N,/ADS1299/IN6N*%
X135000000Y-101900000D03*
%TO.N,/ADS1299/IN8N*%
X130499997Y-101900000D03*
%TO.N,/ADS1299/IN8P*%
X131300000Y-101900000D03*
%TO.N,/ADS1299/IN7N*%
X132100000Y-101900000D03*
%TO.N,/ADS1299/IN7P*%
X132900000Y-101900000D03*
%TO.N,/ADS1299/BI*%
X127100000Y-106300000D03*
%TO.N,/ADS1299/I1*%
X146400000Y-106300000D03*
%TO.N,/ADS1299/I2*%
X144880000Y-106300000D03*
%TO.N,/ADS1299/I3*%
X141900000Y-106300000D03*
%TO.N,/ADS1299/I4*%
X140300000Y-106300000D03*
%TO.N,/ADS1299/I5*%
X138400000Y-106300000D03*
%TO.N,/ADS1299/I6*%
X135800000Y-106300000D03*
%TO.N,/ADS1299/I7*%
X132900000Y-106300000D03*
%TO.N,/ADS1299/I8*%
X131300000Y-106300000D03*
%TO.N,Net-(U1-GPIO2)*%
X136899997Y-83900000D03*
%TO.N,Net-(U1-GPIO3)*%
X136100224Y-83880984D03*
%TD*%
%TA.AperFunction,Conductor*%
%TO.N,-2V5*%
G36*
X124943365Y-70915416D02*
G01*
X124988700Y-70968581D01*
X124999500Y-71019196D01*
X124999500Y-71665892D01*
X125016008Y-71727500D01*
X125033608Y-71793187D01*
X125057666Y-71834855D01*
X125099500Y-71907314D01*
X125192686Y-72000500D01*
X125306814Y-72066392D01*
X125434108Y-72100500D01*
X125565892Y-72100500D01*
X131496524Y-72100500D01*
X131563563Y-72120185D01*
X131609318Y-72172989D01*
X131619262Y-72242147D01*
X131590237Y-72305703D01*
X131562496Y-72329494D01*
X131497737Y-72370184D01*
X131370184Y-72497737D01*
X131274211Y-72650476D01*
X131214631Y-72820745D01*
X131214630Y-72820750D01*
X131194435Y-72999996D01*
X131194435Y-73000003D01*
X131214630Y-73179249D01*
X131214631Y-73179254D01*
X131274211Y-73349523D01*
X131355724Y-73479249D01*
X131370184Y-73502262D01*
X131497738Y-73629816D01*
X131574983Y-73678352D01*
X131648426Y-73724500D01*
X131650478Y-73725789D01*
X131724236Y-73751598D01*
X131820745Y-73785368D01*
X131820750Y-73785369D01*
X131999996Y-73805565D01*
X132000000Y-73805565D01*
X132000004Y-73805565D01*
X132179249Y-73785369D01*
X132179252Y-73785368D01*
X132179255Y-73785368D01*
X132349522Y-73725789D01*
X132502262Y-73629816D01*
X132629816Y-73502262D01*
X132725789Y-73349522D01*
X132785368Y-73179255D01*
X132791960Y-73120750D01*
X132805565Y-73000003D01*
X132805565Y-72999996D01*
X132785369Y-72820750D01*
X132785368Y-72820745D01*
X132725789Y-72650478D01*
X132629816Y-72497738D01*
X132502262Y-72370184D01*
X132437503Y-72329493D01*
X132391213Y-72277159D01*
X132380565Y-72208106D01*
X132408940Y-72144257D01*
X132467330Y-72105885D01*
X132503476Y-72100500D01*
X142467582Y-72100500D01*
X142534621Y-72120185D01*
X142580376Y-72172989D01*
X142590320Y-72242147D01*
X142583764Y-72267833D01*
X142555908Y-72342517D01*
X142552934Y-72370184D01*
X142549501Y-72402123D01*
X142549500Y-72402135D01*
X142549500Y-74197870D01*
X142549501Y-74197876D01*
X142555908Y-74257483D01*
X142606202Y-74392328D01*
X142606206Y-74392335D01*
X142692452Y-74507544D01*
X142692455Y-74507547D01*
X142807664Y-74593793D01*
X142807671Y-74593797D01*
X142942517Y-74644091D01*
X142942516Y-74644091D01*
X142949444Y-74644835D01*
X143002127Y-74650500D01*
X144797872Y-74650499D01*
X144857483Y-74644091D01*
X144992331Y-74593796D01*
X145107546Y-74507546D01*
X145193796Y-74392331D01*
X145244091Y-74257483D01*
X145250500Y-74197873D01*
X145250499Y-73299996D01*
X146094435Y-73299996D01*
X146094435Y-73300003D01*
X146114630Y-73479249D01*
X146114631Y-73479254D01*
X146174211Y-73649523D01*
X146262596Y-73790186D01*
X146270184Y-73802262D01*
X146397738Y-73929816D01*
X146550478Y-74025789D01*
X146720745Y-74085368D01*
X146720750Y-74085369D01*
X146899996Y-74105565D01*
X146900000Y-74105565D01*
X146900004Y-74105565D01*
X147079249Y-74085369D01*
X147079252Y-74085368D01*
X147079255Y-74085368D01*
X147249522Y-74025789D01*
X147402262Y-73929816D01*
X147529816Y-73802262D01*
X147625789Y-73649522D01*
X147685368Y-73479255D01*
X147699985Y-73349523D01*
X147705565Y-73300003D01*
X147705565Y-73299996D01*
X147685369Y-73120750D01*
X147685368Y-73120745D01*
X147650115Y-73019999D01*
X147625789Y-72950478D01*
X147529816Y-72797738D01*
X147402262Y-72670184D01*
X147370897Y-72650476D01*
X147249523Y-72574211D01*
X147079254Y-72514631D01*
X147079249Y-72514630D01*
X146900004Y-72494435D01*
X146899996Y-72494435D01*
X146720750Y-72514630D01*
X146720745Y-72514631D01*
X146550476Y-72574211D01*
X146397737Y-72670184D01*
X146270184Y-72797737D01*
X146174211Y-72950476D01*
X146114631Y-73120745D01*
X146114630Y-73120750D01*
X146094435Y-73299996D01*
X145250499Y-73299996D01*
X145250499Y-72402128D01*
X145244091Y-72342517D01*
X145243961Y-72342169D01*
X145216236Y-72267833D01*
X145211252Y-72198141D01*
X145244737Y-72136818D01*
X145306061Y-72103334D01*
X145332418Y-72100500D01*
X148675500Y-72100500D01*
X148742539Y-72120185D01*
X148788294Y-72172989D01*
X148799500Y-72224500D01*
X148799500Y-76851928D01*
X148779815Y-76918967D01*
X148727011Y-76964722D01*
X148657853Y-76974666D01*
X148634546Y-76968970D01*
X148479257Y-76914632D01*
X148479249Y-76914630D01*
X148300004Y-76894435D01*
X148299996Y-76894435D01*
X148120750Y-76914630D01*
X148120745Y-76914631D01*
X147950476Y-76974211D01*
X147797737Y-77070184D01*
X147670184Y-77197737D01*
X147574211Y-77350476D01*
X147514631Y-77520745D01*
X147514630Y-77520750D01*
X147494435Y-77699996D01*
X147494435Y-77700003D01*
X147514630Y-77879249D01*
X147514631Y-77879254D01*
X147574211Y-78049523D01*
X147605928Y-78100000D01*
X147670184Y-78202262D01*
X147797738Y-78329816D01*
X147806630Y-78335403D01*
X147946322Y-78423178D01*
X147950478Y-78425789D01*
X148088860Y-78474211D01*
X148120745Y-78485368D01*
X148120750Y-78485369D01*
X148299996Y-78505565D01*
X148300000Y-78505565D01*
X148300004Y-78505565D01*
X148479249Y-78485369D01*
X148479251Y-78485368D01*
X148479255Y-78485368D01*
X148479258Y-78485366D01*
X148479262Y-78485366D01*
X148634545Y-78431030D01*
X148704324Y-78427468D01*
X148764951Y-78462196D01*
X148797179Y-78524190D01*
X148799500Y-78548071D01*
X148799500Y-107722327D01*
X148779815Y-107789366D01*
X148727011Y-107835121D01*
X148657853Y-107845065D01*
X148594297Y-107816040D01*
X148573925Y-107793450D01*
X148458494Y-107628597D01*
X148291402Y-107461506D01*
X148291395Y-107461501D01*
X148097834Y-107325967D01*
X148097830Y-107325965D01*
X148063593Y-107310000D01*
X147883663Y-107226097D01*
X147883659Y-107226096D01*
X147883655Y-107226094D01*
X147655413Y-107164938D01*
X147655403Y-107164936D01*
X147420001Y-107144341D01*
X147419999Y-107144341D01*
X147184596Y-107164936D01*
X147184586Y-107164938D01*
X146956344Y-107226094D01*
X146956335Y-107226098D01*
X146742171Y-107325964D01*
X146742169Y-107325965D01*
X146548597Y-107461505D01*
X146381505Y-107628597D01*
X146251575Y-107814158D01*
X146196998Y-107857783D01*
X146127500Y-107864977D01*
X146065145Y-107833454D01*
X146048425Y-107814158D01*
X145918494Y-107628597D01*
X145751402Y-107461506D01*
X145751395Y-107461501D01*
X145557834Y-107325967D01*
X145557830Y-107325965D01*
X145523593Y-107310000D01*
X145343663Y-107226097D01*
X145343658Y-107226095D01*
X145343649Y-107226092D01*
X145314685Y-107218331D01*
X145255025Y-107181966D01*
X145224497Y-107119118D01*
X145232792Y-107049743D01*
X145277279Y-106995865D01*
X145280773Y-106993585D01*
X145382262Y-106929816D01*
X145509816Y-106802262D01*
X145535006Y-106762171D01*
X145587341Y-106715881D01*
X145656394Y-106705233D01*
X145720243Y-106733608D01*
X145744993Y-106762170D01*
X145770184Y-106802262D01*
X145897738Y-106929816D01*
X146050478Y-107025789D01*
X146185471Y-107073025D01*
X146220745Y-107085368D01*
X146220750Y-107085369D01*
X146399996Y-107105565D01*
X146400000Y-107105565D01*
X146400004Y-107105565D01*
X146579249Y-107085369D01*
X146579252Y-107085368D01*
X146579255Y-107085368D01*
X146749522Y-107025789D01*
X146902262Y-106929816D01*
X147029816Y-106802262D01*
X147125789Y-106649522D01*
X147185368Y-106479255D01*
X147185369Y-106479249D01*
X147205565Y-106300003D01*
X147205565Y-106299996D01*
X147185369Y-106120750D01*
X147185368Y-106120745D01*
X147125788Y-105950476D01*
X147034125Y-105804596D01*
X147029816Y-105797738D01*
X146902262Y-105670184D01*
X146749523Y-105574211D01*
X146579254Y-105514631D01*
X146579249Y-105514630D01*
X146400004Y-105494435D01*
X146399996Y-105494435D01*
X146220750Y-105514630D01*
X146220745Y-105514631D01*
X146050476Y-105574211D01*
X145897737Y-105670184D01*
X145770184Y-105797737D01*
X145770182Y-105797740D01*
X145744993Y-105837828D01*
X145692658Y-105884119D01*
X145623604Y-105894766D01*
X145559756Y-105866390D01*
X145535007Y-105837828D01*
X145509817Y-105797740D01*
X145509815Y-105797737D01*
X145382262Y-105670184D01*
X145229523Y-105574211D01*
X145059254Y-105514631D01*
X145059249Y-105514630D01*
X144880004Y-105494435D01*
X144879996Y-105494435D01*
X144700750Y-105514630D01*
X144700745Y-105514631D01*
X144530476Y-105574211D01*
X144377737Y-105670184D01*
X144250184Y-105797737D01*
X144154211Y-105950476D01*
X144094631Y-106120745D01*
X144094630Y-106120750D01*
X144074435Y-106299996D01*
X144074435Y-106300003D01*
X144094630Y-106479249D01*
X144094631Y-106479254D01*
X144154211Y-106649523D01*
X144197132Y-106717831D01*
X144250184Y-106802262D01*
X144377738Y-106929816D01*
X144472330Y-106989252D01*
X144479191Y-106993563D01*
X144525482Y-107045898D01*
X144536130Y-107114951D01*
X144507755Y-107178800D01*
X144449365Y-107217172D01*
X144445315Y-107218331D01*
X144416348Y-107226093D01*
X144416338Y-107226096D01*
X144416337Y-107226097D01*
X144416335Y-107226098D01*
X144202171Y-107325964D01*
X144202169Y-107325965D01*
X144008597Y-107461505D01*
X143841505Y-107628597D01*
X143711575Y-107814158D01*
X143656998Y-107857783D01*
X143587500Y-107864977D01*
X143525145Y-107833454D01*
X143508425Y-107814158D01*
X143378494Y-107628597D01*
X143211402Y-107461506D01*
X143211395Y-107461501D01*
X143017834Y-107325967D01*
X143017830Y-107325965D01*
X142983593Y-107310000D01*
X142803663Y-107226097D01*
X142803659Y-107226096D01*
X142803655Y-107226094D01*
X142575413Y-107164938D01*
X142575403Y-107164936D01*
X142462626Y-107155069D01*
X142397557Y-107129616D01*
X142356579Y-107073025D01*
X142352701Y-107003263D01*
X142387156Y-106942479D01*
X142397184Y-106934621D01*
X142396816Y-106934159D01*
X142402256Y-106929819D01*
X142402262Y-106929816D01*
X142529816Y-106802262D01*
X142625789Y-106649522D01*
X142685368Y-106479255D01*
X142685369Y-106479249D01*
X142705565Y-106300003D01*
X142705565Y-106299996D01*
X142685369Y-106120750D01*
X142685368Y-106120745D01*
X142625788Y-105950476D01*
X142534125Y-105804596D01*
X142529816Y-105797738D01*
X142402262Y-105670184D01*
X142249523Y-105574211D01*
X142079254Y-105514631D01*
X142079249Y-105514630D01*
X141900004Y-105494435D01*
X141899996Y-105494435D01*
X141720750Y-105514630D01*
X141720745Y-105514631D01*
X141550476Y-105574211D01*
X141397737Y-105670184D01*
X141270184Y-105797737D01*
X141204994Y-105901487D01*
X141152659Y-105947778D01*
X141083605Y-105958426D01*
X141019757Y-105930051D01*
X140995006Y-105901487D01*
X140934125Y-105804596D01*
X140929816Y-105797738D01*
X140802262Y-105670184D01*
X140649523Y-105574211D01*
X140479254Y-105514631D01*
X140479249Y-105514630D01*
X140300004Y-105494435D01*
X140299996Y-105494435D01*
X140120750Y-105514630D01*
X140120745Y-105514631D01*
X139950476Y-105574211D01*
X139797737Y-105670184D01*
X139670184Y-105797737D01*
X139574211Y-105950476D01*
X139514631Y-106120745D01*
X139514630Y-106120750D01*
X139494435Y-106299996D01*
X139494435Y-106300003D01*
X139514630Y-106479249D01*
X139514631Y-106479254D01*
X139574211Y-106649523D01*
X139617132Y-106717831D01*
X139670184Y-106802262D01*
X139797738Y-106929816D01*
X139797741Y-106929818D01*
X139797810Y-106929873D01*
X139797845Y-106929923D01*
X139802662Y-106934740D01*
X139801818Y-106935583D01*
X139837952Y-106987060D01*
X139840804Y-107056871D01*
X139805460Y-107117142D01*
X139743142Y-107148737D01*
X139731308Y-107150350D01*
X139564596Y-107164936D01*
X139564586Y-107164938D01*
X139336344Y-107226094D01*
X139336335Y-107226098D01*
X139122171Y-107325964D01*
X139122169Y-107325965D01*
X138928597Y-107461505D01*
X138761505Y-107628597D01*
X138631575Y-107814158D01*
X138576998Y-107857783D01*
X138507500Y-107864977D01*
X138445145Y-107833454D01*
X138428425Y-107814158D01*
X138298494Y-107628597D01*
X138131402Y-107461506D01*
X138131395Y-107461501D01*
X137937834Y-107325967D01*
X137937830Y-107325965D01*
X137903593Y-107310000D01*
X137723663Y-107226097D01*
X137723659Y-107226096D01*
X137723655Y-107226094D01*
X137495413Y-107164938D01*
X137495403Y-107164936D01*
X137260001Y-107144341D01*
X137259999Y-107144341D01*
X137024596Y-107164936D01*
X137024586Y-107164938D01*
X136796344Y-107226094D01*
X136796335Y-107226098D01*
X136582171Y-107325964D01*
X136582169Y-107325965D01*
X136388597Y-107461505D01*
X136221505Y-107628597D01*
X136091575Y-107814158D01*
X136036998Y-107857783D01*
X135967500Y-107864977D01*
X135905145Y-107833454D01*
X135888425Y-107814158D01*
X135758494Y-107628597D01*
X135591402Y-107461506D01*
X135591395Y-107461501D01*
X135397834Y-107325967D01*
X135397830Y-107325965D01*
X135363593Y-107310000D01*
X135183663Y-107226097D01*
X135183659Y-107226096D01*
X135183655Y-107226094D01*
X134955413Y-107164938D01*
X134955403Y-107164936D01*
X134720001Y-107144341D01*
X134719999Y-107144341D01*
X134484596Y-107164936D01*
X134484586Y-107164938D01*
X134256344Y-107226094D01*
X134256335Y-107226098D01*
X134042171Y-107325964D01*
X134042169Y-107325965D01*
X133848597Y-107461505D01*
X133681505Y-107628597D01*
X133551575Y-107814158D01*
X133496998Y-107857783D01*
X133427500Y-107864977D01*
X133365145Y-107833454D01*
X133348425Y-107814158D01*
X133218494Y-107628597D01*
X133051402Y-107461506D01*
X133051395Y-107461501D01*
X132861148Y-107328288D01*
X132817523Y-107273711D01*
X132810330Y-107204213D01*
X132841852Y-107141858D01*
X132902082Y-107106444D01*
X132918385Y-107103493D01*
X132977705Y-107096809D01*
X133079249Y-107085369D01*
X133079252Y-107085368D01*
X133079255Y-107085368D01*
X133249522Y-107025789D01*
X133402262Y-106929816D01*
X133529816Y-106802262D01*
X133625789Y-106649522D01*
X133685368Y-106479255D01*
X133685369Y-106479249D01*
X133705565Y-106300003D01*
X133705565Y-106299996D01*
X134994435Y-106299996D01*
X134994435Y-106300003D01*
X135014630Y-106479249D01*
X135014631Y-106479254D01*
X135074211Y-106649523D01*
X135117132Y-106717831D01*
X135170184Y-106802262D01*
X135297738Y-106929816D01*
X135450478Y-107025789D01*
X135585471Y-107073025D01*
X135620745Y-107085368D01*
X135620750Y-107085369D01*
X135799996Y-107105565D01*
X135800000Y-107105565D01*
X135800004Y-107105565D01*
X135979249Y-107085369D01*
X135979252Y-107085368D01*
X135979255Y-107085368D01*
X136149522Y-107025789D01*
X136302262Y-106929816D01*
X136429816Y-106802262D01*
X136525789Y-106649522D01*
X136585368Y-106479255D01*
X136585369Y-106479249D01*
X136605565Y-106300003D01*
X136605565Y-106299996D01*
X137594435Y-106299996D01*
X137594435Y-106300003D01*
X137614630Y-106479249D01*
X137614631Y-106479254D01*
X137674211Y-106649523D01*
X137717132Y-106717831D01*
X137770184Y-106802262D01*
X137897738Y-106929816D01*
X138050478Y-107025789D01*
X138185471Y-107073025D01*
X138220745Y-107085368D01*
X138220750Y-107085369D01*
X138399996Y-107105565D01*
X138400000Y-107105565D01*
X138400004Y-107105565D01*
X138579249Y-107085369D01*
X138579252Y-107085368D01*
X138579255Y-107085368D01*
X138749522Y-107025789D01*
X138902262Y-106929816D01*
X139029816Y-106802262D01*
X139125789Y-106649522D01*
X139185368Y-106479255D01*
X139185369Y-106479249D01*
X139205565Y-106300003D01*
X139205565Y-106299996D01*
X139185369Y-106120750D01*
X139185368Y-106120745D01*
X139125788Y-105950476D01*
X139034125Y-105804596D01*
X139029816Y-105797738D01*
X138902262Y-105670184D01*
X138749523Y-105574211D01*
X138579254Y-105514631D01*
X138579249Y-105514630D01*
X138400004Y-105494435D01*
X138399996Y-105494435D01*
X138220750Y-105514630D01*
X138220745Y-105514631D01*
X138050476Y-105574211D01*
X137897737Y-105670184D01*
X137770184Y-105797737D01*
X137674211Y-105950476D01*
X137614631Y-106120745D01*
X137614630Y-106120750D01*
X137594435Y-106299996D01*
X136605565Y-106299996D01*
X136585369Y-106120750D01*
X136585368Y-106120745D01*
X136525788Y-105950476D01*
X136434125Y-105804596D01*
X136429816Y-105797738D01*
X136302262Y-105670184D01*
X136149523Y-105574211D01*
X135979254Y-105514631D01*
X135979249Y-105514630D01*
X135800004Y-105494435D01*
X135799996Y-105494435D01*
X135620750Y-105514630D01*
X135620745Y-105514631D01*
X135450476Y-105574211D01*
X135297737Y-105670184D01*
X135170184Y-105797737D01*
X135074211Y-105950476D01*
X135014631Y-106120745D01*
X135014630Y-106120750D01*
X134994435Y-106299996D01*
X133705565Y-106299996D01*
X133685369Y-106120750D01*
X133685368Y-106120745D01*
X133625788Y-105950476D01*
X133534125Y-105804596D01*
X133529816Y-105797738D01*
X133402262Y-105670184D01*
X133249523Y-105574211D01*
X133079254Y-105514631D01*
X133079249Y-105514630D01*
X132900004Y-105494435D01*
X132899996Y-105494435D01*
X132720750Y-105514630D01*
X132720745Y-105514631D01*
X132550476Y-105574211D01*
X132397737Y-105670184D01*
X132270184Y-105797737D01*
X132204994Y-105901487D01*
X132152659Y-105947778D01*
X132083605Y-105958426D01*
X132019757Y-105930051D01*
X131995006Y-105901487D01*
X131934125Y-105804596D01*
X131929816Y-105797738D01*
X131802262Y-105670184D01*
X131649523Y-105574211D01*
X131479254Y-105514631D01*
X131479249Y-105514630D01*
X131300004Y-105494435D01*
X131299996Y-105494435D01*
X131120750Y-105514630D01*
X131120745Y-105514631D01*
X130950476Y-105574211D01*
X130797737Y-105670184D01*
X130670184Y-105797737D01*
X130574211Y-105950476D01*
X130514631Y-106120745D01*
X130514630Y-106120750D01*
X130494435Y-106299996D01*
X130494435Y-106300003D01*
X130514630Y-106479249D01*
X130514631Y-106479254D01*
X130574211Y-106649523D01*
X130617132Y-106717831D01*
X130670184Y-106802262D01*
X130797738Y-106929816D01*
X130950478Y-107025789D01*
X131085471Y-107073025D01*
X131120745Y-107085368D01*
X131120750Y-107085369D01*
X131299996Y-107105565D01*
X131300000Y-107105565D01*
X131300003Y-107105565D01*
X131436185Y-107090221D01*
X131505007Y-107102275D01*
X131556387Y-107149625D01*
X131574011Y-107217235D01*
X131552284Y-107283641D01*
X131506416Y-107322487D01*
X131506861Y-107323257D01*
X131502610Y-107325711D01*
X131502483Y-107325819D01*
X131502174Y-107325963D01*
X131502169Y-107325965D01*
X131308597Y-107461505D01*
X131141505Y-107628597D01*
X131011575Y-107814158D01*
X130956998Y-107857783D01*
X130887500Y-107864977D01*
X130825145Y-107833454D01*
X130808425Y-107814158D01*
X130678494Y-107628597D01*
X130511402Y-107461506D01*
X130511395Y-107461501D01*
X130317834Y-107325967D01*
X130317830Y-107325965D01*
X130283593Y-107310000D01*
X130103663Y-107226097D01*
X130103659Y-107226096D01*
X130103655Y-107226094D01*
X129875413Y-107164938D01*
X129875403Y-107164936D01*
X129640001Y-107144341D01*
X129639999Y-107144341D01*
X129404596Y-107164936D01*
X129404586Y-107164938D01*
X129176344Y-107226094D01*
X129176335Y-107226098D01*
X128962171Y-107325964D01*
X128962169Y-107325965D01*
X128768600Y-107461503D01*
X128646673Y-107583430D01*
X128585350Y-107616914D01*
X128515658Y-107611930D01*
X128459725Y-107570058D01*
X128442810Y-107539081D01*
X128393797Y-107407671D01*
X128393793Y-107407664D01*
X128307547Y-107292455D01*
X128307544Y-107292452D01*
X128192335Y-107206206D01*
X128192328Y-107206202D01*
X128057482Y-107155908D01*
X128057483Y-107155908D01*
X127997883Y-107149501D01*
X127997881Y-107149500D01*
X127997873Y-107149500D01*
X127997865Y-107149500D01*
X127681157Y-107149500D01*
X127614118Y-107129815D01*
X127568363Y-107077011D01*
X127558419Y-107007853D01*
X127587444Y-106944297D01*
X127597368Y-106934770D01*
X127597338Y-106934740D01*
X127620683Y-106911395D01*
X127729816Y-106802262D01*
X127825789Y-106649522D01*
X127885368Y-106479255D01*
X127885369Y-106479249D01*
X127905565Y-106300003D01*
X127905565Y-106299996D01*
X127885369Y-106120750D01*
X127885368Y-106120745D01*
X127825788Y-105950476D01*
X127734125Y-105804596D01*
X127729816Y-105797738D01*
X127602262Y-105670184D01*
X127449523Y-105574211D01*
X127279254Y-105514631D01*
X127279249Y-105514630D01*
X127100004Y-105494435D01*
X127099996Y-105494435D01*
X126920750Y-105514630D01*
X126920745Y-105514631D01*
X126750476Y-105574211D01*
X126597737Y-105670184D01*
X126470184Y-105797737D01*
X126374211Y-105950476D01*
X126314631Y-106120745D01*
X126314630Y-106120750D01*
X126294435Y-106299996D01*
X126294435Y-106300003D01*
X126314630Y-106479249D01*
X126314631Y-106479254D01*
X126374211Y-106649523D01*
X126470184Y-106802262D01*
X126602662Y-106934740D01*
X126601390Y-106936011D01*
X126636295Y-106985740D01*
X126639145Y-107055552D01*
X126603800Y-107115822D01*
X126541482Y-107147416D01*
X126518842Y-107149500D01*
X126202130Y-107149500D01*
X126202123Y-107149501D01*
X126142513Y-107155909D01*
X126132966Y-107159470D01*
X126063275Y-107164452D01*
X126001953Y-107130965D01*
X125972595Y-107084242D01*
X125968670Y-107073025D01*
X125925789Y-106950478D01*
X125916645Y-106935926D01*
X125886582Y-106888080D01*
X125829816Y-106797738D01*
X125702262Y-106670184D01*
X125656728Y-106641573D01*
X125549523Y-106574211D01*
X125379254Y-106514631D01*
X125379249Y-106514630D01*
X125200004Y-106494435D01*
X125199996Y-106494435D01*
X125020750Y-106514630D01*
X125020738Y-106514633D01*
X124966573Y-106533586D01*
X124896794Y-106537147D01*
X124836167Y-106502417D01*
X124803941Y-106440423D01*
X124805845Y-106384451D01*
X124835063Y-106275408D01*
X124855659Y-106040000D01*
X124835063Y-105804592D01*
X124782483Y-105608357D01*
X124784146Y-105538507D01*
X124823309Y-105480645D01*
X124836270Y-105471281D01*
X124902262Y-105429816D01*
X125029816Y-105302262D01*
X125125789Y-105149522D01*
X125185368Y-104979255D01*
X125198133Y-104865965D01*
X125205565Y-104800003D01*
X125205565Y-104799996D01*
X125185369Y-104620750D01*
X125185368Y-104620745D01*
X125125789Y-104450478D01*
X125029816Y-104297738D01*
X124902262Y-104170184D01*
X124821166Y-104119228D01*
X124774876Y-104066894D01*
X124764228Y-103997841D01*
X124772671Y-103968974D01*
X124772052Y-103968749D01*
X124773901Y-103963666D01*
X124773903Y-103963663D01*
X124835063Y-103735408D01*
X124855659Y-103500000D01*
X124835063Y-103264592D01*
X124790960Y-103099996D01*
X127994435Y-103099996D01*
X127994435Y-103100003D01*
X128014630Y-103279249D01*
X128014631Y-103279254D01*
X128074211Y-103449523D01*
X128105928Y-103500000D01*
X128170184Y-103602262D01*
X128297738Y-103729816D01*
X128450478Y-103825789D01*
X128620745Y-103885368D01*
X128620750Y-103885369D01*
X128799996Y-103905565D01*
X128800000Y-103905565D01*
X128800004Y-103905565D01*
X128979249Y-103885369D01*
X128979252Y-103885368D01*
X128979255Y-103885368D01*
X129149522Y-103825789D01*
X129302262Y-103729816D01*
X129429816Y-103602262D01*
X129525789Y-103449522D01*
X129585368Y-103279255D01*
X129605565Y-103100000D01*
X129597819Y-103031256D01*
X129585369Y-102920750D01*
X129585368Y-102920745D01*
X129554377Y-102832178D01*
X129525789Y-102750478D01*
X129429816Y-102597738D01*
X129302262Y-102470184D01*
X129288451Y-102461506D01*
X129149523Y-102374211D01*
X128979254Y-102314631D01*
X128979249Y-102314630D01*
X128800004Y-102294435D01*
X128799996Y-102294435D01*
X128620750Y-102314630D01*
X128620745Y-102314631D01*
X128450476Y-102374211D01*
X128297737Y-102470184D01*
X128170184Y-102597737D01*
X128074211Y-102750476D01*
X128014631Y-102920745D01*
X128014630Y-102920750D01*
X127994435Y-103099996D01*
X124790960Y-103099996D01*
X124773903Y-103036337D01*
X124773900Y-103036331D01*
X124772053Y-103031256D01*
X124773620Y-103030685D01*
X124764265Y-102969095D01*
X124792783Y-102905310D01*
X124821164Y-102880772D01*
X124902262Y-102829816D01*
X125029816Y-102702262D01*
X125125789Y-102549522D01*
X125185368Y-102379255D01*
X125185369Y-102379249D01*
X125205565Y-102200003D01*
X125205565Y-102199996D01*
X125185369Y-102020750D01*
X125185368Y-102020745D01*
X125177582Y-101998493D01*
X125143116Y-101899996D01*
X129694432Y-101899996D01*
X129694432Y-101900003D01*
X129714627Y-102079249D01*
X129714628Y-102079254D01*
X129774208Y-102249523D01*
X129815119Y-102314632D01*
X129870181Y-102402262D01*
X129997735Y-102529816D01*
X130065970Y-102572691D01*
X130148251Y-102624392D01*
X130150475Y-102625789D01*
X130158506Y-102628599D01*
X130320742Y-102685368D01*
X130320747Y-102685369D01*
X130499993Y-102705565D01*
X130499997Y-102705565D01*
X130500001Y-102705565D01*
X130679246Y-102685369D01*
X130679248Y-102685368D01*
X130679252Y-102685368D01*
X130679255Y-102685366D01*
X130679259Y-102685366D01*
X130856092Y-102623489D01*
X130856843Y-102625637D01*
X130915125Y-102616035D01*
X130943589Y-102624391D01*
X130943905Y-102623489D01*
X131120745Y-102685368D01*
X131120750Y-102685369D01*
X131299996Y-102705565D01*
X131300000Y-102705565D01*
X131300004Y-102705565D01*
X131479249Y-102685369D01*
X131479251Y-102685368D01*
X131479255Y-102685368D01*
X131479258Y-102685366D01*
X131479262Y-102685366D01*
X131656095Y-102623489D01*
X131656846Y-102625637D01*
X131715128Y-102616035D01*
X131743588Y-102624392D01*
X131743905Y-102623489D01*
X131920737Y-102685366D01*
X131920743Y-102685367D01*
X131920745Y-102685368D01*
X131920746Y-102685368D01*
X131920750Y-102685369D01*
X132099996Y-102705565D01*
X132100000Y-102705565D01*
X132100004Y-102705565D01*
X132279249Y-102685369D01*
X132279251Y-102685368D01*
X132279255Y-102685368D01*
X132279258Y-102685366D01*
X132279262Y-102685366D01*
X132456095Y-102623489D01*
X132456846Y-102625637D01*
X132515128Y-102616035D01*
X132543588Y-102624392D01*
X132543905Y-102623489D01*
X132720737Y-102685366D01*
X132720743Y-102685367D01*
X132720745Y-102685368D01*
X132720746Y-102685368D01*
X132720750Y-102685369D01*
X132899996Y-102705565D01*
X132900000Y-102705565D01*
X132900004Y-102705565D01*
X133079249Y-102685369D01*
X133079252Y-102685368D01*
X133079255Y-102685368D01*
X133249522Y-102625789D01*
X133251746Y-102624392D01*
X133300002Y-102594070D01*
X133384029Y-102541272D01*
X133451264Y-102522272D01*
X133515970Y-102541272D01*
X133565973Y-102572691D01*
X133650475Y-102625788D01*
X133820745Y-102685368D01*
X133820750Y-102685369D01*
X133999996Y-102705565D01*
X134000000Y-102705565D01*
X134000004Y-102705565D01*
X134179249Y-102685369D01*
X134179252Y-102685368D01*
X134179255Y-102685368D01*
X134349522Y-102625789D01*
X134351746Y-102624392D01*
X134434027Y-102572691D01*
X134501264Y-102553690D01*
X134565973Y-102572691D01*
X134650475Y-102625788D01*
X134820745Y-102685368D01*
X134820750Y-102685369D01*
X134999996Y-102705565D01*
X135000000Y-102705565D01*
X135000004Y-102705565D01*
X135179249Y-102685369D01*
X135179251Y-102685368D01*
X135179255Y-102685368D01*
X135179258Y-102685366D01*
X135179262Y-102685366D01*
X135356095Y-102623489D01*
X135356846Y-102625637D01*
X135415128Y-102616035D01*
X135443592Y-102624391D01*
X135443908Y-102623489D01*
X135620748Y-102685368D01*
X135620753Y-102685369D01*
X135799999Y-102705565D01*
X135800003Y-102705565D01*
X135800007Y-102705565D01*
X135979252Y-102685369D01*
X135979254Y-102685368D01*
X135979258Y-102685368D01*
X135979261Y-102685366D01*
X135979265Y-102685366D01*
X136156098Y-102623489D01*
X136156849Y-102625637D01*
X136215131Y-102616035D01*
X136243595Y-102624391D01*
X136243911Y-102623489D01*
X136420751Y-102685368D01*
X136420756Y-102685369D01*
X136600002Y-102705565D01*
X136600006Y-102705565D01*
X136600010Y-102705565D01*
X136779255Y-102685369D01*
X136779257Y-102685368D01*
X136779261Y-102685368D01*
X136779264Y-102685366D01*
X136779268Y-102685366D01*
X136956101Y-102623489D01*
X136956852Y-102625637D01*
X137015134Y-102616035D01*
X137043598Y-102624391D01*
X137043914Y-102623489D01*
X137220754Y-102685368D01*
X137220759Y-102685369D01*
X137400005Y-102705565D01*
X137400009Y-102705565D01*
X137400013Y-102705565D01*
X137579258Y-102685369D01*
X137579261Y-102685368D01*
X137579264Y-102685368D01*
X137749531Y-102625789D01*
X137902271Y-102529816D01*
X138029825Y-102402262D01*
X138125798Y-102249522D01*
X138185377Y-102079255D01*
X138191969Y-102020750D01*
X138205574Y-101900003D01*
X138205574Y-101899996D01*
X138694435Y-101899996D01*
X138694435Y-101900003D01*
X138714630Y-102079249D01*
X138714631Y-102079254D01*
X138774211Y-102249523D01*
X138815122Y-102314632D01*
X138870184Y-102402262D01*
X138997738Y-102529816D01*
X139065973Y-102572691D01*
X139148254Y-102624392D01*
X139150478Y-102625789D01*
X139158509Y-102628599D01*
X139320745Y-102685368D01*
X139320750Y-102685369D01*
X139499996Y-102705565D01*
X139500000Y-102705565D01*
X139500004Y-102705565D01*
X139679249Y-102685369D01*
X139679251Y-102685368D01*
X139679255Y-102685368D01*
X139679258Y-102685366D01*
X139679262Y-102685366D01*
X139856095Y-102623489D01*
X139856846Y-102625637D01*
X139915128Y-102616035D01*
X139943588Y-102624392D01*
X139943905Y-102623489D01*
X140120737Y-102685366D01*
X140120743Y-102685367D01*
X140120745Y-102685368D01*
X140120746Y-102685368D01*
X140120750Y-102685369D01*
X140299996Y-102705565D01*
X140300000Y-102705565D01*
X140300004Y-102705565D01*
X140479249Y-102685369D01*
X140479251Y-102685368D01*
X140479255Y-102685368D01*
X140479258Y-102685366D01*
X140479262Y-102685366D01*
X140656095Y-102623489D01*
X140656846Y-102625637D01*
X140715128Y-102616035D01*
X140743588Y-102624392D01*
X140743905Y-102623489D01*
X140920737Y-102685366D01*
X140920743Y-102685367D01*
X140920745Y-102685368D01*
X140920746Y-102685368D01*
X140920750Y-102685369D01*
X141099996Y-102705565D01*
X141100000Y-102705565D01*
X141100004Y-102705565D01*
X141279249Y-102685369D01*
X141279251Y-102685368D01*
X141279255Y-102685368D01*
X141279258Y-102685366D01*
X141279262Y-102685366D01*
X141456095Y-102623489D01*
X141456846Y-102625637D01*
X141515128Y-102616035D01*
X141543592Y-102624391D01*
X141543908Y-102623489D01*
X141720748Y-102685368D01*
X141720753Y-102685369D01*
X141899999Y-102705565D01*
X141900003Y-102705565D01*
X141900007Y-102705565D01*
X142079252Y-102685369D01*
X142079255Y-102685368D01*
X142079258Y-102685368D01*
X142249525Y-102625789D01*
X142384030Y-102541273D01*
X142451265Y-102522274D01*
X142515973Y-102541274D01*
X142648254Y-102624392D01*
X142650478Y-102625789D01*
X142658509Y-102628599D01*
X142820745Y-102685368D01*
X142820750Y-102685369D01*
X142999996Y-102705565D01*
X143000000Y-102705565D01*
X143000004Y-102705565D01*
X143179249Y-102685369D01*
X143179252Y-102685368D01*
X143179255Y-102685368D01*
X143349522Y-102625789D01*
X143351746Y-102624392D01*
X143434027Y-102572691D01*
X143501264Y-102553690D01*
X143565973Y-102572691D01*
X143650475Y-102625788D01*
X143820745Y-102685368D01*
X143820750Y-102685369D01*
X143999996Y-102705565D01*
X144000000Y-102705565D01*
X144000004Y-102705565D01*
X144179249Y-102685369D01*
X144179251Y-102685368D01*
X144179255Y-102685368D01*
X144179258Y-102685366D01*
X144179262Y-102685366D01*
X144356095Y-102623489D01*
X144356846Y-102625637D01*
X144415128Y-102616035D01*
X144443588Y-102624392D01*
X144443905Y-102623489D01*
X144620737Y-102685366D01*
X144620743Y-102685367D01*
X144620745Y-102685368D01*
X144620746Y-102685368D01*
X144620750Y-102685369D01*
X144799996Y-102705565D01*
X144800000Y-102705565D01*
X144800004Y-102705565D01*
X144979249Y-102685369D01*
X144979251Y-102685368D01*
X144979255Y-102685368D01*
X144979258Y-102685366D01*
X144979262Y-102685366D01*
X145156095Y-102623489D01*
X145156846Y-102625637D01*
X145215128Y-102616035D01*
X145243588Y-102624392D01*
X145243905Y-102623489D01*
X145420737Y-102685366D01*
X145420743Y-102685367D01*
X145420745Y-102685368D01*
X145420746Y-102685368D01*
X145420750Y-102685369D01*
X145599996Y-102705565D01*
X145600000Y-102705565D01*
X145600004Y-102705565D01*
X145779249Y-102685369D01*
X145779251Y-102685368D01*
X145779255Y-102685368D01*
X145779258Y-102685366D01*
X145779262Y-102685366D01*
X145956095Y-102623489D01*
X145956846Y-102625637D01*
X146015128Y-102616035D01*
X146043588Y-102624392D01*
X146043905Y-102623489D01*
X146220737Y-102685366D01*
X146220743Y-102685367D01*
X146220745Y-102685368D01*
X146220746Y-102685368D01*
X146220750Y-102685369D01*
X146399996Y-102705565D01*
X146400000Y-102705565D01*
X146400004Y-102705565D01*
X146579249Y-102685369D01*
X146579252Y-102685368D01*
X146579255Y-102685368D01*
X146749522Y-102625789D01*
X146902262Y-102529816D01*
X147029816Y-102402262D01*
X147125789Y-102249522D01*
X147185368Y-102079255D01*
X147191960Y-102020750D01*
X147205565Y-101900003D01*
X147205565Y-101899996D01*
X147185369Y-101720750D01*
X147185368Y-101720745D01*
X147177318Y-101697739D01*
X147125789Y-101550478D01*
X147029816Y-101397738D01*
X146902262Y-101270184D01*
X146838017Y-101229816D01*
X146749523Y-101174211D01*
X146579254Y-101114631D01*
X146579249Y-101114630D01*
X146400004Y-101094435D01*
X146399996Y-101094435D01*
X146220750Y-101114630D01*
X146220737Y-101114633D01*
X146043906Y-101176510D01*
X146043155Y-101174364D01*
X145984856Y-101183962D01*
X145956409Y-101175609D01*
X145956094Y-101176510D01*
X145779262Y-101114633D01*
X145779249Y-101114630D01*
X145600004Y-101094435D01*
X145599996Y-101094435D01*
X145420750Y-101114630D01*
X145420737Y-101114633D01*
X145243906Y-101176510D01*
X145243155Y-101174364D01*
X145184856Y-101183962D01*
X145156409Y-101175609D01*
X145156094Y-101176510D01*
X144979262Y-101114633D01*
X144979249Y-101114630D01*
X144800004Y-101094435D01*
X144799996Y-101094435D01*
X144620750Y-101114630D01*
X144620737Y-101114633D01*
X144443906Y-101176510D01*
X144443155Y-101174364D01*
X144384856Y-101183962D01*
X144356409Y-101175609D01*
X144356094Y-101176510D01*
X144179262Y-101114633D01*
X144179249Y-101114630D01*
X144000004Y-101094435D01*
X143999996Y-101094435D01*
X143820750Y-101114630D01*
X143820737Y-101114633D01*
X143650479Y-101174209D01*
X143565971Y-101227309D01*
X143498734Y-101246309D01*
X143434029Y-101227309D01*
X143349520Y-101174209D01*
X143179262Y-101114633D01*
X143179249Y-101114630D01*
X143000004Y-101094435D01*
X142999996Y-101094435D01*
X142820750Y-101114630D01*
X142820745Y-101114631D01*
X142650476Y-101174211D01*
X142515973Y-101258726D01*
X142448736Y-101277726D01*
X142384030Y-101258726D01*
X142249525Y-101174211D01*
X142249519Y-101174209D01*
X142079257Y-101114631D01*
X142079252Y-101114630D01*
X141900007Y-101094435D01*
X141899999Y-101094435D01*
X141720753Y-101114630D01*
X141720740Y-101114633D01*
X141543909Y-101176510D01*
X141543160Y-101174369D01*
X141484824Y-101183958D01*
X141456408Y-101175611D01*
X141456094Y-101176510D01*
X141279262Y-101114633D01*
X141279249Y-101114630D01*
X141100004Y-101094435D01*
X141099996Y-101094435D01*
X140920750Y-101114630D01*
X140920737Y-101114633D01*
X140743906Y-101176510D01*
X140743155Y-101174364D01*
X140684856Y-101183962D01*
X140656409Y-101175609D01*
X140656094Y-101176510D01*
X140479262Y-101114633D01*
X140479249Y-101114630D01*
X140300004Y-101094435D01*
X140299996Y-101094435D01*
X140120750Y-101114630D01*
X140120737Y-101114633D01*
X139943906Y-101176510D01*
X139943155Y-101174364D01*
X139884856Y-101183962D01*
X139856409Y-101175609D01*
X139856094Y-101176510D01*
X139679262Y-101114633D01*
X139679249Y-101114630D01*
X139500004Y-101094435D01*
X139499996Y-101094435D01*
X139320750Y-101114630D01*
X139320745Y-101114631D01*
X139150476Y-101174211D01*
X138997737Y-101270184D01*
X138870184Y-101397737D01*
X138774211Y-101550476D01*
X138714631Y-101720745D01*
X138714630Y-101720750D01*
X138694435Y-101899996D01*
X138205574Y-101899996D01*
X138185378Y-101720750D01*
X138185377Y-101720745D01*
X138177327Y-101697739D01*
X138125798Y-101550478D01*
X138029825Y-101397738D01*
X137902271Y-101270184D01*
X137838026Y-101229816D01*
X137749532Y-101174211D01*
X137579263Y-101114631D01*
X137579258Y-101114630D01*
X137400013Y-101094435D01*
X137400005Y-101094435D01*
X137220759Y-101114630D01*
X137220746Y-101114633D01*
X137043915Y-101176510D01*
X137043166Y-101174369D01*
X136984830Y-101183958D01*
X136956414Y-101175611D01*
X136956100Y-101176510D01*
X136779268Y-101114633D01*
X136779255Y-101114630D01*
X136600010Y-101094435D01*
X136600002Y-101094435D01*
X136420756Y-101114630D01*
X136420743Y-101114633D01*
X136243912Y-101176510D01*
X136243163Y-101174369D01*
X136184827Y-101183958D01*
X136156411Y-101175611D01*
X136156097Y-101176510D01*
X135979265Y-101114633D01*
X135979252Y-101114630D01*
X135800007Y-101094435D01*
X135799999Y-101094435D01*
X135620753Y-101114630D01*
X135620740Y-101114633D01*
X135443909Y-101176510D01*
X135443160Y-101174369D01*
X135384824Y-101183958D01*
X135356408Y-101175611D01*
X135356094Y-101176510D01*
X135179262Y-101114633D01*
X135179249Y-101114630D01*
X135000004Y-101094435D01*
X134999996Y-101094435D01*
X134820750Y-101114630D01*
X134820737Y-101114633D01*
X134650479Y-101174209D01*
X134565971Y-101227309D01*
X134498734Y-101246309D01*
X134434029Y-101227309D01*
X134349520Y-101174209D01*
X134179262Y-101114633D01*
X134179249Y-101114630D01*
X134000004Y-101094435D01*
X133999996Y-101094435D01*
X133820750Y-101114630D01*
X133820745Y-101114631D01*
X133650476Y-101174211D01*
X133561983Y-101229816D01*
X133515974Y-101258726D01*
X133515972Y-101258727D01*
X133448736Y-101277727D01*
X133384028Y-101258727D01*
X133384026Y-101258726D01*
X133300001Y-101205929D01*
X133249523Y-101174211D01*
X133079254Y-101114631D01*
X133079249Y-101114630D01*
X132900004Y-101094435D01*
X132899996Y-101094435D01*
X132720750Y-101114630D01*
X132720737Y-101114633D01*
X132543906Y-101176510D01*
X132543155Y-101174364D01*
X132484856Y-101183962D01*
X132456409Y-101175609D01*
X132456094Y-101176510D01*
X132279262Y-101114633D01*
X132279249Y-101114630D01*
X132100004Y-101094435D01*
X132099996Y-101094435D01*
X131920750Y-101114630D01*
X131920737Y-101114633D01*
X131743906Y-101176510D01*
X131743155Y-101174364D01*
X131684856Y-101183962D01*
X131656409Y-101175609D01*
X131656094Y-101176510D01*
X131479262Y-101114633D01*
X131479249Y-101114630D01*
X131300004Y-101094435D01*
X131299996Y-101094435D01*
X131120750Y-101114630D01*
X131120737Y-101114633D01*
X130943906Y-101176510D01*
X130943157Y-101174369D01*
X130884821Y-101183958D01*
X130856405Y-101175611D01*
X130856091Y-101176510D01*
X130679259Y-101114633D01*
X130679246Y-101114630D01*
X130500001Y-101094435D01*
X130499993Y-101094435D01*
X130320747Y-101114630D01*
X130320742Y-101114631D01*
X130150473Y-101174211D01*
X129997734Y-101270184D01*
X129870181Y-101397737D01*
X129774208Y-101550476D01*
X129714628Y-101720745D01*
X129714627Y-101720750D01*
X129694432Y-101899996D01*
X125143116Y-101899996D01*
X125125789Y-101850478D01*
X125113798Y-101831395D01*
X125044272Y-101720745D01*
X125029816Y-101697738D01*
X124902262Y-101570184D01*
X124902260Y-101570182D01*
X124836285Y-101528727D01*
X124789994Y-101476392D01*
X124779347Y-101407339D01*
X124782483Y-101391641D01*
X124815408Y-101268762D01*
X124835063Y-101195408D01*
X124855659Y-100960000D01*
X124835063Y-100724592D01*
X124801678Y-100599996D01*
X125394435Y-100599996D01*
X125394435Y-100600003D01*
X125414630Y-100779249D01*
X125414631Y-100779254D01*
X125474211Y-100949523D01*
X125565266Y-101094435D01*
X125570184Y-101102262D01*
X125697738Y-101229816D01*
X125743748Y-101258726D01*
X125837957Y-101317922D01*
X125850478Y-101325789D01*
X126020745Y-101385368D01*
X126020750Y-101385369D01*
X126199996Y-101405565D01*
X126200000Y-101405565D01*
X126200004Y-101405565D01*
X126379249Y-101385369D01*
X126379252Y-101385368D01*
X126379255Y-101385368D01*
X126549522Y-101325789D01*
X126702262Y-101229816D01*
X126829816Y-101102262D01*
X126925789Y-100949522D01*
X126985368Y-100779255D01*
X127005565Y-100600000D01*
X126995564Y-100511240D01*
X126985369Y-100420750D01*
X126985368Y-100420745D01*
X126955489Y-100335356D01*
X126925789Y-100250478D01*
X126869006Y-100160108D01*
X126850000Y-100094136D01*
X126850000Y-99133012D01*
X126907007Y-99165925D01*
X127034174Y-99200000D01*
X127165826Y-99200000D01*
X127292993Y-99165925D01*
X127350000Y-99133012D01*
X127350000Y-100050000D01*
X127997828Y-100050000D01*
X127997844Y-100049999D01*
X128057372Y-100043598D01*
X128057379Y-100043596D01*
X128192086Y-99993354D01*
X128192093Y-99993350D01*
X128307187Y-99907190D01*
X128307190Y-99907187D01*
X128393350Y-99792093D01*
X128393354Y-99792086D01*
X128427702Y-99699994D01*
X130494435Y-99699994D01*
X130494435Y-99700001D01*
X130514630Y-99879247D01*
X130514631Y-99879252D01*
X130574211Y-100049521D01*
X130604508Y-100097738D01*
X130670184Y-100202260D01*
X130797738Y-100329814D01*
X130836370Y-100354088D01*
X130942461Y-100420750D01*
X130950478Y-100425787D01*
X130957803Y-100428350D01*
X131120745Y-100485366D01*
X131120750Y-100485367D01*
X131299996Y-100505563D01*
X131300000Y-100505563D01*
X131300004Y-100505563D01*
X131479249Y-100485367D01*
X131479252Y-100485366D01*
X131479255Y-100485366D01*
X131649522Y-100425787D01*
X131802262Y-100329814D01*
X131929816Y-100202260D01*
X132025789Y-100049520D01*
X132085368Y-99879253D01*
X132085368Y-99879250D01*
X132085369Y-99879247D01*
X132105565Y-99700001D01*
X132105565Y-99699994D01*
X134994435Y-99699994D01*
X134994435Y-99700001D01*
X135014630Y-99879247D01*
X135014631Y-99879252D01*
X135074211Y-100049521D01*
X135104508Y-100097738D01*
X135170184Y-100202260D01*
X135297738Y-100329814D01*
X135336370Y-100354088D01*
X135442461Y-100420750D01*
X135450478Y-100425787D01*
X135457803Y-100428350D01*
X135620745Y-100485366D01*
X135620750Y-100485367D01*
X135799996Y-100505563D01*
X135800000Y-100505563D01*
X135800004Y-100505563D01*
X135979249Y-100485367D01*
X135979252Y-100485366D01*
X135979255Y-100485366D01*
X136149522Y-100425787D01*
X136302262Y-100329814D01*
X136429816Y-100202260D01*
X136525789Y-100049520D01*
X136585368Y-99879253D01*
X136585368Y-99879250D01*
X136585369Y-99879247D01*
X136605565Y-99700001D01*
X136605565Y-99699994D01*
X140294435Y-99699994D01*
X140294435Y-99700001D01*
X140314630Y-99879247D01*
X140314631Y-99879252D01*
X140374211Y-100049521D01*
X140404508Y-100097738D01*
X140470184Y-100202260D01*
X140597738Y-100329814D01*
X140636370Y-100354088D01*
X140742461Y-100420750D01*
X140750478Y-100425787D01*
X140757803Y-100428350D01*
X140920745Y-100485366D01*
X140920750Y-100485367D01*
X141099996Y-100505563D01*
X141100000Y-100505563D01*
X141100004Y-100505563D01*
X141279249Y-100485367D01*
X141279252Y-100485366D01*
X141279255Y-100485366D01*
X141449522Y-100425787D01*
X141602262Y-100329814D01*
X141729816Y-100202260D01*
X141825789Y-100049520D01*
X141885368Y-99879253D01*
X141885368Y-99879250D01*
X141885369Y-99879247D01*
X141905565Y-99700001D01*
X141905565Y-99699994D01*
X144794435Y-99699994D01*
X144794435Y-99700001D01*
X144814630Y-99879247D01*
X144814631Y-99879252D01*
X144874211Y-100049521D01*
X144904508Y-100097738D01*
X144970184Y-100202260D01*
X145097738Y-100329814D01*
X145136370Y-100354088D01*
X145242461Y-100420750D01*
X145250478Y-100425787D01*
X145257803Y-100428350D01*
X145420745Y-100485366D01*
X145420750Y-100485367D01*
X145599996Y-100505563D01*
X145600000Y-100505563D01*
X145600004Y-100505563D01*
X145779249Y-100485367D01*
X145779252Y-100485366D01*
X145779255Y-100485366D01*
X145949522Y-100425787D01*
X146102262Y-100329814D01*
X146229816Y-100202260D01*
X146325789Y-100049520D01*
X146385368Y-99879253D01*
X146385368Y-99879250D01*
X146385369Y-99879247D01*
X146405565Y-99700001D01*
X146405565Y-99699994D01*
X146385369Y-99520748D01*
X146385368Y-99520743D01*
X146325789Y-99350476D01*
X146229816Y-99197736D01*
X146102262Y-99070182D01*
X146019153Y-99017961D01*
X145949523Y-98974209D01*
X145779254Y-98914629D01*
X145779249Y-98914628D01*
X145600004Y-98894433D01*
X145599996Y-98894433D01*
X145420750Y-98914628D01*
X145420745Y-98914629D01*
X145250476Y-98974209D01*
X145097737Y-99070182D01*
X144970184Y-99197735D01*
X144874211Y-99350474D01*
X144814631Y-99520743D01*
X144814630Y-99520748D01*
X144794435Y-99699994D01*
X141905565Y-99699994D01*
X141885369Y-99520748D01*
X141885368Y-99520743D01*
X141825789Y-99350476D01*
X141729816Y-99197736D01*
X141602262Y-99070182D01*
X141519153Y-99017961D01*
X141449523Y-98974209D01*
X141279254Y-98914629D01*
X141279249Y-98914628D01*
X141100004Y-98894433D01*
X141099996Y-98894433D01*
X140920750Y-98914628D01*
X140920745Y-98914629D01*
X140750476Y-98974209D01*
X140597737Y-99070182D01*
X140470184Y-99197735D01*
X140374211Y-99350474D01*
X140314631Y-99520743D01*
X140314630Y-99520748D01*
X140294435Y-99699994D01*
X136605565Y-99699994D01*
X136585369Y-99520748D01*
X136585368Y-99520743D01*
X136525789Y-99350476D01*
X136429816Y-99197736D01*
X136302262Y-99070182D01*
X136219153Y-99017961D01*
X136149523Y-98974209D01*
X135979254Y-98914629D01*
X135979249Y-98914628D01*
X135800004Y-98894433D01*
X135799996Y-98894433D01*
X135620750Y-98914628D01*
X135620745Y-98914629D01*
X135450476Y-98974209D01*
X135297737Y-99070182D01*
X135170184Y-99197735D01*
X135074211Y-99350474D01*
X135014631Y-99520743D01*
X135014630Y-99520748D01*
X134994435Y-99699994D01*
X132105565Y-99699994D01*
X132085369Y-99520748D01*
X132085368Y-99520743D01*
X132025789Y-99350476D01*
X131929816Y-99197736D01*
X131802262Y-99070182D01*
X131719153Y-99017961D01*
X131649523Y-98974209D01*
X131479254Y-98914629D01*
X131479249Y-98914628D01*
X131300004Y-98894433D01*
X131299996Y-98894433D01*
X131120750Y-98914628D01*
X131120745Y-98914629D01*
X130950476Y-98974209D01*
X130797737Y-99070182D01*
X130670184Y-99197735D01*
X130574211Y-99350474D01*
X130514631Y-99520743D01*
X130514630Y-99520748D01*
X130494435Y-99699994D01*
X128427702Y-99699994D01*
X128443596Y-99657379D01*
X128443598Y-99657372D01*
X128449999Y-99597844D01*
X128450000Y-99597827D01*
X128450000Y-98950000D01*
X127533012Y-98950000D01*
X127565925Y-98892993D01*
X127600000Y-98765826D01*
X127600000Y-98634174D01*
X127565925Y-98507007D01*
X127533012Y-98450000D01*
X128450000Y-98450000D01*
X128450000Y-97802172D01*
X128449999Y-97802155D01*
X128443598Y-97742627D01*
X128443596Y-97742620D01*
X128393354Y-97607913D01*
X128393350Y-97607906D01*
X128307190Y-97492812D01*
X128307187Y-97492809D01*
X128192093Y-97406649D01*
X128192086Y-97406645D01*
X128057379Y-97356403D01*
X128057372Y-97356401D01*
X127997844Y-97350000D01*
X127350000Y-97350000D01*
X127350000Y-98266988D01*
X127292993Y-98234075D01*
X127165826Y-98200000D01*
X127034174Y-98200000D01*
X126907007Y-98234075D01*
X126850000Y-98266988D01*
X126850000Y-97350000D01*
X126202155Y-97350000D01*
X126142627Y-97356401D01*
X126142620Y-97356403D01*
X126007913Y-97406645D01*
X126007906Y-97406649D01*
X125892812Y-97492809D01*
X125892809Y-97492812D01*
X125806649Y-97607906D01*
X125806645Y-97607913D01*
X125756403Y-97742620D01*
X125756401Y-97742627D01*
X125750000Y-97802155D01*
X125750000Y-98450000D01*
X126666988Y-98450000D01*
X126634075Y-98507007D01*
X126600000Y-98634174D01*
X126600000Y-98765826D01*
X126634075Y-98892993D01*
X126666988Y-98950000D01*
X125750000Y-98950000D01*
X125750000Y-99597844D01*
X125756401Y-99657372D01*
X125756403Y-99657380D01*
X125804496Y-99786325D01*
X125809480Y-99856017D01*
X125775994Y-99917340D01*
X125754287Y-99934651D01*
X125697740Y-99970182D01*
X125697737Y-99970184D01*
X125570184Y-100097737D01*
X125474211Y-100250476D01*
X125414631Y-100420745D01*
X125414630Y-100420750D01*
X125394435Y-100599996D01*
X124801678Y-100599996D01*
X124777896Y-100511239D01*
X124779559Y-100441390D01*
X124818722Y-100383528D01*
X124831691Y-100374158D01*
X124902262Y-100329816D01*
X125029816Y-100202262D01*
X125125789Y-100049522D01*
X125185368Y-99879255D01*
X125185369Y-99879247D01*
X125205565Y-99700003D01*
X125205565Y-99699996D01*
X125185369Y-99520750D01*
X125185368Y-99520745D01*
X125125788Y-99350476D01*
X125029815Y-99197737D01*
X124902259Y-99070181D01*
X124827113Y-99022965D01*
X124780821Y-98970631D01*
X124770172Y-98901577D01*
X124773309Y-98885878D01*
X124773901Y-98883665D01*
X124773903Y-98883663D01*
X124835063Y-98655408D01*
X124855659Y-98420000D01*
X124835063Y-98184592D01*
X124773903Y-97956337D01*
X124767543Y-97942699D01*
X124757052Y-97873625D01*
X124785571Y-97809840D01*
X124813950Y-97785305D01*
X124902262Y-97729816D01*
X125029816Y-97602262D01*
X125125789Y-97449522D01*
X125185368Y-97279255D01*
X125194636Y-97196998D01*
X125205565Y-97100003D01*
X125205565Y-97099996D01*
X125185369Y-96920750D01*
X125185368Y-96920745D01*
X125125788Y-96750476D01*
X125086582Y-96688080D01*
X125029816Y-96597738D01*
X124902262Y-96470184D01*
X124902261Y-96470183D01*
X124840873Y-96431610D01*
X124794582Y-96379275D01*
X124783934Y-96310221D01*
X124787070Y-96294523D01*
X124804408Y-96229815D01*
X124835063Y-96115408D01*
X124855659Y-95880000D01*
X124835063Y-95644592D01*
X124773903Y-95416337D01*
X124773901Y-95416334D01*
X124773309Y-95414122D01*
X124774972Y-95344273D01*
X124814135Y-95286410D01*
X124827113Y-95277035D01*
X124831804Y-95274088D01*
X124881137Y-95243089D01*
X124902259Y-95229818D01*
X124902259Y-95229817D01*
X124902262Y-95229816D01*
X125029816Y-95102262D01*
X125125789Y-94949522D01*
X125185368Y-94779255D01*
X125201903Y-94632500D01*
X125205565Y-94600003D01*
X125205565Y-94599996D01*
X125185369Y-94420750D01*
X125185368Y-94420745D01*
X125125788Y-94250476D01*
X125095413Y-94202135D01*
X125749500Y-94202135D01*
X125749500Y-95997870D01*
X125749501Y-95997876D01*
X125755908Y-96057483D01*
X125806202Y-96192328D01*
X125806206Y-96192335D01*
X125892452Y-96307544D01*
X125892455Y-96307547D01*
X126007664Y-96393793D01*
X126007671Y-96393797D01*
X126142517Y-96444091D01*
X126142516Y-96444091D01*
X126149444Y-96444835D01*
X126202127Y-96450500D01*
X127997872Y-96450499D01*
X128057483Y-96444091D01*
X128192331Y-96393796D01*
X128307546Y-96307546D01*
X128393796Y-96192331D01*
X128444091Y-96057483D01*
X128450500Y-95997873D01*
X128450500Y-95599996D01*
X131794435Y-95599996D01*
X131794435Y-95600003D01*
X131814630Y-95779249D01*
X131814631Y-95779254D01*
X131874211Y-95949523D01*
X131904598Y-95997883D01*
X131970184Y-96102262D01*
X132097738Y-96229816D01*
X132176410Y-96279249D01*
X132225701Y-96310221D01*
X132250478Y-96325789D01*
X132402935Y-96379136D01*
X132420745Y-96385368D01*
X132420750Y-96385369D01*
X132599996Y-96405565D01*
X132600000Y-96405565D01*
X132600004Y-96405565D01*
X132779249Y-96385369D01*
X132779252Y-96385368D01*
X132779255Y-96385368D01*
X132949522Y-96325789D01*
X133102262Y-96229816D01*
X133229816Y-96102262D01*
X133231240Y-96099996D01*
X146494435Y-96099996D01*
X146494435Y-96100003D01*
X146514630Y-96279249D01*
X146514631Y-96279254D01*
X146574211Y-96449523D01*
X146642265Y-96557830D01*
X146670184Y-96602262D01*
X146797738Y-96729816D01*
X146950478Y-96825789D01*
X147120745Y-96885368D01*
X147120750Y-96885369D01*
X147299996Y-96905565D01*
X147300000Y-96905565D01*
X147300004Y-96905565D01*
X147479249Y-96885369D01*
X147479252Y-96885368D01*
X147479255Y-96885368D01*
X147649522Y-96825789D01*
X147802262Y-96729816D01*
X147929816Y-96602262D01*
X148025789Y-96449522D01*
X148085368Y-96279255D01*
X148085369Y-96279249D01*
X148105565Y-96100003D01*
X148105565Y-96099996D01*
X148085369Y-95920750D01*
X148085368Y-95920745D01*
X148071110Y-95879999D01*
X148025789Y-95750478D01*
X147929816Y-95597738D01*
X147802262Y-95470184D01*
X147649523Y-95374211D01*
X147479254Y-95314631D01*
X147479249Y-95314630D01*
X147300004Y-95294435D01*
X147299996Y-95294435D01*
X147120750Y-95314630D01*
X147120745Y-95314631D01*
X146950476Y-95374211D01*
X146797737Y-95470184D01*
X146670184Y-95597737D01*
X146574211Y-95750476D01*
X146514631Y-95920745D01*
X146514630Y-95920750D01*
X146494435Y-96099996D01*
X133231240Y-96099996D01*
X133325789Y-95949522D01*
X133385368Y-95779255D01*
X133385369Y-95779249D01*
X133405565Y-95600003D01*
X133405565Y-95599996D01*
X133385369Y-95420750D01*
X133385368Y-95420745D01*
X133369085Y-95374211D01*
X133325789Y-95250478D01*
X133312807Y-95229818D01*
X133274746Y-95169244D01*
X133229816Y-95097738D01*
X133102262Y-94970184D01*
X133069379Y-94949522D01*
X132949523Y-94874211D01*
X132779254Y-94814631D01*
X132779249Y-94814630D01*
X132600004Y-94794435D01*
X132599996Y-94794435D01*
X132420750Y-94814630D01*
X132420745Y-94814631D01*
X132250476Y-94874211D01*
X132097737Y-94970184D01*
X131970184Y-95097737D01*
X131874211Y-95250476D01*
X131814631Y-95420745D01*
X131814630Y-95420750D01*
X131794435Y-95599996D01*
X128450500Y-95599996D01*
X128450499Y-94202128D01*
X128444091Y-94142517D01*
X128397587Y-94017834D01*
X128393797Y-94007671D01*
X128393793Y-94007664D01*
X128307547Y-93892455D01*
X128307544Y-93892452D01*
X128192335Y-93806206D01*
X128192328Y-93806202D01*
X128057482Y-93755908D01*
X128057483Y-93755908D01*
X127997883Y-93749501D01*
X127997881Y-93749500D01*
X127997873Y-93749500D01*
X127997864Y-93749500D01*
X126202129Y-93749500D01*
X126202123Y-93749501D01*
X126142516Y-93755908D01*
X126007671Y-93806202D01*
X126007664Y-93806206D01*
X125892455Y-93892452D01*
X125892452Y-93892455D01*
X125806206Y-94007664D01*
X125806202Y-94007671D01*
X125755908Y-94142517D01*
X125749501Y-94202116D01*
X125749501Y-94202123D01*
X125749500Y-94202135D01*
X125095413Y-94202135D01*
X125086582Y-94188080D01*
X125029816Y-94097738D01*
X124902262Y-93970184D01*
X124902260Y-93970182D01*
X124831698Y-93925845D01*
X124785408Y-93873511D01*
X124774760Y-93804457D01*
X124777896Y-93788759D01*
X124786698Y-93755909D01*
X124835063Y-93575408D01*
X124855659Y-93340000D01*
X124835063Y-93104592D01*
X124803117Y-92985368D01*
X124782483Y-92908357D01*
X124784146Y-92838507D01*
X124823309Y-92780645D01*
X124836270Y-92771281D01*
X124902262Y-92729816D01*
X125029816Y-92602262D01*
X125125789Y-92449522D01*
X125185368Y-92279255D01*
X125185369Y-92279249D01*
X125194299Y-92199996D01*
X140694435Y-92199996D01*
X140694435Y-92200003D01*
X140714630Y-92379249D01*
X140714631Y-92379254D01*
X140774211Y-92549523D01*
X140844992Y-92662169D01*
X140870184Y-92702262D01*
X140997738Y-92829816D01*
X141150478Y-92925789D01*
X141320745Y-92985368D01*
X141320750Y-92985369D01*
X141499996Y-93005565D01*
X141500000Y-93005565D01*
X141500004Y-93005565D01*
X141679249Y-92985369D01*
X141679252Y-92985368D01*
X141679255Y-92985368D01*
X141849522Y-92925789D01*
X142002262Y-92829816D01*
X142129816Y-92702262D01*
X142225789Y-92549522D01*
X142285368Y-92379255D01*
X142294128Y-92301506D01*
X142305565Y-92200003D01*
X142305565Y-92199996D01*
X142285369Y-92020750D01*
X142285368Y-92020745D01*
X142225788Y-91850476D01*
X142162955Y-91750478D01*
X142129816Y-91697738D01*
X142002262Y-91570184D01*
X141849523Y-91474211D01*
X141679254Y-91414631D01*
X141679249Y-91414630D01*
X141500004Y-91394435D01*
X141499996Y-91394435D01*
X141320750Y-91414630D01*
X141320745Y-91414631D01*
X141150476Y-91474211D01*
X140997737Y-91570184D01*
X140870184Y-91697737D01*
X140774211Y-91850476D01*
X140714631Y-92020745D01*
X140714630Y-92020750D01*
X140694435Y-92199996D01*
X125194299Y-92199996D01*
X125205565Y-92100003D01*
X125205565Y-92099996D01*
X125185369Y-91920750D01*
X125185368Y-91920745D01*
X125125789Y-91750478D01*
X125029816Y-91597738D01*
X124902262Y-91470184D01*
X124821166Y-91419228D01*
X124774876Y-91366894D01*
X124764228Y-91297841D01*
X124772671Y-91268974D01*
X124772052Y-91268749D01*
X124773901Y-91263666D01*
X124773903Y-91263663D01*
X124835063Y-91035408D01*
X124855659Y-90800000D01*
X124835063Y-90564592D01*
X124773903Y-90336337D01*
X124710326Y-90199996D01*
X133694435Y-90199996D01*
X133694435Y-90200003D01*
X133714630Y-90379249D01*
X133714631Y-90379254D01*
X133774211Y-90549523D01*
X133870184Y-90702262D01*
X133997738Y-90829816D01*
X134150478Y-90925789D01*
X134320745Y-90985368D01*
X134320750Y-90985369D01*
X134499996Y-91005565D01*
X134500000Y-91005565D01*
X134500004Y-91005565D01*
X134679249Y-90985369D01*
X134679252Y-90985368D01*
X134679255Y-90985368D01*
X134849522Y-90925789D01*
X135002262Y-90829816D01*
X135129816Y-90702262D01*
X135225789Y-90549522D01*
X135285368Y-90379255D01*
X135290204Y-90336335D01*
X135305565Y-90200003D01*
X135305565Y-90199996D01*
X135285369Y-90020750D01*
X135285368Y-90020745D01*
X135237998Y-89885369D01*
X135225789Y-89850478D01*
X135129816Y-89697738D01*
X135002262Y-89570184D01*
X134938310Y-89530000D01*
X134849523Y-89474211D01*
X134679254Y-89414631D01*
X134679249Y-89414630D01*
X134500004Y-89394435D01*
X134499996Y-89394435D01*
X134320750Y-89414630D01*
X134320745Y-89414631D01*
X134150476Y-89474211D01*
X133997737Y-89570184D01*
X133870184Y-89697737D01*
X133774211Y-89850476D01*
X133714631Y-90020745D01*
X133714630Y-90020750D01*
X133694435Y-90199996D01*
X124710326Y-90199996D01*
X124674035Y-90122171D01*
X124650980Y-90089244D01*
X124538494Y-89928597D01*
X124371402Y-89761506D01*
X124371396Y-89761501D01*
X124185842Y-89631575D01*
X124142217Y-89576998D01*
X124135023Y-89507500D01*
X124166546Y-89445145D01*
X124185842Y-89428425D01*
X124208026Y-89412891D01*
X124371401Y-89298495D01*
X124538495Y-89131401D01*
X124674035Y-88937830D01*
X124773903Y-88723663D01*
X124835063Y-88495408D01*
X124855659Y-88260000D01*
X124835063Y-88024592D01*
X124779164Y-87815970D01*
X124773905Y-87796344D01*
X124773904Y-87796343D01*
X124773903Y-87796337D01*
X124682347Y-87599996D01*
X127594435Y-87599996D01*
X127594435Y-87600003D01*
X127614630Y-87779249D01*
X127614631Y-87779254D01*
X127674211Y-87949523D01*
X127721383Y-88024596D01*
X127770184Y-88102262D01*
X127897738Y-88229816D01*
X128050478Y-88325789D01*
X128203258Y-88379249D01*
X128220745Y-88385368D01*
X128220750Y-88385369D01*
X128399996Y-88405565D01*
X128400000Y-88405565D01*
X128400004Y-88405565D01*
X128579249Y-88385369D01*
X128579252Y-88385368D01*
X128579255Y-88385368D01*
X128749522Y-88325789D01*
X128790571Y-88299996D01*
X133694435Y-88299996D01*
X133694435Y-88300003D01*
X133714630Y-88479249D01*
X133714631Y-88479254D01*
X133774211Y-88649523D01*
X133837644Y-88750475D01*
X133870184Y-88802262D01*
X133997738Y-88929816D01*
X134010494Y-88937831D01*
X134109444Y-89000006D01*
X134150478Y-89025789D01*
X134320745Y-89085368D01*
X134320750Y-89085369D01*
X134499996Y-89105565D01*
X134500000Y-89105565D01*
X134500004Y-89105565D01*
X134679249Y-89085369D01*
X134679252Y-89085368D01*
X134679255Y-89085368D01*
X134849522Y-89025789D01*
X135002262Y-88929816D01*
X135129816Y-88802262D01*
X135225789Y-88649522D01*
X135285368Y-88479255D01*
X135293671Y-88405565D01*
X135305565Y-88300003D01*
X135305565Y-88299996D01*
X135285369Y-88120750D01*
X135285368Y-88120745D01*
X135225789Y-87950478D01*
X135225188Y-87949522D01*
X135162955Y-87850478D01*
X135129816Y-87797738D01*
X135002262Y-87670184D01*
X134849523Y-87574211D01*
X134679254Y-87514631D01*
X134679249Y-87514630D01*
X134500004Y-87494435D01*
X134499996Y-87494435D01*
X134320750Y-87514630D01*
X134320745Y-87514631D01*
X134150476Y-87574211D01*
X133997737Y-87670184D01*
X133870184Y-87797737D01*
X133774211Y-87950476D01*
X133714631Y-88120745D01*
X133714630Y-88120750D01*
X133694435Y-88299996D01*
X128790571Y-88299996D01*
X128902262Y-88229816D01*
X129029816Y-88102262D01*
X129125789Y-87949522D01*
X129185368Y-87779255D01*
X129185369Y-87779249D01*
X129205565Y-87600003D01*
X129205565Y-87599996D01*
X129185369Y-87420750D01*
X129185368Y-87420745D01*
X129145065Y-87305565D01*
X129125789Y-87250478D01*
X129114780Y-87232958D01*
X129029815Y-87097737D01*
X128902262Y-86970184D01*
X128749523Y-86874211D01*
X128579254Y-86814631D01*
X128579249Y-86814630D01*
X128400004Y-86794435D01*
X128399996Y-86794435D01*
X128220750Y-86814630D01*
X128220745Y-86814631D01*
X128050476Y-86874211D01*
X127897737Y-86970184D01*
X127770184Y-87097737D01*
X127674211Y-87250476D01*
X127614631Y-87420745D01*
X127614630Y-87420750D01*
X127594435Y-87599996D01*
X124682347Y-87599996D01*
X124674035Y-87582171D01*
X124668462Y-87574211D01*
X124538494Y-87388597D01*
X124371402Y-87221506D01*
X124371396Y-87221501D01*
X124185842Y-87091575D01*
X124142217Y-87036998D01*
X124135023Y-86967500D01*
X124166546Y-86905145D01*
X124185842Y-86888425D01*
X124217013Y-86866599D01*
X124371401Y-86758495D01*
X124538495Y-86591401D01*
X124674035Y-86397830D01*
X124773903Y-86183663D01*
X124791297Y-86118746D01*
X129013185Y-86118746D01*
X129013185Y-86118753D01*
X129033380Y-86297999D01*
X129033381Y-86298004D01*
X129092961Y-86468273D01*
X129170324Y-86591395D01*
X129188934Y-86621012D01*
X129316488Y-86748566D01*
X129469228Y-86844539D01*
X129627729Y-86900001D01*
X129639495Y-86904118D01*
X129639500Y-86904119D01*
X129818746Y-86924315D01*
X129818750Y-86924315D01*
X129818754Y-86924315D01*
X129997999Y-86904119D01*
X129998002Y-86904118D01*
X129998005Y-86904118D01*
X130168272Y-86844539D01*
X130321012Y-86748566D01*
X130448566Y-86621012D01*
X130518254Y-86510105D01*
X131366066Y-86510105D01*
X131366066Y-86510112D01*
X131386261Y-86689358D01*
X131386262Y-86689363D01*
X131445842Y-86859632D01*
X131515279Y-86970139D01*
X131541815Y-87012371D01*
X131669369Y-87139925D01*
X131741276Y-87185107D01*
X131817934Y-87233275D01*
X131822109Y-87235898D01*
X131930087Y-87273681D01*
X131992376Y-87295477D01*
X131992381Y-87295478D01*
X132171627Y-87315674D01*
X132171631Y-87315674D01*
X132171635Y-87315674D01*
X132350880Y-87295478D01*
X132350883Y-87295477D01*
X132350886Y-87295477D01*
X132521153Y-87235898D01*
X132673893Y-87139925D01*
X132801447Y-87012371D01*
X132897420Y-86859631D01*
X132956999Y-86689364D01*
X132957000Y-86689358D01*
X132977196Y-86510112D01*
X132977196Y-86510105D01*
X132976057Y-86499996D01*
X134694435Y-86499996D01*
X134694435Y-86500003D01*
X134714630Y-86679249D01*
X134714631Y-86679254D01*
X134774211Y-86849523D01*
X134850000Y-86970139D01*
X134870184Y-87002262D01*
X134997738Y-87129816D01*
X135054513Y-87165490D01*
X135143661Y-87221506D01*
X135150478Y-87225789D01*
X135320745Y-87285368D01*
X135320750Y-87285369D01*
X135499996Y-87305565D01*
X135500000Y-87305565D01*
X135500004Y-87305565D01*
X135679249Y-87285369D01*
X135679252Y-87285368D01*
X135679255Y-87285368D01*
X135849522Y-87225789D01*
X136002262Y-87129816D01*
X136062319Y-87069759D01*
X136123642Y-87036274D01*
X136193334Y-87041258D01*
X136237681Y-87069759D01*
X136297738Y-87129816D01*
X136354513Y-87165490D01*
X136443661Y-87221506D01*
X136450478Y-87225789D01*
X136620745Y-87285368D01*
X136620750Y-87285369D01*
X136799996Y-87305565D01*
X136800000Y-87305565D01*
X136800004Y-87305565D01*
X136979249Y-87285369D01*
X136979252Y-87285368D01*
X136979255Y-87285368D01*
X137149522Y-87225789D01*
X137302262Y-87129816D01*
X137302262Y-87129815D01*
X137308158Y-87126111D01*
X137309165Y-87127714D01*
X137365100Y-87104874D01*
X137433797Y-87117624D01*
X137484695Y-87165490D01*
X137501634Y-87233275D01*
X137500957Y-87242111D01*
X137494435Y-87299998D01*
X137494435Y-87300006D01*
X137514630Y-87479252D01*
X137514633Y-87479265D01*
X137574209Y-87649521D01*
X137574211Y-87649525D01*
X137595891Y-87684029D01*
X137614891Y-87751266D01*
X137595892Y-87815971D01*
X137574209Y-87850479D01*
X137514633Y-88020737D01*
X137514630Y-88020750D01*
X137494435Y-88199996D01*
X137494435Y-88200003D01*
X137514630Y-88379249D01*
X137514633Y-88379262D01*
X137576510Y-88556094D01*
X137574366Y-88556843D01*
X137583960Y-88615161D01*
X137575612Y-88643595D01*
X137576510Y-88643909D01*
X137514633Y-88820740D01*
X137514630Y-88820753D01*
X137494435Y-88999999D01*
X137494435Y-89000006D01*
X137514630Y-89179252D01*
X137514631Y-89179257D01*
X137574211Y-89349526D01*
X137615120Y-89414632D01*
X137670184Y-89502265D01*
X137797738Y-89629819D01*
X137950478Y-89725792D01*
X138052540Y-89761505D01*
X138120745Y-89785371D01*
X138120750Y-89785372D01*
X138299996Y-89805568D01*
X138300000Y-89805568D01*
X138300004Y-89805568D01*
X138479249Y-89785372D01*
X138479252Y-89785371D01*
X138479255Y-89785371D01*
X138649522Y-89725792D01*
X138802262Y-89629819D01*
X138929816Y-89502265D01*
X139025789Y-89349525D01*
X139085368Y-89179258D01*
X139102660Y-89025788D01*
X139105565Y-89000006D01*
X139105565Y-88999999D01*
X139085369Y-88820753D01*
X139085368Y-88820748D01*
X139023489Y-88643908D01*
X139025635Y-88643156D01*
X139016037Y-88584857D01*
X139024391Y-88556410D01*
X139023489Y-88556095D01*
X139085366Y-88379262D01*
X139085369Y-88379249D01*
X139105565Y-88200003D01*
X139105565Y-88199996D01*
X139085369Y-88020750D01*
X139085368Y-88020745D01*
X139085365Y-88020737D01*
X139025789Y-87850478D01*
X139025787Y-87850475D01*
X139025787Y-87850474D01*
X139004108Y-87815971D01*
X138985108Y-87748735D01*
X139004108Y-87684029D01*
X139025789Y-87649525D01*
X139085368Y-87479258D01*
X139085368Y-87479255D01*
X139085369Y-87479252D01*
X139105565Y-87300006D01*
X139105565Y-87299999D01*
X139105565Y-87299996D01*
X139494435Y-87299996D01*
X139494435Y-87300003D01*
X139514630Y-87479249D01*
X139514633Y-87479262D01*
X139574209Y-87649519D01*
X139595893Y-87684030D01*
X139614892Y-87751267D01*
X139595893Y-87815970D01*
X139574209Y-87850480D01*
X139514633Y-88020737D01*
X139514630Y-88020750D01*
X139494435Y-88199996D01*
X139494435Y-88200003D01*
X139514630Y-88379249D01*
X139514631Y-88379254D01*
X139574211Y-88549523D01*
X139670184Y-88702262D01*
X139797738Y-88829816D01*
X139872898Y-88877042D01*
X139942450Y-88920745D01*
X139950478Y-88925789D01*
X140120745Y-88985368D01*
X140120750Y-88985369D01*
X140299996Y-89005565D01*
X140300000Y-89005565D01*
X140300004Y-89005565D01*
X140479249Y-88985369D01*
X140479252Y-88985368D01*
X140479255Y-88985368D01*
X140649522Y-88925789D01*
X140802262Y-88829816D01*
X140929816Y-88702262D01*
X141025789Y-88549522D01*
X141085368Y-88379255D01*
X141091392Y-88325789D01*
X141105565Y-88200003D01*
X141105565Y-88199996D01*
X141085369Y-88020750D01*
X141085368Y-88020745D01*
X141025788Y-87850475D01*
X141004108Y-87815973D01*
X140985107Y-87748737D01*
X141004108Y-87684027D01*
X141025788Y-87649524D01*
X141052141Y-87574211D01*
X141085368Y-87479255D01*
X141085369Y-87479249D01*
X141105565Y-87300003D01*
X141105565Y-87299996D01*
X141085369Y-87120750D01*
X141085368Y-87120745D01*
X141079814Y-87104874D01*
X141025789Y-86950478D01*
X141025786Y-86950474D01*
X141023985Y-86946732D01*
X141023546Y-86944069D01*
X141023489Y-86943905D01*
X141023517Y-86943894D01*
X141012633Y-86877791D01*
X141030712Y-86826956D01*
X141051473Y-86793915D01*
X141063868Y-86758493D01*
X141111053Y-86623646D01*
X141123845Y-86510112D01*
X141124985Y-86499996D01*
X141794435Y-86499996D01*
X141794435Y-86500003D01*
X141814630Y-86679249D01*
X141814631Y-86679254D01*
X141874211Y-86849523D01*
X141950000Y-86970139D01*
X141970184Y-87002262D01*
X142097738Y-87129816D01*
X142154513Y-87165490D01*
X142250479Y-87225790D01*
X142270966Y-87232959D01*
X142327741Y-87273681D01*
X142353488Y-87338634D01*
X142340031Y-87407196D01*
X142291643Y-87457598D01*
X142270966Y-87467041D01*
X142250479Y-87474209D01*
X142097737Y-87570184D01*
X141970184Y-87697737D01*
X141874211Y-87850476D01*
X141814631Y-88020745D01*
X141814630Y-88020750D01*
X141794435Y-88199996D01*
X141794435Y-88200003D01*
X141814630Y-88379249D01*
X141814633Y-88379262D01*
X141874209Y-88549519D01*
X141895893Y-88584030D01*
X141914892Y-88651267D01*
X141895893Y-88715970D01*
X141874209Y-88750480D01*
X141814633Y-88920737D01*
X141814630Y-88920750D01*
X141794435Y-89099996D01*
X141794435Y-89100003D01*
X141814630Y-89279249D01*
X141814631Y-89279254D01*
X141874211Y-89449523D01*
X141970184Y-89602262D01*
X142097738Y-89729816D01*
X142250478Y-89825789D01*
X142420745Y-89885368D01*
X142420750Y-89885369D01*
X142599996Y-89905565D01*
X142600000Y-89905565D01*
X142600004Y-89905565D01*
X142779249Y-89885369D01*
X142779252Y-89885368D01*
X142779255Y-89885368D01*
X142949522Y-89825789D01*
X143102262Y-89729816D01*
X143229816Y-89602262D01*
X143325789Y-89449522D01*
X143385368Y-89279255D01*
X143405565Y-89100000D01*
X143403916Y-89085369D01*
X143385369Y-88920750D01*
X143385368Y-88920745D01*
X143325788Y-88750475D01*
X143304108Y-88715973D01*
X143285107Y-88648737D01*
X143304108Y-88584027D01*
X143325788Y-88549524D01*
X143325790Y-88549519D01*
X143385368Y-88379255D01*
X143391392Y-88325789D01*
X143405565Y-88200003D01*
X143405565Y-88199996D01*
X143385369Y-88020750D01*
X143385368Y-88020745D01*
X143385365Y-88020737D01*
X143325789Y-87850478D01*
X143325786Y-87850474D01*
X143281033Y-87779249D01*
X143229816Y-87697738D01*
X143102262Y-87570184D01*
X143013850Y-87514631D01*
X142949521Y-87474210D01*
X142929035Y-87467042D01*
X142872258Y-87426320D01*
X142846511Y-87361367D01*
X142859967Y-87292806D01*
X142908354Y-87242403D01*
X142929035Y-87232958D01*
X142949522Y-87225789D01*
X142984027Y-87204108D01*
X143051263Y-87185107D01*
X143115973Y-87204108D01*
X143150475Y-87225788D01*
X143320745Y-87285368D01*
X143320750Y-87285369D01*
X143499996Y-87305565D01*
X143500000Y-87305565D01*
X143500004Y-87305565D01*
X143679249Y-87285369D01*
X143679252Y-87285368D01*
X143679255Y-87285368D01*
X143849522Y-87225789D01*
X144002262Y-87129816D01*
X144129816Y-87002262D01*
X144225789Y-86849522D01*
X144285368Y-86679255D01*
X144291634Y-86623645D01*
X144305565Y-86500003D01*
X144305565Y-86499996D01*
X144285369Y-86320750D01*
X144285368Y-86320745D01*
X144265911Y-86265141D01*
X144225789Y-86150478D01*
X144205850Y-86118746D01*
X144162954Y-86050477D01*
X144129816Y-85997738D01*
X144002262Y-85870184D01*
X143949999Y-85837345D01*
X143849523Y-85774211D01*
X143679254Y-85714631D01*
X143679249Y-85714630D01*
X143500004Y-85694435D01*
X143499996Y-85694435D01*
X143320750Y-85714630D01*
X143320737Y-85714633D01*
X143150480Y-85774209D01*
X143115970Y-85795893D01*
X143048733Y-85814892D01*
X142984030Y-85795893D01*
X142949519Y-85774209D01*
X142779262Y-85714633D01*
X142779249Y-85714630D01*
X142600004Y-85694435D01*
X142599996Y-85694435D01*
X142420750Y-85714630D01*
X142420745Y-85714631D01*
X142250476Y-85774211D01*
X142097737Y-85870184D01*
X141970184Y-85997737D01*
X141874211Y-86150476D01*
X141814631Y-86320745D01*
X141814630Y-86320750D01*
X141794435Y-86499996D01*
X141124985Y-86499996D01*
X141131250Y-86444394D01*
X141131250Y-86444387D01*
X141111054Y-86265141D01*
X141111053Y-86265136D01*
X141082544Y-86183663D01*
X141051474Y-86094869D01*
X140955501Y-85942129D01*
X140827947Y-85814575D01*
X140798215Y-85795893D01*
X140675208Y-85718602D01*
X140504939Y-85659022D01*
X140504934Y-85659021D01*
X140325689Y-85638826D01*
X140325681Y-85638826D01*
X140146435Y-85659021D01*
X140146430Y-85659022D01*
X139976161Y-85718602D01*
X139823422Y-85814575D01*
X139695869Y-85942128D01*
X139599896Y-86094867D01*
X139540316Y-86265136D01*
X139540315Y-86265141D01*
X139520120Y-86444387D01*
X139520120Y-86444394D01*
X139540315Y-86623640D01*
X139540318Y-86623653D01*
X139599892Y-86793904D01*
X139601700Y-86797658D01*
X139602139Y-86800325D01*
X139602195Y-86800485D01*
X139602167Y-86800494D01*
X139613052Y-86866599D01*
X139594975Y-86917431D01*
X139574209Y-86950480D01*
X139514633Y-87120737D01*
X139514630Y-87120750D01*
X139494435Y-87299996D01*
X139105565Y-87299996D01*
X139085369Y-87120753D01*
X139085368Y-87120748D01*
X139023489Y-86943908D01*
X139025635Y-86943156D01*
X139016037Y-86884857D01*
X139024391Y-86856410D01*
X139023489Y-86856095D01*
X139085366Y-86679262D01*
X139085369Y-86679249D01*
X139105565Y-86500003D01*
X139105565Y-86499996D01*
X139085369Y-86320750D01*
X139085368Y-86320745D01*
X139065911Y-86265141D01*
X139025789Y-86150478D01*
X139005850Y-86118746D01*
X138962954Y-86050477D01*
X138929816Y-85997738D01*
X138802262Y-85870184D01*
X138749999Y-85837345D01*
X138649523Y-85774211D01*
X138479254Y-85714631D01*
X138479249Y-85714630D01*
X138300004Y-85694435D01*
X138299996Y-85694435D01*
X138120750Y-85714630D01*
X138120745Y-85714631D01*
X137950476Y-85774211D01*
X137797737Y-85870184D01*
X137670184Y-85997737D01*
X137654994Y-86021913D01*
X137602659Y-86068204D01*
X137533605Y-86078852D01*
X137469757Y-86050477D01*
X137445006Y-86021913D01*
X137429815Y-85997737D01*
X137302262Y-85870184D01*
X137149523Y-85774211D01*
X136979254Y-85714631D01*
X136979249Y-85714630D01*
X136800004Y-85694435D01*
X136799996Y-85694435D01*
X136620750Y-85714630D01*
X136620745Y-85714631D01*
X136450476Y-85774211D01*
X136297737Y-85870184D01*
X136237681Y-85930241D01*
X136176358Y-85963726D01*
X136106666Y-85958742D01*
X136062319Y-85930241D01*
X136002262Y-85870184D01*
X135849523Y-85774211D01*
X135679254Y-85714631D01*
X135679249Y-85714630D01*
X135500004Y-85694435D01*
X135499996Y-85694435D01*
X135320750Y-85714630D01*
X135320745Y-85714631D01*
X135150476Y-85774211D01*
X134997737Y-85870184D01*
X134870184Y-85997737D01*
X134774211Y-86150476D01*
X134714631Y-86320745D01*
X134714630Y-86320750D01*
X134694435Y-86499996D01*
X132976057Y-86499996D01*
X132957000Y-86330859D01*
X132956999Y-86330854D01*
X132945504Y-86298004D01*
X132897420Y-86160587D01*
X132801447Y-86007847D01*
X132673893Y-85880293D01*
X132605542Y-85837345D01*
X132521154Y-85784320D01*
X132350885Y-85724740D01*
X132350880Y-85724739D01*
X132171635Y-85704544D01*
X132171627Y-85704544D01*
X131992381Y-85724739D01*
X131992376Y-85724740D01*
X131822107Y-85784320D01*
X131669368Y-85880293D01*
X131541815Y-86007846D01*
X131445842Y-86160585D01*
X131386262Y-86330854D01*
X131386261Y-86330859D01*
X131366066Y-86510105D01*
X130518254Y-86510105D01*
X130544539Y-86468272D01*
X130604118Y-86298005D01*
X130607821Y-86265141D01*
X130624315Y-86118753D01*
X130624315Y-86118746D01*
X130604119Y-85939500D01*
X130604118Y-85939495D01*
X130568374Y-85837345D01*
X130544539Y-85769228D01*
X130448566Y-85616488D01*
X130321012Y-85488934D01*
X130314092Y-85484586D01*
X130168273Y-85392961D01*
X129998004Y-85333381D01*
X129997999Y-85333380D01*
X129818754Y-85313185D01*
X129818746Y-85313185D01*
X129639500Y-85333380D01*
X129639495Y-85333381D01*
X129469226Y-85392961D01*
X129316487Y-85488934D01*
X129188934Y-85616487D01*
X129092961Y-85769226D01*
X129033381Y-85939495D01*
X129033380Y-85939500D01*
X129013185Y-86118746D01*
X124791297Y-86118746D01*
X124835063Y-85955408D01*
X124855659Y-85720000D01*
X124855189Y-85714633D01*
X124846603Y-85616488D01*
X124835063Y-85484592D01*
X124773903Y-85256337D01*
X124674035Y-85042171D01*
X124650980Y-85009244D01*
X124538494Y-84848597D01*
X124371402Y-84681506D01*
X124371396Y-84681501D01*
X124185842Y-84551575D01*
X124142217Y-84496998D01*
X124135023Y-84427500D01*
X124166546Y-84365145D01*
X124185842Y-84348425D01*
X124262823Y-84294522D01*
X124371401Y-84218495D01*
X124538495Y-84051401D01*
X124674035Y-83857830D01*
X124773903Y-83643663D01*
X124835063Y-83415408D01*
X124855659Y-83180000D01*
X124855152Y-83174210D01*
X124842519Y-83029815D01*
X124835063Y-82944592D01*
X124823687Y-82902135D01*
X125949500Y-82902135D01*
X125949500Y-84697870D01*
X125949501Y-84697876D01*
X125955908Y-84757483D01*
X126006202Y-84892328D01*
X126006206Y-84892335D01*
X126092452Y-85007544D01*
X126092455Y-85007547D01*
X126207664Y-85093793D01*
X126207671Y-85093797D01*
X126342517Y-85144091D01*
X126342516Y-85144091D01*
X126349444Y-85144835D01*
X126402127Y-85150500D01*
X128197872Y-85150499D01*
X128257483Y-85144091D01*
X128392331Y-85093796D01*
X128507546Y-85007546D01*
X128593796Y-84892331D01*
X128644091Y-84757483D01*
X128650500Y-84697873D01*
X128650499Y-82902128D01*
X128644091Y-82842517D01*
X128639353Y-82829815D01*
X128593797Y-82707671D01*
X128593793Y-82707664D01*
X128507547Y-82592455D01*
X128507544Y-82592452D01*
X128392335Y-82506206D01*
X128392328Y-82506202D01*
X128257482Y-82455908D01*
X128257483Y-82455908D01*
X128197883Y-82449501D01*
X128197881Y-82449500D01*
X128197873Y-82449500D01*
X128197864Y-82449500D01*
X126402129Y-82449500D01*
X126402123Y-82449501D01*
X126342516Y-82455908D01*
X126207671Y-82506202D01*
X126207664Y-82506206D01*
X126092455Y-82592452D01*
X126092452Y-82592455D01*
X126006206Y-82707664D01*
X126006202Y-82707671D01*
X125955908Y-82842517D01*
X125953930Y-82860919D01*
X125949501Y-82902123D01*
X125949500Y-82902135D01*
X124823687Y-82902135D01*
X124773903Y-82716337D01*
X124674035Y-82502171D01*
X124650980Y-82469244D01*
X124538494Y-82308597D01*
X124371402Y-82141506D01*
X124371396Y-82141501D01*
X124185842Y-82011575D01*
X124142217Y-81956998D01*
X124135023Y-81887500D01*
X124166546Y-81825145D01*
X124185842Y-81808425D01*
X124247805Y-81765038D01*
X124371401Y-81678495D01*
X124538495Y-81511401D01*
X124674035Y-81317830D01*
X124773903Y-81103663D01*
X124774886Y-81099996D01*
X130194435Y-81099996D01*
X130194435Y-81100003D01*
X130214630Y-81279249D01*
X130214631Y-81279254D01*
X130274211Y-81449523D01*
X130337493Y-81550235D01*
X130370184Y-81602262D01*
X130497738Y-81729816D01*
X130561983Y-81770184D01*
X130631771Y-81814035D01*
X130650478Y-81825789D01*
X130744967Y-81858852D01*
X130820745Y-81885368D01*
X130820750Y-81885369D01*
X130999996Y-81905565D01*
X131000000Y-81905565D01*
X131000004Y-81905565D01*
X131179249Y-81885369D01*
X131179252Y-81885368D01*
X131179255Y-81885368D01*
X131349522Y-81825789D01*
X131368229Y-81814035D01*
X131415968Y-81784038D01*
X131494073Y-81734961D01*
X131561308Y-81715961D01*
X131628143Y-81736328D01*
X131673358Y-81789596D01*
X131682596Y-81858852D01*
X131665038Y-81905927D01*
X131574211Y-82050476D01*
X131514631Y-82220745D01*
X131514630Y-82220750D01*
X131494435Y-82399996D01*
X131494435Y-82400003D01*
X131514630Y-82579249D01*
X131514632Y-82579257D01*
X131556282Y-82698286D01*
X131559843Y-82768065D01*
X131525114Y-82828692D01*
X131463121Y-82860919D01*
X131398286Y-82856282D01*
X131279257Y-82814632D01*
X131279249Y-82814630D01*
X131100004Y-82794435D01*
X131099996Y-82794435D01*
X130920750Y-82814630D01*
X130920745Y-82814631D01*
X130750476Y-82874211D01*
X130597737Y-82970184D01*
X130470184Y-83097737D01*
X130374211Y-83250476D01*
X130314633Y-83420742D01*
X130314630Y-83420750D01*
X130294435Y-83599996D01*
X130294435Y-83600003D01*
X130314630Y-83779249D01*
X130314631Y-83779254D01*
X130374211Y-83949523D01*
X130455724Y-84079249D01*
X130470184Y-84102262D01*
X130597738Y-84229816D01*
X130750478Y-84325789D01*
X130831201Y-84354035D01*
X130859851Y-84364060D01*
X130916627Y-84404782D01*
X130935938Y-84440146D01*
X130974211Y-84549523D01*
X130974212Y-84549524D01*
X131021254Y-84624391D01*
X131070184Y-84702262D01*
X131197738Y-84829816D01*
X131350478Y-84925789D01*
X131520745Y-84985368D01*
X131520750Y-84985369D01*
X131699996Y-85005565D01*
X131700000Y-85005565D01*
X131700004Y-85005565D01*
X131879249Y-84985369D01*
X131879252Y-84985368D01*
X131879255Y-84985368D01*
X132049522Y-84925789D01*
X132202262Y-84829816D01*
X132329816Y-84702262D01*
X132425789Y-84549522D01*
X132485368Y-84379255D01*
X132491392Y-84325789D01*
X132505565Y-84200003D01*
X132505565Y-84199996D01*
X132485369Y-84020750D01*
X132485368Y-84020745D01*
X132450376Y-83920745D01*
X132443116Y-83899996D01*
X134394435Y-83899996D01*
X134394435Y-83900003D01*
X134414630Y-84079249D01*
X134414631Y-84079254D01*
X134474211Y-84249523D01*
X134536356Y-84348425D01*
X134570184Y-84402262D01*
X134697738Y-84529816D01*
X134769355Y-84574816D01*
X134849400Y-84625112D01*
X134850478Y-84625789D01*
X134979078Y-84670788D01*
X135020745Y-84685368D01*
X135020750Y-84685369D01*
X135199996Y-84705565D01*
X135200000Y-84705565D01*
X135200004Y-84705565D01*
X135379249Y-84685369D01*
X135379252Y-84685368D01*
X135379255Y-84685368D01*
X135549522Y-84625789D01*
X135599271Y-84594528D01*
X135666505Y-84575528D01*
X135731215Y-84594529D01*
X135750702Y-84606773D01*
X135920961Y-84666350D01*
X135920967Y-84666351D01*
X135920969Y-84666352D01*
X135920970Y-84666352D01*
X135920974Y-84666353D01*
X136100220Y-84686549D01*
X136100224Y-84686549D01*
X136100228Y-84686549D01*
X136279473Y-84666353D01*
X136279476Y-84666352D01*
X136279479Y-84666352D01*
X136279480Y-84666351D01*
X136279483Y-84666351D01*
X136320332Y-84652056D01*
X136438643Y-84610657D01*
X136508419Y-84607095D01*
X136545564Y-84622703D01*
X136550475Y-84625789D01*
X136679075Y-84670788D01*
X136720742Y-84685368D01*
X136720747Y-84685369D01*
X136899993Y-84705565D01*
X136899997Y-84705565D01*
X136900001Y-84705565D01*
X137079246Y-84685369D01*
X137079248Y-84685368D01*
X137079252Y-84685368D01*
X137079255Y-84685366D01*
X137079259Y-84685366D01*
X137256092Y-84623489D01*
X137256843Y-84625637D01*
X137315125Y-84616035D01*
X137343589Y-84624391D01*
X137343905Y-84623489D01*
X137520745Y-84685368D01*
X137520750Y-84685369D01*
X137699996Y-84705565D01*
X137700000Y-84705565D01*
X137700004Y-84705565D01*
X137879249Y-84685369D01*
X137879251Y-84685368D01*
X137879255Y-84685368D01*
X137879258Y-84685366D01*
X137879262Y-84685366D01*
X138038016Y-84629815D01*
X138049522Y-84625789D01*
X138049525Y-84625786D01*
X138055795Y-84622768D01*
X138056924Y-84625112D01*
X138112648Y-84609350D01*
X138177388Y-84628350D01*
X138237870Y-84666353D01*
X138244930Y-84670789D01*
X138334875Y-84702262D01*
X138415197Y-84730368D01*
X138415202Y-84730369D01*
X138594448Y-84750565D01*
X138594452Y-84750565D01*
X138594456Y-84750565D01*
X138773701Y-84730369D01*
X138773704Y-84730368D01*
X138773707Y-84730368D01*
X138943974Y-84670789D01*
X139096714Y-84574816D01*
X139224268Y-84447262D01*
X139320241Y-84294522D01*
X139379820Y-84124255D01*
X139382553Y-84100000D01*
X139393821Y-83999996D01*
X141394435Y-83999996D01*
X141394435Y-84000003D01*
X141414630Y-84179249D01*
X141414631Y-84179254D01*
X141474211Y-84349523D01*
X141551483Y-84472500D01*
X141570184Y-84502262D01*
X141697738Y-84629816D01*
X141850478Y-84725789D01*
X142020745Y-84785368D01*
X142020750Y-84785369D01*
X142199996Y-84805565D01*
X142200000Y-84805565D01*
X142200004Y-84805565D01*
X142379249Y-84785369D01*
X142379252Y-84785368D01*
X142379255Y-84785368D01*
X142549522Y-84725789D01*
X142702262Y-84629816D01*
X142829816Y-84502262D01*
X142925789Y-84349522D01*
X142985368Y-84179255D01*
X142994043Y-84102262D01*
X142994298Y-84099996D01*
X144794435Y-84099996D01*
X144794435Y-84100003D01*
X144814630Y-84279249D01*
X144814631Y-84279254D01*
X144874211Y-84449523D01*
X144965037Y-84594070D01*
X144970184Y-84602262D01*
X145097738Y-84729816D01*
X145250478Y-84825789D01*
X145420745Y-84885368D01*
X145420750Y-84885369D01*
X145599996Y-84905565D01*
X145600000Y-84905565D01*
X145600004Y-84905565D01*
X145779249Y-84885369D01*
X145779252Y-84885368D01*
X145779255Y-84885368D01*
X145949522Y-84825789D01*
X146102262Y-84729816D01*
X146229816Y-84602262D01*
X146325789Y-84449522D01*
X146385368Y-84279255D01*
X146388718Y-84249522D01*
X146405565Y-84100003D01*
X146405565Y-84099996D01*
X146385369Y-83920750D01*
X146385368Y-83920745D01*
X146363353Y-83857830D01*
X146325789Y-83750478D01*
X146307106Y-83720745D01*
X146262955Y-83650478D01*
X146229816Y-83597738D01*
X146102262Y-83470184D01*
X146058582Y-83442738D01*
X145949523Y-83374211D01*
X145779254Y-83314631D01*
X145779249Y-83314630D01*
X145600004Y-83294435D01*
X145599996Y-83294435D01*
X145420750Y-83314630D01*
X145420745Y-83314631D01*
X145250476Y-83374211D01*
X145097737Y-83470184D01*
X144970184Y-83597737D01*
X144874211Y-83750476D01*
X144814631Y-83920745D01*
X144814630Y-83920750D01*
X144794435Y-84099996D01*
X142994298Y-84099996D01*
X143005565Y-84000003D01*
X143005565Y-83999996D01*
X142985369Y-83820750D01*
X142985368Y-83820745D01*
X142966123Y-83765745D01*
X142925789Y-83650478D01*
X142921507Y-83643664D01*
X142862955Y-83550478D01*
X142829816Y-83497738D01*
X142702262Y-83370184D01*
X142685820Y-83359853D01*
X142549523Y-83274211D01*
X142379254Y-83214631D01*
X142379249Y-83214630D01*
X142200004Y-83194435D01*
X142199996Y-83194435D01*
X142020750Y-83214630D01*
X142020745Y-83214631D01*
X141850476Y-83274211D01*
X141697737Y-83370184D01*
X141570184Y-83497737D01*
X141474211Y-83650476D01*
X141414631Y-83820745D01*
X141414630Y-83820750D01*
X141394435Y-83999996D01*
X139393821Y-83999996D01*
X139400017Y-83945003D01*
X139400017Y-83944996D01*
X139379821Y-83765750D01*
X139379820Y-83765745D01*
X139374477Y-83750476D01*
X139320241Y-83595478D01*
X139224268Y-83442738D01*
X139096714Y-83315184D01*
X138943975Y-83219211D01*
X138773706Y-83159631D01*
X138773701Y-83159630D01*
X138594456Y-83139435D01*
X138594448Y-83139435D01*
X138415202Y-83159630D01*
X138415189Y-83159633D01*
X138244930Y-83219210D01*
X138238658Y-83222231D01*
X138237535Y-83219901D01*
X138181710Y-83235648D01*
X138117062Y-83216649D01*
X138049522Y-83174210D01*
X138049518Y-83174209D01*
X137879262Y-83114633D01*
X137879249Y-83114630D01*
X137700004Y-83094435D01*
X137699996Y-83094435D01*
X137520750Y-83114630D01*
X137520737Y-83114633D01*
X137343906Y-83176510D01*
X137343157Y-83174369D01*
X137284821Y-83183958D01*
X137256405Y-83175611D01*
X137256091Y-83176510D01*
X137079259Y-83114633D01*
X137079246Y-83114630D01*
X136900001Y-83094435D01*
X136899993Y-83094435D01*
X136720747Y-83114630D01*
X136720739Y-83114632D01*
X136561578Y-83170325D01*
X136491799Y-83173886D01*
X136454654Y-83158278D01*
X136449748Y-83155195D01*
X136279478Y-83095615D01*
X136279473Y-83095614D01*
X136100228Y-83075419D01*
X136100220Y-83075419D01*
X135920974Y-83095614D01*
X135920961Y-83095617D01*
X135750706Y-83155192D01*
X135726622Y-83170325D01*
X135702682Y-83185368D01*
X135700950Y-83186456D01*
X135633713Y-83205455D01*
X135569007Y-83186454D01*
X135551750Y-83175611D01*
X135549519Y-83174209D01*
X135379262Y-83114633D01*
X135379249Y-83114630D01*
X135200004Y-83094435D01*
X135199996Y-83094435D01*
X135020750Y-83114630D01*
X135020745Y-83114631D01*
X134850476Y-83174211D01*
X134697737Y-83270184D01*
X134570184Y-83397737D01*
X134474211Y-83550476D01*
X134414631Y-83720745D01*
X134414630Y-83720750D01*
X134394435Y-83899996D01*
X132443116Y-83899996D01*
X132425789Y-83850478D01*
X132407106Y-83820745D01*
X132381033Y-83779249D01*
X132329816Y-83697738D01*
X132202262Y-83570184D01*
X132086965Y-83497738D01*
X132049524Y-83474212D01*
X132049523Y-83474211D01*
X131940146Y-83435938D01*
X131883371Y-83395216D01*
X131864061Y-83359853D01*
X131858750Y-83344676D01*
X131843716Y-83301713D01*
X131840154Y-83231936D01*
X131874883Y-83171308D01*
X131936876Y-83139081D01*
X132001713Y-83143717D01*
X132120745Y-83185368D01*
X132120750Y-83185369D01*
X132299996Y-83205565D01*
X132300000Y-83205565D01*
X132300004Y-83205565D01*
X132479249Y-83185369D01*
X132479252Y-83185368D01*
X132479255Y-83185368D01*
X132649522Y-83125789D01*
X132802262Y-83029816D01*
X132929816Y-82902262D01*
X133025789Y-82749522D01*
X133085368Y-82579255D01*
X133085369Y-82579249D01*
X133105565Y-82400003D01*
X133105565Y-82399996D01*
X133085369Y-82220750D01*
X133085368Y-82220745D01*
X133025788Y-82050476D01*
X132986582Y-81988080D01*
X132931083Y-81899755D01*
X137063895Y-81899755D01*
X137063895Y-81899762D01*
X137084090Y-82079008D01*
X137084091Y-82079013D01*
X137143671Y-82249282D01*
X137225339Y-82379255D01*
X137239644Y-82402021D01*
X137367198Y-82529575D01*
X137519938Y-82625548D01*
X137690205Y-82685127D01*
X137690210Y-82685128D01*
X137869456Y-82705324D01*
X137869460Y-82705324D01*
X137869464Y-82705324D01*
X138048709Y-82685128D01*
X138048712Y-82685127D01*
X138048715Y-82685127D01*
X138218982Y-82625548D01*
X138371722Y-82529575D01*
X138499276Y-82402021D01*
X138595249Y-82249281D01*
X138612495Y-82199996D01*
X140694435Y-82199996D01*
X140694435Y-82200003D01*
X140714630Y-82379249D01*
X140714631Y-82379254D01*
X140774211Y-82549523D01*
X140821981Y-82625548D01*
X140870184Y-82702262D01*
X140997738Y-82829816D01*
X141150478Y-82925789D01*
X141277352Y-82970184D01*
X141320745Y-82985368D01*
X141320750Y-82985369D01*
X141499996Y-83005565D01*
X141500000Y-83005565D01*
X141500004Y-83005565D01*
X141679249Y-82985369D01*
X141679252Y-82985368D01*
X141679255Y-82985368D01*
X141849522Y-82925789D01*
X142002262Y-82829816D01*
X142129816Y-82702262D01*
X142225789Y-82549522D01*
X142285368Y-82379255D01*
X142293329Y-82308599D01*
X142305565Y-82200003D01*
X142305565Y-82199996D01*
X142285369Y-82020750D01*
X142285368Y-82020745D01*
X142254490Y-81932500D01*
X142225789Y-81850478D01*
X142129816Y-81697738D01*
X142002262Y-81570184D01*
X141970517Y-81550237D01*
X141849523Y-81474211D01*
X141679254Y-81414631D01*
X141679249Y-81414630D01*
X141500004Y-81394435D01*
X141499996Y-81394435D01*
X141320750Y-81414630D01*
X141320745Y-81414631D01*
X141150476Y-81474211D01*
X140997737Y-81570184D01*
X140870184Y-81697737D01*
X140774211Y-81850476D01*
X140714631Y-82020745D01*
X140714630Y-82020750D01*
X140694435Y-82199996D01*
X138612495Y-82199996D01*
X138654828Y-82079014D01*
X138654829Y-82079008D01*
X138675025Y-81899762D01*
X138675025Y-81899755D01*
X138654829Y-81720509D01*
X138654828Y-81720504D01*
X138613453Y-81602262D01*
X138595249Y-81550237D01*
X138499276Y-81397497D01*
X138371722Y-81269943D01*
X138227457Y-81179295D01*
X138181166Y-81126960D01*
X138170518Y-81057906D01*
X138198893Y-80994058D01*
X138252476Y-80957259D01*
X138298819Y-80941043D01*
X138451559Y-80845070D01*
X138579113Y-80717516D01*
X138675086Y-80564776D01*
X138734665Y-80394509D01*
X138736384Y-80379254D01*
X138754862Y-80215257D01*
X138754862Y-80215250D01*
X138734666Y-80036004D01*
X138734665Y-80035999D01*
X138696101Y-79925789D01*
X138675086Y-79865732D01*
X138652518Y-79829816D01*
X138579112Y-79712991D01*
X138566117Y-79699996D01*
X140794435Y-79699996D01*
X140794435Y-79700003D01*
X140814630Y-79879249D01*
X140814631Y-79879254D01*
X140874211Y-80049523D01*
X140904507Y-80097738D01*
X140970184Y-80202262D01*
X141097738Y-80329816D01*
X141168392Y-80374211D01*
X141242450Y-80420745D01*
X141250478Y-80425789D01*
X141265585Y-80431075D01*
X141420745Y-80485368D01*
X141420750Y-80485369D01*
X141599996Y-80505565D01*
X141600000Y-80505565D01*
X141600004Y-80505565D01*
X141779249Y-80485369D01*
X141779252Y-80485368D01*
X141779255Y-80485368D01*
X141949522Y-80425789D01*
X142102262Y-80329816D01*
X142102561Y-80329516D01*
X142102801Y-80329385D01*
X142107705Y-80325475D01*
X142108389Y-80326333D01*
X142163877Y-80296028D01*
X142233569Y-80301006D01*
X142289507Y-80342872D01*
X142313930Y-80408334D01*
X142313467Y-80431075D01*
X142294435Y-80599996D01*
X142294435Y-80600003D01*
X142314630Y-80779249D01*
X142314631Y-80779254D01*
X142374211Y-80949523D01*
X142406319Y-81000622D01*
X142470184Y-81102262D01*
X142597738Y-81229816D01*
X142610701Y-81237961D01*
X142737817Y-81317834D01*
X142750478Y-81325789D01*
X142821827Y-81350755D01*
X142920745Y-81385368D01*
X142920750Y-81385369D01*
X143099996Y-81405565D01*
X143100000Y-81405565D01*
X143100004Y-81405565D01*
X143279249Y-81385369D01*
X143279252Y-81385368D01*
X143279255Y-81385368D01*
X143449522Y-81325789D01*
X143602262Y-81229816D01*
X143729816Y-81102262D01*
X143825789Y-80949522D01*
X143885368Y-80779255D01*
X143885369Y-80779249D01*
X143905565Y-80600003D01*
X143905565Y-80599996D01*
X143885369Y-80420750D01*
X143885368Y-80420745D01*
X143876187Y-80394508D01*
X143825789Y-80250478D01*
X143729816Y-80097738D01*
X143602262Y-79970184D01*
X143581452Y-79957108D01*
X143449523Y-79874211D01*
X143279254Y-79814631D01*
X143279249Y-79814630D01*
X143100004Y-79794435D01*
X143099996Y-79794435D01*
X142920750Y-79814630D01*
X142920745Y-79814631D01*
X142750476Y-79874211D01*
X142597737Y-79970184D01*
X142597425Y-79970497D01*
X142597173Y-79970634D01*
X142592295Y-79974525D01*
X142591613Y-79973669D01*
X142536099Y-80003976D01*
X142466407Y-79998985D01*
X142410478Y-79957108D01*
X142386067Y-79891641D01*
X142386532Y-79868923D01*
X142388611Y-79850476D01*
X142405565Y-79700000D01*
X142405310Y-79697738D01*
X142385369Y-79520750D01*
X142385368Y-79520745D01*
X142340493Y-79392500D01*
X142325789Y-79350478D01*
X142229816Y-79197738D01*
X142102262Y-79070184D01*
X141949523Y-78974211D01*
X141779254Y-78914631D01*
X141779249Y-78914630D01*
X141600004Y-78894435D01*
X141599996Y-78894435D01*
X141420750Y-78914630D01*
X141420745Y-78914631D01*
X141250476Y-78974211D01*
X141097737Y-79070184D01*
X140970184Y-79197737D01*
X140874211Y-79350476D01*
X140814631Y-79520745D01*
X140814630Y-79520750D01*
X140794435Y-79699996D01*
X138566117Y-79699996D01*
X138451559Y-79585438D01*
X138298820Y-79489465D01*
X138128551Y-79429885D01*
X138128546Y-79429884D01*
X137949301Y-79409689D01*
X137949293Y-79409689D01*
X137770047Y-79429884D01*
X137770042Y-79429885D01*
X137599773Y-79489465D01*
X137447034Y-79585438D01*
X137319481Y-79712991D01*
X137223508Y-79865730D01*
X137163928Y-80035999D01*
X137163927Y-80036004D01*
X137143732Y-80215250D01*
X137143732Y-80215257D01*
X137163927Y-80394503D01*
X137163928Y-80394508D01*
X137223508Y-80564777D01*
X137270774Y-80640000D01*
X137319481Y-80717516D01*
X137447035Y-80845070D01*
X137591299Y-80935717D01*
X137637590Y-80988052D01*
X137648238Y-81057105D01*
X137619863Y-81120954D01*
X137566283Y-81157752D01*
X137519939Y-81173968D01*
X137367197Y-81269943D01*
X137239644Y-81397496D01*
X137143671Y-81550235D01*
X137084091Y-81720504D01*
X137084090Y-81720509D01*
X137063895Y-81899755D01*
X132931083Y-81899755D01*
X132929816Y-81897738D01*
X132802262Y-81770184D01*
X132738017Y-81729816D01*
X132649523Y-81674211D01*
X132479254Y-81614631D01*
X132479249Y-81614630D01*
X132300004Y-81594435D01*
X132299996Y-81594435D01*
X132120750Y-81614630D01*
X132120745Y-81614631D01*
X131950476Y-81674211D01*
X131805927Y-81765038D01*
X131738690Y-81784038D01*
X131671855Y-81763670D01*
X131626641Y-81710402D01*
X131617404Y-81641146D01*
X131634960Y-81594073D01*
X131725789Y-81449522D01*
X131785368Y-81279255D01*
X131785369Y-81279249D01*
X131805565Y-81100003D01*
X131805565Y-81099996D01*
X131785369Y-80920750D01*
X131785368Y-80920745D01*
X131758888Y-80845069D01*
X131725789Y-80750478D01*
X131629816Y-80597738D01*
X131502262Y-80470184D01*
X131349523Y-80374211D01*
X131179254Y-80314631D01*
X131179249Y-80314630D01*
X131000004Y-80294435D01*
X130999996Y-80294435D01*
X130820750Y-80314630D01*
X130820745Y-80314631D01*
X130650476Y-80374211D01*
X130497737Y-80470184D01*
X130370184Y-80597737D01*
X130274211Y-80750476D01*
X130214631Y-80920745D01*
X130214630Y-80920750D01*
X130194435Y-81099996D01*
X124774886Y-81099996D01*
X124835063Y-80875408D01*
X124855659Y-80640000D01*
X124835063Y-80404592D01*
X124784330Y-80215250D01*
X124780243Y-80199996D01*
X134294435Y-80199996D01*
X134294435Y-80200003D01*
X134314630Y-80379249D01*
X134314631Y-80379254D01*
X134374211Y-80549523D01*
X134431062Y-80640000D01*
X134470184Y-80702262D01*
X134597738Y-80829816D01*
X134622013Y-80845069D01*
X134742450Y-80920745D01*
X134750478Y-80925789D01*
X134818306Y-80949523D01*
X134920745Y-80985368D01*
X134920750Y-80985369D01*
X135099996Y-81005565D01*
X135100000Y-81005565D01*
X135100004Y-81005565D01*
X135279249Y-80985369D01*
X135279252Y-80985368D01*
X135279255Y-80985368D01*
X135449522Y-80925789D01*
X135602262Y-80829816D01*
X135729816Y-80702262D01*
X135825789Y-80549522D01*
X135885368Y-80379255D01*
X135885369Y-80379249D01*
X135905565Y-80200003D01*
X135905565Y-80199996D01*
X135885369Y-80020750D01*
X135885368Y-80020745D01*
X135852141Y-79925788D01*
X135825789Y-79850478D01*
X135803265Y-79814632D01*
X135774340Y-79768597D01*
X135729816Y-79697738D01*
X135602262Y-79570184D01*
X135569379Y-79549522D01*
X135449523Y-79474211D01*
X135279254Y-79414631D01*
X135279249Y-79414630D01*
X135100004Y-79394435D01*
X135099996Y-79394435D01*
X134920750Y-79414630D01*
X134920745Y-79414631D01*
X134750476Y-79474211D01*
X134597737Y-79570184D01*
X134470184Y-79697737D01*
X134374211Y-79850476D01*
X134314631Y-80020745D01*
X134314630Y-80020750D01*
X134294435Y-80199996D01*
X124780243Y-80199996D01*
X124773905Y-80176344D01*
X124773904Y-80176343D01*
X124773903Y-80176337D01*
X124674035Y-79962171D01*
X124650980Y-79929244D01*
X124538494Y-79768597D01*
X124371402Y-79601506D01*
X124371396Y-79601501D01*
X124185842Y-79471575D01*
X124142217Y-79416998D01*
X124135023Y-79347500D01*
X124166546Y-79285145D01*
X124185842Y-79268425D01*
X124208026Y-79252891D01*
X124283568Y-79199996D01*
X131494435Y-79199996D01*
X131494435Y-79200003D01*
X131514630Y-79379249D01*
X131514631Y-79379254D01*
X131574211Y-79549523D01*
X131667341Y-79697737D01*
X131670184Y-79702262D01*
X131797738Y-79829816D01*
X131950478Y-79925789D01*
X132105001Y-79979859D01*
X132120745Y-79985368D01*
X132120750Y-79985369D01*
X132299996Y-80005565D01*
X132300000Y-80005565D01*
X132300004Y-80005565D01*
X132479249Y-79985369D01*
X132479252Y-79985368D01*
X132479255Y-79985368D01*
X132649522Y-79925789D01*
X132802262Y-79829816D01*
X132929816Y-79702262D01*
X133025789Y-79549522D01*
X133085368Y-79379255D01*
X133086411Y-79370000D01*
X133105565Y-79200003D01*
X133105565Y-79199996D01*
X133085369Y-79020750D01*
X133085368Y-79020745D01*
X133025788Y-78850476D01*
X132958706Y-78743716D01*
X132929816Y-78697738D01*
X132802262Y-78570184D01*
X132649523Y-78474211D01*
X132479254Y-78414631D01*
X132479249Y-78414630D01*
X132300004Y-78394435D01*
X132299996Y-78394435D01*
X132120750Y-78414630D01*
X132120745Y-78414631D01*
X131950476Y-78474211D01*
X131797737Y-78570184D01*
X131670184Y-78697737D01*
X131574211Y-78850476D01*
X131514631Y-79020745D01*
X131514630Y-79020750D01*
X131494435Y-79199996D01*
X124283568Y-79199996D01*
X124371401Y-79138495D01*
X124538495Y-78971401D01*
X124674035Y-78777830D01*
X124773903Y-78563663D01*
X124835063Y-78335408D01*
X124855659Y-78100000D01*
X124853843Y-78079249D01*
X124851243Y-78049522D01*
X124835063Y-77864592D01*
X124817755Y-77799996D01*
X125194435Y-77799996D01*
X125194435Y-77800003D01*
X125214630Y-77979249D01*
X125214631Y-77979254D01*
X125274211Y-78149523D01*
X125337045Y-78249522D01*
X125370184Y-78302262D01*
X125497738Y-78429816D01*
X125650478Y-78525789D01*
X125758693Y-78563655D01*
X125820745Y-78585368D01*
X125820750Y-78585369D01*
X125999996Y-78605565D01*
X126000000Y-78605565D01*
X126000004Y-78605565D01*
X126179249Y-78585369D01*
X126179252Y-78585368D01*
X126179255Y-78585368D01*
X126349522Y-78525789D01*
X126502262Y-78429816D01*
X126629816Y-78302262D01*
X126725789Y-78149522D01*
X126785368Y-77979255D01*
X126785369Y-77979249D01*
X126794299Y-77899996D01*
X137594435Y-77899996D01*
X137594435Y-77900003D01*
X137614630Y-78079249D01*
X137614631Y-78079254D01*
X137674211Y-78249523D01*
X137728177Y-78335408D01*
X137770184Y-78402262D01*
X137897738Y-78529816D01*
X137951605Y-78563663D01*
X138048254Y-78624392D01*
X138050478Y-78625789D01*
X138220739Y-78685366D01*
X138220745Y-78685368D01*
X138220750Y-78685369D01*
X138399996Y-78705565D01*
X138400000Y-78705565D01*
X138400004Y-78705565D01*
X138579249Y-78685369D01*
X138579251Y-78685368D01*
X138579255Y-78685368D01*
X138579258Y-78685366D01*
X138579262Y-78685366D01*
X138709045Y-78639953D01*
X138778824Y-78636391D01*
X138790955Y-78639953D01*
X138920737Y-78685366D01*
X138920743Y-78685367D01*
X138920745Y-78685368D01*
X138920746Y-78685368D01*
X138920750Y-78685369D01*
X139099996Y-78705565D01*
X139100000Y-78705565D01*
X139100004Y-78705565D01*
X139279249Y-78685369D01*
X139279251Y-78685368D01*
X139279255Y-78685368D01*
X139279258Y-78685366D01*
X139279262Y-78685366D01*
X139456095Y-78623489D01*
X139456846Y-78625637D01*
X139515128Y-78616035D01*
X139543588Y-78624392D01*
X139543905Y-78623489D01*
X139720737Y-78685366D01*
X139720743Y-78685367D01*
X139720745Y-78685368D01*
X139720746Y-78685368D01*
X139720750Y-78685369D01*
X139899996Y-78705565D01*
X139900000Y-78705565D01*
X139900004Y-78705565D01*
X140079249Y-78685369D01*
X140079251Y-78685368D01*
X140079255Y-78685368D01*
X140079258Y-78685366D01*
X140079262Y-78685366D01*
X140209045Y-78639953D01*
X140278824Y-78636391D01*
X140290955Y-78639953D01*
X140420737Y-78685366D01*
X140420743Y-78685367D01*
X140420745Y-78685368D01*
X140420746Y-78685368D01*
X140420750Y-78685369D01*
X140599996Y-78705565D01*
X140600000Y-78705565D01*
X140600004Y-78705565D01*
X140779249Y-78685369D01*
X140779252Y-78685368D01*
X140779255Y-78685368D01*
X140949522Y-78625789D01*
X141102262Y-78529816D01*
X141229816Y-78402262D01*
X141325789Y-78249522D01*
X141385368Y-78079255D01*
X141395725Y-77987332D01*
X141405565Y-77900003D01*
X141405565Y-77899996D01*
X141385369Y-77720750D01*
X141385368Y-77720745D01*
X141356346Y-77637805D01*
X144881807Y-77637805D01*
X144881807Y-77637812D01*
X144902002Y-77817058D01*
X144902003Y-77817063D01*
X144961583Y-77987332D01*
X145032377Y-78099999D01*
X145057556Y-78140071D01*
X145185110Y-78267625D01*
X145275452Y-78324391D01*
X145286847Y-78331551D01*
X145337850Y-78363598D01*
X145483691Y-78414630D01*
X145508117Y-78423177D01*
X145508122Y-78423178D01*
X145687368Y-78443374D01*
X145687372Y-78443374D01*
X145687376Y-78443374D01*
X145866621Y-78423178D01*
X145866624Y-78423177D01*
X145866627Y-78423177D01*
X146036894Y-78363598D01*
X146189634Y-78267625D01*
X146317188Y-78140071D01*
X146413161Y-77987331D01*
X146472740Y-77817064D01*
X146474036Y-77805565D01*
X146492937Y-77637812D01*
X146492937Y-77637805D01*
X146472741Y-77458559D01*
X146472740Y-77458554D01*
X146460008Y-77422169D01*
X146413161Y-77288287D01*
X146317188Y-77135547D01*
X146189634Y-77007993D01*
X146168057Y-76994435D01*
X146036895Y-76912020D01*
X145866626Y-76852440D01*
X145866621Y-76852439D01*
X145687376Y-76832244D01*
X145687368Y-76832244D01*
X145508122Y-76852439D01*
X145508117Y-76852440D01*
X145337848Y-76912020D01*
X145185109Y-77007993D01*
X145057556Y-77135546D01*
X144961583Y-77288285D01*
X144902003Y-77458554D01*
X144902002Y-77458559D01*
X144881807Y-77637805D01*
X141356346Y-77637805D01*
X141355832Y-77636335D01*
X141325789Y-77550478D01*
X141307106Y-77520745D01*
X141262955Y-77450478D01*
X141229816Y-77397738D01*
X141102262Y-77270184D01*
X141036077Y-77228597D01*
X140949523Y-77174211D01*
X140779254Y-77114631D01*
X140779249Y-77114630D01*
X140600004Y-77094435D01*
X140599996Y-77094435D01*
X140420750Y-77114630D01*
X140420742Y-77114632D01*
X140290954Y-77160047D01*
X140221175Y-77163608D01*
X140209046Y-77160047D01*
X140079257Y-77114632D01*
X140079249Y-77114630D01*
X139900004Y-77094435D01*
X139899996Y-77094435D01*
X139720750Y-77114630D01*
X139720737Y-77114633D01*
X139543906Y-77176510D01*
X139543155Y-77174364D01*
X139484856Y-77183962D01*
X139456409Y-77175609D01*
X139456094Y-77176510D01*
X139279262Y-77114633D01*
X139279249Y-77114630D01*
X139100004Y-77094435D01*
X139099996Y-77094435D01*
X138920750Y-77114630D01*
X138920742Y-77114632D01*
X138790954Y-77160047D01*
X138721175Y-77163608D01*
X138709046Y-77160047D01*
X138579257Y-77114632D01*
X138579249Y-77114630D01*
X138400004Y-77094435D01*
X138399996Y-77094435D01*
X138220750Y-77114630D01*
X138220745Y-77114631D01*
X138050476Y-77174211D01*
X137897737Y-77270184D01*
X137770184Y-77397737D01*
X137674211Y-77550476D01*
X137614631Y-77720745D01*
X137614630Y-77720750D01*
X137594435Y-77899996D01*
X126794299Y-77899996D01*
X126805565Y-77800003D01*
X126805565Y-77799996D01*
X126785369Y-77620750D01*
X126785368Y-77620745D01*
X126725789Y-77450478D01*
X126720241Y-77441649D01*
X126662955Y-77350478D01*
X126629816Y-77297738D01*
X126502262Y-77170184D01*
X126447136Y-77135546D01*
X126349523Y-77074211D01*
X126179254Y-77014631D01*
X126179249Y-77014630D01*
X126000004Y-76994435D01*
X125999996Y-76994435D01*
X125820750Y-77014630D01*
X125820745Y-77014631D01*
X125650476Y-77074211D01*
X125497737Y-77170184D01*
X125370184Y-77297737D01*
X125274211Y-77450476D01*
X125214631Y-77620745D01*
X125214630Y-77620750D01*
X125194435Y-77799996D01*
X124817755Y-77799996D01*
X124774298Y-77637812D01*
X124773905Y-77636344D01*
X124773904Y-77636343D01*
X124773903Y-77636337D01*
X124674035Y-77422171D01*
X124656927Y-77397737D01*
X124538494Y-77228597D01*
X124371402Y-77061506D01*
X124371396Y-77061501D01*
X124185842Y-76931575D01*
X124142217Y-76876998D01*
X124135023Y-76807500D01*
X124166546Y-76745145D01*
X124185842Y-76728425D01*
X124208026Y-76712891D01*
X124371401Y-76598495D01*
X124538495Y-76431401D01*
X124674035Y-76237830D01*
X124773903Y-76023663D01*
X124835063Y-75795408D01*
X124855659Y-75560000D01*
X124835063Y-75324592D01*
X124773903Y-75096337D01*
X124674035Y-74882171D01*
X124650980Y-74849244D01*
X124573359Y-74738389D01*
X126621900Y-74738389D01*
X126621900Y-75461611D01*
X126648998Y-75632701D01*
X126702527Y-75797445D01*
X126781168Y-75951788D01*
X126882986Y-76091928D01*
X127005472Y-76214414D01*
X127145612Y-76316232D01*
X127299955Y-76394873D01*
X127464699Y-76448402D01*
X127635789Y-76475500D01*
X127635790Y-76475500D01*
X127809010Y-76475500D01*
X127809011Y-76475500D01*
X127980101Y-76448402D01*
X128058280Y-76422999D01*
X128128117Y-76421003D01*
X128187951Y-76457083D01*
X128218780Y-76519783D01*
X128210816Y-76589198D01*
X128201591Y-76606900D01*
X128174211Y-76650475D01*
X128114631Y-76820745D01*
X128114630Y-76820750D01*
X128094435Y-76999996D01*
X128094435Y-77000003D01*
X128114630Y-77179249D01*
X128114631Y-77179254D01*
X128174211Y-77349523D01*
X128264379Y-77493024D01*
X128270184Y-77502262D01*
X128397738Y-77629816D01*
X128410459Y-77637809D01*
X128542450Y-77720745D01*
X128550478Y-77725789D01*
X128720745Y-77785368D01*
X128720750Y-77785369D01*
X128899996Y-77805565D01*
X128900000Y-77805565D01*
X128900004Y-77805565D01*
X129079249Y-77785369D01*
X129079252Y-77785368D01*
X129079255Y-77785368D01*
X129249522Y-77725789D01*
X129402262Y-77629816D01*
X129529816Y-77502262D01*
X129625789Y-77349522D01*
X129685368Y-77179255D01*
X129685369Y-77179249D01*
X129705565Y-77000003D01*
X129705565Y-76999996D01*
X129685369Y-76820750D01*
X129685368Y-76820745D01*
X129623489Y-76643905D01*
X129625487Y-76643205D01*
X129615796Y-76584362D01*
X129643518Y-76520227D01*
X129701512Y-76481260D01*
X129738869Y-76475499D01*
X130122402Y-76475499D01*
X130122408Y-76475499D01*
X130225197Y-76464999D01*
X130391734Y-76409814D01*
X130541056Y-76317712D01*
X130558772Y-76299996D01*
X131194435Y-76299996D01*
X131194435Y-76300003D01*
X131214630Y-76479249D01*
X131214631Y-76479254D01*
X131274211Y-76649523D01*
X131323789Y-76728425D01*
X131370184Y-76802262D01*
X131497738Y-76929816D01*
X131553291Y-76964722D01*
X131632721Y-77014632D01*
X131650478Y-77025789D01*
X131777352Y-77070184D01*
X131820745Y-77085368D01*
X131820750Y-77085369D01*
X131999996Y-77105565D01*
X132000000Y-77105565D01*
X132000004Y-77105565D01*
X132179249Y-77085369D01*
X132179252Y-77085368D01*
X132179255Y-77085368D01*
X132349522Y-77025789D01*
X132502262Y-76929816D01*
X132629816Y-76802262D01*
X132725789Y-76649522D01*
X132785368Y-76479255D01*
X132785791Y-76475500D01*
X132805565Y-76300003D01*
X132805565Y-76299996D01*
X132785369Y-76120750D01*
X132785368Y-76120745D01*
X132758631Y-76044334D01*
X132743116Y-75999996D01*
X140694435Y-75999996D01*
X140694435Y-76000003D01*
X140714630Y-76179249D01*
X140714631Y-76179254D01*
X140774211Y-76349523D01*
X140867341Y-76497738D01*
X140870184Y-76502262D01*
X140997738Y-76629816D01*
X141150478Y-76725789D01*
X141313983Y-76783002D01*
X141320745Y-76785368D01*
X141320750Y-76785369D01*
X141499996Y-76805565D01*
X141500000Y-76805565D01*
X141500004Y-76805565D01*
X141679249Y-76785369D01*
X141679252Y-76785368D01*
X141679255Y-76785368D01*
X141849522Y-76725789D01*
X142002262Y-76629816D01*
X142129816Y-76502262D01*
X142225789Y-76349522D01*
X142285368Y-76179255D01*
X142285369Y-76179249D01*
X142305565Y-76000003D01*
X142305565Y-75999996D01*
X142285369Y-75820750D01*
X142285368Y-75820745D01*
X142225789Y-75650478D01*
X142214616Y-75632697D01*
X142140431Y-75514632D01*
X142129816Y-75497738D01*
X142002262Y-75370184D01*
X141849523Y-75274211D01*
X141679254Y-75214631D01*
X141679249Y-75214630D01*
X141500004Y-75194435D01*
X141499996Y-75194435D01*
X141320750Y-75214630D01*
X141320745Y-75214631D01*
X141150476Y-75274211D01*
X140997737Y-75370184D01*
X140870184Y-75497737D01*
X140774211Y-75650476D01*
X140714631Y-75820745D01*
X140714630Y-75820750D01*
X140694435Y-75999996D01*
X132743116Y-75999996D01*
X132725789Y-75950478D01*
X132629816Y-75797738D01*
X132502262Y-75670184D01*
X132470897Y-75650476D01*
X132349523Y-75574211D01*
X132179254Y-75514631D01*
X132179249Y-75514630D01*
X132000004Y-75494435D01*
X131999996Y-75494435D01*
X131820750Y-75514630D01*
X131820745Y-75514631D01*
X131650476Y-75574211D01*
X131497737Y-75670184D01*
X131370184Y-75797737D01*
X131274211Y-75950476D01*
X131214631Y-76120745D01*
X131214630Y-76120750D01*
X131194435Y-76299996D01*
X130558772Y-76299996D01*
X130665112Y-76193656D01*
X130757214Y-76044334D01*
X130812399Y-75877797D01*
X130822900Y-75775009D01*
X130822899Y-74424992D01*
X130819485Y-74391575D01*
X130812399Y-74322203D01*
X130812398Y-74322200D01*
X130790953Y-74257483D01*
X130757214Y-74155666D01*
X130665112Y-74006344D01*
X130541056Y-73882288D01*
X130448288Y-73825069D01*
X130391736Y-73790187D01*
X130391731Y-73790185D01*
X130377194Y-73785368D01*
X130225197Y-73735001D01*
X130225195Y-73735000D01*
X130122410Y-73724500D01*
X129322398Y-73724500D01*
X129322380Y-73724501D01*
X129219603Y-73735000D01*
X129219600Y-73735001D01*
X129053068Y-73790185D01*
X129053063Y-73790187D01*
X128903742Y-73882289D01*
X128779687Y-74006344D01*
X128740088Y-74070544D01*
X128688139Y-74117268D01*
X128619177Y-74128489D01*
X128555095Y-74100645D01*
X128546869Y-74093127D01*
X128439330Y-73985588D01*
X128439328Y-73985586D01*
X128299188Y-73883768D01*
X128144845Y-73805127D01*
X127980101Y-73751598D01*
X127980099Y-73751597D01*
X127980098Y-73751597D01*
X127817149Y-73725789D01*
X127809011Y-73724500D01*
X127635789Y-73724500D01*
X127627651Y-73725789D01*
X127464702Y-73751597D01*
X127464699Y-73751598D01*
X127308773Y-73802262D01*
X127299952Y-73805128D01*
X127145611Y-73883768D01*
X127065656Y-73941859D01*
X127005472Y-73985586D01*
X127005470Y-73985588D01*
X127005469Y-73985588D01*
X126882988Y-74108069D01*
X126882988Y-74108070D01*
X126882986Y-74108072D01*
X126876305Y-74117268D01*
X126781168Y-74248211D01*
X126702528Y-74402552D01*
X126648997Y-74567302D01*
X126635820Y-74650499D01*
X126621900Y-74738389D01*
X124573359Y-74738389D01*
X124538494Y-74688597D01*
X124371402Y-74521506D01*
X124371396Y-74521501D01*
X124185842Y-74391575D01*
X124142217Y-74336998D01*
X124135023Y-74267500D01*
X124166546Y-74205145D01*
X124185842Y-74188425D01*
X124232624Y-74155668D01*
X124371401Y-74058495D01*
X124538495Y-73891401D01*
X124674035Y-73697830D01*
X124773903Y-73483663D01*
X124835063Y-73255408D01*
X124855659Y-73020000D01*
X124835063Y-72784592D01*
X124773903Y-72556337D01*
X124674035Y-72342171D01*
X124650980Y-72309244D01*
X124538494Y-72148597D01*
X124371402Y-71981506D01*
X124371396Y-71981501D01*
X124185842Y-71851575D01*
X124142217Y-71796998D01*
X124135023Y-71727500D01*
X124166546Y-71665145D01*
X124185842Y-71648425D01*
X124349103Y-71534108D01*
X124371401Y-71518495D01*
X124538495Y-71351401D01*
X124674035Y-71157830D01*
X124763118Y-70966790D01*
X124809290Y-70914352D01*
X124876484Y-70895200D01*
X124943365Y-70915416D01*
G37*
%TD.AperFunction*%
%TD*%
M02*
