%TF.GenerationSoftware,KiCad,Pcbnew,8.0.3*%
%TF.CreationDate,2024-08-10T21:36:20-07:00*%
%TF.ProjectId,v2,76322e6b-6963-4616-945f-706362585858,rev?*%
%TF.SameCoordinates,Original*%
%TF.FileFunction,Copper,L2,Inr*%
%TF.FilePolarity,Positive*%
%FSLAX46Y46*%
G04 Gerber Fmt 4.6, Leading zero omitted, Abs format (unit mm)*
G04 Created by KiCad (PCBNEW 8.0.3) date 2024-08-10 21:36:20*
%MOMM*%
%LPD*%
G01*
G04 APERTURE LIST*
G04 Aperture macros list*
%AMRoundRect*
0 Rectangle with rounded corners*
0 $1 Rounding radius*
0 $2 $3 $4 $5 $6 $7 $8 $9 X,Y pos of 4 corners*
0 Add a 4 corners polygon primitive as box body*
4,1,4,$2,$3,$4,$5,$6,$7,$8,$9,$2,$3,0*
0 Add four circle primitives for the rounded corners*
1,1,$1+$1,$2,$3*
1,1,$1+$1,$4,$5*
1,1,$1+$1,$6,$7*
1,1,$1+$1,$8,$9*
0 Add four rect primitives between the rounded corners*
20,1,$1+$1,$2,$3,$4,$5,0*
20,1,$1+$1,$4,$5,$6,$7,0*
20,1,$1+$1,$6,$7,$8,$9,0*
20,1,$1+$1,$8,$9,$2,$3,0*%
G04 Aperture macros list end*
%TA.AperFunction,ComponentPad*%
%ADD10R,1.700000X1.700000*%
%TD*%
%TA.AperFunction,ComponentPad*%
%ADD11RoundRect,0.250000X0.350000X0.625000X-0.350000X0.625000X-0.350000X-0.625000X0.350000X-0.625000X0*%
%TD*%
%TA.AperFunction,ComponentPad*%
%ADD12O,1.200000X1.750000*%
%TD*%
%TA.AperFunction,ComponentPad*%
%ADD13O,1.700000X1.700000*%
%TD*%
%TA.AperFunction,ViaPad*%
%ADD14C,0.600000*%
%TD*%
%TA.AperFunction,Conductor*%
%ADD15C,0.500000*%
%TD*%
G04 APERTURE END LIST*
D10*
%TO.N,+2V5*%
%TO.C,J8*%
X127100000Y-95100000D03*
%TD*%
%TO.N,+3V3*%
%TO.C,J7*%
X127300000Y-83800000D03*
%TD*%
%TO.N,-2V5*%
%TO.C,J6*%
X127100000Y-98700000D03*
%TD*%
%TO.N,+5V*%
%TO.C,J5*%
X143900000Y-73300000D03*
%TD*%
D11*
%TO.N,/Booster/VBATT*%
%TO.C,J1*%
X129722400Y-75100000D03*
D12*
%TO.N,GND*%
X127722400Y-75100000D03*
%TD*%
D10*
%TO.N,/ADS1299/MOSI*%
%TO.C,J3*%
X105720000Y-60320000D03*
D13*
%TO.N,/ADS1299/CS*%
X105720000Y-62860000D03*
%TO.N,unconnected-(J3-Pin_3-Pad3)*%
X105720000Y-65400000D03*
%TO.N,/ADS1299/SCLK*%
X105720000Y-67940000D03*
%TO.N,/ADS1299/MISO*%
X105720000Y-70480000D03*
%TO.N,/ADS1299/DRDY*%
X105720000Y-73020000D03*
%TO.N,/ADS1299/START*%
X105720000Y-75560000D03*
%TO.N,unconnected-(J3-Pin_8-Pad8)*%
X105720000Y-78100000D03*
%TO.N,/ADS1299/RESET*%
X105720000Y-80640000D03*
%TO.N,unconnected-(J3-Pin_10-Pad10)*%
X105720000Y-83180000D03*
%TO.N,/ADS1299/PDWN*%
X105720000Y-85720000D03*
%TO.N,unconnected-(J3-Pin_12-Pad12)*%
X105720000Y-88260000D03*
%TO.N,unconnected-(J3-Pin_13-Pad13)*%
X105720000Y-90800000D03*
%TO.N,unconnected-(J3-Pin_14-Pad14)*%
X105720000Y-93340000D03*
%TO.N,unconnected-(J3-Pin_15-Pad15)*%
X105720000Y-95880000D03*
%TO.N,unconnected-(J3-Pin_16-Pad16)*%
X105720000Y-98420000D03*
%TO.N,unconnected-(J3-Pin_17-Pad17)*%
X105720000Y-100960000D03*
%TO.N,GND*%
X105720000Y-103500000D03*
%TO.N,+5V*%
X105720000Y-106040000D03*
%TO.N,unconnected-(J3-Pin_20-Pad20)*%
X105720000Y-108580000D03*
%TD*%
D10*
%TO.N,/ADS1299/BI*%
%TO.C,J2*%
X127100000Y-108500000D03*
D13*
%TO.N,/ADS1299/I8*%
X129640000Y-108500000D03*
%TO.N,/ADS1299/I7*%
X132180000Y-108500000D03*
%TO.N,/ADS1299/I6*%
X134720000Y-108500000D03*
%TO.N,/ADS1299/I5*%
X137260000Y-108500000D03*
%TO.N,/ADS1299/I4*%
X139800000Y-108500000D03*
%TO.N,/ADS1299/I3*%
X142340000Y-108500000D03*
%TO.N,/ADS1299/I2*%
X144880000Y-108500000D03*
%TO.N,/ADS1299/I1*%
X147420000Y-108500000D03*
%TD*%
D10*
%TO.N,unconnected-(J4-Pin_1-Pad1)*%
%TO.C,J4*%
X123500000Y-60320000D03*
D13*
%TO.N,unconnected-(J4-Pin_2-Pad2)*%
X123500000Y-62860000D03*
%TO.N,unconnected-(J4-Pin_3-Pad3)*%
X123500000Y-65400000D03*
%TO.N,unconnected-(J4-Pin_4-Pad4)*%
X123500000Y-67940000D03*
%TO.N,unconnected-(J4-Pin_5-Pad5)*%
X123500000Y-70480000D03*
%TO.N,unconnected-(J4-Pin_6-Pad6)*%
X123500000Y-73020000D03*
%TO.N,unconnected-(J4-Pin_7-Pad7)*%
X123500000Y-75560000D03*
%TO.N,unconnected-(J4-Pin_8-Pad8)*%
X123500000Y-78100000D03*
%TO.N,unconnected-(J4-Pin_9-Pad9)*%
X123500000Y-80640000D03*
%TO.N,unconnected-(J4-Pin_10-Pad10)*%
X123500000Y-83180000D03*
%TO.N,unconnected-(J4-Pin_11-Pad11)*%
X123500000Y-85720000D03*
%TO.N,unconnected-(J4-Pin_12-Pad12)*%
X123500000Y-88260000D03*
%TO.N,unconnected-(J4-Pin_13-Pad13)*%
X123500000Y-90800000D03*
%TO.N,unconnected-(J4-Pin_14-Pad14)*%
X123500000Y-93340000D03*
%TO.N,unconnected-(J4-Pin_15-Pad15)*%
X123500000Y-95880000D03*
%TO.N,unconnected-(J4-Pin_16-Pad16)*%
X123500000Y-98420000D03*
%TO.N,unconnected-(J4-Pin_17-Pad17)*%
X123500000Y-100960000D03*
%TO.N,unconnected-(J4-Pin_18-Pad18)*%
X123500000Y-103500000D03*
%TO.N,unconnected-(J4-Pin_19-Pad19)*%
X123500000Y-106040000D03*
%TO.N,unconnected-(J4-Pin_20-Pad20)*%
X123500000Y-108580000D03*
%TD*%
D14*
%TO.N,GND*%
X142200000Y-84000000D03*
%TO.N,-2V5*%
X142600000Y-87300000D03*
X143600000Y-96700000D03*
%TO.N,GND*%
X129818750Y-86118750D03*
X131700000Y-84200000D03*
X128400000Y-87600000D03*
%TO.N,-2V5*%
X138300000Y-92380761D03*
X127900000Y-92400000D03*
%TO.N,GND*%
X122700000Y-104800000D03*
X124400000Y-104800000D03*
X122700000Y-102200000D03*
X124400000Y-102200000D03*
X122700000Y-99700000D03*
X124400000Y-99700000D03*
X122700000Y-97100000D03*
X124400000Y-97100000D03*
X122700000Y-92100000D03*
X124400000Y-92100000D03*
X122700000Y-94600000D03*
X124400000Y-94600000D03*
X143500000Y-86500000D03*
X142600000Y-89100000D03*
X138300000Y-89000003D03*
X139900000Y-77900000D03*
X139100000Y-77900000D03*
X140600000Y-77900000D03*
X138400000Y-77900000D03*
%TO.N,+5V*%
X125200000Y-107300000D03*
%TO.N,GND*%
X146900000Y-73300000D03*
%TO.N,Net-(U1-GPIO1)*%
X137700000Y-83900000D03*
%TO.N,GND*%
X138594452Y-83945000D03*
X137949297Y-80215254D03*
X135100000Y-80200000D03*
X137869460Y-81899759D03*
X132171631Y-86510109D03*
X142600000Y-88200000D03*
X142600000Y-86500000D03*
X134500000Y-88300000D03*
%TO.N,-2V5*%
X133900000Y-89000000D03*
%TO.N,GND*%
X132600000Y-95600000D03*
X148300000Y-77700000D03*
X145687372Y-77637809D03*
X141600000Y-79700000D03*
X143100000Y-80600000D03*
X145600000Y-84100000D03*
X147300000Y-96100000D03*
X131300000Y-99699998D03*
X135800000Y-99699998D03*
X145600000Y-99699998D03*
X141100000Y-99699998D03*
X134000000Y-101900000D03*
X143000000Y-101900000D03*
X128800000Y-103100000D03*
X126200000Y-100600000D03*
X126000000Y-77800000D03*
X128900000Y-77000000D03*
X131000000Y-81100000D03*
X132000000Y-76300000D03*
X132000000Y-73000000D03*
%TO.N,-2V5*%
X127900000Y-89600000D03*
%TO.N,+5V*%
X131100000Y-83600000D03*
X132300000Y-82400000D03*
%TO.N,-2V5*%
X147400000Y-84300000D03*
X143125692Y-90861916D03*
%TO.N,+2V5*%
X141500000Y-92200000D03*
%TO.N,+5V*%
X132300000Y-79200000D03*
%TO.N,+2V5*%
X141500000Y-82200000D03*
%TO.N,+5V*%
X141500000Y-76000000D03*
%TO.N,Net-(U1-GPIO4)*%
X135200000Y-83900000D03*
%TO.N,/ADS1299/MOSI*%
X140300000Y-88200000D03*
%TO.N,/ADS1299/PDWN*%
X140300000Y-87300000D03*
%TO.N,/ADS1299/RESET*%
X140325685Y-86444391D03*
%TO.N,/ADS1299/START*%
X138300000Y-88200000D03*
%TO.N,/ADS1299/CS*%
X138300000Y-87300003D03*
%TO.N,/ADS1299/SCLK*%
X138300000Y-86500000D03*
%TO.N,/ADS1299/MISO*%
X136800000Y-86500000D03*
%TO.N,/ADS1299/DRDY*%
X135500000Y-86500000D03*
%TO.N,+2V5*%
X134500000Y-90200000D03*
%TO.N,-2V5*%
X142900000Y-94800000D03*
X142900000Y-93300000D03*
X133900000Y-91600000D03*
X133900000Y-93200000D03*
%TO.N,/ADS1299/IN1P*%
X146400000Y-101900000D03*
%TO.N,/ADS1299/IN1N*%
X145600000Y-101900000D03*
%TO.N,/ADS1299/IN2P*%
X144800000Y-101900000D03*
%TO.N,/ADS1299/IN2N*%
X144000000Y-101900000D03*
%TO.N,/ADS1299/IN3P*%
X141900003Y-101900000D03*
%TO.N,/ADS1299/IN3N*%
X141100000Y-101900000D03*
%TO.N,/ADS1299/IN4P*%
X140300000Y-101900000D03*
%TO.N,/ADS1299/IN4N*%
X139500000Y-101900000D03*
%TO.N,/ADS1299/IN5P*%
X137400009Y-101900000D03*
%TO.N,/ADS1299/IN5N*%
X136600006Y-101900000D03*
%TO.N,/ADS1299/IN6P*%
X135800003Y-101900000D03*
%TO.N,/ADS1299/IN6N*%
X135000000Y-101900000D03*
%TO.N,/ADS1299/IN8N*%
X130499997Y-101900000D03*
%TO.N,/ADS1299/IN8P*%
X131300000Y-101900000D03*
%TO.N,/ADS1299/IN7N*%
X132100000Y-101900000D03*
%TO.N,/ADS1299/IN7P*%
X132900000Y-101900000D03*
%TO.N,/ADS1299/BI*%
X127100000Y-106300000D03*
%TO.N,/ADS1299/I1*%
X146400000Y-106300000D03*
%TO.N,/ADS1299/I2*%
X144880000Y-106300000D03*
%TO.N,/ADS1299/I3*%
X141900000Y-106300000D03*
%TO.N,/ADS1299/I4*%
X140300000Y-106300000D03*
%TO.N,/ADS1299/I5*%
X138400000Y-106300000D03*
%TO.N,/ADS1299/I6*%
X135800000Y-106300000D03*
%TO.N,/ADS1299/I7*%
X132900000Y-106300000D03*
%TO.N,/ADS1299/I8*%
X131300000Y-106300000D03*
%TO.N,Net-(U1-GPIO2)*%
X136899997Y-83900000D03*
%TO.N,Net-(U1-GPIO3)*%
X136100224Y-83880984D03*
%TD*%
D15*
%TO.N,GND*%
X106620000Y-102600000D02*
X107100000Y-102600000D01*
X105720000Y-103500000D02*
X106620000Y-102600000D01*
X105720000Y-103500000D02*
X106820000Y-104600000D01*
X106820000Y-104600000D02*
X107100000Y-104600000D01*
%TD*%
%TA.AperFunction,Conductor*%
%TO.N,GND*%
G36*
X122272085Y-58920185D02*
G01*
X122317840Y-58972989D01*
X122327784Y-59042147D01*
X122298759Y-59105703D01*
X122292727Y-59112181D01*
X122292452Y-59112455D01*
X122206206Y-59227664D01*
X122206202Y-59227671D01*
X122155908Y-59362517D01*
X122149501Y-59422116D01*
X122149501Y-59422123D01*
X122149500Y-59422135D01*
X122149500Y-61217870D01*
X122149501Y-61217876D01*
X122155908Y-61277483D01*
X122206202Y-61412328D01*
X122206206Y-61412335D01*
X122292452Y-61527544D01*
X122292455Y-61527547D01*
X122407664Y-61613793D01*
X122407671Y-61613797D01*
X122539081Y-61662810D01*
X122595015Y-61704681D01*
X122619432Y-61770145D01*
X122604580Y-61838418D01*
X122583430Y-61866673D01*
X122461503Y-61988600D01*
X122325965Y-62182169D01*
X122325964Y-62182171D01*
X122226098Y-62396335D01*
X122226094Y-62396344D01*
X122164938Y-62624586D01*
X122164936Y-62624596D01*
X122144341Y-62859999D01*
X122144341Y-62860000D01*
X122164936Y-63095403D01*
X122164938Y-63095413D01*
X122226094Y-63323655D01*
X122226096Y-63323659D01*
X122226097Y-63323663D01*
X122297619Y-63477042D01*
X122325965Y-63537830D01*
X122325967Y-63537834D01*
X122461501Y-63731395D01*
X122461506Y-63731402D01*
X122628597Y-63898493D01*
X122628603Y-63898498D01*
X122814158Y-64028425D01*
X122857783Y-64083002D01*
X122864977Y-64152500D01*
X122833454Y-64214855D01*
X122814158Y-64231575D01*
X122628597Y-64361505D01*
X122461505Y-64528597D01*
X122325965Y-64722169D01*
X122325964Y-64722171D01*
X122226098Y-64936335D01*
X122226094Y-64936344D01*
X122164938Y-65164586D01*
X122164936Y-65164596D01*
X122144341Y-65399999D01*
X122144341Y-65400000D01*
X122164936Y-65635403D01*
X122164938Y-65635413D01*
X122226094Y-65863655D01*
X122226096Y-65863659D01*
X122226097Y-65863663D01*
X122297619Y-66017042D01*
X122325965Y-66077830D01*
X122325967Y-66077834D01*
X122461501Y-66271395D01*
X122461506Y-66271402D01*
X122628597Y-66438493D01*
X122628603Y-66438498D01*
X122814158Y-66568425D01*
X122857783Y-66623002D01*
X122864977Y-66692500D01*
X122833454Y-66754855D01*
X122814158Y-66771575D01*
X122628597Y-66901505D01*
X122461505Y-67068597D01*
X122325965Y-67262169D01*
X122325964Y-67262171D01*
X122226098Y-67476335D01*
X122226094Y-67476344D01*
X122164938Y-67704586D01*
X122164936Y-67704596D01*
X122144341Y-67939999D01*
X122144341Y-67940000D01*
X122164936Y-68175403D01*
X122164938Y-68175413D01*
X122226094Y-68403655D01*
X122226096Y-68403659D01*
X122226097Y-68403663D01*
X122297619Y-68557042D01*
X122325965Y-68617830D01*
X122325967Y-68617834D01*
X122461501Y-68811395D01*
X122461506Y-68811402D01*
X122628597Y-68978493D01*
X122628603Y-68978498D01*
X122814158Y-69108425D01*
X122857783Y-69163002D01*
X122864977Y-69232500D01*
X122833454Y-69294855D01*
X122814158Y-69311575D01*
X122628597Y-69441505D01*
X122461505Y-69608597D01*
X122325965Y-69802169D01*
X122325964Y-69802171D01*
X122226098Y-70016335D01*
X122226094Y-70016344D01*
X122164938Y-70244586D01*
X122164936Y-70244596D01*
X122144341Y-70479999D01*
X122144341Y-70480000D01*
X122164936Y-70715403D01*
X122164938Y-70715413D01*
X122226094Y-70943655D01*
X122226096Y-70943659D01*
X122226097Y-70943663D01*
X122297619Y-71097042D01*
X122325965Y-71157830D01*
X122325967Y-71157834D01*
X122461501Y-71351395D01*
X122461506Y-71351402D01*
X122628597Y-71518493D01*
X122628603Y-71518498D01*
X122814158Y-71648425D01*
X122857783Y-71703002D01*
X122864977Y-71772500D01*
X122833454Y-71834855D01*
X122814158Y-71851575D01*
X122628597Y-71981505D01*
X122461505Y-72148597D01*
X122325965Y-72342169D01*
X122325964Y-72342171D01*
X122226098Y-72556335D01*
X122226094Y-72556344D01*
X122164938Y-72784586D01*
X122164936Y-72784596D01*
X122144341Y-73019999D01*
X122144341Y-73020000D01*
X122164936Y-73255403D01*
X122164938Y-73255413D01*
X122226094Y-73483655D01*
X122226096Y-73483659D01*
X122226097Y-73483663D01*
X122297619Y-73637042D01*
X122325965Y-73697830D01*
X122325967Y-73697834D01*
X122461501Y-73891395D01*
X122461506Y-73891402D01*
X122628597Y-74058493D01*
X122628603Y-74058498D01*
X122814158Y-74188425D01*
X122857783Y-74243002D01*
X122864977Y-74312500D01*
X122833454Y-74374855D01*
X122814158Y-74391575D01*
X122628597Y-74521505D01*
X122461505Y-74688597D01*
X122325965Y-74882169D01*
X122325964Y-74882171D01*
X122226098Y-75096335D01*
X122226094Y-75096344D01*
X122164938Y-75324586D01*
X122164936Y-75324596D01*
X122144341Y-75559999D01*
X122144341Y-75560000D01*
X122164936Y-75795403D01*
X122164938Y-75795413D01*
X122226094Y-76023655D01*
X122226096Y-76023659D01*
X122226097Y-76023663D01*
X122298651Y-76179255D01*
X122325965Y-76237830D01*
X122325967Y-76237834D01*
X122461501Y-76431395D01*
X122461506Y-76431402D01*
X122628597Y-76598493D01*
X122628603Y-76598498D01*
X122814158Y-76728425D01*
X122857783Y-76783002D01*
X122864977Y-76852500D01*
X122833454Y-76914855D01*
X122814158Y-76931575D01*
X122628597Y-77061505D01*
X122461505Y-77228597D01*
X122325965Y-77422169D01*
X122325964Y-77422171D01*
X122226098Y-77636335D01*
X122226094Y-77636344D01*
X122164938Y-77864586D01*
X122164936Y-77864596D01*
X122144341Y-78099999D01*
X122144341Y-78100000D01*
X122164936Y-78335403D01*
X122164938Y-78335413D01*
X122226094Y-78563655D01*
X122226096Y-78563659D01*
X122226097Y-78563663D01*
X122297619Y-78717042D01*
X122325965Y-78777830D01*
X122325967Y-78777834D01*
X122461501Y-78971395D01*
X122461506Y-78971402D01*
X122628597Y-79138493D01*
X122628603Y-79138498D01*
X122814158Y-79268425D01*
X122857783Y-79323002D01*
X122864977Y-79392500D01*
X122833454Y-79454855D01*
X122814158Y-79471575D01*
X122628597Y-79601505D01*
X122461505Y-79768597D01*
X122325965Y-79962169D01*
X122325964Y-79962171D01*
X122226098Y-80176335D01*
X122226094Y-80176344D01*
X122164938Y-80404586D01*
X122164936Y-80404596D01*
X122144341Y-80639999D01*
X122144341Y-80640000D01*
X122164936Y-80875403D01*
X122164938Y-80875413D01*
X122226094Y-81103655D01*
X122226096Y-81103659D01*
X122226097Y-81103663D01*
X122297619Y-81257042D01*
X122325965Y-81317830D01*
X122325967Y-81317834D01*
X122461501Y-81511395D01*
X122461506Y-81511402D01*
X122628597Y-81678493D01*
X122628603Y-81678498D01*
X122814158Y-81808425D01*
X122857783Y-81863002D01*
X122864977Y-81932500D01*
X122833454Y-81994855D01*
X122814158Y-82011575D01*
X122628597Y-82141505D01*
X122461505Y-82308597D01*
X122325965Y-82502169D01*
X122325964Y-82502171D01*
X122226098Y-82716335D01*
X122226094Y-82716344D01*
X122164938Y-82944586D01*
X122164936Y-82944596D01*
X122144341Y-83179999D01*
X122144341Y-83180000D01*
X122164936Y-83415403D01*
X122164938Y-83415413D01*
X122226094Y-83643655D01*
X122226096Y-83643659D01*
X122226097Y-83643663D01*
X122289322Y-83779249D01*
X122325965Y-83857830D01*
X122325967Y-83857834D01*
X122461501Y-84051395D01*
X122461506Y-84051402D01*
X122628597Y-84218493D01*
X122628603Y-84218498D01*
X122814158Y-84348425D01*
X122857783Y-84403002D01*
X122864977Y-84472500D01*
X122833454Y-84534855D01*
X122814158Y-84551575D01*
X122628597Y-84681505D01*
X122461505Y-84848597D01*
X122325965Y-85042169D01*
X122325964Y-85042171D01*
X122226098Y-85256335D01*
X122226094Y-85256344D01*
X122164938Y-85484586D01*
X122164936Y-85484596D01*
X122144341Y-85719999D01*
X122144341Y-85720000D01*
X122164936Y-85955403D01*
X122164938Y-85955413D01*
X122226094Y-86183655D01*
X122226096Y-86183659D01*
X122226097Y-86183663D01*
X122290020Y-86320745D01*
X122325965Y-86397830D01*
X122325967Y-86397834D01*
X122397502Y-86499996D01*
X122449468Y-86574211D01*
X122461501Y-86591395D01*
X122461506Y-86591402D01*
X122628597Y-86758493D01*
X122628603Y-86758498D01*
X122814158Y-86888425D01*
X122857783Y-86943002D01*
X122864977Y-87012500D01*
X122833454Y-87074855D01*
X122814158Y-87091575D01*
X122628597Y-87221505D01*
X122461505Y-87388597D01*
X122325965Y-87582169D01*
X122325964Y-87582171D01*
X122226098Y-87796335D01*
X122226094Y-87796344D01*
X122164938Y-88024586D01*
X122164936Y-88024596D01*
X122144341Y-88259999D01*
X122144341Y-88260000D01*
X122164936Y-88495403D01*
X122164938Y-88495413D01*
X122226094Y-88723655D01*
X122226096Y-88723659D01*
X122226097Y-88723663D01*
X122296299Y-88874211D01*
X122325965Y-88937830D01*
X122325967Y-88937834D01*
X122461501Y-89131395D01*
X122461506Y-89131402D01*
X122628597Y-89298493D01*
X122628603Y-89298498D01*
X122814158Y-89428425D01*
X122857783Y-89483002D01*
X122864977Y-89552500D01*
X122833454Y-89614855D01*
X122814158Y-89631575D01*
X122628597Y-89761505D01*
X122461505Y-89928597D01*
X122325965Y-90122169D01*
X122325964Y-90122171D01*
X122226098Y-90336335D01*
X122226094Y-90336344D01*
X122164938Y-90564586D01*
X122164936Y-90564596D01*
X122144341Y-90799999D01*
X122144341Y-90800000D01*
X122164936Y-91035403D01*
X122164938Y-91035413D01*
X122226094Y-91263655D01*
X122226096Y-91263659D01*
X122226097Y-91263663D01*
X122296494Y-91414630D01*
X122325965Y-91477830D01*
X122325967Y-91477834D01*
X122461501Y-91671395D01*
X122461506Y-91671402D01*
X122628597Y-91838493D01*
X122628603Y-91838498D01*
X122814158Y-91968425D01*
X122857783Y-92023002D01*
X122864977Y-92092500D01*
X122833454Y-92154855D01*
X122814158Y-92171575D01*
X122628597Y-92301505D01*
X122461505Y-92468597D01*
X122325965Y-92662169D01*
X122325964Y-92662171D01*
X122226098Y-92876335D01*
X122226094Y-92876344D01*
X122164938Y-93104586D01*
X122164936Y-93104596D01*
X122144341Y-93339999D01*
X122144341Y-93340000D01*
X122164936Y-93575403D01*
X122164938Y-93575413D01*
X122226094Y-93803655D01*
X122226096Y-93803659D01*
X122226097Y-93803663D01*
X122292006Y-93945005D01*
X122325965Y-94017830D01*
X122325967Y-94017834D01*
X122413271Y-94142516D01*
X122455008Y-94202123D01*
X122461501Y-94211395D01*
X122461506Y-94211402D01*
X122628597Y-94378493D01*
X122628603Y-94378498D01*
X122814158Y-94508425D01*
X122857783Y-94563002D01*
X122864977Y-94632500D01*
X122833454Y-94694855D01*
X122814158Y-94711575D01*
X122628597Y-94841505D01*
X122461505Y-95008597D01*
X122325965Y-95202169D01*
X122325964Y-95202171D01*
X122226098Y-95416335D01*
X122226094Y-95416344D01*
X122164938Y-95644586D01*
X122164936Y-95644596D01*
X122144341Y-95879999D01*
X122144341Y-95880000D01*
X122164936Y-96115403D01*
X122164938Y-96115413D01*
X122226094Y-96343655D01*
X122226096Y-96343659D01*
X122226097Y-96343663D01*
X122297619Y-96497042D01*
X122325965Y-96557830D01*
X122325967Y-96557834D01*
X122461501Y-96751395D01*
X122461506Y-96751402D01*
X122628597Y-96918493D01*
X122628603Y-96918498D01*
X122814158Y-97048425D01*
X122857783Y-97103002D01*
X122864977Y-97172500D01*
X122833454Y-97234855D01*
X122814158Y-97251575D01*
X122628597Y-97381505D01*
X122461505Y-97548597D01*
X122325965Y-97742169D01*
X122325964Y-97742171D01*
X122226098Y-97956335D01*
X122226094Y-97956344D01*
X122164938Y-98184586D01*
X122164936Y-98184596D01*
X122144341Y-98419999D01*
X122144341Y-98420000D01*
X122164936Y-98655403D01*
X122164938Y-98655413D01*
X122226094Y-98883655D01*
X122226096Y-98883659D01*
X122226097Y-98883663D01*
X122297619Y-99037042D01*
X122325965Y-99097830D01*
X122325967Y-99097834D01*
X122461501Y-99291395D01*
X122461506Y-99291402D01*
X122628597Y-99458493D01*
X122628603Y-99458498D01*
X122814158Y-99588425D01*
X122857783Y-99643002D01*
X122864977Y-99712500D01*
X122833454Y-99774855D01*
X122814158Y-99791575D01*
X122628597Y-99921505D01*
X122461505Y-100088597D01*
X122325965Y-100282169D01*
X122325964Y-100282171D01*
X122226098Y-100496335D01*
X122226094Y-100496344D01*
X122164938Y-100724586D01*
X122164936Y-100724596D01*
X122144341Y-100959999D01*
X122144341Y-100960000D01*
X122164936Y-101195403D01*
X122164938Y-101195413D01*
X122226094Y-101423655D01*
X122226096Y-101423659D01*
X122226097Y-101423663D01*
X122297619Y-101577042D01*
X122325965Y-101637830D01*
X122325967Y-101637834D01*
X122461501Y-101831395D01*
X122461506Y-101831402D01*
X122628597Y-101998493D01*
X122628603Y-101998498D01*
X122814158Y-102128425D01*
X122857783Y-102183002D01*
X122864977Y-102252500D01*
X122833454Y-102314855D01*
X122814158Y-102331575D01*
X122628597Y-102461505D01*
X122461505Y-102628597D01*
X122325965Y-102822169D01*
X122325964Y-102822171D01*
X122226098Y-103036335D01*
X122226094Y-103036344D01*
X122164938Y-103264586D01*
X122164936Y-103264596D01*
X122144341Y-103499999D01*
X122144341Y-103500000D01*
X122164936Y-103735403D01*
X122164938Y-103735413D01*
X122226094Y-103963655D01*
X122226096Y-103963659D01*
X122226097Y-103963663D01*
X122309506Y-104142533D01*
X122325965Y-104177830D01*
X122325967Y-104177834D01*
X122461501Y-104371395D01*
X122461506Y-104371402D01*
X122628597Y-104538493D01*
X122628603Y-104538498D01*
X122814158Y-104668425D01*
X122857783Y-104723002D01*
X122864977Y-104792500D01*
X122833454Y-104854855D01*
X122814158Y-104871575D01*
X122628597Y-105001505D01*
X122461505Y-105168597D01*
X122325965Y-105362169D01*
X122325964Y-105362171D01*
X122226098Y-105576335D01*
X122226094Y-105576344D01*
X122164938Y-105804586D01*
X122164936Y-105804596D01*
X122144341Y-106039999D01*
X122144341Y-106040000D01*
X122164936Y-106275403D01*
X122164938Y-106275413D01*
X122226094Y-106503655D01*
X122226096Y-106503659D01*
X122226097Y-106503663D01*
X122294113Y-106649523D01*
X122325965Y-106717830D01*
X122325967Y-106717834D01*
X122461501Y-106911395D01*
X122461506Y-106911402D01*
X122628597Y-107078493D01*
X122628603Y-107078498D01*
X122814158Y-107208425D01*
X122857783Y-107263002D01*
X122864977Y-107332500D01*
X122833454Y-107394855D01*
X122814158Y-107411575D01*
X122628597Y-107541505D01*
X122461505Y-107708597D01*
X122325965Y-107902169D01*
X122325964Y-107902171D01*
X122226098Y-108116335D01*
X122226094Y-108116344D01*
X122164938Y-108344586D01*
X122164936Y-108344596D01*
X122144341Y-108579999D01*
X122144341Y-108580000D01*
X122164936Y-108815403D01*
X122164938Y-108815413D01*
X122226094Y-109043655D01*
X122226096Y-109043659D01*
X122226097Y-109043663D01*
X122293055Y-109187254D01*
X122325965Y-109257830D01*
X122325967Y-109257834D01*
X122461501Y-109451395D01*
X122461506Y-109451402D01*
X122628597Y-109618493D01*
X122628603Y-109618498D01*
X122707761Y-109673925D01*
X122751386Y-109728502D01*
X122758580Y-109798000D01*
X122727057Y-109860355D01*
X122666827Y-109895769D01*
X122636638Y-109899500D01*
X106583362Y-109899500D01*
X106516323Y-109879815D01*
X106470568Y-109827011D01*
X106460624Y-109757853D01*
X106489649Y-109694297D01*
X106512239Y-109673925D01*
X106527439Y-109663281D01*
X106591401Y-109618495D01*
X106758495Y-109451401D01*
X106894035Y-109257830D01*
X106993903Y-109043663D01*
X107055063Y-108815408D01*
X107075659Y-108580000D01*
X107055063Y-108344592D01*
X106993903Y-108116337D01*
X106894035Y-107902171D01*
X106880316Y-107882577D01*
X106758494Y-107708597D01*
X106591402Y-107541506D01*
X106591396Y-107541501D01*
X106405842Y-107411575D01*
X106362217Y-107356998D01*
X106355023Y-107287500D01*
X106386546Y-107225145D01*
X106405842Y-107208425D01*
X106467949Y-107164937D01*
X106591401Y-107078495D01*
X106758495Y-106911401D01*
X106894035Y-106717830D01*
X106993903Y-106503663D01*
X107055063Y-106275408D01*
X107075659Y-106040000D01*
X107055063Y-105804592D01*
X106993903Y-105576337D01*
X106894035Y-105362171D01*
X106870980Y-105329244D01*
X106758494Y-105168597D01*
X106591402Y-105001506D01*
X106591401Y-105001505D01*
X106405405Y-104871269D01*
X106361781Y-104816692D01*
X106354588Y-104747193D01*
X106386110Y-104684839D01*
X106405405Y-104668119D01*
X106591082Y-104538105D01*
X106758105Y-104371082D01*
X106893600Y-104177578D01*
X106993429Y-103963492D01*
X106993432Y-103963486D01*
X107050636Y-103750000D01*
X106153012Y-103750000D01*
X106185925Y-103692993D01*
X106220000Y-103565826D01*
X106220000Y-103434174D01*
X106185925Y-103307007D01*
X106153012Y-103250000D01*
X107050636Y-103250000D01*
X107050635Y-103249999D01*
X106993432Y-103036513D01*
X106993429Y-103036507D01*
X106893600Y-102822422D01*
X106893599Y-102822420D01*
X106758113Y-102628926D01*
X106758108Y-102628920D01*
X106591078Y-102461890D01*
X106405405Y-102331879D01*
X106361780Y-102277302D01*
X106354588Y-102207804D01*
X106386110Y-102145449D01*
X106405406Y-102128730D01*
X106405842Y-102128425D01*
X106591401Y-101998495D01*
X106758495Y-101831401D01*
X106894035Y-101637830D01*
X106993903Y-101423663D01*
X107055063Y-101195408D01*
X107075659Y-100960000D01*
X107055063Y-100724592D01*
X106993903Y-100496337D01*
X106894035Y-100282171D01*
X106870980Y-100249244D01*
X106758494Y-100088597D01*
X106591402Y-99921506D01*
X106591396Y-99921501D01*
X106405842Y-99791575D01*
X106362217Y-99736998D01*
X106355023Y-99667500D01*
X106386546Y-99605145D01*
X106405842Y-99588425D01*
X106428026Y-99572891D01*
X106591401Y-99458495D01*
X106758495Y-99291401D01*
X106894035Y-99097830D01*
X106993903Y-98883663D01*
X107055063Y-98655408D01*
X107075659Y-98420000D01*
X107055063Y-98184592D01*
X106993903Y-97956337D01*
X106894035Y-97742171D01*
X106870980Y-97709244D01*
X106758494Y-97548597D01*
X106591402Y-97381506D01*
X106591396Y-97381501D01*
X106405842Y-97251575D01*
X106362217Y-97196998D01*
X106355023Y-97127500D01*
X106386546Y-97065145D01*
X106405842Y-97048425D01*
X106428026Y-97032891D01*
X106591401Y-96918495D01*
X106758495Y-96751401D01*
X106894035Y-96557830D01*
X106993903Y-96343663D01*
X107055063Y-96115408D01*
X107075659Y-95880000D01*
X107055063Y-95644592D01*
X106993903Y-95416337D01*
X106894035Y-95202171D01*
X106870980Y-95169244D01*
X106758494Y-95008597D01*
X106591402Y-94841506D01*
X106591396Y-94841501D01*
X106405842Y-94711575D01*
X106362217Y-94656998D01*
X106355023Y-94587500D01*
X106386546Y-94525145D01*
X106405842Y-94508425D01*
X106428026Y-94492891D01*
X106591401Y-94378495D01*
X106758495Y-94211401D01*
X106894035Y-94017830D01*
X106993903Y-93803663D01*
X107055063Y-93575408D01*
X107075659Y-93340000D01*
X107055063Y-93104592D01*
X107007153Y-92925788D01*
X106993905Y-92876344D01*
X106993904Y-92876343D01*
X106993903Y-92876337D01*
X106894035Y-92662171D01*
X106888416Y-92654145D01*
X106758494Y-92468597D01*
X106591402Y-92301506D01*
X106591396Y-92301501D01*
X106405842Y-92171575D01*
X106362217Y-92116998D01*
X106355023Y-92047500D01*
X106386546Y-91985145D01*
X106405842Y-91968425D01*
X106506793Y-91897738D01*
X106591401Y-91838495D01*
X106758495Y-91671401D01*
X106894035Y-91477830D01*
X106993903Y-91263663D01*
X107055063Y-91035408D01*
X107075659Y-90800000D01*
X107055063Y-90564592D01*
X106993903Y-90336337D01*
X106894035Y-90122171D01*
X106870980Y-90089244D01*
X106758494Y-89928597D01*
X106591402Y-89761506D01*
X106591396Y-89761501D01*
X106405842Y-89631575D01*
X106362217Y-89576998D01*
X106355023Y-89507500D01*
X106386546Y-89445145D01*
X106405842Y-89428425D01*
X106459156Y-89391094D01*
X106591401Y-89298495D01*
X106758495Y-89131401D01*
X106894035Y-88937830D01*
X106993903Y-88723663D01*
X107055063Y-88495408D01*
X107075659Y-88260000D01*
X107055063Y-88024592D01*
X106993903Y-87796337D01*
X106894035Y-87582171D01*
X106870980Y-87549244D01*
X106758494Y-87388597D01*
X106591402Y-87221506D01*
X106591396Y-87221501D01*
X106405842Y-87091575D01*
X106362217Y-87036998D01*
X106355023Y-86967500D01*
X106386546Y-86905145D01*
X106405842Y-86888425D01*
X106452014Y-86856095D01*
X106591401Y-86758495D01*
X106758495Y-86591401D01*
X106894035Y-86397830D01*
X106993903Y-86183663D01*
X107055063Y-85955408D01*
X107075659Y-85720000D01*
X107055063Y-85484592D01*
X106993903Y-85256337D01*
X106894035Y-85042171D01*
X106882565Y-85025789D01*
X106758494Y-84848597D01*
X106591402Y-84681506D01*
X106591396Y-84681501D01*
X106405842Y-84551575D01*
X106362217Y-84496998D01*
X106355023Y-84427500D01*
X106386546Y-84365145D01*
X106405842Y-84348425D01*
X106438171Y-84325788D01*
X106591401Y-84218495D01*
X106758495Y-84051401D01*
X106894035Y-83857830D01*
X106993903Y-83643663D01*
X107055063Y-83415408D01*
X107075659Y-83180000D01*
X107055063Y-82944592D01*
X106993903Y-82716337D01*
X106894035Y-82502171D01*
X106870980Y-82469244D01*
X106758494Y-82308597D01*
X106591402Y-82141506D01*
X106591396Y-82141501D01*
X106405842Y-82011575D01*
X106362217Y-81956998D01*
X106355023Y-81887500D01*
X106386546Y-81825145D01*
X106405842Y-81808425D01*
X106563919Y-81697738D01*
X106591401Y-81678495D01*
X106758495Y-81511401D01*
X106894035Y-81317830D01*
X106993903Y-81103663D01*
X107055063Y-80875408D01*
X107075659Y-80640000D01*
X107055063Y-80404592D01*
X106993903Y-80176337D01*
X106894035Y-79962171D01*
X106870980Y-79929244D01*
X106758494Y-79768597D01*
X106591402Y-79601506D01*
X106591396Y-79601501D01*
X106405842Y-79471575D01*
X106362217Y-79416998D01*
X106355023Y-79347500D01*
X106386546Y-79285145D01*
X106405842Y-79268425D01*
X106428026Y-79252891D01*
X106591401Y-79138495D01*
X106758495Y-78971401D01*
X106894035Y-78777830D01*
X106993903Y-78563663D01*
X107055063Y-78335408D01*
X107075659Y-78100000D01*
X107055063Y-77864592D01*
X106993903Y-77636337D01*
X106894035Y-77422171D01*
X106870980Y-77389244D01*
X106758494Y-77228597D01*
X106591402Y-77061506D01*
X106591396Y-77061501D01*
X106405842Y-76931575D01*
X106362217Y-76876998D01*
X106355023Y-76807500D01*
X106386546Y-76745145D01*
X106405842Y-76728425D01*
X106428026Y-76712891D01*
X106591401Y-76598495D01*
X106758495Y-76431401D01*
X106894035Y-76237830D01*
X106993903Y-76023663D01*
X107055063Y-75795408D01*
X107075659Y-75560000D01*
X107055063Y-75324592D01*
X106993903Y-75096337D01*
X106894035Y-74882171D01*
X106885335Y-74869745D01*
X106758494Y-74688597D01*
X106591402Y-74521506D01*
X106591396Y-74521501D01*
X106405842Y-74391575D01*
X106362217Y-74336998D01*
X106355023Y-74267500D01*
X106386546Y-74205145D01*
X106405842Y-74188425D01*
X106452624Y-74155668D01*
X106591401Y-74058495D01*
X106758495Y-73891401D01*
X106894035Y-73697830D01*
X106993903Y-73483663D01*
X107055063Y-73255408D01*
X107075659Y-73020000D01*
X107055063Y-72784592D01*
X106993903Y-72556337D01*
X106894035Y-72342171D01*
X106870980Y-72309244D01*
X106758494Y-72148597D01*
X106591402Y-71981506D01*
X106591396Y-71981501D01*
X106405842Y-71851575D01*
X106362217Y-71796998D01*
X106355023Y-71727500D01*
X106386546Y-71665145D01*
X106405842Y-71648425D01*
X106569103Y-71534108D01*
X106591401Y-71518495D01*
X106758495Y-71351401D01*
X106894035Y-71157830D01*
X106993903Y-70943663D01*
X107055063Y-70715408D01*
X107075659Y-70480000D01*
X107055063Y-70244592D01*
X106993903Y-70016337D01*
X106894035Y-69802171D01*
X106870980Y-69769244D01*
X106758494Y-69608597D01*
X106591402Y-69441506D01*
X106591396Y-69441501D01*
X106405842Y-69311575D01*
X106362217Y-69256998D01*
X106355023Y-69187500D01*
X106386546Y-69125145D01*
X106405842Y-69108425D01*
X106428026Y-69092891D01*
X106591401Y-68978495D01*
X106758495Y-68811401D01*
X106894035Y-68617830D01*
X106993903Y-68403663D01*
X107055063Y-68175408D01*
X107075659Y-67940000D01*
X107055063Y-67704592D01*
X106993903Y-67476337D01*
X106894035Y-67262171D01*
X106870980Y-67229244D01*
X106758494Y-67068597D01*
X106591402Y-66901506D01*
X106591396Y-66901501D01*
X106405842Y-66771575D01*
X106362217Y-66716998D01*
X106355023Y-66647500D01*
X106386546Y-66585145D01*
X106405842Y-66568425D01*
X106428026Y-66552891D01*
X106591401Y-66438495D01*
X106758495Y-66271401D01*
X106894035Y-66077830D01*
X106993903Y-65863663D01*
X107055063Y-65635408D01*
X107075659Y-65400000D01*
X107055063Y-65164592D01*
X106993903Y-64936337D01*
X106894035Y-64722171D01*
X106870980Y-64689244D01*
X106758494Y-64528597D01*
X106591402Y-64361506D01*
X106591396Y-64361501D01*
X106405842Y-64231575D01*
X106362217Y-64176998D01*
X106355023Y-64107500D01*
X106386546Y-64045145D01*
X106405842Y-64028425D01*
X106428026Y-64012891D01*
X106591401Y-63898495D01*
X106758495Y-63731401D01*
X106894035Y-63537830D01*
X106993903Y-63323663D01*
X107055063Y-63095408D01*
X107075659Y-62860000D01*
X107055063Y-62624592D01*
X106993903Y-62396337D01*
X106894035Y-62182171D01*
X106870979Y-62149244D01*
X106758496Y-61988600D01*
X106758495Y-61988599D01*
X106636567Y-61866671D01*
X106603084Y-61805351D01*
X106608068Y-61735659D01*
X106649939Y-61679725D01*
X106680915Y-61662810D01*
X106812331Y-61613796D01*
X106927546Y-61527546D01*
X107013796Y-61412331D01*
X107064091Y-61277483D01*
X107070500Y-61217873D01*
X107070499Y-59422128D01*
X107064091Y-59362517D01*
X107013796Y-59227669D01*
X107013795Y-59227668D01*
X107013793Y-59227664D01*
X106927547Y-59112455D01*
X106927273Y-59112181D01*
X106927087Y-59111840D01*
X106922232Y-59105355D01*
X106923164Y-59104656D01*
X106893788Y-59050858D01*
X106898772Y-58981166D01*
X106940644Y-58925233D01*
X107006108Y-58900816D01*
X107014954Y-58900500D01*
X122205046Y-58900500D01*
X122272085Y-58920185D01*
G37*
%TD.AperFunction*%
%TA.AperFunction,Conductor*%
G36*
X124943365Y-70915416D02*
G01*
X124988700Y-70968581D01*
X124999500Y-71019196D01*
X124999500Y-71665892D01*
X125016008Y-71727500D01*
X125033608Y-71793187D01*
X125057666Y-71834855D01*
X125099500Y-71907314D01*
X125192686Y-72000500D01*
X125306814Y-72066392D01*
X125434108Y-72100500D01*
X125565892Y-72100500D01*
X142467582Y-72100500D01*
X142534621Y-72120185D01*
X142580376Y-72172989D01*
X142590320Y-72242147D01*
X142583764Y-72267833D01*
X142555908Y-72342517D01*
X142549501Y-72402116D01*
X142549501Y-72402123D01*
X142549500Y-72402135D01*
X142549500Y-74197870D01*
X142549501Y-74197876D01*
X142555908Y-74257483D01*
X142606202Y-74392328D01*
X142606206Y-74392335D01*
X142692452Y-74507544D01*
X142692455Y-74507547D01*
X142807664Y-74593793D01*
X142807671Y-74593797D01*
X142942517Y-74644091D01*
X142942516Y-74644091D01*
X142949444Y-74644835D01*
X143002127Y-74650500D01*
X144797872Y-74650499D01*
X144857483Y-74644091D01*
X144992331Y-74593796D01*
X145107546Y-74507546D01*
X145193796Y-74392331D01*
X145244091Y-74257483D01*
X145250500Y-74197873D01*
X145250499Y-72402128D01*
X145244091Y-72342517D01*
X145243961Y-72342169D01*
X145216236Y-72267833D01*
X145211252Y-72198141D01*
X145244737Y-72136818D01*
X145306061Y-72103334D01*
X145332418Y-72100500D01*
X148675500Y-72100500D01*
X148742539Y-72120185D01*
X148788294Y-72172989D01*
X148799500Y-72224500D01*
X148799500Y-107722327D01*
X148779815Y-107789366D01*
X148727011Y-107835121D01*
X148657853Y-107845065D01*
X148594297Y-107816040D01*
X148573925Y-107793450D01*
X148458494Y-107628597D01*
X148291402Y-107461506D01*
X148291395Y-107461501D01*
X148097834Y-107325967D01*
X148097830Y-107325965D01*
X148063593Y-107310000D01*
X147883663Y-107226097D01*
X147883659Y-107226096D01*
X147883655Y-107226094D01*
X147655413Y-107164938D01*
X147655403Y-107164936D01*
X147420001Y-107144341D01*
X147419999Y-107144341D01*
X147184596Y-107164936D01*
X147184586Y-107164938D01*
X146956344Y-107226094D01*
X146956335Y-107226098D01*
X146742171Y-107325964D01*
X146742169Y-107325965D01*
X146548597Y-107461505D01*
X146381505Y-107628597D01*
X146251575Y-107814158D01*
X146196998Y-107857783D01*
X146127500Y-107864977D01*
X146065145Y-107833454D01*
X146048425Y-107814158D01*
X145918494Y-107628597D01*
X145751402Y-107461506D01*
X145751395Y-107461501D01*
X145557834Y-107325967D01*
X145557830Y-107325965D01*
X145523593Y-107310000D01*
X145343663Y-107226097D01*
X145343658Y-107226095D01*
X145343649Y-107226092D01*
X145314685Y-107218331D01*
X145255025Y-107181966D01*
X145224497Y-107119118D01*
X145232792Y-107049743D01*
X145277279Y-106995865D01*
X145280773Y-106993585D01*
X145382262Y-106929816D01*
X145509816Y-106802262D01*
X145535006Y-106762171D01*
X145587341Y-106715881D01*
X145656394Y-106705233D01*
X145720243Y-106733608D01*
X145744993Y-106762170D01*
X145770184Y-106802262D01*
X145897738Y-106929816D01*
X146050478Y-107025789D01*
X146185471Y-107073025D01*
X146220745Y-107085368D01*
X146220750Y-107085369D01*
X146399996Y-107105565D01*
X146400000Y-107105565D01*
X146400004Y-107105565D01*
X146579249Y-107085369D01*
X146579252Y-107085368D01*
X146579255Y-107085368D01*
X146749522Y-107025789D01*
X146902262Y-106929816D01*
X147029816Y-106802262D01*
X147125789Y-106649522D01*
X147185368Y-106479255D01*
X147185369Y-106479249D01*
X147205565Y-106300003D01*
X147205565Y-106299996D01*
X147185369Y-106120750D01*
X147185368Y-106120745D01*
X147125788Y-105950476D01*
X147034125Y-105804596D01*
X147029816Y-105797738D01*
X146902262Y-105670184D01*
X146749523Y-105574211D01*
X146579254Y-105514631D01*
X146579249Y-105514630D01*
X146400004Y-105494435D01*
X146399996Y-105494435D01*
X146220750Y-105514630D01*
X146220745Y-105514631D01*
X146050476Y-105574211D01*
X145897737Y-105670184D01*
X145770184Y-105797737D01*
X145770182Y-105797740D01*
X145744993Y-105837828D01*
X145692658Y-105884119D01*
X145623604Y-105894766D01*
X145559756Y-105866390D01*
X145535007Y-105837828D01*
X145509817Y-105797740D01*
X145509815Y-105797737D01*
X145382262Y-105670184D01*
X145229523Y-105574211D01*
X145059254Y-105514631D01*
X145059249Y-105514630D01*
X144880004Y-105494435D01*
X144879996Y-105494435D01*
X144700750Y-105514630D01*
X144700745Y-105514631D01*
X144530476Y-105574211D01*
X144377737Y-105670184D01*
X144250184Y-105797737D01*
X144154211Y-105950476D01*
X144094631Y-106120745D01*
X144094630Y-106120750D01*
X144074435Y-106299996D01*
X144074435Y-106300003D01*
X144094630Y-106479249D01*
X144094631Y-106479254D01*
X144154211Y-106649523D01*
X144197132Y-106717831D01*
X144250184Y-106802262D01*
X144377738Y-106929816D01*
X144472330Y-106989252D01*
X144479191Y-106993563D01*
X144525482Y-107045898D01*
X144536130Y-107114951D01*
X144507755Y-107178800D01*
X144449365Y-107217172D01*
X144445315Y-107218331D01*
X144416348Y-107226093D01*
X144416338Y-107226096D01*
X144416337Y-107226097D01*
X144416335Y-107226098D01*
X144202171Y-107325964D01*
X144202169Y-107325965D01*
X144008597Y-107461505D01*
X143841505Y-107628597D01*
X143711575Y-107814158D01*
X143656998Y-107857783D01*
X143587500Y-107864977D01*
X143525145Y-107833454D01*
X143508425Y-107814158D01*
X143378494Y-107628597D01*
X143211402Y-107461506D01*
X143211395Y-107461501D01*
X143017834Y-107325967D01*
X143017830Y-107325965D01*
X142983593Y-107310000D01*
X142803663Y-107226097D01*
X142803659Y-107226096D01*
X142803655Y-107226094D01*
X142575413Y-107164938D01*
X142575403Y-107164936D01*
X142462626Y-107155069D01*
X142397557Y-107129616D01*
X142356579Y-107073025D01*
X142352701Y-107003263D01*
X142387156Y-106942479D01*
X142397184Y-106934621D01*
X142396816Y-106934159D01*
X142402256Y-106929819D01*
X142402262Y-106929816D01*
X142529816Y-106802262D01*
X142625789Y-106649522D01*
X142685368Y-106479255D01*
X142685369Y-106479249D01*
X142705565Y-106300003D01*
X142705565Y-106299996D01*
X142685369Y-106120750D01*
X142685368Y-106120745D01*
X142625788Y-105950476D01*
X142534125Y-105804596D01*
X142529816Y-105797738D01*
X142402262Y-105670184D01*
X142249523Y-105574211D01*
X142079254Y-105514631D01*
X142079249Y-105514630D01*
X141900004Y-105494435D01*
X141899996Y-105494435D01*
X141720750Y-105514630D01*
X141720745Y-105514631D01*
X141550476Y-105574211D01*
X141397737Y-105670184D01*
X141270184Y-105797737D01*
X141204994Y-105901487D01*
X141152659Y-105947778D01*
X141083605Y-105958426D01*
X141019757Y-105930051D01*
X140995006Y-105901487D01*
X140934125Y-105804596D01*
X140929816Y-105797738D01*
X140802262Y-105670184D01*
X140649523Y-105574211D01*
X140479254Y-105514631D01*
X140479249Y-105514630D01*
X140300004Y-105494435D01*
X140299996Y-105494435D01*
X140120750Y-105514630D01*
X140120745Y-105514631D01*
X139950476Y-105574211D01*
X139797737Y-105670184D01*
X139670184Y-105797737D01*
X139574211Y-105950476D01*
X139514631Y-106120745D01*
X139514630Y-106120750D01*
X139494435Y-106299996D01*
X139494435Y-106300003D01*
X139514630Y-106479249D01*
X139514631Y-106479254D01*
X139574211Y-106649523D01*
X139617132Y-106717831D01*
X139670184Y-106802262D01*
X139797738Y-106929816D01*
X139797741Y-106929818D01*
X139797810Y-106929873D01*
X139797845Y-106929923D01*
X139802662Y-106934740D01*
X139801818Y-106935583D01*
X139837952Y-106987060D01*
X139840804Y-107056871D01*
X139805460Y-107117142D01*
X139743142Y-107148737D01*
X139731308Y-107150350D01*
X139564596Y-107164936D01*
X139564586Y-107164938D01*
X139336344Y-107226094D01*
X139336335Y-107226098D01*
X139122171Y-107325964D01*
X139122169Y-107325965D01*
X138928597Y-107461505D01*
X138761505Y-107628597D01*
X138631575Y-107814158D01*
X138576998Y-107857783D01*
X138507500Y-107864977D01*
X138445145Y-107833454D01*
X138428425Y-107814158D01*
X138298494Y-107628597D01*
X138131402Y-107461506D01*
X138131395Y-107461501D01*
X137937834Y-107325967D01*
X137937830Y-107325965D01*
X137903593Y-107310000D01*
X137723663Y-107226097D01*
X137723659Y-107226096D01*
X137723655Y-107226094D01*
X137495413Y-107164938D01*
X137495403Y-107164936D01*
X137260001Y-107144341D01*
X137259999Y-107144341D01*
X137024596Y-107164936D01*
X137024586Y-107164938D01*
X136796344Y-107226094D01*
X136796335Y-107226098D01*
X136582171Y-107325964D01*
X136582169Y-107325965D01*
X136388597Y-107461505D01*
X136221505Y-107628597D01*
X136091575Y-107814158D01*
X136036998Y-107857783D01*
X135967500Y-107864977D01*
X135905145Y-107833454D01*
X135888425Y-107814158D01*
X135758494Y-107628597D01*
X135591402Y-107461506D01*
X135591395Y-107461501D01*
X135397834Y-107325967D01*
X135397830Y-107325965D01*
X135363593Y-107310000D01*
X135183663Y-107226097D01*
X135183659Y-107226096D01*
X135183655Y-107226094D01*
X134955413Y-107164938D01*
X134955403Y-107164936D01*
X134720001Y-107144341D01*
X134719999Y-107144341D01*
X134484596Y-107164936D01*
X134484586Y-107164938D01*
X134256344Y-107226094D01*
X134256335Y-107226098D01*
X134042171Y-107325964D01*
X134042169Y-107325965D01*
X133848597Y-107461505D01*
X133681505Y-107628597D01*
X133551575Y-107814158D01*
X133496998Y-107857783D01*
X133427500Y-107864977D01*
X133365145Y-107833454D01*
X133348425Y-107814158D01*
X133218494Y-107628597D01*
X133051402Y-107461506D01*
X133051395Y-107461501D01*
X132861148Y-107328288D01*
X132817523Y-107273711D01*
X132810330Y-107204213D01*
X132841852Y-107141858D01*
X132902082Y-107106444D01*
X132918385Y-107103493D01*
X132977705Y-107096809D01*
X133079249Y-107085369D01*
X133079252Y-107085368D01*
X133079255Y-107085368D01*
X133249522Y-107025789D01*
X133402262Y-106929816D01*
X133529816Y-106802262D01*
X133625789Y-106649522D01*
X133685368Y-106479255D01*
X133685369Y-106479249D01*
X133705565Y-106300003D01*
X133705565Y-106299996D01*
X134994435Y-106299996D01*
X134994435Y-106300003D01*
X135014630Y-106479249D01*
X135014631Y-106479254D01*
X135074211Y-106649523D01*
X135117132Y-106717831D01*
X135170184Y-106802262D01*
X135297738Y-106929816D01*
X135450478Y-107025789D01*
X135585471Y-107073025D01*
X135620745Y-107085368D01*
X135620750Y-107085369D01*
X135799996Y-107105565D01*
X135800000Y-107105565D01*
X135800004Y-107105565D01*
X135979249Y-107085369D01*
X135979252Y-107085368D01*
X135979255Y-107085368D01*
X136149522Y-107025789D01*
X136302262Y-106929816D01*
X136429816Y-106802262D01*
X136525789Y-106649522D01*
X136585368Y-106479255D01*
X136585369Y-106479249D01*
X136605565Y-106300003D01*
X136605565Y-106299996D01*
X137594435Y-106299996D01*
X137594435Y-106300003D01*
X137614630Y-106479249D01*
X137614631Y-106479254D01*
X137674211Y-106649523D01*
X137717132Y-106717831D01*
X137770184Y-106802262D01*
X137897738Y-106929816D01*
X138050478Y-107025789D01*
X138185471Y-107073025D01*
X138220745Y-107085368D01*
X138220750Y-107085369D01*
X138399996Y-107105565D01*
X138400000Y-107105565D01*
X138400004Y-107105565D01*
X138579249Y-107085369D01*
X138579252Y-107085368D01*
X138579255Y-107085368D01*
X138749522Y-107025789D01*
X138902262Y-106929816D01*
X139029816Y-106802262D01*
X139125789Y-106649522D01*
X139185368Y-106479255D01*
X139185369Y-106479249D01*
X139205565Y-106300003D01*
X139205565Y-106299996D01*
X139185369Y-106120750D01*
X139185368Y-106120745D01*
X139125788Y-105950476D01*
X139034125Y-105804596D01*
X139029816Y-105797738D01*
X138902262Y-105670184D01*
X138749523Y-105574211D01*
X138579254Y-105514631D01*
X138579249Y-105514630D01*
X138400004Y-105494435D01*
X138399996Y-105494435D01*
X138220750Y-105514630D01*
X138220745Y-105514631D01*
X138050476Y-105574211D01*
X137897737Y-105670184D01*
X137770184Y-105797737D01*
X137674211Y-105950476D01*
X137614631Y-106120745D01*
X137614630Y-106120750D01*
X137594435Y-106299996D01*
X136605565Y-106299996D01*
X136585369Y-106120750D01*
X136585368Y-106120745D01*
X136525788Y-105950476D01*
X136434125Y-105804596D01*
X136429816Y-105797738D01*
X136302262Y-105670184D01*
X136149523Y-105574211D01*
X135979254Y-105514631D01*
X135979249Y-105514630D01*
X135800004Y-105494435D01*
X135799996Y-105494435D01*
X135620750Y-105514630D01*
X135620745Y-105514631D01*
X135450476Y-105574211D01*
X135297737Y-105670184D01*
X135170184Y-105797737D01*
X135074211Y-105950476D01*
X135014631Y-106120745D01*
X135014630Y-106120750D01*
X134994435Y-106299996D01*
X133705565Y-106299996D01*
X133685369Y-106120750D01*
X133685368Y-106120745D01*
X133625788Y-105950476D01*
X133534125Y-105804596D01*
X133529816Y-105797738D01*
X133402262Y-105670184D01*
X133249523Y-105574211D01*
X133079254Y-105514631D01*
X133079249Y-105514630D01*
X132900004Y-105494435D01*
X132899996Y-105494435D01*
X132720750Y-105514630D01*
X132720745Y-105514631D01*
X132550476Y-105574211D01*
X132397737Y-105670184D01*
X132270184Y-105797737D01*
X132204994Y-105901487D01*
X132152659Y-105947778D01*
X132083605Y-105958426D01*
X132019757Y-105930051D01*
X131995006Y-105901487D01*
X131934125Y-105804596D01*
X131929816Y-105797738D01*
X131802262Y-105670184D01*
X131649523Y-105574211D01*
X131479254Y-105514631D01*
X131479249Y-105514630D01*
X131300004Y-105494435D01*
X131299996Y-105494435D01*
X131120750Y-105514630D01*
X131120745Y-105514631D01*
X130950476Y-105574211D01*
X130797737Y-105670184D01*
X130670184Y-105797737D01*
X130574211Y-105950476D01*
X130514631Y-106120745D01*
X130514630Y-106120750D01*
X130494435Y-106299996D01*
X130494435Y-106300003D01*
X130514630Y-106479249D01*
X130514631Y-106479254D01*
X130574211Y-106649523D01*
X130617132Y-106717831D01*
X130670184Y-106802262D01*
X130797738Y-106929816D01*
X130950478Y-107025789D01*
X131085471Y-107073025D01*
X131120745Y-107085368D01*
X131120750Y-107085369D01*
X131299996Y-107105565D01*
X131300000Y-107105565D01*
X131300003Y-107105565D01*
X131436185Y-107090221D01*
X131505007Y-107102275D01*
X131556387Y-107149625D01*
X131574011Y-107217235D01*
X131552284Y-107283641D01*
X131506416Y-107322487D01*
X131506861Y-107323257D01*
X131502610Y-107325711D01*
X131502483Y-107325819D01*
X131502174Y-107325963D01*
X131502169Y-107325965D01*
X131308597Y-107461505D01*
X131141505Y-107628597D01*
X131011575Y-107814158D01*
X130956998Y-107857783D01*
X130887500Y-107864977D01*
X130825145Y-107833454D01*
X130808425Y-107814158D01*
X130678494Y-107628597D01*
X130511402Y-107461506D01*
X130511395Y-107461501D01*
X130317834Y-107325967D01*
X130317830Y-107325965D01*
X130283593Y-107310000D01*
X130103663Y-107226097D01*
X130103659Y-107226096D01*
X130103655Y-107226094D01*
X129875413Y-107164938D01*
X129875403Y-107164936D01*
X129640001Y-107144341D01*
X129639999Y-107144341D01*
X129404596Y-107164936D01*
X129404586Y-107164938D01*
X129176344Y-107226094D01*
X129176335Y-107226098D01*
X128962171Y-107325964D01*
X128962169Y-107325965D01*
X128768600Y-107461503D01*
X128646673Y-107583430D01*
X128585350Y-107616914D01*
X128515658Y-107611930D01*
X128459725Y-107570058D01*
X128442810Y-107539081D01*
X128393797Y-107407671D01*
X128393793Y-107407664D01*
X128307547Y-107292455D01*
X128307544Y-107292452D01*
X128192335Y-107206206D01*
X128192328Y-107206202D01*
X128057482Y-107155908D01*
X128057483Y-107155908D01*
X127997883Y-107149501D01*
X127997881Y-107149500D01*
X127997873Y-107149500D01*
X127997865Y-107149500D01*
X127681157Y-107149500D01*
X127614118Y-107129815D01*
X127568363Y-107077011D01*
X127558419Y-107007853D01*
X127587444Y-106944297D01*
X127597368Y-106934770D01*
X127597338Y-106934740D01*
X127620683Y-106911395D01*
X127729816Y-106802262D01*
X127825789Y-106649522D01*
X127885368Y-106479255D01*
X127885369Y-106479249D01*
X127905565Y-106300003D01*
X127905565Y-106299996D01*
X127885369Y-106120750D01*
X127885368Y-106120745D01*
X127825788Y-105950476D01*
X127734125Y-105804596D01*
X127729816Y-105797738D01*
X127602262Y-105670184D01*
X127449523Y-105574211D01*
X127279254Y-105514631D01*
X127279249Y-105514630D01*
X127100004Y-105494435D01*
X127099996Y-105494435D01*
X126920750Y-105514630D01*
X126920745Y-105514631D01*
X126750476Y-105574211D01*
X126597737Y-105670184D01*
X126470184Y-105797737D01*
X126374211Y-105950476D01*
X126314631Y-106120745D01*
X126314630Y-106120750D01*
X126294435Y-106299996D01*
X126294435Y-106300003D01*
X126314630Y-106479249D01*
X126314631Y-106479254D01*
X126374211Y-106649523D01*
X126470184Y-106802262D01*
X126602662Y-106934740D01*
X126601390Y-106936011D01*
X126636295Y-106985740D01*
X126639145Y-107055552D01*
X126603800Y-107115822D01*
X126541482Y-107147416D01*
X126518842Y-107149500D01*
X126202130Y-107149500D01*
X126202123Y-107149501D01*
X126142513Y-107155909D01*
X126132966Y-107159470D01*
X126063275Y-107164452D01*
X126001953Y-107130965D01*
X125972595Y-107084242D01*
X125968670Y-107073025D01*
X125925789Y-106950478D01*
X125916645Y-106935926D01*
X125886582Y-106888080D01*
X125829816Y-106797738D01*
X125702262Y-106670184D01*
X125656728Y-106641573D01*
X125549523Y-106574211D01*
X125379254Y-106514631D01*
X125379249Y-106514630D01*
X125200004Y-106494435D01*
X125199996Y-106494435D01*
X125020750Y-106514630D01*
X125020738Y-106514633D01*
X124966573Y-106533586D01*
X124896794Y-106537147D01*
X124836167Y-106502417D01*
X124803941Y-106440423D01*
X124805845Y-106384451D01*
X124835063Y-106275408D01*
X124855659Y-106040000D01*
X124835063Y-105804592D01*
X124773903Y-105576337D01*
X124674035Y-105362171D01*
X124650980Y-105329244D01*
X124538494Y-105168597D01*
X124371402Y-105001506D01*
X124371396Y-105001501D01*
X124185842Y-104871575D01*
X124142217Y-104816998D01*
X124135023Y-104747500D01*
X124166546Y-104685145D01*
X124185842Y-104668425D01*
X124208026Y-104652891D01*
X124371401Y-104538495D01*
X124538495Y-104371401D01*
X124674035Y-104177830D01*
X124773903Y-103963663D01*
X124835063Y-103735408D01*
X124855659Y-103500000D01*
X124835063Y-103264592D01*
X124773903Y-103036337D01*
X124674035Y-102822171D01*
X124538495Y-102628599D01*
X124538494Y-102628597D01*
X124371402Y-102461506D01*
X124371396Y-102461501D01*
X124185842Y-102331575D01*
X124142217Y-102276998D01*
X124135023Y-102207500D01*
X124166546Y-102145145D01*
X124185842Y-102128425D01*
X124256072Y-102079249D01*
X124371401Y-101998495D01*
X124469900Y-101899996D01*
X129694432Y-101899996D01*
X129694432Y-101900003D01*
X129714627Y-102079249D01*
X129714628Y-102079254D01*
X129774208Y-102249523D01*
X129822240Y-102325965D01*
X129870181Y-102402262D01*
X129997735Y-102529816D01*
X130088077Y-102586582D01*
X130148251Y-102624392D01*
X130150475Y-102625789D01*
X130320736Y-102685366D01*
X130320742Y-102685368D01*
X130320747Y-102685369D01*
X130499993Y-102705565D01*
X130499997Y-102705565D01*
X130500001Y-102705565D01*
X130679246Y-102685369D01*
X130679248Y-102685368D01*
X130679252Y-102685368D01*
X130679255Y-102685366D01*
X130679259Y-102685366D01*
X130856092Y-102623489D01*
X130856843Y-102625637D01*
X130915125Y-102616035D01*
X130943589Y-102624391D01*
X130943905Y-102623489D01*
X131120745Y-102685368D01*
X131120750Y-102685369D01*
X131299996Y-102705565D01*
X131300000Y-102705565D01*
X131300004Y-102705565D01*
X131479249Y-102685369D01*
X131479251Y-102685368D01*
X131479255Y-102685368D01*
X131479258Y-102685366D01*
X131479262Y-102685366D01*
X131656095Y-102623489D01*
X131656846Y-102625637D01*
X131715128Y-102616035D01*
X131743588Y-102624392D01*
X131743905Y-102623489D01*
X131920737Y-102685366D01*
X131920743Y-102685367D01*
X131920745Y-102685368D01*
X131920746Y-102685368D01*
X131920750Y-102685369D01*
X132099996Y-102705565D01*
X132100000Y-102705565D01*
X132100004Y-102705565D01*
X132279249Y-102685369D01*
X132279251Y-102685368D01*
X132279255Y-102685368D01*
X132279258Y-102685366D01*
X132279262Y-102685366D01*
X132456095Y-102623489D01*
X132456846Y-102625637D01*
X132515128Y-102616035D01*
X132543588Y-102624392D01*
X132543905Y-102623489D01*
X132720737Y-102685366D01*
X132720743Y-102685367D01*
X132720745Y-102685368D01*
X132720746Y-102685368D01*
X132720750Y-102685369D01*
X132899996Y-102705565D01*
X132900000Y-102705565D01*
X132900004Y-102705565D01*
X133079249Y-102685369D01*
X133079252Y-102685368D01*
X133079255Y-102685368D01*
X133249522Y-102625789D01*
X133402262Y-102529816D01*
X133529816Y-102402262D01*
X133625789Y-102249522D01*
X133685368Y-102079255D01*
X133694467Y-101998498D01*
X133705565Y-101900003D01*
X133705565Y-101899996D01*
X134194435Y-101899996D01*
X134194435Y-101900003D01*
X134214630Y-102079249D01*
X134214631Y-102079254D01*
X134274211Y-102249523D01*
X134322243Y-102325965D01*
X134370184Y-102402262D01*
X134497738Y-102529816D01*
X134588080Y-102586582D01*
X134648254Y-102624392D01*
X134650478Y-102625789D01*
X134820739Y-102685366D01*
X134820745Y-102685368D01*
X134820750Y-102685369D01*
X134999996Y-102705565D01*
X135000000Y-102705565D01*
X135000004Y-102705565D01*
X135179249Y-102685369D01*
X135179251Y-102685368D01*
X135179255Y-102685368D01*
X135179258Y-102685366D01*
X135179262Y-102685366D01*
X135356095Y-102623489D01*
X135356846Y-102625637D01*
X135415128Y-102616035D01*
X135443592Y-102624391D01*
X135443908Y-102623489D01*
X135620748Y-102685368D01*
X135620753Y-102685369D01*
X135799999Y-102705565D01*
X135800003Y-102705565D01*
X135800007Y-102705565D01*
X135979252Y-102685369D01*
X135979254Y-102685368D01*
X135979258Y-102685368D01*
X135979261Y-102685366D01*
X135979265Y-102685366D01*
X136156098Y-102623489D01*
X136156849Y-102625637D01*
X136215131Y-102616035D01*
X136243595Y-102624391D01*
X136243911Y-102623489D01*
X136420751Y-102685368D01*
X136420756Y-102685369D01*
X136600002Y-102705565D01*
X136600006Y-102705565D01*
X136600010Y-102705565D01*
X136779255Y-102685369D01*
X136779257Y-102685368D01*
X136779261Y-102685368D01*
X136779264Y-102685366D01*
X136779268Y-102685366D01*
X136956101Y-102623489D01*
X136956852Y-102625637D01*
X137015134Y-102616035D01*
X137043598Y-102624391D01*
X137043914Y-102623489D01*
X137220754Y-102685368D01*
X137220759Y-102685369D01*
X137400005Y-102705565D01*
X137400009Y-102705565D01*
X137400013Y-102705565D01*
X137579258Y-102685369D01*
X137579261Y-102685368D01*
X137579264Y-102685368D01*
X137749531Y-102625789D01*
X137902271Y-102529816D01*
X138029825Y-102402262D01*
X138125798Y-102249522D01*
X138185377Y-102079255D01*
X138194476Y-101998498D01*
X138205574Y-101900003D01*
X138205574Y-101899996D01*
X138694435Y-101899996D01*
X138694435Y-101900003D01*
X138714630Y-102079249D01*
X138714631Y-102079254D01*
X138774211Y-102249523D01*
X138822243Y-102325965D01*
X138870184Y-102402262D01*
X138997738Y-102529816D01*
X139088080Y-102586582D01*
X139148254Y-102624392D01*
X139150478Y-102625789D01*
X139320739Y-102685366D01*
X139320745Y-102685368D01*
X139320750Y-102685369D01*
X139499996Y-102705565D01*
X139500000Y-102705565D01*
X139500004Y-102705565D01*
X139679249Y-102685369D01*
X139679251Y-102685368D01*
X139679255Y-102685368D01*
X139679258Y-102685366D01*
X139679262Y-102685366D01*
X139856095Y-102623489D01*
X139856846Y-102625637D01*
X139915128Y-102616035D01*
X139943588Y-102624392D01*
X139943905Y-102623489D01*
X140120737Y-102685366D01*
X140120743Y-102685367D01*
X140120745Y-102685368D01*
X140120746Y-102685368D01*
X140120750Y-102685369D01*
X140299996Y-102705565D01*
X140300000Y-102705565D01*
X140300004Y-102705565D01*
X140479249Y-102685369D01*
X140479251Y-102685368D01*
X140479255Y-102685368D01*
X140479258Y-102685366D01*
X140479262Y-102685366D01*
X140656095Y-102623489D01*
X140656846Y-102625637D01*
X140715128Y-102616035D01*
X140743588Y-102624392D01*
X140743905Y-102623489D01*
X140920737Y-102685366D01*
X140920743Y-102685367D01*
X140920745Y-102685368D01*
X140920746Y-102685368D01*
X140920750Y-102685369D01*
X141099996Y-102705565D01*
X141100000Y-102705565D01*
X141100004Y-102705565D01*
X141279249Y-102685369D01*
X141279251Y-102685368D01*
X141279255Y-102685368D01*
X141279258Y-102685366D01*
X141279262Y-102685366D01*
X141456095Y-102623489D01*
X141456846Y-102625637D01*
X141515128Y-102616035D01*
X141543592Y-102624391D01*
X141543908Y-102623489D01*
X141720748Y-102685368D01*
X141720753Y-102685369D01*
X141899999Y-102705565D01*
X141900003Y-102705565D01*
X141900007Y-102705565D01*
X142079252Y-102685369D01*
X142079255Y-102685368D01*
X142079258Y-102685368D01*
X142249525Y-102625789D01*
X142402265Y-102529816D01*
X142529819Y-102402262D01*
X142625792Y-102249522D01*
X142685371Y-102079255D01*
X142694470Y-101998498D01*
X142705568Y-101900003D01*
X142705568Y-101899996D01*
X143194435Y-101899996D01*
X143194435Y-101900003D01*
X143214630Y-102079249D01*
X143214631Y-102079254D01*
X143274211Y-102249523D01*
X143322243Y-102325965D01*
X143370184Y-102402262D01*
X143497738Y-102529816D01*
X143588080Y-102586582D01*
X143648254Y-102624392D01*
X143650478Y-102625789D01*
X143820739Y-102685366D01*
X143820745Y-102685368D01*
X143820750Y-102685369D01*
X143999996Y-102705565D01*
X144000000Y-102705565D01*
X144000004Y-102705565D01*
X144179249Y-102685369D01*
X144179251Y-102685368D01*
X144179255Y-102685368D01*
X144179258Y-102685366D01*
X144179262Y-102685366D01*
X144356095Y-102623489D01*
X144356846Y-102625637D01*
X144415128Y-102616035D01*
X144443588Y-102624392D01*
X144443905Y-102623489D01*
X144620737Y-102685366D01*
X144620743Y-102685367D01*
X144620745Y-102685368D01*
X144620746Y-102685368D01*
X144620750Y-102685369D01*
X144799996Y-102705565D01*
X144800000Y-102705565D01*
X144800004Y-102705565D01*
X144979249Y-102685369D01*
X144979251Y-102685368D01*
X144979255Y-102685368D01*
X144979258Y-102685366D01*
X144979262Y-102685366D01*
X145156095Y-102623489D01*
X145156846Y-102625637D01*
X145215128Y-102616035D01*
X145243588Y-102624392D01*
X145243905Y-102623489D01*
X145420737Y-102685366D01*
X145420743Y-102685367D01*
X145420745Y-102685368D01*
X145420746Y-102685368D01*
X145420750Y-102685369D01*
X145599996Y-102705565D01*
X145600000Y-102705565D01*
X145600004Y-102705565D01*
X145779249Y-102685369D01*
X145779251Y-102685368D01*
X145779255Y-102685368D01*
X145779258Y-102685366D01*
X145779262Y-102685366D01*
X145956095Y-102623489D01*
X145956846Y-102625637D01*
X146015128Y-102616035D01*
X146043588Y-102624392D01*
X146043905Y-102623489D01*
X146220737Y-102685366D01*
X146220743Y-102685367D01*
X146220745Y-102685368D01*
X146220746Y-102685368D01*
X146220750Y-102685369D01*
X146399996Y-102705565D01*
X146400000Y-102705565D01*
X146400004Y-102705565D01*
X146579249Y-102685369D01*
X146579252Y-102685368D01*
X146579255Y-102685368D01*
X146749522Y-102625789D01*
X146902262Y-102529816D01*
X147029816Y-102402262D01*
X147125789Y-102249522D01*
X147185368Y-102079255D01*
X147194467Y-101998498D01*
X147205565Y-101900003D01*
X147205565Y-101899996D01*
X147185369Y-101720750D01*
X147185368Y-101720745D01*
X147125788Y-101550476D01*
X147046106Y-101423663D01*
X147029816Y-101397738D01*
X146902262Y-101270184D01*
X146749523Y-101174211D01*
X146579254Y-101114631D01*
X146579249Y-101114630D01*
X146400004Y-101094435D01*
X146399996Y-101094435D01*
X146220750Y-101114630D01*
X146220737Y-101114633D01*
X146043906Y-101176510D01*
X146043155Y-101174364D01*
X145984856Y-101183962D01*
X145956409Y-101175609D01*
X145956094Y-101176510D01*
X145779262Y-101114633D01*
X145779249Y-101114630D01*
X145600004Y-101094435D01*
X145599996Y-101094435D01*
X145420750Y-101114630D01*
X145420737Y-101114633D01*
X145243906Y-101176510D01*
X145243155Y-101174364D01*
X145184856Y-101183962D01*
X145156409Y-101175609D01*
X145156094Y-101176510D01*
X144979262Y-101114633D01*
X144979249Y-101114630D01*
X144800004Y-101094435D01*
X144799996Y-101094435D01*
X144620750Y-101114630D01*
X144620737Y-101114633D01*
X144443906Y-101176510D01*
X144443155Y-101174364D01*
X144384856Y-101183962D01*
X144356409Y-101175609D01*
X144356094Y-101176510D01*
X144179262Y-101114633D01*
X144179249Y-101114630D01*
X144000004Y-101094435D01*
X143999996Y-101094435D01*
X143820750Y-101114630D01*
X143820745Y-101114631D01*
X143650476Y-101174211D01*
X143497737Y-101270184D01*
X143370184Y-101397737D01*
X143274211Y-101550476D01*
X143214631Y-101720745D01*
X143214630Y-101720750D01*
X143194435Y-101899996D01*
X142705568Y-101899996D01*
X142685372Y-101720750D01*
X142685371Y-101720745D01*
X142625791Y-101550476D01*
X142546109Y-101423663D01*
X142529819Y-101397738D01*
X142402265Y-101270184D01*
X142249526Y-101174211D01*
X142079257Y-101114631D01*
X142079252Y-101114630D01*
X141900007Y-101094435D01*
X141899999Y-101094435D01*
X141720753Y-101114630D01*
X141720740Y-101114633D01*
X141543909Y-101176510D01*
X141543160Y-101174369D01*
X141484824Y-101183958D01*
X141456408Y-101175611D01*
X141456094Y-101176510D01*
X141279262Y-101114633D01*
X141279249Y-101114630D01*
X141100004Y-101094435D01*
X141099996Y-101094435D01*
X140920750Y-101114630D01*
X140920737Y-101114633D01*
X140743906Y-101176510D01*
X140743155Y-101174364D01*
X140684856Y-101183962D01*
X140656409Y-101175609D01*
X140656094Y-101176510D01*
X140479262Y-101114633D01*
X140479249Y-101114630D01*
X140300004Y-101094435D01*
X140299996Y-101094435D01*
X140120750Y-101114630D01*
X140120737Y-101114633D01*
X139943906Y-101176510D01*
X139943155Y-101174364D01*
X139884856Y-101183962D01*
X139856409Y-101175609D01*
X139856094Y-101176510D01*
X139679262Y-101114633D01*
X139679249Y-101114630D01*
X139500004Y-101094435D01*
X139499996Y-101094435D01*
X139320750Y-101114630D01*
X139320745Y-101114631D01*
X139150476Y-101174211D01*
X138997737Y-101270184D01*
X138870184Y-101397737D01*
X138774211Y-101550476D01*
X138714631Y-101720745D01*
X138714630Y-101720750D01*
X138694435Y-101899996D01*
X138205574Y-101899996D01*
X138185378Y-101720750D01*
X138185377Y-101720745D01*
X138125797Y-101550476D01*
X138046115Y-101423663D01*
X138029825Y-101397738D01*
X137902271Y-101270184D01*
X137749532Y-101174211D01*
X137579263Y-101114631D01*
X137579258Y-101114630D01*
X137400013Y-101094435D01*
X137400005Y-101094435D01*
X137220759Y-101114630D01*
X137220746Y-101114633D01*
X137043915Y-101176510D01*
X137043166Y-101174369D01*
X136984830Y-101183958D01*
X136956414Y-101175611D01*
X136956100Y-101176510D01*
X136779268Y-101114633D01*
X136779255Y-101114630D01*
X136600010Y-101094435D01*
X136600002Y-101094435D01*
X136420756Y-101114630D01*
X136420743Y-101114633D01*
X136243912Y-101176510D01*
X136243163Y-101174369D01*
X136184827Y-101183958D01*
X136156411Y-101175611D01*
X136156097Y-101176510D01*
X135979265Y-101114633D01*
X135979252Y-101114630D01*
X135800007Y-101094435D01*
X135799999Y-101094435D01*
X135620753Y-101114630D01*
X135620740Y-101114633D01*
X135443909Y-101176510D01*
X135443160Y-101174369D01*
X135384824Y-101183958D01*
X135356408Y-101175611D01*
X135356094Y-101176510D01*
X135179262Y-101114633D01*
X135179249Y-101114630D01*
X135000004Y-101094435D01*
X134999996Y-101094435D01*
X134820750Y-101114630D01*
X134820745Y-101114631D01*
X134650476Y-101174211D01*
X134497737Y-101270184D01*
X134370184Y-101397737D01*
X134274211Y-101550476D01*
X134214631Y-101720745D01*
X134214630Y-101720750D01*
X134194435Y-101899996D01*
X133705565Y-101899996D01*
X133685369Y-101720750D01*
X133685368Y-101720745D01*
X133625788Y-101550476D01*
X133546106Y-101423663D01*
X133529816Y-101397738D01*
X133402262Y-101270184D01*
X133249523Y-101174211D01*
X133079254Y-101114631D01*
X133079249Y-101114630D01*
X132900004Y-101094435D01*
X132899996Y-101094435D01*
X132720750Y-101114630D01*
X132720737Y-101114633D01*
X132543906Y-101176510D01*
X132543155Y-101174364D01*
X132484856Y-101183962D01*
X132456409Y-101175609D01*
X132456094Y-101176510D01*
X132279262Y-101114633D01*
X132279249Y-101114630D01*
X132100004Y-101094435D01*
X132099996Y-101094435D01*
X131920750Y-101114630D01*
X131920737Y-101114633D01*
X131743906Y-101176510D01*
X131743155Y-101174364D01*
X131684856Y-101183962D01*
X131656409Y-101175609D01*
X131656094Y-101176510D01*
X131479262Y-101114633D01*
X131479249Y-101114630D01*
X131300004Y-101094435D01*
X131299996Y-101094435D01*
X131120750Y-101114630D01*
X131120737Y-101114633D01*
X130943906Y-101176510D01*
X130943157Y-101174369D01*
X130884821Y-101183958D01*
X130856405Y-101175611D01*
X130856091Y-101176510D01*
X130679259Y-101114633D01*
X130679246Y-101114630D01*
X130500001Y-101094435D01*
X130499993Y-101094435D01*
X130320747Y-101114630D01*
X130320742Y-101114631D01*
X130150473Y-101174211D01*
X129997734Y-101270184D01*
X129870181Y-101397737D01*
X129774208Y-101550476D01*
X129714628Y-101720745D01*
X129714627Y-101720750D01*
X129694432Y-101899996D01*
X124469900Y-101899996D01*
X124538495Y-101831401D01*
X124674035Y-101637830D01*
X124773903Y-101423663D01*
X124835063Y-101195408D01*
X124855659Y-100960000D01*
X124835063Y-100724592D01*
X124773903Y-100496337D01*
X124674035Y-100282171D01*
X124650980Y-100249244D01*
X124538494Y-100088597D01*
X124371402Y-99921506D01*
X124371396Y-99921501D01*
X124185842Y-99791575D01*
X124142217Y-99736998D01*
X124135023Y-99667500D01*
X124166546Y-99605145D01*
X124185842Y-99588425D01*
X124208026Y-99572891D01*
X124371401Y-99458495D01*
X124538495Y-99291401D01*
X124674035Y-99097830D01*
X124773903Y-98883663D01*
X124835063Y-98655408D01*
X124855659Y-98420000D01*
X124835063Y-98184592D01*
X124773903Y-97956337D01*
X124701997Y-97802135D01*
X125749500Y-97802135D01*
X125749500Y-99597870D01*
X125749501Y-99597876D01*
X125755908Y-99657483D01*
X125806202Y-99792328D01*
X125806206Y-99792335D01*
X125892452Y-99907544D01*
X125892455Y-99907547D01*
X126007664Y-99993793D01*
X126007671Y-99993797D01*
X126142517Y-100044091D01*
X126142516Y-100044091D01*
X126149444Y-100044835D01*
X126202127Y-100050500D01*
X127997872Y-100050499D01*
X128057483Y-100044091D01*
X128192331Y-99993796D01*
X128307546Y-99907546D01*
X128393796Y-99792331D01*
X128444091Y-99657483D01*
X128450500Y-99597873D01*
X128450499Y-97802128D01*
X128444091Y-97742517D01*
X128443961Y-97742169D01*
X128393797Y-97607671D01*
X128393793Y-97607664D01*
X128307547Y-97492455D01*
X128307544Y-97492452D01*
X128192335Y-97406206D01*
X128192328Y-97406202D01*
X128057482Y-97355908D01*
X128057483Y-97355908D01*
X127997883Y-97349501D01*
X127997881Y-97349500D01*
X127997873Y-97349500D01*
X127997864Y-97349500D01*
X126202129Y-97349500D01*
X126202123Y-97349501D01*
X126142516Y-97355908D01*
X126007671Y-97406202D01*
X126007664Y-97406206D01*
X125892455Y-97492452D01*
X125892452Y-97492455D01*
X125806206Y-97607664D01*
X125806202Y-97607671D01*
X125755908Y-97742517D01*
X125749501Y-97802116D01*
X125749501Y-97802123D01*
X125749500Y-97802135D01*
X124701997Y-97802135D01*
X124674035Y-97742171D01*
X124650980Y-97709244D01*
X124538494Y-97548597D01*
X124371402Y-97381506D01*
X124371396Y-97381501D01*
X124185842Y-97251575D01*
X124142217Y-97196998D01*
X124135023Y-97127500D01*
X124166546Y-97065145D01*
X124185842Y-97048425D01*
X124208026Y-97032891D01*
X124371401Y-96918495D01*
X124538495Y-96751401D01*
X124574489Y-96699996D01*
X142794435Y-96699996D01*
X142794435Y-96700003D01*
X142814630Y-96879249D01*
X142814631Y-96879254D01*
X142874211Y-97049523D01*
X142951483Y-97172500D01*
X142970184Y-97202262D01*
X143097738Y-97329816D01*
X143180002Y-97381506D01*
X143219308Y-97406204D01*
X143250478Y-97425789D01*
X143420745Y-97485368D01*
X143420750Y-97485369D01*
X143599996Y-97505565D01*
X143600000Y-97505565D01*
X143600004Y-97505565D01*
X143779249Y-97485369D01*
X143779252Y-97485368D01*
X143779255Y-97485368D01*
X143949522Y-97425789D01*
X144102262Y-97329816D01*
X144229816Y-97202262D01*
X144325789Y-97049522D01*
X144385368Y-96879255D01*
X144385369Y-96879249D01*
X144405565Y-96700003D01*
X144405565Y-96699996D01*
X144385369Y-96520750D01*
X144385368Y-96520745D01*
X144360788Y-96450499D01*
X144325789Y-96350478D01*
X144321507Y-96343664D01*
X144229815Y-96197737D01*
X144102262Y-96070184D01*
X143949523Y-95974211D01*
X143779254Y-95914631D01*
X143779249Y-95914630D01*
X143600004Y-95894435D01*
X143599996Y-95894435D01*
X143420750Y-95914630D01*
X143420745Y-95914631D01*
X143250476Y-95974211D01*
X143097737Y-96070184D01*
X142970184Y-96197737D01*
X142874211Y-96350476D01*
X142814631Y-96520745D01*
X142814630Y-96520750D01*
X142794435Y-96699996D01*
X124574489Y-96699996D01*
X124674035Y-96557830D01*
X124773903Y-96343663D01*
X124835063Y-96115408D01*
X124855659Y-95880000D01*
X124835063Y-95644592D01*
X124773903Y-95416337D01*
X124674035Y-95202171D01*
X124650980Y-95169244D01*
X124538494Y-95008597D01*
X124371402Y-94841506D01*
X124371396Y-94841501D01*
X124185842Y-94711575D01*
X124142217Y-94656998D01*
X124135023Y-94587500D01*
X124166546Y-94525145D01*
X124185842Y-94508425D01*
X124208026Y-94492891D01*
X124371401Y-94378495D01*
X124538495Y-94211401D01*
X124544983Y-94202135D01*
X125749500Y-94202135D01*
X125749500Y-95997870D01*
X125749501Y-95997876D01*
X125755908Y-96057483D01*
X125806202Y-96192328D01*
X125806206Y-96192335D01*
X125892452Y-96307544D01*
X125892455Y-96307547D01*
X126007664Y-96393793D01*
X126007671Y-96393797D01*
X126142517Y-96444091D01*
X126142516Y-96444091D01*
X126149444Y-96444835D01*
X126202127Y-96450500D01*
X127997872Y-96450499D01*
X128057483Y-96444091D01*
X128192331Y-96393796D01*
X128307546Y-96307546D01*
X128393796Y-96192331D01*
X128444091Y-96057483D01*
X128450500Y-95997873D01*
X128450499Y-94202128D01*
X128444091Y-94142517D01*
X128415699Y-94066395D01*
X128393797Y-94007671D01*
X128393793Y-94007664D01*
X128307547Y-93892455D01*
X128307544Y-93892452D01*
X128192335Y-93806206D01*
X128192328Y-93806202D01*
X128057482Y-93755908D01*
X128057483Y-93755908D01*
X127997883Y-93749501D01*
X127997881Y-93749500D01*
X127997873Y-93749500D01*
X127997864Y-93749500D01*
X126202129Y-93749500D01*
X126202123Y-93749501D01*
X126142516Y-93755908D01*
X126007671Y-93806202D01*
X126007664Y-93806206D01*
X125892455Y-93892452D01*
X125892452Y-93892455D01*
X125806206Y-94007664D01*
X125806202Y-94007671D01*
X125755908Y-94142517D01*
X125754567Y-94154995D01*
X125749501Y-94202123D01*
X125749500Y-94202135D01*
X124544983Y-94202135D01*
X124674035Y-94017830D01*
X124773903Y-93803663D01*
X124835063Y-93575408D01*
X124855659Y-93340000D01*
X124835063Y-93104592D01*
X124787153Y-92925788D01*
X124773905Y-92876344D01*
X124773904Y-92876343D01*
X124773903Y-92876337D01*
X124674035Y-92662171D01*
X124668416Y-92654145D01*
X124538494Y-92468597D01*
X124469893Y-92399996D01*
X127094435Y-92399996D01*
X127094435Y-92400003D01*
X127114630Y-92579249D01*
X127114631Y-92579254D01*
X127174211Y-92749523D01*
X127237646Y-92850478D01*
X127270184Y-92902262D01*
X127397738Y-93029816D01*
X127488080Y-93086582D01*
X127542450Y-93120745D01*
X127550478Y-93125789D01*
X127665763Y-93166129D01*
X127720745Y-93185368D01*
X127720750Y-93185369D01*
X127899996Y-93205565D01*
X127900000Y-93205565D01*
X127900004Y-93205565D01*
X128079249Y-93185369D01*
X128079252Y-93185368D01*
X128079255Y-93185368D01*
X128249522Y-93125789D01*
X128402262Y-93029816D01*
X128529816Y-92902262D01*
X128625789Y-92749522D01*
X128685368Y-92579255D01*
X128685369Y-92579249D01*
X128705565Y-92400003D01*
X128705565Y-92399996D01*
X128685369Y-92220750D01*
X128685368Y-92220745D01*
X128625788Y-92050476D01*
X128529815Y-91897737D01*
X128402262Y-91770184D01*
X128249523Y-91674211D01*
X128079254Y-91614631D01*
X128079249Y-91614630D01*
X127900004Y-91594435D01*
X127899996Y-91594435D01*
X127720750Y-91614630D01*
X127720745Y-91614631D01*
X127550476Y-91674211D01*
X127397737Y-91770184D01*
X127270184Y-91897737D01*
X127174211Y-92050476D01*
X127114631Y-92220745D01*
X127114630Y-92220750D01*
X127094435Y-92399996D01*
X124469893Y-92399996D01*
X124371402Y-92301506D01*
X124371396Y-92301501D01*
X124185842Y-92171575D01*
X124142217Y-92116998D01*
X124135023Y-92047500D01*
X124166546Y-91985145D01*
X124185842Y-91968425D01*
X124286793Y-91897738D01*
X124371401Y-91838495D01*
X124538495Y-91671401D01*
X124674035Y-91477830D01*
X124773903Y-91263663D01*
X124835063Y-91035408D01*
X124855659Y-90800000D01*
X124835063Y-90564592D01*
X124773903Y-90336337D01*
X124674035Y-90122171D01*
X124650980Y-90089244D01*
X124538494Y-89928597D01*
X124371402Y-89761506D01*
X124371396Y-89761501D01*
X124185842Y-89631575D01*
X124160600Y-89599996D01*
X127094435Y-89599996D01*
X127094435Y-89600003D01*
X127114630Y-89779249D01*
X127114631Y-89779254D01*
X127174211Y-89949523D01*
X127254026Y-90076547D01*
X127270184Y-90102262D01*
X127397738Y-90229816D01*
X127550478Y-90325789D01*
X127647256Y-90359653D01*
X127720745Y-90385368D01*
X127720750Y-90385369D01*
X127899996Y-90405565D01*
X127900000Y-90405565D01*
X127900004Y-90405565D01*
X128079249Y-90385369D01*
X128079252Y-90385368D01*
X128079255Y-90385368D01*
X128249522Y-90325789D01*
X128402262Y-90229816D01*
X128529816Y-90102262D01*
X128625789Y-89949522D01*
X128685368Y-89779255D01*
X128687368Y-89761505D01*
X128705565Y-89600003D01*
X128705565Y-89599996D01*
X128685369Y-89420750D01*
X128685368Y-89420745D01*
X128660446Y-89349522D01*
X128625789Y-89250478D01*
X128529816Y-89097738D01*
X128432074Y-88999996D01*
X133094435Y-88999996D01*
X133094435Y-89000003D01*
X133114630Y-89179249D01*
X133114631Y-89179254D01*
X133174211Y-89349523D01*
X133223789Y-89428425D01*
X133270184Y-89502262D01*
X133397738Y-89629816D01*
X133505834Y-89697737D01*
X133550478Y-89725789D01*
X133671633Y-89768183D01*
X133728409Y-89808905D01*
X133754157Y-89873858D01*
X133747721Y-89926179D01*
X133714632Y-90020742D01*
X133714630Y-90020750D01*
X133694435Y-90199996D01*
X133694435Y-90200003D01*
X133714630Y-90379249D01*
X133714631Y-90379254D01*
X133774211Y-90549523D01*
X133821248Y-90624381D01*
X133840248Y-90691617D01*
X133819880Y-90758453D01*
X133766613Y-90803667D01*
X133730138Y-90813573D01*
X133720749Y-90814630D01*
X133720745Y-90814631D01*
X133550476Y-90874211D01*
X133397737Y-90970184D01*
X133270184Y-91097737D01*
X133174211Y-91250476D01*
X133114631Y-91420745D01*
X133114630Y-91420750D01*
X133094435Y-91599996D01*
X133094435Y-91600003D01*
X133114630Y-91779249D01*
X133114631Y-91779254D01*
X133174211Y-91949523D01*
X133237646Y-92050478D01*
X133270184Y-92102262D01*
X133397738Y-92229816D01*
X133476696Y-92279428D01*
X133501487Y-92295006D01*
X133547778Y-92347341D01*
X133558426Y-92416395D01*
X133530051Y-92480243D01*
X133501487Y-92504994D01*
X133397737Y-92570184D01*
X133270184Y-92697737D01*
X133174211Y-92850476D01*
X133114631Y-93020745D01*
X133114630Y-93020750D01*
X133094435Y-93199996D01*
X133094435Y-93200003D01*
X133114630Y-93379249D01*
X133114631Y-93379254D01*
X133174211Y-93549523D01*
X133190473Y-93575403D01*
X133270184Y-93702262D01*
X133397738Y-93829816D01*
X133488080Y-93886582D01*
X133497422Y-93892452D01*
X133550478Y-93925789D01*
X133639794Y-93957042D01*
X133720745Y-93985368D01*
X133720750Y-93985369D01*
X133899996Y-94005565D01*
X133900000Y-94005565D01*
X133900004Y-94005565D01*
X134079249Y-93985369D01*
X134079252Y-93985368D01*
X134079255Y-93985368D01*
X134249522Y-93925789D01*
X134402262Y-93829816D01*
X134529816Y-93702262D01*
X134625789Y-93549522D01*
X134685368Y-93379255D01*
X134689791Y-93339999D01*
X134705565Y-93200003D01*
X134705565Y-93199996D01*
X134685369Y-93020750D01*
X134685368Y-93020745D01*
X134667522Y-92969745D01*
X134625789Y-92850478D01*
X134623742Y-92847221D01*
X134552656Y-92734088D01*
X134529816Y-92697738D01*
X134402262Y-92570184D01*
X134298510Y-92504992D01*
X134252221Y-92452659D01*
X134241573Y-92383606D01*
X134242839Y-92380757D01*
X137494435Y-92380757D01*
X137494435Y-92380764D01*
X137514630Y-92560010D01*
X137514631Y-92560015D01*
X137574211Y-92730284D01*
X137665982Y-92876335D01*
X137670184Y-92883023D01*
X137797738Y-93010577D01*
X137828355Y-93029815D01*
X137947361Y-93104592D01*
X137950478Y-93106550D01*
X138005460Y-93125789D01*
X138120745Y-93166129D01*
X138120750Y-93166130D01*
X138299996Y-93186326D01*
X138300000Y-93186326D01*
X138300004Y-93186326D01*
X138479249Y-93166130D01*
X138479252Y-93166129D01*
X138479255Y-93166129D01*
X138649522Y-93106550D01*
X138802262Y-93010577D01*
X138929816Y-92883023D01*
X139025789Y-92730283D01*
X139085368Y-92560016D01*
X139085369Y-92560010D01*
X139105565Y-92380764D01*
X139105565Y-92380757D01*
X139085369Y-92201511D01*
X139085368Y-92201506D01*
X139084840Y-92199996D01*
X140694435Y-92199996D01*
X140694435Y-92200003D01*
X140714630Y-92379249D01*
X140714631Y-92379254D01*
X140774211Y-92549523D01*
X140856107Y-92679859D01*
X140870184Y-92702262D01*
X140997738Y-92829816D01*
X141150478Y-92925789D01*
X141276097Y-92969745D01*
X141320745Y-92985368D01*
X141320750Y-92985369D01*
X141499996Y-93005565D01*
X141500000Y-93005565D01*
X141500004Y-93005565D01*
X141679249Y-92985369D01*
X141679252Y-92985368D01*
X141679255Y-92985368D01*
X141849522Y-92925789D01*
X141976737Y-92845854D01*
X142043972Y-92826854D01*
X142110807Y-92847221D01*
X142156022Y-92900489D01*
X142165260Y-92969745D01*
X142159750Y-92991802D01*
X142114632Y-93120742D01*
X142114630Y-93120750D01*
X142094435Y-93299996D01*
X142094435Y-93300003D01*
X142114630Y-93479249D01*
X142114631Y-93479254D01*
X142174211Y-93649523D01*
X142237031Y-93749500D01*
X142270184Y-93802262D01*
X142397738Y-93929816D01*
X142410701Y-93937961D01*
X142421913Y-93945006D01*
X142468204Y-93997341D01*
X142478852Y-94066395D01*
X142450477Y-94130243D01*
X142421913Y-94154994D01*
X142397737Y-94170184D01*
X142270184Y-94297737D01*
X142174211Y-94450476D01*
X142114631Y-94620745D01*
X142114630Y-94620750D01*
X142094435Y-94799996D01*
X142094435Y-94800003D01*
X142114630Y-94979249D01*
X142114631Y-94979254D01*
X142174211Y-95149523D01*
X142252481Y-95274088D01*
X142270184Y-95302262D01*
X142397738Y-95429816D01*
X142550478Y-95525789D01*
X142720745Y-95585368D01*
X142720750Y-95585369D01*
X142899996Y-95605565D01*
X142900000Y-95605565D01*
X142900004Y-95605565D01*
X143079249Y-95585369D01*
X143079252Y-95585368D01*
X143079255Y-95585368D01*
X143249522Y-95525789D01*
X143402262Y-95429816D01*
X143529816Y-95302262D01*
X143625789Y-95149522D01*
X143685368Y-94979255D01*
X143685369Y-94979249D01*
X143705565Y-94800003D01*
X143705565Y-94799996D01*
X143685369Y-94620750D01*
X143685368Y-94620745D01*
X143651916Y-94525145D01*
X143625789Y-94450478D01*
X143529816Y-94297738D01*
X143402262Y-94170184D01*
X143378084Y-94154992D01*
X143331796Y-94102661D01*
X143321146Y-94033607D01*
X143349521Y-93969758D01*
X143378082Y-93945009D01*
X143402262Y-93929816D01*
X143529816Y-93802262D01*
X143625789Y-93649522D01*
X143685368Y-93479255D01*
X143685369Y-93479249D01*
X143705565Y-93300003D01*
X143705565Y-93299996D01*
X143685369Y-93120750D01*
X143685368Y-93120745D01*
X143679714Y-93104586D01*
X143625789Y-92950478D01*
X143529816Y-92797738D01*
X143402262Y-92670184D01*
X143374559Y-92652777D01*
X143249523Y-92574211D01*
X143079254Y-92514631D01*
X143079249Y-92514630D01*
X142900004Y-92494435D01*
X142899996Y-92494435D01*
X142720750Y-92514630D01*
X142720745Y-92514631D01*
X142550476Y-92574211D01*
X142423263Y-92654145D01*
X142356026Y-92673145D01*
X142289191Y-92652777D01*
X142243977Y-92599509D01*
X142234740Y-92530253D01*
X142240250Y-92508196D01*
X142285366Y-92379262D01*
X142285369Y-92379249D01*
X142305565Y-92200003D01*
X142305565Y-92199996D01*
X142285369Y-92020750D01*
X142285368Y-92020745D01*
X142242326Y-91897738D01*
X142225789Y-91850478D01*
X142218261Y-91838498D01*
X142129815Y-91697737D01*
X142002262Y-91570184D01*
X141849523Y-91474211D01*
X141679254Y-91414631D01*
X141679249Y-91414630D01*
X141500004Y-91394435D01*
X141499996Y-91394435D01*
X141320750Y-91414630D01*
X141320745Y-91414631D01*
X141150476Y-91474211D01*
X140997737Y-91570184D01*
X140870184Y-91697737D01*
X140774211Y-91850476D01*
X140714631Y-92020745D01*
X140714630Y-92020750D01*
X140694435Y-92199996D01*
X139084840Y-92199996D01*
X139025788Y-92031237D01*
X138974443Y-91949522D01*
X138929816Y-91878499D01*
X138802262Y-91750945D01*
X138717584Y-91697738D01*
X138649523Y-91654972D01*
X138479254Y-91595392D01*
X138479249Y-91595391D01*
X138300004Y-91575196D01*
X138299996Y-91575196D01*
X138120750Y-91595391D01*
X138120745Y-91595392D01*
X137950476Y-91654972D01*
X137797737Y-91750945D01*
X137670184Y-91878498D01*
X137574211Y-92031237D01*
X137514631Y-92201506D01*
X137514630Y-92201511D01*
X137494435Y-92380757D01*
X134242839Y-92380757D01*
X134269948Y-92319757D01*
X134298509Y-92295007D01*
X134402262Y-92229816D01*
X134529816Y-92102262D01*
X134625789Y-91949522D01*
X134685368Y-91779255D01*
X134697962Y-91667481D01*
X134705565Y-91600003D01*
X134705565Y-91599996D01*
X134685369Y-91420750D01*
X134685368Y-91420745D01*
X134625788Y-91250475D01*
X134578752Y-91175619D01*
X134559751Y-91108382D01*
X134580118Y-91041547D01*
X134633386Y-90996332D01*
X134669865Y-90986425D01*
X134679255Y-90985368D01*
X134849522Y-90925789D01*
X134951182Y-90861912D01*
X142320127Y-90861912D01*
X142320127Y-90861919D01*
X142340322Y-91041165D01*
X142340323Y-91041170D01*
X142399903Y-91211439D01*
X142495876Y-91364178D01*
X142623430Y-91491732D01*
X142653705Y-91510755D01*
X142748285Y-91570184D01*
X142776170Y-91587705D01*
X142853123Y-91614632D01*
X142946437Y-91647284D01*
X142946442Y-91647285D01*
X143125688Y-91667481D01*
X143125692Y-91667481D01*
X143125696Y-91667481D01*
X143304941Y-91647285D01*
X143304944Y-91647284D01*
X143304947Y-91647284D01*
X143475214Y-91587705D01*
X143627954Y-91491732D01*
X143755508Y-91364178D01*
X143851481Y-91211438D01*
X143911060Y-91041171D01*
X143911709Y-91035413D01*
X143931257Y-90861919D01*
X143931257Y-90861912D01*
X143911061Y-90682666D01*
X143911060Y-90682661D01*
X143864473Y-90549523D01*
X143851481Y-90512394D01*
X143755508Y-90359654D01*
X143627954Y-90232100D01*
X143576872Y-90200003D01*
X143475215Y-90136127D01*
X143304946Y-90076547D01*
X143304941Y-90076546D01*
X143125696Y-90056351D01*
X143125688Y-90056351D01*
X142946442Y-90076546D01*
X142946437Y-90076547D01*
X142776168Y-90136127D01*
X142623429Y-90232100D01*
X142495876Y-90359653D01*
X142399903Y-90512392D01*
X142340323Y-90682661D01*
X142340322Y-90682666D01*
X142320127Y-90861912D01*
X134951182Y-90861912D01*
X135002262Y-90829816D01*
X135129816Y-90702262D01*
X135225789Y-90549522D01*
X135285368Y-90379255D01*
X135285369Y-90379249D01*
X135305565Y-90200003D01*
X135305565Y-90199996D01*
X135285369Y-90020750D01*
X135285368Y-90020745D01*
X135225788Y-89850476D01*
X135181033Y-89779249D01*
X135129816Y-89697738D01*
X135002262Y-89570184D01*
X134938310Y-89530000D01*
X134849523Y-89474211D01*
X134728364Y-89431816D01*
X134671588Y-89391094D01*
X134645841Y-89326141D01*
X134652277Y-89273822D01*
X134685368Y-89179255D01*
X134690760Y-89131401D01*
X134705565Y-89000003D01*
X134705565Y-88999996D01*
X134685369Y-88820750D01*
X134685368Y-88820745D01*
X134651398Y-88723664D01*
X134625789Y-88650478D01*
X134529816Y-88497738D01*
X134402262Y-88370184D01*
X134249523Y-88274211D01*
X134079254Y-88214631D01*
X134079249Y-88214630D01*
X133900004Y-88194435D01*
X133899996Y-88194435D01*
X133720750Y-88214630D01*
X133720745Y-88214631D01*
X133550476Y-88274211D01*
X133397737Y-88370184D01*
X133270184Y-88497737D01*
X133174211Y-88650476D01*
X133114631Y-88820745D01*
X133114630Y-88820750D01*
X133094435Y-88999996D01*
X128432074Y-88999996D01*
X128402262Y-88970184D01*
X128249523Y-88874211D01*
X128079254Y-88814631D01*
X128079249Y-88814630D01*
X127900004Y-88794435D01*
X127899996Y-88794435D01*
X127720750Y-88814630D01*
X127720745Y-88814631D01*
X127550476Y-88874211D01*
X127397737Y-88970184D01*
X127270184Y-89097737D01*
X127174211Y-89250476D01*
X127114631Y-89420745D01*
X127114630Y-89420750D01*
X127094435Y-89599996D01*
X124160600Y-89599996D01*
X124142217Y-89576998D01*
X124135023Y-89507500D01*
X124166546Y-89445145D01*
X124185842Y-89428425D01*
X124239156Y-89391094D01*
X124371401Y-89298495D01*
X124538495Y-89131401D01*
X124674035Y-88937830D01*
X124773903Y-88723663D01*
X124835063Y-88495408D01*
X124855659Y-88260000D01*
X124835063Y-88024592D01*
X124773903Y-87796337D01*
X124674035Y-87582171D01*
X124650980Y-87549244D01*
X124538494Y-87388597D01*
X124371402Y-87221506D01*
X124371396Y-87221501D01*
X124185842Y-87091575D01*
X124142217Y-87036998D01*
X124135023Y-86967500D01*
X124166546Y-86905145D01*
X124185842Y-86888425D01*
X124232014Y-86856095D01*
X124371401Y-86758495D01*
X124538495Y-86591401D01*
X124602498Y-86499996D01*
X134694435Y-86499996D01*
X134694435Y-86500003D01*
X134714630Y-86679249D01*
X134714631Y-86679254D01*
X134774211Y-86849523D01*
X134850000Y-86970139D01*
X134870184Y-87002262D01*
X134997738Y-87129816D01*
X135054513Y-87165490D01*
X135143661Y-87221506D01*
X135150478Y-87225789D01*
X135197124Y-87242111D01*
X135320745Y-87285368D01*
X135320750Y-87285369D01*
X135499996Y-87305565D01*
X135500000Y-87305565D01*
X135500004Y-87305565D01*
X135679249Y-87285369D01*
X135679252Y-87285368D01*
X135679255Y-87285368D01*
X135849522Y-87225789D01*
X136002262Y-87129816D01*
X136062319Y-87069759D01*
X136123642Y-87036274D01*
X136193334Y-87041258D01*
X136237681Y-87069759D01*
X136297738Y-87129816D01*
X136354513Y-87165490D01*
X136443661Y-87221506D01*
X136450478Y-87225789D01*
X136497124Y-87242111D01*
X136620745Y-87285368D01*
X136620750Y-87285369D01*
X136799996Y-87305565D01*
X136800000Y-87305565D01*
X136800004Y-87305565D01*
X136979249Y-87285369D01*
X136979252Y-87285368D01*
X136979255Y-87285368D01*
X137149522Y-87225789D01*
X137302262Y-87129816D01*
X137302262Y-87129815D01*
X137308158Y-87126111D01*
X137309165Y-87127714D01*
X137365100Y-87104874D01*
X137433797Y-87117624D01*
X137484695Y-87165490D01*
X137501634Y-87233275D01*
X137500957Y-87242111D01*
X137494435Y-87299998D01*
X137494435Y-87300006D01*
X137514630Y-87479252D01*
X137514633Y-87479265D01*
X137574209Y-87649521D01*
X137574211Y-87649525D01*
X137595891Y-87684029D01*
X137614891Y-87751266D01*
X137595892Y-87815971D01*
X137574209Y-87850479D01*
X137514633Y-88020737D01*
X137514630Y-88020750D01*
X137494435Y-88199996D01*
X137494435Y-88200003D01*
X137514630Y-88379249D01*
X137514631Y-88379254D01*
X137574211Y-88549523D01*
X137637646Y-88650478D01*
X137670184Y-88702262D01*
X137797738Y-88829816D01*
X137950478Y-88925789D01*
X138120745Y-88985368D01*
X138120750Y-88985369D01*
X138299996Y-89005565D01*
X138300000Y-89005565D01*
X138300004Y-89005565D01*
X138479249Y-88985369D01*
X138479252Y-88985368D01*
X138479255Y-88985368D01*
X138649522Y-88925789D01*
X138802262Y-88829816D01*
X138929816Y-88702262D01*
X139025789Y-88549522D01*
X139085368Y-88379255D01*
X139098805Y-88259999D01*
X139105565Y-88200003D01*
X139105565Y-88199996D01*
X139085369Y-88020750D01*
X139085368Y-88020745D01*
X139085365Y-88020737D01*
X139025789Y-87850478D01*
X139025787Y-87850475D01*
X139025787Y-87850474D01*
X139004108Y-87815971D01*
X138985108Y-87748735D01*
X139004108Y-87684029D01*
X139025789Y-87649525D01*
X139085368Y-87479258D01*
X139085368Y-87479255D01*
X139085369Y-87479252D01*
X139105565Y-87300006D01*
X139105565Y-87299999D01*
X139105565Y-87299996D01*
X139494435Y-87299996D01*
X139494435Y-87300003D01*
X139514630Y-87479249D01*
X139514633Y-87479262D01*
X139574209Y-87649519D01*
X139595893Y-87684030D01*
X139614892Y-87751267D01*
X139595893Y-87815970D01*
X139574209Y-87850480D01*
X139514633Y-88020737D01*
X139514630Y-88020750D01*
X139494435Y-88199996D01*
X139494435Y-88200003D01*
X139514630Y-88379249D01*
X139514631Y-88379254D01*
X139574211Y-88549523D01*
X139637646Y-88650478D01*
X139670184Y-88702262D01*
X139797738Y-88829816D01*
X139950478Y-88925789D01*
X140120745Y-88985368D01*
X140120750Y-88985369D01*
X140299996Y-89005565D01*
X140300000Y-89005565D01*
X140300004Y-89005565D01*
X140479249Y-88985369D01*
X140479252Y-88985368D01*
X140479255Y-88985368D01*
X140649522Y-88925789D01*
X140802262Y-88829816D01*
X140929816Y-88702262D01*
X141025789Y-88549522D01*
X141085368Y-88379255D01*
X141098805Y-88259999D01*
X141105565Y-88200003D01*
X141105565Y-88199996D01*
X141085369Y-88020750D01*
X141085368Y-88020745D01*
X141025788Y-87850475D01*
X141004108Y-87815973D01*
X140985107Y-87748737D01*
X141004108Y-87684027D01*
X141025788Y-87649524D01*
X141049357Y-87582169D01*
X141085368Y-87479255D01*
X141085369Y-87479249D01*
X141105565Y-87300003D01*
X141105565Y-87299996D01*
X141794435Y-87299996D01*
X141794435Y-87300003D01*
X141814630Y-87479249D01*
X141814631Y-87479254D01*
X141874211Y-87649523D01*
X141966460Y-87796335D01*
X141970184Y-87802262D01*
X142097738Y-87929816D01*
X142188080Y-87986582D01*
X142242450Y-88020745D01*
X142250478Y-88025789D01*
X142420745Y-88085368D01*
X142420750Y-88085369D01*
X142599996Y-88105565D01*
X142600000Y-88105565D01*
X142600004Y-88105565D01*
X142779249Y-88085369D01*
X142779252Y-88085368D01*
X142779255Y-88085368D01*
X142949522Y-88025789D01*
X143102262Y-87929816D01*
X143229816Y-87802262D01*
X143325789Y-87649522D01*
X143385368Y-87479255D01*
X143385369Y-87479249D01*
X143405565Y-87300003D01*
X143405565Y-87299996D01*
X143385369Y-87120750D01*
X143385368Y-87120745D01*
X143339618Y-86990000D01*
X143325789Y-86950478D01*
X143321188Y-86943156D01*
X143248175Y-86826956D01*
X143229816Y-86797738D01*
X143102262Y-86670184D01*
X142949523Y-86574211D01*
X142779254Y-86514631D01*
X142779249Y-86514630D01*
X142600004Y-86494435D01*
X142599996Y-86494435D01*
X142420750Y-86514630D01*
X142420745Y-86514631D01*
X142250476Y-86574211D01*
X142097737Y-86670184D01*
X141970184Y-86797737D01*
X141874211Y-86950476D01*
X141814631Y-87120745D01*
X141814630Y-87120750D01*
X141794435Y-87299996D01*
X141105565Y-87299996D01*
X141085369Y-87120750D01*
X141085368Y-87120745D01*
X141057554Y-87041258D01*
X141025789Y-86950478D01*
X141025786Y-86950474D01*
X141023985Y-86946732D01*
X141023546Y-86944069D01*
X141023489Y-86943905D01*
X141023517Y-86943894D01*
X141012633Y-86877791D01*
X141030712Y-86826956D01*
X141051473Y-86793915D01*
X141091592Y-86679262D01*
X141111053Y-86623646D01*
X141124984Y-86500003D01*
X141131250Y-86444394D01*
X141131250Y-86444387D01*
X141111054Y-86265141D01*
X141111053Y-86265136D01*
X141082544Y-86183663D01*
X141051474Y-86094869D01*
X140955501Y-85942129D01*
X140827947Y-85814575D01*
X140675208Y-85718602D01*
X140504939Y-85659022D01*
X140504934Y-85659021D01*
X140325689Y-85638826D01*
X140325681Y-85638826D01*
X140146435Y-85659021D01*
X140146430Y-85659022D01*
X139976161Y-85718602D01*
X139823422Y-85814575D01*
X139695869Y-85942128D01*
X139599896Y-86094867D01*
X139540316Y-86265136D01*
X139540315Y-86265141D01*
X139520120Y-86444387D01*
X139520120Y-86444394D01*
X139540315Y-86623640D01*
X139540318Y-86623653D01*
X139599892Y-86793904D01*
X139601700Y-86797658D01*
X139602139Y-86800325D01*
X139602195Y-86800485D01*
X139602167Y-86800494D01*
X139613052Y-86866599D01*
X139594975Y-86917431D01*
X139574209Y-86950480D01*
X139514633Y-87120737D01*
X139514630Y-87120750D01*
X139494435Y-87299996D01*
X139105565Y-87299996D01*
X139085369Y-87120753D01*
X139085368Y-87120748D01*
X139023489Y-86943908D01*
X139025635Y-86943156D01*
X139016037Y-86884857D01*
X139024391Y-86856410D01*
X139023489Y-86856095D01*
X139085366Y-86679262D01*
X139085369Y-86679249D01*
X139105565Y-86500003D01*
X139105565Y-86499996D01*
X139085369Y-86320750D01*
X139085368Y-86320745D01*
X139065911Y-86265141D01*
X139025789Y-86150478D01*
X138929816Y-85997738D01*
X138802262Y-85870184D01*
X138713761Y-85814575D01*
X138649523Y-85774211D01*
X138479254Y-85714631D01*
X138479249Y-85714630D01*
X138300004Y-85694435D01*
X138299996Y-85694435D01*
X138120750Y-85714630D01*
X138120745Y-85714631D01*
X137950476Y-85774211D01*
X137797737Y-85870184D01*
X137670184Y-85997737D01*
X137654994Y-86021913D01*
X137602659Y-86068204D01*
X137533605Y-86078852D01*
X137469757Y-86050477D01*
X137445006Y-86021913D01*
X137429815Y-85997737D01*
X137302262Y-85870184D01*
X137149523Y-85774211D01*
X136979254Y-85714631D01*
X136979249Y-85714630D01*
X136800004Y-85694435D01*
X136799996Y-85694435D01*
X136620750Y-85714630D01*
X136620745Y-85714631D01*
X136450476Y-85774211D01*
X136297737Y-85870184D01*
X136237681Y-85930241D01*
X136176358Y-85963726D01*
X136106666Y-85958742D01*
X136062319Y-85930241D01*
X136002262Y-85870184D01*
X135849523Y-85774211D01*
X135679254Y-85714631D01*
X135679249Y-85714630D01*
X135500004Y-85694435D01*
X135499996Y-85694435D01*
X135320750Y-85714630D01*
X135320745Y-85714631D01*
X135150476Y-85774211D01*
X134997737Y-85870184D01*
X134870184Y-85997737D01*
X134774211Y-86150476D01*
X134714631Y-86320745D01*
X134714630Y-86320750D01*
X134694435Y-86499996D01*
X124602498Y-86499996D01*
X124674035Y-86397830D01*
X124773903Y-86183663D01*
X124835063Y-85955408D01*
X124855659Y-85720000D01*
X124835063Y-85484592D01*
X124773903Y-85256337D01*
X124674035Y-85042171D01*
X124662565Y-85025789D01*
X124538494Y-84848597D01*
X124371402Y-84681506D01*
X124371396Y-84681501D01*
X124185842Y-84551575D01*
X124142217Y-84496998D01*
X124135023Y-84427500D01*
X124166546Y-84365145D01*
X124185842Y-84348425D01*
X124218171Y-84325788D01*
X124371401Y-84218495D01*
X124538495Y-84051401D01*
X124674035Y-83857830D01*
X124773903Y-83643663D01*
X124835063Y-83415408D01*
X124855659Y-83180000D01*
X124835063Y-82944592D01*
X124823687Y-82902135D01*
X125949500Y-82902135D01*
X125949500Y-84697870D01*
X125949501Y-84697876D01*
X125955908Y-84757483D01*
X126006202Y-84892328D01*
X126006206Y-84892335D01*
X126092452Y-85007544D01*
X126092455Y-85007547D01*
X126207664Y-85093793D01*
X126207671Y-85093797D01*
X126342517Y-85144091D01*
X126342516Y-85144091D01*
X126349444Y-85144835D01*
X126402127Y-85150500D01*
X128197872Y-85150499D01*
X128257483Y-85144091D01*
X128392331Y-85093796D01*
X128507546Y-85007546D01*
X128593796Y-84892331D01*
X128644091Y-84757483D01*
X128650500Y-84697873D01*
X128650499Y-83599996D01*
X130294435Y-83599996D01*
X130294435Y-83600003D01*
X130314630Y-83779249D01*
X130314631Y-83779254D01*
X130374211Y-83949523D01*
X130455724Y-84079249D01*
X130470184Y-84102262D01*
X130597738Y-84229816D01*
X130750478Y-84325789D01*
X130862951Y-84365145D01*
X130920745Y-84385368D01*
X130920750Y-84385369D01*
X131099996Y-84405565D01*
X131100000Y-84405565D01*
X131100004Y-84405565D01*
X131279249Y-84385369D01*
X131279252Y-84385368D01*
X131279255Y-84385368D01*
X131449522Y-84325789D01*
X131602262Y-84229816D01*
X131729816Y-84102262D01*
X131825789Y-83949522D01*
X131843119Y-83899996D01*
X134394435Y-83899996D01*
X134394435Y-83900003D01*
X134414630Y-84079249D01*
X134414631Y-84079254D01*
X134474211Y-84249523D01*
X134536356Y-84348425D01*
X134570184Y-84402262D01*
X134697738Y-84529816D01*
X134734756Y-84553076D01*
X134846817Y-84623489D01*
X134850478Y-84625789D01*
X135009694Y-84681501D01*
X135020745Y-84685368D01*
X135020750Y-84685369D01*
X135199996Y-84705565D01*
X135200000Y-84705565D01*
X135200004Y-84705565D01*
X135379249Y-84685369D01*
X135379252Y-84685368D01*
X135379255Y-84685368D01*
X135549522Y-84625789D01*
X135599271Y-84594528D01*
X135666505Y-84575528D01*
X135731215Y-84594529D01*
X135750702Y-84606773D01*
X135920961Y-84666350D01*
X135920967Y-84666351D01*
X135920969Y-84666352D01*
X135920970Y-84666352D01*
X135920974Y-84666353D01*
X136100220Y-84686549D01*
X136100224Y-84686549D01*
X136100228Y-84686549D01*
X136279473Y-84666353D01*
X136279476Y-84666352D01*
X136279479Y-84666352D01*
X136279480Y-84666351D01*
X136279483Y-84666351D01*
X136320332Y-84652056D01*
X136438643Y-84610657D01*
X136508419Y-84607095D01*
X136545564Y-84622703D01*
X136550475Y-84625789D01*
X136709691Y-84681501D01*
X136720742Y-84685368D01*
X136720747Y-84685369D01*
X136899993Y-84705565D01*
X136899997Y-84705565D01*
X136900001Y-84705565D01*
X137079246Y-84685369D01*
X137079248Y-84685368D01*
X137079252Y-84685368D01*
X137079255Y-84685366D01*
X137079259Y-84685366D01*
X137256092Y-84623489D01*
X137256843Y-84625637D01*
X137315125Y-84616035D01*
X137343589Y-84624391D01*
X137343905Y-84623489D01*
X137520745Y-84685368D01*
X137520750Y-84685369D01*
X137699996Y-84705565D01*
X137700000Y-84705565D01*
X137700004Y-84705565D01*
X137879249Y-84685369D01*
X137879252Y-84685368D01*
X137879255Y-84685368D01*
X138049522Y-84625789D01*
X138202262Y-84529816D01*
X138329816Y-84402262D01*
X138394074Y-84299996D01*
X146594435Y-84299996D01*
X146594435Y-84300003D01*
X146614630Y-84479249D01*
X146614631Y-84479254D01*
X146674211Y-84649523D01*
X146704598Y-84697883D01*
X146770184Y-84802262D01*
X146897738Y-84929816D01*
X147050478Y-85025789D01*
X147152960Y-85061649D01*
X147220745Y-85085368D01*
X147220750Y-85085369D01*
X147399996Y-85105565D01*
X147400000Y-85105565D01*
X147400004Y-85105565D01*
X147579249Y-85085369D01*
X147579252Y-85085368D01*
X147579255Y-85085368D01*
X147749522Y-85025789D01*
X147902262Y-84929816D01*
X148029816Y-84802262D01*
X148125789Y-84649522D01*
X148185368Y-84479255D01*
X148186129Y-84472500D01*
X148205565Y-84300003D01*
X148205565Y-84299996D01*
X148185369Y-84120750D01*
X148185368Y-84120745D01*
X148125789Y-83950478D01*
X148125188Y-83949522D01*
X148029815Y-83797737D01*
X147902262Y-83670184D01*
X147749523Y-83574211D01*
X147579254Y-83514631D01*
X147579249Y-83514630D01*
X147400004Y-83494435D01*
X147399996Y-83494435D01*
X147220750Y-83514630D01*
X147220745Y-83514631D01*
X147050476Y-83574211D01*
X146897737Y-83670184D01*
X146770184Y-83797737D01*
X146674211Y-83950476D01*
X146614631Y-84120745D01*
X146614630Y-84120750D01*
X146594435Y-84299996D01*
X138394074Y-84299996D01*
X138425789Y-84249522D01*
X138485368Y-84079255D01*
X138485369Y-84079249D01*
X138505565Y-83900003D01*
X138505565Y-83899996D01*
X138485369Y-83720750D01*
X138485368Y-83720745D01*
X138458393Y-83643655D01*
X138425789Y-83550478D01*
X138403265Y-83514632D01*
X138340919Y-83415408D01*
X138329816Y-83397738D01*
X138202262Y-83270184D01*
X138170897Y-83250476D01*
X138049523Y-83174211D01*
X137879254Y-83114631D01*
X137879249Y-83114630D01*
X137700004Y-83094435D01*
X137699996Y-83094435D01*
X137520750Y-83114630D01*
X137520737Y-83114633D01*
X137343906Y-83176510D01*
X137343157Y-83174369D01*
X137284821Y-83183958D01*
X137256405Y-83175611D01*
X137256091Y-83176510D01*
X137079259Y-83114633D01*
X137079246Y-83114630D01*
X136900001Y-83094435D01*
X136899993Y-83094435D01*
X136720747Y-83114630D01*
X136720739Y-83114632D01*
X136561578Y-83170325D01*
X136491799Y-83173886D01*
X136454654Y-83158278D01*
X136449748Y-83155195D01*
X136279478Y-83095615D01*
X136279473Y-83095614D01*
X136100228Y-83075419D01*
X136100220Y-83075419D01*
X135920974Y-83095614D01*
X135920961Y-83095617D01*
X135750706Y-83155192D01*
X135745795Y-83158278D01*
X135702682Y-83185368D01*
X135700950Y-83186456D01*
X135633713Y-83205455D01*
X135569007Y-83186454D01*
X135551750Y-83175611D01*
X135549519Y-83174209D01*
X135379262Y-83114633D01*
X135379249Y-83114630D01*
X135200004Y-83094435D01*
X135199996Y-83094435D01*
X135020750Y-83114630D01*
X135020745Y-83114631D01*
X134850476Y-83174211D01*
X134697737Y-83270184D01*
X134570184Y-83397737D01*
X134474211Y-83550476D01*
X134414631Y-83720745D01*
X134414630Y-83720750D01*
X134394435Y-83899996D01*
X131843119Y-83899996D01*
X131885368Y-83779255D01*
X131885514Y-83777961D01*
X131905565Y-83600003D01*
X131905565Y-83599996D01*
X131885369Y-83420750D01*
X131885366Y-83420737D01*
X131843718Y-83301714D01*
X131840156Y-83231935D01*
X131874884Y-83171308D01*
X131936878Y-83139080D01*
X132001714Y-83143718D01*
X132120737Y-83185366D01*
X132120743Y-83185367D01*
X132120745Y-83185368D01*
X132120746Y-83185368D01*
X132120750Y-83185369D01*
X132299996Y-83205565D01*
X132300000Y-83205565D01*
X132300004Y-83205565D01*
X132479249Y-83185369D01*
X132479252Y-83185368D01*
X132479255Y-83185368D01*
X132649522Y-83125789D01*
X132802262Y-83029816D01*
X132929816Y-82902262D01*
X133025789Y-82749522D01*
X133085368Y-82579255D01*
X133085369Y-82579249D01*
X133105565Y-82400003D01*
X133105565Y-82399996D01*
X133085369Y-82220750D01*
X133085368Y-82220745D01*
X133078108Y-82199996D01*
X140694435Y-82199996D01*
X140694435Y-82200003D01*
X140714630Y-82379249D01*
X140714631Y-82379254D01*
X140774211Y-82549523D01*
X140867686Y-82698286D01*
X140870184Y-82702262D01*
X140997738Y-82829816D01*
X141150478Y-82925789D01*
X141277352Y-82970184D01*
X141320745Y-82985368D01*
X141320750Y-82985369D01*
X141499996Y-83005565D01*
X141500000Y-83005565D01*
X141500004Y-83005565D01*
X141679249Y-82985369D01*
X141679252Y-82985368D01*
X141679255Y-82985368D01*
X141849522Y-82925789D01*
X142002262Y-82829816D01*
X142129816Y-82702262D01*
X142225789Y-82549522D01*
X142285368Y-82379255D01*
X142293329Y-82308599D01*
X142305565Y-82200003D01*
X142305565Y-82199996D01*
X142285369Y-82020750D01*
X142285368Y-82020745D01*
X142254490Y-81932500D01*
X142225789Y-81850478D01*
X142129816Y-81697738D01*
X142002262Y-81570184D01*
X141849523Y-81474211D01*
X141679254Y-81414631D01*
X141679249Y-81414630D01*
X141500004Y-81394435D01*
X141499996Y-81394435D01*
X141320750Y-81414630D01*
X141320745Y-81414631D01*
X141150476Y-81474211D01*
X140997737Y-81570184D01*
X140870184Y-81697737D01*
X140774211Y-81850476D01*
X140714631Y-82020745D01*
X140714630Y-82020750D01*
X140694435Y-82199996D01*
X133078108Y-82199996D01*
X133025788Y-82050476D01*
X132986582Y-81988080D01*
X132929816Y-81897738D01*
X132802262Y-81770184D01*
X132649523Y-81674211D01*
X132479254Y-81614631D01*
X132479249Y-81614630D01*
X132300004Y-81594435D01*
X132299996Y-81594435D01*
X132120750Y-81614630D01*
X132120745Y-81614631D01*
X131950476Y-81674211D01*
X131797737Y-81770184D01*
X131670184Y-81897737D01*
X131574211Y-82050476D01*
X131514631Y-82220745D01*
X131514630Y-82220750D01*
X131494435Y-82399996D01*
X131494435Y-82400003D01*
X131514630Y-82579249D01*
X131514632Y-82579257D01*
X131556282Y-82698286D01*
X131559843Y-82768065D01*
X131525114Y-82828692D01*
X131463121Y-82860919D01*
X131398286Y-82856282D01*
X131279257Y-82814632D01*
X131279249Y-82814630D01*
X131100004Y-82794435D01*
X131099996Y-82794435D01*
X130920750Y-82814630D01*
X130920745Y-82814631D01*
X130750476Y-82874211D01*
X130597737Y-82970184D01*
X130470184Y-83097737D01*
X130374211Y-83250476D01*
X130314633Y-83420742D01*
X130314630Y-83420750D01*
X130294435Y-83599996D01*
X128650499Y-83599996D01*
X128650499Y-82902128D01*
X128644091Y-82842517D01*
X128639353Y-82829815D01*
X128593797Y-82707671D01*
X128593793Y-82707664D01*
X128507547Y-82592455D01*
X128507544Y-82592452D01*
X128392335Y-82506206D01*
X128392328Y-82506202D01*
X128257482Y-82455908D01*
X128257483Y-82455908D01*
X128197883Y-82449501D01*
X128197881Y-82449500D01*
X128197873Y-82449500D01*
X128197864Y-82449500D01*
X126402129Y-82449500D01*
X126402123Y-82449501D01*
X126342516Y-82455908D01*
X126207671Y-82506202D01*
X126207664Y-82506206D01*
X126092455Y-82592452D01*
X126092452Y-82592455D01*
X126006206Y-82707664D01*
X126006202Y-82707671D01*
X125955908Y-82842517D01*
X125953930Y-82860919D01*
X125949501Y-82902123D01*
X125949500Y-82902135D01*
X124823687Y-82902135D01*
X124773903Y-82716337D01*
X124674035Y-82502171D01*
X124650980Y-82469244D01*
X124538494Y-82308597D01*
X124371402Y-82141506D01*
X124371396Y-82141501D01*
X124185842Y-82011575D01*
X124142217Y-81956998D01*
X124135023Y-81887500D01*
X124166546Y-81825145D01*
X124185842Y-81808425D01*
X124343919Y-81697738D01*
X124371401Y-81678495D01*
X124538495Y-81511401D01*
X124674035Y-81317830D01*
X124773903Y-81103663D01*
X124835063Y-80875408D01*
X124855659Y-80640000D01*
X124835063Y-80404592D01*
X124773903Y-80176337D01*
X124674035Y-79962171D01*
X124650980Y-79929244D01*
X124538494Y-79768597D01*
X124371402Y-79601506D01*
X124371396Y-79601501D01*
X124185842Y-79471575D01*
X124142217Y-79416998D01*
X124135023Y-79347500D01*
X124166546Y-79285145D01*
X124185842Y-79268425D01*
X124208026Y-79252891D01*
X124283568Y-79199996D01*
X131494435Y-79199996D01*
X131494435Y-79200003D01*
X131514630Y-79379249D01*
X131514631Y-79379254D01*
X131574211Y-79549523D01*
X131670184Y-79702262D01*
X131797738Y-79829816D01*
X131950478Y-79925789D01*
X132054446Y-79962169D01*
X132120745Y-79985368D01*
X132120750Y-79985369D01*
X132299996Y-80005565D01*
X132300000Y-80005565D01*
X132300004Y-80005565D01*
X132479249Y-79985369D01*
X132479252Y-79985368D01*
X132479255Y-79985368D01*
X132649522Y-79925789D01*
X132802262Y-79829816D01*
X132929816Y-79702262D01*
X133025789Y-79549522D01*
X133085368Y-79379255D01*
X133095972Y-79285145D01*
X133105565Y-79200003D01*
X133105565Y-79199996D01*
X133085369Y-79020750D01*
X133085368Y-79020745D01*
X133025788Y-78850476D01*
X132958706Y-78743716D01*
X132929816Y-78697738D01*
X132802262Y-78570184D01*
X132649523Y-78474211D01*
X132479254Y-78414631D01*
X132479249Y-78414630D01*
X132300004Y-78394435D01*
X132299996Y-78394435D01*
X132120750Y-78414630D01*
X132120745Y-78414631D01*
X131950476Y-78474211D01*
X131797737Y-78570184D01*
X131670184Y-78697737D01*
X131574211Y-78850476D01*
X131514631Y-79020745D01*
X131514630Y-79020750D01*
X131494435Y-79199996D01*
X124283568Y-79199996D01*
X124371401Y-79138495D01*
X124538495Y-78971401D01*
X124674035Y-78777830D01*
X124773903Y-78563663D01*
X124835063Y-78335408D01*
X124855659Y-78100000D01*
X124835063Y-77864592D01*
X124773903Y-77636337D01*
X124674035Y-77422171D01*
X124650980Y-77389244D01*
X124538494Y-77228597D01*
X124371402Y-77061506D01*
X124371396Y-77061501D01*
X124185842Y-76931575D01*
X124142217Y-76876998D01*
X124135023Y-76807500D01*
X124166546Y-76745145D01*
X124185842Y-76728425D01*
X124208026Y-76712891D01*
X124371401Y-76598495D01*
X124538495Y-76431401D01*
X124674035Y-76237830D01*
X124773903Y-76023663D01*
X124835063Y-75795408D01*
X124855659Y-75560000D01*
X124835063Y-75324592D01*
X124773903Y-75096337D01*
X124674035Y-74882171D01*
X124665335Y-74869745D01*
X124573386Y-74738428D01*
X126622400Y-74738428D01*
X126622400Y-74850000D01*
X127442070Y-74850000D01*
X127422325Y-74869745D01*
X127372956Y-74955255D01*
X127347400Y-75050630D01*
X127347400Y-75149370D01*
X127372956Y-75244745D01*
X127422325Y-75330255D01*
X127442070Y-75350000D01*
X126622400Y-75350000D01*
X126622400Y-75461571D01*
X126649485Y-75632584D01*
X126702991Y-75797257D01*
X126781595Y-75951524D01*
X126883367Y-76091602D01*
X127005797Y-76214032D01*
X127145875Y-76315804D01*
X127300144Y-76394408D01*
X127464815Y-76447914D01*
X127464814Y-76447914D01*
X127472399Y-76449115D01*
X127472400Y-76449114D01*
X127472400Y-75380330D01*
X127492145Y-75400075D01*
X127577655Y-75449444D01*
X127673030Y-75475000D01*
X127771770Y-75475000D01*
X127867145Y-75449444D01*
X127952655Y-75400075D01*
X127972400Y-75380330D01*
X127972400Y-76449115D01*
X127979984Y-76447914D01*
X128144655Y-76394408D01*
X128298924Y-76315804D01*
X128438998Y-76214035D01*
X128546599Y-76106434D01*
X128607922Y-76072949D01*
X128677614Y-76077933D01*
X128733548Y-76119804D01*
X128739820Y-76129019D01*
X128770801Y-76179249D01*
X128779688Y-76193656D01*
X128903744Y-76317712D01*
X129053066Y-76409814D01*
X129219603Y-76464999D01*
X129322391Y-76475500D01*
X130122408Y-76475499D01*
X130122416Y-76475498D01*
X130122419Y-76475498D01*
X130178702Y-76469748D01*
X130225197Y-76464999D01*
X130391734Y-76409814D01*
X130541056Y-76317712D01*
X130665112Y-76193656D01*
X130757214Y-76044334D01*
X130771906Y-75999996D01*
X140694435Y-75999996D01*
X140694435Y-76000003D01*
X140714630Y-76179249D01*
X140714631Y-76179254D01*
X140774211Y-76349523D01*
X140836035Y-76447914D01*
X140870184Y-76502262D01*
X140997738Y-76629816D01*
X141150478Y-76725789D01*
X141313983Y-76783002D01*
X141320745Y-76785368D01*
X141320750Y-76785369D01*
X141499996Y-76805565D01*
X141500000Y-76805565D01*
X141500004Y-76805565D01*
X141679249Y-76785369D01*
X141679252Y-76785368D01*
X141679255Y-76785368D01*
X141849522Y-76725789D01*
X142002262Y-76629816D01*
X142129816Y-76502262D01*
X142225789Y-76349522D01*
X142285368Y-76179255D01*
X142285369Y-76179249D01*
X142305565Y-76000003D01*
X142305565Y-75999996D01*
X142285369Y-75820750D01*
X142285368Y-75820745D01*
X142225788Y-75650476D01*
X142129815Y-75497737D01*
X142002262Y-75370184D01*
X141849523Y-75274211D01*
X141679254Y-75214631D01*
X141679249Y-75214630D01*
X141500004Y-75194435D01*
X141499996Y-75194435D01*
X141320750Y-75214630D01*
X141320745Y-75214631D01*
X141150476Y-75274211D01*
X140997737Y-75370184D01*
X140870184Y-75497737D01*
X140774211Y-75650476D01*
X140714631Y-75820745D01*
X140714630Y-75820750D01*
X140694435Y-75999996D01*
X130771906Y-75999996D01*
X130812399Y-75877797D01*
X130822900Y-75775009D01*
X130822899Y-74424992D01*
X130819485Y-74391575D01*
X130812399Y-74322203D01*
X130812398Y-74322200D01*
X130790953Y-74257483D01*
X130757214Y-74155666D01*
X130665112Y-74006344D01*
X130541056Y-73882288D01*
X130391734Y-73790186D01*
X130225197Y-73735001D01*
X130225195Y-73735000D01*
X130122410Y-73724500D01*
X129322398Y-73724500D01*
X129322380Y-73724501D01*
X129219603Y-73735000D01*
X129219600Y-73735001D01*
X129053068Y-73790185D01*
X129053063Y-73790187D01*
X128903742Y-73882289D01*
X128779689Y-74006342D01*
X128779688Y-74006344D01*
X128747523Y-74058493D01*
X128739820Y-74070981D01*
X128687872Y-74117705D01*
X128618909Y-74128928D01*
X128554827Y-74101084D01*
X128546600Y-74093565D01*
X128439002Y-73985967D01*
X128298924Y-73884195D01*
X128144657Y-73805591D01*
X127979989Y-73752087D01*
X127979981Y-73752085D01*
X127972400Y-73750884D01*
X127972400Y-74819670D01*
X127952655Y-74799925D01*
X127867145Y-74750556D01*
X127771770Y-74725000D01*
X127673030Y-74725000D01*
X127577655Y-74750556D01*
X127492145Y-74799925D01*
X127472400Y-74819670D01*
X127472400Y-73750884D01*
X127472399Y-73750884D01*
X127464818Y-73752085D01*
X127464810Y-73752087D01*
X127300142Y-73805591D01*
X127145875Y-73884195D01*
X127005797Y-73985967D01*
X126883367Y-74108397D01*
X126781595Y-74248475D01*
X126702991Y-74402742D01*
X126649485Y-74567415D01*
X126622400Y-74738428D01*
X124573386Y-74738428D01*
X124538494Y-74688597D01*
X124371402Y-74521506D01*
X124371396Y-74521501D01*
X124185842Y-74391575D01*
X124142217Y-74336998D01*
X124135023Y-74267500D01*
X124166546Y-74205145D01*
X124185842Y-74188425D01*
X124232624Y-74155668D01*
X124371401Y-74058495D01*
X124538495Y-73891401D01*
X124674035Y-73697830D01*
X124773903Y-73483663D01*
X124835063Y-73255408D01*
X124855659Y-73020000D01*
X124835063Y-72784592D01*
X124773903Y-72556337D01*
X124674035Y-72342171D01*
X124650980Y-72309244D01*
X124538494Y-72148597D01*
X124371402Y-71981506D01*
X124371396Y-71981501D01*
X124185842Y-71851575D01*
X124142217Y-71796998D01*
X124135023Y-71727500D01*
X124166546Y-71665145D01*
X124185842Y-71648425D01*
X124349103Y-71534108D01*
X124371401Y-71518495D01*
X124538495Y-71351401D01*
X124674035Y-71157830D01*
X124763118Y-70966790D01*
X124809290Y-70914352D01*
X124876484Y-70895200D01*
X124943365Y-70915416D01*
G37*
%TD.AperFunction*%
%TD*%
M02*
