M48
; DRILL file {KiCad 8.0.3} date 2024-08-10T21:36:27-0700
; FORMAT={-:-/ absolute / inch / decimal}
; #@! TF.CreationDate,2024-08-10T21:36:27-07:00
; #@! TF.GenerationSoftware,Kicad,Pcbnew,8.0.3
; #@! TF.FileFunction,Plated,1,4,PTH
FMAT,2
INCH
; #@! TA.AperFunction,Plated,PTH,ViaDrill
T1C0.0118
; #@! TA.AperFunction,Plated,PTH,ComponentDrill
T2C0.0295
; #@! TA.AperFunction,Plated,PTH,ComponentDrill
T3C0.0394
%
G90
G05
T1
X4.8307Y-3.626
X4.8307Y-3.7244
X4.8307Y-3.8228
X4.8307Y-3.9252
X4.8307Y-4.0236
X4.8307Y-4.126
X4.8976Y-3.626
X4.8976Y-3.7244
X4.8976Y-3.8228
X4.8976Y-3.9252
X4.8976Y-4.0236
X4.8976Y-4.126
X4.9291Y-4.2244
X4.9606Y-3.063
X4.9685Y-3.9606
X5.0039Y-4.185
X5.0354Y-3.5276
X5.0354Y-3.6378
X5.0551Y-3.4488
X5.0709Y-4.0591
X5.0748Y-3.0315
X5.111Y-3.3905
X5.1378Y-4.0118
X5.1575Y-3.1929
X5.1614Y-3.2913
X5.1693Y-3.9252
X5.1693Y-4.0118
X5.1693Y-4.185
X5.185Y-3.315
X5.1969Y-2.874
X5.1969Y-3.0039
X5.2008Y-4.0118
X5.2036Y-3.4059
X5.2087Y-3.1181
X5.2087Y-3.2441
X5.2205Y-3.7638
X5.2323Y-4.0118
X5.2323Y-4.185
X5.2717Y-3.5039
X5.2717Y-3.6063
X5.2717Y-3.6693
X5.2756Y-4.0118
X5.2953Y-3.4764
X5.2953Y-3.5512
X5.315Y-4.0118
X5.3189Y-3.1575
X5.3228Y-3.3031
X5.3346Y-3.4055
X5.3465Y-3.9252
X5.3465Y-4.185
X5.3465Y-4.0118
X5.3583Y-3.3024
X5.378Y-4.0118
X5.3858Y-3.4055
X5.3898Y-3.3031
X5.4094Y-4.0118
X5.4213Y-3.3031
X5.4279Y-3.2244
X5.4311Y-3.1581
X5.4449Y-3.4055
X5.4449Y-3.437
X5.4449Y-3.4724
X5.4449Y-3.5039
X5.4449Y-3.637
X5.4488Y-3.0669
X5.4488Y-4.185
X5.4565Y-3.3049
X5.4764Y-3.0669
X5.4921Y-4.0118
X5.5079Y-3.0669
X5.5236Y-3.437
X5.5236Y-3.4724
X5.5236Y-4.0118
X5.5236Y-4.185
X5.5246Y-3.4033
X5.5354Y-3.0669
X5.5551Y-3.9252
X5.5551Y-4.0118
X5.5709Y-2.9921
X5.5709Y-3.2362
X5.5709Y-3.6299
X5.5748Y-3.1378
X5.5866Y-4.185
X5.5866Y-4.0118
X5.5984Y-3.3071
X5.6142Y-3.4055
X5.6142Y-3.437
X5.6142Y-3.4724
X5.6142Y-3.5079
X5.626Y-3.6732
X5.626Y-3.7323
X5.6299Y-4.0118
X5.6339Y-3.1732
X5.6349Y-3.5772
X5.6496Y-3.4055
X5.6535Y-3.8071
X5.6693Y-4.0118
X5.7008Y-4.0118
X5.7039Y-4.185
X5.7323Y-3.311
X5.7323Y-3.9252
X5.7323Y-4.0118
X5.7357Y-3.0566
X5.7638Y-4.0118
X5.7638Y-4.185
X5.7835Y-2.8858
X5.7992Y-3.7835
X5.8031Y-3.3189
X5.8386Y-3.0591
T2
X5.0284Y-2.9567
X5.1072Y-2.9567
T3
X4.1622Y-2.3748
X4.1622Y-2.4748
X4.1622Y-2.5748
X4.1622Y-2.6748
X4.1622Y-2.7748
X4.1622Y-2.8748
X4.1622Y-2.9748
X4.1622Y-3.0748
X4.1622Y-3.1748
X4.1622Y-3.2748
X4.1622Y-3.3748
X4.1622Y-3.4748
X4.1622Y-3.5748
X4.1622Y-3.6748
X4.1622Y-3.7748
X4.1622Y-3.8748
X4.1622Y-3.9748
X4.1622Y-4.0748
X4.1622Y-4.1748
X4.1622Y-4.2748
X4.8622Y-2.3748
X4.8622Y-2.4748
X4.8622Y-2.5748
X4.8622Y-2.6748
X4.8622Y-2.7748
X4.8622Y-2.8748
X4.8622Y-2.9748
X4.8622Y-3.0748
X4.8622Y-3.1748
X4.8622Y-3.2748
X4.8622Y-3.3748
X4.8622Y-3.4748
X4.8622Y-3.5748
X4.8622Y-3.6748
X4.8622Y-3.7748
X4.8622Y-3.8748
X4.8622Y-3.9748
X4.8622Y-4.0748
X4.8622Y-4.1748
X4.8622Y-4.2748
X5.0039Y-3.7441
X5.0039Y-3.8858
X5.0039Y-4.2717
X5.0118Y-3.2992
X5.1039Y-4.2717
X5.2039Y-4.2717
X5.3039Y-4.2717
X5.4039Y-4.2717
X5.5039Y-4.2717
X5.6039Y-4.2717
X5.6654Y-2.8858
X5.7039Y-4.2717
X5.8039Y-4.2717
M30
